<svg xmlns="http://www.w3.org/2000/svg" version="1.0" width="700" height="250"><g fill="#4d4d4d" clip-rule="evenodd" fill-rule="evenodd"><path d="M435.852 64.602c1.203.251.206 1.554 0 2.249-.259-.17-.522-.334-.964-.321-.014-.98.678-1.25.964-1.928zm19.278 0c.519-.09.553.303.964.321-.136.615-.117 1.383-.964 1.285v-1.606zm6.425 2.248c-.81 1.119-2.023 1.833-3.535 2.25-3.644 2.138-4.509 7.056-7.71 9.638-1.415-.786 1.22-2 1.927-3.213.506-.87.149-1.814.964-2.249v-2.57c1.64-2.114 5.304-5.252 8.354-3.856zm-6.748 3.534c.805.055 1.006-.493 1.286-.964-.805-.054-1.006.495-1.286.964zm11.246 2.571c-.15-1.542 1.868-.925 2.249-.322-.17 1.1-1.548.493-2.25.322zm1.927.642c-.396 2.303-3.008 3.297-2.57 5.462-1.136.173-1.655-.272-1.928-.964-.137-1.038 1.926-1.275.322-1.927.1-.437.805-.267 1.285-.322.128-.77-1.463.179-.964-.964.755-.759 1.579.053 2.57 0 .309-1.164-1.386-.326-1.606-.963.63-1.13 1.612-.235 2.892-.322zm-8.674 6.426c-.049.799-1.089.095-1.286 0 .22-1.003.98-.54 1.286 0zm-50.443-.321c-1.107 1.687-5.088 1.82-4.177 4.498-1.894-.49-2.218 2.187-2.892 3.856-.528-4.386 2.896-7.6 7.069-8.354zm33.736.321c.032 1.834-3.726 1.293-4.498 1.285.186-1.741 3.202-.653 4.498-1.285zm94.46 2.249c-.123 2.555-1.933 3.423-1.286 6.748 2.578.85 5.101 1.754 5.463 4.819 1.292-1.734 6.342-3.488 8.033-.964-.062 1.01-.598 1.545-1.607 1.607.344 2.056-1.385 2.041-1.606 3.534-.127 1.626 1.708 1.29 2.892 1.606.452.62.849 1.293.963 2.25 3.949.43 4.261 7.39 0 7.71.098 1.143 2.204 1.418.964 2.892-1.465.394-1.015-1.126-1.927-1.285-1.358.404-.11 1.737-.322 2.892-1.234 1.335-3.35 1.79-6.103 1.606 2.486 2.836.95 10.291-3.856 11.246-.072-1.035.568-1.36.321-2.57-1.524-2.244-7.925-2.287-8.675.642-2.19-4.064 7.572-4.358 9.318-1.285 1.119-3.084-3.133-4.064-5.14-4.177 1.344-2.432 3.991.5 5.462.964.081 1.31 1.198 1.587.964 3.213 1.419-1.45 2.118-3.717 1.606-5.784-.607-2.446-3.19-2.24-4.176-3.855 1.132-.213 1.49-.22 2.891-.643 1.209 1.64 5.697 1.955 6.105-.642-1.19-.962-1.994 1.205-3.856.642-1.367-.132-1.361-1.637-2.891-1.606.773-3.009 4.969-.656 6.426-.964-.16-1.127-1.654-.917-1.928-1.928.322-1.275 1.297.05 1.928.321.541-.427-.536-2.148.321-2.891.565.077.732.553.643 1.285 1.125.054 1.011-1.13 1.606-1.607-.631-1.543-2.305-2.537-1.285-4.82-.423-.86-2.037-.532-2.892-.963-.372-2.199-1.745-3.395-4.177-3.534-1.032-.068-.781 1.146-1.285 1.606-.197-.445-1.237-.048-1.285-.642-1.128 1.335-2.45 2.477-3.534 3.855.815 2.113-.06 4.705-.322 6.747-2.26.958-3.87 3.254-5.783 5.141-.428.422-1.267.575-1.606.964-1.153 1.322-2.244 4.26-4.82 2.57-.118-1.724 2.045-1.167 1.928-2.891 1.886.279 2.01-1.203 3.534-1.285 1.373-3.301 5.82-4.272 5.14-8.675.672-.137.852.22 1.286.32.291-1.26.391-2.004-.321-2.89-.973-.443-1.148.152-2.57 0 .653-1.596 3.508-.99 4.176-2.571-.04-.71-1.362-.137-1.927-.322.216-1.497 2.251-1.175 3.212-1.927.054-.91-1.98.267-1.926-.643.256-1.349 1.968-1.245 2.891-1.928v1.607c2.375-1.66-.039-5.631-2.57-5.462-1.244-.28-.525 1.403-1.927.964.674-2.218 1.038-4.746 1.607-7.069-3.796-1.329-6.227 1.483-6.748 4.498.735 1.193 3.793.063 3.534 2.25-1.122.603-2.504-1.134-2.892.963-1.267.088-.983-1.374-2.25-1.285-4.075-.245-2.75 4.641-2.248 7.39.212.43.686.599 1.285.642-1.451 2.94-1.38 7.402-4.178 8.997-.473 1.712.759 2.863.321 3.534-1.727-1.592-3.23-3.409-4.819-5.14-5.74.332-6.506-8.072-1.927-9.639-.54-4.934 3.172-7.32 6.747-7.068.975-.118.667 1.047.964 1.606.836-1.066 2.219-3.025 4.178-1.928.264-5.1 4.332-8.07 9.956-6.748zm-20.563 13.816c.832.553 1.723 1.021 2.57.964 2.648-.18 3.824-3.701 2.25-5.783-3.814-.6-4.33 2.097-4.82 4.82zm26.025-1.928c-.02 1.091.375 1.766.964 2.25 2.456.207 2.798-1.7 3.534-3.214-1.736-1.065-3.05.708-4.498.964zm-1.607 1.286c.895.514.888-1.387.322-1.286.071.607-.363.71-.322 1.286zm-25.704 2.249c-.712 1.322-1.647 2.421-1.927 4.176 1.749 2.643 4.97 3.812 7.39 5.784 2.293-3.255 3.951-7.091 2.57-11.567-2.487 1.325-4.463 2.919-8.033 1.607zm35.663 8.675c-.212.361-1.488 1.245-.642 1.606.6-.898 1.43-1.567 1.606-2.892-.346-.94-.888-1.682-2.249-1.606.165 1.228 1.057 1.728 1.285 2.892zm-8.352 5.46c.133.809 2.477 1.049 2.57 0-.133-.807-2.478-1.046-2.57 0zm-92.532-23.774c.046 1.291-.824.85-1.607.642.048-.702.81-.69 1.607-.642zm-185.386 9.639c.148 1.004-.686 1.027-1.606.963-.115-1.384.799-1.24 1.606-.963zm177.353 0c-.584 1.6-4.675 2.243-6.104.963.138-.919 1.909-.173 3.213-.32 1.178-.134 2.023-.71 2.891-.643zm5.784 0c.42 1.383-.912 1.016-1.285 1.606-3.09-.41-4.445.91-7.069.964.038-1.06 1.588-.74 2.25-.964 1.46-.496 3.677-1.36 6.104-1.606zm-244.504 2.249c2.142.107 2.775 1.723 3.534 3.213.607.142 1.937-.437 1.607.642h-2.25c-.55-.52-.123-2.018-1.284-1.928-.866.38 0 1.676 0 2.25-1.227.156-2.05-.091-2.57-.643.558-1.442 1.73-1.428.963-3.534zm215.266.964c-.974 1.188-1.083-.976 0 0zm-115.987 0h.643c.15.685-.459.612-.964.642.06-.26.323-.32.321-.642zm-111.166.642c1.49-.163 1.019 2.843.964 3.213-.914-.48-.894-1.891-.964-3.213zm113.415.321c-.116 1.288-2.395 2.088-3.534 1.286.369-1.144 2.633-1.701 3.534-1.286zm-.642 1.929c.372-.053.571.07.642.32-.65 1.376-2.83 2.237-4.498 1.607.591-1.337 3.83-.027 3.856-1.928zm.321 1.927c-.672 2.113-2.715 2.852-5.462 2.892-.157-1.464 1.207-.677 1.928-.964 1.238-.494 2.177-1.733 3.534-1.928z"/><path d="M542.2 108.297h.642v.643h-.643v-.643zm-240.648.643c-.038 1.474-2.367 1.966-3.534 1.285.223-1.383 2.237-.976 3.534-1.285zm-81.93 1.607c1.213-.215-.157 1.491.322 2.57 1.199.8 3.118.04 4.498 0-.376 1.65-3.673 1.396-5.141.964-.238-1.199-.68-2.84.321-3.534zm13.816 11.565c.651.955 3.018.195 3.212 1.607.117 1.08-1.392.535-1.927.964-.54 1.066-.516 2.696-1.285 3.534-5.479-1.455-2.42-8.91-2.892-13.495-.91-.91-2.635-1.005-4.498-.963 4.317-2.697 9.799 3.244 7.39 8.353zm-.321-1.928c-.055-.48.115-1.186-.322-1.285-.417.428-.424 1.196.322 1.285zm-1.928-.642c-.888 1.22 1.179 1.412 0 0zm-.321 5.462h.642v-.643h-.642v.643zm-27.31-9.96c.653.098-.066-.929-.321-.964.735-.75 1.474 1.58 2.892.321.099.759 1.115.598.964 1.607-2.452-.457-6.266.533-6.748-2.57.904-.064.927 1.385.964-.322 1.244.148 1.209 1.576 2.25 1.928zm4.498-.321c.671-.136.85.22 1.284.322-.056.93-1.525.774-1.284-.322zm318.4 2.891c-1.637 2.112-4.29 3.207-6.426 4.82-.097-2 2.06-2.606 3.534-3.535.917-.577 2.08-2.067 2.892-1.285zm14.137.322c1.228.271 1.235 1.764 1.285 3.213-1.45-.05-.965-2.035-1.285-3.213zm-257.997 1.606c.372-.052.571.07.642.321-.862 5.686-6.212 5.838-9.317 8.675 1.344-2.296 3.279-4.004 3.855-7.068 1.295.57-.406 3.353-.964 4.177.717.2 1.667-.485 2.25-1.286.896-1.233.63-3.796 1.927-4.498.784 1.27-.84 2.469-.964 3.856 1.837-.411 2.104-2.394 2.57-4.177zm-122.092.965c1.003 1.89 2.059 3.725 3.213 5.462-2.495 2.537-4.01 6.057-6.104 8.996-3.089.232-4.719 1.921-5.141 4.82.18.463.502.784.964.963 1.604-1.18 1.24-4.329 4.177-4.176.054 1.125-1.13 1.011-1.607 1.606 1.805.856-.096 1.209-.321 2.57.218 1.094 1.069-1.415 1.285-.32-.126 1.158-.415 2.154-.642 3.212 1.782.826 2.256-1.592 3.855-1.928 1.279-.207 1.292.851 2.57.643 2.402-.923 4.472-2.976 7.39-1.607v1.286c2.053.124 2.386-1.47 3.213-2.57 1.555.555-.635 2.447-.964 3.212.514 2.592 2.851 3.362 3.213 6.105 1.385-.115 2.273-.726 3.213-1.285 3.333 1.569 5.554.088 5.784-2.892.116-1.507-1.79-2.77-.322-3.856 1.203.19.994 1.791 1.928 2.25.972-.487-.266-1.41 0-2.25.64.004.41.877 1.285.643v-.964c-.133-.713-1.761-.308-1.606.321-.86-.746-1.507-1.707-1.928-2.891-2.047-.397-2.01.098-3.855.321.918-1.858.538-3.605 1.285-5.14-.102-1.226-1.827-2.038-.964-3.214 1.003 2.647 5.047 3.207 3.855 7.069.757 2.349 3.771 2.441 6.426 2.892 1.508-1.063 3.057-2.084 4.177-3.535.545-2.578-.957-3.112-.964-5.14-2.662-.645-5.189-3.047-7.71-1.928-.413-1.268.935-.778.963-1.607 3.562-.456 4.232 1.98 7.069 2.25 2.19 2.2.993 7.787 2.891 10.28-.545 2.667-1.622 4.804-4.82 4.82-1.723-.74.127-5.053-3.211-4.177-.914.48-.894 1.892-.964 3.213-3.241 2.313-1.97 10.076-7.39 9.64-1.054-.086-1.742-.41-2.57-1.286.004-1.173.913-1.442 1.285-2.249-.137-.613-.918-.582-.643-1.606-1.037.676-2.001 1.426-3.213 1.927-.072.96 1.187 1.093.322 1.928-3.28-.178-7.121.053-9.318-1.928-4.659 2.783-8.292-1.355-9.318-5.14-4.074.433-3.606-3.677-5.783-5.141-.034-3.996 2.258-5.666 5.14-6.747 2.239-2.154 3.165-5.618 5.784-7.39-.889-1.36-2.12-2.377-2.57-4.177-1.19.096-1.156 1.414-2.892.964-.458-.316-1.156-2.022-.321-2.57 1.222-.238 1.515.836 3.854.32zm32.13 23.132c3.002.44 3.534-3.187 2.57-4.82-3.649-.151-3.108 2.007-2.57 4.82zm-37.27-.321c-.055-.481.115-1.186-.322-1.285-.417.427-.423 1.195.322 1.285zm15.422.321c-.58-.413-3.294-.96-4.498-1.606-1.12-.602-2.643 2.45-3.534 1.606-.86-.318-1.695-.662-2.892-.642-1.556 2.465.671 5.99 2.892 6.747 1.713-2.04 6.248-.052 8.675.964 2.842-.817 1.366-5.635-.643-7.069zm12.852 5.141c-.446.732-2.237.12-3.213.321.106 1.285-.574 1.784-.321 3.213 1.402.448 1.897.01 3.213-.321-.106-1.017 1.922-2.779.32-3.213zm90.925-25.383h.964c-.557 2.872-1.75 5.106-4.177 6.105.963-2.142 3.37-2.842 3.213-6.105zm263.138.643c-.24 2.652-1.183 4.601-3.534 5.14 1.96.612 4.94.202 6.105 1.607.336 1.622-1.436 1.135-1.928 1.928-1.243.28-1.143-.784-1.928-.964-3.548.521-3.995 4.144-7.711 4.498-.28-1.35 1.067-1.075 1.606-1.606-.031-2.281 1.221-3.278 2.57-4.177v-2.25c1.259.187 1.867-.276 2.571-.642-1.607-.965-6.086 2.011-6.426-1.285 2.732 1.305 6.803.21 7.711-2.249h.964zm-6.426 9.318c1.065-.113 1.394-.962 1.927-1.607-1.364-.186-1.49.866-1.927 1.607zm-259.603-8.033c1.735.917-1.163 2.373-.964 3.856-1.012-.155-.728.986-1.928.642.749-1.713 2.315-2.61 2.892-4.498zm-50.122 1.928c.443-1.023.319 1.135.322 1.607-.443 1.023-.32-1.135-.322-1.607z"/><path d="M168.858 130.466h.964c.05.8-.504.995-.642 1.607.577.04.678-.394 1.285-.322.07 1.447-.58 2.773.963 3.213-.327.422-.315 1.184-.643 1.607.28.934.481.361 1.285.321.25.714.676 1.252.643 2.249-4.178-.467-4.453-4.986-3.855-8.675zm357.598.964c1.197.302 2.84.159 3.534.964-.26 2.88-5.087 1.99-3.534-.964zm-347.959.643c.476.272.691.808.643 1.606-.956.068-1.133-1.145-.643-1.606zm339.283.321c.52-.09.554.303.965.321.771 3.928-.9 7.192-4.177 8.033.585-2.307 1.874-3.91 1.606-7.069 1.414.597.472 4.008 0 4.82 2.2-.889 1.818-3.444 1.607-6.105zm-237.433.964c-.594 1.547-2.107 2.178-3.535 2.891 0 .64.876.41.643 1.286-1.186.892-4.106 2.73-6.426 2.891-.842.06-2.978.607-3.213-.964 3.698-.05 6.897-.6 8.675-2.57-1.477.13-2.448.765-3.856.964.7-1.382 2.349-1.286 3.535-1.927 1.418-.768 2.476-2.3 4.177-2.571zm231.329.964h.964c-.33 3.525-.587 7.124-2.892 8.675.566-2.906 2.52-5.624 1.928-8.675zm2.249 0c.373-.053.572.07.643.32.22 4.03-1.026 6.668-2.892 9.319-.164-2.845 3.03-5.108 2.25-9.64z"/><path d="M534.488 134.643c-.423 2.04-2.503 2.424-2.891 4.497-1.439.49-2.56 1.297-4.82.964-.059 1.135 1.36 1.759.643 2.57-3.055-.698-3.633 1.08-4.498 2.57h-2.892c-.982.846 1.304 1.083.321 1.929-1.506 1.121-3.71.382-5.14-.322.055 1.978 1.323 2.745 1.926 4.177-.696 2.212-6.28 1.577-6.747-.321-.734 1.248-2.047 4.058-3.856 2.249.072-1.536 1.491-1.722.964-3.856.166-1.242-1.85-1.267-.964-2.249 2.088.054 1.938 2.347 1.928 4.498 1.76-.239.616-2.542.643-3.855 1.693.087 1.79-1.424 3.213-1.607 1.225.06.777 1.793 1.928 1.928.06-1.478-1.37-2.729-.322-4.177 1.678.417 3.323 1.265 5.141.643.949-.28-.745-.481-.321-1.285 1.83-.847 3.99-1.363 6.104-1.928-.339-1.589-3.364-.491-4.498-1.285.939-1.472 3.836-.211 5.462-.322-.501-2.177-2.836-2.519-5.14-2.891.489-1.73 2.052-.536 3.213-.322 3.262.604 7.168 1.384 9.638-1.927.52-.09.555.304.965.322zm-5.783 3.534c-1.125.451-2.057-.9-2.57 0 .7.243 2.26 1.264 2.57 0zm-9.639 7.711c-.69-.596-2.354-.216-3.534-.321.349 1.235 2.855 1.141 3.534.321zm-6.426 4.177c1.138-.363 1.829 1.35 2.57.321-1.48-.555-1.572-2.497-3.213-2.891-.085 1.156.594 1.548.643 2.57zm-.321.321c-1.18-.105-.286-2.284-1.607-2.249-.383 1.47.56 3.274 1.607 2.25zM175.605 136.25c1.707-.204 1.376 1.722 0 1.606-.602-.612-.035-.807 0-1.607zm130.123 0c.803 1.033-.935 2.265-1.928 2.57-.703-1.102 1.003-2.078 1.928-2.57zm203.699 0h.964c-.564 2.862-.885 5.97-2.57 7.71-.594-2.418 2.035-4.387 1.606-7.71zm-144.26.32c2.639 1.967 3.126 6.085 5.783 8.033-1.912.592-2.396-2.222-3.212-3.534-.95-1.525-2.474-2.776-2.57-4.498zm142.011 1.286c.374-.052.572.07.643.321-.273 2.834-1.01 5.203-2.892 6.426.474-2.525 2.114-3.883 2.249-6.747zm-2.57 1.285c.595 2.635-1.045 5.808-3.213 6.747.897-2.423 2.54-4.1 3.213-6.747zm-229.402.643c-.738 1.94-3.61 1.745-3.856 4.177-2.379.371-6.122 2.193-8.353.642.153-1.567 1.438-.26 2.249-.321 2.04-.153 4.494-.905 6.104-1.607-1.08-1.06-5.824 1.583-5.783-1.285 3.682.918 6.81-.688 9.639-1.606zm225.868.964c1.301.672-.479 3.502-1.606 3.855.148 1.006-.28 1.435-1.285 1.285.765-1.91 2.04-3.314 2.891-5.14zm-176.711 1.285c1.72-.327 1.6 1.186 3.213.964 3.725 5.414 8.264 11.242 8.033 19.599-.68.286-.95.978-1.928.964-.27-.373-.424-.861-.321-1.607-.46 1.201-1.562.91-2.57.321-.156-1.546 2.432-.35 1.606-2.57.568-.603.938.382 1.606-.321-.78-1.454-1.191-3.265-1.927-4.82-.7-1.474-2.23-2.79-1.928-4.177 1.665 1.12 2.196 3.374 3.213 5.141.054-3.376-2.971-6.452-4.82-8.996h-1.285c.944-2.203-2.584-2.498-2.892-4.498zm-56.226 3.213c-.158 1.836-3.771 2.856-6.104 2.891-1.3.02-3.602.055-3.856-1.285 3.504-.434 7.294.194 9.96-1.606zm-7.068 4.177c-.57 1.089-3.567 1.38-3.535-.322.579-.343 2.713-.095 3.535.322zm-11.567.321c.395.14.66.41.643.964-1.115.28-1.103-.495-.643-.964zm135.907 1.286c1.757 2.955 4.748 4.675 6.747 7.389-1.88-.199-3.59-1.695-4.82-3.213-.97-1.2-2.172-3.075-1.927-4.177zm-26.989 7.71v.643c-1.566.321-.593-1.71 0-.643zm-50.443 5.141c1.331-.062 1.088-1.697 2.25-1.928 1.513-.014 2.542.456 3.212 1.285-.526 1.03-1.655.279-2.249-.32-.64.323-1.373.555-1.606 1.284.413 2.373 1.642 3.929 4.177 4.177 1.562.17 1.135-1.648 2.891-1.285-.197 3.544-3.598 2.958-4.82 2.57-2.217-.702-3.425-4.54-5.783-6.426-3.298-2.635-8.34-1.682-9.96 3.213-.055.805.493 1.006.964 1.286 1.478-1.324 2.404-3.877 4.82-3.856 1.49.013 2.066 1.204 3.534 1.928-1.31 1.079-2.432-.769-3.534-.964-1.346.796-2.79 1.495-3.212 3.213 1.688.081 2.06-1.856 3.534-1.928 1.044-.05 1.776.774 2.891 1.285-.445 1.4-1.66.033-2.57 0-1.633.294-2.314 1.541-3.213 2.57 1.532.933 4.938-.01 4.82 2.571-1.245.22-2.195-1.08-3.856-.964-1.939.136-4.76 2.225-4.498 4.82 1.49-.331 1.765-1.877 2.892-2.57 3.314-.531 3.86 1.707 4.497 3.855-.777 1.063-2.021-.328-2.57.964.077 1.868 3.184-.425 2.57 2.57-.86.821-1.695-.194-2.892 0-2.48.303-4.27 4-2.57 6.426.498-1.958 2.511-6.842 4.82-3.856-1.506.122-3.68.582-3.535 3.213 1.374-.091 1.699-1.584 3.213-.642.236 1.629-.797 1.987-1.285 2.891-.124 1.194 1.302.84.964 2.25-2.19-1.664-3.012 1.614-4.498 2.57-.09.52.304.553.322.964 2.212.285 2.03-1.825 3.534-2.25-.07 2.18-1.878 2.62-2.892 3.856.143.821.45 1.478.964 1.928-2.196-.312-7.92.804-8.353-2.892 1.62-.084 2.608-.51 4.82-.642.528-1.935 2.136-2.79 3.213-4.177-1.338-1.951-3.498-3.157-3.213-6.105.21-2.187 2.155-3.783 3.855-4.82-.137-1.53.382-2.401.964-3.212-1.337-1.001-3.082.333-2.57 2.249-5.021.463-3.746-6.335-1.285-7.711v-1.607c.264-1.354-1.228-.845-1.607-1.606-1.743-3.498 4.197-8.142 7.711-7.711 2.436.298 3.136 2.384 5.14 3.534zm-8.353 24.739c1.126.183 2.096-1.43.964-1.607-.29.568-.776.94-.964 1.607zm-5.783 8.354c.25.07.374.27.321.642 1.147-.031 2.206-.15 2.57-.964-.644-.549-2.604-.468-2.89.322zm56.868-16.065c1.655 1.421-1.17 3.693-1.607 5.14-.989-.239-.617.883-1.606.643 1.385-1.614 2.674-3.323 3.213-5.783zm-3.213 1.285c1.45 2.016-1.067 5.26-3.213 5.783 1.453-1.545 2.65-3.347 3.213-5.783zm-3.212.964c.287.143.575.282.642.642-.46 2.324-1.252 4.317-4.176 4.177 0-1.602 1.182-2.03 1.285-3.534 1.098.171.492 1.549.321 2.25 1.782-.038 1.275-2.367 1.928-3.535zm-5.784 3.534c.26.06.32.323.643.321-.062.261-.323.32-.321.643-.26-.06-.32-.323-.643-.321.06-.26.322-.32.322-.643zm126.91 2.892c-2.837.483-6.94 4.178-3.213 6.426-.045-1.308-.49-4.095 2.25-4.177-.39.79-1.498.86-1.607 1.928.717.747.866 2.417.321 3.534-5.51-.67-2.807-9.703 2.25-7.711zm4.82 2.892c3.374.817 2.425 6.333-.643 6.104-1.708-.127-1.375-2.611-3.534-2.892-1.116.655.933 1.682 0 2.25-1.325.085-1.13-2.49-.643-3.213.457.027.91.053.964-.322 1.53.507 2.062 2.008 3.213 2.892.8.05.994-.505 1.607-.643.753-2.36-1.673-2.89-.964-4.176zm52.692 2.891c1.498.412 5.018 2.185 5.463 4.177.335 1.508.183 3.815-1.928 4.177-.71-.47.188-2.545-.964-2.57-.519-.091-.553.303-.964.32.12 2.13 2.04 2.46 2.57 4.178-.57 4.217.541 8.206-2.57 9.96-1.296-.31-2.782-.43-3.534-1.285-1.072 2.842 2.752 3.418 2.57 6.426-1.367 1.434-3.58-.3-4.82-.964-1.85.077-2.623 1.232-4.819.964-1.202 4.078-6.607 1.448-7.711-.964-2.758.187-4.086-1.055-5.14-2.57.345-2.01.208-2.821-.322-4.499.55-.868 1.868-2.232 3.213-1.285-.14 1.145-1.533 1.038-2.25 1.607.6 1.608.446 2.71.643 4.176.87 1.273 3.24 1.046 4.82 1.607.883 1.258 1.433 2.851 3.855 2.57.91-1.08.285-1.921.322-3.534.994.077 1.248.895 1.927 1.285.535.04 2.044-1.04 1.927.321.874-1.804 2.345-3.01 3.535-4.498-1.43-1.569-5.187-.81-4.82-4.177 1.511-.416 3.25-.606 3.534-2.249.701-.058 1.023.264.964.964.432-.21.6-.686.643-1.285 2.803.563 1.22 4.085-.321 4.82 2.359.538 1.777-1.864 2.891-2.57 1.08-.33.501.999.643 1.606 1.515-.182.57-2.327.964-2.892 2.19.92.217 3.976-.964 4.498 4.88 1.183 2.036-4.902 3.213-7.711-.297-1.202-1.31-1.688-1.607-2.892-1.043-.186-1.494.219-2.249.322-.087-2.78-3.022-3.232-5.14-2.25-1.68-.239-3.097-1.956-4.498-.642-.232.983.554.945.322 1.928-3.079.226-.967-3.088 0-3.535 1.49-.098 2.782.003 3.534.643 2.601-.358 5.34-.609 6.105 1.607 1.037-.355 2.322-.463 2.891-1.286 1.152-.08 1.178.965 2.25.964.341-1.847-2.844-2.935-4.499-3.855-.103-.746.05-1.234.32-1.607zm-4.499 16.708c.34-.336 1.71-1.25.964-1.607-.186.488-2.15.807-.964 1.607zm-.32 5.14c-.136 1.043-1.337 1.02-1.607 1.928 2.072-.608 3.538-.014 5.14.643.29-1.152-1.408-2.795-3.534-2.57zm-6.106 3.856h.643v-.643h-.643v.643zM301.873 198.58c-.515 1.627-2.91 1.374-2.57 3.856 1.285-.106 1.049-1.735 2.89-1.285.273 1.77-2.245.751-1.606 2.891.048.703.81.69 1.607.643.242 1.206-1.227.7-1.285 1.606.276 1.404 1.672-.172 2.249.643-.29.566-.718.995-1.285 1.285-1.533-.288-2.351-1.29-2.25-3.213-2.772-1.48-.243-7.343 2.25-6.426z"/><path d="M508.785 205.649h.964c.67.98-.647 2.284.643 2.891-.341 1.48-2.146 1.496-3.534 1.928-1.439-2.495 2.857-1.787 1.927-4.82zm-26.025 2.571c.103.743-.051 1.233-.321 1.606-.955-.028-.86-1.916.321-1.607zm6.105 0v1.284c-.84.09-1.381-.116-1.285-.964.286-.25.725-.345 1.285-.32zM271.35 46.93c.392 3.36-4.914 5.085-2.57 9.639 1.378-.25-.292-1.555.642-2.25.327.209.332.74.964.643 1.81-3.224 1.771-8.297 5.784-9.318 1.843-3.85 2.54-9.441.321-13.494-5.453-5.888-9.34-9.776-19.92-9.318-12.624.548-18.243 12.564-28.595 14.137-3.191.486-6.67-.37-8.996-1.927-2.163-1.45-2.939-3.52-5.784-4.82-.186-1.258 1.323-.82 1.607-1.606-.693-4.555-2.199-8.296-5.462-10.282.937 2.732 3.485 5.474 2.57 8.996-1.441.05-1.34-1.444-1.285-2.891-.762-3.415-3.066-5.288-4.497-8.033-2.41-1.574-6.204-3.404-10.282-2.249-.274 1.56 2.083.487 1.928 1.928-2.712-.156-4.613-1.547-7.069-1.285-3.496.373-5.58 3.547-7.068 6.104.499 1.474.084 2.51-.643 3.535.717 2.005 2.267 4.74 5.141 3.534-2.677-3.164-.67-9.381 3.534-10.603 1.635-.475 4.37-.471 5.783.964-1.17.1-2.091-.051-2.892-.321-1.402.953-2.084 2.627-3.855 3.213.077.828.552-.442 1.285 0-.445 1.483-2.108 1.747-2.57 3.213-.052 1.015-.012 1.939.642 2.249-.55 1.271-1.671 1.97-2.57 2.892 1.257 1.344 3.911-.275 4.819-1.286-.052-1.233-2.257-.312-1.927-1.927 1.541-.567 2.415.01 3.534.642.106-6.883 14.827-8.39 14.78-.321-1.122-2.252-4.009-6.226-7.068-3.534.398 1.635 3.106.963 3.213 2.891-5.59-2.388-8.926 2.427-8.033 7.711 1.08.117.536-1.392.964-1.927 1.76-2.112 5.89-4.5 9.639-2.57 1.134-.095-1.134-.87 0-.965 1.652-.367.669 1.902 2.57 1.286-.197 1.482.721 1.848.643 3.212 4.268 5.107 8.306 9.143 18.314 8.032 9.852-1.094 19.687-10.474 28.273-11.567 3.027-.385 4.495-.02 6.747.643 5.044 1.483 11.127 7.033 8.675 14.78-.188.595.13 1.88-.964 1.927-.377-1.9.565-2.612.643-3.534.91-10.586-9.658-14.516-18.635-11.567-6.882 2.263-14.308 7.993-22.169 9.96-6.382 1.599-13.387-.433-17.67-3.212-1.124-2.197-2.436-4.204-5.141-4.82-.47-1.78-1.566-2.93-2.892-3.854-3.981-.555-5.12 1.732-7.39 2.891-.19 1.369.231 2.125.322 3.213-1.424.032-2.404-.38-2.57-1.606-1.345.37-1.814 1.614-3.214 1.927v2.25c-5.314 7.69-17.881 1.722-16.706-7.39.451-3.507 3.087-6.055 5.783-8.033.924-3.73 3.528-6.908 6.748-8.675.913-.501 3.014-.03 4.819-.321 1.38-.222 2.697-1.149 4.177-1.285 3.807-.35 8.162 1.12 9.639 4.177 8.798.84 6.58 12.696 11.245 17.671 1.694-.013 4.302 1.786 6.426 1.928 4.422.295 8.646-2.277 11.567-4.177 5.728-4.93 13.74-12.164 25.704-9.96 3.168.583 7.268 1.682 8.675 4.177 2.713.648 6.486 4.934 7.39 7.71 1.025 3.151.457 6.447-.643 9.96 6.678.148 10.228-1.184 14.136 2.57 4.55 4.371 3.788 13.126-1.928 15.1-.379.131-1.893.388-2.57.322-1.134-.11-1.49-1.126-2.57-1.607-1.725-.768-3.836-.556-5.141-1.928-.46 1.79-1.298 3.2-1.927 4.82-2.399 1.434-6.508 6.963-9.961 3.855-2.577 1.57-8.007 1.749-10.923.322-2.809.94-3.832 3.665-5.462 5.782-.352 3.597-2.181 7.026 0 10.282.52.776 2.111 2.46 3.534 3.534.842.636 2.376.846 3.213 1.606.573.52.404 1.263.964 1.607 2.865 1.764 6.584 1.538 8.675 2.249-.011-1.81-3.125-.516-2.57-2.892 2.063 1.14 5.52.02 7.71-.642-.817-1.94-.073-4.384 1.928-4.498.443.413.318 1.395.322 2.249.77.194 1.466.462 2.57.321-.462-1.715-1.422-2.827 0-4.177 1.336.271 1.29 1.922 2.57 2.25 8.196-1.75 19.603-4.075 28.594-.965 4.481 3.196 10.843 2.92 17.028 3.856 4.417.668 8.84 1.852 13.494 2.249 6.907.588 13.393.609 19.92 1.285 2.297.237 5.437.635 7.71 1.285.587.168 1.01.82 1.607.964 1.66.398 5-.514 4.82 2.25-9.334-2.24-19.892-3.768-30.201-3.535-2.211.05-4.677-.622-6.426-.964-6.724-1.313-13.518-1.621-19.92-2.57-1.145-.17-2.406-.338-3.535-.643-2.815-.761-5.413-2.666-8.032-3.213-.995-.207-2.329.087-3.213 0-1.826-.18-3.42-.933-4.82-.964-.844-.018-1.373.527-2.249.643-1.093.145-2.197-.384-3.213-.321-5.597.344-11.665 2.28-15.742 5.462a33.95 33.95 0 00-6.748 2.249c.584 1.045 1.94-.676 2.57.321-4.058 2.338-9.822-.224-13.494-1.285-2.353-2.572-5.356-4.496-8.032-6.747-3.482-6.332-.442-15.003 3.855-18.313-.582-1.56-.565-3.72-1.285-5.141-5.589 1.595-10.142 8.253-9.317 15.422.13 1.13 1.28 1.667.642 2.892-3.12-3.438-.678-11.723 2.57-15.423 1.73-1.968 4.187-2.845 5.784-4.176.242-1.206-1.227-.7-1.285-1.607-8.237-.56-13.466 5.69-10.603 13.173-2.776-1.338-2.13-9.483 0-13.173 1.628-2.82 6.05-5.195 8.032-5.14 3.304.09 4.118 2.992 5.784 5.461-.685 2.485-.914 4.558 0 6.105.467.79.845.7 1.927 1.285 2.398 1.295 7.45 2.488 10.925.322 1.618-1.01 1.531-2.589 3.213-2.892-.083 1.524-1.565 1.648-1.286 3.534 3.327.188 8.032-4.927 8.354-8.996.126-1.593-.946-3.577-.643-5.14.3-1.54 2.473-3.97 3.856-4.498 2.35-.898 4.6.337 7.39.642 1.803 1.522 1.107 5.137.642 6.748-1.716-1.734-3.948-.44-4.819 1.285-.05 4.737 6.14 4.443 8.354 1.928.183-1.772 1.54-2.932 1.606-4.499.212-5.101-6.245-10.218-11.566-9.317-.707.118-1.908.354-2.25 1.285-1.03.281-.665-.834-1.285-.964-9.304.762-4.253 15.881-16.386 13.816.534 3.048 8.196 2.67 8.033-.643 1.568.759-.105 2.563-.643 3.213-2.615-.23-2.655.97-4.82.643-5.47-.828-4.187-10.789-11.566-10.28-.131-.62-1.245-.255-.964-1.286-9.907-2.545-17.014 2.48-19.277 9.638.484 1.002 1.385-.944 1.927 0-3.448 7.743-3.053 14.917.642 22.17.625 1.227 1.51 2.653 2.25 3.855 1.68 2.735 3.464 5.708 6.747 6.747.828-1.34-2.56-2.686-1.607-4.176 1.605.02.644 1.022.964 1.606 1.91 3.483 7.08 3.29 9.64 6.105.665.191 2.11-.397 2.248.321.967-.324.57.716.643 1.284 1.088 1.055 2.753 1.531 3.534 2.892-1.141 2.5-2.179 5.103-3.856 7.069.382 3.701-1.658 4.98-2.57 7.39-3.178.621-6.356 3.36-10.281 2.891-2.044-.245-5.103-2.086-5.463-4.177-.328-1.907 1.18-2.652 1.286-4.177.104-1.518-.582-2.408-1.286-4.177-2.417.503-3.993-.373-4.819-2.249 1.067-.906 1.006 1.373 2.57.964 2.24-.263 4.133-2.975 4.498-6.104.337-2.897.284-6.937-2.892-7.069.019 1.47 1.99 2.844 1.928 5.14-.06 2.173-1.58 4.093-3.535 4.82-1.26-.561-1.35-2.29-2.249-3.213a21.62 21.62 0 013.535.964c2.761-1.654.922-6.754-1.928-7.39-2.576.122-3.055 4.488-.321 4.82 1.351.495.05-1.663.963-1.607 1.669.258.684 2.043 0 2.57-1.562.277-1.65-.92-3.213-.643-1.174.505.747.48.322 1.284-1.466.589-2.686 2.928-4.498 1.286.163-1.55.571-2.856 1.927-3.212-1.011-2.31-4.017-.835-5.462 0 .588-2.723 4.38-2.4 6.426-1.286-1.944-3.999-7.469-1.38-8.675 1.607.26 2.461 2.467 4.542 1.608 7.068.157 1.128.818 1.752 1.285 2.57-1.542.807-3.16.023-3.856-.963-1.52.02-3.162.163-3.535-.964 1.184-2.409 3.77-.431 4.177-3.213.234-1.605-1.281-1.778-1.928-3.534.826-3.03 3.489-4.223 3.856-7.711.258.17.52.335.963.321.624-3.302-1.944-3.411-2.57-5.462 1.072-.001 1.097 1.045 2.248.964-2.218-1.666-4.717-4.53-8.353-2.892-1.128.694-1.427 2.214-2.57 2.892.624 1.994-1.044 4.287 1.284 4.498 1.78-1.543.679-4.628 2.892-6.105 1.824.67 3.559 1.632 3.856 3.213.42 2.229-2.046 4.132-1.928 6.426-.942.558-2.24.758-3.856.643-1.245.682-1.726 2.128-3.534 2.249-.557 2.292-.17 3.543 1.607 4.177-.784.97-1.995-.34-2.57-.643-.727-2.698.559-4.052 1.606-5.782-.42-1.707-2.545-1.674-3.856-.964-.763.628.588 1.798-.321 2.57-5.463 1.655-3.608-6.628-6.747-8.353-3.016-.326-5.033-.26-6.748 1.285-.364 1.777-.844 3.439-1.606 4.82.244.827 1.025 1.115 2.249.963 1.511-.844.676-4.037 2.249-4.82 2.74-.382 3.327 1.386 4.82 2.25.367 2.294-.99 2.867-.964 4.82 1.494.208.479-2.092 1.285-2.571 1.328.063-.097 2.881 2.249 1.928-.385 1.328-1.431 1.996-3.213 1.926-1.433-1.255-.831-3.343-.321-5.14-.194-1.79-2.976-2.36-4.177-1.285-.351 1.423.544 1.598.642 2.57-.61.782-2.205.58-2.57 1.607.293 1.849 1.777 2.507 1.285 5.141.018 1.16 1.69.666 2.25 1.285-.05 1.801-1.58.329-2.571.321-.385-.9-.353-2.217-.321-3.534-.63.87-.867 2.132-.964 3.534-.373 1.766 2.154.63 2.249 1.928-5.291 1.63-.95-7.138-5.462-7.39-1.63-.13-1.417 1.582-2.57 1.928-4.527-1.505-12.783-1.288-9.317 4.82.763-1.38-.26-4.544 1.927-4.498-.514 1.199-1.295 2.132-.964 4.176 1.805.198 1.299-1.913 2.57-2.249 3.088-.409 4.322 1.032 4.499 3.535.801-.085 1.073-1.206 1.927-.322.269 2.778-1.94 1.568-3.212.964.055-1.448.156-2.941-1.285-2.892-1.69-.297-.473 2.312-1.286 2.892-3.461-.83-5.381 1.362-8.996.321-.483.481-1.353.576-1.606 1.286 1.737.345 1.912-.87 3.534-.643.472 2.047-2.962 2.476-3.213 4.82-2.725 2.201-7.191 2.661-9.96 4.819h-2.892c-1.035-1.35 1.358-1.493 1.285-2.892-1.355-2.642-7.902-3.3-8.675.322-1.105-.14-1.8.127-2.57.32-1.31 1.583-3.506 2.277-4.177 4.5 1.536 1.633 5.786-1.66 7.068.963-2.325.285-6.117 1.292-8.032 0 1.529-6.722 9.428-12.308 16.708-8.354.61.676.924 1.646 1.285 2.57h3.534c.787-1.247 1.453-2.616 2.892-3.212 1.324-.816 1.88 1.03 2.892-.322.206-1.384-1.315-1.041-.964-2.57-.018-1.518 1.173-1.826 1.928-2.57 1.889-.378 3.444.89 4.82 0-2.312-4.485 2.007-10.246 6.426-7.069-.003-4.576 1.262-9.298 7.067-7.711 1.543-.894 1.549-3.107 3.534-3.856 3.873-1.461 8.698.819 8.675 5.141 1.05-.985 2.018-2.053 3.213-2.892a14.825 14.825 0 014.177.322c.81-.903-.29-1.848-.321-2.892.674-4.063 5.446-5.513 9.318-4.498 2.874 2.131 5.456 5.635 4.82 10.281 1.562.252 3.466.408 4.819 1.607 1.425-3.893 8.422-4.578 9.639 0 .403 1.518.009 5.066-.322 6.747a7.15 7.15 0 01-2.891 4.498c2.041 1.947 3.47 3.41 3.213 6.105-.122 1.265-1.36 2.002-1.286 3.213.177 2.896 3.026 3.429 5.784 3.213 3.069-.241 5.117-2.368 7.39-2.892 1.86-4.352 3.498-8.924 5.462-13.173-1.679-2.002-3.346-2.797-6.105-4.177-1.013-.507-1.851-1.464-3.213-1.928-2.159-.734-3.888-.27-5.783-1.285-3.08-1.651-5.32-5.52-7.39-8.996-1.465-2.458-1.968-4.763-2.892-7.39-.786-2.237-2.362-3.795-2.57-7.069-.389-6.067 2.662-10.199 4.177-15.1 3.39-2.975 7.355-6.314 12.851-6.426 5.078-.103 9.473 2.83 12.531 5.783 6.34.132 8.397-4.023 10.923-7.708zm-81.286-26.667c.987-.406 2.297-.487 2.57-1.607-1.11.282-2.11.677-2.57 1.607zm5.14 7.39c1.33-1.026 2.094-2.62 3.535-3.534.557-.836 2.652-.132 2.57-1.606-3.538.023-6.86 1.884-6.104 5.14zm-10.602.643c-1.066-1.184-1.409-3.09-3.213-3.534-5.075 3.764-.814 14.276 5.462 11.245-.998-2.144-3.6-4.277-2.25-7.71zm-6.105 8.996c3.022 3.96 12.186 5.706 13.495-.643-2.906-.864-4.609 1.56-7.39 1.285-2.322-.229-5.354-2.681-6.105-5.14-.48-1.572-.065-3.128-.321-4.82-1.892 3.042-1.664 6.716.321 9.318zm9.64-6.105c-1.223-.385-1.241-1.973-2.893-1.928-.783 2.694.963 6.348 4.177 5.14.806.373 1.076 1.281 2.25 1.286 2.626-.6 5.645-4.06 3.211-6.747-1.583-.299-.631 1.938-2.249 1.606 0-.873 1.352-1.504 0-1.927-.597 1.757-2.636 2.075-4.497 2.57zM282.273 49.5c-.036-.392-.096-.761-.642-.643-2.992.86-5.26 5.893-2.57 8.675-.027-3.775.993-6.503 3.212-8.032zm-.642 3.855c-.04-.535 1.04-2.044-.322-1.927.184.565-.388 1.887.322 1.927zm.964-.32c1.003.146 1.027-.687.964-1.607h-.964v1.606zm.964 5.783c-.68-3.679 2.08-3.918 3.213-5.784-3.726-1.535-7.126 4.316-3.213 5.784zm-33.415-4.82c-.83.15-1.728-.195-2.57 0-2.266.525-4.723 2.958-4.82 4.177 1.84-1.525 6.785-3.623 8.996-.964-4.256-1.017-8.301.31-9.96 2.892 1.445-.034 2.436-1.608 4.177-2.25 2.223-.818 4.44-.21 7.068-.32-.473-1.67-2.032-2.252-2.891-3.535zm17.992 3.212c-.196-1.195.607-3.391-.964-3.212.296 1.096.136 2.649.964 3.212zm-6.426 0c.899.06 1.737.423 2.892.964 1.328-2.583-1.94-2.422-2.892-.964zm3.535.322c1.264.515.112-1.387.963-1.285.074.569-.324 1.61.643 1.285.647-.668.447-3.215-.643-3.213-.721 1.194.42 2.064-1.285.964-.257 1.115.48 1.235.322 2.25zm15.743 0c.181-.697.768-2.63 0-3.213-1.245.23-1.389 3.007 0 3.213zm-2.57 2.248c.018-.195.047-.38.321-.32-.036-.393-.096-.762-.643-.643.05.378-.055.912.322.963zm-24.74 8.676c.094-.655.87-.63.964-1.285-.708-.135-1.772.962-.964 1.285zm-2.892 5.14c.132-1.909 2.162-3.612 1.928-4.82-.854 1.189-2.383 3.394-1.928 4.82zm-.642.964c.009.168-.126-.832-.322 0-.437 1.858.36 1.156.322 0zm29.88 11.567c-.5-.074-1.499-1.235-1.928-.321.868.033 1.456 1.746 1.928.32zm-4.177 2.57c-.33-1.063-.89-1.894-2.249-1.928-.997 1.313.653 2.196 2.25 1.928zM232.153 71.35c.154-2.393.652-5.848 1.606-8.354-.036-.39-.096-.76-.642-.642-.624 2.353-2.662 6.431-.964 8.996zm-14.459 16.064c.434 3.004-1.628 3.512-2.57 5.14.75.966 2.696.733 4.177.965.151-3.032 3.555-4.641 1.285-7.39-1.743-.351-.92 1.864-2.892 1.285zm-9.96 8.033c.433-3.233 3.599-3.659 6.748-2.57-.183-6.291-12.078-1.655-6.748 2.57zm-19.277-3.213c-.028 1.942-1.683 4.577-.32 5.14.289-1.314 1.935-3.979 2.89-2.57-1.138-.052-2.46 1.372-1.606 2.249 2.06-1.083 5.738-2.14 4.177-5.783-2.272-.238-3.79.28-5.14.964zm41.447 6.747c1.327.552 1.722-1.456.964-1.927-.286.677-.98.948-.964 1.927zm-65.544 16.706h.643v-.642h-.643v.642z"/><path d="M427.177 143.64c-.996-2.56-1.563-6.407.964-7.712-2.47-.965-4.392 1.387-6.426 1.927 2.082 5.817-2.686 12.31-8.675 9.96-1.735 1.585-5.278 1.362-5.141 4.82-.31 1.165 1.443.27 1.285 1.285-.776 5.19-6.412 3.26-8.354-.321-.68-1.255-1.705-1.769-1.927-3.535-.324-2.57 1.018-4.63 2.249-6.426-.8-.675-2.3.683-3.212.964-2.306.372-4.965-.596-6.426 0-3.249-1.763-6.15-3.26-5.784-7.39.318-3.583 3.464-6.243 6.105-7.71-1.17-1.08-1.989-2.51-2.892-3.855-3.061 3.203-8.846.827-9.96-2.57.032-3.742-1.433-7.33.321-9.961.44-.66.442-2.1.964-3.213 1.039-2.215 3.16-3.071 4.82-4.498-2.714-1.379-5.945-1.48-6.426-4.498-.775-4.858 5.093-9.425 9.639-6.105 2.241 3.769.985 8.307-3.535 8.675 2.325.927 4.692-.872 5.783-2.25-.421-2.47-.957-4.826-1.285-7.389.857-1.888 3.154-2.232 3.534-4.498.31-1.851-1.148-3.378-.964-5.783.57-.288.41-1.304 1.607-.964-1.16-2.028-1.635-4.77-.643-7.39-5.321 1.78-2.943 10.18-5.783 14.458-1.09 1.641-2.656 1.974-4.177 3.213-1.285-.321-2.497-.716-3.535-1.285-.62-2.7 3.099-5.547 4.177-2.57-1.779-.393-3.655-.638-3.213 1.927 2.468 2.635 5.736-.71 6.105-3.213-.103-.754-.995-.719-1.285-1.285-5.698.087-8.566 3.001-9.318 8.033-.06 1.453 1.843.942 2.25 1.927-.343 1.585-2.445.058-2.892-.32-1.305-5.138 2.785-9.72 7.39-10.604 2.196-.42 3.94-.226 4.498-2.57-.095-1.309-1.129-1.869-.322-3.213-3.433-1.663-2.75 3.42-6.426 2.57-.95-2.112 2.32-3.087.643-5.14.662-2.015 2.114-3.24 3.212-4.82-2.378-5.016 1.498-9.922 6.105-10.924-.015 1.513-1.738 1.567-2.57 2.25-1.089.89-2.959 2.605-3.214 4.497-.177 1.316.857 2.692.643 4.177-.195 1.355-1.387 2.383-2.25 3.213.348 2.596-.783 3.714-1.284 5.462 1.422.344 2.074-2.847 4.176-2.891-.533-1.937.268-4.138.964-5.784-1.723-5.109 1.37-9.059 5.462-10.281-.327-.423-.315-1.185-.642-1.607-.279 1.654-2.924.078-3.213-.321-.174-.24-.673-1.693-.643-2.25-.024.456.985-2.988 1.285-3.534.985-1.786 2.943-3.385 5.462-2.57.203-2.122-2.448-2.605-.642-4.498-1.436.412-2.112 2.473-4.177 1.285-.23-3.657 2.344-4.51 4.498-5.783 2.003.479 3.832 3.391 6.105 1.606.62.13.028 1.471 1.285.964.607-.525-1.295-1.256-1.285-2.249-.27-2.626 1.178-3.534 1.606-5.462-2.525-.628-5.575 3.445-3.855 6.105-3.451-1.54-1.217-5.105 1.285-6.748.92-.604 2.68-1.05 4.177-1.606 2.677-.993 4.005-2.051 6.747-1.285 1.212-4.753 9.413-6.696 13.816-3.535 1.654-2.004 5.616-1.473 8.354-1.606.928 1.213 2.259 2.024 2.891 3.534 2.724.297 3.39 2.827 4.82 4.82 1.648 2.298 4.413 3.603 5.783 6.104-.19 1.026.603.994 0 1.607 2.22 2.386 3.804 5.406 8.354 5.462.894 1.141 1.795 2.275 2.249 3.855 3.701 1.858 16.814.888 17.992 4.82.39 1.305-.733 2.01-.964 3.213-.171.888.154 2.092 0 3.213-.648 4.711-2.57 10.28-4.498 13.816-2.751 1.319-4.244 3.895-7.71 4.498-.15 2.101-1.76 2.738-2.25 4.498 6.487 1.868 8.885 7.822 15.1 9.96 3.986.12 12.338-4.491 6.105-7.39-.574.497-.214 1.928-.964 2.25-3.782.14-5.385-1.898-5.14-5.784 2.763-2.348 6.26-6.386 11.246-4.498.517.196 3.38 2.207 3.855 2.892 2.835 4.083.013 9.717-2.57 13.173-5.428 1.843-9.442 3.593-16.065 1.928-4.508-1.133-8.053-4.736-11.567-6.105.368-1.192 2.041-.248 2.57 0 .706.329 1.635 1.241 2.25 1.606 2.92 1.732 4.595 2.552 8.996 3.535 1.241.276 2.474.952 3.534.964 3.577.038 6.034-2.038 9.318-3.213.542-1.072-.204-1.097-.321-2.25.855-.322 1.059-1.296 1.606-1.927.74-4.061-1.127-5.513-2.249-7.711 2.021-.02 1.415 1.742 3.213 1.285-.941-.997-2.3-2.615-4.177-2.892-3.777-.555-9.469 3.817-6.426 6.105.945.784 1.215-1.164 2.57-.964 5.21.197 4.357 7.51.322 8.354 1.29 1.263 2.642-1.466 3.534-.643-1.845 1.411-4.691 3.136-7.068 3.212-7.286.234-11.785-9.222-17.992-10.924-2.045-.117-2.843 1.012-5.14.643-.461-1.639.982-1.373 1.284-2.25-.425-1.887-1.807-3.396-.642-5.14-1.53-.458-1.242.901-1.928 1.285-1.665-.049-3.193-.234-4.498-.643-1.728.629-1.929 2.784-2.25 4.82 2.76 1.545 9.447 1.31 11.246 4.82-4.357-2.627-14.122-4.894-15.743 1.606 1.791 1.455 4.13-.9 7.712 0 1.674-.281 1.762-1.576 3.212-1.607 4.955-.107 5.642 9.178 3.213 13.173 3.194.983 5.203 3.15 5.462 7.069 1.06.785 2.154 1.446 3.212 1.285 1.362-.207 1.343-1.681 2.249-2.249 1.522-.954 3.787-1.106 5.783-.964 5.579.396 6.573 4.525 11.567 6.747.791 1.565 1.371 3.341 1.928 5.141 2.938 1.604 7.785 1.41 8.352-1.606.664-3.516-4.338-6.274-7.39-4.177.764 1.862 3.512 2.333 5.463 1.285.264.674 1.322 1.253.642 1.928-1.176 1.987-4.751 2.38-6.426.642.548-2.13-1.982-3.468-.642-5.462 4.594-1.75 9.305.633 9.638 5.141 1.664-1.133 3.68-.338 5.462-.642 2.185-.374 3.709-1.352 6.425-1.928 5.102-1.082 9.087-4.613 13.494-6.105-.075 1.21-1.21 1.361-1.285 2.57-1.014-.156-1.135.58-2.249.322-2.556 1.954-6.248 3.896-10.603 5.14-1.72.492-3.706 1.344-5.14 1.607-1.4.257-2.614-.219-3.856 0-3.383.594-5.37 4.457-8.996 3.856-1.3-.216-2.315-.981-3.213-1.286-1.568.583-.427 1.251-.322 2.57-.379.37-1.135.364-1.928.322.284 1.751.884 3.187.643 5.462-1.535 2.658-5.435 2.077-6.426 5.783 1.56 2.365 5.415-.722 8.996-.322 3.502.393 4.534 1.933 6.747 4.177v2.57c.679 1.572 2.622 1.876 2.249 4.499.82.897 1.404-1.565 2.57-.322-.91 1.25-1.95 1.051-1.927 2.57.027 1.834 1.418 1.15 2.57 1.929.08 1.703-2.345.798-2.89.32-1.003.176-.494 1.864-.965 2.571 1.206.4 1.453 1.805 2.25 1.928 7.232 1.115-2.898-10.91 3.855-10.924.895 1.13-1.44 1.177-1.607 2.249-.635 2.449.887 4.675 2.57 5.783.69-.726-.831-1.055-.963-1.927-.01-1.507-.282-3.28 1.285-3.213-.019 1.052-.914 1.228-.643 2.57.219.638.978.735 1.286 1.285 1.07-.75.586-3.055 1.606-3.855-.315-1.361-1.928-3.62.643-3.535.04 1.934.498 4.064-.643 6.426.263.781 1.694-.637 2.25.322-.01 2.587-2.993 3.465-5.142 2.891-1.029.577-1.097 2.116-1.927 2.892-3.574-.755-5.15 2.088-7.39 0-2.867 3.762-15.082 4.209-14.459-2.892-1.115 1.99-2.254 3.957-3.534 5.784 3.38 6.58 11.7 8.22 13.173 16.707.974 2.099 3.904 3.071 6.105 5.14.982.924 1.427 2.312 2.57 3.213 2.09 1.646 5.179 2.777 7.71 4.498 1.369.931 3.143 3.172 4.499 3.213 2.419.073 3.183-2.683 5.14-3.534 1.65 1.45 2.904-1.093 4.82-1.285 2.712-.272 5.576 1.304 4.82 4.498-1.826.003-1.416-2.227-2.892-2.57-2.006-.294-3.242.184-3.856 1.285-4.397-1.458-4.387 2.708-6.747 4.176-.73-.234-.961-.966-1.285-1.606h-2.25c-4.795-4.735-12.194-6.869-15.742-12.852-1.323-.63-2.716-1.422-3.534-2.57-.763-1.072-.7-2.338-1.285-3.535-2.958-6.039-8.944-8.974-13.174-14.137-2.266.447-2.825-.815-4.176-1.284-1.545-.474-.296 1.847-1.607 1.606-.848-1.008.151-2.227.643-2.891-.57-.502-1.712-.43-1.286-1.928.896-.858 1.587.3 2.57.321-.052-.372.072-.571.322-.642-.714-1.698-3.531-1.106-4.82-.643-5.562 2-12.186 3.243-17.992-.321-.993-.61-1.76-1.625-2.892-2.25-1.642.93-1.837 3.304-5.14 2.571-.466-.499-.43-1.499-.964-1.928-.925-1.038-1.896.79-2.57 0-.696-.929-.265-2.88.32-3.534 1.539-.067 3.532.32 4.177-.643-1.49-1.314-4.418-4.749-.32-5.462-2.296 2.036.975 3.54.963 6.105-.3.235-.487.584-.643.964-1.57.25-4.353-.712-4.498.964 2.416-.226 3.189 1.298 4.82 2.57 5.759-1.673.584-5.483.964-9.96.47-5.58 5.492-6.751 7.71-11.888-1.69 1.844-3.934 3.133-6.746 3.855-2.034 3.202-6.171 9.654-12.21 5.462-1.295.214-1.16 1.322-1.927 1.927-1.488 1.174-3.454 1.248-5.14 1.928-3.868 1.56-6.963 4.054-8.033 8.997-.244 1.127.527 2.902-.642 3.855 1.989 3.58 4.422 6.716 7.71 8.997 1.53.12 2.403-.765 3.214.32-.352-1.146-1.743-1.254-2.57-1.926-1.787-1.763-3.358-5.227-2.892-8.996.736-5.944 7.014-9.502 11.566-11.246.756-.1.19-1.522 1.286-1.285-.393 4.32-3.184 6.242-5.783 8.354 4.414-.517 10.46.765 9.318 5.783 1.448.497 3.011-.252 4.177.964-.43 1.283-1.75 1.677-2.25 2.892.313 2.945-.832 5.333-2.57 7.068 2.889-.003 4.072-1.71 5.783-2.891.646-2.353-.327-6.325 2.892-6.105-.344 1.37-1.498 1.93-1.928 3.213.692 2.007-.471 3.251-.32 4.82-2.148.85-3.795 2.202-3.856 5.14 1.247.01 1.55-1.338 2.57-1.928 1.24-.717 2.684-.703 3.534-1.927.038-.926-.175-2.104.321-2.57 3.588 4.85-5.768 4.296-5.462 8.995-1.87-.272-1.535-2.747-1.606-4.819-1.945 1.182-.808 5.658.964 6.105 2.793-.527 5.052-1.59 7.068-2.892.1 2.456-2.493 2.22-4.177 2.892 3.807 1.93 9.079-2.426 6.748-6.748 3.601 2.198-.05 6.804-2.57 7.712.063 1.543 1.36 1.853 3.212 1.606.175 1.674-2.594.404-2.57 1.928 2.943 1.874 6.276-1.144 6.747-3.855.245-1.208-1.706-.221-1.285-1.606 2.628-.844 2.321 3.172.964 4.498.095.656.87.63.964 1.285 1.66-.697 2.3-2.412 2.891-4.177.276-1.28-1.983-.87-.963-1.928 3.997 1.662-.21 6.67-1.928 7.71v1.928c1.97.123 1.59-2.993 3.534-1.927-.252 1.57-2.5 1.141-1.928 3.534 1.445-.377.955-2.686 3.213-2.25-.998 1.198-2.956 3.373-.964 4.82 1.145-.247 1.21-1.574 1.928-2.249 2.185-.17 2.626-2.087 3.856-3.213 1.407.308 4.218-.79 4.177.964-4.14.037-5.681 2.673-8.354 4.177-.084.94.726.987.642 1.928-4.353-.292-6.262-4.245-6.747-7.39-1.59-.092-2.39.609-3.534.964-4.944-.197-4.386-5.896-9.318-6.105-.813.258-.819 1.323-1.285 1.928-.303 1.373 1.272.87 1.285 1.928-1.398 1-2.533-.548-2.891-1.607-.01-1.08.441-1.699.964-2.249-.372-1.77-2.368-1.916-2.25-4.177-2.857-.464-4.96-1.68-6.748-3.213-11.926-1.354-19.467-7.093-29.88-9.96-2.877-1.727-5.567-3.642-9.317-4.498-4.7-3.235-9.873-5.966-14.78-8.996-1.221-.755-2.228-1.806-3.534-2.57-1.223-.718-2.946-.86-4.177-1.607-2.395-1.454-3.714-4.215-6.425-5.141-4.116-4.365-10.149-7.841-16.065-10.923-2.453-1.279-4.275-2.42-7.39-2.892-1.55-2.174-4.628-2.906-7.39-4.177-3.552-1.634-6.654-4.072-11.888-2.891 3.565 4.574 4.9 11.38 8.676 15.743 4.2.511 6.342 3.081 8.996 5.14 4.289-.972 6.557 1.097 9.96 2.57 4.463 1.932 8.302 4.172 10.282 8.354 1.168 1.12 2.999 1.197 4.176 2.25 1.435 1.28 1.88 3.604 2.892 6.104.52 1.284 1.552 2.231 1.928 4.177.208 1.074.066 2.265.321 3.213.265.983.863 1.695.643 3.534 2.674 1.128 4.764 3.245 4.82 6.105.064 3.274-2.78 4.714-3.856 7.068 1.884 4.46-3.214 8.124-8.033 6.105-.27-.373-.424-.861-.321-1.607-1.633.873-3.212.818-6.105 1.285-2.25.365-4.34 2.562-7.068.322-1.978.568-4.123 1.39-6.426 1.285-.783-.036-1.436-.603-2.25-.643-.857-.04-1.988.467-2.891.322-2.56-.411-5.333-3.141-8.996-3.213-.978 1.984.74 3.907 1.607 5.783-.816 3.696-1.442 8.329-3.535 11.567 1.166 2.476.37 6.911 1.606 9.317 3.065.37 3.074 4.164 5.462 4.499 3.425.479 3.77-5.963 8.997-4.82.925 1.965 4.53 1.253 4.498 4.177 1.284 0 1.928.643 3.213.643 1.642 1.202 2.658 6.257-.321 6.747-1.195-.075-.9-1.14-.643-1.928-2.461.644-3.521 2.69-4.177 5.14-2.697.41-3.765 2.448-6.104 3.214.308.977 1.228 1.342 1.927 1.928 1.63-.396 2.915-2.153 2.57-3.535 2.195.955.56 4.416-.964 4.82-1.811.48-2.809-.755-3.856-1.928-2.322.176-3.632 2.597-6.426 1.285-1.377.25.292 1.554-.642 2.25-2.473.223-4.07-.429-5.141-1.607-6.467.838-8.683-1.853-12.851-3.856-.186-1.043.219-1.495.321-2.249-2.298-1.128-3.707-3.148-5.14-5.14-.155-1.227.091-2.052.642-2.57-.138-1.467-1.74-1.472-2.249-2.57 1.77-.904 2.345 2.145 5.14 1.285 1.359-.999 1.613-3.101 2.893-4.177.044-1.464-2.408-1.693-1.607-2.892 1.96-.354 1.564 1.65 2.25 2.57 1.841-.192 2.367-.258 3.855.322-.794 1.562-3.706 1.007-4.498 2.57.046 2.402-1.877 2.836-1.607 5.462-.947-.124-.628-1.514-1.285-1.928-.866.38 0 1.676 0 2.25.594.477 1.526.615 2.57.642-.11 1.905-2.72.607-3.213 0-.687-.812.256-3.255-.964-3.534-2.488 2.114 1.46 5.127 2.892 6.425 1.914-.006 2.231-2.822 3.856-1.285-.41 1.518-2.754 1.103-2.892 2.891.499 2.608 4.22 1.993 5.14 4.177 2.604-.32 3.812-.161 5.784.643 1.508.116.974-1.81 2.57-1.607.234.983-.553.946-.32 1.928.241.998 2.325 1.296 3.212.643-.837-2.186-2.62-3.567-1.927-6.426-1.18-3.23-6.261-3.478-9.639-3.534-.185-1.577.417-2.368 1.607-2.57-.35-1.744.765-2.02.964-3.213 1.413-.23 3.005-1.297 3.534-.643-1.073 1.307-3.664 1.479-3.856 3.535-.062.68.58 1.28.643 2.249 2.009.132 3.688.053 5.14.964.868.544.932 1.639 1.286 1.606 1.19-.11 3.524-7.438 7.068-4.497.893-.62 3.294-1.04 4.499-.321-.166 1.12-2.1.47-3.213.642-1.66.16-1.38 2.262-3.213 2.25-.077-1.361.937-1.633 1.285-2.57-3.247.36-6.165 4.49-5.463 8.032.235 1.184 1.45 1.286 1.285 2.57 1.203.021 2.202.471 3.213.322.994-.147.032-.421.964-.964 1.23-.716 3.007-.417 2.892-2.57.3.235.486.584.642.964 2.053-.946 3.937-2.06 3.856-5.141.28-1.158-1.777-1.622-.964-2.25 1.662-.162 1.226 1.772 1.606 2.893 2.166-.084 2.026-2.472 2.892-3.855.395.139.66.41.643.964 1.247-.039.993-1.577 2.249-1.607 1.189-.225.801 1.127 1.285 1.607 1.404-2.588-1.338-3.798-2.892-4.498-.667.19-1.095.618-1.285 1.285-1.196-.242-.176-1.805 0-2.57-1.698-.552-2.8-1.7-4.177-2.571-1.872.304-3.752 1.092-2.891 3.213-.848.097-1.055-.445-.964-1.285-1.106.822-1.15 2.706-2.57 3.213-4.426-.118-4.82-5.465-8.997-4.82.033-4.422-.546-8.234-1.607-11.565 2.27-2.172 2.103-5.232 1.286-8.675 1.58-.082.471 2.527 1.606 2.891.176-2.044 1.022-3.04.643-4.82-.332-1.558-2.133-2.254-2.25-3.534-.12-1.344.646-2.229 1.607-3.534 3.278-.609 6.138 2.28 9.319 2.892.944.182 2.352-.115 3.534 0 2.786.272 4.733 1.045 7.069-.964 3.978 2.554 8.09-.143 12.53-.643-.21-.968-1.262-1.093-1.606-1.927-.577-3.471 1.104-6.389 4.176-5.141-.7 1.12-2.99.65-3.534 1.928.043 1.562-.396 3.609 1.285 3.534 1.165-.013.651-1.705 1.286-2.25.886-.268 1.887-1.484 2.891-.642-.707 1.114-3.109.533-2.57 2.892 1.257 1.131 2.37-.614 3.855-.321.517.768 1.058 1.513.964 2.891 2.723-.169 2.716-3.068 2.57-6.104-1.524-.51-3.338-.73-4.496-1.607-.882-3.338 1.26-4.892 4.176-4.497.41.769 1.173 1.182.964 2.57-.913.371-2.306.264-2.249 1.607.242.32 1.162-1.396 1.928 0 1.998-.88.485-4.138.321-5.784 1.66.905 1.752 3.626 1.285 5.784 3.261-1.895.948-7.216-1.285-8.354-1.346-.276-.703 1.438-1.285 1.928-1.535-.072-1.379-1.836-2.57-2.25-.864.315-.791 1.566-1.607 1.929-2.23-.524-3.569.792-4.82.963-1.097.152-1.918-.853-2.89 0 .369-1.664 1.881-2.187 2.248-3.855 1.474.098.107 2.007 0 2.57 2.04.112.934-2.92 2.57-3.213.247 1.21-.39 1.537-.32 2.57 1.39-.536 1.317-2.537 1.927-3.855.612.602.807.036 1.607 0v2.892c1.59-.72.528-2.127.32-3.535 1.032-.282.667.834 1.286.964.905-3.05-.93-6.134-1.928-8.352.26-.277.88-.192.964-.643-.773-2.44-1.737-4.689-3.534-6.105-1.449-.445-1.604 1.25-2.57.322-.698-.67.039-1.039.32-1.607-2.1-1.423-3.149-3.922-5.461-5.783-2.094-1.685-4.65-2.18-7.069-3.213-2.508-1.072-4.227-3.073-8.032-1.928-2.997-2.252-5.633-4.862-9.96-5.783-4.239-4.437-5.407-11.943-9.64-16.386-6.829.56-10.335 4.444-15.1 7.069.368-1.493 2.482-2.506 4.177-3.534 1.727-1.048 3.68-1.936 5.141-2.892-2.128-.177-4.33 1.433-6.426 2.57-1.932 1.05-4.65 2.197-5.14 4.499.482 1.061.786-.668 1.607-.322-.345 1.37-2.093 1.335-2.25 2.892 1.885-.068 2.566-2.221 3.856-3.213 1.436-1.104 4.125-2.62 5.784-3.534 1.816-1.002 4.234-2.367 6.426-1.928-3.097 1.516-6.741 2.763-9.64 4.82-2.544 1.806-5.904 3.876-6.104 7.068 3.867-3.738 8.608-8.313 13.816-9.639-.304 1.153-2.251 1.92-3.534 2.57-1.335.677-2.851 1.217-4.177 1.928-1.516 2.554-4.648 3.491-5.462 6.747 1.71-.37 1.01 1.49 1.606 2.892 1.678-1.75 3.117-3.737 4.82-5.462.046-.903-.787-.927-1.607-.964-.155-1.012.986-.727.643-1.928 3.161-.375 5.34-3.439 8.675-2.57-.785 1.134-2.554.785-3.856 1.285-1.128.434-2.312 1.099-2.892 1.928 1.986 2.51 3.566-1.651 7.069-1.285-.391 1.857-3.103 1.394-4.498 2.249-.603.467-.04 2.102-.643 2.57-3.41-.547-6.578 2.182-6.747 4.82-.207 3.229 3.694 4.799 4.498 7.39 4.426 2.215 8.739 4.54 11.246 8.675 1.04.396.245-1.04 1.285-.643 1.235 1.376 2.604.961 4.177 1.606-.397 3.61 3.73 2.697 5.783 3.856.192 4.119 4.897 4.615 7.711 5.14-2.11 2.473-7.582-2.199-8.354 2.571-5.975 2.802-13.366-1.233-10.602-8.032-.992-2.757-2.872-4.625-6.748-4.498.24 1.169 1.491.549 2.25.963.836.458 1.228 1.77 2.249 1.928-.053.992.758 1.816 0 2.57-.947-.427-.736-2.157-2.25-2.57-1.367-.372-3.22.002-3.534 1.607.4.482 2.218-2.041 3.534-.643-.06 1.397-.558.585-1.606.643-.438 1.06-.475 2.522-1.928 2.57-.41-.874-1.004-1.566-1.285-2.57.04-1.247.947-1.624 1.606-2.25-1.035-1.845-1.926.74-3.534.322-.845-1.08-.055-2.671.643-3.213 3.403-.577 6.333-.803 8.996.643 1.175 2.24 3.36 4.296 1.928 7.39.88 1.536.74 3.136 2.249 4.176 1.946 1.342 4.75.736 7.069 0-.219-1.173-1.218-1.566-1.607-2.57-.635 1.53-3.269.98-3.856-.643-.191-.53.32-1.346 0-1.927-.315-.576-1.79-.373-1.285-1.285 2.533-.136 5.665 1.803 6.426 4.497 1.091-.086 2.605.25 3.213-.32-.47-1.245-1.955-1.473-2.249-2.893-2.795-.013-4.958-2.066-7.068-3.534-1.25-.87-2.792-1.327-3.535-1.928-1.25-1.011-2.062-2.534-3.213-3.534-3.133-2.722-7.15-3.702-10.281-6.747-1.554-3.373-3.47-6.383-5.462-9.318-.817-3.254-1.413-6.725-2.57-9.639v-2.891a2.894 2.894 0 00-1.285-1.286c-1.127 1.444-1.389 3.753-1.606 6.105-1.737 1.387-1.874 3.654-3.213 5.462-1.131 1.528-3.204 2.447-4.177 4.177-.718 1.274-.524 2.937-1.285 4.177-1.67 2.719-5.12 4.337-7.39 6.426-5.251 4.71-11.296 8.624-17.993 11.888-4.251.246-5.81 3.185-10.603 2.892-2.107 1.812-6.25 3.086-9.639 2.57-1.58.99-3.541 1.599-6.426 1.285-1.554-1.23-3.005-2.564-4.176-4.177-.042-.792-.049-1.547.32-1.927-.93-1.687-3.042-1.754-4.497-.642-.156 1.011.986.726.642 1.927-7.063 4.323-8.14-8.842.643-8.353 2.312.129 4.166 1.317 5.462 2.249-2.607-2.749-3.902-6.808-6.747-9.318.762-4.073-3.058-6.588-3.213-10.281-.039-.918.416-1.958.321-2.892-.111-1.095-.82-2.273-.964-3.534-.431-3.772-.31-6.726-1.606-9.64-2.112-2.43-5.917-.941-9.64-1.284-3.585-.33-7.871-4.38-12.209-2.892-1.18.405-1.834 1.363-2.891 1.928-1.174.627-2.51.642-3.535 1.285-1.44.905-2.32 2.639-4.497 3.213.06 2.393 2.38 6.8-.964 7.069-.696-2.247 1.957-5.585-.642-7.39-2.884-.42-1.864 3.063-2.57 4.82-1.016-.052-1.94-.012-2.25.642-.692-1.107-.758-2.597.322-3.213-.962-2.386.485-5.122 2.57-5.462 2.046-.334 2.649 1.112 4.498 1.606 1.021-.626-1.367-1.516-.321-2.249.726.236.702 1.225 1.606 1.285.24-.99-1.107-.391-.642-1.606.908-.265.832.453 1.606.321.132-.774-.586-.698-.321-1.606.79.932 1.34-.53.964-.322.764-.426 1.31-.09 1.927-.964 1.004-.146 1.027.687.964 1.607.93-.418 1.662-1.034.963-2.25 1.032-.282.44 1.06 1.285.965 2.446-.77 5.006-.905 7.71-.322.931.201 1.67.85 2.571.964 3.722.475 7.746-.811 11.567-.32 1.76 1.667 3.016 3.838 3.534 6.746.66-.626.414-2.157.964-2.891.593 1.406 1.112 2.045.643 3.855.29.869.776-.678.964-.964.508.323-.4 1.936-.322 2.892-.746.853-.859-.853-1.606 0 0 4.342 1.518 7.155.964 12.21 1.35-.257 0-3.216 1.606-3.214-.058 2.736-.214 5.57 1.285 6.748.134 5.757 3.65 8.131 5.463 12.209.257.812 1.323.819 1.928 1.285.642.806-.835 1.076 0 2.25 2.39.114 3.08-3.074 5.462-3.856.584-.193 1.603.101 2.57 0 1.993-.212 4.465-1.892 6.748-.322 1.241.064 2.367.011 3.213-.321 1.725 3.007 6.407 2.663 10.603 1.928 1.254-.138.614-2.17 2.249-1.928.255 4.63-8.755 4.31-10.924 2.57-1.01.168-1.793.564-2.57.964-2.277-.523-3.869-1.062-5.463-.321-2.294 1.066-2.471 6.032-4.177 7.711 2.574 2.528 6.135-1.312 7.711-2.892 3.496-.038 5.372-1.696 8.033-2.57.997-.034.916 1.01 2.249.643 3.204-1.935 6.67-2.81 9.96-5.141 1.394-.988 2.604-2.714 4.177-3.856 1.061-.77 2.494-1.189 3.534-1.927 2.796-1.984 6.12-4.527 7.39-6.426 1.21-1.81 1.26-4.124 2.57-5.784.868-1.1 2.096-1.34 2.892-2.249.798-.912 1.793-2.546 2.57-3.855.682-1.148 1.713-2.986 1.928-4.177.324-1.788-.077-3.055.964-4.498.527-.73 2.037-1.475 3.213-2.57 1.101-1.027 1.926-2.43 2.57-2.893 3.139-2.254 8.046-2.65 11.567-1.927 1.265.26 2.695 1.385 3.535 1.606 1.283.338 2.629.108 3.855.321 8.137 1.415 13.542 6.15 21.527 8.354 1.126 1.74 3.196 1.663 4.82 2.57.701.394.987 1.184 1.606 1.607 1.637 1.12 3.734 1.78 5.462 2.892 1.643 1.058 3.058 2.73 5.14 2.891 6.973 7.807 15.842 13.717 26.026 18.313.327-.209.332-.738.964-.642-.803-2.303-3.123-3.089-3.213-6.105 1.942.093 1.685 2.385 2.57 3.534 1.704 2.581 4.414 4.154 6.105 6.748-2.073-.712-3.365-2.205-5.462-2.892.743 1.082 3.4 3.022 6.104 3.213 2.159 2.767 6.785 3.068 9.96 4.82.982.232 1.172-.33 1.928-.322-.274 1.026.507.994.643 1.607 6.872 2.874 13.038 6.454 20.563 8.675-.243-1.364-1.781-1.432-2.892-1.928-2.875-3.002-6.638-6.395-6.104-11.567.445-4.32 3.51-9.246 7.71-10.924 2.618-1.053 5.716-.643 7.066-3.54zm4.82-113.417c-2.919.105-6.836-1.422-7.07 1.928 2.492-.616 8.115-.618 7.712 1.606-2.111-1.714-6.908-1.656-8.675.322-.535-.428-.108-1.82-.643-2.25-1.377-.197-1.31 1.047-2.57.964-.317 1.282.96.969.642 2.25-.614.135-1.383.116-1.285.963.41.697 1.05-1.068 2.25-.642 1.54.67 2.169.416 4.177.321 2.209-3.176 7.238.204 10.923-.964-2.525-.795-4.066-2.573-5.462-4.498zm-20.243 6.747c4.12.726 4.228-5.009 8.033-2.57-.092-1.592 1.081-1.918 1.285-3.213-2.911-.92-4.699 1.315-6.105 2.892-.68-2.823 1.907-2.377 2.57-3.856-3.686.47-7.478 2.864-5.783 6.747zm-15.1 46.909c-1.18-.106-2.203-.368-2.891-.964-2.792 2.14.43 7.682 3.213 7.068-1.185-1.17-3.055-1.656-3.213-3.855.606-.036.223-1.062.964-.964.416.58-.289 1.622.32 2.57 2.231 1.044 5.76 3.271 5.463 6.748-.124 1.455-1.773 3.849-2.892 4.176-1.143.335-5.085.204-3.534-2.249.997-.033.916 1.011 2.25.643.709-.897 1.47-1.743 1.284-3.534-2.552-4.209-7.83-1.179-7.39 3.213.441 4.392 6.736 6.032 10.282 2.891-.033-1.423.381-2.404 1.606-2.57.445 3.016-2.008 3.134-2.57 5.14.435 5.697-3.331 9.94-9.96 9.64-.503 1.21-1.648 1.779-3.213 1.927 1.195 1.59 4.16 1.41 4.177 4.177 1.564-1.006 3.191-1.95 3.855-3.855-2.012-.504-3.665 1.034-4.82.321 1.778-2.632 7.449-.502 10.925-1.285 1.56-.351 2.43-1.433 3.212-2.25-1.654-.138-3.527 2.147-4.497.643 4.117-1.023 6.77-3.51 6.747-8.675-2.76-2.152-4.735-7.47-3.213-11.888.286-1.268-1.87-1.746-.964-2.57 1.227.273 1.546 1.452 1.927 2.57-2.4 5.062 1.206 12.777 6.426 12.21-2.25-1.177-4.908-1.946-5.462-4.82 4.39 4.392 12.825 4.74 13.494 12.852 1.304-1.92-1.032-3.894-.32-5.14 4.994 7.228-3.801 10.478-7.068 13.815-1.8 1.837-3.154 3.586-2.57 7.39.057.906 1.525.4 1.284 1.606-3.266-.736-1.469-5.619-1.285-8.353-1.292-.222-1.834.308-2.892.321.001 1.822-1.526 2.115-1.927 3.534-1.137 3.6 4.065 4.231 5.14 8.033.355 1.254-.7 1.915.643 3.534-.769.41-1.309 1.048-1.285 2.25 2.632.6 6.064.013 5.783 2.89-.242 2.486-2.93 1.669-4.82 1.607-7.414-.24-11.499 4.859-7.71 9.96 1.121.163 2.945.787 3.534-.32-1.32-6.25 6.72-4.016 9.639-6.427 1.407-1.163 1.326-3.157 2.891-4.177.32 2.784-1.876 3.05-2.249 5.141 1.528-.545 3.239-1.322 3.856-2.892.34-.864-.652-2.093.643-2.57.435 3.433-1.325 4.672-2.892 6.105 3.656-.738 6.098-5.38 4.177-9.64-3.055-.584-5.169-2.113-7.068-3.854-2.303.263-4.342-1.434-3.855-2.892.975.63 1.104 2.109 2.891 1.928-1.908-5.962.548-13.435 4.498-14.457-3.366 2.895-6.369 9.602-3.534 14.137 1.115 1.783 4.113 3.443 6.426 3.213 1.258-.125 3.074-2.225 5.462-2.57 3.407-.493 5.688.619 6.426 2.891.836 2.575-.077 3.6-2.249 3.856-.167-.476-.475-.81-.643-1.285.51-.67 2.55.194 2.249-1.286.234-.876-.64-.646-.643-1.285-1.225 1.095-2.3.432-3.534 1.607-.992 4.89 3.582 7.334 7.39 6.104 3.79-1.224 6.943-10.414 3.855-13.815-1.384.226-2.033-1.246-3.213-1.607-.347-.106-.953.405-1.606.321-.782-.1-1.036-.68-1.607-.642-1.869.125-3.812 1.712-5.783 1.928-5.395.587-7.594-2.544-5.784-7.069-.519-1.111-1.153 2.008-1.606.964.386-1.327.934-2.493 2.57-2.57.01-.757-.554-.947-.321-1.928 2.132-.787 3.521-2.469 3.856-4.82.272-1.91-.806-4.062.322-4.498 1.462 3.716-1.013 7.98-1.608 9.638 2.672-1.92 4.353-6.229 3.856-10.28 1.547 1.095.106 3.273.964 4.819 2.35-4.262-1.826-7.579-2.25-9.96 1.899 1.513 3.287 3.36 3.535 5.783.432 4.207-2.901 6.775-3.212 10.603-.384 4.704 1.82 5.614 5.462 6.105.754.101 1.653.88 2.25.963 1.974.275 5.164.16 5.782 0 .916-.235 1.167-1.472 2.249-1.285 2.44.894 5.137.1 7.39.643 4.595 1.108 7.118 8.478 3.855 10.281.747-1.447 1.393-3.834 0-5.14.628 2.79-1.768 4.451-.321 6.104-1.723 1.08-2.635 2.429-4.177 3.535-.68.487-1.768.763-2.57 1.285-1.06.689-.712 1.363-1.607 2.249-.55.543-1.128.39-1.285.642-1.408 2.265-.321 3.924-.643 5.784 4.842 1.774 7.81 7.456 14.78 5.14.99-.239.618.882 1.606.643 5.542-.414 8.905-6.465 5.462-11.245-2.957-2.13-10.113-4.02-10.281 1.927.706 1.008 1.856 1.572 3.856 1.286.851-.22.36-1.783 1.606-1.607 1.079-.007.869 1.273 1.285 1.928-3.461 5.723-13.187 4.347-12.852-2.57.171-3.519 3.736-4.566 5.784-6.105 3.789-2.849 6.442-7.442 6.104-12.852-.129-.835-.958-.969-.964-1.928.37-.379.364-1.136.322-1.928-.929-1.469-2.194-3.353-4.177-4.498-1.5-.866-4.015-1.466-5.14-1.606-2.87-.356-3.896 1.1-6.106 2.249-1.74.905-3.609 1.35-4.819 1.928-1.477.704-4.644 2.911-5.783-.322 1.661.858 4.313.713 5.462-.642-1.188.58-5.303 1.569-5.141-.964 3.21 1.284 6.814-.31 8.675-2.25-3.56-.4-6.839-1.086-8.032-3.855-1.752 1.334-3.294 3.56-2.892 6.105-1.49.494-.932-1.333-1.285-1.928-.507-.849-.892.089-.964-.964-.284-4.096 7.703-8.104 3.855-14.458-.266-.908.452-.832.322-1.607-2.229-2.162-4.778-4.005-9.64-3.534-1.395-2.031-5.36-1.493-7.71-2.57 3.688-1.326 5.922 1.277 9.317 1.286.873-2.925-2.987-3.785-3.213-6.426-.174-2.034 1.347-5.498 3.856-5.14-1.554 1.444-3.367 2.628-2.892 6.104.943 1.521 3.016 1.91 2.892 4.498 2.364-.737.85-4.255.322-5.783.695-1.127 1.189-2.452 2.892-2.57.06 1.559-1.876 1.122-1.928 2.57.857 2.628 1.274 4.9-.321 7.068 7.359.583 10.455 9.037 7.71 16.708 1.084.893 1.357 2.088 2.25 2.57 4.723 2.547 10.96-1.993 16.064-.964-2.725-5.483-14.622.106-16.707-6.105.812-.717 1.436.702 2.57.643 2.656-.45 5.563-.65 7.07-2.25-1.995 1.012-9.212 1.464-7.712-1.927 1.26 2.151 5.388 1.579 7.711.643-1.384-.865-3.772-.726-3.855-2.892 1.975-1.988 4.339.655 6.426.643 1.198.34.508-1.205 1.606-.964-.102.745.051 1.234.321 1.606 2.97-.672 3.335-3.949 5.141-5.783-.67-2.436-1.172-5.04-3.855-5.462-1.557 2.008-4.427 1.373-7.068 1.606-2.324.206-5.087 1.55-6.426-.321.2-4.62 5.239-4.401 6.426-8.032-1.19.438-1.72 1.448-2.892 2.249-1.417.967-3.527 1.44-4.498 2.57-1.022 1.19-.926 2.567-1.606 3.856-.497-.467-.283-1.645-.322-2.57 1.28-2.767 4.766-3.164 6.748-4.82 1.594-1.332 1.281-3.156 2.249-4.82.881-1.517 2.3-1.906 3.213-3.213 4.75-.938 7.695 1.561 12.53.964.637-.22-.2-1.914.964-1.606.185.564-.388 1.887.321 1.928.293-.565 1.127-.588 1.607-.964-.034-.869-1.747-1.456-.321-1.928 1.228-.264.378 1.55 1.606 1.285 3.899-1.135 5.246-4.82 5.782-9.318-.784-.179-.683-1.243-1.926-.963-.873-.231.23 1.514-.643 1.285-.95-1.085-2.196-1.874-2.249-3.856-5.505.492-3.291-8.026.321-5.783-1.829.052-4.282 2.338-2.57 3.855.085-1.735.941-2.7 2.57-2.891-.038.925-1.37.557-1.285 1.606 2.133-.012-.243.952.321 2.25 1.057.74 1.357-1.494 3.213-.965.554 1.092.225 2.355 0 3.535 4.006-.814 4.397-5.244 5.141-9.318-.835-.865-.968.392-1.928.321.024-.56-.072-1-.321-1.285-4.715-1.175-9.909-1.872-15.101-2.57-1.135.47-1.786 1.427-3.534 1.285.014-1.057.542-1.6.321-2.892-1.084-1.415-3.679-3.771-7.39-4.498-.6-.117-1.348.184-1.928 0-1.925-.613-3.956-2.895-5.783-2.57-1.945.345-2.418 2.663-2.892 4.498 1.847 1.07 6.409-1.47 6.748 1.606-2.398-1.302-6.112.597-8.033-1.285 0 .854.122 1.835-.321 2.25-.568-.598-.939.138-1.608.32-.811-.794-1.949-1.263-2.57-2.249-1.053.02-1.227.914-2.57.643-.167-.506-1.237-1.72-.322-2.249.59 1.136.802.011 1.607-.321.03.505-.043 1.113.643.964 1.147-1.053.827-2.16 0-3.213 1.62-.682.617-3.058 0-4.177-1.075-.401-3.645-.751-3.856.642 1.4.183 2.776 2.624.964 3.213-.29-.94-.29-.987 0-1.928-1.2.13-1.886-.256-1.928-1.285.259-2.148 2.737-2.12 4.82-1.606.328-.827 1.985-1.388 1.285-2.25-1.533-.247-1.427 1.145-2.892.965-1.132-.904-1.515-2.556-1.285-4.82-1.524.237-2.21-.361-3.535-.321-1.045.652-.86 2.036-2.57 1.285-.779-1.315.321-1.81.32-3.213-2.096-.062-2.864 1.205-3.534 2.57-1.34-.16-1.417.94-2.891.643.058 1.423.58 2.034-.964 2.25-.434-1.71-1.162-3.123-1.607-4.82-2.912-.02-4.116 1.666-3.855 4.82 1.121-.592.615-2.813 2.57-2.571 2.474.86 1.637 5.26-.964 5.462-2.573-.593-2.944-5.72-1.285-7.711-3.23.711-8.422 5.903-4.498 8.675.25-1.894-.111-4.396 1.928-4.498-1.158 1.217-1.887 3.722-.322 5.14 1.204.026.972-1.385 2.57-.964-.22 1.292.308 1.834.322 2.892 2.428-2.22 5.318-7.16 8.995-7.39 5.508-.344 7.491 7.139 1.607 8.675-.817-.468-.893-1.677-1.285-2.57-2.61.564-3.738 3.194-3.213 5.14-4.142-.297-1.509-7.852 1.285-6.747-.613 1.215-3.245 2.101-2.25 3.856.848-1.83 2.052-3.305 4.498-3.534.312-1.169-1.565-.149-.964-1.607 1.666-.166 1.991 1.007 3.213 1.285.143.608-.437 1.937.643 1.607 1.12-.165.471-2.1.642-3.213-2.892-3.09-6.569-1.205-8.675.643-2.196 1.925-3.712 5.313-3.855 7.71 2.759-.401 4.241.471 5.14 1.928.892-2.956 3.902-3.508 8.033-3.534.74-.004 1.977-.679 2.249.321-.726 1.676-4.242.138-6.747.643-4.571 1.926-3.881 9.254.642 10.282.883.2 1.54-1.06 2.25.32-2.325 2.712-5.202-1.103-6.427-2.57-1.817 5.37 10.09 6.061 10.603.322-1.468-.392-1.141 1.976-2.249.964.66-.857 1.779-3.529.321-4.498-1.355 1.538-4.516 4.043-5.462 1.285-.734-2.145.79-4.879 4.177-4.498 1.199 2.684 4.16 3.402 4.177 6.426.024 4.351-5.458 6.908-10.603 5.14.032 3.004-3.638 5.163-6.747 5.462-3.435.331-6.044-1.024-8.354 0-.794.352-2.8 2.232-3.534 3.213-1.724 2.306-3.405 8.163-.643 10.282.19-1.663-.263-3.059 0-4.177 1.74-7.383 12.511-2.088 17.028-6.105 1.356-1.204.991-2.872 2.25-4.498v2.57c-1.925 3.312-5.416 4.677-9.96 4.82-1.393.044-2.98-.564-4.178-.321-2.999.607-4.62 2.638-4.498 7.068 1.08.117.536-1.392.964-1.928 2.003-2.389 5.072-2.991 8.995-2.57 1.518.163 2.452.875 3.856.643 2.795-.462 3.572-2.726 4.498-4.499 0 3.086-1.358 4.726-4.177 5.463-1.88.49-4.39-.29-6.104.32-2.654.946-3.06 3.368-3.856 5.784-.984-.837-.712-2.93-1.606-3.855.8-.05.994.505 1.606.642.264-1.143-1.991-1.407-.964-2.249.93-.387 1.465 1.926 1.607.321-3.16-1.93-3.563 2.353-3.21 4.496zm31.487-48.515c.256 1.543-1.238 1.334-1.928 1.928-.238 1.197-.74 2.9.642 3.213.712-1.317 1.38-2.206 2.25-2.57 4.148-1.747 7.932 1.936 10.602.963-1.885-3.148-6.695-3.372-11.566-3.534zm5.14 3.213c-1.302-.105-3.647-.36-3.855 1.285 1.715.856 4.448.693 6.426 1.285 1.626 1.06 1.136 4.239.964 5.462 1.375-.406 1.588.024 3.213 0 .369-1.684 1.775-3.837.321-5.462-1.563.264-3.073 1.074-3.856 0-.397-1.04 1.04-.245.643-1.285-1.047.05-2.234-1.154-3.856-1.285zm-25.06 3.534c1.34-.16 1.658-1.34 1.927-2.57-.613-.137-.582-.918-1.607-.643-.244.91-.947 2.426-.32 3.213zm21.205 7.39c1.174.065 2.371 1.249 3.212.642-.103-1.717-2.964-.677-2.57-2.891 4.2.897 4.215-2.292 4.177-4.82-4.835-3.056-4.678 3.402-4.82 7.069zm14.779-5.14c-1.117-.704-1.129-2.514-2.892-2.571.455 1.162 1.547 3.369 2.892 2.57zm.322-1.286c-.506-.03-.252-.82-.964-.643-.283.664 1.058 1.216.964.643zm-11.567 5.462c2.304-.48 3.076-2.492 3.212-5.14h-.964c-.379 2.082-.508 4.417-2.248 5.14zm-38.233-4.498c-1.955-.015-3.506 1.506-4.177 3.534 2.398.364 2.328-1.74 4.177-1.928.291.566 1.183.53 1.285 1.286-.377 1.015-2.2.583-1.928 2.249 2.513-.272 3.153-2.416 4.82-3.535-1.797.418-2.655-1.594-4.177-1.606zm47.23 2.249v-1.285a.687.687 0 000 1.285zm-.323 1.606c1.685 1.1 4.366 1.204 6.426 1.928-.517-2.695-3.147-3.277-5.14-4.498-.294.991-.609 1.962-1.286 2.57zm-36.627-2.249c-.518.446-1.017.911-1.606 1.286-4.523.1-7.27 3.63-6.748 7.71 4.903-1.202 9.539-2.67 9.318-8.996h-.964zm-10.28 6.426c.233.73-.58 2.507.642 2.25-.327-3.754 2.239-4.616 3.535-6.748-.411-.019-.446-.412-.964-.321-1.243 1.435-2.195 3.16-3.213 4.82zm39.518-2.249c-.285-.246-.918.197-.964.321-.46 1.228 1.6.232.964-.32zm-2.891 1.285c-.06-.475-.777-.294-1.286-.32-.686 1.18 1.637 1.448 1.286.32zm.32 1.928c.897.223 1.36-1.598.644-1.928-.05.891-1.54 1.036-.643 1.928zm21.85 1.607c-.218-1.61-1.307-4.04-2.893-3.212 1.642.391 1.975 2.094 2.892 3.212zm-43.055-2.892c-2.173.913-3.152-.777-5.783-.321-.52 1.515-1.838 2.231-2.892 3.212-.777 3.244-.146 6.415 1.285 8.353 1.347 1.104 7.251 2.746 7.39-.642-6.886 1.882-4.793-11.462-.321-7.39-1.789.75-2.182 4.362-.643 5.783 1.24.062.864-1.492 2.25-1.285-.118-2.473.225-4.486.642-6.426-1.364.294-1.618-.524-1.928-1.284zm-21.204 8.031c1.193.664.84-.46 2.249-.32.02-3.194 2.385-4.041 2.57-7.07-4.117-.195-4.986 4.352-4.82 7.39zm65.865-4.818c-.001-1.178.124-2.482-1.286-2.25.37.809.153 2.204 1.286 2.25zm-38.556.643h1.285c-.102-.755-.507-1.207-.321-2.25-1.015.057-.87 1.27-.964 2.25zm2.57-.643c-.142-.607.437-1.936-.642-1.607-.51.48-.47 1.832.642 1.607zm-25.06 1.285c-1.8.75-2.638 5.734.643 5.462.54-1.62-.936-3.901-.643-5.462zm.643 3.213c2.101.682 3.524 2.045 4.498 3.856-.61 2.092-1.332 3.82-3.534 3.534-1.267.089-.983-1.374-2.25-1.285-1.183 1.12-4.39 5.049-1.285 6.426 1.168-.011.835-1.522 1.607-1.928 2.216-.462 3.494-1.862 5.462-2.57.184-1.208.561-2.223 1.927-2.25 2.265-4.259-2.674-4.977-4.177-7.39.28-.468.255-1.243 1.285-.963.132.774-.587.698-.321 1.606.605.378 2.098 1.518 2.891.643-1.13-1.067.737-3.137-.32-4.177-3.367.506-6.229.535-5.783 4.498zm14.136 1.606c-2.413-1.288-.213-5.276-1.285-5.784-1.556 1.47-1.05 6.626 1.285 5.784zm-6.105 2.892c-.296 1.204-1.31 1.69-1.606 2.892 5.24 1.283 12.809.68 11.566-5.783h-.964c.505 5.114-6.042 4.686-8.996 2.891zM387.015 69.1c-.04.595.534 1.005.643 1.607.613 3.376-2.432 5.094-.643 7.39.525-.52-.286-1.345 0-2.571 3.431-2.566 2.586-9.41 7.069-10.924 1.346-.062.993 1.577 2.57 1.285 1.116.028 2.219-1.615 1.286-2.57-.38.477-.279 1.435-1.286 1.285-.93-.926.625-1.005.322-2.25-4.987.32-9.615 1.746-9.96 6.748zm83.215.643c.936.472.936-1.437 0-.964v.964zm-81.608 6.746c1.397-.958 3.535-1.176 3.212-3.855-.99.24-.617-.882-1.606-.642-.292 1.495-2.942 3.445-1.606 4.497zm12.208 2.57v-.964c-.378.05-.911-.055-.964.322.46.077.543.53.964.642zm-13.172 4.82c-.2 1.462-2.782 2.516-.321 3.213.556-1.8.967-3.745.964-6.105-.459-.076-.543-.529-.964-.642-.541 1.35.523 2.066.321 3.534zm62.652-.964c.481-.055 1.185.115 1.285-.321-.426-.418-1.196-.423-1.285.32zm5.14 5.14c2.03-.968 3.775-2.221 4.498-4.497-2.12.405-2.572-.855-4.498-.643-.33 2.4-.73 2.87 0 5.14zm20.242 1.928c-.91.054.266-1.98-.643-1.927-.331.303-.553 2.872.643 1.927zm12.53 1.607c.379-.895.046-1.91-.642-2.57.212.858.134 2.007.642 2.57zm-93.495-1.607c-.607.072-.71-.362-1.286-.32-.085.938 1.246 1.233 1.286.32zm3.854 4.177c.207-1.293-.807-3.027-1.606-2.249 1.047.24.978 1.594 1.606 2.25zm-15.742 8.997c-2.725-3.314 1.378-7.11 4.82-6.105-.466 1.675-1.965.88-2.571 1.927v.964c1.466.074 2.243-.541 3.213-.964.306-2.02-.485-2.942-1.286-3.855-6.22-2.634-10.26 6.699-4.176 8.033zm4.82-2.57c-.801.27-1.722.42-2.893.32-.41-.66-.512-1.63-1.606-1.606-1.815 3.233 3.76 3.562 4.498 1.285zm3.212 2.248c1.367.19 2.125-.23 3.213-.32-.575-1.568-3.125-1.673-3.213.32zm4.177.322h.964v-.964h-.643c-.018.41-.413.444-.321.964zm2.892-.964c-2.68 7.458-16.216 4.475-18.313 12.53-.39 1.496.28 2.812.32 4.499.013.541-.457 1.654-.32 2.249.616 2.699 2.903 4.36 7.067 4.176.924-.576 1.595-1.404 1.928-2.57-1.868.67-3.663-.025-3.213-2.57 1.01-.699 1.926 1.087 3.213 0 .975-1.21-.256-2.36-.321-3.535-2.88-.858-6.003-.02-6.426 2.25-.308 1.642 1.381 2.016.964 3.534-4.309-3.152.954-6.13.964-8.997 2.63-3.266 9.182-2.137 12.209-4.498.775-.604 2.155-2.422 2.57-3.534.265-.712.82-3.278 0-3.534h-.642zm56.226 2.249c-.122-.791 1.763-2.184.321-2.25.18.854-1.323 1.636-.321 2.25zm-64.259.642c-3.523.616-6.826 2.55-8.354 4.82.02.196.048.38.322.321.904-.671 2.115-1.68 3.534-2.249 3.356-1.345 8.566-.767 8.996-3.855-1.251 1.354-3.007.703-4.498.963zm13.815 8.032c1.835-.132 3.899.894 5.462 0 .816-.253-.904-1.124 0-1.607 2.853.069 2.996-2.572 3.856-4.498-.744-1.827-2.645-2.495-5.141-2.57.403 4.688-2.762 5.807-4.177 8.675zm-2.25.643c-.757.099-.597 1.116-1.606.963-8.528-1.042-13.305 9.878-7.067 14.138-1.187-4.505.585-11.659 4.82-9.64-4.588.132-5.32 6.247-3.535 9.96 4.231.756 10.479 3.48 9.318 8.676-.284 1.273-1.731 2.175-2.892 3.213-3.715-.462-7.92-.434-8.354-4.177 1.28.103 2.374.018 2.892-.643.186-1.257-.276-1.865-.643-2.57-3.942-.516-6.028.827-6.426 3.856.074 1.166 2.33 1.291 1.286 2.57-.997.251-2.078-2.128-2.25-.643 1.5 2.756 5.343 4.838 10.282 4.177 5.21-.697 9.7-4.422 10.28-8.996.532-4.176-2.289-4.331-4.176-6.426-1.076-.853-.322-3.534-1.607-4.177-.816 1.319 1.157 3.362-.321 4.177-2.33-4.195 2.009-6.588 3.534-8.996-4.085-.338-7.104.392-7.067 4.176.249.822 2.07.071 1.926 1.286-1.016.856-2.26-.118-2.569-.964.063-3.79 1.345-4.935 3.534-5.462 2.838-.684 6.323 1.461 8.675.964 1.728-.367 3.085-2.834 3.535-4.177 4.543.198 5.356-6.756 1.927-8.354-.403 6.8-6.44 8.7-13.495 7.069zm65.545-.643c-1.427.598-1.922 2.376-3.213 2.57-4.865.73-3.47-4.938-5.783-7.068-.74-.682-3.037-1.463-3.855-1.607-1.778-.313-4.888.063-7.069.964 7.147.35 11.252 3.742 12.53 9.96 1.832.098 1.766 1.654 3.214 1.607 2.173-.07 2.388-2.493 3.855-3.856 1.91-1.771 3.859-1.8 5.462-2.891-1.878.039-3.466-.38-5.141.32zm-61.366-3.855c-.175-1.137 1.137-.79.964-1.927-1.003-.227-1.508 1.67-.964 1.927zm7.389-.321c1.22.647 1.274-1.46.642-1.606.05.799-.504.994-.642 1.606zm48.515 15.1c-2.67-2.223-1.913-6.284-3.535-9.318-.257-.483-1.275-1.543-1.927-2.249-2.078-2.252-4.112-3.503-8.033-3.534-2.008.03-4.874 1.976-8.032 1.928.52 1.26 1.84 1.194 2.891 1.285 3.889.338 7.37-.753 10.282 1.285.794.556 2.03 2.204 2.57 3.213.456.852.77 1.944.964 3.212 2.596 1.26 3.192 4.52 4.82 6.748 1.049 2.266-.478 5.476 0 7.068.775-1.903 1.097-4.257.964-7.068 1.187-.205 3.2.415 3.855-.322-.787-1.567-2.99-1.72-4.82-2.248zm17.671-7.068c-.172.667 1.253.68.322.32-.628-1.941-3.384-1.757-4.498-3.212-4.342-.38-6.853 1.072-8.354 3.534 2.112-.402 6.29-2.61 8.033-.321-6.959-1.294-8.979 5.326-14.459 2.57.681 3.282 4.452 3.474 6.748 5.14 2.907-2.8 10.762-5.038 11.888.964 1.204.189.971.24 2.57.321-.45-2.001 1.752-2.723 1.285-4.82-.404-1.812-3.033-2.463-4.82-3.212-.708.228 1.816 1.782 0 2.249.175-1.138-1.136-.79-.962-1.928.375-.48.399-1.314.963-1.606h1.284zm-48.836.322c1.332-.274 2.024-1.188 2.248-2.57-1.506.1-1.687 1.525-2.248 2.57zm18.955-.322c1.81.546 3.422 1.291 5.462 1.606-.437-2.315-3.452-2.465-5.462-1.606zm32.773 2.25c.221-.864-.665-.622-.964-.964-.222.863.664.62.964.964zm-41.125 1.927c1.204-.187 2.137-.647 2.57-1.606-1.646-.253-1.774 1.01-2.57 1.606zm45.623-.642c-.01.169 3.345 1.554 3.855-.322-.93 1.056-3.803-.758-3.855.322zm-60.724.642c-2.796-.188-5.99 1.908-5.141 6.426 1.493 1.964 6.934 2.3 8.354 0-2.268-.946-3.268-3.16-3.213-6.426zm57.51 3.855c.465-.5.677-1.252.965-1.928-.94-.164-1.705 1.475-.964 1.928zm-6.746.643c.622.77.19 2.594 1.285 2.891 1.005-2.296-.517-4.833-2.892-4.82.094 1.084 1.425.933 1.607 1.929zm-.322 2.57c.556-3.861-5.262-5.304-6.747-1.285 2.01.239 1.706 2.792 2.25 4.498 1.974-.861 4.218-1.27 4.497-3.213zm-8.675-1.928c.804.055 1.006-.494 1.285-.964-.613.136-1.383.117-1.285.964zm9.96 5.14c-.373-.053-.349-.507-.32-.963-2.394 1.89-5.428 3.141-5.142 7.711.34 1.373 2.32 1.108 2.25 2.892-4.69.019-3.86-6.635-1.607-8.675-2.731.267-2.844 3.153-5.462 3.534-1.038 3.653 2.492 6.562-.321 9.318.603 1.098 1.015 2.54 1.927 3.213.968.715 6.22 2.314 7.39 2.249 3.496-.195 5.48-4.92 8.674-4.82 1.518.048 2.603 1.979 4.177 1.607 4.231 2.601 2.631 10.412-1.927 11.566-1.287.326-6.101-.045-5.463-1.927.276-.903 1.738-.62 2.892-.643 1.283-1.18 2.936-1.992 2.57-4.82-5.476-2.862-12.216 5.899-6.104 8.997 8.827 1.717 14.99-5.444 12.852-11.888-.468-1.409-2.294-1.916-2.57-3.534v-2.892c-1.2-.942-3.004-1.28-4.177-2.25-2.428 1.323-5.054 2.444-8.996 2.25-2.08-1.254-3.344-2.614-3.213-4.82.22-3.719 5.649-4.362 6.426-7.39.797 3.153-1.973 2.74-2.57 4.499 4.145.274 4.96-7.519.642-7.711-.558 1.583-.514 3.77-1.927 4.498zm-13.815 1.929c.809-1.44.06-4.44 1.285-5.462-.38-.37-1.136-.364-1.927-.322 1.51 1.492.059 3.951.642 5.784zm6.426-2.892c.105-1.39-.443-2.128-1.286-2.57.872 1.118-.204 2.41 1.286 2.57zm-22.812 1.607c.563-4.654-3.851-3.867-8.675-3.213.82 2.453 2.458 5.233 1.607 8.352 3.39-.562 6.713-2.2 7.068-5.14zm1.286-2.892v-.964h-.964c-.059.701.262 1.023.964.964zm-5.785 15.743c2.489-3.252 9.934-5.91 8.675-12.209-.23-1.149-.858-2.975-3.213-2.57 1.475 7.213-5.041 9.048-7.068 13.816 2.034-1.002 3.25-4.41 5.783-3.856-.695 2.093-4.904 2.373-4.177 4.82zm9.319-9.639c1.511-.98.281-4.484-.643-5.14.304 1.624.902 2.954.643 5.14zm15.743-3.212c1.025.452.812-1.924.32-1.928.043.792.05 1.548-.32 1.928zm-5.462 6.425c2.081-1.667 3.072-4.424 3.534-7.71-.41-.018-.445-.412-.964-.321-.08 3.454-1.79 5.277-2.57 8.031zm-65.543-7.39c-.662-.241-1.32.378-1.928.322-.769-.072-1.08-.643-1.928-.643-2.128 0-3.558 1.28-4.497 2.57 3.354-1.942 8.771-1.95 7.39 4.498 4.886.167 4.672-5.391.963-6.746zm27.31 4.177c1.113-.063 2.469.114 2.57-.963-1.265-.087-2.233.123-2.57.963zm-1.607 1.286c.086-.663 1.422-.078 1.285-.964-.902-.33-2.234.5-1.285.964zm36.305 1.927c.284-.698 1.938-1.678.964-2.569-.055.926-1.71 1.905-.964 2.57zm2.25 0c-.048-.427 1.306-.969.32-1.285-.177.202-1.304.97-.32 1.285zm2.57-.32v.642c.79.5.945-1.091.321-.964-.018.196-.048.38-.321.321zm-69.399 0c-.339 1.864 1.393.134 0 0zm12.209.642c-.641 1.18-1.627 2.014-2.25 3.213 3.15-.91 7.666 1.489 8.676-1.607-.942-1.736-4.932-.423-6.426-1.606zm54.62 1.606c.712.238 1.323-1.184.642-1.285 0 .638-.876.408-.643 1.285zm.642 1.285c.966-.533 1.257-1.74 1.927-2.57-.876.421-2.345 1.92-1.927 2.57zm-3.856 0c1.527.23 2.58-1.688 2.25-2.249-.666.834-1.88 1.12-2.25 2.25zm5.462 3.213c1.267.41.835-.878 1.286-1.285 1.052-.292 2.959-2.22 1.606-2.891-1 1.355-2.19 2.521-2.892 4.176zm-1.606-.642c1.03.28 1.004-.494 1.285-.964-.804-.054-1.006.493-1.285.964zm-11.566 5.14c0-2.677 1.68-3.675 2.57-5.461-2.608-.128-5.229 4.309-2.57 5.462zm4.497 2.892c-3.174-1.113-.508-5.821-.642-7.39-3.58.797-4.502 8.89.642 7.39zm-13.814-3.534c.922-.266 1.96-3.447.963-3.534-.47 1.028-1.1 1.898-.963 3.534zm37.912 3.534c2.41-1.12 4.403-2.947 7.71-2.57 1.264.144 2.016 1.342 3.535.964-.255-3.026-4.763-1.988-6.426-1.928-.245-1.187 2.32-1.205.643-1.928-1.8 1.842-4.438 2.845-5.462 5.462zm-73.254.964c1.836-1.055 2.168-3.615 3.534-5.14-2.58.214-4.62 2.288-3.534 5.14zm53.655-2.57c-2.164.39-4.032.406-5.141-.964-.377 2.454 4.407 2.507 5.14.964zm9.638 1.285c.171-.7.779-2.078-.32-2.25.149 1.266-.674 1.669.32 2.25zm.643.321c1.026.453.812-1.923.321-1.928-.32.785-.106.685-.32 1.928zm1.607 0c.227-.237.8-1.573-.322-1.285.054.48-.115 1.185.322 1.285zm4.498.964c.744.103 1.233-.052 1.606-.321v-1.285c-1.144-.074-1.68.461-1.606 1.606zm-3.213 2.25c1.167-.44 1.99-1.223 1.928-2.892-.41-.018-.445-.412-.964-.322-.077 1.315-.975 1.81-.964 3.213zm-.643-1.607c.138-.506 1.012-.275.643-1.285-.813-.339-1.425 1.083-.643 1.285zm15.101 2.57c1.2-.31 2.464-2.235 1.607-3.534.013 1.727-1.452 1.976-1.607 3.534zm-9.639-1.606c-.192-.572.942-1.334 0-1.607.089.943-1.287 1.193 0 1.607zm-29.238 2.249c-1.036-1.75-2.841-2.729-4.82-3.535 1.136 1.65 2.7 2.87 4.82 3.535zm19.6-2.57c.797.048 1.333-.167 1.606-.643-.48-.51-1.832-.47-1.607.642zm-60.082 0c-.843-1.193-3.645-.426-5.462-.643 0 1.722 5.164 3.276 5.462.642zm65.865 1.927c.943.03 2.714-1.987 1.285-2.249-.062 1.116-1.137 1.22-1.285 2.25zm0 1.928c1.025-.166 2.581-1.47 1.927-2.25-.411.98-1.925.86-1.927 2.25zm-4.82.642c1.504-.005 3.471-1.228 2.57-2.57-.987.727-2.476.95-2.57 2.57zm26.025-.642c-.41-.018-.445-.412-.964-.321-.5.79 1.091.944.964.32zm-24.74 1.928c1.156-.193 1.812.115 1.928.964 1.437-.063 2.055-.945 2.57-1.928-1.437.046-1.784.573-1.927-.964-.996.502-2.105.892-2.57 1.928zm.964.964c-.48.055-1.186-.115-1.285.32.427.418 1.196.424 1.285-.32zm-242.253-4.177c.09.732-.078 1.206-.643 1.285-.115-.957-.512-1.63-.964-2.25-4.094-1.264-9.063.238-8.996 3.856.018.933.373 3.128 2.57 2.892-.042-5.441 7.098-3.23 9.318-1.284-.773.909-1.943-.443-2.57.321-.106 1.69 1.142 1.873 1.927 1.928 1.843.13 2.524-2.28 3.534-2.892.12 2.69-2.36 2.78-3.534 4.177 2.27.342 3.46-.396 4.82-.964.08 1.153-.965 1.178-.964 2.25 2.033-.435 4.592-2.042 3.855-4.178.145.525-1.75.525-1.606 0 .794-1.824 1.658-5.132 1.285-7.068-3.262.593-3.695 4.015-7.068 4.498-.47-.28-1.244-.255-.963-1.285.219.248 1.913.837 1.606-.321-.569-.29-.94-.778-1.607-.965zm69.398-38.555c1.602-.439 3.946-1.829 3.856-2.892-1.333.916-3.884.614-3.856 2.892zm2.25-.322c.071.25.269.373.643.321 1.914-.656 3.532-1.608 4.82-2.892-2.242.438-4.546.812-5.463 2.57zm2.248.965c2.248-.538 4.039-1.531 5.784-2.57-2.27-.599-5.088.57-5.784 2.57zm2.57.641c2.371-.736 4.378-1.833 6.427-2.891-2.502.605-5.846.366-6.426 2.891zm-97.672-1.284c.852-.005 1.892.177 1.927-.643-.851.005-1.89-.178-1.927.643zm100.886.963c2.027-.008 3.687-.382 4.819-1.285-1.28-.42-3.97.232-4.82 1.285zm10.281-.643c.407-1.285-2.17-1.227-2.57-.642.263.809 1.465.676 2.57.642zm-5.783.643c1.214-.071 2.897.327 2.891-.964-1.28.006-2.262.308-2.891.964zm-13.173 0c-1.344-1.112-2.428 1.71-3.534 0-.937 1.445-1.197 1.998-1.285 3.855 1.283.324 1.382 1.83 1.927 2.892 1.802-1.482 3.67-3.003 5.462-4.498.508-.424 1.687-.459 1.285-1.607-2.663.658-4.203 2.438-6.105 3.856-.21-1.563-.92-.134-1.285-.643.816-.362.743-1.613 1.607-1.927-.09.732.077 1.207.642 1.285.523-1.405 2.674-1.18 2.892-2.892-1.288-.24-2.24 1.507-1.606-.321zm2.249 3.535c1.49-.33 2.93-.712 3.534-1.928-1.49.33-2.93.711-3.534 1.928zm-122.733 1.927c.224-.77 1.56-2.27.321-2.57.094.87-1.342 1.837-.321 2.57zm161.288 2.249c-1.299-1.13-.757 1.034 0 0zm-35.985 4.82c.443-.015.705.15.964.32.152-.998-.864-1.204-.964-.32zm114.38 27.952c1.91.527-1.18 4.525 1.927 4.82-1.66-7.328 4.343-10.562 8.032-14.458-.05-.378.055-.912-.321-.963-4.735 2.009-8.796 4.696-9.638 10.601zm-173.818-4.82c-2.243-1.864-7.098-.41-7.711 2.571-.175.848-.584 3.592 1.285 3.856 1-2.648 1.208-5.494 4.177-6.105 1.517-.312 2.853.72 4.498.322.258-1.222-1.52-.41-2.25-.643zm176.067 7.711c.14.717.568 1.146 1.285 1.285v-1.606c-.56-.024-1 .072-1.285.321zm2.892 1.608c2.141 2.018 4.442 1.523 5.462-.964-.016-1.484-1.83-1.168-1.607-2.892.459-.077.542-.529.963-.643 3.607.974 2.36 5.87-.321 6.748-.35.115-2.16.1-2.57 0-1.026-.25-1.605-1.362-2.57-1.928-.457.937-2.092.694-2.892 1.285 2.132 2.206 5.842 3.256 9.317 1.607.394 1.501-.207 2.09.321 3.213 2.266.444 1.968-1.674 1.928-3.535-.852-.004-1.892.179-1.928-.642 1.011-.381.601-2.184 2.57-1.607 2.242-3.45-.598-7.777-5.14-7.39-1.071.004-.933 2.185-1.927 1.285.364-2.164 2.562-2.656 4.497-2.249 1.49.313 2.208 2.652 3.535 2.25-2.26-7.474-16.13-.657-9.638 5.462zm-171.892-3.535c.733.09 1.208-.077 1.286-.642-.733-.09-1.208.077-1.286.642zm178.318 1.927c.102-.744-.053-1.234-.323-1.606-.378.05-.911-.055-.962.32.825.033.46 1.255 1.285 1.286zm-181.208-.642c.732.09 1.207-.077 1.285-.642-.732-.09-1.208.077-1.285.642zm74.218 1.285c-.212-1.435-1.185-1.394-1.928-1.607-.75 1.088.841 2.455 1.928 1.607zm109.239 3.855c-.133 1.039.305 2.77.964 3.213 2.412-1.55 1.43-6.494 3.213-8.675-1.875-.584-4.108 4.917-4.177 5.462zm-5.784 3.214c-.038-.329 1.387-.65.322-.964.172.463-1.253.784-.322.964zm-68.114 2.248c.138-.611.692-.807.643-1.606-.955-.382-1.38 1.354-.643 1.606zm1.928 6.106c-.01 1.185.144 2.213 1.285 2.249-.288-1.466.535-1.821.643-2.892-.443.014-.705-.151-.964-.321-.314.328-.634.65-.964.964zm82.894 4.176c.128-1.2-.257-1.885-1.285-1.928.282.788.29 1.853 1.285 1.928zm3.855 2.892c.832-.17 3.723-1.217 1.927-1.928.077 1.36-2.003.566-1.927 1.928zm-87.713 1.927c-.097.847.446 1.055 1.285.964v-1.285c-.56-.024-.999.072-1.285.321zm-1.606 1.607c1.095.242 1.252-1.227.321-1.285-.1.434-.457.613-.321 1.285z"/><path d="M437.458 86.77c1.014.783 1.988-1.212 3.535-.963-2.505 3.185-10.554 3.846-8.033 9.96 1.2-.03.914-.36 1.927 0-1.217 1.802-3.265.16-5.14 0-1.65-2.218-.447-6.131 2.57-6.426.439 2.24-2.146 2.873-.964 4.82.756-2.672 2.163-4.692 4.498-5.784.054-.697-1.14-.146-1.607-.321 4.227-2.948 8.66-5.692 12.53-8.997.102-.753.508-1.205.321-2.249.324-1.068.968-1.817.964-3.213-1.872 1.79-1.62 5.457-4.82 5.784-.807.082-1.373-.353-2.57-.322.466-1.975 3.313-.046 4.499-1.606-.737-1.16-3.265 1.197-3.213-.964 1.878.165 2.902-.525 4.176-.964-.468-.756-2.101.016-2.57.321-.827-1.163 1.096-2.32 2.57-2.249 1.809-.62 1.103-3.146.322-4.498-1.82-.288-2.92.639-4.177 0 .417-2.474 3.88-1.902 5.462-3.213.861.974.55 1.853 0 2.892.661.838 1.72 1.278 2.249 2.249-.413 3.55-1.99 5.936-2.57 9.318-3.577 1.884-6.583 4.34-9.959 6.425zm11.567-13.815c.41-.927.11-1.973-.964-2.25.043 1.028-.317 2.46.964 2.25zM430.39 94.482c-.335-1.317.989-2.628 0-3.535-.38.738-1.327 3.071 0 3.535zm-7.711-9.318c.892 3.17-4.348 4.25-2.892 8.032-.456-.028-.91-.053-.964.322-2.106-.411-1.663-4.167-1.285-6.105-1.45.907-3.894.818-3.856 3.213-.908-.265-.832.453-1.606.321-.678 2.68 2.038 3.43 1.606 4.82-1.642-.392-1.974-2.096-2.891-3.213-1.14 1.464-.282 3.934 1.926 3.855.042.576-.393.678-.32 1.285 1.311-.508 3.37.004 4.497.642-.36 1.152-2.049 2.285-3.534 1.285-.304-1.16 1.265-.447 1.927-.642-1.202-1.323-1.894.014-3.534-.321-3.509-.718-4.774-3.74-4.499-6.748.515-5.613 8.097-7.784 10.603-10.281.42-.759.137-2.22.643-2.892 2.182 4.255-3.206 5.457-6.105 7.39-2 1.335-5.871 4.77-3.855 9.318.391.884 1.276 1.345 2.57 1.927-2.214-1.374-1.944-5.897.964-8.353 2.484-2.1 6.202-2.575 7.71-6.105 1.09-2.549.897-5.824 0-10.28 3.094 2.03 1.478 9.802-.321 11.887-.222.864.664.622.964.964-1.8 1.412-3.5 4.89-1.928 7.711.323-3.749 2.79-5.35 4.18-8.032zm-197.273 30.522c.42-1.587 1.686.936 2.892.643 2.368 3.283-1.815 5.322-2.892 8.354-1.222 3.44-.906 6.045 2.25 8.032.858-.795-.759-3.116.321-4.177.498.788.48 2.091.643 3.213 1.26.296.233-1.695.963-1.928.29 1.531 1.646 1.995 1.927 3.535-4.623 1.372-6.688-2.204-8.032-5.141 1.29-.872.324-1.99.964-3.534 1.462-3.535 7.178-6.762.964-8.997zm75.824 17.029c.97.683-.92 1.197-.964 1.928-1.031-.745 1.118-1 .964-1.928zM360.67 134c2.045.183 2.235 3.514 3.533 5.462.944 1.414 2.15 2.274 3.213 3.213-.725 1.16-.9-.65-1.285-.964-.31-.252-.994-.047-1.285-.32-1.922-1.803-2.998-4.96-4.177-7.39zm8.674 3.535c1.52.267 1.166 1.893 1.607 2.891 1.165 2.637 2.72 5.117 4.498 7.069 1.094-1.963-2.205-4.487-2.57-7.069 2.473 2.134 3.582 5.629 5.461 8.354.649.85 2.023.976 1.928 2.57-1.518-.679-3.083-.767-4.177-1.927-2.717-2.884-5.977-7.296-6.747-11.888zm8.033 11.888c-.207-.972-.503-1.854-1.607-1.928.263.914.726 1.63 1.607 1.928zm-6.747-3.856c.813-.687 2 .984 2.57 1.606-1.061.935-1.434-1.55-2.57-1.606z"/><path d="M445.49 53.035c3.008-.148 4.527 2.339 6.104 4.498-.255 3.47 1.694 4.733 3.213 6.426-.08 1.419-1.07 1.927-1.285 3.213-1.088-1.006.533-2.02.322-3.213-.82.68-1.187 1.812-1.607 2.892-.608-.734.426-2.558.964-3.213-1.175.11-1.47 1.1-1.927 1.928-.745-.458.374-1.743.643-2.25-.44-.624-1.353.982-1.607 1.607-.436-.099-.267-.804-.321-1.285-.565.078-.732.553-.643 1.285-4.007-.366-4.898 2.386-8.353 2.57-.147-1.566-1.608-1.819-1.606-3.534-5.176 1.109-7.273-1.65-10.603-3.213 2.199-1.432 4.588 2.177 7.069 2.57 2.182-.173.32-4.392 2.57-4.497-.61 1.38-.487 1.494-.642 3.213 2.215.073 2.362-1.922 4.498-1.928-.274-.477-.81-.691-1.607-.643.272-1.762.832-3.237 1.607-4.498 1.397.852 1.605 2.893 2.249 4.498 2.331.253.972-1.011 1.285-1.606 1.44-.156 1.435 1.135 2.57 1.285 1.194.122.84-1.302 2.25-.964.132-2.864-2.612-3.27-4.498-3.213.152-1.012-.988-.728-.645-1.928zm-6.104 9.64c1.248-.253 1.987-1.012 2.892-1.607-1.16.339-2.504.495-2.892 1.606zm4.819 1.605c-1.175-.11-1.47-1.1-1.927-1.928-.932.354-2.174.398-2.25 1.606 1.143 2.769 4.93 1.837 6.427 0-.139-1.04.423-2.78-.643-2.891-.267 1.34-.323 2.89-1.607 3.213zm4.82-.32c.094-.198.799-1.237 0-1.286-.094.197-.8 1.237 0 1.285zM304.764 195.688c-1.084-1.731-.833-2.958-1.928-4.819 3.793-7.223 10.04 4.967 1.928 4.82zm-.964-4.498c2.006.436 2.883.48 4.177 1.928.844-2.79-3.229-3.898-4.177-1.928zm173.498 5.141c-2.052-.232-3.126.516-3.213 2.25 1.785 1.342 2.515-1.118 3.856-1.286.927 1.325-1.295 1.786-1.607 2.892 1.843.129 2.8-.627 4.177-.964-.904 2.244 1.319 1.18 1.608 2.891-.045.919-1.34.588-2.25.643-.76 1.916-2.53 2.824-3.855 4.177 1.83-.223 2.668.544 4.497.321.761.574 1.753 3.241 0 3.534.552-4.66-6.657-2.643-7.067.643 2.436-.526 6.537 2.44 8.032-.321.934.279.361.48.321 1.285 2.388 2.403 9.11 1.407 8.354-3.213 2.934.129 1.344 3.121.964 5.14 1.203.627 2.08-1.454 2.249-2.89.721.456 2.117.238 2.25 1.284.29 1.578-1.348 1.224-1.286 2.57 2.276 1.17 1.257-3.738 3.534-2.891-.05 1.648-1.444 1.453-.642 3.213.976-.31.7-1.87 1.285-2.57 1.4.463.016 1.914-.321 2.57-.28 1.244 1.401.525.963 1.928-2.704-.401-5.772-.44-6.747-2.57-.845.777-2.367.777-3.212 0 .074-1.105 1.533-.824 1.607-1.928-1.691-.363-2.343 1.603-4.177 1.927-3.405.603-7.21-2.086-10.603-2.249-1.279-.208-1.292.851-2.57.643-2.123-3.033 2.2-4.461 1.926-7.711 1.435-.707 2.87-1.414 3.213-3.213-2.765-.554-4.057-2.584-6.104-3.856.476-1.785 3.584-5.15 4.818-2.249zm16.386 17.671c1.096.242 1.254-1.227.322-1.285-.102.434-.458.614-.322 1.285zM303.8 208.22c1.317.01 1.675 2.187 1.286 2.89-.44.28-2.428.05-3.213-.32.183 1.638 2.568 1.073 2.57 2.891-.948.788-1.301-1.078-2.25-1.285-4.104-.463-5.957 1.324-7.068 3.856 1.906 1.038 5.875-2.227 9.318-.643-.694 1.218-2.342-.054-3.856.643-1.155 1.13 2.063 1.176.964 2.249-2.13-2.263-4.917.632-7.39-.322.335-4.056 2.166-6.615 6.105-7.068 1.115-1.028 2.535-1.75 3.534-2.892z"/></g></svg>