<svg xmlns="http://www.w3.org/2000/svg" xmlns:xlink="http://www.w3.org/1999/xlink" width="800" height="450"><defs><linearGradient id="c"><stop offset="0" stop-color="#e6e6e6"/><stop offset="1" stop-color="#e6e6e6" stop-opacity="0"/></linearGradient><linearGradient id="b"><stop offset="0" stop-color="#b3b3b3"/><stop offset="1" stop-color="#b3b3b3" stop-opacity="0"/></linearGradient><linearGradient id="a"><stop offset="0" stop-color="#b3b3b3"/><stop offset="1" stop-color="#b3b3b3" stop-opacity="0"/></linearGradient><linearGradient xlink:href="#a" id="e" x1="498.892" y1="650.733" x2="499.249" y2="689.201" gradientUnits="userSpaceOnUse"/><linearGradient xlink:href="#b" id="f" x1="673.448" y1="650.733" x2="673.448" y2="689.073" gradientUnits="userSpaceOnUse"/><linearGradient xlink:href="#c" id="d" x1="498.892" y1="650.733" x2="499.249" y2="689.201" gradientUnits="userSpaceOnUse"/><marker orient="auto" refY="0" refX="0" id="g" overflow="visible"><path d="M-5.231-2.42L1.324-.01-5.23 2.401c1.047-1.423 1.041-3.37 0-4.821z" fill="#666" fill-rule="evenodd" stroke="#666" stroke-width=".375" stroke-linejoin="round"/></marker></defs><text style="line-height:1.25;text-align:end" x="388.045" y="345.333" font-weight="400" font-size="16" font-family="sans-serif" letter-spacing="0" word-spacing="0" text-anchor="end" fill="#666" transform="translate(0 -288.25)"><tspan x="388.045" y="345.333" style="text-align:end" font-weight="700" font-size="24" font-family="monospace">person</tspan></text><path fill="#e6e6e6" stroke="#b3b3b3" stroke-width="3" stroke-linecap="round" d="M39.274 75.575H213.83v43.876H39.274z"/><text y="393.716" x="55.743" style="line-height:1.25" font-weight="400" font-size="16" font-family="sans-serif" letter-spacing="0" word-spacing="0" fill="#666" transform="translate(0 -288.25)"><tspan y="393.716" x="55.743" font-size="21.333" font-family="monospace">firstName</tspan></text><path fill="#e6e6e6" stroke="#b3b3b3" stroke-width="3" stroke-linecap="round" d="M39.274 119.451H213.83v43.876H39.274z"/><text style="line-height:1.25" x="55.743" y="437.592" font-weight="400" font-size="16" font-family="sans-serif" letter-spacing="0" word-spacing="0" fill="#666" transform="translate(0 -288.25)"><tspan x="55.743" y="437.592" font-size="21.333" font-family="monospace">lastName</tspan></text><path fill="#e6e6e6" stroke="#b3b3b3" stroke-width="3" stroke-linecap="round" d="M39.274 163.327H213.83v43.876H39.274z"/><text y="481.468" x="55.743" style="line-height:1.25" font-weight="400" font-size="16" font-family="sans-serif" letter-spacing="0" word-spacing="0" fill="#666" transform="translate(0 -288.25)"><tspan y="481.468" x="55.743" font-size="21.333" font-family="monospace">getFullName</tspan></text><path fill="#e6e6e6" stroke="#b3b3b3" stroke-width="3" stroke-linecap="round" d="M39.274 207.203H213.83v43.876H39.274z"/><text style="line-height:1.25" x="55.743" y="525.344" font-weight="400" font-size="16" font-family="sans-serif" letter-spacing="0" word-spacing="0" fill="#666" transform="translate(0 -288.25)"><tspan x="55.743" y="525.344" font-size="21.333" font-family="monospace">toString</tspan></text><path fill="none" stroke="#b3b3b3" stroke-width="3" stroke-linecap="round" d="M213.83 75.575h174.556v43.876H213.83zm0 43.876h174.556v43.876H213.83zm0 43.876h174.556v43.876H213.83zm0 43.876h174.556v43.876H213.83z"/><text style="line-height:1.25" x="230.299" y="393.716" font-weight="400" font-size="16" font-family="sans-serif" letter-spacing="0" word-spacing="0" fill="gray" transform="translate(0 -288.25)"><tspan x="230.299" y="393.716" font-size="21.333" font-family="monospace">&quot;Pedro&quot;</tspan></text><text y="437.592" x="230.299" style="line-height:1.25" font-weight="400" font-size="16" font-family="sans-serif" letter-spacing="0" word-spacing="0" fill="gray" transform="translate(0 -288.25)"><tspan y="437.592" x="230.299" font-size="21.333" font-family="monospace">&quot;Pipoca&quot;</tspan></text><text style="line-height:1.25" x="230.299" y="481.468" font-weight="400" font-size="16" font-family="sans-serif" letter-spacing="0" word-spacing="0" fill="gray" transform="translate(0 -288.25)"><tspan x="230.299" y="481.468" font-size="21.333" font-family="monospace">function…</tspan></text><text y="525.344" x="230.299" style="line-height:1.25" font-weight="400" font-size="16" font-family="sans-serif" letter-spacing="0" word-spacing="0" fill="gray" transform="translate(0 -288.25)"><tspan y="525.344" x="230.299" font-size="21.333" font-family="monospace">function…</tspan></text><path fill="#e6e6e6" stroke="#b3b3b3" stroke-width="3" stroke-linecap="round" d="M411.614 317.107H586.17v43.876H411.614z"/><text y="635.248" x="428.083" style="line-height:1.25" font-weight="400" font-size="16" font-family="sans-serif" letter-spacing="0" word-spacing="0" fill="#666" transform="translate(0 -288.25)"><tspan y="635.248" x="428.083" font-size="21.333" font-family="monospace">toString</tspan></text><path fill="none" stroke="#b3b3b3" stroke-width="3" stroke-linecap="round" d="M586.17 317.107h174.556v43.876H586.17z"/><text style="line-height:1.25" x="602.639" y="635.248" font-weight="400" font-size="16" font-family="sans-serif" letter-spacing="0" word-spacing="0" fill="gray" transform="translate(0 -288.25)"><tspan x="602.639" y="635.248" font-size="21.333" font-family="monospace">function…</tspan></text><path fill="url(#d)" stroke="url(#e)" stroke-width="3" stroke-linecap="round" d="M411.614 649.233H586.17v43.876H411.614z" transform="translate(0 -288.25)"/><text style="line-height:1.25" x="494.431" y="685.469" font-weight="400" font-size="27.798" font-family="sans-serif" letter-spacing="0" word-spacing="0" fill="#666" transform="translate(0 -288.25)"><tspan x="494.431" y="685.469" font-size="37.333" font-family="monospace">⋮</tspan></text><path fill="none" stroke="url(#f)" stroke-width="3" stroke-linecap="round" d="M586.17 649.233h174.556v43.876H586.17z" transform="translate(0 -288.25)"/><text y="685.469" x="668.987" style="line-height:1.25" font-weight="400" font-size="27.798" font-family="sans-serif" letter-spacing="0" word-spacing="0" fill="#666" transform="translate(0 -288.25)"><tspan y="685.469" x="668.987" font-size="37.333" font-family="monospace">⋮</tspan></text><text y="588.864" x="760.479" style="line-height:1.25;text-align:end" font-weight="400" font-size="16" font-family="sans-serif" letter-spacing="0" word-spacing="0" text-anchor="end" fill="#666" transform="translate(0 -288.25)"><tspan style="text-align:end" y="588.864" x="760.479" font-weight="700" font-size="24" font-family="monospace">Object.prototype</tspan></text><path d="M388.386 451.577s142.76-14.929 88.626 152.857" fill="none" stroke="#666" stroke-width="3" stroke-dasharray="3,3" marker-end="url(#g)" transform="translate(0 -288.25)"/><text style="line-height:1.25" x="488.831" y="475.88" font-weight="400" font-size="21.333" font-family="sans-serif" letter-spacing="0" word-spacing="0" fill="#666" transform="translate(0 -288.25)"><tspan x="488.831" y="475.88" font-family="monospace">protótipo</tspan></text></svg>