<svg xmlns="http://www.w3.org/2000/svg" width="800" height="400" viewBox="0 0 211.67 105.83"><defs/><defs><path id="a" d="M9.09 16.18h38.33v25.48H9.09z"/></defs><path fill="#333" fill-opacity=".06" fill-rule="evenodd" stroke="#ccc" stroke-width=".53" d="M55.6 19.98h101.3V84.4H55.6z"/><path fill="#333" fill-opacity=".24" fill-rule="evenodd" stroke="#999" stroke-width=".53" d="M61.52 26.5h89.46V77.9H61.52z"/><path fill="#333" fill-opacity=".24" fill-rule="evenodd" stroke="#666" stroke-width=".53" d="M67.3 32.49h77.9V71.9H67.3z"/><g fill="gray" stroke-width=".26" style="line-height:1.25" aria-label="&lt;html&gt;, &lt;body&gt;..." font-family="sans-serif" font-size="4.23" font-weight="400"><path d="M58.77 24.03l-1.9-.9v-.52l1.9-.9v.5l-1.22.56-.17.07-.13.03.13.04q.09.02.17.06l1.22.57zM59.42 24.27v-3.1h.53v.77l-.01.45q.04-.23.2-.36.17-.13.43-.13.34 0 .54.23t.2.61v1.53h-.52V22.8q0-.22-.11-.33-.11-.11-.3-.11-.2 0-.32.11-.1.12-.1.34v1.46zM63.16 24.27q-.33 0-.52-.19-.2-.18-.2-.5v-1.16h-.62v-.48h.63v-.66h.53v.66h.9v.48h-.9v1.15q0 .22.22.22h.63v.48zM64.4 24.27v-2.33h.43v.31h.02q.02-.16.12-.25.1-.1.26-.1.15 0 .25.1.1.09.14.25h.01q.03-.16.13-.25.11-.1.27-.1.21 0 .34.16.13.17.13.44v1.77h-.47v-1.74q0-.24-.2-.24t-.2.24v1.74h-.37v-1.74q0-.24-.2-.24t-.2.24v1.74zM68.36 24.27q-.34 0-.56-.2-.2-.22-.2-.55v-1.86h-.77v-.48h1.3v2.34q0 .12.07.2.07.07.2.07h.68v.48zM69.58 24.03v-.48l1.23-.57.16-.07.13-.03-.13-.03-.16-.07-1.23-.57v-.5l1.9.9v.53z" font-weight="700"/><path style="-inkscape-font-specification:'JetBrains Mono'" d="M72.5 24.95l.33-1.32h.55l-.55 1.32z" font-family="JetBrains Mono"/><path d="M79.1 24.03l-1.9-.9v-.52l1.9-.9v.5l-1.23.56-.17.07-.13.03.13.04q.09.02.17.06l1.22.57zM80.89 24.31q-.26 0-.43-.13-.16-.12-.2-.36v.45h-.52v-3.1h.53v.66l-.02.56h.02q.04-.23.2-.36.16-.13.42-.13.35 0 .56.24.21.24.21.65v.63q0 .41-.21.65-.21.24-.56.24zm-.2-.46q.21 0 .33-.11.11-.12.11-.34v-.59q0-.22-.11-.34-.12-.11-.32-.11t-.32.12q-.1.12-.1.33v.59q0 .21.1.34.12.11.32.11zM83.23 24.3q-.45 0-.71-.24-.27-.25-.27-.67v-.57q0-.42.27-.67.26-.25.7-.25.46 0 .72.25.26.25.26.66v.58q0 .42-.26.67-.26.25-.71.25zm0-.45q.2 0 .32-.12t.12-.34v-.57q0-.22-.12-.34-.11-.12-.32-.12-.22 0-.33.12-.12.12-.12.34v.57q0 .22.12.34.11.12.33.12zM85.57 24.31q-.35 0-.57-.24-.2-.24-.2-.65v-.63q0-.4.2-.65.22-.24.57-.24.26 0 .42.13.16.13.2.36v-1.21h.52v3.09h-.52v-.45q-.04.24-.2.36-.16.13-.42.13zm.18-.46q.2 0 .32-.11.11-.13.11-.34v-.59q0-.21-.11-.33-.11-.12-.32-.12-.2 0-.31.11-.12.12-.12.34v.59q0 .22.12.34.11.11.31.11zM87.74 25.03l.32-.89-.86-2.2h.58l.43 1.2.07.23.05.22.05-.22.07-.24.4-1.19h.57l-1.13 3.1zM89.9 24.03v-.48l1.23-.57.16-.07.13-.03-.13-.03-.16-.07-1.23-.57v-.5l1.9.9v.53z" font-weight="700"/><path style="-inkscape-font-specification:'JetBrains Mono'" d="M93.82 24.31q-.16 0-.26-.1-.1-.08-.1-.24 0-.17.1-.26.1-.1.26-.1t.26.1q.09.1.09.26t-.1.25q-.1.1-.25.1zm2.11 0q-.16 0-.25-.1-.1-.08-.1-.24 0-.17.1-.26.09-.1.25-.1t.26.1q.1.1.1.26t-.1.25q-.1.1-.26.1zm2.11 0q-.16 0-.26-.1-.09-.08-.09-.24 0-.17.1-.26.1-.1.25-.1.16 0 .26.1t.1.26q0 .16-.1.25-.1.1-.26.1z" font-family="JetBrains Mono"/></g><g fill="#666" stroke-width=".26" style="line-height:1.25" aria-label="&lt;div&gt;, ouvinte de &quot;click&quot;" font-family="sans-serif" font-size="4.23" font-weight="400"><path d="M64.92 30.71l-1.9-.89v-.53l1.9-.9v.5l-1.23.56-.17.07-.12.03.13.04.16.06 1.23.57zM66.31 31q-.35 0-.56-.24-.21-.25-.21-.66v-.63q0-.4.21-.65.21-.24.56-.24.26 0 .42.13.16.13.2.36h.02l-.02-.56v-.65h.53v3.1h-.52v-.45q-.04.23-.2.36-.17.12-.43.12zm.2-.46q.2 0 .3-.12.12-.13.12-.34v-.59q0-.21-.12-.33-.1-.12-.3-.12-.21 0-.33.12-.11.11-.11.33v.59q0 .22.11.34.12.12.32.12zM68.1 30.95v-.48h.82V29.1h-.7v-.48h1.2v1.85h.73v.48zm1.03-2.72q-.16 0-.25-.08-.1-.08-.1-.22t.1-.22q.09-.09.25-.09t.25.09q.1.08.1.22t-.1.22q-.09.08-.25.08zM71.25 30.95l-.76-2.33h.55l.44 1.42.07.26.05.21.05-.21.07-.26.44-1.42h.54l-.76 2.33zM73.19 30.71v-.48l1.22-.57.17-.06.13-.04-.13-.03-.17-.06-1.22-.58v-.5l1.9.9v.53zM76.04 31.63l.34-1.32h.67l-.55 1.32z" font-weight="700"/><path style="-inkscape-font-specification:'JetBrains Mono'" d="M81.75 30.98q-.42 0-.67-.23-.24-.24-.24-.65v-.62q0-.42.24-.65.25-.24.67-.24.43 0 .67.24.24.23.24.64v.63q0 .4-.24.65-.24.23-.67.23zm0-.33q.25 0 .4-.14.13-.14.13-.41v-.62q0-.27-.14-.41-.14-.14-.39-.14-.24 0-.39.14-.14.14-.14.4v.63q0 .27.14.4.15.15.4.15zM84.29 31q-.4 0-.64-.24-.25-.25-.25-.66v-1.48h.39v1.48q0 .27.13.41.14.15.37.15.24 0 .37-.15.14-.14.14-.4v-1.49h.38v1.48q0 .41-.24.66-.25.23-.65.23zM86.58 30.95l-.78-2.33h.4l.51 1.57.08.27.05.2.06-.2.08-.27.5-1.57h.4l-.79 2.33zM88.46 30.95v-.35h.83v-1.63h-.72v-.35h1.1v1.98h.78v.35zm.98-2.75q-.14 0-.22-.07-.08-.07-.08-.2 0-.12.08-.2.08-.07.22-.07t.22.08q.08.07.08.2 0 .12-.08.2-.08.06-.22.06zM91.03 30.95v-2.33h.38v.45q.04-.24.2-.36.16-.13.43-.13.35 0 .56.22.2.21.2.58v1.57h-.38v-1.52q0-.25-.13-.38-.14-.14-.36-.14-.24 0-.38.14-.14.15-.14.42v1.48zM94.7 30.95q-.3 0-.46-.16-.17-.16-.17-.45v-1.37h-.65v-.35h.65v-.65h.38v.65h.93v.35h-.93v1.37q0 .26.26.26h.63v.35zM97 31q-.28 0-.49-.12-.2-.1-.32-.3-.1-.2-.1-.48v-.63q0-.27.1-.47.12-.2.32-.31.2-.11.48-.11.28 0 .48.11.2.11.32.3.11.2.11.48v.41h-1.44v.22q0 .28.14.43.14.14.4.14.21 0 .35-.07.13-.09.16-.24h.39q-.04.29-.3.46-.24.17-.6.17zm-.54-1.4h1.07v-.13q0-.28-.14-.42-.13-.15-.4-.15-.25 0-.4.15-.13.14-.13.42zM101.94 31q-.35 0-.57-.24-.2-.23-.2-.63v-.68q0-.4.2-.64.22-.23.57-.23.26 0 .43.13.17.13.2.36h.01v-1.21h.37v3.1h-.38v-.45q-.03.23-.2.36-.17.12-.43.12zm.12-.34q.24 0 .38-.15.13-.14.13-.4v-.64q0-.26-.13-.41-.14-.15-.38-.15t-.38.14q-.14.15-.14.42v.63q0 .28.14.42.14.14.38.14zM104.61 31q-.27 0-.48-.12-.2-.1-.32-.3-.1-.2-.1-.48v-.63q0-.27.1-.47.12-.2.32-.31.2-.11.48-.11.28 0 .48.11.2.11.32.3.11.2.11.48v.41h-1.44v.22q0 .28.14.43.14.14.4.14.21 0 .35-.07.13-.09.16-.24h.39q-.04.29-.3.46-.24.17-.6.17zm-.53-1.4h1.07v-.13q0-.28-.14-.42-.13-.15-.4-.15-.25 0-.4.15-.13.14-.13.42zM109.97 29.13l-.05-.89v-.38h.4v.38l-.04.9zm-.86 0l-.05-.89v-.38h.4v.38l-.04.9zM112.25 31q-.42 0-.68-.24-.25-.24-.25-.66v-.63q0-.42.25-.65.26-.24.68-.24.4 0 .65.22.24.21.26.58h-.38q-.02-.22-.16-.34-.13-.12-.37-.12-.25 0-.4.14-.15.14-.15.4v.64q0 .27.15.41.15.14.4.14.24 0 .37-.12.14-.12.16-.34h.38q-.02.37-.26.59-.25.21-.65.21zM115.11 30.95q-.3 0-.5-.18-.18-.18-.18-.48v-2.08h-.8v-.35h1.19v2.43q0 .15.08.23.08.08.21.08h.72v.35zM116.4 30.95v-.35h.83v-1.63h-.72v-.35h1.1v1.98h.78v.35zm.98-2.75q-.14 0-.22-.07-.08-.07-.08-.2 0-.12.08-.2.08-.07.22-.07t.22.08q.08.07.08.2 0 .12-.08.2-.08.06-.22.06zM119.87 31q-.42 0-.68-.24-.25-.24-.25-.66v-.63q0-.42.25-.65.26-.24.68-.24.4 0 .65.22.24.21.26.58h-.38q-.02-.22-.16-.34-.13-.12-.37-.12-.25 0-.4.14-.15.14-.15.4v.64q0 .27.15.41.15.14.4.14.24 0 .37-.12.14-.12.16-.34h.38q-.02.37-.26.59-.25.21-.65.21zM121.53 30.95v-3.09h.38v1.72h.45l.67-.96h.44l-.78 1.11.8 1.22h-.45l-.68-1.04h-.45v1.04zM125.2 29.13l-.04-.89v-.38h.4v.38l-.04.9zm-.85 0l-.05-.89v-.38h.4v.38l-.04.9z" font-family="JetBrains Mono"/></g><g fill="#4d4d4d" stroke-width=".26" style="line-height:1.25" aria-label="&lt;video&gt;, ouvinte de &quot;click&quot;" font-family="sans-serif" font-size="4.23" font-weight="400"><path d="M72 37.4l-1.9-.9v-.53l1.9-.89v.49l-1.22.56-.17.07-.13.04q.05 0 .13.03l.17.06 1.22.57zM73.26 37.63l-.77-2.33h.55l.45 1.42.06.26.05.22.06-.22.07-.26.43-1.42h.54l-.76 2.33zM75.19 37.63v-.48H76v-1.37h-.7v-.48h1.2v1.85h.73v.48zm1.02-2.72q-.16 0-.25-.08-.1-.08-.1-.22t.1-.22q.1-.08.25-.08.16 0 .26.08.09.08.09.22t-.1.22q-.09.08-.25.08zM78.48 37.68q-.35 0-.57-.24-.2-.24-.2-.65v-.63q0-.42.2-.66.22-.24.57-.24.26 0 .42.13.16.13.2.36v-1.21h.52v3.1h-.52v-.45q-.04.23-.2.36-.16.13-.42.13zm.18-.46q.2 0 .32-.12.11-.12.11-.34v-.58q0-.22-.11-.34-.11-.12-.32-.12-.2 0-.31.12-.12.12-.12.34v.58q0 .22.12.34.11.12.31.12zM81.22 37.68q-.3 0-.52-.12-.22-.11-.34-.32-.12-.2-.12-.48v-.58q0-.28.12-.48.12-.2.34-.32.22-.12.52-.12.3 0 .5.12.23.11.35.32.12.2.12.48v.42h-1.44v.16q0 .5.47.5.37 0 .43-.25h.52q-.06.3-.32.49-.26.18-.63.18zm-.47-1.5v.09h.93v-.1q0-.24-.12-.37-.11-.13-.34-.13-.23 0-.35.13-.12.14-.12.38zM83.76 37.67q-.45 0-.72-.24-.26-.25-.26-.67v-.58q0-.42.26-.66.27-.25.72-.25.44 0 .7.25.27.24.27.66v.58q0 .42-.26.67-.27.24-.71.24zm0-.46q.2 0 .32-.11.12-.12.12-.34v-.58q0-.22-.12-.33-.11-.12-.32-.12-.22 0-.33.12-.12.11-.12.33v.58q0 .22.12.34.11.1.33.1zM85.35 37.4v-.5l1.23-.56.16-.06.13-.04-.13-.03-.16-.06-1.23-.57v-.5l1.9.9v.52z" font-weight="700"/><path style="-inkscape-font-specification:'JetBrains Mono'" d="M88.26 38.31l.34-1.32h.55l-.55 1.32zM93.92 37.67q-.43 0-.67-.24-.24-.24-.24-.65v-.62q0-.42.24-.65.24-.24.67-.24.42 0 .66.24.25.23.25.65v.62q0 .4-.25.65-.24.24-.66.24zm0-.34q.25 0 .39-.14t.14-.41v-.62q0-.27-.14-.41-.14-.14-.4-.14-.24 0-.38.14t-.14.41v.62q0 .27.14.4.14.15.39.15zM96.45 37.68q-.4 0-.64-.24t-.24-.65V35.3h.38v1.49q0 .26.13.4.14.15.37.15.24 0 .37-.14.14-.15.14-.41V35.3h.39v1.49q0 .4-.25.65-.25.24-.65.24zM98.74 37.63l-.78-2.33h.4l.52 1.57.07.27.05.2.06-.2.08-.27.5-1.57h.4l-.79 2.33zM100.63 37.63v-.34h.82v-1.64h-.72v-.35h1.1v1.99h.79v.34zm.97-2.74q-.14 0-.22-.08-.08-.07-.08-.2 0-.12.08-.19.08-.08.22-.08t.22.08q.08.07.08.2 0 .12-.08.2-.08.07-.22.07zM103.2 37.63V35.3h.38v.45q.03-.23.2-.36.15-.13.42-.13.35 0 .56.22.2.21.2.59v1.56h-.38v-1.52q0-.25-.13-.38-.13-.14-.36-.14-.24 0-.38.15-.13.14-.13.41v1.48zM106.87 37.63q-.3 0-.47-.16-.16-.16-.16-.45v-1.37h-.66v-.35h.66v-.65h.38v.65h.93v.35h-.93v1.37q0 .27.25.27h.64v.34zM109.16 37.68q-.28 0-.49-.11-.2-.12-.31-.31-.11-.2-.11-.47v-.64q0-.27.1-.47.12-.2.32-.3.21-.12.49-.12.27 0 .47.11.21.11.32.31.12.2.12.47v.41h-1.45v.23q0 .27.14.42.14.14.4.14.22 0 .35-.07.14-.08.17-.24h.38q-.04.3-.29.47-.25.17-.61.17zm-.54-1.4h1.07v-.13q0-.27-.14-.42-.13-.15-.4-.15-.25 0-.4.15-.13.15-.13.42zM114.1 37.68q-.35 0-.56-.24-.21-.23-.21-.63v-.68q0-.4.2-.64.22-.23.57-.23.26 0 .43.13.17.13.2.36h.01v-1.21h.38v3.1h-.38v-.45q-.04.23-.2.36-.18.13-.44.13zm.13-.34q.23 0 .37-.14.14-.15.14-.41v-.64q0-.26-.14-.41-.14-.15-.37-.15-.24 0-.38.15-.14.14-.14.41v.64q0 .27.14.41.14.14.38.14zM116.78 37.68q-.28 0-.49-.11-.2-.12-.31-.31-.11-.2-.11-.47v-.64q0-.27.1-.47.12-.2.32-.3.21-.12.49-.12.27 0 .47.11.21.11.32.31.12.2.12.47v.41h-1.45v.23q0 .27.14.42.14.14.4.14.22 0 .35-.07.14-.08.17-.24h.38q-.04.3-.29.47-.25.17-.61.17zm-.54-1.4h1.07v-.13q0-.27-.14-.42-.13-.15-.4-.15-.25 0-.4.15-.13.15-.13.42zM122.13 35.81l-.05-.89v-.38h.41v.38l-.05.9zm-.86 0l-.05-.89v-.38h.41v.38l-.04.9zM124.41 37.68q-.42 0-.67-.24-.25-.24-.25-.65v-.64q0-.41.25-.65.25-.24.67-.24.4 0 .65.22.25.21.26.59h-.38q-.01-.23-.15-.35-.14-.12-.38-.12-.25 0-.4.14-.14.14-.14.4v.65q0 .26.15.4.14.15.4.15.23 0 .37-.13.14-.12.15-.34h.38q-.01.37-.26.59-.24.22-.65.22zM127.27 37.63q-.3 0-.5-.18-.17-.18-.17-.47v-2.09h-.8v-.35h1.18v2.44q0 .14.08.23.08.08.21.08h.72v.34zM128.57 37.63v-.34h.82v-1.64h-.72v-.35h1.1v1.99h.79v.34zm.97-2.74q-.14 0-.22-.08-.08-.07-.08-.2 0-.12.08-.19.08-.08.22-.08t.22.08q.08.07.08.2 0 .12-.08.2-.08.07-.22.07zM132.03 37.68q-.42 0-.67-.24-.25-.24-.25-.65v-.64q0-.41.25-.65.25-.24.67-.24.4 0 .65.22.25.21.26.59h-.38q-.01-.23-.15-.35-.14-.12-.38-.12-.25 0-.4.14-.14.14-.14.4v.65q0 .26.14.4.15.15.4.15.24 0 .38-.13.14-.12.15-.34h.38q-.01.37-.26.59-.24.22-.65.22zM133.69 37.63v-3.09h.38v1.73h.45l.68-.97h.43l-.78 1.11.8 1.22h-.45l-.68-1.03h-.45v1.03zM137.37 35.81l-.05-.89v-.38h.41v.38l-.05.9zm-.86 0l-.05-.89v-.38h.41v.38l-.04.9z" font-family="JetBrains Mono"/></g><g fill="#4d4d4d" stroke-width=".26" style="line-height:1.25" aria-label="Captura" font-family="JetBrains Mono" font-size="4.23" font-weight="700"><path style="-inkscape-font-specification:'JetBrains Mono Bold'" d="M17.95 13.82q-.3 0-.52-.11-.22-.12-.34-.32-.12-.2-.12-.49v-1.34q0-.28.12-.48.12-.21.34-.32.22-.12.52-.12.3 0 .52.12.22.1.34.32.13.2.13.48h-.54q0-.22-.12-.33-.11-.12-.33-.12-.21 0-.33.11-.12.12-.12.33v1.35q0 .22.12.34.12.11.33.11.22 0 .33-.11.12-.12.12-.34h.54q0 .28-.13.5-.12.2-.34.3-.22.12-.52.12zM20.22 13.82q-.36 0-.57-.19-.2-.19-.2-.51 0-.35.22-.53.24-.19.65-.19h.58v-.2q0-.17-.1-.26-.12-.1-.31-.1-.17 0-.29.08-.11.07-.13.2h-.52q.04-.32.3-.52t.66-.2q.42 0 .67.22.25.21.25.58v1.58h-.51v-.41h-.01q-.04.2-.23.33-.18.12-.46.12zm.17-.4q.23 0 .37-.11.14-.12.14-.3v-.28h-.57q-.16 0-.26.09-.1.1-.1.25 0 .16.11.26.12.1.31.1zM22.07 14.54v-3.1h.52v.45q.05-.23.2-.36.17-.12.43-.12.35 0 .56.24.21.24.21.64v.64q0 .4-.21.65-.21.24-.56.24-.26 0-.42-.13-.16-.13-.2-.36h-.01l.01.56v.65zm.96-1.18q.2 0 .32-.12.11-.12.11-.34v-.58q0-.22-.11-.34-.12-.12-.32-.12t-.31.13q-.12.11-.12.33v.58q0 .22.12.34.11.12.31.12zM25.81 13.78q-.33 0-.52-.19t-.19-.51v-1.15h-.63v-.48h.63v-.66h.53v.66h.9v.48h-.9v1.15q0 .22.22.22h.63v.48zM28.1 13.82q-.45 0-.7-.25-.25-.25-.25-.67v-1.45h.52v1.44q0 .23.11.35.11.12.32.12.2 0 .3-.12.12-.12.12-.35v-1.44h.53v1.45q0 .42-.26.67-.26.25-.7.25zM29.77 13.78v-2.33h.5v.44q.1-.48.64-.48.38 0 .6.23.2.23.2.64v.17h-.55v-.13q0-.22-.12-.35-.11-.12-.31-.12t-.32.12q-.12.13-.12.35v1.46zM32.92 13.82q-.36 0-.57-.19-.2-.19-.2-.51 0-.35.22-.53.24-.19.65-.19h.58v-.2q0-.17-.1-.26-.12-.1-.31-.1-.17 0-.29.08-.11.07-.13.2h-.52q.04-.32.3-.52.25-.2.66-.2.42 0 .67.22.25.21.25.58v1.58h-.51v-.41h-.01q-.04.2-.23.33-.18.12-.46.12zm.17-.4q.23 0 .37-.11.14-.12.14-.3v-.28h-.57q-.16 0-.26.09-.1.1-.1.25 0 .16.11.26.12.1.31.1z"/></g><path fill="#333" fill-opacity=".06" fill-rule="evenodd" stroke="#ccc" stroke-width=".53" d="M3.55 20.1h44v17h-44z"/><g fill="gray" stroke-width=".26" style="line-height:1.25" aria-label="Primeiramente todos os antecessores são verificados" font-family="JetBrains Mono" font-size="3.53" font-weight="400" text-anchor="middle"><path style="-inkscape-font-specification:'JetBrains Mono';text-align:center" d="M5.75 25.4v-2.57h.83q.36 0 .57.2.22.21.22.56 0 .34-.22.55-.21.2-.57.2h-.51v1.06zm.32-1.34h.5q.22 0 .34-.13.13-.13.13-.34 0-.22-.13-.35-.12-.13-.33-.13h-.51zM7.93 25.4v-1.94h.31v.35q.1-.38.52-.38.3 0 .48.2.19.18.19.51v.12H9.1v-.1q0-.22-.11-.34-.11-.12-.32-.12-.2 0-.32.12-.1.12-.1.35v1.23zM9.96 25.4v-.29h.69v-1.36h-.6v-.29h.91v1.65h.66v.3zm.81-2.29q-.12 0-.18-.06-.07-.06-.07-.16t.07-.16q.06-.07.18-.07t.18.07q.07.06.07.16t-.07.16q-.06.06-.18.06zM12 25.4v-1.94h.29v.24h.02q.02-.13.1-.2t.21-.07q.25 0 .32.27h.01q.02-.13.1-.2.1-.07.22-.07.19 0 .29.14.1.13.1.36v1.47h-.3v-1.47q0-.12-.05-.2-.05-.06-.14-.06-.1 0-.16.07-.05.06-.05.18v1.48h-.25v-1.47q0-.13-.06-.2-.05-.06-.15-.06-.1 0-.15.07-.05.06-.05.18v1.48zM14.95 25.44q-.23 0-.4-.1-.17-.08-.27-.25-.09-.17-.09-.4v-.52q0-.23.1-.4.09-.16.26-.25.17-.1.4-.1t.4.1q.17.1.26.26.1.16.1.39v.34h-1.2v.19q0 .23.1.35.13.12.34.12.18 0 .3-.06.1-.07.13-.2h.32q-.03.24-.24.39-.2.14-.51.14zm-.45-1.17h.9v-.1q0-.23-.12-.35-.11-.13-.33-.13-.21 0-.33.13-.12.12-.12.35zM16.3 25.4v-.29h.7v-1.36h-.6v-.29h.91v1.65h.66v.3zm.82-2.29q-.12 0-.18-.06-.07-.06-.07-.16t.07-.16q.06-.07.18-.07t.18.07q.07.06.07.16t-.07.16q-.06.06-.18.06zM18.52 25.4v-1.94h.3v.35q.1-.38.52-.38.3 0 .49.2.18.18.18.51v.12h-.32v-.1q0-.22-.11-.34-.11-.12-.32-.12-.2 0-.31.12-.12.12-.12.35v1.23zM21.13 25.44q-.3 0-.48-.16t-.18-.42q0-.28.18-.43.17-.16.47-.16h.6v-.19q0-.18-.1-.27-.11-.1-.3-.1-.18 0-.3.07-.1.07-.13.2h-.32q.03-.26.24-.4.2-.15.5-.15.34 0 .54.17t.2.47v1.33h-.32v-.37q-.02.19-.19.3-.16.1-.4.1zm.08-.25q.22 0 .37-.11.14-.12.14-.3v-.27h-.59q-.16 0-.25.09-.1.09-.1.24 0 .16.12.26.11.09.3.09zM22.6 25.4v-1.94h.27v.24h.02q.02-.13.1-.2.09-.07.22-.07.25 0 .31.27h.02q.02-.13.1-.2.1-.07.22-.07.18 0 .28.14.1.13.1.36v1.47h-.29v-1.47q0-.12-.05-.2-.05-.06-.15-.06-.1 0-.15.07-.06.06-.06.18v1.48h-.25v-1.47q0-.13-.06-.2-.05-.06-.15-.06-.1 0-.15.07-.05.06-.05.18v1.48zM25.53 25.44q-.23 0-.4-.1-.17-.08-.26-.25-.1-.17-.1-.4v-.52q0-.23.1-.4.1-.16.26-.25.17-.1.4-.1t.4.1q.18.1.27.26.1.16.1.39v.34h-1.21v.19q0 .23.11.35.12.12.33.12.19 0 .3-.06.11-.07.14-.2h.31q-.03.24-.23.39-.21.14-.52.14zm-.44-1.17h.9v-.1q0-.23-.12-.35-.12-.13-.34-.13-.21 0-.33.13-.11.12-.11.35zM26.92 25.4v-1.94h.31v.37q.03-.19.17-.3.13-.1.35-.1.3 0 .47.18.17.18.17.49v1.3h-.32v-1.27q0-.2-.1-.31-.12-.12-.3-.12-.2 0-.32.12t-.12.35v1.23zM29.98 25.4q-.25 0-.4-.13-.13-.13-.13-.38v-1.14h-.55v-.29h.55v-.54h.32v.54h.77v.3h-.77v1.13q0 .22.2.22h.54v.3zM31.88 25.44q-.23 0-.4-.1-.17-.08-.26-.25-.1-.17-.1-.4v-.52q0-.23.1-.4.1-.16.26-.25.17-.1.4-.1t.4.1q.18.1.27.26.1.16.1.39v.34h-1.21v.19q0 .23.11.35.12.12.33.12.19 0 .3-.06.11-.07.14-.2h.31q-.03.24-.23.39-.21.14-.52.14zm-.44-1.17h.9v-.1q0-.23-.12-.35-.12-.13-.34-.13-.21 0-.33.13-.11.12-.11.35zM36.33 25.4q-.25 0-.4-.13-.13-.13-.13-.38v-1.14h-.55v-.29h.55v-.54h.32v.54h.77v.3h-.77v1.13q0 .22.2.22h.54v.3zM38.23 25.43q-.35 0-.55-.2-.2-.2-.2-.54v-.51q0-.35.2-.55.2-.2.55-.2.36 0 .56.2.2.2.2.54v.52q0 .34-.2.54t-.56.2zm0-.28q.21 0 .33-.12.11-.11.11-.34v-.51q0-.23-.11-.35-.12-.11-.33-.11-.2 0-.32.11-.12.12-.12.35v.51q0 .23.12.34.12.12.32.12zM40.24 25.44q-.3 0-.47-.2-.18-.19-.18-.52v-.57q0-.33.18-.53.17-.2.47-.2.22 0 .36.12.14.1.16.3h.01v-1.01h.31v2.57h-.31v-.37q-.03.2-.17.3-.14.1-.36.1zm.1-.28q.2 0 .31-.12.12-.12.12-.34v-.53q0-.22-.12-.34-.1-.13-.3-.13-.2 0-.32.12t-.12.35v.53q0 .22.12.34.11.12.31.12zM42.47 25.43q-.36 0-.56-.2-.2-.2-.2-.54v-.51q0-.35.2-.55.2-.2.56-.2.35 0 .55.2.2.2.2.54v.52q0 .34-.2.54t-.55.2zm0-.28q.2 0 .32-.12.12-.11.12-.34v-.51q0-.23-.12-.35-.12-.11-.32-.11t-.33.11q-.11.12-.11.35v.51q0 .23.11.34.12.12.33.12zM44.52 25.43q-.3 0-.47-.13-.18-.14-.2-.37h.31q.02.1.11.16.1.06.25.06h.15q.19 0 .28-.07.1-.08.1-.2 0-.25-.34-.3l-.26-.04q-.28-.05-.42-.18-.14-.13-.14-.38 0-.26.16-.4.17-.15.5-.15h.14q.27 0 .44.14.17.13.2.35h-.3q-.03-.1-.11-.15-.09-.05-.23-.05h-.14q-.18 0-.26.06-.08.07-.08.2t.07.18q.07.06.22.08l.26.05q.31.04.45.18.15.13.15.39t-.17.42q-.17.15-.52.15zM10.72 29.9q-.36 0-.56-.2-.2-.2-.2-.55v-.51q0-.35.2-.55.2-.2.56-.2.35 0 .55.2.2.2.2.54v.52q0 .34-.2.55-.2.2-.55.2zm0-.29q.2 0 .32-.12.12-.11.12-.34v-.51q0-.23-.12-.35-.11-.11-.32-.11-.2 0-.33.11-.11.12-.11.35v.51q0 .23.11.34.12.12.33.12zM12.77 29.9q-.3 0-.47-.14-.18-.14-.2-.37h.31q.02.1.11.16.1.06.25.06h.15q.19 0 .28-.07.1-.08.1-.2 0-.25-.34-.3L12.7 29q-.28-.05-.42-.18-.14-.13-.14-.38 0-.26.16-.4.17-.14.5-.14h.14q.27 0 .44.13.17.13.2.35h-.3q-.03-.1-.11-.15-.09-.05-.23-.05h-.14q-.18 0-.26.07-.08.06-.08.2 0 .12.07.17.07.06.22.08l.26.05q.31.05.46.18.14.13.14.39 0 .27-.17.42-.17.15-.52.15zM16.9 29.9q-.3 0-.49-.16-.17-.15-.17-.42t.17-.43q.18-.15.48-.15h.6v-.2q0-.17-.1-.27-.11-.1-.31-.1-.18 0-.29.07-.11.07-.14.2h-.31q.03-.25.23-.4.2-.15.51-.15.34 0 .53.17.2.17.2.47v1.33h-.31v-.37q-.03.2-.19.3-.16.11-.41.11zm.08-.25q.22 0 .37-.11.14-.12.14-.3v-.27h-.6q-.15 0-.24.09-.1.09-.1.24 0 .16.11.26.12.09.32.09zM18.45 29.86v-1.94h.32v.37q.03-.19.16-.3.13-.1.36-.1.29 0 .46.18.17.18.17.49v1.3h-.31V28.6q0-.2-.12-.31-.1-.12-.3-.12-.2 0-.31.12-.11.12-.11.35v1.23zM21.51 29.86q-.25 0-.39-.13t-.14-.38v-1.14h-.54v-.29h.54v-.54h.32v.54h.78v.3h-.78v1.13q0 .23.21.23h.53v.28zM23.42 29.9q-.23 0-.4-.1-.17-.08-.27-.25-.1-.17-.1-.4v-.52q0-.23.1-.4.1-.16.26-.25.18-.1.4-.1.24 0 .4.1.18.1.27.26.1.16.1.39v.34h-1.21v.19q0 .23.12.35.11.12.33.12.18 0 .3-.06.1-.07.13-.2h.32q-.03.24-.24.39-.2.14-.51.14zm-.45-1.17h.9v-.1q0-.23-.12-.35-.11-.13-.33-.13-.22 0-.33.13-.12.12-.12.35zM25.55 29.9q-.36 0-.57-.2-.2-.2-.2-.54v-.53q0-.35.2-.54.21-.2.57-.2.33 0 .54.18.2.18.21.49H26q-.02-.19-.13-.29-.11-.1-.31-.1-.21 0-.33.12-.13.12-.13.34v.53q0 .22.13.34.12.12.33.12.2 0 .3-.1.12-.1.14-.29h.31q0 .31-.21.49-.2.18-.54.18zM27.65 29.9q-.23 0-.4-.1-.17-.08-.27-.25-.09-.17-.09-.4v-.52q0-.23.1-.4.09-.16.26-.25.17-.1.4-.1t.4.1q.17.1.26.26.1.16.1.39v.34h-1.2v.19q0 .23.1.35.13.12.34.12.18 0 .3-.06.1-.07.13-.2h.32q-.03.24-.24.39-.2.14-.51.14zm-.45-1.17h.9v-.1q0-.23-.12-.35-.11-.13-.33-.13-.21 0-.33.13-.12.12-.12.35zM29.7 29.9q-.3 0-.47-.14-.18-.14-.2-.37h.31q.02.1.12.16.1.06.25.06h.15q.18 0 .27-.07.1-.08.1-.2 0-.25-.33-.3l-.26-.04q-.29-.05-.43-.18t-.14-.38q0-.26.17-.4.16-.14.5-.14h.13q.28 0 .45.13.17.13.2.35h-.32q-.02-.1-.1-.15-.09-.05-.23-.05h-.13q-.18 0-.27.07-.08.06-.08.2 0 .12.07.17.07.06.22.08l.26.05q.32.05.46.18t.14.39q0 .27-.17.42-.17.15-.51.15zM31.82 29.9q-.3 0-.47-.14-.18-.14-.2-.37h.31q.02.1.11.16.1.06.25.06h.15q.19 0 .28-.07.1-.08.1-.2 0-.25-.34-.3l-.26-.04q-.28-.05-.42-.18-.14-.13-.14-.38 0-.26.16-.4.17-.14.5-.14H32q.27 0 .44.13.17.13.2.35h-.3q-.03-.1-.11-.15-.09-.05-.23-.05h-.14q-.18 0-.26.07-.08.06-.08.2 0 .12.07.17.07.06.22.08l.26.05q.31.05.46.18.14.13.14.39 0 .27-.17.42-.17.15-.52.15zM34 29.9q-.35 0-.56-.2-.2-.2-.2-.55v-.51q0-.35.2-.55.2-.2.56-.2.35 0 .55.2.2.2.2.54v.52q0 .34-.2.55-.2.2-.55.2zm0-.29q.2 0 .32-.12.12-.11.12-.34v-.51q0-.23-.12-.35-.11-.11-.32-.11-.2 0-.32.11-.12.12-.12.35v.51q0 .23.12.34.12.12.32.12zM35.45 29.86v-1.94h.31v.35q.1-.38.51-.38.3 0 .49.2.18.18.18.51v.12h-.32v-.09q0-.23-.1-.35-.12-.12-.32-.12t-.32.12q-.11.12-.11.35v1.23zM38.23 29.9q-.23 0-.4-.1-.17-.08-.26-.25-.1-.17-.1-.4v-.52q0-.23.1-.4.1-.16.26-.25.17-.1.4-.1t.4.1q.18.1.27.26.1.16.1.39v.34h-1.21v.19q0 .23.11.35.12.12.33.12.19 0 .3-.06.11-.07.14-.2h.31q-.03.24-.23.39-.21.14-.52.14zm-.44-1.17h.9v-.1q0-.23-.12-.35-.12-.13-.34-.13-.21 0-.33.13-.11.12-.11.35zM40.29 29.9q-.3 0-.48-.14-.17-.14-.2-.37h.32q.02.1.11.16.1.06.25.06h.15q.19 0 .28-.07.09-.08.09-.2 0-.25-.33-.3l-.26-.04q-.29-.05-.43-.18-.13-.13-.13-.38 0-.26.16-.4.17-.14.5-.14h.13q.28 0 .45.13.17.13.2.35h-.31q-.02-.1-.1-.15-.1-.05-.24-.05h-.13q-.18 0-.27.07-.08.06-.08.2 0 .12.07.17.07.06.23.08l.26.05q.31.05.45.18.15.13.15.39 0 .27-.18.42-.17.15-.51.15zM10.66 34.35q-.3 0-.48-.13-.18-.14-.2-.37h.31q.02.1.12.16.1.06.25.06h.15q.18 0 .27-.07.1-.08.1-.2 0-.25-.33-.3l-.26-.04q-.29-.05-.43-.18t-.14-.38q0-.26.17-.4.16-.14.5-.14h.13q.28 0 .45.13.17.13.2.35h-.32q-.02-.1-.1-.14-.09-.06-.23-.06h-.13q-.18 0-.27.07-.08.06-.08.2 0 .12.07.17.07.06.22.09l.26.04q.32.05.46.18.14.14.14.39 0 .27-.17.42-.17.15-.51.15zM12.66 34.36q-.3 0-.48-.15-.18-.16-.18-.43t.18-.43q.18-.15.48-.15h.6V33q0-.17-.11-.27-.1-.1-.3-.1-.18 0-.3.07-.1.07-.13.2h-.32q.04-.25.24-.4.2-.15.51-.15.34 0 .53.17.2.18.2.47v1.34h-.32v-.37q-.02.18-.18.3-.16.1-.42.1zm.08-.25q.23 0 .37-.11.15-.12.15-.3v-.27h-.6q-.15 0-.25.1-.09.08-.09.23 0 .16.11.26t.31.1zm.36-2.08q-.1 0-.17-.03-.07-.04-.12-.1l-.09-.08q-.04-.03-.1-.03-.1 0-.1.12v.1h-.23v-.1q0-.16.08-.25.1-.09.23-.09.11 0 .18.04l.11.09.09.09q.04.03.1.03.1 0 .1-.12v-.1h.24v.1q0 .16-.1.24-.08.1-.22.1zM14.95 34.35q-.35 0-.56-.2-.2-.2-.2-.54v-.51q0-.35.2-.55.2-.2.56-.2.35 0 .55.2.2.2.2.54v.52q0 .35-.2.55-.2.2-.55.2zm0-.28q.2 0 .32-.11.12-.12.12-.35v-.51q0-.23-.12-.34-.11-.12-.32-.12-.2 0-.32.12-.12.11-.12.34v.51q0 .23.12.35.12.11.32.11zM18.97 34.33l-.65-1.94h.33l.43 1.3.07.23.04.16.05-.16.06-.23.42-1.3h.33l-.65 1.94zM21.3 34.36q-.23 0-.4-.1-.17-.08-.27-.25-.09-.17-.09-.39v-.53q0-.22.1-.39.09-.17.26-.26t.4-.09q.23 0 .4.1.17.08.26.25.1.17.1.4v.33h-1.2v.19q0 .23.1.35.13.12.34.12.18 0 .3-.06.1-.07.13-.2h.32q-.03.25-.24.39-.2.14-.51.14zm-.45-1.17h.9v-.1q0-.23-.12-.35-.11-.13-.33-.13-.21 0-.33.13-.12.12-.12.35zM22.75 34.33v-1.94h.31v.34q.1-.38.51-.38.3 0 .49.2.18.18.18.51v.12h-.32v-.09q0-.23-.1-.35-.12-.12-.32-.12t-.32.12q-.11.13-.11.35v1.24zM24.78 34.33v-.3h.68v-1.36h-.6v-.28h.92v1.65h.65v.29zm.8-2.3q-.11 0-.18-.05-.06-.06-.06-.17 0-.1.06-.16.07-.07.19-.07.11 0 .18.07.07.06.07.16t-.07.17q-.07.06-.18.06zM27.37 34.33v-1.46h-.57v-.29h.57v-.34q0-.22.14-.36.15-.13.4-.13h.57v.29h-.57q-.22 0-.22.2v.34h.79v.29h-.8v1.46zM29 34.33v-.3h.7v-1.36h-.6v-.28H30v1.65h.66v.29zm.82-2.3q-.12 0-.18-.05-.07-.06-.07-.17 0-.1.07-.16.06-.07.18-.07t.18.07q.07.06.07.16t-.07.17q-.06.06-.18.06zM31.9 34.36q-.36 0-.57-.2-.2-.2-.2-.54v-.53q0-.34.2-.54.21-.2.57-.2.33 0 .54.18.2.18.21.5h-.31q-.02-.2-.13-.3-.11-.1-.31-.1-.21 0-.33.12-.13.12-.13.34v.53q0 .22.13.34.12.12.33.12.2 0 .3-.1.12-.1.14-.29h.31q0 .31-.21.5-.2.17-.54.17zM33.83 34.36q-.3 0-.48-.15-.18-.16-.18-.43t.18-.43q.17-.15.47-.15h.6V33q0-.17-.1-.27-.11-.1-.3-.1-.18 0-.3.07-.1.07-.13.2h-.32q.03-.25.24-.4.2-.15.5-.15.34 0 .54.17.2.18.2.47v1.34h-.32v-.37q-.02.18-.19.3-.16.1-.4.1zm.08-.25q.22 0 .37-.11.14-.12.14-.3v-.27h-.59q-.16 0-.25.1-.1.08-.1.23 0 .16.12.26.11.1.3.1zM36 34.36q-.29 0-.47-.2-.17-.19-.17-.52v-.57q0-.33.17-.53.18-.19.47-.19.22 0 .36.11.14.1.17.3h.01v-1.01h.31v2.58h-.32v-.37q-.03.19-.17.3-.14.1-.36.1zm.11-.27q.2 0 .31-.13.11-.12.11-.34v-.53q0-.22-.11-.34-.11-.12-.31-.12t-.32.12q-.11.12-.11.34v.53q0 .23.11.35.12.12.32.12zM38.23 34.35q-.35 0-.55-.2-.2-.2-.2-.54v-.51q0-.35.2-.55.2-.2.55-.2.36 0 .56.2.2.2.2.54v.52q0 .35-.2.55-.2.2-.56.2zm0-.28q.21 0 .33-.11.11-.12.11-.35v-.51q0-.23-.11-.34-.12-.12-.33-.12-.2 0-.32.12-.12.11-.12.34v.51q0 .23.12.35.12.11.32.11zM40.29 34.35q-.3 0-.48-.13-.17-.14-.2-.37h.32q.02.1.11.16.1.06.25.06h.15q.19 0 .28-.07.09-.08.09-.2 0-.25-.33-.3l-.26-.04q-.29-.05-.43-.18-.13-.13-.13-.38 0-.26.16-.4.17-.14.5-.14h.13q.28 0 .45.13.17.13.2.35h-.31q-.02-.1-.1-.14-.1-.06-.24-.06h-.13q-.18 0-.27.07-.08.06-.08.2 0 .12.07.17.07.06.23.09l.26.04q.31.05.45.18.15.14.15.39 0 .27-.18.42-.17.15-.51.15z"/></g><path fill="#323232" fill-opacity=".28" fill-rule="evenodd" stroke="gray" stroke-width=".53" d="M3.55 49.01h44v17h-44z"/><g fill="#666" stroke-width=".26" style="line-height:1.25" aria-label="&lt;div&gt; é verificado e o ouvinte é executado" font-family="sans-serif" font-size="3.53" font-weight="400"><path d="M8.35 54.12l-1.58-.74v-.44l1.58-.75v.4l-1.02.48-.14.06-.11.02.1.03q.08.02.15.06l1.02.47zM9.51 54.35q-.3 0-.47-.2-.18-.2-.18-.54v-.52q0-.34.18-.55.18-.2.47-.2.22 0 .35.11.13.1.17.3v-1.01h.43v2.58h-.43v-.37q-.03.2-.17.3-.13.1-.35.1zm.16-.38q.16 0 .26-.1t.1-.28v-.48q0-.18-.1-.28-.1-.1-.26-.1-.17 0-.27.1t-.1.28v.48q0 .19.1.28.1.1.27.1zM11 54.32v-.4h.68v-1.14h-.59v-.4h1.01v1.54h.6v.4zm.86-2.27q-.14 0-.22-.06-.07-.07-.07-.19t.07-.18q.08-.07.22-.07.13 0 .2.07.09.06.09.18t-.08.19q-.08.06-.21.06zM13.63 54.32l-.64-1.94h.46l.37 1.18.05.22.05.18.04-.18.06-.22.36-1.18h.45l-.63 1.94zM15.24 54.12v-.4l1.02-.48.14-.05.1-.03-.1-.03-.14-.05-1.02-.48v-.4l1.58.74v.44z" font-weight="700"/><path style="-inkscape-font-specification:'JetBrains Mono';text-align:center" d="M20.26 54.35q-.23 0-.4-.09t-.27-.26q-.09-.16-.09-.39v-.53q0-.22.1-.39.09-.16.26-.26.17-.09.4-.09t.4.1q.17.09.26.25.1.17.1.4v.34h-1.2v.18q0 .23.1.36.12.12.34.12.18 0 .3-.07.1-.06.13-.2h.32q-.03.25-.24.4-.2.13-.51.13zm-.45-1.16h.9v-.1q0-.24-.12-.36-.11-.12-.33-.12-.22 0-.33.12-.12.12-.12.35zm.24-1.15l.38-.5h.34l-.4.5zM24.28 54.32l-.65-1.94h.33l.43 1.3.07.23.04.17.05-.17.06-.23.42-1.3h.33l-.65 1.94zM26.61 54.35q-.23 0-.4-.09t-.27-.26q-.09-.16-.09-.39v-.53q0-.22.1-.39.09-.16.26-.26.17-.09.4-.09t.4.1q.17.09.26.25.1.17.1.4v.34h-1.2v.18q0 .23.1.36.12.12.34.12.18 0 .3-.07.1-.06.13-.2h.32q-.03.25-.24.4-.2.13-.51.13zm-.45-1.16h.9v-.1q0-.24-.12-.36-.11-.12-.33-.12-.22 0-.33.12-.12.12-.12.35zM28.06 54.32v-1.94h.31v.34q.1-.38.51-.38.3 0 .49.2.18.19.18.52v.11h-.32v-.09q0-.23-.1-.35-.12-.12-.32-.12t-.32.12q-.11.13-.11.35v1.24zM30.08 54.32v-.3h.7v-1.35h-.6v-.3h.91v1.66h.65v.29zm.82-2.3q-.12 0-.19-.05-.06-.06-.06-.16t.06-.17q.07-.06.19-.06.11 0 .18.06.07.06.07.17 0 .1-.07.16t-.18.06zM32.68 54.32v-1.46h-.57v-.29h.57v-.33q0-.23.14-.36.15-.14.4-.14h.57v.3h-.57q-.23 0-.23.2v.33h.8v.3h-.8v1.45zM34.32 54.32v-.3H35v-1.35h-.6v-.3h.91v1.66h.66v.29zm.8-2.3q-.1 0-.17-.05-.07-.06-.07-.16t.07-.17q.06-.06.18-.06t.18.06q.07.06.07.17 0 .1-.07.16-.06.06-.18.06zM37.2 54.35q-.35 0-.56-.2-.2-.2-.2-.54v-.53q0-.34.2-.54.21-.2.57-.2.33 0 .54.18.2.18.21.5h-.32q0-.2-.12-.3-.12-.1-.31-.1-.21 0-.33.13-.13.11-.13.33v.53q0 .22.13.34.12.12.33.12.2 0 .3-.1.12-.1.13-.29h.32q0 .31-.21.5-.2.17-.54.17zM39.14 54.35q-.3 0-.48-.15-.18-.16-.18-.43t.18-.43q.17-.15.47-.15h.6v-.2q0-.17-.1-.27-.11-.1-.31-.1-.17 0-.29.08-.1.07-.13.19h-.32q.03-.25.24-.4.2-.15.5-.15.34 0 .54.18.19.17.19.47v1.33h-.31v-.37q-.02.19-.19.3-.16.1-.41.1zm.08-.25q.22 0 .37-.1.14-.12.14-.3v-.27h-.59q-.16 0-.25.08-.1.1-.1.24 0 .17.12.26.11.1.3.1zM41.31 54.35q-.29 0-.47-.19-.17-.2-.17-.53v-.56q0-.34.17-.53.18-.2.47-.2.22 0 .36.11.14.11.17.3v-1.01h.32v2.58h-.32v-.37q-.03.19-.17.3-.14.1-.36.1zm.1-.27q.2 0 .32-.12.11-.13.11-.35v-.53q0-.21-.11-.34-.11-.12-.31-.12t-.32.12q-.11.12-.11.34v.53q0 .23.11.35.12.12.32.12zM43.54 54.35q-.35 0-.55-.2-.2-.2-.2-.54v-.52q0-.34.2-.54t.55-.2q.36 0 .56.2.2.2.2.54v.52q0 .34-.2.54t-.56.2zm0-.29q.21 0 .33-.11.11-.12.11-.34v-.52q0-.22-.11-.34-.12-.12-.33-.12-.2 0-.32.12t-.12.34v.52q0 .22.12.34.12.11.32.11zM12.85 58.82q-.23 0-.4-.1-.17-.09-.27-.25-.09-.17-.09-.4v-.52q0-.23.1-.4.09-.16.26-.25.17-.1.4-.1t.4.1q.17.09.26.25.1.17.1.4v.34h-1.2v.18q0 .23.11.36.12.12.33.12.18 0 .3-.07.11-.06.14-.2h.31q-.03.25-.24.4-.2.14-.5.14zm-.45-1.17h.9v-.1q0-.23-.12-.36-.11-.12-.33-.12-.21 0-.33.12-.12.13-.12.36zM17.08 58.8q-.35 0-.55-.19-.2-.2-.2-.54v-.52q0-.34.2-.54t.55-.2q.36 0 .56.2.2.2.2.54v.52q0 .34-.2.54t-.56.2zm0-.27q.21 0 .33-.12.12-.12.12-.34v-.52q0-.22-.12-.34-.12-.12-.33-.12-.2 0-.32.12t-.12.34v.52q0 .22.12.34.12.12.32.12zM21.32 58.8q-.35 0-.56-.19-.2-.2-.2-.54v-.52q0-.34.2-.54t.56-.2q.35 0 .55.2.2.2.2.54v.52q0 .34-.2.54t-.55.2zm0-.27q.2 0 .32-.12t.12-.34v-.52q0-.22-.12-.34-.11-.12-.32-.12-.2 0-.33.12-.11.12-.11.34v.52q0 .22.11.34.12.12.33.12zM23.43 58.82q-.33 0-.54-.2-.2-.2-.2-.55v-1.23h.32v1.23q0 .22.11.35.12.12.31.12.2 0 .31-.12.12-.13.12-.35v-1.23h.32v1.23q0 .35-.2.55-.21.2-.55.2zM25.34 58.78l-.65-1.94h.33l.43 1.3.07.23.04.17.04-.17.07-.23.42-1.3h.33l-.65 1.94zM26.9 58.78v-.29h.7v-1.36H27v-.29h.91v1.65h.66v.29zm.82-2.29q-.12 0-.18-.06-.07-.06-.07-.16t.07-.17q.06-.06.18-.06t.18.06q.07.06.07.17 0 .1-.07.16-.06.06-.18.06zM29.05 58.78v-1.94h.32v.37q.03-.2.16-.3.13-.1.36-.1.29 0 .46.17.18.18.18.5v1.3h-.32v-1.27q0-.2-.12-.32-.1-.11-.3-.11-.2 0-.3.12-.12.12-.12.35v1.23zM32.11 58.78q-.25 0-.39-.13-.14-.14-.14-.38v-1.14h-.54v-.29h.54v-.55h.32v.55h.78v.29h-.78v1.14q0 .22.21.22h.53v.29zM34.02 58.82q-.23 0-.4-.1-.17-.09-.27-.25-.1-.17-.1-.4v-.52q0-.23.1-.4.1-.16.27-.25.17-.1.4-.1t.4.1q.17.09.26.25.1.17.1.4v.34h-1.21v.18q0 .23.12.36.11.12.33.12.18 0 .3-.07.1-.06.13-.2h.32q-.03.25-.24.4-.2.14-.51.14zm-.45-1.17h.9v-.1q0-.23-.12-.36-.11-.12-.33-.12-.22 0-.33.12-.12.13-.12.36zM38.25 58.82q-.23 0-.4-.1-.17-.09-.27-.25-.09-.17-.09-.4v-.52q0-.23.1-.4.09-.16.26-.25.17-.1.4-.1t.4.1q.17.09.26.25.1.17.1.4v.34h-1.2v.18q0 .23.11.36.12.12.33.12.18 0 .3-.07.11-.06.14-.2H39q-.03.25-.24.4-.2.14-.5.14zm-.45-1.17h.9v-.1q0-.23-.12-.36-.11-.12-.33-.12-.21 0-.33.12-.12.13-.12.36zm.25-1.15l.37-.49h.34l-.39.5zM17.08 63.28q-.22 0-.4-.1-.17-.09-.26-.25-.1-.17-.1-.4v-.52q0-.23.1-.4.1-.16.26-.25.18-.1.4-.1.23 0 .4.1.18.09.27.25.1.17.1.4v.34h-1.21v.19q0 .22.11.35.12.12.33.12.19 0 .3-.07.11-.06.14-.2h.32q-.04.25-.24.4-.2.14-.52.14zm-.44-1.17h.9V62q0-.23-.12-.36-.12-.12-.34-.12-.21 0-.33.12-.11.13-.11.36zM18.32 63.24l.69-1-.65-.94h.38l.38.6.05.09.03.07.04-.07.05-.09.38-.6h.37l-.64.95.68 1h-.37l-.42-.64-.05-.1-.04-.08q0 .03-.04.09l-.05.09-.42.63zM21.32 63.28q-.23 0-.4-.1-.17-.09-.27-.25-.1-.17-.1-.4v-.52q0-.23.1-.4.1-.16.27-.25.17-.1.4-.1t.4.1q.17.09.26.25.1.17.1.4v.34h-1.21v.19q0 .22.12.35.11.12.33.12.18 0 .3-.07.1-.06.13-.2h.32q-.03.25-.24.4-.2.14-.51.14zm-.45-1.17h.9V62q0-.23-.12-.36-.11-.12-.33-.12-.22 0-.33.12-.12.13-.12.36zM23.45 63.28q-.35 0-.57-.2-.2-.2-.2-.54V62q0-.35.2-.55.22-.2.57-.2.33 0 .54.19.2.18.21.49h-.31q-.01-.2-.13-.29-.11-.1-.31-.1t-.33.12q-.13.11-.13.33v.54q0 .21.13.33.12.12.33.12.2 0 .3-.1.13-.1.14-.28h.31q0 .3-.21.49-.2.18-.54.18zM25.55 63.28q-.34 0-.54-.2t-.2-.54V61.3h.32v1.24q0 .21.11.34.11.12.3.12.2 0 .32-.12.11-.13.11-.34V61.3h.32v1.24q0 .34-.2.54t-.54.2zM27.88 63.24q-.25 0-.4-.13-.13-.14-.13-.38v-1.14h-.55v-.29h.55v-.55h.32v.55h.77v.29h-.77v1.14q0 .22.21.22h.53v.3zM29.62 63.28q-.31 0-.49-.16-.17-.16-.17-.43t.17-.42q.18-.16.48-.16h.6v-.2q0-.17-.11-.27-.1-.1-.3-.1-.18 0-.3.08-.1.07-.13.2h-.32q.04-.26.24-.4.2-.15.51-.15.34 0 .53.17.2.17.2.47v1.33h-.32v-.37q-.02.19-.18.3-.16.1-.41.1zm.07-.25q.23 0 .37-.12.15-.11.15-.29v-.27h-.6q-.15 0-.25.09-.09.08-.09.24 0 .16.11.25.12.1.31.1zM31.79 63.28q-.3 0-.47-.2-.18-.2-.18-.52v-.57q0-.34.18-.53.18-.2.47-.2.22 0 .36.11.14.11.16.3h.01v-1h.31v2.57h-.31v-.37q-.03.2-.17.3-.14.1-.36.1zm.1-.28q.2 0 .31-.12.12-.13.12-.34V62q0-.22-.12-.35-.1-.12-.3-.12-.2 0-.32.12t-.12.35v.53q0 .22.12.34.11.12.31.12zM34.02 63.27q-.35 0-.56-.2-.2-.2-.2-.54V62q0-.34.2-.54t.56-.2q.35 0 .55.2.2.2.2.54v.52q0 .34-.2.54t-.55.2zm0-.28q.2 0 .32-.12t.12-.34V62q0-.22-.12-.34-.11-.12-.32-.12-.2 0-.33.12-.11.12-.11.34v.52q0 .22.11.34.12.12.33.12z" font-family="JetBrains Mono" text-anchor="middle"/></g><path fill="#333" fill-opacity=".45" fill-rule="evenodd" stroke="#4d4d4d" stroke-width=".53" d="M3.55 77.92h44v17h-44z"/><g fill="#4d4d4d" stroke-width=".26" style="line-height:1.25" aria-label="&lt;video&gt; é verificado e o ouvinte é executado" font-family="sans-serif" font-size="3.53" font-weight="400"><path d="M6.23 83.04l-1.58-.75v-.44l1.58-.74v.4l-1.02.47-.14.06-.1.03.1.03.14.05 1.02.47zM7.28 83.23l-.64-1.94h.46l.37 1.18.05.22.05.18.04-.18.06-.21.36-1.19h.45l-.63 1.94zM8.89 83.23v-.4h.67V81.7h-.59v-.4H10v1.54h.6v.4zm.85-2.26q-.13 0-.21-.07-.08-.07-.08-.19 0-.11.08-.18.08-.07.21-.07t.21.07q.08.07.08.18 0 .12-.08.2-.08.06-.21.06zM11.63 83.27q-.3 0-.47-.2-.18-.2-.18-.54V82q0-.34.18-.54.17-.2.47-.2.21 0 .35.1.13.11.16.3h.01l-.01-.46v-.54h.44v2.57h-.43v-.37q-.04.2-.17.3-.14.1-.35.1zm.15-.38q.17 0 .26-.1.1-.1.1-.28v-.49q0-.18-.1-.28-.09-.1-.26-.1t-.26.1q-.1.1-.1.28v.49q0 .18.1.28.1.1.26.1zM13.91 83.27q-.24 0-.43-.1-.18-.1-.28-.26-.1-.17-.1-.4v-.49q0-.23.1-.4t.28-.27q.19-.1.43-.1.25 0 .43.1t.28.27q.1.17.1.4v.35h-1.2v.14q0 .41.4.41.3 0 .35-.2h.44q-.05.25-.27.4-.22.15-.53.15zm-.38-1.25v.07h.76v-.07q0-.2-.1-.31-.09-.11-.28-.11-.2 0-.29.11-.1.1-.1.31zM16.03 83.27q-.38 0-.6-.2-.22-.22-.22-.57v-.48q0-.35.22-.55.22-.2.6-.2.37 0 .59.2.22.2.22.55v.48q0 .35-.22.56-.22.2-.6.2zm0-.39q.17 0 .27-.1t.1-.28v-.48q0-.18-.1-.27-.1-.1-.27-.1-.18 0-.28.1-.1.09-.1.27v.48q0 .19.1.29.1.1.28.1zM17.35 83.04v-.4l1.03-.48.13-.06.11-.03-.1-.02-.14-.05-1.03-.48v-.41l1.58.74v.44z" font-weight="700"/><path style="-inkscape-font-specification:'JetBrains Mono';text-align:center" d="M22.38 83.27q-.23 0-.4-.1-.18-.08-.27-.25-.1-.17-.1-.4V82q0-.23.1-.4.1-.16.26-.25.18-.1.4-.1.24 0 .4.1.18.1.27.26.1.16.1.39v.34h-1.21v.19q0 .23.11.35.12.12.34.12.18 0 .3-.06.1-.07.13-.2h.32q-.03.24-.24.39-.2.14-.51.14zm-.45-1.17h.9V82q0-.23-.12-.35-.12-.13-.33-.13-.22 0-.34.13-.11.12-.11.35zm.24-1.14l.38-.5h.34l-.4.5zM26.4 83.23l-.65-1.94h.33l.43 1.3.06.23.05.17.04-.17.07-.22.42-1.3h.32l-.65 1.93zM28.73 83.27q-.23 0-.4-.1-.18-.08-.27-.25-.1-.17-.1-.4V82q0-.23.1-.4.1-.16.26-.25.18-.1.4-.1.24 0 .4.1.18.1.27.26.1.16.1.39v.34h-1.21v.19q0 .23.11.35.12.12.34.12.18 0 .3-.06.1-.07.13-.2h.32q-.03.24-.24.39-.2.14-.51.14zm-.45-1.17h.9V82q0-.23-.12-.35-.12-.13-.33-.13-.22 0-.34.13-.11.12-.11.35zM30.18 83.23V81.3h.3v.35q.1-.38.52-.38.3 0 .48.2.19.18.19.51v.12h-.32v-.1q0-.22-.11-.34-.11-.12-.32-.12-.2 0-.31.12-.12.12-.12.35v1.23zM32.2 83.23v-.29h.69v-1.36h-.6v-.29h.92v1.65h.65v.3zm.81-2.29q-.11 0-.18-.06-.07-.06-.07-.16t.07-.16q.07-.07.18-.07.12 0 .19.07.06.06.06.16t-.06.16q-.07.06-.19.06zM34.8 83.23v-1.45h-.57v-.3h.56v-.33q0-.23.15-.36.14-.13.4-.13h.57v.29h-.57q-.23 0-.23.2v.34h.8v.29h-.8v1.45zM36.43 83.23v-.29h.7v-1.36h-.6v-.29h.91v1.65h.65v.3zm.82-2.29q-.12 0-.19-.06-.06-.06-.06-.16t.06-.16q.07-.07.19-.07.11 0 .18.07.07.06.07.16t-.07.16q-.07.06-.18.06zM39.32 83.27q-.35 0-.56-.2-.2-.2-.2-.54V82q0-.35.2-.54.21-.2.56-.2.34 0 .54.18t.22.49h-.32q-.01-.19-.13-.29-.1-.1-.3-.1-.21 0-.34.12-.12.12-.12.34v.53q0 .22.12.34.13.12.33.12t.31-.1q.12-.1.13-.3h.32q-.01.32-.22.5-.2.18-.54.18zM41.26 83.27q-.31 0-.49-.16-.17-.15-.17-.42t.17-.43q.18-.16.48-.16h.6v-.19q0-.18-.11-.27-.1-.1-.3-.1-.18 0-.29.07-.11.07-.14.2h-.31q.03-.26.23-.4.2-.15.51-.15.34 0 .53.17.2.17.2.47v1.33h-.31v-.37q-.03.19-.19.3-.16.1-.41.1zm.07-.25q.23 0 .37-.11.15-.12.15-.3v-.27h-.6q-.15 0-.24.09-.1.09-.1.24 0 .16.11.26.12.09.31.09zM43.43 83.27q-.29 0-.47-.2-.18-.19-.18-.52v-.57q0-.33.18-.53t.47-.2q.22 0 .36.12.14.1.17.3v-1.01h.32v2.57h-.32v-.37q-.03.2-.17.3-.14.1-.36.1zm.1-.28q.2 0 .32-.12.1-.12.1-.34V82q0-.22-.1-.34-.12-.13-.31-.13-.2 0-.32.12t-.12.35v.53q0 .22.12.34.11.12.32.12zM45.66 83.26q-.35 0-.56-.2-.2-.2-.2-.54v-.51q0-.35.2-.55.2-.2.56-.2.35 0 .55.2.2.2.2.54v.52q0 .34-.2.54t-.55.2zm0-.28q.2 0 .32-.12.12-.11.12-.34v-.51q0-.23-.12-.35-.11-.11-.32-.11-.2 0-.33.11-.11.12-.11.35v.51q0 .23.11.34.12.12.33.12zM12.85 87.73q-.23 0-.4-.1-.17-.08-.27-.25-.09-.17-.09-.4v-.52q0-.23.1-.4.09-.16.26-.25.17-.1.4-.1t.4.1q.17.1.26.26.1.16.1.39v.34h-1.2V87q0 .23.11.35.12.12.33.12.18 0 .3-.06.11-.07.14-.2h.31q-.03.24-.24.39-.2.14-.5.14zm-.45-1.17h.9v-.1q0-.23-.12-.35-.11-.13-.33-.13-.21 0-.33.13-.12.12-.12.35zM17.08 87.72q-.35 0-.55-.2-.2-.2-.2-.54v-.51q0-.35.2-.55.2-.2.55-.2.36 0 .56.2.2.2.2.54v.52q0 .34-.2.55-.2.2-.56.2zm0-.28q.21 0 .33-.12.12-.11.12-.34v-.51q0-.23-.12-.34-.12-.12-.33-.12-.2 0-.32.12-.12.11-.12.34v.51q0 .23.12.34.12.12.32.12zM21.32 87.72q-.35 0-.56-.2-.2-.2-.2-.54v-.51q0-.35.2-.55.2-.2.56-.2.35 0 .55.2.2.2.2.54v.52q0 .34-.2.55-.2.2-.55.2zm0-.28q.2 0 .32-.12.12-.11.12-.34v-.51q0-.23-.12-.34-.11-.12-.32-.12-.2 0-.33.12-.11.11-.11.34v.51q0 .23.11.34.12.12.33.12zM23.43 87.73q-.33 0-.54-.2-.2-.2-.2-.54v-1.24h.32V87q0 .22.11.34.12.12.31.12.2 0 .31-.12.12-.12.12-.34v-1.24h.32V87q0 .34-.2.54-.21.2-.55.2zM25.34 87.7l-.65-1.95h.33l.43 1.31.07.23.04.16.04-.16.07-.23.42-1.3h.33l-.65 1.94zM26.9 87.7v-.3h.7v-1.36H27v-.29h.91v1.66h.66v.29zm.82-2.3q-.12 0-.18-.05-.07-.06-.07-.17 0-.1.07-.16.06-.07.18-.07t.18.07q.07.06.07.16t-.07.17q-.06.06-.18.06zM29.05 87.7v-1.95h.32v.38q.03-.2.16-.3.13-.11.36-.11.29 0 .46.18.18.18.18.49v1.3h-.32v-1.26q0-.21-.12-.32-.1-.12-.3-.12-.2 0-.3.12-.12.12-.12.35v1.24zM32.11 87.7q-.25 0-.39-.14-.14-.13-.14-.38v-1.14h-.54v-.29h.54v-.54h.32v.54h.78v.3h-.78v1.13q0 .23.21.23h.53v.29zM34.02 87.73q-.23 0-.4-.1-.17-.08-.27-.25-.1-.17-.1-.4v-.52q0-.23.1-.4.1-.16.27-.25.17-.1.4-.1t.4.1q.17.1.26.26.1.16.1.39v.34h-1.21V87q0 .23.12.35.11.12.33.12.18 0 .3-.06.1-.07.13-.2h.32q-.03.24-.24.39-.2.14-.51.14zm-.45-1.17h.9v-.1q0-.23-.12-.35-.11-.13-.33-.13-.22 0-.33.13-.12.12-.12.35zM38.25 87.73q-.23 0-.4-.1-.17-.08-.27-.25-.09-.17-.09-.4v-.52q0-.23.1-.4.09-.16.26-.25.17-.1.4-.1t.4.1q.17.1.26.26.1.16.1.39v.34h-1.2V87q0 .23.11.35.12.12.33.12.18 0 .3-.06.11-.07.14-.2H39q-.03.24-.24.39-.2.14-.5.14zm-.45-1.17h.9v-.1q0-.23-.12-.35-.11-.13-.33-.13-.21 0-.33.13-.12.12-.12.35zm.25-1.14l.37-.5h.34l-.39.5zM17.08 92.2q-.22 0-.4-.1-.17-.1-.26-.26-.1-.17-.1-.39v-.53q0-.22.1-.39t.26-.26q.18-.09.4-.09.23 0 .4.1.18.08.27.25.1.17.1.4v.33h-1.21v.2q0 .22.11.34.12.12.33.12.19 0 .3-.06.11-.07.14-.2h.32q-.04.25-.24.39-.2.14-.52.14zm-.44-1.18h.9v-.1q0-.23-.12-.35-.12-.12-.34-.12-.21 0-.33.12-.11.12-.11.35zM18.32 92.16l.69-1-.65-.94h.38l.38.6.05.08.03.07.04-.07.05-.08.38-.6h.37l-.64.94.68 1h-.37l-.42-.64-.05-.09-.04-.08q0 .03-.04.08l-.05.1-.42.63zM21.32 92.2q-.23 0-.4-.1t-.27-.26q-.1-.17-.1-.39v-.53q0-.22.1-.39t.27-.26q.17-.09.4-.09t.4.1q.17.08.26.25.1.17.1.4v.33h-1.21v.2q0 .22.12.34.11.12.33.12.18 0 .3-.06.1-.07.13-.2h.32q-.03.25-.24.39-.2.14-.51.14zm-.45-1.18h.9v-.1q0-.23-.12-.35-.11-.12-.33-.12-.22 0-.33.12-.12.12-.12.35zM23.45 92.2q-.35 0-.57-.2-.2-.2-.2-.55v-.53q0-.34.2-.54.22-.2.57-.2.33 0 .54.18.2.18.21.5h-.31q-.01-.2-.13-.3-.11-.1-.31-.1t-.33.12q-.13.12-.13.34v.53q0 .22.13.34.12.12.33.12.2 0 .3-.1.13-.1.14-.29h.31q0 .31-.21.5-.2.17-.54.17zM25.55 92.2q-.34 0-.54-.2t-.2-.55v-1.23h.32v1.23q0 .22.11.34.11.12.3.12.2 0 .32-.12.11-.12.11-.34v-1.23h.32v1.23q0 .34-.2.54t-.54.2zM27.88 92.16q-.25 0-.4-.14-.13-.13-.13-.38v-1.13h-.55v-.3h.55v-.54h.32v.55h.77v.29h-.77v1.13q0 .23.21.23h.53v.29zM29.62 92.2q-.31 0-.49-.16-.17-.16-.17-.43t.17-.43q.18-.15.48-.15h.6v-.2q0-.17-.11-.27-.1-.1-.3-.1-.18 0-.3.07-.1.07-.13.2h-.32q.04-.25.24-.4.2-.15.51-.15.34 0 .53.17.2.18.2.47v1.34h-.32v-.37q-.02.18-.18.3-.16.1-.41.1zm.07-.26q.23 0 .37-.11.15-.11.15-.3v-.27h-.6q-.15 0-.25.1-.09.08-.09.23 0 .16.11.26.12.1.31.1zM31.79 92.2q-.3 0-.47-.2-.18-.2-.18-.53v-.57q0-.33.18-.53.18-.19.47-.19.22 0 .36.11.14.1.16.3h.01v-1.01h.31v2.58h-.31v-.37q-.03.19-.17.3-.14.1-.36.1zm.1-.28q.2 0 .31-.13.12-.12.12-.34v-.53q0-.22-.12-.34-.1-.12-.3-.12-.2 0-.32.12t-.12.34v.53q0 .23.12.35.11.12.31.12zM34.02 92.18q-.35 0-.56-.2-.2-.2-.2-.54v-.51q0-.35.2-.54.2-.2.56-.2.35 0 .55.2.2.2.2.54v.51q0 .35-.2.55-.2.2-.55.2zm0-.28q.2 0 .32-.11.12-.12.12-.35v-.51q0-.23-.12-.34-.11-.12-.32-.12-.2 0-.33.12-.11.11-.11.34v.51q0 .23.11.35.12.11.33.11z" font-family="JetBrains Mono" text-anchor="middle"/></g><path fill="#ccc" fill-rule="evenodd" d="M24.1 37.36v2.15h-1.93l1.7 2.95 1.68 2.94 1.7-2.94 1.68-2.95H27v-2.15z"/><path fill="gray" fill-rule="evenodd" d="M24.1 66.27v2.16h-1.93l1.7 2.95 1.68 2.94 1.7-2.94 1.68-2.95H27v-2.16z"/><path fill="#333" fill-opacity=".06" fill-rule="evenodd" stroke="#ccc" stroke-width=".53" d="M164.95 19.71h44v17h-44z"/><g fill="gray" stroke-width=".26" style="line-height:1.25" aria-label="Ao final, todos os antecessores são verificados" font-family="JetBrains Mono" font-size="3.53" font-weight="400" text-anchor="middle"><path style="-inkscape-font-specification:'JetBrains Mono';text-align:center" d="M171.23 25.02l.67-2.57h.43l.66 2.57h-.32l-.17-.68h-.78l-.16.68zm.56-.95h.65l-.2-.8-.09-.37-.04-.2-.04.2-.08.37zM174.23 25.05q-.35 0-.56-.2-.2-.2-.2-.54v-.52q0-.34.2-.54t.56-.2q.35 0 .55.2.2.2.2.54v.52q0 .34-.2.54t-.55.2zm0-.28q.2 0 .32-.12.12-.11.12-.34v-.52q0-.22-.12-.34-.11-.11-.32-.11-.2 0-.33.11-.11.12-.11.34v.52q0 .23.11.34.12.12.33.12zM178.18 25.02v-1.45h-.56v-.3h.56v-.33q0-.23.15-.36.14-.13.4-.13h.56v.29h-.57q-.22 0-.22.2v.34h.8v.29h-.8v1.45zM179.82 25.02v-.29h.69v-1.36h-.6v-.29h.92v1.65h.65v.3zm.81-2.29q-.11 0-.18-.06-.07-.06-.07-.16t.07-.17q.07-.06.18-.06.12 0 .19.06.06.06.06.17 0 .1-.06.16-.07.06-.19.06zM181.96 25.02v-1.94h.32v.37q.03-.2.16-.3.14-.1.36-.1.3 0 .46.18.18.18.18.49v1.3h-.32v-1.27q0-.2-.11-.32-.11-.1-.3-.1-.2 0-.32.11-.11.12-.11.35v1.23zM184.64 25.06q-.3 0-.48-.16t-.18-.42q0-.28.18-.43.18-.16.48-.16h.6v-.2q0-.17-.11-.27-.1-.1-.3-.1-.18 0-.3.08-.1.07-.13.2h-.32q.03-.26.24-.4.2-.15.51-.15.34 0 .53.17.2.17.2.47v1.33h-.32v-.37q-.02.19-.18.3-.16.1-.42.1zm.08-.25q.23 0 .37-.12.15-.1.15-.28v-.28h-.6q-.16 0-.25.09t-.09.24q0 .16.11.26.11.09.31.09zM187.21 25.02q-.26 0-.41-.15-.15-.15-.15-.4v-1.73h-.67v-.3h.98v2.04q0 .12.07.19.07.06.18.06h.6v.3zM188.57 25.59l.28-1.1h.46l-.46 1.1zM193.5 25.02q-.26 0-.4-.13-.14-.14-.14-.38v-1.14h-.54v-.29h.54v-.54h.32v.54h.78v.3h-.78v1.13q0 .22.21.22h.53v.3zM195.4 25.05q-.36 0-.56-.2-.2-.2-.2-.54v-.52q0-.34.2-.54t.56-.2q.35 0 .55.2.2.2.2.54v.52q0 .34-.2.54t-.55.2zm0-.28q.2 0 .32-.12.12-.11.12-.34v-.52q0-.22-.12-.34-.12-.11-.32-.11t-.33.11q-.11.12-.11.34v.52q0 .23.11.34.12.12.33.12zM197.4 25.06q-.29 0-.47-.2-.18-.19-.18-.52v-.57q0-.34.18-.53.18-.2.47-.2.22 0 .36.12.14.1.17.3v-1.01h.32v2.57h-.32v-.37q-.03.2-.17.3-.14.1-.36.1zm.1-.28q.2 0 .32-.12.1-.12.1-.34v-.53q0-.22-.1-.34-.12-.13-.31-.13-.2 0-.32.12t-.12.35v.53q0 .22.12.34.11.12.32.12zM199.63 25.05q-.35 0-.56-.2-.2-.2-.2-.54v-.52q0-.34.2-.54t.56-.2q.35 0 .55.2.2.2.2.54v.52q0 .34-.2.54t-.55.2zm0-.28q.2 0 .32-.12.12-.11.12-.34v-.52q0-.22-.12-.34-.11-.11-.32-.11-.2 0-.33.11-.11.12-.11.34v.52q0 .23.11.34.12.12.33.12zM201.69 25.05q-.3 0-.48-.13-.18-.14-.2-.37h.31q.02.1.12.16.1.06.25.06h.14q.2 0 .28-.08.1-.07.1-.2 0-.24-.33-.3l-.26-.04q-.29-.04-.43-.17t-.14-.38q0-.26.17-.4.16-.15.5-.15h.13q.28 0 .45.13.17.13.2.36h-.32q-.02-.1-.1-.15-.09-.05-.23-.05h-.14q-.18 0-.26.06-.08.07-.08.2 0 .12.07.18t.22.08l.26.04q.32.05.46.19.14.13.14.39t-.17.42q-.17.15-.52.15zM172.11 29.51q-.35 0-.55-.2-.2-.2-.2-.54v-.51q0-.35.2-.55.2-.2.55-.2.36 0 .56.2.2.2.2.54v.52q0 .34-.2.54t-.56.2zm0-.28q.21 0 .33-.12.11-.11.11-.34v-.51q0-.23-.11-.35-.12-.11-.33-.11-.2 0-.32.11-.12.12-.12.35v.51q0 .23.12.34.12.12.32.12zM174.17 29.51q-.3 0-.48-.13-.17-.14-.2-.37h.32q.02.1.1.16.1.06.26.06h.15q.18 0 .28-.07.09-.08.09-.2 0-.25-.33-.3l-.26-.04q-.29-.05-.43-.18t-.14-.38q0-.26.17-.4t.5-.14h.13q.28 0 .45.13.17.13.2.35h-.31q-.02-.1-.1-.15-.1-.05-.24-.05h-.13q-.18 0-.27.06-.08.07-.08.2t.07.18q.07.06.22.08l.27.05q.31.04.45.18.15.13.15.39t-.18.42q-.17.15-.51.15zM178.3 29.52q-.31 0-.49-.16t-.18-.42q0-.27.18-.43.18-.16.48-.16h.6v-.19q0-.18-.11-.27-.1-.1-.3-.1-.18 0-.3.07-.1.07-.13.2h-.32q.03-.26.24-.4.2-.15.51-.15.34 0 .53.17.2.17.2.47v1.33h-.32v-.37q-.02.19-.18.3-.16.1-.42.1zm.07-.25q.23 0 .37-.11.15-.12.15-.3v-.27h-.6q-.16 0-.25.09t-.09.24q0 .16.11.26.11.09.31.09zM179.85 29.48v-1.94h.31v.37q.03-.19.17-.3.13-.1.35-.1.3 0 .47.18.17.18.17.49v1.3H181v-1.27q0-.2-.11-.31-.1-.12-.3-.12-.2 0-.31.12-.12.12-.12.35v1.23zM182.9 29.48q-.24 0-.38-.13t-.14-.38v-1.14h-.55v-.29h.55V27h.32v.54h.77v.3h-.77v1.13q0 .22.2.22h.54v.3zM184.81 29.52q-.23 0-.4-.1-.17-.08-.26-.25-.1-.17-.1-.4v-.52q0-.23.1-.4.1-.16.26-.25.17-.1.4-.1t.4.1q.17.1.27.26t.1.39v.34h-1.22v.19q0 .23.12.35.12.12.33.12.19 0 .3-.06.11-.07.14-.2h.31q-.03.24-.24.39-.2.14-.5.14zm-.45-1.17h.9v-.1q0-.23-.12-.35-.1-.13-.33-.13-.21 0-.33.13-.12.12-.12.35zM186.94 29.52q-.35 0-.56-.2-.2-.2-.2-.54v-.53q0-.35.2-.54.21-.2.56-.2.34 0 .54.18t.22.49h-.32q-.01-.19-.13-.29-.1-.1-.3-.1-.21 0-.34.12-.12.12-.12.34v.53q0 .22.12.34.13.12.33.12t.31-.1q.12-.1.13-.3h.32q-.01.32-.22.5-.2.18-.54.18zM189.05 29.52q-.23 0-.4-.1-.18-.08-.27-.25-.1-.17-.1-.4v-.52q0-.23.1-.4.1-.16.26-.25.18-.1.4-.1.24 0 .4.1.18.1.27.26.1.16.1.39v.34h-1.21v.19q0 .23.11.35.12.12.34.12.18 0 .3-.06.1-.07.13-.2h.32q-.03.24-.24.39-.2.14-.51.14zm-.45-1.17h.9v-.1q0-.23-.12-.35-.12-.13-.33-.13-.22 0-.34.13-.11.12-.11.35zM191.1 29.51q-.3 0-.47-.13-.18-.14-.2-.37h.3q.03.1.12.16.1.06.25.06h.15q.19 0 .28-.07.1-.08.1-.2 0-.25-.34-.3l-.26-.04q-.28-.05-.42-.18-.14-.13-.14-.38 0-.26.16-.4.17-.14.5-.14h.14q.27 0 .44.13.17.13.2.35h-.31q-.02-.1-.1-.15-.09-.05-.23-.05h-.14q-.18 0-.26.06-.08.07-.08.2t.07.18q.07.06.22.08l.26.05q.31.04.45.18.15.13.15.39t-.17.42q-.17.15-.52.15zM193.22 29.51q-.3 0-.48-.13-.17-.14-.2-.37h.32q.02.1.1.16.1.06.26.06h.15q.18 0 .28-.07.09-.08.09-.2 0-.25-.33-.3l-.26-.04q-.29-.05-.43-.18t-.14-.38q0-.26.17-.4t.5-.14h.13q.28 0 .45.13.17.13.2.35h-.31q-.02-.1-.1-.15-.1-.05-.24-.05h-.13q-.18 0-.27.06-.08.07-.08.2t.07.18q.07.06.22.08l.27.05q.31.04.45.18.15.13.15.39t-.18.42q-.17.15-.51.15zM195.4 29.51q-.36 0-.56-.2-.2-.2-.2-.54v-.51q0-.35.2-.55.2-.2.56-.2.35 0 .55.2.2.2.2.54v.52q0 .34-.2.54t-.55.2zm0-.28q.2 0 .32-.12.12-.11.12-.34v-.51q0-.23-.12-.35-.12-.11-.32-.11t-.33.11q-.11.12-.11.35v.51q0 .23.11.34.12.12.33.12zM196.85 29.48v-1.94h.3v.35q.1-.38.52-.38.3 0 .48.2.19.18.19.51v.12h-.32v-.1q0-.22-.11-.34-.11-.12-.32-.12-.2 0-.31.12-.12.12-.12.35v1.23zM199.63 29.52q-.23 0-.4-.1-.17-.08-.27-.25-.09-.17-.09-.4v-.52q0-.23.1-.4.09-.16.26-.25.17-.1.4-.1t.4.1q.17.1.26.26.1.16.1.39v.34h-1.2v.19q0 .23.1.35.12.12.34.12.18 0 .3-.06.1-.07.13-.2h.32q-.03.24-.24.39-.2.14-.51.14zm-.45-1.17h.9v-.1q0-.23-.12-.35-.11-.13-.33-.13-.22 0-.33.13-.12.12-.12.35zM201.69 29.51q-.3 0-.48-.13-.18-.14-.2-.37h.31q.02.1.12.16.1.06.25.06h.14q.2 0 .28-.07.1-.08.1-.2 0-.25-.33-.3l-.26-.04q-.29-.05-.43-.18t-.14-.38q0-.26.17-.4.16-.14.5-.14h.13q.28 0 .45.13.17.13.2.35h-.32q-.02-.1-.1-.15-.09-.05-.23-.05h-.14q-.18 0-.26.06-.08.07-.08.2t.07.18q.07.06.22.08l.26.05q.32.04.46.18.14.13.14.39t-.17.42q-.17.15-.52.15zM172.05 33.97q-.3 0-.47-.13-.18-.14-.2-.37h.3q.03.1.12.16.1.06.25.06h.15q.19 0 .28-.07.1-.08.1-.2 0-.25-.34-.3l-.26-.04q-.28-.05-.42-.18-.14-.13-.14-.38 0-.26.16-.4.17-.14.5-.14h.14q.27 0 .44.13.17.13.2.35h-.31q-.02-.1-.1-.14-.09-.06-.23-.06h-.14q-.18 0-.26.07-.08.06-.08.2 0 .12.07.17.07.06.22.08l.26.05q.31.05.45.18.15.13.15.39 0 .27-.17.42-.17.15-.52.15zM174.06 33.98q-.3 0-.48-.16-.18-.15-.18-.42t.18-.43q.17-.15.47-.15h.6v-.2q0-.17-.1-.27-.11-.1-.31-.1-.17 0-.29.07-.1.07-.13.2h-.32q.03-.25.24-.4.2-.15.5-.15.34 0 .54.17.19.18.19.47v1.33h-.31v-.37q-.03.2-.19.3-.16.11-.41.11zm.08-.25q.22 0 .37-.11.14-.12.14-.3v-.27h-.59q-.16 0-.25.1-.1.08-.1.23 0 .16.12.26.11.09.3.09zm.35-2.08q-.1 0-.17-.03-.07-.04-.11-.1l-.09-.08q-.04-.04-.1-.04-.1 0-.1.13v.1h-.24v-.1q0-.16.1-.25.08-.09.22-.09.1 0 .17.04t.12.09l.08.08q.05.04.1.04.11 0 .11-.12v-.1h.23v.1q0 .16-.09.24-.08.1-.23.1zM176.35 33.97q-.36 0-.56-.2-.2-.2-.2-.54v-.51q0-.35.2-.55.2-.2.56-.2.35 0 .55.2.2.2.2.54v.52q0 .34-.2.55-.2.2-.55.2zm0-.28q.2 0 .32-.12.12-.11.12-.34v-.51q0-.23-.12-.34-.12-.12-.32-.12t-.33.12q-.11.11-.11.34v.51q0 .23.11.34.12.12.33.12zM180.36 33.94l-.64-1.94h.33l.43 1.31.06.23.05.16.04-.16.07-.23.42-1.3h.32l-.65 1.93zM182.7 33.98q-.23 0-.4-.1-.18-.08-.27-.25-.1-.17-.1-.4v-.52q0-.23.1-.4.1-.16.26-.25.18-.1.4-.1.24 0 .4.1.18.1.27.26.1.16.1.39v.34h-1.21v.19q0 .23.11.35.12.12.34.12.18 0 .3-.06.1-.07.13-.2h.32q-.03.24-.24.39-.2.14-.51.14zm-.45-1.17h.9v-.1q0-.23-.12-.35-.12-.13-.33-.13-.22 0-.34.13-.11.12-.11.35zM184.15 33.94V32h.3v.35q.1-.38.52-.38.3 0 .48.2.19.18.19.51v.12h-.32v-.09q0-.23-.11-.35-.11-.12-.32-.12-.2 0-.31.12-.12.12-.12.35v1.23zM186.17 33.94v-.28h.69v-1.37h-.6V32h.92v1.66h.65v.28zm.81-2.28q-.11 0-.18-.06-.07-.06-.07-.17 0-.1.07-.16.07-.07.18-.07.12 0 .19.07.06.06.06.16t-.06.17q-.07.06-.19.06zM188.76 33.94V32.5h-.56v-.3h.56v-.33q0-.23.15-.36.14-.13.4-.13h.57v.29h-.57q-.23 0-.23.2v.34h.8v.29h-.8v1.45zM190.4 33.94v-.28h.7v-1.37h-.6V32h.91v1.66h.65v.28zm.82-2.28q-.12 0-.19-.06-.06-.06-.06-.17 0-.1.06-.16.07-.07.19-.07.11 0 .18.07.07.06.07.16t-.07.17q-.07.06-.18.06zM193.3 33.98q-.36 0-.57-.2-.2-.2-.2-.54v-.53q0-.35.2-.54.21-.2.56-.2.34 0 .54.18t.22.49h-.32q-.01-.19-.13-.29-.1-.1-.3-.1-.21 0-.34.12-.12.12-.12.34v.53q0 .22.12.34.13.12.33.12t.31-.1q.12-.1.13-.29h.32q-.01.31-.22.49-.2.18-.54.18zM195.23 33.98q-.31 0-.49-.16-.17-.15-.17-.42t.17-.43q.18-.15.48-.15h.6v-.2q0-.17-.11-.27-.1-.1-.3-.1-.18 0-.29.07-.11.07-.14.2h-.31q.03-.25.23-.4.2-.15.51-.15.34 0 .53.17.2.18.2.47v1.33h-.31v-.37q-.03.2-.2.3-.15.11-.4.11zm.07-.25q.23 0 .37-.11.15-.12.15-.3v-.27h-.6q-.15 0-.24.1-.1.08-.1.23 0 .16.11.26.12.09.31.09zM197.4 33.98q-.29 0-.47-.2-.18-.19-.18-.52v-.57q0-.33.18-.53t.47-.2q.22 0 .36.12.14.1.17.3v-1.01h.32v2.57h-.32v-.37q-.03.2-.17.3-.14.11-.36.11zm.1-.27q.2 0 .32-.13.1-.12.1-.34v-.53q0-.22-.1-.34-.12-.13-.31-.13-.2 0-.32.12t-.12.35v.53q0 .23.12.35.11.12.32.12zM199.63 33.97q-.35 0-.56-.2-.2-.2-.2-.54v-.51q0-.35.2-.55.2-.2.56-.2.35 0 .55.2.2.2.2.54v.52q0 .34-.2.55-.2.2-.55.2zm0-.28q.2 0 .32-.12.12-.11.12-.34v-.51q0-.23-.12-.34-.11-.12-.32-.12-.2 0-.33.12-.11.11-.11.34v.51q0 .23.11.34.12.12.33.12zM201.69 33.97q-.3 0-.48-.13-.18-.14-.2-.37h.31q.02.1.12.16.1.06.25.06h.14q.2 0 .28-.07.1-.08.1-.2 0-.25-.33-.3l-.26-.04q-.29-.05-.43-.18t-.14-.38q0-.26.17-.4.16-.14.5-.14h.13q.28 0 .45.13.17.13.2.35h-.32q-.02-.1-.1-.14-.09-.06-.23-.06h-.14q-.18 0-.26.07-.08.06-.08.2 0 .12.07.17.07.06.22.08l.26.05q.32.05.46.18t.14.39q0 .27-.17.42-.17.15-.52.15z"/></g><path fill="gray" fill-rule="evenodd" d="M185.5 48.36v-2.15h-1.93l1.69-2.95 1.69-2.94 1.69 2.94 1.69 2.95h-1.94v2.15z"/><path fill="#4d4d4d" fill-rule="evenodd" d="M185.5 77.28v-2.16h-1.93l1.69-2.94 1.69-2.95 1.69 2.95 1.69 2.94h-1.94v2.16z"/><g fill="#4d4d4d" stroke-width=".26" style="line-height:1.25" aria-label="Borbulhamento" font-family="JetBrains Mono" font-size="4.23" font-weight="700"><path style="-inkscape-font-specification:'JetBrains Mono Bold'" d="M170.75 14.12v-3.1h.95q.45 0 .7.22.27.21.27.58 0 .28-.16.45-.16.18-.4.22.27.04.45.23.18.2.18.51 0 .4-.27.65-.27.24-.73.24zm.51-1.82h.43q.2 0 .33-.11.12-.12.12-.31 0-.2-.12-.3-.12-.12-.33-.12h-.43zm0 1.37h.45q.23 0 .36-.12.14-.12.14-.34 0-.22-.14-.35-.13-.13-.36-.13h-.45zM174.23 14.15q-.45 0-.7-.24-.27-.25-.27-.67v-.58q0-.42.26-.66.26-.25.71-.25.45 0 .71.25.27.24.27.66v.58q0 .42-.27.67-.26.24-.7.24zm0-.46q.21 0 .33-.11.12-.12.12-.34v-.58q0-.22-.12-.33-.12-.12-.33-.12-.2 0-.33.12-.11.11-.11.33v.58q0 .22.11.34.12.11.33.11zM175.9 14.12v-2.33h.5v.44q.11-.49.64-.49.38 0 .6.24.21.23.21.64v.17h-.55v-.13q0-.23-.12-.35-.12-.12-.32-.12t-.32.12q-.11.12-.11.35v1.46zM179.51 14.16q-.26 0-.42-.13-.16-.13-.2-.36v.45h-.52v-3.1h.53v.66l-.02.55h.01q.04-.23.2-.35.16-.14.42-.14.35 0 .56.25.22.24.22.65v.63q0 .4-.22.65-.2.24-.56.24zm-.19-.46q.2 0 .32-.12t.12-.34v-.58q0-.22-.12-.34-.11-.12-.32-.12-.2 0-.31.12-.11.12-.11.34v.58q0 .22.1.34.12.12.32.12zM181.85 14.16q-.44 0-.7-.25-.25-.25-.25-.68V11.8h.53v1.44q0 .22.1.35.12.12.32.12t.31-.12q.12-.13.12-.35v-1.44h.52v1.44q0 .43-.25.68-.26.25-.7.25zM184.77 14.12q-.35 0-.56-.21-.2-.21-.2-.55V11.5h-.77v-.48h1.3v2.34q0 .12.06.2.08.08.2.08h.69v.48zM185.99 14.12v-3.1h.53v.77l-.02.44h.01q.04-.23.2-.35.16-.14.42-.14.34 0 .55.23.2.23.2.62v1.53h-.52v-1.48q0-.21-.12-.32-.1-.12-.3-.12-.2 0-.31.12-.11.12-.11.34v1.46zM189.21 14.16q-.36 0-.56-.19-.21-.19-.21-.52 0-.34.23-.52.23-.2.65-.2h.58v-.19q0-.17-.11-.26-.11-.1-.3-.1-.18 0-.3.08-.1.07-.13.2h-.51q.03-.33.3-.52.25-.2.65-.2.43 0 .67.22.25.21.25.58v1.58h-.5v-.41h-.02q-.04.2-.22.33-.19.12-.47.12zm.18-.4q.22 0 .36-.11.15-.12.15-.3v-.28h-.58q-.16 0-.25.09-.1.1-.1.24 0 .17.1.27.12.09.32.09zM190.96 14.12v-2.33h.43v.31h.03q.02-.16.12-.26.1-.1.26-.1.14 0 .25.1.1.1.13.26h.02q.02-.16.13-.26.1-.1.27-.1.2 0 .34.17.13.16.13.43v1.78h-.47v-1.74q0-.25-.2-.25t-.2.25v1.74h-.38v-1.74q0-.25-.2-.25t-.2.25v1.74zM194.56 14.16q-.3 0-.52-.12-.22-.11-.34-.31-.12-.21-.12-.49v-.58q0-.28.12-.48.12-.2.34-.32.22-.12.52-.12.29 0 .5.12.22.11.34.32.13.2.13.48v.42h-1.44v.16q0 .5.47.5.36 0 .43-.24h.52q-.06.3-.32.48t-.63.18zm-.47-1.5v.09h.92v-.1q0-.24-.11-.36-.11-.13-.34-.13-.24 0-.35.13-.12.13-.12.37zM196.15 14.12v-2.33h.51v.44h.01q.04-.23.2-.35.16-.14.42-.14.34 0 .55.23.2.23.2.62v1.53h-.52v-1.48q0-.21-.12-.32-.1-.12-.3-.12-.2 0-.31.12-.11.12-.11.34v1.46zM199.89 14.12q-.34 0-.53-.2-.19-.18-.19-.5v-1.15h-.63v-.48h.63v-.66h.54v.66h.9v.48h-.9v1.15q0 .22.21.22h.64v.48zM202.17 14.15q-.45 0-.7-.24-.27-.25-.27-.67v-.58q0-.42.26-.66.26-.25.71-.25.45 0 .71.25.27.24.27.66v.58q0 .42-.27.67-.26.24-.7.24zm0-.46q.21 0 .33-.11.12-.12.12-.34v-.58q0-.22-.12-.33-.12-.12-.33-.12-.2 0-.33.12-.11.11-.11.33v.58q0 .22.11.34.12.11.33.11z"/></g><path fill="#323232" fill-opacity=".28" fill-rule="evenodd" stroke="gray" stroke-width=".53" d="M164.95 48.63h44v17h-44z"/><g fill="#666" stroke-width=".26" style="line-height:1.25" aria-label="&lt;div&gt; é verificado e o ouvinte é executado" font-family="sans-serif" font-size="3.53" font-weight="400"><path d="M169.75 53.74l-1.58-.74v-.45l1.58-.74v.4l-1.03.48-.14.06-.1.02.1.03.14.05 1.03.48zM170.9 53.97q-.29 0-.46-.2-.18-.2-.18-.54v-.52q0-.35.18-.55.17-.2.47-.2.21 0 .35.11.13.1.16.3h.01l-.01-.46v-.55h.44v2.58h-.43v-.37q-.04.2-.17.3-.14.1-.35.1zm.16-.38q.17 0 .26-.1.1-.1.1-.28v-.49q0-.18-.1-.27-.09-.1-.26-.1t-.26.1q-.1.1-.1.27v.5q0 .17.1.27t.26.1zM172.4 53.94v-.4h.68V52.4h-.6V52h1.02v1.54h.6v.4zm.85-2.27q-.13 0-.2-.06-.09-.07-.09-.2 0-.1.08-.17.08-.08.21-.08.14 0 .21.08.08.06.08.18t-.08.19q-.07.06-.2.06zM175.02 53.94l-.64-1.94h.46l.37 1.18q.04.1.06.21l.04.18.04-.18.06-.21.37-1.18h.45l-.64 1.94zM176.63 53.74v-.4l1.02-.48.14-.05.11-.03-.1-.03-.15-.05-1.02-.48v-.41l1.58.74V53z" font-weight="700"/><path style="-inkscape-font-specification:'JetBrains Mono';text-align:center" d="M181.66 53.97q-.23 0-.4-.09-.18-.1-.27-.26-.1-.17-.1-.39v-.53q0-.22.1-.39.1-.16.26-.26.18-.09.4-.09.23 0 .4.1.18.09.27.25.1.17.1.4v.34h-1.21v.18q0 .23.11.35.12.12.34.12.18 0 .3-.06.1-.07.13-.2h.32q-.04.25-.24.4-.2.13-.51.13zm-.45-1.16h.9v-.1q0-.24-.12-.36t-.33-.12q-.22 0-.34.12-.11.12-.11.35zm.24-1.15l.37-.5h.35l-.4.5zM185.67 53.94l-.65-1.94h.34l.43 1.3.06.23.05.16.04-.16.07-.23.42-1.3h.32l-.65 1.94zM188 53.97q-.22 0-.4-.09-.17-.1-.26-.26-.1-.17-.1-.39v-.53q0-.22.1-.39.1-.16.26-.26.18-.09.4-.09.23 0 .4.1.18.09.27.25.1.17.1.4v.34h-1.21v.18q0 .23.11.35.12.12.34.12.18 0 .3-.06.1-.07.13-.2h.32q-.03.25-.24.4-.2.13-.51.13zm-.44-1.16h.9v-.1q0-.24-.12-.36t-.33-.12q-.22 0-.34.12-.11.12-.11.35zM189.46 53.94V52h.3v.34q.1-.38.52-.38.3 0 .48.2.19.19.19.51v.12h-.32v-.09q0-.23-.11-.35-.11-.12-.32-.12-.2 0-.31.12-.12.13-.12.35v1.24zM191.48 53.94v-.3h.69V52.3h-.6v-.3h.92v1.66h.65v.29zm.81-2.3q-.11 0-.18-.05-.07-.06-.07-.16 0-.11.07-.17.07-.06.18-.06.12 0 .19.06.06.06.06.17 0 .1-.06.16-.07.06-.19.06zM194.07 53.94v-1.46h-.56v-.29h.56v-.33q0-.23.15-.36.14-.14.4-.14h.56v.3h-.56q-.23 0-.23.2v.33h.8v.3h-.8v1.45zM195.71 53.94v-.3h.7V52.3h-.6v-.3h.9v1.66h.66v.29zm.81-2.3q-.11 0-.18-.05-.07-.06-.07-.16 0-.11.07-.17.07-.06.18-.06.12 0 .19.06t.07.17q0 .1-.07.16t-.19.06zM198.6 53.97q-.35 0-.56-.2-.21-.2-.21-.54v-.53q0-.34.2-.54.22-.2.57-.2.34 0 .54.18t.22.5h-.32q-.01-.2-.13-.3-.11-.1-.3-.1-.22 0-.34.12-.12.12-.12.34v.53q0 .22.12.34.12.12.33.12.2 0 .31-.1.12-.1.13-.29h.32q-.01.31-.22.5-.2.17-.54.17zM200.54 53.97q-.31 0-.49-.15-.17-.16-.17-.43t.17-.43q.18-.15.48-.15h.6v-.2q0-.17-.11-.27-.1-.1-.3-.1-.18 0-.29.07-.11.08-.14.2h-.31q.03-.25.23-.4.2-.15.51-.15.34 0 .53.17.2.18.2.47v1.34h-.31v-.37q-.03.18-.2.3-.15.1-.4.1zm.07-.25q.23 0 .37-.11.15-.11.15-.29v-.27h-.6q-.15 0-.24.08-.1.1-.1.24 0 .17.11.26.12.1.31.1zM202.7 53.97q-.28 0-.46-.2-.18-.19-.18-.52v-.56q0-.34.18-.53.18-.2.47-.2.22 0 .36.11.14.11.16.3h.02l-.01-.44v-.57h.32v2.58h-.32v-.37q-.03.19-.17.3-.14.1-.36.1zm.11-.27q.2 0 .32-.13.1-.12.1-.34v-.53q0-.22-.1-.34-.12-.12-.32-.12t-.31.12q-.12.12-.12.34v.53q0 .23.12.35.11.12.31.12zM204.94 53.97q-.35 0-.56-.2-.2-.2-.2-.55v-.51q0-.35.2-.54.2-.2.56-.2.35 0 .55.2.2.2.2.54v.51q0 .35-.2.55-.2.2-.55.2zm0-.29q.2 0 .32-.11.12-.12.12-.35v-.51q0-.23-.12-.34-.11-.12-.32-.12-.2 0-.33.12-.11.11-.11.34v.51q0 .23.11.35.12.11.33.11zM174.25 58.43q-.23 0-.4-.09t-.27-.26q-.1-.16-.1-.39v-.53q0-.22.1-.39.1-.16.26-.25.18-.1.4-.1.24 0 .4.1.18.09.27.25.1.17.1.4v.34h-1.21v.18q0 .23.12.36.11.12.33.12.18 0 .3-.07.1-.06.13-.2h.32q-.03.25-.24.4-.2.13-.51.13zm-.45-1.16h.9v-.1q0-.24-.12-.36-.11-.12-.33-.12-.22 0-.33.12-.12.12-.12.35zM178.48 58.43q-.35 0-.56-.2-.2-.2-.2-.54v-.52q0-.34.2-.54t.56-.2q.35 0 .55.2.2.2.2.54v.52q0 .34-.2.54t-.55.2zm0-.29q.2 0 .32-.11.12-.12.12-.34v-.52q0-.22-.12-.34-.11-.12-.32-.12-.2 0-.32.12t-.12.34v.52q0 .22.12.34.12.11.32.11zM182.71 58.43q-.35 0-.55-.2-.2-.2-.2-.54v-.52q0-.34.2-.54t.55-.2q.36 0 .56.2.2.2.2.54v.52q0 .34-.2.54t-.56.2zm0-.29q.21 0 .33-.11.11-.12.11-.34v-.52q0-.22-.11-.34-.12-.12-.33-.12-.2 0-.32.12t-.12.34v.52q0 .22.12.34.12.11.32.11zM184.83 58.43q-.34 0-.54-.2t-.2-.54v-1.23h.32v1.23q0 .22.11.35.11.12.3.12.2 0 .32-.12.11-.13.11-.35v-1.23h.32v1.23q0 .35-.2.55-.2.2-.54.2zM186.73 58.4l-.65-1.94h.34l.43 1.3.06.23.04.17.05-.17.07-.23.42-1.3h.32l-.65 1.94zM188.3 58.4v-.29h.7v-1.36h-.6v-.3h.91v1.66h.65v.29zm.82-2.3q-.12 0-.19-.05-.06-.06-.06-.16t.06-.17q.07-.06.19-.06.11 0 .18.06.07.06.07.17 0 .1-.07.16t-.18.06zM190.45 58.4v-1.94h.31v.37q.03-.2.17-.3.13-.1.35-.1.3 0 .47.17.17.18.17.5v1.3h-.32v-1.27q0-.2-.1-.32-.12-.11-.3-.11-.2 0-.32.12t-.12.34v1.24zM193.5 58.4q-.24 0-.38-.14-.14-.13-.14-.37v-1.14h-.55v-.3h.55v-.54h.32v.55h.77v.29h-.77v1.14q0 .22.2.22h.54v.29zM195.41 58.43q-.23 0-.4-.09t-.26-.26q-.1-.16-.1-.39v-.53q0-.22.1-.39.1-.16.26-.25.17-.1.4-.1t.4.1q.18.09.27.25.1.17.1.4v.34h-1.21v.18q0 .23.11.36.12.12.33.12.19 0 .3-.07.11-.06.14-.2h.32q-.04.25-.24.4-.2.13-.52.13zm-.44-1.16h.9v-.1q0-.24-.12-.36t-.34-.12q-.21 0-.33.12-.11.12-.11.35zM199.65 58.43q-.23 0-.4-.09t-.27-.26q-.1-.16-.1-.39v-.53q0-.22.1-.39.1-.16.26-.25.18-.1.4-.1.24 0 .4.1.18.09.27.25.1.17.1.4v.34h-1.21v.18q0 .23.12.36.11.12.33.12.18 0 .3-.07.1-.06.13-.2h.32q-.03.25-.24.4-.2.13-.51.13zm-.45-1.16h.9v-.1q0-.24-.12-.36-.11-.12-.33-.12-.22 0-.33.12-.12.12-.12.35zm.24-1.15l.38-.49h.34l-.4.5zM178.48 62.9q-.23 0-.4-.1-.17-.09-.27-.25-.09-.17-.09-.4v-.52q0-.23.1-.4.09-.16.26-.25.17-.1.4-.1t.4.1q.17.09.26.25.1.17.1.4v.34h-1.2v.18q0 .23.1.36.13.12.34.12.18 0 .3-.07.11-.06.13-.2h.32q-.03.25-.24.4-.2.14-.51.14zm-.45-1.17h.9v-.1q0-.23-.12-.36-.11-.12-.33-.12-.21 0-.33.12-.12.13-.12.36zM179.72 62.86l.68-1-.64-.94h.37l.39.6.04.08.04.08.03-.08.05-.08.39-.6h.37l-.65.95.69.99h-.37l-.42-.63-.05-.1-.04-.08-.04.09-.05.09-.42.63zM182.71 62.9q-.23 0-.4-.1-.17-.09-.26-.25-.1-.17-.1-.4v-.52q0-.23.1-.4.1-.16.26-.25.17-.1.4-.1t.4.1q.18.09.27.25.1.17.1.4v.34h-1.21v.18q0 .23.11.36.12.12.33.12.19 0 .3-.07.11-.06.14-.2h.32q-.04.25-.24.4-.2.14-.52.14zm-.44-1.17h.9v-.1q0-.23-.12-.36-.12-.12-.34-.12-.21 0-.33.12-.11.13-.11.36zM184.84 62.9q-.35 0-.56-.2-.2-.2-.2-.55v-.52q0-.35.2-.55.21-.2.56-.2.34 0 .54.18t.22.5h-.32q0-.2-.13-.3-.1-.1-.3-.1-.21 0-.34.13-.12.11-.12.33v.53q0 .22.12.34.13.12.33.12t.31-.1q.12-.1.13-.28h.32q-.01.3-.22.49-.2.18-.54.18zM186.94 62.9q-.33 0-.53-.2t-.2-.55v-1.23h.31v1.23q0 .22.12.35.11.12.3.12.2 0 .31-.12.12-.13.12-.35v-1.23h.32v1.23q0 .35-.2.55-.21.2-.55.2zM189.28 62.86q-.26 0-.4-.13-.13-.14-.13-.38V61.2h-.55v-.29h.55v-.55h.31v.55h.78v.29h-.78v1.14q0 .22.22.22h.52v.29zM191.01 62.9q-.3 0-.48-.16t-.18-.43q0-.27.18-.42.17-.16.47-.16h.6v-.2q0-.17-.1-.27-.11-.1-.3-.1-.18 0-.3.08-.1.07-.13.2h-.32q.03-.26.24-.4.2-.16.5-.16.34 0 .54.18.2.17.2.47v1.33h-.32v-.37q-.02.19-.19.3-.16.1-.4.1zm.08-.26q.22 0 .37-.1.14-.12.14-.3v-.27h-.59q-.16 0-.25.09-.1.08-.1.24 0 .16.12.25.11.1.3.1zM193.18 62.9q-.29 0-.47-.2-.17-.2-.17-.52v-.57q0-.34.17-.53.18-.2.47-.2.22 0 .36.11.15.11.17.3h.01v-1.01h.31v2.58h-.32v-.37q-.03.19-.17.3-.14.1-.36.1zm.11-.28q.2 0 .31-.12.11-.13.11-.35v-.52q0-.22-.11-.35-.11-.12-.31-.12t-.32.12q-.11.12-.11.35v.52q0 .23.11.35.12.12.32.12zM195.41 62.89q-.35 0-.55-.2-.2-.2-.2-.54v-.52q0-.34.2-.54t.55-.2q.36 0 .56.2.2.2.2.54v.52q0 .34-.2.54t-.56.2zm0-.28q.21 0 .33-.12.11-.12.11-.34v-.52q0-.22-.11-.34-.12-.12-.33-.12-.2 0-.32.12t-.12.34v.52q0 .22.12.34.12.12.32.12z" font-family="JetBrains Mono" text-anchor="middle"/></g><path fill="#333" fill-opacity=".45" fill-rule="evenodd" stroke="#4d4d4d" stroke-width=".53" d="M164.95 77.54h44v17h-44z"/><g fill="#4d4d4d" stroke-width=".26" style="line-height:1.25" aria-label="&lt;video&gt; é verificado e o ouvinte é executado" font-family="sans-serif" font-size="3.53" font-weight="400"><path d="M167.63 82.66l-1.58-.75v-.44l1.58-.74v.4l-1.02.47q-.07.04-.15.06l-.1.03q.04 0 .1.03l.15.05 1.02.47zM168.67 82.85l-.64-1.94h.46l.37 1.18q.04.1.06.22l.04.18.04-.18.06-.22.37-1.18h.45l-.64 1.94zM170.28 82.85v-.4h.68v-1.14h-.59v-.4h1.01v1.54h.6v.4zm.86-2.26q-.14 0-.22-.07-.07-.07-.07-.19 0-.11.07-.18.08-.07.22-.07.13 0 .2.07.08.07.08.18 0 .12-.07.2-.08.06-.21.06zM173.02 82.89q-.29 0-.47-.2-.17-.2-.17-.54v-.53q0-.34.17-.54.18-.2.47-.2.22 0 .35.1.14.11.17.3v-1h.44v2.57h-.43v-.37h-.01q-.03.2-.17.3-.13.1-.35.1zm.16-.38q.17 0 .26-.1.1-.1.1-.28v-.5q0-.17-.1-.27t-.26-.1q-.17 0-.27.1t-.1.28v.49q0 .18.1.28.1.1.27.1zM175.3 82.89q-.24 0-.42-.1t-.29-.26q-.1-.17-.1-.4v-.5q0-.22.1-.39t.29-.27q.18-.1.43-.1.24 0 .42.1.19.1.28.27.1.17.1.4v.35h-1.19v.14q0 .4.4.4.3 0 .35-.2h.43q-.05.26-.27.41-.21.15-.52.15zm-.38-1.25v.07h.77v-.07q0-.2-.1-.31-.1-.11-.28-.11-.2 0-.3.1-.09.12-.09.32zM177.42 82.88q-.37 0-.6-.2-.2-.2-.2-.56v-.48q0-.35.2-.55.23-.2.6-.2.38 0 .6.2.21.2.21.55v.48q0 .35-.22.56-.21.2-.59.2zm0-.38q.18 0 .27-.1.1-.1.1-.28v-.48q0-.18-.1-.28-.1-.1-.27-.1t-.27.1q-.1.1-.1.28v.48q0 .19.1.28.1.1.27.1zM178.75 82.66v-.41l1.02-.47.14-.06.1-.03-.1-.02-.14-.06-1.02-.47v-.41l1.58.74v.44z" font-weight="700"/><path style="-inkscape-font-specification:'JetBrains Mono';text-align:center" d="M183.77 82.89q-.23 0-.4-.1-.17-.09-.26-.25-.1-.17-.1-.4v-.52q0-.23.1-.4.1-.16.26-.25.17-.1.4-.1t.4.1q.17.1.27.26.09.16.09.39v.34h-1.2v.19q0 .23.11.35.12.12.33.12.19 0 .3-.06.11-.07.14-.2h.31q-.03.24-.24.39-.2.14-.5.14zm-.45-1.17h.9v-.1q0-.23-.12-.35-.1-.13-.33-.13-.21 0-.33.13-.12.12-.12.35zm.25-1.14l.37-.5h.34l-.39.5zM187.79 82.85l-.65-1.94h.34l.43 1.3.06.23.04.17.05-.17.07-.22.42-1.3h.32l-.65 1.93zM190.12 82.89q-.23 0-.4-.1-.17-.09-.26-.25-.1-.17-.1-.4v-.52q0-.23.1-.4.09-.16.26-.25.17-.1.4-.1t.4.1q.17.1.27.26.09.16.09.39v.34h-1.2v.19q0 .23.11.35.12.12.33.12.19 0 .3-.06.11-.07.14-.2h.31q-.03.24-.24.39-.2.14-.5.14zm-.45-1.17h.9v-.1q0-.23-.12-.35-.1-.13-.33-.13-.21 0-.33.13-.12.12-.12.35zM191.57 82.85v-1.94h.31v.35q.1-.38.51-.38.31 0 .5.2.17.18.17.51v.12h-.31v-.1q0-.22-.12-.34-.1-.12-.31-.12-.2 0-.32.12-.11.12-.11.35v1.23zM193.6 82.85v-.29h.68V81.2h-.6v-.29h.92v1.65h.65v.3zm.8-2.29q-.1 0-.18-.06-.06-.06-.06-.16t.06-.16q.07-.07.19-.07.11 0 .18.07.07.06.07.16t-.07.16q-.07.06-.18.06zM196.19 82.85V81.4h-.56v-.3h.56v-.33q0-.23.14-.36.15-.13.4-.13h.57v.29h-.57q-.22 0-.22.2v.34h.8v.29h-.8v1.45zM197.83 82.85v-.29h.69V81.2h-.6v-.29h.92v1.65h.65v.3zm.81-2.29q-.11 0-.18-.06-.07-.06-.07-.16t.07-.16q.07-.07.18-.07.12 0 .19.07.06.06.06.16t-.06.16q-.07.06-.19.06zM200.72 82.89q-.35 0-.56-.2-.21-.2-.21-.54v-.53q0-.35.2-.55.22-.2.57-.2.33 0 .54.19.2.18.21.49h-.31q-.01-.19-.13-.29-.11-.1-.31-.1t-.33.12q-.13.12-.13.33v.54q0 .22.13.34.12.12.33.12.2 0 .31-.1.12-.1.13-.3h.31q0 .32-.21.5-.2.18-.54.18zM202.65 82.89q-.3 0-.48-.16t-.18-.42q0-.28.18-.43.18-.16.48-.16h.6v-.19q0-.18-.11-.28-.11-.1-.3-.1-.18 0-.3.08-.1.07-.13.2h-.32q.03-.26.24-.4.2-.15.51-.15.33 0 .53.17t.2.47v1.33h-.32v-.37q-.02.19-.19.3-.15.1-.4.1zm.08-.25q.23 0 .37-.12.15-.1.15-.28v-.28h-.6q-.16 0-.25.09t-.09.24q0 .16.11.26.11.09.31.09zM204.83 82.89q-.3 0-.47-.2-.18-.19-.18-.52v-.57q0-.33.18-.53.17-.2.47-.2.21 0 .36.12.14.1.16.3h.01v-1.01h.31v2.57h-.31v-.37q-.03.2-.17.3-.15.1-.36.1zm.1-.28q.2 0 .31-.12.11-.12.11-.34v-.53q0-.22-.1-.34-.12-.13-.32-.13t-.32.12q-.11.12-.11.35v.53q0 .22.11.34.12.12.32.12zM207.06 82.88q-.36 0-.56-.2-.2-.2-.2-.54v-.51q0-.35.2-.55.2-.2.56-.2.35 0 .55.2.2.2.2.54v.52q0 .34-.2.54t-.55.2zm0-.28q.2 0 .32-.12.12-.11.12-.34v-.51q0-.23-.12-.35-.12-.11-.32-.11t-.33.11q-.12.12-.12.35v.51q0 .23.12.34.12.12.33.12zM174.25 87.35q-.23 0-.4-.1-.17-.08-.27-.25-.1-.17-.1-.4v-.52q0-.23.1-.4.1-.16.26-.25.18-.1.4-.1.24 0 .4.1.18.1.27.26.1.16.1.39v.34h-1.21v.19q0 .23.12.35.11.12.33.12.18 0 .3-.06.1-.07.13-.2h.32q-.03.24-.24.39-.2.14-.51.14zm-.45-1.17h.9v-.1q0-.23-.12-.35-.11-.13-.33-.13-.22 0-.33.13-.12.12-.12.35zM178.48 87.34q-.35 0-.56-.2-.2-.2-.2-.54v-.51q0-.35.2-.55.2-.2.56-.2.35 0 .55.2.2.2.2.54v.52q0 .34-.2.54t-.55.2zm0-.28q.2 0 .32-.12.12-.11.12-.34v-.51q0-.23-.12-.35-.11-.11-.32-.11-.2 0-.32.11-.12.12-.12.35v.51q0 .23.12.34.12.12.32.12zM182.71 87.34q-.35 0-.55-.2-.2-.2-.2-.54v-.51q0-.35.2-.55.2-.2.55-.2.36 0 .56.2.2.2.2.54v.52q0 .34-.2.54t-.56.2zm0-.28q.21 0 .33-.12.11-.11.11-.34v-.51q0-.23-.11-.35-.12-.11-.33-.11-.2 0-.32.11-.12.12-.12.35v.51q0 .23.12.34.12.12.32.12zM184.83 87.35q-.34 0-.54-.2t-.2-.54v-1.24h.32v1.24q0 .22.11.34.11.12.3.12.2 0 .32-.12.11-.12.11-.34v-1.24h.32v1.24q0 .34-.2.54t-.54.2zM186.73 87.31l-.65-1.94h.34l.43 1.3.06.23.04.17.05-.17.07-.22.42-1.3h.32l-.65 1.93zM188.3 87.31v-.29h.7v-1.36h-.6v-.29h.91v1.65h.65v.3zm.82-2.29q-.12 0-.19-.06-.06-.06-.06-.16t.06-.16q.07-.07.19-.07.11 0 .18.07.07.06.07.16t-.07.16q-.07.06-.18.06zM190.45 87.31v-1.94h.31v.37q.03-.19.17-.3.13-.1.35-.1.3 0 .47.18.17.18.17.49v1.3h-.32v-1.27q0-.2-.1-.31-.12-.12-.3-.12-.2 0-.32.12t-.12.35v1.23zM193.5 87.31q-.24 0-.38-.13t-.14-.38v-1.14h-.55v-.29h.55v-.54h.32v.54h.77v.3h-.77v1.13q0 .22.2.22h.54v.3zM195.41 87.35q-.23 0-.4-.1-.17-.08-.26-.25-.1-.17-.1-.4v-.52q0-.23.1-.4.1-.16.26-.25.17-.1.4-.1t.4.1q.18.1.27.26.1.16.1.39v.34h-1.21v.19q0 .23.11.35.12.12.33.12.19 0 .3-.06.11-.07.14-.2h.32q-.04.24-.24.39-.2.14-.52.14zm-.44-1.17h.9v-.1q0-.23-.12-.35-.12-.13-.34-.13-.21 0-.33.13-.11.12-.11.35zM199.65 87.35q-.23 0-.4-.1-.17-.08-.27-.25-.1-.17-.1-.4v-.52q0-.23.1-.4.1-.16.26-.25.18-.1.4-.1.24 0 .4.1.18.1.27.26.1.16.1.39v.34h-1.21v.19q0 .23.12.35.11.12.33.12.18 0 .3-.06.1-.07.13-.2h.32q-.03.24-.24.39-.2.14-.51.14zm-.45-1.17h.9v-.1q0-.23-.12-.35-.11-.13-.33-.13-.22 0-.33.13-.12.12-.12.35zm.24-1.14l.38-.5h.34l-.4.5zM178.48 91.81q-.23 0-.4-.1-.17-.08-.27-.25-.09-.17-.09-.39v-.53q0-.23.1-.4.09-.16.26-.25t.4-.09q.23 0 .4.1.17.08.26.25.1.16.1.4v.33h-1.2v.19q0 .23.1.35.13.12.34.12.18 0 .3-.06.11-.07.13-.2h.32q-.03.24-.24.39-.2.14-.51.14zm-.45-1.17h.9v-.1q0-.23-.12-.35-.11-.13-.33-.13-.21 0-.33.13-.12.12-.12.35zM179.72 91.78l.68-1-.64-.95h.37l.39.6.04.09.04.07.03-.07.05-.09.39-.6h.37l-.65.95.69 1h-.37l-.42-.64-.05-.09-.04-.08-.04.08-.05.09-.42.64zM182.71 91.81q-.23 0-.4-.1-.17-.08-.26-.25-.1-.17-.1-.39v-.53q0-.23.1-.4.1-.16.26-.25.17-.09.4-.09t.4.1q.18.08.27.25.1.16.1.4v.33h-1.21v.19q0 .23.11.35.12.12.33.12.19 0 .3-.06.11-.07.14-.2h.32q-.04.24-.24.39-.2.14-.52.14zm-.44-1.17h.9v-.1q0-.23-.12-.35-.12-.13-.34-.13-.21 0-.33.13-.11.12-.11.35zM184.84 91.81q-.35 0-.56-.2-.2-.2-.2-.54v-.53q0-.35.2-.54.21-.2.56-.2.34 0 .54.18t.22.49h-.32q0-.19-.13-.29-.1-.1-.3-.1-.21 0-.34.12-.12.12-.12.34v.53q0 .22.12.34.13.12.33.12t.31-.1q.12-.1.13-.29h.32q-.01.31-.22.5-.2.17-.54.17zM186.94 91.81q-.33 0-.53-.2t-.2-.54v-1.24h.31v1.24q0 .22.12.34.11.12.3.12.2 0 .31-.12.12-.12.12-.34v-1.24h.32v1.24q0 .34-.2.54-.21.2-.55.2zM189.28 91.78q-.26 0-.4-.14-.13-.13-.13-.38v-1.14h-.55v-.29h.55v-.54h.31v.54h.78v.3h-.78v1.13q0 .23.22.23h.52v.29zM191.01 91.81q-.3 0-.48-.15-.18-.16-.18-.43t.18-.43q.17-.15.47-.15h.6v-.2q0-.17-.1-.27-.11-.1-.3-.1-.18 0-.3.07-.1.07-.13.2h-.32q.03-.25.24-.4.2-.15.5-.15.34 0 .54.17.2.18.2.47v1.34h-.32v-.38q-.02.2-.19.3-.16.11-.4.11zm.08-.25q.22 0 .37-.11.14-.12.14-.3v-.27h-.59q-.16 0-.25.1-.1.08-.1.23 0 .16.12.26.11.09.3.09zM193.18 91.81q-.29 0-.47-.2-.17-.19-.17-.52v-.57q0-.33.17-.53.18-.19.47-.19.22 0 .36.1.15.12.17.3h.01v-1h.31v2.58h-.32v-.38q-.03.2-.17.3-.14.11-.36.11zm.11-.27q.2 0 .31-.13.11-.12.11-.34v-.53q0-.22-.11-.34-.11-.13-.31-.13t-.32.12q-.11.12-.11.35v.53q0 .23.11.35.12.12.32.12zM195.41 91.8q-.35 0-.55-.2-.2-.2-.2-.54v-.51q0-.35.2-.55.2-.2.55-.2.36 0 .56.2.2.2.2.54v.52q0 .34-.2.55-.2.2-.56.2zm0-.28q.21 0 .33-.12.11-.11.11-.34v-.51q0-.23-.11-.34-.12-.12-.33-.12-.2 0-.32.12-.12.11-.12.34v.51q0 .23.12.34.12.12.32.12z" font-family="JetBrains Mono" text-anchor="middle"/></g></svg>