<svg xmlns="http://www.w3.org/2000/svg" width="1024" height="512"><path d="M0 0h1024v512H0z" fill="#fff"/><path d="M414.707 63.162h237.398c9.02 0 16.28 7.26 16.28 16.28v89.54c0 9.02-7.26 16.282-16.28 16.282H414.707c-9.02 0-16.28-7.26-16.28-16.28V79.44c0-9.02 7.26-16.28 16.28-16.28z" fill="#3f51b5"/><path style="text-indent:0;text-align:start;line-height:normal;text-transform:none;block-progression:tb;-inkscape-font-specification:Sans" d="M192.883 123.056c-54.15 2.07-79.265 48.88-79.265 48.88a16.14 16.14 0 0 0 28.522 15.117s15.805-30.363 52.003-31.747c5.356-.204 16.534 3.61 29.68 11.69 13.147 8.083 28.208 19.645 43.84 31.344 15.633 11.7 31.817 23.537 48.376 32.452 16.557 8.915 33.907 15.48 52.305 13.102 32.977-4.264 57.652-27.78 74.83-48.577 17.178-20.798 27.312-40.716 27.312-40.716a16.136 16.136 0 1 0-28.723-14.713s-8.753 17.038-23.482 34.87c-14.73 17.833-34.994 34.672-54.07 37.138-7.628.987-19.197-2.12-32.854-9.473-13.657-7.353-28.938-18.402-44.344-29.932-15.407-11.53-30.96-23.52-46.31-32.956-15.35-9.437-30.59-17.136-47.82-16.478zM608.767 137.008a17.143 17.143 0 0 0-15.76 19.92s8.853 55.765 62.48 76.8c17.065 6.693 35.05 4.338 53.76.24s38.5-10.7 58-16.88 38.678-11.88 54.96-14.48c16.282-2.6 29.008-1.66 36.32 2 18.283 9.153 32.74 33.104 41.28 56.16 8.54 23.055 11.36 43.2 11.36 43.2a17.158 17.158 0 1 0 34-4.64s-3.24-23.592-13.2-50.48c-9.96-26.89-26.472-59.056-58.08-74.88-17.633-8.828-37.298-8.352-57.04-5.2-19.74 3.15-40.214 9.41-60 15.68s-38.935 12.57-54.96 16.08c-16.024 3.51-28.536 3.36-33.84 1.28-35.848-14.062-41.12-50.08-41.12-50.08a17.143 17.143 0 0 0-18.16-14.72z" color="#000" fill="#3f51b5" overflow="visible" font-family="Sans"/><g style="line-height:125%;-inkscape-font-specification:Droid Sans" font-size="14" letter-spacing="0" word-spacing="0" fill="#fff" font-family="LMSans10"><path d="M418.957 154.48l-.158-10.248-2.797.043.158 10.25 2.797-.044m5.59-.085l-.158-10.25-2.796.044.158 10.248 2.795-.043M443.01 169.523l-.16-10.356c-.056-3.656-2.71-6.124-6.007-6.073-2.33.036-3.933.634-5.603 1.628l.252 2.36c1.843-1.353 3.627-1.847 5.383-1.874 1.685-.026 3.14 1.386 3.18 4.038l.025 1.54c-5.374.155-9.902 1.73-9.854 4.884.024 1.54 1.036 4.428 4.154 4.38.502-.007 3.87-.13 5.923-1.776l.02 1.29 2.687-.04m-2.868-4.688c.01.68.024 1.577-1.183 2.276-1.03.66-2.392.718-2.786.724-1.72.027-3.346-.773-3.37-2.278-.037-2.508 5.764-2.85 7.304-2.944l.034 2.222M451.713 153.976l-.158-10.25-2.795.044.157 10.25 2.796-.044m5.59-.086l-.158-10.25-2.795.044.158 10.25 2.795-.044" style="-inkscape-font-specification:LMSans10"/></g><path style="text-indent:0;text-align:start;line-height:normal;text-transform:none;block-progression:tb;-inkscape-font-specification:Sans" d="M527.567 149.408a14.786 14.786 0 0 0-13.2 7.28s-15.133 24.924-25.68 55.44c-5.273 15.258-9.545 32.08-9.92 48.88-.375 16.798 3.47 34.382 15.92 47.76 7.41 7.963 18.09 11.612 27.6 11.6 9.51-.013 18.34-2.66 26.96-6.08 17.242-6.84 34.22-17.38 48.24-24.08 7.01-3.35 13.256-5.686 17.2-6.4 3.944-.714 4.268-.078 4.16-.16-.107-.083 1.632 1.334 2.56 8.48.93 7.145.744 18.973-1.68 35.52a14.786 14.786 0 1 0 29.2 4.24c2.655-18.12 3.34-32.068 1.84-43.6-1.5-11.533-5.518-21.63-13.92-28.08-8.4-6.45-18.863-6.993-27.44-5.44-8.577 1.552-16.54 4.85-24.64 8.72-16.197 7.74-32.99 17.927-46.48 23.28-6.745 2.676-12.554 3.995-16.08 4-3.525.005-4.265-.302-5.92-2.08-5.68-6.105-8.27-14.997-8-27.04.27-12.044 3.67-26.384 8.32-39.84 9.302-26.913 23.04-49.76 23.04-49.76a14.786 14.786 0 0 0-12.08-22.64z" color="#000" fill="#3f51b5" overflow="visible" font-family="Sans"/><g style="line-height:125%;-inkscape-font-specification:Droid Sans" font-size="14" letter-spacing="0" word-spacing="0" fill="#fff" font-family="LMSans10"><path d="M503.528 161.338l-.158-10.25-2.795.044.158 10.25 2.795-.044m5.59-.086l-.158-10.25-2.795.044.158 10.25 2.795-.044M528.12 176.372l-.033-2.08-4.48.07-.342-22.218-.716.01c-2.082 2.22-5.055 2.373-6.774 2.472l.032 2.078c1.182-.054 2.9-.152 4.682-.932l.287 18.634-4.48.07.032 2.078 11.79-.182M536.984 160.822l-.158-10.25-2.795.044.16 10.25 2.794-.044m5.59-.086l-.158-10.25-2.795.044.16 10.25 2.794-.044" style="-inkscape-font-specification:LMSans10"/></g><g style="line-height:125%;-inkscape-font-specification:Droid Sans" font-size="14" letter-spacing="0" word-spacing="0" fill="#fff" font-family="LMSans10"><path d="M606.385 162.71l-.158-10.25-2.795.043.158 10.25 2.795-.044m5.59-.087l-.158-10.25-2.795.044.158 10.25 2.795-.044M639.147 177.617l-10.344-12.96 8.455-11.886-3.44.054-6.593 9.457-7.096-9.245-3.728.057 9.32 11.613-9.438 13.265 3.44-.053 7.57-11.085 8.126 10.843 3.727-.058M645.86 162.1l-.158-10.248-2.795.043.158 10.25 2.795-.044m5.59-.085l-.157-10.25-2.795.044.158 10.248 2.795-.043" style="-inkscape-font-specification:LMSans10"/></g><path d="M129.746 203.17h33.618c28.295 0 51.073 22.778 51.073 51.073 0 28.294-22.778 51.073-51.073 51.073h-33.618c-28.295 0-51.073-22.78-51.073-51.073 0-28.295 22.778-51.074 51.073-51.074z" fill="#e91e63"/><path d="M490.265 346.692h106.48c8.11 0 14.642 6.53 14.642 14.642v72.862c0 8.112-6.53 14.642-14.643 14.642h-106.48c-8.11 0-14.642-6.53-14.642-14.642v-72.862c0-8.112 6.53-14.642 14.643-14.642z" fill="#ffab00"/><path d="M910.07 331.176c0 29.278-23.736 53.013-53.014 53.013-29.278 0-53.013-23.736-53.013-53.014 0-29.278 23.735-53.013 53.013-53.013s53.013 23.735 53.013 53.013z" fill="#ff1744"/><g style="line-height:125%;-inkscape-font-specification:Droid Sans" font-size="12.357" letter-spacing="0" word-spacing="0" fill="#fff" font-family="Droid Sans Mono"><path d="M119.925 265.457h-2.72v-14.103c0-1.256.042-3.115.125-5.576-.402.443-1.025 1.024-1.87 1.745l-2.27 1.87-1.498-1.9 5.916-4.62h2.317v22.584M136.67 260.807c1.564 0 2.347.855 2.347 2.565s-.783 2.564-2.348 2.564c-1.556 0-2.333-.855-2.333-2.564 0-1.71.777-2.565 2.332-2.565M162.666 265.457h-14.072v-2.41l5.406-5.885c2.008-2.193 3.332-3.826 3.97-4.897.64-1.08.958-2.27.958-3.568 0-1.163-.33-2.08-.99-2.75-.648-.68-1.528-1.02-2.64-1.02-1.648 0-3.285.707-4.912 2.117l-1.576-1.838c1.977-1.77 4.15-2.657 6.52-2.657 1.997 0 3.572.545 4.725 1.637 1.154 1.09 1.73 2.56 1.73 4.402 0 1.225-.303 2.48-.91 3.768-.608 1.287-2.107 3.218-4.496 5.793l-4.34 4.62v.123h10.626v2.564M175.842 253.563v.093c3.718.484 5.576 2.275 5.576 5.375 0 2.092-.71 3.74-2.13 4.944-1.422 1.195-3.477 1.792-6.165 1.792-2.492 0-4.484-.407-5.977-1.22v-2.626c1.894.988 3.866 1.482 5.916 1.482 3.645 0 5.468-1.488 5.468-4.464 0-2.656-1.962-3.985-5.885-3.985h-2.055v-2.332h2.055c1.647 0 2.924-.39 3.83-1.173.907-.783 1.36-1.818 1.36-3.105 0-1.05-.35-1.88-1.05-2.487-.7-.618-1.638-.927-2.812-.927-1.833 0-3.604.623-5.314 1.87l-1.422-1.932c1.926-1.544 4.17-2.317 6.735-2.317 2.12 0 3.774.51 4.958 1.53 1.196 1.018 1.793 2.377 1.793 4.077 0 1.42-.422 2.61-1.266 3.568-.845.957-2.05 1.57-3.615 1.838" style="-inkscape-font-specification:Droid Sans Mono"/></g><g style="line-height:125%;-inkscape-font-specification:Droid Sans" font-size="13.042" letter-spacing="0" word-spacing="0" fill="#fff" font-family="Droid Sans Mono"><path d="M501.958 381.838l-.668 8.607h-2.527l-.67-8.607h3.865m6.88 0l-.67 8.607h-2.526l-.668-8.607h3.864M521.782 396.493l-6.407-8.72h3.375l4.727 6.683 4.744-6.684h3.376l-6.44 8.72 6.733 9.18h-3.36l-5.053-7.108-5.07 7.108h-3.374l6.75-9.18M534.824 387.772h3.064l4.272 10.66c.89 2.23 1.374 3.805 1.45 4.73h.098c.25-1.218.74-2.805 1.468-4.76l3.896-10.63h3.08l-7.743 20.23c-.73 1.892-1.577 3.31-2.544 4.256-.967.956-2.304 1.434-4.01 1.434-.935 0-1.848-.092-2.74-.277v-2.364c.675.132 1.414.197 2.218.197 1.043 0 1.853-.223 2.43-.668.586-.447 1.108-1.213 1.564-2.3l.946-2.445-7.45-18.063M570.526 405.672h-14.053v-2.038l10.76-13.63H557.01v-2.232h13.222v2.38l-10.547 13.286h10.84v2.234M582.035 381.838l-.668 8.607h-2.527l-.67-8.607h3.865m6.88 0l-.67 8.607h-2.526l-.67-8.607h3.865" style="-inkscape-font-specification:Droid Sans Mono"/></g><g style="line-height:125%;-inkscape-font-specification:Droid Sans" font-size="10.284" letter-spacing="0" word-spacing="0" fill="#fff" font-family="Droid Sans Mono"><path d="M838.468 338.148v1.774c-1.114.274-2.194.41-3.24.41-3.102 0-4.653-1.473-4.653-4.42v-8.19h-3.432v-1.208l3.432-.63.99-3.69h1.35v3.768h5.63v1.76h-5.63v8.19c0 1.67.822 2.506 2.468 2.506.797 0 1.825-.09 3.085-.27M854.755 326.283l-.63 2.134c-1.054-.386-2.014-.58-2.88-.58-1.396 0-2.476.4-3.24 1.197-.753.788-1.13 1.932-1.13 3.432v7.61h-2.34v-14.114h1.903l.283 2.583h.104c.65-1.02 1.35-1.748 2.095-2.185.745-.437 1.662-.655 2.75-.655 1.01 0 2.04.192 3.085.578M868.78 340.076l-.348-1.89h-.128c-.9 1.432-2.33 2.147-4.294 2.147-3.35 0-5.026-1.718-5.026-5.155v-9.216h2.34v9.088c0 2.228 1.01 3.342 3.034 3.342 1.38 0 2.386-.394 3.02-1.182.635-.797.952-2.104.952-3.92v-7.328h2.34v14.114h-1.89M886.802 333.47h-9.95c.07 3.212 1.543 4.82 4.422 4.82 1.672 0 3.257-.326 4.757-.978v2.057c-1.422.642-2.982.963-4.678.963-2.1 0-3.78-.638-5.04-1.915-1.26-1.286-1.89-3.05-1.89-5.296 0-2.28.58-4.084 1.736-5.412 1.166-1.337 2.72-2.005 4.666-2.005 1.817 0 3.266.574 4.345 1.722 1.088 1.148 1.632 2.678 1.632 4.59v1.452m-9.898-1.904h7.366c0-2.614-1.166-3.92-3.497-3.92-2.357 0-3.646 1.306-3.87 3.92" style="-inkscape-font-specification:Droid Sans Mono"/></g><g fill="#1a1a1a"><path d="M515.166 93.265c0 5.688-4.61 10.298-10.3 10.298-5.687 0-10.298-4.61-10.298-10.298s4.61-10.3 10.3-10.3c5.687 0 10.298 4.612 10.298 10.3zM572.244 93.265c0 5.688-4.61 10.298-10.3 10.298-5.687 0-10.298-4.61-10.298-10.298s4.61-10.3 10.3-10.3c5.687 0 10.298 4.612 10.298 10.3zM554.112 114.033c0 11.436-9.27 20.706-20.706 20.706s-20.706-9.27-20.706-20.707h20.706z"/></g></svg>