<svg xmlns="http://www.w3.org/2000/svg" width="300" viewBox="0 0 700 95">
  <path d="M679.178 48.476v-8.899l-11.279.88v2.527c5.672 0 6.324.554 6.324 4.53V69.29c0 3.635-.88 3.635-6.324 3.635v2.526c3.179-.082 6.976-.26 9.258-.26 3.244 0 7.058 0 10.317.26v-2.526h-1.711c-5.998 0-6.177-.88-6.177-3.814V56.609c0-8.019 3.406-15.255 9.6-15.255.554 0 .717 0 .88.081-.245.065-1.875 1.043-1.875 3.146 0 2.298 1.712 3.488 3.505 3.488 1.467 0 3.504-.962 3.504-3.553 0-2.608-2.526-4.939-6.014-4.939-5.933 0-8.867 5.411-10.008 8.9zm-40.519 8.215l.065-1.711c.49-12.094 7.319-14.115 10.09-14.115 8.36 0 9.176 10.953 9.176 14.115h-19.266l-.065 1.71h22.656c1.792 0 2.02 0 2.02-1.71 0-8.02-4.384-15.892-14.522-15.892-9.42 0-16.902 8.345-16.902 18.516 0 10.871 8.525 18.743 17.864 18.743 9.91 0 13.56-9.013 13.56-10.545 0-.815-.635-.994-1.042-.994-.75 0-.897.489-1.076 1.14-2.82 8.362-10.138 8.362-10.953 8.362-4.075 0-7.302-2.428-9.16-5.427-2.445-3.896-2.445-9.275-2.445-12.192zM597.765 69.29v.326l-.016.31-.016.293-.017.277-.032.245-.033.244-.049.212-.065.196-.065.179-.082.18-.081.146-.114.147-.114.13-.13.114-.147.098-.163.081-.18.082-.195.081-.212.05-.228.064-.245.033-.26.049-.294.016-.147.016-.163.017-.163.016h-.163l-.179.016h-.359l-.195.017h-2.233v2.526c2.706-.082 6.487-.26 8.866-.26 2.413 0 5.673.113 8.932.26v-2.526c-5.444 0-6.34 0-6.34-3.635v-8.378l5.2-4.466c6.242 8.623 9.648 13.154 9.648 14.62 0 1.533-1.369 1.859-2.9 1.859v2.526c2.265-.082 7.057-.26 8.752-.26 2.347 0 4.726.113 7.057.26v-2.526c-2.999 0-4.776 0-7.872-4.303l-10.301-14.539c-.082-.147-.49-.636-.49-.896 0-.294 5.754-5.183 6.57-5.819 5.117-4.156 8.54-4.303 10.235-4.384v-2.527c-2.347.228-3.406.228-5.672.228-2.934 0-7.97-.146-9.095-.228v2.527c1.532.081 2.347.961 2.347 2.004 0 1.63-1.124 2.608-1.793 3.195l-11.458 9.893V19.09l-11.686.897v2.526c5.672 0 6.34.554 6.34 4.548zm-32.744-11.54v-.619l.016-.587.016-.587.033-.57.049-.554.049-.554.065-.522.065-.521.082-.506.081-.489.082-.472.097-.473.229-.896.244-.832.277-.798.293-.75.31-.7.342-.653.359-.62.375-.57.391-.521.408-.49.423-.456.44-.423.44-.375.44-.343.457-.31.456-.26.457-.244.472-.212.457-.196.456-.147.456-.13.44-.098.457-.081.424-.05.423-.032.408-.016c.717 0 5.835.081 8.687 3.015-3.341.245-3.814 2.673-3.814 3.733 0 2.118 1.45 3.748 3.733 3.748 2.102 0 3.732-1.401 3.732-3.814 0-5.525-6.177-8.687-12.436-8.687-10.138 0-17.62 8.753-17.62 18.825 0 10.383 8.053 18.434 17.473 18.434 10.872 0 13.463-9.763 13.463-10.545 0-.815-.815-.815-1.043-.815-.733 0-.896.31-1.06.815-2.346 7.53-7.627 8.508-10.626 8.508-4.303 0-11.458-3.488-11.458-16.56zm-36.477-1.06l.081-1.71c.49-12.094 7.302-14.115 10.09-14.115 8.344 0 9.16 10.953 9.16 14.115h-19.25l-.081 1.71h22.671c1.777 0 2.005 0 2.005-1.71 0-8.02-4.368-15.892-14.506-15.892-9.42 0-16.918 8.345-16.918 18.516 0 10.871 8.54 18.743 17.88 18.743 9.91 0 13.544-9.013 13.544-10.545 0-.815-.635-.994-1.043-.994-.733 0-.88.489-1.06 1.14-2.835 8.362-10.137 8.362-10.952 8.362-4.075 0-7.318-2.428-9.176-5.427-2.445-3.896-2.445-9.275-2.445-12.192zm-13.773 1.386l-.032-.961-.066-.962-.114-.945-.163-.93-.195-.912-.245-.896-.293-.88-.326-.864-.359-.832-.39-.815-.441-.798-.473-.766-.505-.75-.538-.717-.554-.701-.603-.652-.62-.636-.651-.603-.685-.57-.7-.522-.734-.505-.75-.456-.782-.424-.783-.391-.815-.343-.83-.293-.848-.26-.88-.213-.864-.179-.897-.114-.913-.082-.912-.016-.082 1.777c3.57 0 7.058 1.793 9.177 5.28 2.118 3.489 2.118 8.199 2.118 11.28 0 2.933 0 7.301-1.792 10.87-1.777 3.668-5.347 6.015-9.421 6.015-3.488 0-7.058-1.711-9.242-5.427-2.037-3.586-2.037-8.525-2.037-11.459 0-3.162 0-7.546 1.94-11.132 2.2-3.716 5.997-5.427 9.257-5.427l.082-1.777c-10.138 0-18.027 8.834-18.027 18.988 0 10.48 8.443 18.271 17.945 18.271 9.828 0 18.043-7.953 18.043-18.27zm-62.783-10.235l.733-.196.717-.196.718-.228.7-.244.685-.261.684-.277.652-.293.652-.31.636-.31.603-.342.603-.359.57-.358.555-.375.538-.391.521-.408.49-.424.472-.44.44-.44.424-.456.39-.473.376-.472.342-.506.31-.489.293-.521.245-.522.228-.538.195-.537.147-.57.13-.555.082-.57.065-.587.016-.587c0-7.791-9.241-14.62-21.188-14.62H419.52v2.526h1.94c6.259 0 6.405.88 6.405 3.814v42.785c0 2.934-.146 3.814-6.405 3.814h-1.94v2.526c2.902-.26 8.688-.26 11.833-.26 3.162 0 8.948 0 11.866.26v-2.526h-1.956c-6.242 0-6.422-.88-6.422-3.814V25.77c0-1.89 0-2.851 1.793-3.112.815-.147 3.178-.147 4.808-.147 7.286 0 16.397.326 16.397 12.094 0 5.607-1.956 12.175-13.968 12.175h-9.03v1.81h9.356c1.304 0 4.71 0 7.53 2.738 3.113 2.933 3.113 5.46 3.113 10.887 0 5.297 0 8.525 3.309 11.605 3.341 2.934 7.79 3.407 10.235 3.407 6.34 0 7.726-6.634 7.726-8.932 0-.49 0-1.37-1.043-1.37-.896 0-.896.734-.994 1.288-.49 5.786-3.309 7.237-5.346 7.237-3.977 0-4.645-4.156-5.786-11.686l-1.044-6.504c-1.45-5.183-5.46-7.888-9.91-9.42zM382.57 71.148v-.212l-.017-.228-.032-.212-.033-.212-.049-.195-.065-.212-.065-.196-.082-.195-.081-.196-.098-.18-.098-.179-.114-.179-.13-.163-.114-.163-.147-.163-.147-.147-.146-.146-.147-.13-.163-.131-.18-.114-.162-.114-.18-.114-.195-.098-.18-.082-.195-.081-.212-.065-.195-.065-.212-.05-.212-.032-.212-.033-.212-.016h-.228c-2.347 0-4.303 1.956-4.303 4.303s1.956 4.303 4.303 4.303c2.363 0 4.303-1.956 4.303-4.303zm-57.568-50.086l-.065-.098-.065-.082-.05-.081-.064-.082-.05-.065-.065-.065-.048-.065-.05-.05-.048-.064-.05-.05-.048-.032-.049-.049-.065-.032-.049-.033-.049-.033-.065-.032-.049-.033-.065-.016-.065-.016-.066-.017-.065-.016-.081-.016-.082-.017h-.081l-.098-.016h-.196l-.114-.016h-14.327v2.526h2.364c1.239 0 2.836.065 4.058.147 1.858.26 1.956.326 1.956 1.89v42.378c0 2.184 0 5.998-8.378 5.998v2.526c2.853-.082 6.83-.26 9.503-.26 2.705 0 6.666.178 9.502.26v-2.526c-8.361 0-8.361-3.814-8.361-5.998v-42.23c.407.407.489.488.815.96l33.135 48.75c.717.962.815 1.044 1.386 1.044 1.14 0 1.14-.554 1.14-2.119V28.51c0-2.184 0-5.998 8.346-5.998v-2.526c-2.853.081-6.813.26-9.486.26-2.69 0-6.683-.179-9.503-.26v2.526c8.345 0 8.345 3.814 8.345 5.998v34.7zm-65.359 35.32l.473-.588.473-.603.489-.619.489-.636 1.01-1.27.49-.62.504-.636.49-.603.488-.603.457-.57.456-.555.228-.26.228-.261.212-.261.196-.244.212-.229.195-.228.196-.212.18-.195c2.526-2.902 5.85-4.124 9.68-4.205v-2.527c-2.118.163-4.563.228-6.682.228-2.412 0-6.715-.146-7.79-.228v2.527c1.71.146 2.38 1.19 2.38 2.493 0 1.304-.816 2.364-1.223 2.853l-5.053 6.34-6.308-8.198c-.75-.815-.75-.995-.75-1.484 0-1.222 1.223-1.923 2.837-2.004v-2.527c-2.087.082-7.465.228-8.77.228-1.694 0-5.525-.065-7.709-.228v2.527c5.672 0 5.786.081 9.568 4.938l8.051 10.464-7.644 9.682c-3.895 4.71-8.67 4.857-10.382 4.857v2.526c2.119-.147 4.629-.26 6.748-.26 2.347 0 5.753.178 7.709.26v-2.526c-1.777-.229-2.363-1.288-2.363-2.51 0-1.793 2.363-4.466 7.318-10.318l6.177 8.117c.636.897 1.712 2.2 1.712 2.673 0 .75-.734 1.972-2.934 2.038v2.526c2.428-.082 6.976-.26 8.769-.26 2.184 0 5.362.113 7.79.26v-2.526c-4.384 0-5.835-.147-7.725-2.51zM222.711 69.29l.033.31.049.293.065.31.065.293.081.31.098.293.098.294.114.293.114.293.13.277.147.294.147.26.163.261.18.261.195.26.18.23.211.227.212.228.228.212.245.196.244.196.245.162.277.163.26.147.294.13.293.115.31.097.31.082.326.065.342.049.342.033.342.016c1.68 0 6.65-1.157 6.65-7.726v-4.53h-2.037v4.53c0 4.71-2.005 5.2-2.934 5.2-2.673 0-2.999-3.635-2.999-4.043v-16.25c0-3.422 0-6.568-2.901-9.583-3.178-3.146-7.237-4.45-11.132-4.45-6.666 0-12.273 3.798-12.273 9.16 0 2.429 1.63 3.83 3.748 3.83 2.266 0 3.733-1.63 3.733-3.748 0-.962-.408-3.635-4.14-3.75 2.184-2.819 6.161-3.715 8.752-3.715 4.01 0 8.606 3.162 8.606 10.398v12.828c0 7.725-5.818 10.464-9.502 10.464-3.96 0-7.302-2.853-7.302-6.895 0-4.45 3.407-11.214 16.804-11.686v-1.712c-4.123.229-9.795.49-14.913 2.934-6.096 2.755-8.133 6.976-8.133 10.546 0 6.568 7.872 8.605 12.99 8.605 5.379 0 9.095-3.243 10.643-7.057zm-82-47.528l-.032-.081-.033-.082-.033-.065-.032-.081-.065-.147-.05-.13-.064-.114-.05-.115-.064-.114-.066-.097-.049-.082-.065-.081-.049-.082-.065-.065-.065-.065-.065-.066-.065-.048-.066-.033-.081-.049-.082-.033-.081-.032-.082-.016-.097-.033-.098-.016-.098-.017h-.098l-.114-.016h-.13l-.13-.016h-14.49v2.526h1.972c6.226 0 6.389.88 6.389 3.814v40.6c0 2.185 0 5.999-8.361 5.999v2.526c2.852-.082 6.829-.26 9.502-.26 2.673 0 6.682.178 9.502.26v-2.526c-8.361 0-8.361-3.814-8.361-5.998V23.164h.081l19.559 50.51c.407 1.044.815 1.777 1.63 1.777.896 0 1.14-.668 1.45-1.548l20-51.39h.064V69.11c0 2.934-.146 3.814-6.405 3.814h-1.94v2.526c3-.26 8.508-.26 11.687-.26 3.162 0 8.606 0 11.62.26v-2.526h-1.971c-6.227 0-6.406-.88-6.406-3.814V26.326c0-2.934.18-3.814 6.406-3.814h1.972v-2.526h-13.74c-2.103 0-2.103.081-2.673 1.548L158.33 67.253zM68.673 49.04l.015-.107v-.215l.015-.107V48.38l-.015-.122v-.123l-.015-.107v-.123l-.03-.122-.015-.123-.03-.122-.031-.108-.031-.122-.046-.107-.046-.108-.046-.107-.061-.107-.077-.092-.076-.092-.077-.092-.046-.046-.046-.03-.046-.046-.061-.031-.046-.03-.061-.047-.062-.03-.061-.03-.061-.016-.062-.03-.06-.015-.077-.03-.077-.015-.077-.015-.076-.015-.077-.014h-.077l-.091-.015h-.184c-1.21 0-2.19 1.01-1.976 1.99v.996l1.072 11.822-9.77-7.105c-.689-.383-.826-.521-1.378-.521-1.056 0-2.067 1.072-2.067 2.128 0 1.21.766 1.532 1.531 1.915l10.842 5.19-10.52 5.1c-1.225.612-1.853.934-1.853 2.082 0 1.118 1.01 2.129 2.067 2.129.552 0 .69 0 2.604-1.47l8.544-6.171-1.148 12.832c0 1.593 1.363 1.975 1.99 1.975.904 0 2.052-.55 2.052-1.975l-1.148-12.832 9.754 7.105c.705.368.843.536 1.394.536 1.056 0 2.052-1.087 2.052-2.129 0-1.148-.69-1.53-1.593-1.99-4.578-2.297-4.747-2.297-10.765-5.13l10.52-5.115c1.225-.597 1.838-.903 1.838-2.052 0-1.148-.996-2.128-2.052-2.128-.551 0-.69 0-2.603 1.455l-8.545 6.17zM50.32 18.857l.015-.107v-.215l.014-.107V18.198l-.014-.123v-.122l-.015-.107v-.123l-.03-.123-.015-.122-.031-.123-.03-.107-.031-.123-.046-.107-.046-.107-.046-.107-.062-.107-.076-.092-.077-.092-.076-.092-.046-.046-.046-.03-.046-.047-.062-.03-.046-.031-.06-.046-.062-.03-.061-.031-.062-.015-.06-.03-.062-.015-.077-.031-.076-.015-.077-.014-.077-.015-.076-.015h-.077l-.092-.014h-.184c-1.21 0-2.19 1.01-1.975 1.99v.996l1.072 11.821-9.77-7.105c-.689-.383-.827-.52-1.378-.52-1.057 0-2.067 1.071-2.067 2.128 0 1.21.765 1.531 1.531 1.914l10.842 5.191-10.52 5.1c-1.225.612-1.853.934-1.853 2.082 0 1.118 1.01 2.129 2.067 2.129.551 0 .69 0 2.603-1.47l8.545-6.172-1.149 12.833c0 1.592 1.363 1.975 1.991 1.975.904 0 2.052-.551 2.052-1.975L49.248 34.05l9.754 7.106c.704.367.842.536 1.393.536 1.057 0 2.052-1.088 2.052-2.129 0-1.148-.689-1.531-1.592-1.99-4.579-2.298-4.747-2.298-10.765-5.13l10.52-5.115c1.225-.597 1.837-.904 1.837-2.052 0-1.149-.995-2.129-2.052-2.129-.55 0-.689 0-2.603 1.455l-8.544 6.171zM31.966 49.039l.015-.107v-.215l.015-.107V48.38l-.015-.122v-.123l-.015-.107v-.123l-.03-.122-.015-.123-.03-.122-.031-.108-.03-.122-.047-.107-.046-.108-.046-.107-.06-.107-.078-.092-.076-.092-.077-.092-.046-.046-.046-.03-.046-.046-.06-.031-.047-.03-.061-.047-.061-.03-.062-.03-.061-.016-.061-.03-.062-.015-.076-.03-.077-.015-.076-.015-.077-.015-.077-.014h-.076l-.092-.015h-.184c-1.21 0-2.19 1.01-1.975 1.99v.996l1.072 11.822-9.77-7.105c-.69-.383-.827-.521-1.378-.521-1.057 0-2.068 1.072-2.068 2.128 0 1.21.766 1.532 1.532 1.915l10.841 5.19-10.52 5.1c-1.225.612-1.853.934-1.853 2.082 0 1.118 1.011 2.129 2.068 2.129.551 0 .689 0 2.603-1.47l8.545-6.171L28 77.065c0 1.593 1.363 1.975 1.99 1.975.904 0 2.053-.55 2.053-1.975l-1.149-12.832 9.755 7.105c.704.368.842.536 1.393.536 1.057 0 2.052-1.087 2.052-2.129 0-1.148-.689-1.53-1.592-1.99-4.58-2.297-4.748-2.297-10.766-5.13l10.52-5.115c1.226-.597 1.838-.903 1.838-2.052 0-1.148-.995-2.128-2.052-2.128-.551 0-.689 0-2.603 1.455l-8.545 6.17zM5.2 4.333h86.335v86.334H5.2z"/>
</svg>