<svg xmlns="http://www.w3.org/2000/svg" width="255" height="110" viewBox="0 0 255 110"><path fill="none" d="M0 0h255v110H0z"/><g transform="translate(38.847 -116.54) scale(.35856)"><path fill="#ffee5a" d="M147.623 521.03l60.622 35 3.5-6.062-60.622-35z"/><circle cx="238.95" cy="564.705" r="32.527" fill="#ffb934"/><g style="line-height:125%"><path style="-inkscape-font-specification:'Roboto Medium';text-align:center" d="M202.046 613.043h-2.336v4.648h-2.096v-12.062h4.242q2.088 0 3.223.936 1.135.936 1.135 2.709 0 1.21-.589 2.03-.58.811-1.623 1.25l2.709 5.03v.107h-2.245l-2.42-4.648zm-2.336-1.681h2.154q1.06 0 1.657-.53.597-.54.597-1.467 0-.97-.555-1.5-.547-.53-1.64-.546h-2.213v4.043zm12.261 6.495q-1.913 0-3.106-1.202-1.185-1.21-1.185-3.214v-.249q0-1.342.514-2.394.521-1.06 1.458-1.648.936-.589 2.087-.589 1.831 0 2.825 1.169 1.003 1.168 1.003 3.305v.812h-5.857q.09 1.11.737 1.756.654.646 1.64.646 1.384 0 2.254-1.118l1.085 1.036q-.539.803-1.442 1.25-.894.44-2.013.44zm-.24-7.68q-.828 0-1.342.58-.505.58-.646 1.615h3.835v-.149q-.066-1.01-.538-1.524-.472-.522-1.309-.522zm10.43 5.078q0-.538-.447-.82-.44-.282-1.467-.497-1.027-.215-1.714-.547-1.508-.729-1.508-2.112 0-1.16.977-1.939.978-.779 2.486-.779 1.607 0 2.593.796.994.795.994 2.063h-2.013q0-.58-.431-.961-.43-.39-1.143-.39-.663 0-1.086.307-.414.306-.414.82 0 .464.39.72.389.257 1.574.523 1.184.256 1.855.62.68.357 1.003.862.331.506.331 1.227 0 1.21-1.002 1.963-1.003.746-2.626.746-1.102 0-1.964-.398-.861-.398-1.342-1.094-.48-.695-.48-1.5h1.955q.041.713.538 1.103.497.38 1.317.38.796 0 1.21-.297.414-.307.414-.796zm5.866 2.435h-2.014v-8.963h2.014v8.964zm-2.138-11.29q0-.465.29-.771.298-.307.845-.307.547 0 .845.307.298.306.298.77 0 .456-.298.762-.298.299-.845.299-.547 0-.845-.299-.29-.306-.29-.762zm3.961 6.743q0-2.071.96-3.322.961-1.26 2.577-1.26 1.425 0 2.303.995v-4.59h2.013v12.725h-1.823l-.1-.928q-.902 1.094-2.41 1.094-1.574 0-2.552-1.268-.969-1.267-.969-3.446zm2.012.174q0 1.367.522 2.137.53.762 1.5.762 1.234 0 1.806-1.102v-3.827q-.555-1.077-1.79-1.077-.977 0-1.508.779-.53.77-.53 2.328zm11.888 4.54q-1.913 0-3.106-1.202-1.185-1.21-1.185-3.214v-.249q0-1.342.514-2.394.522-1.06 1.458-1.648.936-.589 2.087-.589 1.831 0 2.825 1.169 1.003 1.168 1.003 3.305v.812h-5.857q.09 1.11.737 1.756.655.646 1.64.646 1.384 0 2.254-1.118l1.085 1.036q-.538.803-1.441 1.25-.895.44-2.014.44zm-.24-7.68q-.828 0-1.342.58-.505.58-.646 1.615h3.836v-.149q-.067-1.01-.539-1.524-.472-.522-1.309-.522zm7.274-1.45l.058 1.036q.994-1.202 2.61-1.202 2.8 0 2.85 3.207v5.923h-2.014v-5.807q0-.854-.373-1.26-.364-.414-1.2-.414-1.219 0-1.815 1.102v6.379h-2.013v-8.964h1.897zm10.099-2.179v2.18h1.582v1.49h-1.582v5.004q0 .514.199.746.207.223.729.223.348 0 .704-.082v1.557q-.688.19-1.326.19-2.32 0-2.32-2.56v-5.078h-1.474v-1.49h1.475v-2.18h2.013zm5.252 11.142h-2.013v-8.963h2.013v8.964zm-2.137-11.29q0-.465.29-.771.298-.307.845-.307.546 0 .845.307.298.306.298.77 0 .456-.298.762-.299.299-.845.299-.547 0-.845-.299-.29-.306-.29-.762zm9.692 11.29q-.132-.256-.231-.836-.961 1.003-2.353 1.003-1.35 0-2.204-.77-.853-.771-.853-1.906 0-1.433 1.06-2.196 1.069-.77 3.049-.77h1.234v-.588q0-.696-.39-1.11-.388-.423-1.184-.423-.687 0-1.126.348-.44.34-.44.87h-2.013q0-.737.49-1.375.488-.647 1.325-1.011.845-.365 1.88-.365 1.574 0 2.51.796.937.787.961 2.22v4.043q0 1.21.34 1.93v.14h-2.054zm-2.211-1.449q.596 0 1.118-.29.53-.29.795-.779v-1.69h-1.085q-1.118 0-1.682.39-.563.39-.563 1.102 0 .58.381.927.39.34 1.036.34zm8.176 1.449h-2.013v-12.724h2.013v12.725z" font-weight="500" font-size="16.967" font-family="Roboto" letter-spacing="0" word-spacing="0" fill="#ffb934" text-anchor="middle"/></g><path fill="#ffee5a" d="M150.244 498.322l60.622-35 3.5 6.063-60.622 35zm117.379-37.291l60.622 35 3.5-6.062-60.622-35zm0-25.156l60.622-35 3.5 6.063-60.622 35z"/><g style="line-height:125%"><path style="-inkscape-font-specification:'Roboto Medium';text-align:center" d="M93.738 469.419v-12.063h4.134q2.046 0 3.115.82 1.068.82 1.068 2.444 0 .829-.447 1.492-.447.662-1.309 1.027.978.265 1.508 1.002.538.73.538 1.757 0 1.698-1.093 2.61-1.086.91-3.115.91h-4.4zm2.096-5.443v3.77h2.328q.985 0 1.54-.49.556-.488.556-1.358 0-1.88-1.922-1.922h-2.502zm0-1.541h2.054q.978 0 1.525-.44.555-.447.555-1.259 0-.894-.514-1.292-.505-.398-1.582-.398h-2.038v3.389zm13.843 6.105q-.886 1.044-2.518 1.044-1.458 0-2.212-.853-.746-.853-.746-2.469v-5.807h2.013v5.782q0 1.707 1.417 1.707 1.466 0 1.98-1.052v-6.437h2.013v8.964h-1.897l-.05-.879zm6.155.879h-2.013v-8.964h2.013v8.964zm-2.137-11.292q0-.464.29-.77.298-.307.845-.307.547 0 .845.306.298.307.298.77 0 .456-.298.763-.298.298-.845.298-.547 0-.845-.298-.29-.307-.29-.762zm6.478 11.292h-2.013v-12.725h2.013v12.725zm1.823-4.549q0-2.07.961-3.322.961-1.259 2.577-1.259 1.424 0 2.303.994v-4.59h2.013v12.726h-1.823l-.1-.928q-.902 1.093-2.41 1.093-1.574 0-2.552-1.267-.969-1.268-.969-3.447zm2.013.174q0 1.367.522 2.138.53.762 1.5.762 1.234 0 1.806-1.102v-3.827q-.555-1.077-1.79-1.077-.977 0-1.508.778-.53.77-.53 2.328zm10.082 4.375h-2.013v-8.964h2.013v8.964zm-2.137-11.292q0-.464.29-.77.298-.307.845-.307.547 0 .845.306.298.307.298.77 0 .456-.298.763-.298.298-.845.298-.547 0-.845-.298-.29-.307-.29-.762zm6.205 2.328l.058 1.035q.994-1.2 2.61-1.2 2.8 0 2.85 3.205v5.924h-2.014v-5.808q0-.853-.372-1.26-.365-.413-1.202-.413-1.217 0-1.814 1.102v6.379h-2.013v-8.964h1.897zm7.224 4.415q0-2.087.978-3.33.986-1.25 2.61-1.25 1.532 0 2.41 1.068l.091-.903h1.814v8.69q0 1.765-1.101 2.784-1.094 1.019-2.958 1.019-.986 0-1.93-.414-.936-.406-1.425-1.07l.953-1.209q.927 1.102 2.286 1.102 1.002 0 1.582-.547.58-.538.58-1.59v-.605q-.87.97-2.32.97-1.573 0-2.576-1.252-.994-1.25-.994-3.463zm2.005.174q0 1.35.547 2.13.555.77 1.532.77 1.218 0 1.806-1.044v-3.943q-.571-1.02-1.79-1.02-.993 0-1.548.788-.547.787-.547 2.32z" font-weight="500" font-size="16.967" font-family="Roboto" letter-spacing="0" word-spacing="0" fill="#ff2650" text-anchor="middle"/></g><circle r="32.527" cy="506.579" cx="123.562" fill="#ff2650"/><circle r="32.527" cy="448.453" cx="238.95" fill="#ff6433"/><g style="line-height:125%"><path style="-inkscape-font-specification:'Roboto Medium';text-align:center" d="M218.69 383.778l1.856-9.08h2.08l-2.785 12.062h-2.004l-2.295-8.806-2.345 8.806h-2.013l-2.783-12.062h2.079l1.872 9.063 2.303-9.063h1.757l2.278 9.08zm4.648-1.582q0-1.318.521-2.37.522-1.06 1.467-1.624.944-.571 2.17-.571 1.815 0 2.941 1.168 1.135 1.168 1.226 3.098l.008.473q0 1.325-.513 2.369-.506 1.044-1.458 1.615-.945.572-2.187.572-1.898 0-3.04-1.26-1.136-1.267-1.136-3.371v-.1zm2.013.174q0 1.383.571 2.17.572.779 1.59.779 1.02 0 1.583-.796.572-.795.572-2.327 0-1.36-.588-2.154-.58-.796-1.583-.796-.986 0-1.565.787-.58.779-.58 2.337zm12.733-2.734q-.398-.067-.82-.067-1.384 0-1.864 1.06v6.131h-2.013v-8.964h1.922l.05 1.003q.728-1.168 2.02-1.168.431 0 .713.116l-.008 1.889zm4.184 3.28l-.895.92v2.924h-2.013v-12.725h2.013v7.34l.63-.787 2.476-2.792h2.42l-3.33 3.737 3.686 5.227h-2.328l-2.66-3.844zm8.077 3.844h-2.013v-8.964h2.013v8.964zm-2.138-11.291q0-.464.29-.77.299-.307.845-.307.547 0 .845.306.299.307.299.77 0 .456-.299.763-.298.298-.845.298-.546 0-.845-.298-.29-.307-.29-.762zm6.206 2.327l.058 1.036q.994-1.201 2.61-1.201 2.8 0 2.849 3.206v5.923h-2.013v-5.807q0-.853-.373-1.26-.364-.414-1.201-.414-1.218 0-1.814 1.102v6.38h-2.014v-8.965h1.898zm7.224 4.416q0-2.088.977-3.33.986-1.251 2.61-1.251 1.532 0 2.41 1.069l.092-.904h1.814v8.69q0 1.765-1.102 2.784-1.093 1.02-2.957 1.02-.986 0-1.93-.415-.937-.406-1.426-1.068l.953-1.21q.928 1.102 2.287 1.102 1.002 0 1.582-.547.58-.538.58-1.59v-.605q-.87.969-2.32.969-1.574 0-2.576-1.251-.994-1.25-.994-3.463zm2.004.174q0 1.35.547 2.13.555.77 1.533.77 1.218 0 1.806-1.044v-3.944q-.572-1.019-1.79-1.019-.994 0-1.549.787-.547.787-.547 2.32zm-54.031 25.583v-12.063h4.134q2.046 0 3.115.82 1.069.82 1.069 2.444 0 .829-.448 1.492-.447.662-1.309 1.027.978.265 1.508 1.002.539.73.539 1.757 0 1.698-1.094 2.61-1.085.91-3.115.91h-4.399zm2.096-5.443v3.769h2.328q.986 0 1.541-.489.555-.489.555-1.358 0-1.881-1.922-1.922h-2.502zm0-1.541h2.055q.977 0 1.524-.44.555-.447.555-1.259 0-.894-.514-1.292-.505-.398-1.582-.398h-2.038v3.389zm13.844 6.105q-.887 1.044-2.519 1.044-1.458 0-2.212-.853-.746-.853-.746-2.469v-5.807h2.014v5.782q0 1.707 1.416 1.707 1.467 0 1.98-1.052v-6.437h2.013v8.964H225.6l-.05-.879zm6.155.879h-2.013v-8.964h2.013v8.964zm-2.138-11.292q0-.464.29-.77.299-.307.845-.307.547 0 .845.306.299.307.299.77 0 .456-.299.763-.298.298-.845.298-.546 0-.845-.298-.29-.307-.29-.762zm6.479 11.292h-2.013v-12.725h2.013v12.725zm1.822-4.549q0-2.07.961-3.322.961-1.259 2.577-1.259 1.425 0 2.303.994v-4.59h2.013v12.726H243.9l-.1-.928q-.903 1.093-2.41 1.093-1.575 0-2.552-1.267-.97-1.268-.97-3.447zm2.014.174q0 1.367.522 2.138.53.762 1.499.762 1.234 0 1.806-1.102v-3.827q-.555-1.077-1.79-1.077-.977 0-1.507.778-.53.77-.53 2.328zm10.082 4.375h-2.013v-8.964h2.013v8.964zm-2.138-11.292q0-.464.29-.77.299-.307.845-.307.547 0 .845.306.299.307.299.77 0 .456-.299.763-.298.298-.845.298-.546 0-.845-.298-.29-.307-.29-.762zm6.205 2.328l.058 1.035q.995-1.201 2.61-1.201 2.8 0 2.85 3.206v5.924h-2.013v-5.808q0-.853-.373-1.26-.365-.413-1.201-.413-1.218 0-1.815 1.101v6.38h-2.013v-8.964h1.897zm7.225 4.415q0-2.087.977-3.33.986-1.251 2.61-1.251 1.532 0 2.41 1.069l.092-.903h1.814v8.69q0 1.765-1.102 2.784-1.094 1.019-2.958 1.019-.985 0-1.93-.415-.936-.405-1.425-1.068l.953-1.21q.928 1.102 2.287 1.102 1.002 0 1.582-.547.58-.538.58-1.59v-.605q-.87.97-2.32.97-1.574 0-2.576-1.252-.995-1.25-.995-3.463zm2.004.174q0 1.35.547 2.13.555.77 1.533.77 1.218 0 1.806-1.044v-3.943q-.572-1.02-1.79-1.02-.994 0-1.549.788-.547.787-.547 2.32z" font-weight="500" font-size="16.967" font-family="Roboto" letter-spacing="0" word-spacing="0" fill="#ff6433" text-anchor="middle"/></g><circle r="32.527" cy="504.705" cx="358.95" fill="#ffb934"/><circle cx="354.841" cy="392.201" r="32.527" fill="#ffb934"/><g style="line-height:125%;text-align:center"><path style="-inkscape-font-specification:'Roboto Medium';text-align:center" d="M323.094 347.764q-.182 1.93-1.425 3.016-1.242 1.077-3.305 1.077-1.442 0-2.543-.68-1.094-.687-1.69-1.947-.597-1.259-.622-2.924v-1.127q0-1.706.605-3.007.605-1.3 1.732-2.005 1.134-.704 2.617-.704 1.997 0 3.215 1.085 1.218 1.085 1.416 3.065h-2.087q-.15-1.3-.762-1.872-.605-.58-1.782-.58-1.367 0-2.104 1.003-.729.994-.745 2.924v1.069q0 1.955.695 2.982.705 1.027 2.055 1.027 1.234 0 1.856-.555.621-.555.787-1.847h2.087zm1.293-.638q0-1.317.522-2.37.522-1.06 1.466-1.623.944-.572 2.17-.572 1.815 0 2.942 1.168 1.135 1.169 1.226 3.099l.008.472q0 1.326-.514 2.37-.505 1.043-1.458 1.615-.944.572-2.187.572-1.897 0-3.04-1.26-1.135-1.267-1.135-3.371v-.1zm2.013.174q0 1.384.572 2.17.571.78 1.59.78 1.02 0 1.582-.796.572-.795.572-2.328 0-1.359-.588-2.154-.58-.795-1.582-.795-.986 0-1.566.787-.58.779-.58 2.336zm9.933-4.573l.058.936q.944-1.102 2.585-1.102 1.797 0 2.46 1.376.978-1.376 2.75-1.376 1.484 0 2.204.82.73.82.746 2.42v5.89h-2.013v-5.832q0-.854-.373-1.251-.373-.398-1.234-.398-.688 0-1.127.373-.43.364-.605.96l.008 6.148h-2.013v-5.899q-.041-1.582-1.615-1.582-1.21 0-1.715.986v6.495h-2.013v-8.964h1.897zm14.779 0l.058.936q.945-1.102 2.585-1.102 1.798 0 2.46 1.376.978-1.376 2.751-1.376 1.483 0 2.204.82.729.82.745 2.42v5.89h-2.013v-5.832q0-.854-.373-1.251-.372-.398-1.234-.398-.688 0-1.127.373-.43.364-.604.96l.008 6.148h-2.013v-5.899q-.042-1.582-1.616-1.582-1.21 0-1.715.986v6.495h-2.013v-8.964h1.897zm16.834 9.13q-1.913 0-3.106-1.202-1.185-1.21-1.185-3.214v-.249q0-1.342.514-2.394.522-1.06 1.458-1.648.936-.589 2.088-.589 1.83 0 2.825 1.168 1.002 1.169 1.002 3.306v.812h-5.857q.09 1.11.737 1.756.655.646 1.64.646 1.384 0 2.254-1.118l1.085 1.035q-.538.804-1.441 1.251-.895.44-2.014.44zm-.24-7.68q-.828 0-1.342.58-.505.58-.646 1.615h3.836v-.149q-.067-1.01-.539-1.524-.472-.522-1.309-.522zm10.099.389q-.398-.066-.82-.066-1.384 0-1.864 1.06v6.13h-2.013v-8.963h1.922l.05 1.002q.728-1.168 2.02-1.168.432 0 .713.116l-.008 1.89zm4.788 5.684q.754 0 1.251-.44.497-.439.53-1.085h1.898q-.033.837-.522 1.566-.489.72-1.326 1.143-.836.423-1.806.423-1.88 0-2.982-1.218-1.102-1.218-1.102-3.364v-.207q0-2.046 1.094-3.272 1.093-1.235 2.982-1.235 1.599 0 2.601.936 1.011.928 1.06 2.444h-1.896q-.034-.77-.53-1.267-.49-.497-1.252-.497-.977 0-1.507.712-.53.704-.539 2.146v.323q0 1.458.522 2.179.53.712 1.524.712zm7.34 1.44h-2.013v-8.963h2.013v8.964zm-2.137-11.29q0-.465.29-.771.298-.307.845-.307.547 0 .845.307.298.306.298.77 0 .456-.298.762-.298.299-.845.299-.547 0-.845-.299-.29-.306-.29-.762zm9.693 11.29q-.133-.256-.232-.836-.961 1.003-2.353 1.003-1.35 0-2.204-.77-.853-.771-.853-1.906 0-1.434 1.06-2.196 1.07-.77 3.05-.77h1.234v-.588q0-.696-.39-1.11-.39-.423-1.184-.423-.688 0-1.127.348-.44.34-.44.87h-2.012q0-.738.488-1.375.49-.647 1.326-1.011.845-.365 1.88-.365 1.575 0 2.51.796.937.787.962 2.22v4.043q0 1.21.34 1.93v.14h-2.055zm-2.212-1.449q.596 0 1.118-.29.53-.29.796-.779v-1.69h-1.086q-1.118 0-1.681.39-.564.39-.564 1.102 0 .58.381.927.39.34 1.036.34zm8.177 1.449h-2.013v-12.724h2.013v12.725z" font-weight="500" font-size="16.967" font-family="Roboto" letter-spacing="0" word-spacing="0" text-anchor="middle" fill="#ffb934"/></g><g style="line-height:125%"><path style="-inkscape-font-specification:'Roboto Medium';text-align:center" d="M326.305 557.69h-2.088v-12.06h2.088v12.062zm4.266-8.963l.058 1.036q.994-1.202 2.61-1.202 2.8 0 2.85 3.206v5.924h-2.013v-5.808q0-.853-.373-1.259-.365-.414-1.202-.414-1.217 0-1.814 1.102v6.379h-2.013v-8.964h1.897zm7.199 4.416q0-2.071.961-3.322.961-1.26 2.577-1.26 1.425 0 2.303.995v-4.59h2.013v12.725h-1.823l-.099-.928q-.903 1.094-2.41 1.094-1.575 0-2.552-1.268-.97-1.268-.97-3.446zm2.014.174q0 1.367.521 2.137.53.762 1.5.762 1.234 0 1.806-1.102v-3.827q-.555-1.077-1.79-1.077-.977 0-1.507.779-.53.77-.53 2.328zm13.371 3.496q-.887 1.044-2.519 1.044-1.458 0-2.212-.854-.745-.853-.745-2.469v-5.807h2.013v5.783q0 1.706 1.416 1.706 1.467 0 1.98-1.052v-6.437h2.013v8.964h-1.897l-.05-.878zm9.038-1.558q0-.538-.447-.82-.44-.282-1.467-.497-1.027-.215-1.715-.547-1.507-.729-1.507-2.112 0-1.16.977-1.939.978-.779 2.486-.779 1.607 0 2.593.796.994.795.994 2.063h-2.013q0-.58-.431-.961-.431-.39-1.143-.39-.663 0-1.086.307-.414.306-.414.82 0 .464.39.72.389.257 1.573.523 1.185.256 1.856.62.68.357 1.003.862.331.506.331 1.227 0 1.21-1.002 1.963-1.003.746-2.627.746-1.101 0-1.963-.398-.862-.398-1.342-1.094-.48-.696-.48-1.5h1.954q.042.713.539 1.103.497.38 1.317.38.796 0 1.21-.297.414-.307.414-.796zm6.247-8.707v2.18h1.582v1.49h-1.583v5.004q0 .514.2.746.206.223.728.223.348 0 .704-.083v1.558q-.687.19-1.325.19-2.32 0-2.32-2.56v-5.078h-1.474v-1.491h1.474v-2.179h2.013zm7.803 4.018q-.397-.066-.82-.066-1.383 0-1.864 1.06v6.13h-2.013v-8.963h1.922l.05 1.002q.729-1.168 2.021-1.168.431 0 .713.116l-.008 1.89zm3.414 7.124h-2.014v-8.963h2.014v8.964zm-2.138-11.29q0-.465.29-.771.298-.307.845-.307.547 0 .845.307.298.306.298.77 0 .456-.298.762-.298.299-.845.299-.547 0-.845-.299-.29-.306-.29-.762zm9.693 11.29q-.132-.256-.232-.836-.96 1.003-2.353 1.003-1.35 0-2.203-.77-.854-.771-.854-1.906 0-1.434 1.06-2.196 1.07-.77 3.05-.77h1.234v-.588q0-.696-.39-1.11-.389-.423-1.184-.423-.688 0-1.127.348-.439.34-.439.87h-2.013q0-.738.489-1.375.488-.647 1.325-1.011.845-.365 1.88-.365 1.575 0 2.51.796.937.787.962 2.22v4.043q0 1.21.34 1.93v.14h-2.055zM385 556.242q.597 0 1.119-.29.53-.29.795-.779v-1.69h-1.085q-1.119 0-1.682.39-.564.39-.564 1.102 0 .58.382.927.389.34 1.035.34zm8.177 1.448h-2.013v-12.724h2.013v12.725z" font-weight="500" font-size="16.967" font-family="Roboto" letter-spacing="0" word-spacing="0" fill="#ffb934" text-anchor="middle"/></g><path d="M123.562 503.13h13.797v6.898h-13.797v-6.898zm-15.523 0h13.798v6.898h-13.798v-6.898zm24.145 8.623h13.798v6.899h-13.798v-6.899zm-15.521 0h13.797v6.899h-13.797v-6.899zm-15.522 0h13.797v6.899h-13.797v-6.899zm15.522-17.247h13.797v6.899h-13.797v-6.899zm122.319-55.663c-5.307 0-9.61 4.303-9.61 9.61a9.61 9.61 0 0 0 9.61 9.61 9.61 9.61 0 1 0 0-19.22zm.754 15.677v.54c0 .435-.299.783-.804.783-.47 0-.77-.348-.77-.784v-.557c-1.573-.4-2.689-1.724-2.689-3.047 0-.453.388-.8.875-.8s.908.347.908.8c0 .697.12 1.236.907 1.376V448.6l-.165-.087c-.26-.14-.466-.244-.605-.349-1.08-.748-1.774-1.637-1.774-2.89 0-1.567.97-2.594 2.544-2.942V442c0-.435.3-.784.77-.784.505 0 .804.349.804.784v.33c1.573.349 2.722 1.324 2.722 2.839 0 .435-.363.783-.85.783-.506 0-.962-.347-.962-.783 0-.54-.123-.958-.91-1.132v3.761l.65.331c1.374.783 2.103 1.897 2.103 3.378 0 1.67-1.18 2.733-2.754 3.012zm-2.513-9.299c0 .802.546 1.202.94 1.62v-3.048c-.787.332-.94.819-.94 1.428zm2.513 4.441v3.256c.787-.227.958-.749.958-1.41 0-.732-.17-1.394-.958-1.846zm7.732 6.71c-.426-.115-.68.14-.566.565l1.63 6.084c.114.425.462.519.773.207l.817-.817a.802.802 0 0 1 1.132 0l4.494 4.494a.804.804 0 0 0 1.133 0l.487-.487a.803.803 0 0 0 0-1.133l-4.493-4.494a.802.802 0 0 1 0-1.132l.883-.883c.311-.312.218-.66-.207-.774l-6.083-1.63zm-16.437.6c.114-.426-.14-.681-.566-.567l-6.083 1.63c-.426.114-.52.462-.208.774l.817.817a.802.802 0 0 1 0 1.132l-4.494 4.494a.803.803 0 0 0 0 1.133l.487.487a.803.803 0 0 0 1.132 0l4.495-4.494a.803.803 0 0 1 1.132 0l.884.884c.311.311.659.218.773-.207l1.631-6.084zm15.837-17.037c-.114.426.141.68.566.566l6.084-1.63c.425-.114.518-.462.207-.774l-.817-.817a.803.803 0 0 1 0-1.132l4.494-4.494a.803.803 0 0 0 0-1.132l-.488-.488a.804.804 0 0 0-1.132 0l-4.495 4.494a.803.803 0 0 1-1.132 0l-.883-.884c-.311-.311-.66-.218-.773.208l-1.63 6.083zm-16.437.6c.426.114.68-.14.566-.566l-1.63-6.084c-.114-.426-.461-.518-.773-.207l-.817.817a.802.802 0 0 1-1.132 0L222.15 430a.804.804 0 0 0-1.133 0l-.488.488a.803.803 0 0 0 0 1.133l4.494 4.494a.802.802 0 0 1 0 1.132l-.883.883c-.311.312-.218.66.208.774l6.082 1.63zm129.436 67.841h-5.506v-3.67h5.506v3.67zm9.176 0h-5.505v-3.67h5.505v3.67zm-9.176 7.34h-5.506v-3.67h5.506v3.67zm9.176 0h-5.505v-3.67h5.505v3.67zm-18.352-7.34h-5.506v-3.67h5.506v3.67zm0 7.34h-5.506v-3.67h5.506v3.67zm21.564-27.528l-2.68 12.748-15.214-3.664v3.67l-12.846-3.67v23.95h34.87v-33.034h-4.13zm-22.657-85.912h1.72v5.898h-1.72v-5.898zm0-8.765h1.72v5.898h-1.72v-5.898zm0-8.846h1.72v5.897h-1.72v-5.897zm0-8.765h1.72v5.898h-1.72V375.9zm-3.932 5.898h-1.72V375.9h1.72v5.898zm0 8.846h-1.72v-5.898h1.72v5.898zm0 8.765h-1.72v-5.898h1.72v5.898zm-5.897-17.611h-1.803V375.9h1.72v5.898zm0 8.846h-1.803v-5.898h1.72v5.898zm0 8.765h-1.803v-5.898h1.72v5.898zm0 8.847h-1.803v-5.898h1.72v5.898zm14.17 3.195v-38.5h-18.348v38.5h5.816v-9.994h6.799v9.994h5.734zm-10.812-8.274h3.277v8.274h-3.277zm26.704-2.457v-3.44h1.72v3.44h-1.72zm-3.932-5.98h-1.72v-3.358h1.72v3.358zm0 5.98h-1.72v-3.44h1.72v3.44zm-5.898-5.98h-1.72v-3.358h1.72v3.358zm0 5.98h-1.72v-3.44h1.72v3.44zm9.83-9.338h1.72v3.44h-1.72v-3.44zm4.26 20.069v-22.936h-18.349v22.936h2.949v-9.257h12.451v9.257h2.949zm-13.68-7.536h9.01v7.536h-9.01zM253.825 563.83v14.876h-7.875v2.625h-14v-2.625h-7.876V563.83h7.525l7.35-5.88 7.35 5.88h7.526zm-18.376 2.625v11.376h7v-11.376h-7zm-10.5-18.376h28.001l5.25 12.25h-10.673l-8.577-6.861-8.578 6.862h-10.674l5.25-12.251z" fill="#fff"/></g></svg>