<svg xmlns="http://www.w3.org/2000/svg" width="255" height="110" viewBox="0 0 255 110"><g transform="translate(-106.01 -183.597)"><path fill="none" d="M106.01 183.597h255v110h-255z"/><path d="M239.858 263.522c-1.072 0-1.892.82-1.892 1.892s.82 1.892 1.892 1.892 1.892-.82 1.892-1.892-.82-1.892-1.892-1.892zm-.883-3.153h1.829l.126 1.135c.252.063.567.19.883.379l.946-.694 1.324 1.324-.694.946c.19.378.316.63.379.883l1.135.189v1.829l-.946.189c-.063.252-.19.567-.379.883l.694.946-1.324 1.324-.946-.694c-.315.19-.568.316-.883.379l-.19 1.135h-1.89l-.19-1.135c-.315-.127-.63-.253-.883-.379l-.946.63-1.324-1.323.63-.946c-.189-.315-.315-.568-.378-.883l-1.135-.19v-1.828l1.072-.126c.126-.315.19-.568.379-.883l-.631-.946 1.324-1.324.946.694c.315-.19.568-.316.883-.379l.19-1.135z" fill="#333"/><path d="M215.166 208.876h37.754a2.384 2.384 0 0 1 2.39 2.39v28.196a2.384 2.384 0 0 1-2.39 2.39h-37.754a2.384 2.384 0 0 1-2.39-2.39v-28.197a2.384 2.384 0 0 1 2.39-2.39z" fill="#ff6433"/><path d="M217.06 210.132a17.58 17.48 0 0 1 17.58-17.48 17.58 17.48 0 0 1 17.58 17.48h-17.58z" fill="#f9ce1d"/><path d="M215.865 210.132a16.385 7.425 0 0 1 16.386-7.425 16.385 7.425 0 0 1 16.385 7.425h-16.385z" fill="#f29312"/><path d="M225.978 217.744a2.534 2.595 0 0 1 2.535 2.594 2.534 2.595 0 0 1-2.535 2.595 2.534 2.595 0 0 1-2.534-2.595 2.534 2.595 0 0 1 2.534-2.594zm16.249 0a2.534 2.595 0 0 1 2.535 2.594 2.534 2.595 0 0 1-2.535 2.595 2.534 2.595 0 0 1-2.534-2.595 2.534 2.595 0 0 1 2.534-2.594z" fill="#1a1a1a"/><path d="M234.067 226.322c.716 1.921.748 3.992-3.035 5.937-3.783 1.946-9.655-.644-9.655-.644s4.618-2.045 5.3-4.279c1.456-4.765 6.472-3.475 7.39-1.014z" fill="#4e342e" fill-rule="evenodd"/><path d="M234.019 226.322c-.717 1.921-.748 3.992 3.035 5.937 3.783 1.946 9.655-.644 9.655-.644s-4.618-2.045-5.3-4.279c-1.456-4.765-6.472-3.475-7.39-1.014z" fill="#4e342e" fill-rule="evenodd"/><path d="M213.735 224.311a2.39 2.39 0 0 0-.403.045s-5.6 1.003-11.184 3.852c-2.793 1.425-5.634 3.32-7.806 5.942-2.17 2.623-3.619 6.077-3.355 10.077.258 3.93 1.932 7.109 4.195 9.398 2.262 2.289 5.053 3.755 7.726 4.747 5.347 1.984 10.467 2.106 10.467 2.106a2.39 2.39 0 1 0 .136-4.777s-4.473-.152-8.94-1.81c-2.234-.828-4.406-2.024-5.99-3.626-1.584-1.603-2.64-3.545-2.825-6.351-.18-2.736.699-4.821 2.268-6.717s3.88-3.499 6.296-4.731c4.832-2.465 9.871-3.408 9.871-3.408a2.39 2.39 0 0 0-.456-4.747z" style="line-height:normal;text-indent:0;text-align:start;text-decoration-line:none;text-decoration-style:solid;text-decoration-color:#000;text-transform:none;block-progression:tb;isolation:auto;mix-blend-mode:normal" color="#000" font-weight="400" font-family="sans-serif" white-space="normal" overflow="visible" fill="#ff6433" fill-rule="evenodd"/><path d="M224.427 259.267c-.712 0-1.285.573-1.285 1.286v20.314c0 .713.573 1.286 1.285 1.286h20.315c.712 0 1.285-.573 1.285-1.286v-16.036h-7.115a2.384 2.384 0 0 1-2.39-2.39v-3.174h-12.095z" fill="#999"/><circle r="2.591" cy="265.451" cx="229.446" fill="#666"/><path d="M239.868 263.797a1.648 1.688 0 0 1 1.65 1.688 1.648 1.688 0 0 1-1.65 1.688 1.648 1.688 0 0 1-1.648-1.688 1.648 1.688 0 0 1 1.648-1.688z" fill="#1a1a1a"/><path d="M253.449 246.63a2.384 2.384 0 0 0-3.306.701l-6.225 9.575 14.654 9.528 7.528-11.58-12.651-8.224z" fill="#ff2650"/><path style="line-height:normal;text-indent:0;text-align:start;text-decoration-line:none;text-decoration-style:solid;text-decoration-color:#000;text-transform:none;block-progression:tb;isolation:auto;mix-blend-mode:normal" d="M256.69 268.13a2.39 2.39 0 0 1 1.005-3.712s3.722-1.524 7.308-4.856c3.585-3.331 6.847-8.16 6.206-15.235-.633-6.982-4.824-10.097-9.249-11.892-4.425-1.794-8.763-1.832-8.763-1.832a2.39 2.39 0 1 1 .014-4.78s5.137-.01 10.545 2.183c5.409 2.193 11.41 7.026 12.212 15.89.795 8.767-3.441 15.2-7.712 19.168-4.27 3.967-8.762 5.78-8.762 5.78a2.39 2.39 0 0 1-2.803-.715z" color="#000" font-weight="400" font-family="sans-serif" white-space="normal" overflow="visible" fill="#ff6433" fill-rule="evenodd"/><path d="M239.857 263a2.388 2.445 0 0 1 2.39 2.445 2.388 2.445 0 0 1-2.39 2.445 2.388 2.445 0 0 1-2.387-2.445 2.388 2.445 0 0 1 2.387-2.444z" fill="#666"/><path d="M239.858 263.905a1.504 1.54 0 0 1 1.504 1.54 1.504 1.54 0 0 1-1.504 1.54 1.504 1.54 0 0 1-1.504-1.54 1.504 1.54 0 0 1 1.504-1.54z" fill="#ffee5a"/><path d="M220.752 265.265v17.723a1.55 1.55 0 0 0 1.554 1.554h24.556a1.55 1.55 0 0 0 1.555-1.554v-8.803h-12.831a1.55 1.55 0 0 1-1.554-1.554v-7.366h-13.28z" fill="#ff2650"/><path d="M230.189 270.182c0 2.428 2.323 4.396 4.396 4.396 2.072 0 4.395-1.968 4.395-4.396h-4.395zm-.751-6.312a1.648 1.688 0 0 1 1.65 1.688 1.648 1.688 0 0 1-1.65 1.688 1.648 1.688 0 0 1-1.648-1.688 1.648 1.688 0 0 1 1.648-1.688z" fill="#1a1a1a"/><path d="M216.19 244.965a1.34 1.34 0 0 0-1.806-.588l-5.725 2.913 4.458 8.76 6.922-3.522-3.848-7.563z" fill="#999"/><circle r=".614" cy="249.62" cx="211.587" fill="#4d4d4d"/><circle cx="212.611" cy="251.61" r=".614" fill="#4d4d4d"/></g></svg>