<svg xmlns="http://www.w3.org/2000/svg" width="255" height="110" viewBox="0 0 255 110"><g transform="translate(-106.01 -183.597)"><path fill="none" d="M106.01 183.597h255v110h-255z"/><rect width="70.573" height="70.573" x="191.028" y="203.311" ry="3.965" fill="#ff2650"/><path d="M206.22 220.713a4.205 4.305 0 0 1 4.205 4.306 4.205 4.305 0 0 1-4.206 4.305 4.205 4.305 0 0 1-4.205-4.305 4.205 4.305 0 0 1 4.205-4.306zm26.96 0a4.205 4.305 0 0 1 4.206 4.306 4.205 4.305 0 0 1-4.207 4.305 4.205 4.305 0 0 1-4.204-4.305 4.205 4.305 0 0 1 4.205-4.306zm-25.23 16.538c0 6.193 5.927 11.214 11.214 11.214 5.286 0 11.214-5.02 11.214-11.214h-11.214z" fill="#1a1a1a"/><path d="M260.93 228.964a11.737 13.1 0 0 0-10.943 8.363h4.592a7.642 8.529 0 0 1 6.35-3.792 7.642 8.529 0 0 1 7.642 8.53h4.096a11.737 13.1 0 0 0-11.737-13.101z" fill="#ccc"/><rect width="30.127" height="24.98" x="245.866" y="241.239" ry="2.824" rx="2.824" fill="#f9ce1d"/><path d="M264.641 246.35a3.757 3.757 0 0 0-1.447 7.224l-3.018 7.534h8.93l-3.02-7.536a3.758 3.758 0 0 0 2.312-3.464 3.758 3.758 0 0 0-3.757-3.758z" fill="#1a1a1a"/><path d="M246.342 257.675h4.194c1.307 0 2.36.84 2.36 1.883 0 1.043-1.053 1.883-2.36 1.883h-4.194c-1.307 0-2.36-.84-2.36-1.883 0-1.043 1.053-1.883 2.36-1.883zm0-5.021h4.194c1.307 0 2.36.84 2.36 1.883 0 1.043-1.053 1.883-2.36 1.883h-4.194c-1.307 0-2.36-.84-2.36-1.883 0-1.043 1.053-1.883 2.36-1.883zm0-5.021h4.194c1.307 0 2.36.84 2.36 1.883 0 1.043-1.053 1.882-2.36 1.882h-4.194c-1.307 0-2.36-.84-2.36-1.883 0-1.043 1.053-1.882 2.36-1.882z" fill="#f29312"/></g></svg>