<svg xmlns="http://www.w3.org/2000/svg" width="255" height="110" viewBox="0 0 255 110"><g transform="translate(-106.01 -183.597)"><path fill="none" d="M106.01 183.597h255v110h-255z"/><path d="M246.9 215.639v17.968a7.948 7.948 0 0 0 7.965 7.965h44.528c4.414 0 7.813-3.555 7.966-7.965v-17.968h-1.663v16.898a7.3 7.3 0 0 1-7.317 7.317h-42.5a7.3 7.3 0 0 1-7.317-7.317V215.64zm-88.737 0v17.968a7.948 7.948 0 0 0 7.965 7.965h44.529c4.413 0 7.812-3.555 7.965-7.965v-17.968h-1.663v16.898a7.3 7.3 0 0 1-7.317 7.317h-42.5a7.3 7.3 0 0 1-7.316-7.317V215.64zm29.219 36.869v11.72a7.948 7.948 0 0 0 7.966 7.965h75.149c4.413 0 8.119-3.556 7.966-7.966V246.26H276.8v16.899a7.3 7.3 0 0 1-7.317 7.316h-73.12a7.3 7.3 0 0 1-7.318-7.316v-10.65z" fill="#ccc"/><rect ry="1.404" y="258.601" x="220.427" height="24.996" width="24.996" fill="#ff2650"/><path d="M228.15 264.702a1.49 1.525 0 0 1 1.49 1.524 1.49 1.525 0 0 1-1.49 1.525 1.49 1.525 0 0 1-1.49-1.525 1.49 1.525 0 0 1 1.49-1.524zm9.549 0a1.49 1.525 0 0 1 1.49 1.524 1.49 1.525 0 0 1-1.49 1.525 1.49 1.525 0 0 1-1.49-1.525 1.49 1.525 0 0 1 1.49-1.524zm-8.746 5.92c0 2.194 2.1 3.972 3.972 3.972 1.872 0 3.972-1.778 3.972-3.972h-3.972z" fill="#1a1a1a"/><rect ry="1.193" y="230.25" x="258.596" height="21.24" width="36.912" fill="#ff6433"/><rect width="20.578" height="20.578" x="147.959" y="196.465" ry="1.156" fill="#ffee5a"/><circle cx="188.393" cy="240.87" r="12.498" fill="#ffb934"/><path d="M229.262 213.331l-11.393 6.578-11.393-6.578v-13.156l11.393-6.578 11.393 6.578z" fill="#ff6433"/><path d="M255.462 218.675l-15.448-.14-4.64-14.736 12.58-8.967 12.415 9.194z" fill="#ff2650"/><circle r="12.498" cy="206.753" cx="306.564" fill="#bd1939"/><path d="M272.318 242.34c0 2.44 2.344 4.418 4.429 4.418 2.085 0 4.429-1.978 4.429-4.419h-4.429z" fill="#1a1a1a"/><rect ry=".986" y="237.482" x="268.784" height="1.973" width="5.287" fill="#1a1a1a"/><rect width="5.287" height="1.973" x="280.033" y="237.482" ry=".986" fill="#1a1a1a"/><path d="M183.964 242.584a4.429 4.419 0 0 0 4.429 4.419 4.429 4.419 0 0 0 4.428-4.419h-1.398a3.03 3.024 0 0 1-3.03 3.024 3.03 3.024 0 0 1-3.032-3.024h-1.397zm.354-6.596a1.66 1.696 0 0 1 1.662 1.696 1.66 1.696 0 0 1-1.662 1.697 1.66 1.696 0 0 1-1.66-1.697 1.66 1.696 0 0 1 1.66-1.696zm8.148 0a1.66 1.696 0 0 1 1.661 1.696 1.66 1.696 0 0 1-1.661 1.697 1.66 1.696 0 0 1-1.66-1.697 1.66 1.696 0 0 1 1.66-1.696z" fill="#1a1a1a"/><path d="M183.964 242.584a4.429 4.419 0 0 0 4.429 4.419 4.429 4.419 0 0 0 4.428-4.419h-1.398a3.03 3.024 0 0 1-3.03 3.024 3.03 3.024 0 0 1-3.032-3.024h-1.397zm.354-6.596a1.66 1.696 0 0 1 1.662 1.696 1.66 1.696 0 0 1-1.662 1.697 1.66 1.696 0 0 1-1.66-1.697 1.66 1.696 0 0 1 1.66-1.696zm8.148 0a1.66 1.696 0 0 1 1.661 1.696 1.66 1.696 0 0 1-1.661 1.697 1.66 1.696 0 0 1-1.66-1.697 1.66 1.696 0 0 1 1.66-1.696zm21.479-29.504a3.924 3.915 0 0 0 3.924 3.916 3.924 3.915 0 0 0 3.924-3.916h-1.239a2.685 2.68 0 0 1-2.685 2.68 2.685 2.68 0 0 1-2.686-2.68h-1.238z" fill="#1a1a1a"/><rect width="4.685" height="1.748" x="210.543" y="203.107" ry=".874" fill="#1a1a1a"/><rect ry=".874" y="203.107" x="220.51" height="1.748" width="4.685" fill="#1a1a1a"/><path d="M153.473 201.292a1.49 1.525 0 0 1 1.49 1.525 1.49 1.525 0 0 1-1.49 1.525 1.49 1.525 0 0 1-1.49-1.525 1.49 1.525 0 0 1 1.49-1.525zm9.549 0a1.49 1.525 0 0 1 1.49 1.525 1.49 1.525 0 0 1-1.49 1.525 1.49 1.525 0 0 1-1.49-1.525 1.49 1.525 0 0 1 1.49-1.525zm-8.746 5.921c0 2.194 2.1 3.972 3.972 3.972 1.872 0 3.972-1.778 3.972-3.972h-3.972zm147.513-5.7a1.49 1.525 0 0 1 1.49 1.525 1.49 1.525 0 0 1-1.49 1.525 1.49 1.525 0 0 1-1.49-1.525 1.49 1.525 0 0 1 1.49-1.525zm9.549 0a1.49 1.525 0 0 1 1.49 1.525 1.49 1.525 0 0 1-1.49 1.525 1.49 1.525 0 0 1-1.49-1.525 1.49 1.525 0 0 1 1.49-1.525zm-8.746 5.921c0 2.194 2.1 3.972 3.972 3.972 1.872 0 3.972-1.778 3.972-3.972h-3.972zm-59.149 2.283a4.429 4.419 0 0 0 4.428 4.419 4.429 4.419 0 0 0 4.429-4.42h-1.398a3.03 3.024 0 0 1-3.03 3.025 3.03 3.024 0 0 1-3.032-3.024h-1.397zm.354-6.597a1.66 1.696 0 0 1 1.661 1.697 1.66 1.696 0 0 1-1.66 1.697 1.66 1.696 0 0 1-1.661-1.697 1.66 1.696 0 0 1 1.66-1.696zm8.148 0a1.66 1.696 0 0 1 1.661 1.697 1.66 1.696 0 0 1-1.661 1.697 1.66 1.696 0 0 1-1.66-1.697 1.66 1.696 0 0 1 1.66-1.696z" fill="#1a1a1a"/></g></svg>