<svg xmlns="http://www.w3.org/2000/svg" width="255" height="110" viewBox="0 0 255 110"><path fill="none" d="M0 0h255v110H0z"/><g transform="translate(-95.064 -208.601) scale(.60237)"><path d="M285.728 370.877l-.007.013-3.374 2.077 1.047 1.702-25.481 41.412 3.393 2.089 24.429-39.697 24.428 39.697 3.396-2.089-25.484-41.41 1.049-1.704-3.376-2.077-.007-.013-.006.004-.006-.004zm167.487 45.592l-.007.012-3.374 2.077 1.047 1.703-25.482 41.411 3.394 2.089 24.429-39.697 24.428 39.697 3.395-2.089-25.483-41.41 1.049-1.704-3.376-2.077-.007-.012-.006.004-.006-.004z" fill="#ffb934"/><path d="M288.202 363.134a6.85 6.85 0 0 0-8.39 4.844 6.85 6.85 0 0 0 4.844 8.39 6.85 6.85 0 0 0 5.457-.853l157.61 42.232a6.85 6.85 0 0 0 4.302 3.467 6.85 6.85 0 0 0 8.39-4.844 6.85 6.85 0 0 0-4.843-8.39 6.85 6.85 0 0 0-5.459.851L292.503 366.6a6.85 6.85 0 0 0-4.3-3.466z" fill="#ff1744"/><circle transform="rotate(15)" r="4.338" cy="283.018" cx="372.367" fill="#ffee5a"/><circle transform="rotate(15)" cx="545.641" cy="283.018" r="4.338" fill="#ffee5a"/><path d="M365.955 401.607l-3.295 34.015-5.765 57.925a54.516 19.359 0 0 0-41.297 18.762H424.63a54.516 19.359 0 0 0-41.296-18.755l-5.766-57.932-3.294-34.008a15.741 15.741 0 0 1-4.16.555 15.735 15.735 0 0 1-4.16-.562z" fill="#ff1744"/><circle r="11.571" cy="392.081" cx="370.114" fill="#ff1744"/><circle cx="370.114" cy="392.081" r="7.249" fill="#ffee5a"/><path d="M318.462 414.43a17.832 32.727 90 0 1-32.727 17.832 17.832 32.727 90 0 1-32.727-17.832h32.727zm167.487 45.591a17.832 32.727 90 0 1-32.727 17.832 17.832 32.727 90 0 1-32.727-17.832h32.727z" fill="#bd1939"/></g></svg>