<?xml version="1.0" encoding="UTF-8" standalone="no"?>
<svg
   xmlns:dc="http://purl.org/dc/elements/1.1/"
   xmlns:cc="http://creativecommons.org/ns#"
   xmlns:rdf="http://www.w3.org/1999/02/22-rdf-syntax-ns#"
   xmlns:svg="http://www.w3.org/2000/svg"
   xmlns="http://www.w3.org/2000/svg"
   xmlns:xlink="http://www.w3.org/1999/xlink"
   xmlns:sodipodi="http://sodipodi.sourceforge.net/DTD/sodipodi-0.dtd"
   xmlns:inkscape="http://www.inkscape.org/namespaces/inkscape"
   version="1.1"
   x="0px"
   y="0px"
   viewBox="0 0 1200 256"
   xml:space="preserve"
   id="svg3105"
   inkscape:version="0.48.5 r10040"
   width="100%"
   height="100%"
   sodipodi:docname="cover.svg"><metadata
     id="metadata3121"><rdf:RDF><cc:Work
         rdf:about=""><dc:format>image/svg+xml</dc:format><dc:type
           rdf:resource="http://purl.org/dc/dcmitype/StillImage" /><dc:title></dc:title></cc:Work></rdf:RDF></metadata><defs
     id="defs3119"><linearGradient
       id="linearGradient3419"><stop
         style="stop-color:#0379c4;stop-opacity:1;"
         offset="0"
         id="stop3421" /><stop
         style="stop-color:#0379c4;stop-opacity:1;"
         offset="1"
         id="stop3423" /></linearGradient><linearGradient
       inkscape:collect="always"
       xlink:href="#linearGradient3419"
       id="linearGradient3425"
       x1="-144.19083"
       y1="-352.67633"
       x2="255.80917"
       y2="-96.676331"
       gradientUnits="userSpaceOnUse"
       gradientTransform="translate(144.19083,352.67633)" /></defs><sodipodi:namedview
     pagecolor="#ffffff"
     bordercolor="#666666"
     borderopacity="1"
     objecttolerance="10"
     gridtolerance="10"
     guidetolerance="10"
     inkscape:pageopacity="0"
     inkscape:pageshadow="2"
     inkscape:window-width="1366"
     inkscape:window-height="735"
     id="namedview3117"
     showgrid="false"
     inkscape:snap-bbox="true"
     inkscape:snap-bbox-midpoints="true"
     inkscape:snap-bbox-edge-midpoints="true"
     inkscape:bbox-nodes="true"
     inkscape:bbox-paths="true"
     inkscape:zoom="0.36274578"
     inkscape:cx="938.90682"
     inkscape:cy="19.487621"
     inkscape:window-x="1366"
     inkscape:window-y="0"
     inkscape:window-maximized="1"
     inkscape:current-layer="svg3105"
     fit-margin-top="0"
     fit-margin-left="0"
     fit-margin-right="0"
     fit-margin-bottom="0" /><rect
     y="0"
     x="0"
     height="256"
     width="1200"
     id="rect3384"
     style="color:#000000;fill:#000000;fill-opacity:1;fill-rule:evenodd;stroke:none;stroke-width:3.33343697;marker:none;visibility:visible;display:inline;overflow:visible;enable-background:accumulate" /><text
     xml:space="preserve"
     style="font-size:48px;font-style:normal;font-variant:normal;font-stretch:normal;text-align:start;line-height:125%;letter-spacing:0px;word-spacing:0px;writing-mode:lr-tb;text-anchor:start;fill:#000000;fill-opacity:1;stroke:none;font-family:Roboto Slab;-inkscape-font-specification:Roboto Slab Semi-Light"
     x="75.961227"
     y="459.75745"
     id="text3136"
     sodipodi:linespacing="125%"><tspan
       sodipodi:role="line"
       id="tspan3138"
       x="75.961227"
       y="459.75745" /></text>
<rect
     style="color:#000000;fill:url(#linearGradient3425);fill-opacity:1;fill-rule:evenodd;stroke:none;stroke-width:3.33343697;marker:none;visibility:visible;display:inline;overflow:visible;enable-background:accumulate"
     id="rect3376"
     width="400"
     height="256"
     x="0"
     y="0" /><rect
     y="0"
     x="400"
     height="256"
     width="400"
     id="rect3380"
     style="color:#000000;fill:#00c853;fill-opacity:1;fill-rule:evenodd;stroke:none;stroke-width:3.33343697;marker:none;visibility:visible;display:inline;overflow:visible;enable-background:accumulate" /><rect
     style="color:#000000;fill:#2e2e2c;fill-opacity:1;fill-rule:evenodd;stroke:none;stroke-width:3.33343697;marker:none;visibility:visible;display:inline;overflow:visible;enable-background:accumulate"
     id="rect3382"
     width="400"
     height="256"
     x="800"
     y="0" /><path
     id="path3111"
     d="m 600.73009,59.554911 c 22.6325,0 41.06706,18.43454 41.06706,41.067049 h -82.13412 c 0,-22.632509 18.43454,-41.067049 41.06706,-41.067049 z m 73.19062,41.067049 h -8.39595 c 0,-35.591449 -29.02072,-64.794689 -64.79467,-64.794689 -35.77397,0 -64.79469,29.20324 -64.79469,64.794689 h -8.39593 c -2.00772,0 -3.65041,1.64268 -3.65041,3.65041 v 97.10077 c 0,2.00772 1.64269,3.65041 3.65041,3.65041 h 146.38124 c 2.00772,0 3.65039,-1.64269 3.65039,-3.65041 v -97.10077 c 0,-2.00773 -1.64267,-3.65041 -3.65039,-3.65041 z"
     style="fill:#007731;fill-opacity:1"
     inkscape:connector-curvature="0" /><path
     d="M 668.44509,196.08005 H 533.01507 v -86.33208 h 135.43002 v 86.33208 z"
     id="path3127"
     style="fill:#b2ff59;fill-opacity:1"
     inkscape:connector-curvature="0" /><path
     d="m 614.05406,157.02072 c 4.74553,-4.01544 7.66586,-10.03861 7.66586,-16.42682 0,-11.86382 -9.67358,-21.71991 -21.71992,-21.71991 -12.04633,0 -21.71991,9.67357 -21.71991,21.71991 0,6.38821 2.73781,12.41138 7.66585,16.42682 v 16.06178 c 0,7.66585 6.38821,14.05406 14.05406,14.05406 7.66586,0 14.05406,-6.38821 14.05406,-14.05406 v -16.06178 z"
     id="path3133"
     style="fill:#007731;fill-opacity:1"
     inkscape:connector-curvature="0" /><path
     d="m 600,177.82803 c -2.73781,0 -4.92805,-2.19024 -4.92805,-4.92805 V 152.2752 l -2.00772,-1.27765 c -3.46787,-2.37276 -5.65813,-6.20569 -5.65813,-10.40365 0,-6.93577 5.65813,-12.5939 12.5939,-12.5939 6.93577,0 12.59391,5.65813 12.59391,12.5939 0,4.19796 -2.00772,8.03089 -5.65814,10.40365 l -2.00772,1.27765 v 20.62478 c 0,2.73781 -2.19024,4.92805 -4.92805,4.92805 z"
     id="path3131"
     style="fill:#00c853;fill-opacity:1"
     inkscape:connector-curvature="0" /><path
     id="Fill-7"
     style="fill:#ffffff;stroke:none"
     d="m 200.00002,44.207571 c -46.72168,0 -84.59816,37.51573 -84.59816,83.792419 0,46.2767 37.87648,83.79243 84.59816,83.79243 46.72398,0 84.59812,-37.51573 84.59812,-83.79243 0,-46.276689 -37.87414,-83.792419 -84.59812,-83.792419 l 0,0 z m 29.00774,76.118429 -35.48893,58.49643 -6.42944,0 6.35659,-38.11625 -19.68551,0.028 c 0,0 -0.18566,0.004 -0.27484,0.004 -1.77187,0 -3.21001,-1.42448 -3.21001,-3.17947 0,-0.75412 0.70967,-2.02963 0.70967,-2.02963 l 35.37141,-58.428919 6.53756,0.0257 -6.51638,38.176759 19.78654,-0.0232 c 0,0 0.21387,-0.005 0.31489,-0.005 1.77189,0 3.20769,1.42214 3.20769,3.17945 0,0.71223 -0.27965,1.33835 -0.6815,1.86904 l 0.002,0.002 z"
     inkscape:connector-curvature="0" /><path
     id="path3330"
     style="fill:#f3df49;fill-opacity:1;fill-rule:nonzero;stroke-linejoin:round;stroke-miterlimit:1.41420996"
     d="m 1014.9667,171.35567 c 8.0752,0 14.0862,-4.18953 14.0862,-11.8398 0,-7.10371 -4.0681,-10.26116 -11.2933,-13.35759 l -2.1251,-0.91085 c -3.643,-1.57843 -5.2217,-2.6107 -5.2217,-5.16079 0,-2.06436 1.5787,-3.64299 4.0681,-3.64299 2.4287,0 4.0073,1.03228 5.4645,3.64299 l 6.618,-4.25015 c -2.7929,-4.91793 -6.6788,-6.80023 -12.0825,-6.80023 -7.5896,0 -12.4469,4.85731 -12.4469,11.23262 0,6.92167 4.0681,10.20036 10.2003,12.81106 l 2.1252,0.91085 c 3.8859,1.70006 6.1931,2.73214 6.1931,5.64652 0,2.42865 -2.2466,4.18952 -5.7682,4.18952 -4.1893,0 -6.5573,-2.18579 -8.3788,-5.16098 l -6.9217,4.00728 c 2.4895,4.91812 7.5896,8.68254 15.4828,8.68254 z m -32.78686,0 c 7.52882,0 12.68963,-4.00728 12.68963,-12.81126 l 0,-29.02242 -8.50031,0 0,28.901 c 0,4.25014 -1.76068,5.34303 -4.55364,5.34303 -2.91437,0 -4.1287,-2.00354 -5.46445,-4.37158 l -6.92168,4.18953 c 2.00355,4.25015 5.9502,7.7717 12.75045,7.7717 z m 71.28706,-53.6045 c 2.2101,0 3.7401,-0.88403 4.5562,-2.41409 l -0.102,2.10808 4.5901,0 0,-24.548849 -4.5901,0 0,12.104419 c -0.9181,-1.42805 -2.2101,-2.34608 -4.5222,-2.34608 -3.5021,0 -6.4942,3.0601 -6.4942,7.51426 0,4.45415 3.0261,7.58226 6.5622,7.58226 z m 1.326,-4.01214 c -1.938,0 -3.1621,-1.29205 -3.1621,-3.57012 0,-2.14208 1.2241,-3.46812 3.1621,-3.46812 1.9721,0 3.2641,1.32604 3.2641,3.46812 0,2.27807 -1.292,3.57012 -3.2641,3.57012 z m -20.2307,3.70613 4.5902,0 0,-6.42622 c 0,-3.09411 1.122,-4.04614 3.1961,-4.04614 0.646,0 1.19,0.17 1.7681,0.44201 l 1.462,-4.18214 c -0.578,-0.30601 -1.292,-0.57802 -2.2441,-0.57802 -1.496,0 -3.1961,0.54401 -4.2501,2.9241 l 0.068,-2.61809 -4.5902,0 0,14.4845 z m -8.0582,-8.6023 -3.3662,0 c -3.5701,0 -5.9162,1.25804 -5.9162,4.35215 0,3.36612 2.4481,4.55616 5.1002,4.55616 1.9381,0 3.1961,-0.64602 4.2842,-2.31208 l -0.102,2.00607 4.5562,0 0,-8.22829 c 0,-4.55615 -2.8221,-6.56222 -6.5283,-6.56222 -3.4001,0 -4.9301,1.05403 -6.2902,2.38008 l 2.5501,2.72009 c 0.646,-0.57802 1.564,-1.32604 3.2981,-1.32604 1.5301,0 2.3461,0.74802 2.4141,2.41408 z m 0,2.72009 0,0.57802 c 0,1.22405 -0.9521,2.04007 -2.8222,2.04007 -1.292,0 -1.972,-0.47601 -1.972,-1.29204 0,-0.81603 0.51,-1.32605 1.6661,-1.32605 l 3.1281,0 z m -21.1828,6.18822 c 2.2101,0 3.7401,-0.88403 4.5562,-2.41409 l -0.102,2.10808 4.5902,0 0,-24.548849 -4.5902,0 0,12.104419 c -0.918,-1.42805 -2.2101,-2.34608 -4.5222,-2.34608 -3.5021,0 -6.49418,3.0601 -6.49418,7.51426 0,4.45415 3.02608,7.58226 6.56218,7.58226 z m 1.3261,-4.01214 c -1.9381,0 -3.1621,-1.29205 -3.1621,-3.57012 0,-2.14208 1.224,-3.46812 3.1621,-3.46812 1.972,0 3.2641,1.32604 3.2641,3.46812 0,2.27807 -1.2921,3.57012 -3.2641,3.57012 z m -25.4329,3.70613 4.59016,0 0,-7.75227 c 0,-1.83606 1.08802,-2.8561 2.9241,-2.8561 1.63204,0 2.41407,0.91803 2.41407,2.55009 l 0,8.05828 4.59016,0 0,-8.36429 c 0,-4.11414 -2.27809,-6.42622 -5.44018,-6.42622 -2.00608,0 -3.70612,0.95203 -4.59016,2.68609 l 0.10197,-2.38008 -4.59016,0 0,14.4845 z m -8.0583,-8.6023 -3.3661,0 c -3.57013,0 -5.91621,1.25804 -5.91621,4.35215 0,3.36612 2.44809,4.55616 5.10019,4.55616 1.93806,0 3.19609,-0.64602 4.28414,-2.31208 l -0.10197,2.00607 4.55616,0 0,-8.22829 c 0,-4.55615 -2.82208,-6.56222 -6.52822,-6.56222 -3.40013,0 -4.93018,1.05403 -6.29023,2.38008 l 2.55011,2.72009 c 0.64601,-0.57802 1.56405,-1.32604 3.29811,-1.32604 1.53005,0 2.34607,0.74802 2.41407,2.41408 z m 0,2.72009 0,0.57802 c 0,1.22405 -0.95201,2.04007 -2.82208,2.04007 -1.29205,0 -1.97208,-0.47601 -1.97208,-1.29204 0,-0.81603 0.51002,-1.32605 1.66606,-1.32605 l 3.1281,0 z m -15.43652,6.25622 c 2.10807,0 3.33211,-0.74803 4.04614,-1.32604 l -1.73406,-3.19612 c -0.30602,0.20401 -0.85002,0.61203 -1.59805,0.61203 -0.71403,0 -1.19006,-0.30601 -1.19006,-1.76807 l 0,-5.37218 3.70615,0 0,-3.80813 -3.70615,0 0,-7.548259 -4.55614,0 0,7.548259 -2.14209,0 0,3.80813 2.14209,0 0,5.23618 c 0,4.35215 2.10808,5.8142 5.03217,5.8142 z m -14.68851,-0.068 c 4.55616,0 5.9502,-2.17607 5.9502,-4.82817 0,-3.0601 -2.65209,-4.04614 -4.76017,-4.52215 -1.97206,-0.44202 -2.89009,-0.54402 -2.89009,-1.36005 0,-0.57802 0.51002,-0.85003 1.56405,-0.85003 1.08804,0 2.10809,0.51002 2.7881,1.08804 l 2.44809,-2.61809 c -1.19003,-1.22404 -2.8901,-2.00607 -5.27019,-2.00607 -3.0941,0 -5.61019,1.32604 -5.61019,4.59016 0,3.0261 2.21009,4.11414 4.18215,4.62416 2.34608,0.61202 3.26411,0.61202 3.26411,1.39405 0,0.61202 -0.47603,0.88403 -1.97206,0.88403 -1.36004,0 -2.6181,-0.57802 -3.60413,-1.53006 l -2.68609,2.38008 c 1.25803,1.49606 3.23011,2.7541 6.59622,2.7541 z m -16.2955,-32.297619 73.01938,-42.05168 73.50955,42.05168 0,85.092899 -73.0196,42.05168 -73.50933,-42.05168 0,-85.092899 z"
     inkscape:connector-curvature="0" /></svg>