<?xml version="1.0" encoding="UTF-8" standalone="no"?>
<svg xmlns:inkscape="http://www.inkscape.org/namespaces/inkscape" xmlns:rdf="http://www.w3.org/1999/02/22-rdf-syntax-ns#" xmlns="http://www.w3.org/2000/svg" sodipodi:docname="drawing.svg" height="144mm" width="289mm" version="1.1" xmlns:cc="http://creativecommons.org/ns#" xmlns:dc="http://purl.org/dc/elements/1.1/" inkscape:version="0.91 r" viewBox="0 0 1024 512.00003" xmlns:sodipodi="http://sodipodi.sourceforge.net/DTD/sodipodi-0.dtd">
<sodipodi:namedview fit-margin-left="0" inkscape:zoom="0.35355339" borderopacity="1.0" inkscape:current-layer="layer1" inkscape:cx="395.84169" inkscape:cy="29.407829" inkscape:snap-bbox-midpoints="true" inkscape:document-units="px" inkscape:window-maximized="1" inkscape:snap-bbox="true" showgrid="false" fit-margin-right="0" showguides="true" bordercolor="#666666" inkscape:window-x="0" inkscape:guide-bbox="true" inkscape:window-y="24" fit-margin-bottom="0" inkscape:window-width="1366" inkscape:pageopacity="0.0" inkscape:pageshadow="2" pagecolor="#ffffff" inkscape:bbox-paths="true" inkscape:bbox-nodes="true" inkscape:snap-bbox-edge-midpoints="true" inkscape:window-height="722" fit-margin-top="0"/>
<g transform="translate(122 -66.6)" inkscape:groupmode="layer" stroke-width="0" inkscape:label="Layer 1">
<rect transform="scale(-1,1)" height="512" width="1.02e3" y="66.6" x="-902" fill="#fff"/>
<g transform="matrix(1.46 0 0 1.46 71.3 44.6)">
<g fill="#3f51b5">
<path d="m181 62.9a24.8 24.8 0 0 0 -24.8 24.8 24.8 24.8 0 0 0 1.65 8.79l17.6-8.79 0.006 0.0117h30.3a24.8 24.8 0 0 0 0 -0.0117 24.8 24.8 0 0 0 -24.8 -24.8z" inkscape:connector-curvature="0"/>
<path d="m342 62.9a24.8 24.8 0 0 0 -24.8 24.8 24.8 24.8 0 0 0 0 0.0117h18.4l0.0234-0.0117 0.006 0.0117h6.14v24.7a24.8 24.8 0 0 0 0.133 0.004 24.8 24.8 0 0 0 24.8 -24.7 24.8 24.8 0 0 0 -24.8 -24.8z" inkscape:connector-curvature="0"/>
<path d="m186 98.2v13.6a24.8 24.8 0 0 0 17.3 -13.6h-17.3z" inkscape:connector-curvature="0"/>
<path d="m175 99.6-11.7 5.83a24.8 24.8 0 0 0 11.7 6.32v-12.2z" inkscape:connector-curvature="0"/>
</g>
<path d="m95.2 101a24.8 24.8 0 0 0 -24.8 24.8 24.8 24.8 0 0 0 24.8 24.8v-12.6-10.6h0.0547l-0.0117-0.0234 22.7-11.3a24.8 24.8 0 0 0 -22.7 -14.9z" inkscape:connector-curvature="0" fill="#e91e63"/>
<path d="m331 102-6.73 3.36a24.8 24.8 0 0 0 6.73 4.76v-8.12z" inkscape:connector-curvature="0" fill="#3f51b5"/>
<g fill="#e91e63">
<path d="m258 109a24.8 24.8 0 0 0 -23.9 18.6h16.7 4.49l-0.0117-0.0234 21-10.5a24.8 24.8 0 0 0 -18.2 -8.06z" inkscape:connector-curvature="0"/>
<path d="m282 126-20.2 10.1v1.84 20.1a24.8 24.8 0 0 0 21.4 -24.5 24.8 24.8 0 0 0 -1.17 -7.49z" inkscape:connector-curvature="0"/>
<path d="m120 127-0.969 0.484h0.951a24.8 24.8 0 0 0 0.0176 -0.484z" inkscape:connector-curvature="0"/>
<path d="m106 138v10.2a24.8 24.8 0 0 0 10.9 -10.2h-10.9z" inkscape:connector-curvature="0"/>
<path d="m234 138a24.8 24.8 0 0 0 17.1 19.2v-19.2h-17.1z" inkscape:connector-curvature="0"/>
</g>
<g fill="#3f51b5">
<path d="m175 220a24.8 24.8 0 0 0 -20.8 24.4 24.8 24.8 0 0 0 2.21 10.2l18.5-9.27v-1.84-23.5z" inkscape:connector-curvature="0"/>
<path d="m186 220v22.9h18.1a24.8 24.8 0 0 0 -18.1 -22.9z" inkscape:connector-curvature="0"/>
<path d="m342 221a24.8 24.8 0 0 0 -0.133 0.006v22.3 10.4l0.133 0.244-17.9 8.91a24.8 24.8 0 0 0 17.9 7.65 24.8 24.8 0 0 0 24.8 -24.8 24.8 24.8 0 0 0 -24.8 -24.8z" inkscape:connector-curvature="0"/>
<path d="m331 223a24.8 24.8 0 0 0 -13.9 19.8h13.9v-19.8z" inkscape:connector-curvature="0"/>
<path d="m182 254 0.006 0.0117-18.3 9.14a24.8 24.8 0 0 0 16 5.92 24.8 24.8 0 0 0 22.7 -15.1h-16.1-4.31z" inkscape:connector-curvature="0"/>
</g>
<g fill="#e91e63">
<path d="m95.2 261a24.8 24.8 0 0 0 -24.8 24.8 24.8 24.8 0 0 0 24.8 24.8 24.8 24.8 0 0 0 23.5 -17.1h-12.9-4.44-6.16v-10.6-21.8z" inkscape:connector-curvature="0"/>
<path d="m106 264v15.9l11.1-5.54a24.8 24.8 0 0 0 -11.1 -10.4z" inkscape:connector-curvature="0"/>
<path d="m261 269v12.6l13.1-6.56a24.8 24.8 0 0 0 -13.1 -6.07z" inkscape:connector-curvature="0"/>
<path d="m251 270a24.8 24.8 0 0 0 -15.1 13.1h15.1v-13.1z" inkscape:connector-curvature="0"/>
<path d="m281 284-19.4 9.68v0.002h-0.006-28.1a24.8 24.8 0 0 0 24.8 24.8 24.8 24.8 0 0 0 24.8 -24.8 24.8 24.8 0 0 0 -1.98 -9.69z" inkscape:connector-curvature="0"/>
</g>
</g>
</g>
</svg>
