<svg xmlns="http://www.w3.org/2000/svg" viewBox="0 0 475 250"><defs><marker id="c" refX="0" refY="0" orient="auto" overflow="visible"><path d="M-5.231-2.42L1.324-.01-5.23 2.401c1.047-1.423 1.041-3.37 0-4.821z" fill="#666" fill-rule="evenodd" stroke="#666" stroke-width=".375" stroke-linejoin="round"/></marker><marker id="b" refX="0" refY="0" orient="auto" overflow="visible"><path d="M-5.231-2.42L1.324-.01-5.23 2.401c1.047-1.423 1.041-3.37 0-4.821z" fill="#666" fill-rule="evenodd" stroke="#666" stroke-width=".375" stroke-linejoin="round"/></marker><marker orient="auto" refY="0" refX="0" id="a" overflow="visible"><path d="M-5.231-2.42L1.324-.01-5.23 2.401c1.047-1.423 1.041-3.37 0-4.821z" fill="#666" fill-rule="evenodd" stroke="#666" stroke-width=".375" stroke-linejoin="round"/></marker></defs><g transform="translate(-27.529 162.807)"><rect width="475" height="250" x="27.529" y="-162.807" rx="0" ry="0" fill="#fff"/><path fill="#fff" stroke="#333" stroke-linecap="round" stroke-miterlimit="10.433" d="M238.529-136.807v198h-178v-198z"/><g transform="translate(-71.394 -154.682) scale(3.77953)" stroke-width=".265"><rect rx="1.225" ry="1.225" y="34.968" x="95.722" height="9.26" width="31.75" fill="#333"/><text y="40.923" x="104.24" style="line-height:1.25" font-weight="400" font-size="3.528" font-family="sans-serif" letter-spacing="0" word-spacing="0" fill="#fff" stroke-width=".07"><tspan style="-inkscape-font-specification:monospace" y="40.923" x="104.24" font-family="monospace">Valor 2</tspan></text></g><path fill="#fff" stroke="#333" stroke-linecap="round" stroke-miterlimit="10.433" d="M189.529-124.706h38v38h-38zm-118 0h118v38h-118z"/><text style="line-height:1.25" x="74.38" y="-102.028" font-weight="400" font-size="12.691" font-family="sans-serif" letter-spacing="0" word-spacing="0" fill="#333" stroke-width=".529" stroke-miterlimit="10.433"><tspan x="74.38" y="-102.028" style="-inkscape-font-specification:monospace" font-size="13.333" font-family="monospace">&quot;propriedade1&quot;</tspan></text><path fill="#fff" stroke="#333" stroke-linecap="round" stroke-miterlimit="10.433" d="M189.529-74.706h38v38h-38zm-118 0h118v38h-118z"/><text y="-52.028" x="74.38" style="line-height:1.25" font-weight="400" font-size="12.691" font-family="sans-serif" letter-spacing="0" word-spacing="0" fill="#333" stroke-width=".529" stroke-miterlimit="10.433"><tspan style="-inkscape-font-specification:monospace" y="-52.028" x="74.38" font-size="13.333" font-family="monospace">&quot;propriedade2&quot;</tspan></text><path fill="#fff" stroke="#333" stroke-linecap="round" stroke-miterlimit="10.433" d="M189.529-24.706h38v38h-38zm-118 0h118v38h-118z"/><text style="line-height:1.25" x="74.38" y="-2.028" font-weight="400" font-size="12.691" font-family="sans-serif" letter-spacing="0" word-spacing="0" fill="#333" stroke-width=".529" stroke-miterlimit="10.433"><tspan x="74.38" y="-2.028" style="-inkscape-font-specification:monospace" font-size="13.333" font-family="monospace">&quot;propriedade3&quot;</tspan></text><text style="line-height:1.25" x="20.35" y="-148.337" transform="rotate(90)" font-weight="400" font-size="16" font-family="sans-serif" letter-spacing="0" word-spacing="0" fill="#333" stroke-width=".265"><tspan x="20.35" y="-148.337" style="-inkscape-font-specification:'monospace Bold'" font-weight="700" font-family="monospace">...</tspan></text><g transform="translate(-74.93 -257.213) scale(3.77953)" stroke-width=".265"><rect width="31.75" height="9.26" x="95.722" y="34.968" ry="1.225" rx="1.225" fill="#333"/><text style="line-height:1.25" x="104.24" y="40.923" font-weight="400" font-size="3.528" font-family="sans-serif" letter-spacing="0" word-spacing="0" fill="#fff" stroke-width=".07"><tspan x="104.24" y="40.923" style="-inkscape-font-specification:monospace" font-family="monospace">Valor 3</tspan></text></g><g transform="translate(-11.257 -205.369) scale(3.77953)" stroke-width=".265"><rect rx="1.225" ry="1.225" y="34.968" x="95.722" height="9.26" width="31.75" fill="#333"/><text y="40.923" x="104.24" style="line-height:1.25" font-weight="400" font-size="3.528" font-family="sans-serif" letter-spacing="0" word-spacing="0" fill="#fff" stroke-width=".07"><tspan style="-inkscape-font-specification:monospace" y="40.923" x="104.24" font-family="monospace">Valor 1</tspan></text></g><circle cx="208.529" cy="-105.706" r="6.692" fill="#666"/><path d="M207.289-104.993s28.038-4.12 41.163 0c22.293 6.998 27.584 41.25 48.866 50.33 15.438 6.585 50.13 0 50.13 0" fill="none" stroke="#666" stroke-width="2" marker-end="url(#a)"/><circle cx="208.529" cy="-5.706" r="6.692" fill="#666"/><circle r="6.692" cy="-55.706" cx="208.529" fill="#666"/><path d="M210.81-55.327s30.42-14.786 57.5-5 47.443 35.288 47.443 35.288" fill="none" stroke="#666" stroke-width="2" marker-end="url(#b)"/><path d="M207.595-6.756s34.753-3.831 62.858-23.571c28.105-19.74 43.813-57.265 43.813-57.265" fill="none" stroke="#666" stroke-width="2" marker-end="url(#c)"/></g></svg>