<?xml version="1.0" encoding="UTF-8" standalone="no"?>
<!-- Created with Inkscape (http://www.inkscape.org/) -->

<svg
   xmlns:dc="http://purl.org/dc/elements/1.1/"
   xmlns:cc="http://creativecommons.org/ns#"
   xmlns:rdf="http://www.w3.org/1999/02/22-rdf-syntax-ns#"
   xmlns:svg="http://www.w3.org/2000/svg"
   xmlns="http://www.w3.org/2000/svg"
   xmlns:sodipodi="http://sodipodi.sourceforge.net/DTD/sodipodi-0.dtd"
   xmlns:inkscape="http://www.inkscape.org/namespaces/inkscape"
   width="255"
   height="110"
   viewBox="0 0 255 110"
   id="svg4625"
   version="1.1"
   inkscape:version="0.91 r"
   sodipodi:docname="building-model-1.svg">
  <defs
     id="defs4627" />
  <sodipodi:namedview
     id="base"
     pagecolor="#ffffff"
     bordercolor="#666666"
     borderopacity="1.0"
     inkscape:pageopacity="0.0"
     inkscape:pageshadow="2"
     inkscape:zoom="0.86419753"
     inkscape:cx="144.07331"
     inkscape:cy="154.23077"
     inkscape:document-units="px"
     inkscape:current-layer="layer1"
     showgrid="false"
     showguides="false"
     inkscape:window-width="857"
     inkscape:window-height="704"
     inkscape:window-x="507"
     inkscape:window-y="30"
     inkscape:window-maximized="0"
     fit-margin-top="0"
     fit-margin-left="0"
     fit-margin-right="0"
     fit-margin-bottom="0"
     units="px" />
  <metadata
     id="metadata4630">
    <rdf:RDF>
      <cc:Work
         rdf:about="">
        <dc:format>image/svg+xml</dc:format>
        <dc:type
           rdf:resource="http://purl.org/dc/dcmitype/StillImage" />
        <dc:title></dc:title>
      </cc:Work>
    </rdf:RDF>
  </metadata>
  <g
     inkscape:label="Layer 1"
     inkscape:groupmode="layer"
     id="layer1"
     transform="translate(-106.01048,-183.59734)">
    <rect
       y="183.59734"
       x="106.01048"
       height="110"
       width="255"
       id="rect4557"
       style="opacity:1;fill:none;fill-opacity:1;stroke:none;stroke-width:5;stroke-linecap:butt;stroke-linejoin:round;stroke-miterlimit:4;stroke-dasharray:none;stroke-dashoffset:0;stroke-opacity:1" />
    <g
       id="g5830"
       transform="matrix(0.35856333,0,0,0.35856333,144.85778,67.056602)">
      <rect
         transform="matrix(0.8660254,0.5,0.5,-0.8660254,0,0)"
         style="fill:#ffee5a;fill-opacity:1;stroke:none;stroke-width:10;stroke-linecap:round;stroke-linejoin:miter;stroke-miterlimit:4;stroke-dasharray:none"
         id="rect4697"
         width="70"
         height="7"
         x="388.36066"
         y="-377.41449" />
      <circle
         style="fill:#ffb934;fill-opacity:1;stroke:none;stroke-width:10;stroke-linecap:round;stroke-linejoin:miter;stroke-miterlimit:4;stroke-dasharray:none"
         id="circle4699"
         cx="238.94955"
         cy="564.70508"
         r="32.526913" />
      <g
         id="text4701"
         style="font-style:normal;font-weight:normal;font-size:16.96658134px;line-height:125%;font-family:sans-serif;letter-spacing:0px;word-spacing:0px;fill:#ffb934;fill-opacity:1;stroke:none;stroke-width:1px;stroke-linecap:butt;stroke-linejoin:miter;stroke-opacity:1">
        <path
           id="path5739"
           style="font-style:normal;font-variant:normal;font-weight:500;font-stretch:normal;font-family:Roboto;-inkscape-font-specification:'Roboto Medium';text-align:center;text-anchor:middle;fill:#ffb934;fill-opacity:1"
           d="m 202.04647,613.04333 -2.33622,0 0,4.64759 -2.09597,0 0,-12.06218 4.24164,0 q 2.08769,0 3.22266,0.93614 1.13497,0.93615 1.13497,2.70902 0,1.20953 -0.58819,2.0297 -0.57992,0.81187 -1.62376,1.25095 l 2.70902,5.02867 0,0.1077 -2.24509,0 -2.41906,-4.64759 z m -2.33622,-1.68174 2.15396,0 q 1.06041,0 1.65689,-0.53021 0.59648,-0.53849 0.59648,-1.46635 0,-0.96928 -0.55506,-1.49949 -0.54677,-0.5302 -1.64032,-0.54677 l -2.21195,0 0,4.04282 z"
           inkscape:connector-curvature="0" />
        <path
           id="path5741"
           style="font-style:normal;font-variant:normal;font-weight:500;font-stretch:normal;font-family:Roboto;-inkscape-font-specification:'Roboto Medium';text-align:center;text-anchor:middle;fill:#ffb934;fill-opacity:1"
           d="m 211.97125,617.85661 q -1.91371,0 -3.10667,-1.20125 -1.18468,-1.20953 -1.18468,-3.21437 l 0,-0.24854 q 0,-1.34208 0.51364,-2.39421 0.52192,-1.06041 1.45806,-1.6486 0.93615,-0.5882 2.08769,-0.5882 1.83087,0 2.825,1.16811 1.00242,1.16811 1.00242,3.3055 l 0,0.81188 -5.85711,0 q 0.0911,1.11011 0.73731,1.7563 0.65448,0.64619 1.64033,0.64619 1.3835,0 2.25337,-1.1184 l 1.08527,1.03556 q -0.53849,0.80359 -1.4415,1.25095 -0.89472,0.43908 -2.01313,0.43908 z m -0.24025,-7.6797 q -0.82844,0 -1.34208,0.57991 -0.50535,0.57991 -0.64619,1.61547 l 3.83571,0 0,-0.14912 q -0.0663,-1.0107 -0.53849,-1.52434 -0.47221,-0.52192 -1.30895,-0.52192 z"
           inkscape:connector-curvature="0" />
        <path
           id="path5743"
           style="font-style:normal;font-variant:normal;font-weight:500;font-stretch:normal;font-family:Roboto;-inkscape-font-specification:'Roboto Medium';text-align:center;text-anchor:middle;fill:#ffb934;fill-opacity:1"
           d="m 222.16114,615.25529 q 0,-0.53849 -0.44736,-0.82017 -0.43907,-0.28167 -1.46635,-0.49706 -1.02727,-0.2154 -1.71488,-0.54678 -1.50777,-0.72903 -1.50777,-2.11254 0,-1.15982 0.97756,-1.93856 0.97757,-0.77874 2.48534,-0.77874 1.60719,0 2.59304,0.79531 0.99414,0.79531 0.99414,2.06283 l -2.01313,0 q 0,-0.57991 -0.43079,-0.961 -0.43079,-0.38937 -1.14326,-0.38937 -0.66275,0 -1.08526,0.30653 -0.41422,0.30652 -0.41422,0.82016 0,0.46393 0.38937,0.72075 0.38936,0.25682 1.57404,0.52192 1.18468,0.25682 1.85572,0.62133 0.67933,0.35623 1.00242,0.86159 0.33138,0.50535 0.33138,1.2261 0,1.20953 -1.00242,1.96342 -1.00242,0.7456 -2.62617,0.7456 -1.10184,0 -1.96342,-0.39766 -0.86159,-0.39765 -1.34208,-1.09355 -0.4805,-0.69589 -0.4805,-1.49948 l 1.95513,0 q 0.0414,0.71246 0.53849,1.10183 0.49707,0.38108 1.31723,0.38108 0.79531,0 1.20953,-0.29824 0.41422,-0.30652 0.41422,-0.7953 z"
           inkscape:connector-curvature="0" />
        <path
           id="path5745"
           style="font-style:normal;font-variant:normal;font-weight:500;font-stretch:normal;font-family:Roboto;-inkscape-font-specification:'Roboto Medium';text-align:center;text-anchor:middle;fill:#ffb934;fill-opacity:1"
           d="m 228.02654,617.69092 -2.01312,0 0,-8.96379 2.01312,0 0,8.96379 z m -2.13739,-11.29173 q 0,-0.46393 0.28996,-0.77045 0.29824,-0.30653 0.84501,-0.30653 0.54678,0 0.84502,0.30653 0.29824,0.30652 0.29824,0.77045 0,0.45565 -0.29824,0.76217 -0.29824,0.29825 -0.84502,0.29825 -0.54677,0 -0.84501,-0.29825 -0.28996,-0.30652 -0.28996,-0.76217 z"
           inkscape:connector-curvature="0" />
        <path
           id="path5747"
           style="font-style:normal;font-variant:normal;font-weight:500;font-stretch:normal;font-family:Roboto;-inkscape-font-specification:'Roboto Medium';text-align:center;text-anchor:middle;fill:#ffb934;fill-opacity:1"
           d="m 229.84913,613.14275 q 0,-2.07112 0.961,-3.32207 0.96099,-1.25924 2.57646,-1.25924 1.42493,0 2.30308,0.99413 l 0,-4.58959 2.01313,0 0,12.72494 -1.82258,0 -0.0994,-0.92786 q -0.903,1.09355 -2.41078,1.09355 -1.57404,0 -2.55161,-1.26753 -0.96928,-1.26752 -0.96928,-3.44633 z m 2.01312,0.17397 q 0,1.36694 0.52192,2.13739 0.53021,0.76217 1.49949,0.76217 1.23439,0 1.80601,-1.10183 l 0,-3.82742 q -0.55505,-1.07698 -1.78944,-1.07698 -0.97757,0 -1.50777,0.77874 -0.53021,0.77045 -0.53021,2.32793 z"
           inkscape:connector-curvature="0" />
        <path
           id="path5749"
           style="font-style:normal;font-variant:normal;font-weight:500;font-stretch:normal;font-family:Roboto;-inkscape-font-specification:'Roboto Medium';text-align:center;text-anchor:middle;fill:#ffb934;fill-opacity:1"
           d="m 243.75046,617.85661 q -1.91371,0 -3.10668,-1.20125 -1.18468,-1.20953 -1.18468,-3.21437 l 0,-0.24854 q 0,-1.34208 0.51364,-2.39421 0.52192,-1.06041 1.45807,-1.6486 0.93614,-0.5882 2.08768,-0.5882 1.83087,0 2.825,1.16811 1.00242,1.16811 1.00242,3.3055 l 0,0.81188 -5.85711,0 q 0.0911,1.11011 0.73732,1.7563 0.65447,0.64619 1.64032,0.64619 1.3835,0 2.25337,-1.1184 l 1.08527,1.03556 q -0.53849,0.80359 -1.4415,1.25095 -0.89472,0.43908 -2.01312,0.43908 z m -0.24025,-7.6797 q -0.82845,0 -1.34209,0.57991 -0.50535,0.57991 -0.64618,1.61547 l 3.8357,0 0,-0.14912 q -0.0663,-1.0107 -0.53849,-1.52434 -0.47221,-0.52192 -1.30894,-0.52192 z"
           inkscape:connector-curvature="0" />
        <path
           id="path5751"
           style="font-style:normal;font-variant:normal;font-weight:500;font-stretch:normal;font-family:Roboto;-inkscape-font-specification:'Roboto Medium';text-align:center;text-anchor:middle;fill:#ffb934;fill-opacity:1"
           d="m 250.78396,608.72713 0.058,1.03556 q 0.99413,-1.20125 2.6096,-1.20125 2.80015,0 2.84986,3.20609 l 0,5.92339 -2.01313,0 0,-5.80741 q 0,-0.8533 -0.3728,-1.25924 -0.36452,-0.41422 -1.20125,-0.41422 -1.21781,0 -1.81429,1.10183 l 0,6.37904 -2.01313,0 0,-8.96379 1.89714,0 z"
           inkscape:connector-curvature="0" />
        <path
           id="path5753"
           style="font-style:normal;font-variant:normal;font-weight:500;font-stretch:normal;font-family:Roboto;-inkscape-font-specification:'Roboto Medium';text-align:center;text-anchor:middle;fill:#ffb934;fill-opacity:1"
           d="m 260.88273,606.54831 0,2.17882 1.58233,0 0,1.4912 -1.58233,0 0,5.00382 q 0,0.51363 0.19882,0.7456 0.20712,0.22368 0.72904,0.22368 0.34794,0 0.70418,-0.0828 l 0,1.55747 q -0.68761,0.19055 -1.32552,0.19055 -2.31965,0 -2.31965,-2.5599 l 0,-5.07838 -1.47463,0 0,-1.4912 1.47463,0 0,-2.17882 2.01313,0 z"
           inkscape:connector-curvature="0" />
        <path
           id="path5755"
           style="font-style:normal;font-variant:normal;font-weight:500;font-stretch:normal;font-family:Roboto;-inkscape-font-specification:'Roboto Medium';text-align:center;text-anchor:middle;fill:#ffb934;fill-opacity:1"
           d="m 266.13508,617.69092 -2.01313,0 0,-8.96379 2.01313,0 0,8.96379 z m -2.13739,-11.29173 q 0,-0.46393 0.28995,-0.77045 0.29824,-0.30653 0.84502,-0.30653 0.54677,0 0.84501,0.30653 0.29825,0.30652 0.29825,0.77045 0,0.45565 -0.29825,0.76217 -0.29824,0.29825 -0.84501,0.29825 -0.54678,0 -0.84502,-0.29825 -0.28995,-0.30652 -0.28995,-0.76217 z"
           inkscape:connector-curvature="0" />
        <path
           id="path5757"
           style="font-style:normal;font-variant:normal;font-weight:500;font-stretch:normal;font-family:Roboto;-inkscape-font-specification:'Roboto Medium';text-align:center;text-anchor:middle;fill:#ffb934;fill-opacity:1"
           d="m 273.69051,617.69092 q -0.13255,-0.25682 -0.23197,-0.83673 -0.96099,1.00242 -2.35278,1.00242 -1.35037,0 -2.20367,-0.77046 -0.8533,-0.77045 -0.8533,-1.90542 0,-1.43322 1.06041,-2.19539 1.0687,-0.77045 3.04868,-0.77045 l 1.23439,0 0,-0.5882 q 0,-0.69589 -0.38937,-1.11012 -0.38937,-0.42251 -1.18468,-0.42251 -0.68761,0 -1.12669,0.34795 -0.43907,0.33967 -0.43907,0.86987 l -2.01313,0 q 0,-0.73732 0.48878,-1.37522 0.48879,-0.64619 1.32552,-1.0107 0.84501,-0.36452 1.88057,-0.36452 1.57405,0 2.51019,0.79531 0.93615,0.78702 0.961,2.22023 l 0,4.04282 q 0,1.20953 0.33967,1.93028 l 0,0.14084 -2.05455,0 z m -2.21195,-1.44978 q 0.59648,0 1.1184,-0.28996 0.5302,-0.28996 0.79531,-0.77874 l 0,-1.69003 -1.08527,0 q -1.1184,0 -1.68174,0.38937 -0.56335,0.38937 -0.56335,1.10183 0,0.57992 0.38109,0.92786 0.38937,0.33967 1.03556,0.33967 z"
           inkscape:connector-curvature="0" />
        <path
           id="path5759"
           style="font-style:normal;font-variant:normal;font-weight:500;font-stretch:normal;font-family:Roboto;-inkscape-font-specification:'Roboto Medium';text-align:center;text-anchor:middle;fill:#ffb934;fill-opacity:1"
           d="m 279.65532,617.69092 -2.01312,0 0,-12.72494 2.01312,0 0,12.72494 z"
           inkscape:connector-curvature="0" />
      </g>
      <rect
         y="506.68155"
         x="-119.04623"
         height="7"
         width="70"
         id="rect4695"
         style="fill:#ffee5a;fill-opacity:1;stroke:none;stroke-width:10;stroke-linecap:round;stroke-linejoin:miter;stroke-miterlimit:4;stroke-dasharray:none"
         transform="matrix(0.8660254,-0.5,0.5,0.8660254,0,0)" />
      <rect
         y="-265.45279"
         x="462.284"
         height="7"
         width="70"
         id="rect4625"
         style="fill:#ffee5a;fill-opacity:1;stroke:none;stroke-width:10;stroke-linecap:round;stroke-linejoin:miter;stroke-miterlimit:4;stroke-dasharray:none"
         transform="matrix(0.8660254,0.5,0.5,-0.8660254,0,0)" />
      <rect
         transform="matrix(0.8660254,-0.5,0.5,0.8660254,0,0)"
         style="fill:#ffee5a;fill-opacity:1;stroke:none;stroke-width:10;stroke-linecap:round;stroke-linejoin:miter;stroke-miterlimit:4;stroke-dasharray:none"
         id="rect4627"
         width="70"
         height="7"
         x="13.831207"
         y="511.2905" />
      <g
         id="text4629"
         style="font-style:normal;font-weight:normal;font-size:16.96658134px;line-height:125%;font-family:sans-serif;letter-spacing:0px;word-spacing:0px;fill:#ff2650;fill-opacity:1;stroke:none;stroke-width:1px;stroke-linecap:butt;stroke-linejoin:miter;stroke-opacity:1">
        <path
           id="path5762"
           style="font-style:normal;font-variant:normal;font-weight:500;font-stretch:normal;font-family:Roboto;-inkscape-font-specification:'Roboto Medium';text-align:center;text-anchor:middle;fill:#ff2650;fill-opacity:1"
           d="m 93.737741,469.41855 0,-12.06218 4.133947,0 q 2.046263,0 3.114962,0.82016 1.06869,0.82016 1.06869,2.44392 0,0.82844 -0.44736,1.4912 -0.44736,0.66276 -1.30894,1.02728 0.97756,0.2651 1.50777,1.00242 0.53849,0.72903 0.53849,1.7563 0,1.69832 -1.09355,2.60961 -1.08527,0.91129 -3.114959,0.91129 l -4.39905,0 z m 2.095969,-5.44289 0,3.76943 2.327934,0 q 0.985851,0 1.540911,-0.48879 0.555055,-0.48878 0.555055,-1.35865 0,-1.88057 -1.921992,-1.92199 l -2.501908,0 z m 0,-1.54091 2.054547,0 q 0.977567,0 1.524341,-0.43908 0.555059,-0.44736 0.555059,-1.25924 0,-0.89472 -0.513636,-1.29238 -0.505353,-0.39765 -1.582333,-0.39765 l -2.037978,0 0,3.38835 z"
           inkscape:connector-curvature="0" />
        <path
           id="path5764"
           style="font-style:normal;font-variant:normal;font-weight:500;font-stretch:normal;font-family:Roboto;-inkscape-font-specification:'Roboto Medium';text-align:center;text-anchor:middle;fill:#ff2650;fill-opacity:1"
           d="m 109.67705,468.5404 q -0.88644,1.04384 -2.51848,1.04384 -1.45806,0 -2.21195,-0.8533 -0.7456,-0.8533 -0.7456,-2.46877 l 0,-5.80741 2.01312,0 0,5.78255 q 0,1.7066 1.41665,1.7066 1.46635,0 1.97998,-1.05212 l 0,-6.43703 2.01313,0 0,8.96379 -1.89714,0 -0.0497,-0.87815 z"
           inkscape:connector-curvature="0" />
        <path
           id="path5766"
           style="font-style:normal;font-variant:normal;font-weight:500;font-stretch:normal;font-family:Roboto;-inkscape-font-specification:'Roboto Medium';text-align:center;text-anchor:middle;fill:#ff2650;fill-opacity:1"
           d="m 115.83241,469.41855 -2.01313,0 0,-8.96379 2.01313,0 0,8.96379 z m -2.1374,-11.29173 q 0,-0.46393 0.28996,-0.77045 0.29824,-0.30653 0.84502,-0.30653 0.54677,0 0.84501,0.30653 0.29824,0.30652 0.29824,0.77045 0,0.45565 -0.29824,0.76218 -0.29824,0.29824 -0.84501,0.29824 -0.54678,0 -0.84502,-0.29824 -0.28996,-0.30653 -0.28996,-0.76218 z"
           inkscape:connector-curvature="0" />
        <path
           id="path5768"
           style="font-style:normal;font-variant:normal;font-weight:500;font-stretch:normal;font-family:Roboto;-inkscape-font-specification:'Roboto Medium';text-align:center;text-anchor:middle;fill:#ff2650;fill-opacity:1"
           d="m 120.17346,469.41855 -2.01312,0 0,-12.72494 2.01312,0 0,12.72494 z"
           inkscape:connector-curvature="0" />
        <path
           id="path5770"
           style="font-style:normal;font-variant:normal;font-weight:500;font-stretch:normal;font-family:Roboto;-inkscape-font-specification:'Roboto Medium';text-align:center;text-anchor:middle;fill:#ff2650;fill-opacity:1"
           d="m 121.99605,464.87038 q 0,-2.07112 0.96099,-3.32207 0.961,-1.25924 2.57647,-1.25924 1.42493,0 2.30308,0.99414 l 0,-4.5896 2.01313,0 0,12.72494 -1.82258,0 -0.0994,-0.92786 q -0.903,1.09355 -2.41078,1.09355 -1.57405,0 -2.55161,-1.26753 -0.96928,-1.26752 -0.96928,-3.44633 z m 2.01312,0.17397 q 0,1.36694 0.52192,2.13739 0.53021,0.76217 1.49949,0.76217 1.23438,0 1.80601,-1.10183 l 0,-3.82742 q -0.55506,-1.07698 -1.78944,-1.07698 -0.97757,0 -1.50777,0.77874 -0.53021,0.77045 -0.53021,2.32793 z"
           inkscape:connector-curvature="0" />
        <path
           id="path5772"
           style="font-style:normal;font-variant:normal;font-weight:500;font-stretch:normal;font-family:Roboto;-inkscape-font-specification:'Roboto Medium';text-align:center;text-anchor:middle;fill:#ff2650;fill-opacity:1"
           d="m 134.09136,469.41855 -2.01312,0 0,-8.96379 2.01312,0 0,8.96379 z m -2.13739,-11.29173 q 0,-0.46393 0.28996,-0.77045 0.29824,-0.30653 0.84501,-0.30653 0.54678,0 0.84502,0.30653 0.29824,0.30652 0.29824,0.77045 0,0.45565 -0.29824,0.76218 -0.29824,0.29824 -0.84502,0.29824 -0.54677,0 -0.84501,-0.29824 -0.28996,-0.30653 -0.28996,-0.76218 z"
           inkscape:connector-curvature="0" />
        <path
           id="path5774"
           style="font-style:normal;font-variant:normal;font-weight:500;font-stretch:normal;font-family:Roboto;-inkscape-font-specification:'Roboto Medium';text-align:center;text-anchor:middle;fill:#ff2650;fill-opacity:1"
           d="m 138.15903,460.45476 0.058,1.03556 q 0.99414,-1.20125 2.60961,-1.20125 2.80015,0 2.84985,3.20609 l 0,5.92339 -2.01312,0 0,-5.80741 q 0,-0.8533 -0.3728,-1.25924 -0.36452,-0.41422 -1.20125,-0.41422 -1.21781,0 -1.8143,1.10183 l 0,6.37904 -2.01312,0 0,-8.96379 1.89714,0 z"
           inkscape:connector-curvature="0" />
        <path
           id="path5776"
           style="font-style:normal;font-variant:normal;font-weight:500;font-stretch:normal;font-family:Roboto;-inkscape-font-specification:'Roboto Medium';text-align:center;text-anchor:middle;fill:#ff2650;fill-opacity:1"
           d="m 145.38309,464.87038 q 0,-2.08769 0.97756,-3.33036 0.98585,-1.25095 2.60961,-1.25095 1.53262,0 2.41078,1.0687 l 0.0911,-0.90301 1.81429,0 0,8.6904 q 0,1.76459 -1.10183,2.78358 -1.09355,1.01899 -2.95755,1.01899 -0.98585,0 -1.93028,-0.41422 -0.93615,-0.40594 -1.42493,-1.0687 l 0.95271,-1.20953 q 0.92786,1.10183 2.28651,1.10183 1.00242,0 1.58234,-0.54677 0.57991,-0.53849 0.57991,-1.59062 l 0,-0.60476 q -0.86987,0.96928 -2.31965,0.96928 -1.57405,0 -2.57647,-1.25096 -0.99413,-1.25095 -0.99413,-3.4629 z m 2.00484,0.17397 q 0,1.35037 0.54677,2.12911 0.55506,0.77045 1.53263,0.77045 1.21781,0 1.80601,-1.04384 l 0,-3.9434 q -0.57163,-1.01899 -1.78944,-1.01899 -0.99414,0 -1.5492,0.78702 -0.54677,0.78703 -0.54677,2.31965 z"
           inkscape:connector-curvature="0" />
      </g>
      <circle
         r="32.526913"
         cy="506.57898"
         cx="123.56161"
         id="circle4637"
         style="fill:#ff2650;fill-opacity:1;stroke:none;stroke-width:10;stroke-linecap:round;stroke-linejoin:miter;stroke-miterlimit:4;stroke-dasharray:none" />
      <circle
         r="32.526913"
         cy="448.45288"
         cx="238.94955"
         id="circle4647"
         style="fill:#ff6433;fill-opacity:1;stroke:none;stroke-width:10;stroke-linecap:round;stroke-linejoin:miter;stroke-miterlimit:4;stroke-dasharray:none" />
      <g
         id="text4651"
         style="font-style:normal;font-weight:normal;font-size:16.96658134px;line-height:125%;font-family:sans-serif;letter-spacing:0px;word-spacing:0px;fill:#ff6433;fill-opacity:1;stroke:none;stroke-width:1px;stroke-linecap:butt;stroke-linejoin:miter;stroke-opacity:1">
        <path
           id="path5779"
           style="font-style:normal;font-variant:normal;font-weight:500;font-stretch:normal;font-family:Roboto;-inkscape-font-specification:'Roboto Medium';text-align:center;text-anchor:middle;fill:#ff6433;fill-opacity:1"
           d="m 218.68995,383.77788 1.85572,-9.07977 2.0794,0 -2.78358,12.06217 -2.00484,0 -2.2948,-8.80638 -2.3445,8.80638 -2.01312,0 -2.78358,-12.06217 2.0794,0 1.87228,9.0632 2.30309,-9.0632 1.7563,0 2.27823,9.07977 z"
           inkscape:connector-curvature="0" />
        <path
           id="path5781"
           style="font-style:normal;font-variant:normal;font-weight:500;font-stretch:normal;font-family:Roboto;-inkscape-font-specification:'Roboto Medium';text-align:center;text-anchor:middle;fill:#ff6433;fill-opacity:1"
           d="m 223.33753,382.19555 q 0,-1.31723 0.52192,-2.36936 0.52193,-1.06041 1.46635,-1.62376 0.94443,-0.57162 2.17053,-0.57162 1.8143,0 2.94099,1.1681 1.13497,1.16811 1.2261,3.09839 l 0.008,0.47222 q 0,1.32551 -0.51363,2.36936 -0.50536,1.04384 -1.45807,1.61547 -0.94443,0.57162 -2.1871,0.57162 -1.89714,0 -3.0404,-1.25923 -1.13497,-1.26753 -1.13497,-3.37178 l 0,-0.0994 z m 2.01313,0.17397 q 0,1.3835 0.57163,2.17053 0.57162,0.77874 1.59061,0.77874 1.01899,0 1.58234,-0.79531 0.57162,-0.79531 0.57162,-2.32793 0,-1.35866 -0.58819,-2.15397 -0.57992,-0.7953 -1.58234,-0.7953 -0.98585,0 -1.56576,0.78702 -0.57991,0.77874 -0.57991,2.33622 z"
           inkscape:connector-curvature="0" />
        <path
           id="path5783"
           style="font-style:normal;font-variant:normal;font-weight:500;font-stretch:normal;font-family:Roboto;-inkscape-font-specification:'Roboto Medium';text-align:center;text-anchor:middle;fill:#ff6433;fill-opacity:1"
           d="m 238.08388,379.63565 q -0.39766,-0.0663 -0.82016,-0.0663 -1.38351,0 -1.86401,1.06041 l 0,6.1305 -2.01312,0 0,-8.96379 1.92199,0 0.0497,1.00242 q 0.72903,-1.1681 2.02141,-1.1681 0.43079,0 0.71246,0.11598 l -0.008,1.88886 z"
           inkscape:connector-curvature="0" />
        <path
           id="path5785"
           style="font-style:normal;font-variant:normal;font-weight:500;font-stretch:normal;font-family:Roboto;-inkscape-font-specification:'Roboto Medium';text-align:center;text-anchor:middle;fill:#ff6433;fill-opacity:1"
           d="m 242.26753,382.91629 -0.89472,0.91958 0,2.92441 -2.01312,0 0,-12.72493 2.01312,0 0,7.34003 0.62962,-0.78702 2.47705,-2.79187 2.41907,0 -3.33036,3.7363 3.68659,5.22749 -2.32793,0 -2.65932,-3.84399 z"
           inkscape:connector-curvature="0" />
        <path
           id="path5787"
           style="font-style:normal;font-variant:normal;font-weight:500;font-stretch:normal;font-family:Roboto;-inkscape-font-specification:'Roboto Medium';text-align:center;text-anchor:middle;fill:#ff6433;fill-opacity:1"
           d="m 250.34488,386.76028 -2.01312,0 0,-8.96379 2.01312,0 0,8.96379 z m -2.13739,-11.29172 q 0,-0.46393 0.28996,-0.77045 0.29824,-0.30653 0.84501,-0.30653 0.54678,0 0.84502,0.30653 0.29824,0.30652 0.29824,0.77045 0,0.45565 -0.29824,0.76217 -0.29824,0.29824 -0.84502,0.29824 -0.54677,0 -0.84501,-0.29824 -0.28996,-0.30652 -0.28996,-0.76217 z"
           inkscape:connector-curvature="0" />
        <path
           id="path5789"
           style="font-style:normal;font-variant:normal;font-weight:500;font-stretch:normal;font-family:Roboto;-inkscape-font-specification:'Roboto Medium';text-align:center;text-anchor:middle;fill:#ff6433;fill-opacity:1"
           d="m 254.41256,377.79649 0.058,1.03556 q 0.99413,-1.20124 2.6096,-1.20124 2.80015,0 2.84986,3.20608 l 0,5.92339 -2.01313,0 0,-5.8074 q 0,-0.8533 -0.3728,-1.25924 -0.36451,-0.41423 -1.20124,-0.41423 -1.21782,0 -1.8143,1.10184 l 0,6.37903 -2.01313,0 0,-8.96379 1.89715,0 z"
           inkscape:connector-curvature="0" />
        <path
           id="path5791"
           style="font-style:normal;font-variant:normal;font-weight:500;font-stretch:normal;font-family:Roboto;-inkscape-font-specification:'Roboto Medium';text-align:center;text-anchor:middle;fill:#ff6433;fill-opacity:1"
           d="m 261.63661,382.21211 q 0,-2.08768 0.97756,-3.33035 0.98585,-1.25095 2.60961,-1.25095 1.53262,0 2.41078,1.06869 l 0.0911,-0.90301 1.81429,0 0,8.69041 q 0,1.76459 -1.10183,2.78358 -1.09355,1.01899 -2.95755,1.01899 -0.98585,0 -1.93028,-0.41423 -0.93615,-0.40594 -1.42493,-1.06869 l 0.95271,-1.20953 q 0.92786,1.10183 2.28651,1.10183 1.00242,0 1.58234,-0.54678 0.57991,-0.53849 0.57991,-1.59061 l 0,-0.60477 q -0.86987,0.96928 -2.31965,0.96928 -1.57405,0 -2.57647,-1.25095 -0.99413,-1.25095 -0.99413,-3.46291 z m 2.00484,0.17398 q 0,1.35037 0.54677,2.1291 0.55506,0.77046 1.53263,0.77046 1.21781,0 1.80601,-1.04384 l 0,-3.94341 q -0.57163,-1.01899 -1.78944,-1.01899 -0.99414,0 -1.5492,0.78703 -0.54677,0.78702 -0.54677,2.31965 z"
           inkscape:connector-curvature="0" />
        <path
           id="path5793"
           style="font-style:normal;font-variant:normal;font-weight:500;font-stretch:normal;font-family:Roboto;-inkscape-font-specification:'Roboto Medium';text-align:center;text-anchor:middle;fill:#ff6433;fill-opacity:1"
           d="m 209.61018,407.96851 0,-12.06218 4.13394,0 q 2.04627,0 3.11496,0.82016 1.0687,0.82017 1.0687,2.44392 0,0.82845 -0.44736,1.4912 -0.44736,0.66276 -1.30895,1.02728 0.97757,0.2651 1.50777,1.00242 0.53849,0.72903 0.53849,1.7563 0,1.69832 -1.09354,2.60961 -1.08527,0.91129 -3.11496,0.91129 l -4.39905,0 z m 2.09597,-5.44289 0,3.76943 2.32793,0 q 0.98585,0 1.54091,-0.48878 0.55506,-0.48879 0.55506,-1.35866 0,-1.88057 -1.922,-1.92199 l -2.5019,0 z m 0,-1.54091 2.05454,0 q 0.97757,0 1.52434,-0.43908 0.55506,-0.44736 0.55506,-1.25924 0,-0.89472 -0.51363,-1.29237 -0.50536,-0.39766 -1.58234,-0.39766 l -2.03797,0 0,3.38835 z"
           inkscape:connector-curvature="0" />
        <path
           id="path5795"
           style="font-style:normal;font-variant:normal;font-weight:500;font-stretch:normal;font-family:Roboto;-inkscape-font-specification:'Roboto Medium';text-align:center;text-anchor:middle;fill:#ff6433;fill-opacity:1"
           d="m 225.54948,407.09036 q -0.88643,1.04384 -2.51847,1.04384 -1.45807,0 -2.21195,-0.8533 -0.74561,-0.8533 -0.74561,-2.46877 l 0,-5.80741 2.01313,0 0,5.78256 q 0,1.7066 1.41664,1.7066 1.46635,0 1.97999,-1.05213 l 0,-6.43703 2.01312,0 0,8.96379 -1.89714,0 -0.0497,-0.87815 z"
           inkscape:connector-curvature="0" />
        <path
           id="path5797"
           style="font-style:normal;font-variant:normal;font-weight:500;font-stretch:normal;font-family:Roboto;-inkscape-font-specification:'Roboto Medium';text-align:center;text-anchor:middle;fill:#ff6433;fill-opacity:1"
           d="m 231.70484,407.96851 -2.01312,0 0,-8.96379 2.01312,0 0,8.96379 z m -2.13739,-11.29172 q 0,-0.46393 0.28996,-0.77046 0.29824,-0.30652 0.84501,-0.30652 0.54678,0 0.84502,0.30652 0.29824,0.30653 0.29824,0.77046 0,0.45564 -0.29824,0.76217 -0.29824,0.29824 -0.84502,0.29824 -0.54677,0 -0.84501,-0.29824 -0.28996,-0.30653 -0.28996,-0.76217 z"
           inkscape:connector-curvature="0" />
        <path
           id="path5799"
           style="font-style:normal;font-variant:normal;font-weight:500;font-stretch:normal;font-family:Roboto;-inkscape-font-specification:'Roboto Medium';text-align:center;text-anchor:middle;fill:#ff6433;fill-opacity:1"
           d="m 236.0459,407.96851 -2.01313,0 0,-12.72493 2.01313,0 0,12.72493 z"
           inkscape:connector-curvature="0" />
        <path
           id="path5801"
           style="font-style:normal;font-variant:normal;font-weight:500;font-stretch:normal;font-family:Roboto;-inkscape-font-specification:'Roboto Medium';text-align:center;text-anchor:middle;fill:#ff6433;fill-opacity:1"
           d="m 237.86848,403.42034 q 0,-2.07112 0.961,-3.32207 0.961,-1.25924 2.57647,-1.25924 1.42493,0 2.30308,0.99414 l 0,-4.58959 2.01312,0 0,12.72493 -1.82258,0 -0.0994,-0.92786 q -0.90301,1.09355 -2.41078,1.09355 -1.57405,0 -2.55162,-1.26752 -0.96928,-1.26753 -0.96928,-3.44634 z m 2.01313,0.17397 q 0,1.36694 0.52192,2.1374 0.5302,0.76217 1.49949,0.76217 1.23438,0 1.80601,-1.10184 l 0,-3.82742 q -0.55506,-1.07698 -1.78944,-1.07698 -0.97757,0 -1.50778,0.77874 -0.5302,0.77046 -0.5302,2.32793 z"
           inkscape:connector-curvature="0" />
        <path
           id="path5803"
           style="font-style:normal;font-variant:normal;font-weight:500;font-stretch:normal;font-family:Roboto;-inkscape-font-specification:'Roboto Medium';text-align:center;text-anchor:middle;fill:#ff6433;fill-opacity:1"
           d="m 249.9638,407.96851 -2.01313,0 0,-8.96379 2.01313,0 0,8.96379 z m -2.13739,-11.29172 q 0,-0.46393 0.28995,-0.77046 0.29824,-0.30652 0.84502,-0.30652 0.54677,0 0.84501,0.30652 0.29824,0.30653 0.29824,0.77046 0,0.45564 -0.29824,0.76217 -0.29824,0.29824 -0.84501,0.29824 -0.54678,0 -0.84502,-0.29824 -0.28995,-0.30653 -0.28995,-0.76217 z"
           inkscape:connector-curvature="0" />
        <path
           id="path5805"
           style="font-style:normal;font-variant:normal;font-weight:500;font-stretch:normal;font-family:Roboto;-inkscape-font-specification:'Roboto Medium';text-align:center;text-anchor:middle;fill:#ff6433;fill-opacity:1"
           d="m 254.03147,399.00472 0.058,1.03556 q 0.99414,-1.20125 2.60961,-1.20125 2.80014,0 2.84985,3.20609 l 0,5.92339 -2.01312,0 0,-5.80741 q 0,-0.8533 -0.3728,-1.25924 -0.36452,-0.41422 -1.20125,-0.41422 -1.21782,0 -1.8143,1.10183 l 0,6.37904 -2.01312,0 0,-8.96379 1.89714,0 z"
           inkscape:connector-curvature="0" />
        <path
           id="path5807"
           style="font-style:normal;font-variant:normal;font-weight:500;font-stretch:normal;font-family:Roboto;-inkscape-font-specification:'Roboto Medium';text-align:center;text-anchor:middle;fill:#ff6433;fill-opacity:1"
           d="m 261.25552,403.42034 q 0,-2.08768 0.97757,-3.33035 0.98585,-1.25096 2.60961,-1.25096 1.53262,0 2.41077,1.0687 l 0.0911,-0.90301 1.8143,0 0,8.6904 q 0,1.76459 -1.10183,2.78358 -1.09355,1.01899 -2.95756,1.01899 -0.98585,0 -1.93028,-0.41422 -0.93614,-0.40594 -1.42492,-1.0687 l 0.95271,-1.20953 q 0.92786,1.10184 2.28651,1.10184 1.00242,0 1.58233,-0.54678 0.57992,-0.53849 0.57992,-1.59062 l 0,-0.60476 q -0.86987,0.96928 -2.31965,0.96928 -1.57405,0 -2.57647,-1.25095 -0.99414,-1.25096 -0.99414,-3.46291 z m 2.00484,0.17397 q 0,1.35037 0.54678,2.12911 0.55506,0.77046 1.53262,0.77046 1.21782,0 1.80602,-1.04385 l 0,-3.9434 q -0.57163,-1.01899 -1.78945,-1.01899 -0.99413,0 -1.54919,0.78702 -0.54678,0.78703 -0.54678,2.31965 z"
           inkscape:connector-curvature="0" />
      </g>
      <circle
         r="32.526913"
         cy="504.70508"
         cx="358.94955"
         id="circle4661"
         style="fill:#ffb934;fill-opacity:1;stroke:none;stroke-width:10;stroke-linecap:round;stroke-linejoin:miter;stroke-miterlimit:4;stroke-dasharray:none" />
      <circle
         style="fill:#ffb934;fill-opacity:1;stroke:none;stroke-width:10;stroke-linecap:round;stroke-linejoin:miter;stroke-miterlimit:4;stroke-dasharray:none"
         id="circle4667"
         cx="354.84091"
         cy="392.20068"
         r="32.526913" />
      <g
         id="text4671"
         style="font-style:normal;font-weight:normal;font-size:16.96658134px;line-height:125%;font-family:sans-serif;text-align:center;letter-spacing:0px;word-spacing:0px;text-anchor:middle;fill:#ffb934;fill-opacity:1;stroke:none;stroke-width:1px;stroke-linecap:butt;stroke-linejoin:miter;stroke-opacity:1">
        <path
           id="path5810"
           style="font-style:normal;font-variant:normal;font-weight:500;font-stretch:normal;font-family:Roboto;-inkscape-font-specification:'Roboto Medium';text-align:center;text-anchor:middle;fill:#ffb934;fill-opacity:1"
           d="m 323.0944,347.76399 q -0.18226,1.93028 -1.42492,3.01555 -1.24267,1.07698 -3.30551,1.07698 -1.44149,0 -2.54333,-0.67933 -1.09355,-0.68761 -1.69003,-1.94685 -0.59648,-1.25924 -0.62133,-2.92441 l 0,-1.12669 q 0,-1.7066 0.60476,-3.00726 0.60477,-1.30066 1.73146,-2.00484 1.13497,-0.70418 2.61789,-0.70418 1.99655,0 3.21437,1.08526 1.21782,1.08527 1.41664,3.06525 l -2.08768,0 q -0.14912,-1.30066 -0.76217,-1.87228 -0.60477,-0.57992 -1.78116,-0.57992 -1.36694,0 -2.10426,1.00242 -0.72903,0.99414 -0.7456,2.92442 l 0,1.06869 q 0,1.95514 0.6959,2.98241 0.70418,1.02728 2.05454,1.02728 1.23439,0 1.85572,-0.55506 0.62134,-0.55506 0.78703,-1.84744 l 2.08768,0 z"
           inkscape:connector-curvature="0" />
        <path
           id="path5812"
           style="font-style:normal;font-variant:normal;font-weight:500;font-stretch:normal;font-family:Roboto;-inkscape-font-specification:'Roboto Medium';text-align:center;text-anchor:middle;fill:#ffb934;fill-opacity:1"
           d="m 324.38678,347.12609 q 0,-1.31723 0.52192,-2.36936 0.52192,-1.06041 1.46635,-1.62375 0.94443,-0.57163 2.17053,-0.57163 1.8143,0 2.94098,1.16811 1.13498,1.16811 1.22611,3.09839 l 0.008,0.47221 q 0,1.32551 -0.51364,2.36936 -0.50535,1.04384 -1.45806,1.61547 -0.94443,0.57163 -2.1871,0.57163 -1.89714,0 -3.0404,-1.25924 -1.13497,-1.26753 -1.13497,-3.37178 l 0,-0.0994 z m 2.01312,0.17397 q 0,1.38351 0.57163,2.17053 0.57163,0.77874 1.59062,0.77874 1.01899,0 1.58233,-0.79531 0.57163,-0.79531 0.57163,-2.32793 0,-1.35866 -0.5882,-2.15396 -0.57991,-0.79531 -1.58233,-0.79531 -0.98585,0 -1.56576,0.78702 -0.57992,0.77874 -0.57992,2.33622 z"
           inkscape:connector-curvature="0" />
        <path
           id="path5814"
           style="font-style:normal;font-variant:normal;font-weight:500;font-stretch:normal;font-family:Roboto;-inkscape-font-specification:'Roboto Medium';text-align:center;text-anchor:middle;fill:#ffb934;fill-opacity:1"
           d="m 336.33298,342.72704 0.058,0.93614 q 0.94443,-1.10183 2.58475,-1.10183 1.79773,0 2.46049,1.37522 0.97756,-1.37522 2.75044,-1.37522 1.48292,0 2.20366,0.82016 0.72904,0.82016 0.74561,2.41906 l 0,5.89026 -2.01313,0 0,-5.83227 q 0,-0.8533 -0.3728,-1.25095 -0.3728,-0.39765 -1.23438,-0.39765 -0.68761,0 -1.12669,0.3728 -0.43079,0.36451 -0.60477,0.96099 l 0.008,6.14708 -2.01313,0 0,-5.89854 q -0.0414,-1.58233 -1.61547,-1.58233 -1.20953,0 -1.71488,0.98585 l 0,6.49502 -2.01313,0 0,-8.96379 1.89715,0 z"
           inkscape:connector-curvature="0" />
        <path
           id="path5816"
           style="font-style:normal;font-variant:normal;font-weight:500;font-stretch:normal;font-family:Roboto;-inkscape-font-specification:'Roboto Medium';text-align:center;text-anchor:middle;fill:#ffb934;fill-opacity:1"
           d="m 351.11246,342.72704 0.058,0.93614 q 0.94443,-1.10183 2.58475,-1.10183 1.79773,0 2.46049,1.37522 0.97757,-1.37522 2.75044,-1.37522 1.48292,0 2.20367,0.82016 0.72903,0.82016 0.7456,2.41906 l 0,5.89026 -2.01312,0 0,-5.83227 q 0,-0.8533 -0.37281,-1.25095 -0.3728,-0.39765 -1.23438,-0.39765 -0.68761,0 -1.12669,0.3728 -0.43079,0.36451 -0.60476,0.96099 l 0.008,6.14708 -2.01312,0 0,-5.89854 q -0.0414,-1.58233 -1.61547,-1.58233 -1.20954,0 -1.71489,0.98585 l 0,6.49502 -2.01312,0 0,-8.96379 1.89714,0 z"
           inkscape:connector-curvature="0" />
        <path
           id="path5818"
           style="font-style:normal;font-variant:normal;font-weight:500;font-stretch:normal;font-family:Roboto;-inkscape-font-specification:'Roboto Medium';text-align:center;text-anchor:middle;fill:#ffb934;fill-opacity:1"
           d="m 367.94649,351.85652 q -1.91371,0 -3.10668,-1.20125 -1.18468,-1.20953 -1.18468,-3.21437 l 0,-0.24854 q 0,-1.34208 0.51364,-2.39421 0.52192,-1.06041 1.45807,-1.64861 0.93614,-0.58819 2.08768,-0.58819 1.83087,0 2.825,1.16811 1.00242,1.16811 1.00242,3.3055 l 0,0.81188 -5.85711,0 q 0.0911,1.11011 0.73732,1.7563 0.65447,0.64619 1.64032,0.64619 1.3835,0 2.25337,-1.1184 l 1.08527,1.03556 q -0.53849,0.80359 -1.4415,1.25095 -0.89472,0.43908 -2.01312,0.43908 z m -0.24025,-7.6797 q -0.82845,0 -1.34209,0.57991 -0.50535,0.57991 -0.64618,1.61547 l 3.8357,0 0,-0.14912 q -0.0663,-1.0107 -0.53849,-1.52434 -0.47221,-0.52192 -1.30894,-0.52192 z"
           inkscape:connector-curvature="0" />
        <path
           id="path5820"
           style="font-style:normal;font-variant:normal;font-weight:500;font-stretch:normal;font-family:Roboto;-inkscape-font-specification:'Roboto Medium';text-align:center;text-anchor:middle;fill:#ffb934;fill-opacity:1"
           d="m 377.805,344.56619 q -0.39765,-0.0663 -0.82016,-0.0663 -1.38351,0 -1.86401,1.06041 l 0,6.13051 -2.01312,0 0,-8.96379 1.92199,0 0.0497,1.00242 q 0.72903,-1.16811 2.02141,-1.16811 0.43079,0 0.71246,0.11598 l -0.008,1.88886 z"
           inkscape:connector-curvature="0" />
        <path
           id="path5822"
           style="font-style:normal;font-variant:normal;font-weight:500;font-stretch:normal;font-family:Roboto;-inkscape-font-specification:'Roboto Medium';text-align:center;text-anchor:middle;fill:#ffb934;fill-opacity:1"
           d="m 382.59342,350.24933 q 0.75389,0 1.25096,-0.43908 0.49707,-0.43907 0.5302,-1.08526 l 1.89715,0 q -0.0331,0.83673 -0.52192,1.56576 -0.48879,0.72075 -1.32552,1.14326 -0.83673,0.42251 -1.80601,0.42251 -1.88058,0 -2.98241,-1.21782 -1.10183,-1.21782 -1.10183,-3.36349 l 0,-0.20711 q 0,-2.04627 1.09355,-3.27237 1.09355,-1.23438 2.9824,-1.23438 1.5989,0 2.60132,0.93614 1.01071,0.92786 1.06042,2.44392 l -1.89715,0 q -0.0331,-0.77046 -0.5302,-1.26752 -0.48878,-0.49707 -1.25096,-0.49707 -0.97756,0 -1.50777,0.71246 -0.5302,0.70418 -0.53849,2.14568 l 0,0.32309 q 0,1.45807 0.52192,2.17882 0.53021,0.71246 1.52434,0.71246 z"
           inkscape:connector-curvature="0" />
        <path
           id="path5824"
           style="font-style:normal;font-variant:normal;font-weight:500;font-stretch:normal;font-family:Roboto;-inkscape-font-specification:'Roboto Medium';text-align:center;text-anchor:middle;fill:#ffb934;fill-opacity:1"
           d="m 389.93346,351.69083 -2.01313,0 0,-8.96379 2.01313,0 0,8.96379 z m -2.13739,-11.29173 q 0,-0.46393 0.28995,-0.77045 0.29824,-0.30653 0.84502,-0.30653 0.54677,0 0.84501,0.30653 0.29824,0.30652 0.29824,0.77045 0,0.45565 -0.29824,0.76217 -0.29824,0.29824 -0.84501,0.29824 -0.54678,0 -0.84502,-0.29824 -0.28995,-0.30652 -0.28995,-0.76217 z"
           inkscape:connector-curvature="0" />
        <path
           id="path5826"
           style="font-style:normal;font-variant:normal;font-weight:500;font-stretch:normal;font-family:Roboto;-inkscape-font-specification:'Roboto Medium';text-align:center;text-anchor:middle;fill:#ffb934;fill-opacity:1"
           d="m 397.48889,351.69083 q -0.13256,-0.25682 -0.23197,-0.83673 -0.961,1.00242 -2.35279,1.00242 -1.35036,0 -2.20366,-0.77046 -0.8533,-0.77045 -0.8533,-1.90543 0,-1.43321 1.06041,-2.19538 1.06869,-0.77045 3.04868,-0.77045 l 1.23439,0 0,-0.5882 q 0,-0.6959 -0.38937,-1.11012 -0.38937,-0.42251 -1.18468,-0.42251 -0.68761,0 -1.12669,0.34795 -0.43908,0.33966 -0.43908,0.86987 l -2.01312,0 q 0,-0.73732 0.48878,-1.37522 0.48879,-0.64619 1.32552,-1.01071 0.84501,-0.36451 1.88057,-0.36451 1.57405,0 2.51019,0.79531 0.93615,0.78702 0.961,2.22023 l 0,4.04282 q 0,1.20953 0.33966,1.93028 l 0,0.14084 -2.05454,0 z m -2.21196,-1.44978 q 0.59649,0 1.11841,-0.28996 0.5302,-0.28996 0.79531,-0.77874 l 0,-1.69003 -1.08527,0 q -1.1184,0 -1.68175,0.38937 -0.56334,0.38937 -0.56334,1.10183 0,0.57991 0.38109,0.92786 0.38937,0.33967 1.03555,0.33967 z"
           inkscape:connector-curvature="0" />
        <path
           id="path5828"
           style="font-style:normal;font-variant:normal;font-weight:500;font-stretch:normal;font-family:Roboto;-inkscape-font-specification:'Roboto Medium';text-align:center;text-anchor:middle;fill:#ffb934;fill-opacity:1"
           d="m 403.4537,351.69083 -2.01313,0 0,-12.72494 2.01313,0 0,12.72494 z"
           inkscape:connector-curvature="0" />
      </g>
      <g
         id="text4675"
         style="font-style:normal;font-weight:normal;font-size:16.96658134px;line-height:125%;font-family:sans-serif;letter-spacing:0px;word-spacing:0px;fill:#ffb934;fill-opacity:1;stroke:none;stroke-width:1px;stroke-linecap:butt;stroke-linejoin:miter;stroke-opacity:1">
        <path
           id="path5718"
           style="font-style:normal;font-variant:normal;font-weight:500;font-stretch:normal;font-family:Roboto;-inkscape-font-specification:'Roboto Medium';text-align:center;text-anchor:middle;fill:#ffb934;fill-opacity:1"
           d="m 326.30468,557.69086 -2.08768,0 0,-12.06218 2.08768,0 0,12.06218 z"
           inkscape:connector-curvature="0" />
        <path
           id="path5720"
           style="font-style:normal;font-variant:normal;font-weight:500;font-stretch:normal;font-family:Roboto;-inkscape-font-specification:'Roboto Medium';text-align:center;text-anchor:middle;fill:#ffb934;fill-opacity:1"
           d="m 330.57118,548.72707 0.058,1.03556 q 0.99414,-1.20125 2.60961,-1.20125 2.80015,0 2.84985,3.20609 l 0,5.92339 -2.01312,0 0,-5.80741 q 0,-0.8533 -0.3728,-1.25924 -0.36452,-0.41422 -1.20125,-0.41422 -1.21782,0 -1.8143,1.10183 l 0,6.37904 -2.01312,0 0,-8.96379 1.89714,0 z"
           inkscape:connector-curvature="0" />
        <path
           id="path5722"
           style="font-style:normal;font-variant:normal;font-weight:500;font-stretch:normal;font-family:Roboto;-inkscape-font-specification:'Roboto Medium';text-align:center;text-anchor:middle;fill:#ffb934;fill-opacity:1"
           d="m 337.77038,553.14269 q 0,-2.07112 0.961,-3.32207 0.96099,-1.25924 2.57646,-1.25924 1.42493,0 2.30309,0.99413 l 0,-4.58959 2.01312,0 0,12.72494 -1.82258,0 -0.0994,-0.92786 q -0.903,1.09355 -2.41077,1.09355 -1.57405,0 -2.55162,-1.26753 -0.96928,-1.26752 -0.96928,-3.44633 z m 2.01312,0.17397 q 0,1.36694 0.52192,2.13739 0.53021,0.76217 1.49949,0.76217 1.23439,0 1.80602,-1.10183 l 0,-3.82742 q -0.55506,-1.07698 -1.78945,-1.07698 -0.97757,0 -1.50777,0.77874 -0.53021,0.77045 -0.53021,2.32793 z"
           inkscape:connector-curvature="0" />
        <path
           id="path5724"
           style="font-style:normal;font-variant:normal;font-weight:500;font-stretch:normal;font-family:Roboto;-inkscape-font-specification:'Roboto Medium';text-align:center;text-anchor:middle;fill:#ffb934;fill-opacity:1"
           d="m 353.15463,556.8127 q -0.88644,1.04385 -2.51848,1.04385 -1.45807,0 -2.21195,-0.8533 -0.7456,-0.8533 -0.7456,-2.46877 l 0,-5.80741 2.01312,0 0,5.78255 q 0,1.7066 1.41664,1.7066 1.46635,0 1.97999,-1.05212 l 0,-6.43703 2.01313,0 0,8.96379 -1.89715,0 -0.0497,-0.87816 z"
           inkscape:connector-curvature="0" />
        <path
           id="path5726"
           style="font-style:normal;font-variant:normal;font-weight:500;font-stretch:normal;font-family:Roboto;-inkscape-font-specification:'Roboto Medium';text-align:center;text-anchor:middle;fill:#ffb934;fill-opacity:1"
           d="m 362.19298,555.25522 q 0,-0.53849 -0.44736,-0.82016 -0.43908,-0.28167 -1.46635,-0.49707 -1.02728,-0.21539 -1.71489,-0.54677 -1.50777,-0.72903 -1.50777,-2.11254 0,-1.15982 0.97757,-1.93856 0.97756,-0.77874 2.48533,-0.77874 1.60719,0 2.59304,0.79531 0.99414,0.79531 0.99414,2.06283 l -2.01313,0 q 0,-0.57991 -0.43079,-0.961 -0.43079,-0.38937 -1.14326,-0.38937 -0.66275,0 -1.08526,0.30653 -0.41422,0.30652 -0.41422,0.82016 0,0.46393 0.38937,0.72075 0.38937,0.25681 1.57404,0.52192 1.18468,0.25682 1.85572,0.62133 0.67933,0.35623 1.00242,0.86159 0.33138,0.50535 0.33138,1.2261 0,1.20953 -1.00242,1.96341 -1.00242,0.74561 -2.62617,0.74561 -1.10184,0 -1.96342,-0.39766 -0.86158,-0.39765 -1.34208,-1.09355 -0.4805,-0.69589 -0.4805,-1.49949 l 1.95513,0 q 0.0414,0.71247 0.53849,1.10184 0.49707,0.38108 1.31723,0.38108 0.79531,0 1.20953,-0.29824 0.41423,-0.30652 0.41423,-0.79531 z"
           inkscape:connector-curvature="0" />
        <path
           id="path5728"
           style="font-style:normal;font-variant:normal;font-weight:500;font-stretch:normal;font-family:Roboto;-inkscape-font-specification:'Roboto Medium';text-align:center;text-anchor:middle;fill:#ffb934;fill-opacity:1"
           d="m 368.43946,546.54825 0,2.17882 1.58233,0 0,1.4912 -1.58233,0 0,5.00382 q 0,0.51363 0.19883,0.7456 0.20711,0.22368 0.72903,0.22368 0.34795,0 0.70418,-0.0829 l 0,1.55748 q -0.68761,0.19055 -1.32551,0.19055 -2.31965,0 -2.31965,-2.5599 l 0,-5.07838 -1.47464,0 0,-1.4912 1.47464,0 0,-2.17882 2.01312,0 z"
           inkscape:connector-curvature="0" />
        <path
           id="path5730"
           style="font-style:normal;font-variant:normal;font-weight:500;font-stretch:normal;font-family:Roboto;-inkscape-font-specification:'Roboto Medium';text-align:center;text-anchor:middle;fill:#ffb934;fill-opacity:1"
           d="m 376.24343,550.56622 q -0.39766,-0.0663 -0.82017,-0.0663 -1.3835,0 -1.864,1.06041 l 0,6.13051 -2.01312,0 0,-8.96379 1.92199,0 0.0497,1.00242 q 0.72903,-1.16811 2.02141,-1.16811 0.43079,0 0.71246,0.11598 l -0.008,1.88886 z"
           inkscape:connector-curvature="0" />
        <path
           id="path5732"
           style="font-style:normal;font-variant:normal;font-weight:500;font-stretch:normal;font-family:Roboto;-inkscape-font-specification:'Roboto Medium';text-align:center;text-anchor:middle;fill:#ffb934;fill-opacity:1"
           d="m 379.65662,557.69086 -2.01312,0 0,-8.96379 2.01312,0 0,8.96379 z m -2.13739,-11.29173 q 0,-0.46393 0.28996,-0.77045 0.29824,-0.30653 0.84501,-0.30653 0.54678,0 0.84502,0.30653 0.29824,0.30652 0.29824,0.77045 0,0.45565 -0.29824,0.76217 -0.29824,0.29824 -0.84502,0.29824 -0.54677,0 -0.84501,-0.29824 -0.28996,-0.30652 -0.28996,-0.76217 z"
           inkscape:connector-curvature="0" />
        <path
           id="path5734"
           style="font-style:normal;font-variant:normal;font-weight:500;font-stretch:normal;font-family:Roboto;-inkscape-font-specification:'Roboto Medium';text-align:center;text-anchor:middle;fill:#ffb934;fill-opacity:1"
           d="m 387.21206,557.69086 q -0.13255,-0.25682 -0.23197,-0.83673 -0.961,1.00242 -2.35279,1.00242 -1.35036,0 -2.20366,-0.77046 -0.8533,-0.77045 -0.8533,-1.90543 0,-1.43321 1.06041,-2.19538 1.06869,-0.77045 3.04868,-0.77045 l 1.23439,0 0,-0.5882 q 0,-0.6959 -0.38937,-1.11012 -0.38937,-0.42251 -1.18468,-0.42251 -0.68761,0 -1.12669,0.34795 -0.43908,0.33966 -0.43908,0.86987 l -2.01312,0 q 0,-0.73732 0.48878,-1.37522 0.48879,-0.64619 1.32552,-1.01071 0.84501,-0.36451 1.88057,-0.36451 1.57405,0 2.51019,0.79531 0.93615,0.78702 0.961,2.22023 l 0,4.04282 q 0,1.20953 0.33966,1.93028 l 0,0.14084 -2.05454,0 z m -2.21195,-1.44978 q 0.59648,0 1.1184,-0.28996 0.5302,-0.28996 0.79531,-0.77874 l 0,-1.69003 -1.08527,0 q -1.1184,0 -1.68174,0.38937 -0.56335,0.38937 -0.56335,1.10183 0,0.57992 0.38109,0.92786 0.38937,0.33967 1.03556,0.33967 z"
           inkscape:connector-curvature="0" />
        <path
           id="path5736"
           style="font-style:normal;font-variant:normal;font-weight:500;font-stretch:normal;font-family:Roboto;-inkscape-font-specification:'Roboto Medium';text-align:center;text-anchor:middle;fill:#ffb934;fill-opacity:1"
           d="m 393.17687,557.69086 -2.01313,0 0,-12.72494 2.01313,0 0,12.72494 z"
           inkscape:connector-curvature="0" />
      </g>
      <path
         style="fill:#ffffff"
         inkscape:connector-curvature="0"
         d="m 123.56166,503.12963 13.7969,0 0,6.89873 -13.7969,0 0,-6.89873 0,0 z m -15.5222,0 13.7975,0 0,6.89873 -13.7975,0 0,-6.89873 0,0 z m 24.145,8.62341 13.798,0 0,6.89873 -13.798,0 0,-6.89873 0,0 z m -15.5216,0 13.7969,0 0,6.89873 -13.7969,0 0,-6.89873 0,0 z m -15.5221,0 13.7975,0 0,6.89873 -13.7975,0 0,-6.89873 0,0 z m 15.5221,-17.24682 13.7969,0 0,6.89873 -13.7969,0 0,-6.89873 0,0 z"
         id="path4608" />
      <path
         style="fill:#ffffff"
         inkscape:connector-curvature="0"
         d="m 238.98216,438.84337 c -5.3072,0 -9.6093,4.3029 -9.6093,9.60972 0,5.30762 4.3021,9.60972 9.6093,9.60972 5.3073,0 9.6102,-4.3021 9.6102,-9.60972 0,-5.30682 -4.3029,-9.60972 -9.6102,-9.60972 z m 0.7542,15.67658 0,0.53973 c 0,0.43509 -0.299,0.78363 -0.8041,0.78363 -0.4701,0 -0.7695,-0.34854 -0.7695,-0.78403 l 0,-0.55703 c -1.5735,-0.40048 -2.6896,-1.72384 -2.6896,-3.0472 0,-0.45279 0.3875,-0.80094 0.8749,-0.80094 0.4874,0 0.9076,0.34815 0.9076,0.80094 0,0.69669 0.1207,1.23642 0.9075,1.37608 l 0,-4.2313 -0.1648,-0.0873 c -0.2612,-0.13926 -0.4662,-0.24391 -0.6054,-0.34815 -1.0795,-0.74862 -1.7738,-1.6369 -1.7738,-2.89024 0,-1.56687 0.9705,-2.5944 2.544,-2.94255 l 0,-0.33084 c 0,-0.43509 0.2994,-0.78363 0.7695,-0.78363 0.5051,0 0.8041,0.34854 0.8041,0.78363 l 0,0.33084 c 1.5735,0.34815 2.7222,1.32336 2.7222,2.8383 0,0.43549 -0.3627,0.78324 -0.8501,0.78324 -0.5055,0 -0.9622,-0.34736 -0.9622,-0.78324 0,-0.54012 -0.1231,-0.9579 -0.9099,-1.13178 l 0,3.7612 0.6499,0.33084 c 1.3748,0.78324 2.1034,1.89732 2.1034,3.37764 0,1.67112 -1.1802,2.73327 -2.7537,3.01219 z m -2.5138,-9.29855 c 0,0.80173 0.5468,1.20141 0.9402,1.61958 l 0,-3.04759 c -0.7868,0.33124 -0.9402,0.81865 -0.9402,1.42801 z m 2.5138,4.44058 0,3.25569 c 0.7868,-0.2262 0.9575,-0.74862 0.9575,-1.4103 0,-0.73131 -0.1707,-1.39299 -0.9575,-1.84539 z m 7.7317,6.70926 c -0.4257,-0.11408 -0.6802,0.14083 -0.5661,0.56609 l 1.6298,6.08337 c 0.1141,0.42565 0.4618,0.51888 0.7734,0.20732 l 0.8171,-0.81707 c 0.3115,-0.31157 0.821,-0.31157 1.1321,0 l 4.4937,4.49448 c 0.3116,0.31117 0.821,0.31117 1.1326,0 l 0.4878,-0.48781 c 0.3116,-0.31156 0.3116,-0.821 0,-1.13257 l -4.4937,-4.49408 c -0.3116,-0.31117 -0.3116,-0.82061 0,-1.13217 l 0.8832,-0.88316 c 0.3115,-0.31157 0.2183,-0.65972 -0.2074,-0.77341 l -6.0825,-1.63099 z m -16.437,0.59992 c 0.114,-0.42565 -0.1409,-0.68017 -0.5661,-0.56609 l -6.0834,1.63021 c -0.4257,0.11408 -0.5189,0.46184 -0.2073,0.7734 l 0.817,0.81707 c 0.3116,0.31157 0.3116,0.82061 0,1.13218 l -4.4944,4.49408 c -0.3116,0.31156 -0.3116,0.821 0,1.13296 l 0.4874,0.48741 c 0.3115,0.31117 0.821,0.31157 1.1322,0 l 4.4948,-4.49408 c 0.3116,-0.31157 0.8206,-0.31157 1.1322,0 l 0.8832,0.88355 c 0.3115,0.31157 0.6593,0.21833 0.7734,-0.20732 l 1.631,-6.08337 z m 15.837,-17.03613 c -0.114,0.42565 0.1409,0.68017 0.5661,0.56609 l 6.0834,-1.63022 c 0.4256,-0.11407 0.5189,-0.46183 0.2073,-0.7734 l -0.8171,-0.81707 c -0.3115,-0.31156 -0.3115,-0.8206 0,-1.13218 l 4.4945,-4.49408 c 0.3116,-0.31156 0.3116,-0.8206 0,-1.13256 l -0.4878,-0.4878 c -0.3115,-0.31117 -0.821,-0.31117 -1.1325,0 l -4.4945,4.49408 c -0.3116,0.31155 -0.8206,0.31155 -1.1322,0 l -0.8832,-0.88356 c -0.3115,-0.31157 -0.6593,-0.21833 -0.7734,0.20732 l -1.6306,6.08338 z m -16.437,0.59992 c 0.4257,0.11369 0.6802,-0.14084 0.5661,-0.56609 l -1.6298,-6.08378 c -0.1141,-0.42565 -0.4618,-0.51848 -0.7734,-0.20731 l -0.8171,0.81707 c -0.3115,0.31157 -0.821,0.31157 -1.1321,0 l -4.4941,-4.49448 c -0.3116,-0.31116 -0.821,-0.31116 -1.1326,0 l -0.4878,0.4878 c -0.3116,0.31157 -0.3116,0.82062 0,1.13258 l 4.4941,4.49408 c 0.3116,0.31117 0.3116,0.8206 0,1.13218 l -0.8832,0.88315 c -0.3115,0.31157 -0.2183,0.65972 0.2074,0.7734 l 6.0825,1.6314 z"
         id="path4543" />
      <path
         style="fill:#ffffff"
         inkscape:connector-curvature="0"
         d="m 359.86716,508.37561 -5.5057,0 0,-3.67052 5.5057,0 0,3.67052 z m 9.1763,0 -5.5058,0 0,-3.67052 5.5058,0 0,3.67052 z m -9.1763,7.34105 -5.5057,0 0,-3.67052 5.5057,0 0,3.67052 z m 9.1763,0 -5.5058,0 0,-3.67052 5.5058,0 0,3.67052 z m -18.3526,-7.34105 -5.5058,0 0,-3.67052 5.5058,0 0,3.67052 z m 0,7.34105 -5.5058,0 0,-3.67052 5.5058,0 0,3.67052 z m 21.5643,-27.52892 -2.6808,12.74864 -15.2129,-3.6641 0,3.67052 -12.8469,-3.67052 0,23.95016 34.8699,0 0,-33.0347 -4.1293,0 z"
         id="path4569" />
      <path
         inkscape:connector-curvature="0"
         d="m 349.59826,402.27623 1.7203,0 0,5.89787 -1.7203,0 0,-5.89787 z m 0,-8.76489 1.7203,0 0,5.89787 -1.7203,0 0,-5.89787 z m 0,-8.84681 1.7203,0 0,5.89787 -1.7203,0 0,-5.89787 z m 0,-8.76489 1.7203,0 0,5.89787 -1.7203,0 0,-5.89787 z m -3.9319,5.89787 -1.7202,0 0,-5.89787 1.7202,0 0,5.89787 z m 0,8.84681 -1.7202,0 0,-5.89788 1.7202,0 0,5.89788 z m 0,8.76489 -1.7202,0 0,-5.89787 1.7202,0 0,5.89787 z m -5.8978,-17.6117 -1.8022,0 0,-5.89787 1.7202,0 0,5.89787 z m 0,8.84681 -1.8022,0 0,-5.89788 1.7202,0 0,5.89788 z m 0,8.76489 -1.8022,0 0,-5.89787 1.7202,0 0,5.89787 z m 0,8.84681 -1.8022,0 0,-5.89787 1.7202,0 0,5.89787 z m 14.1712,3.19468 0,-24.65638 0,-13.84362 -18.3489,0 0,38.5 5.816,0 0,-9.99362 6.7989,0 0,9.99362 5.734,0 z m -10.8126,-8.2734 3.2765,0 0,8.2734 -3.2765,0 z m 26.7041,-2.45745 0,-3.44043 1.7202,0 0,3.44043 -1.7202,0 z m -3.9319,-5.97979 -1.7202,0 0,-3.35851 1.7202,0 0,3.35851 z m 0,5.97979 -1.7202,0 0,-3.44043 1.7202,0 0,3.44043 z m -5.8979,-5.97979 -1.7202,0 0,-3.35851 1.7202,0 0,3.35851 z m 0,5.97979 -1.7202,0 0,-3.44043 1.7202,0 0,3.44043 z m 9.8298,-9.3383 1.7202,0 0,3.44043 -1.7202,0 0,-3.44043 z m 4.2596,20.06915 0,-22.93617 -18.3489,0 0,22.93617 2.9489,0 0,-9.25638 12.4511,0 0,9.25638 2.9489,0 z m -13.6798,-7.53618 9.0107,0 0,7.53617 -9.0107,0 z"
         style="fill:#ffffff"
         id="path4506" />
      <path
         style="fill:#ffffff"
         inkscape:connector-curvature="0"
         d="m 253.82546,563.83003 0,14.87598 -7.8755,0 0,2.62517 -14.0009,0 0,-2.62517 -7.8755,0 0,-14.87598 7.5259,0 7.3501,-5.87995 7.35,5.87995 7.5259,0 0,0 z m -18.3762,2.62518 0,11.37574 7.0005,0 0,-11.37574 -7.0005,0 0,0 z m -10.5007,-18.37621 28.0019,0 5.2503,12.2508 -10.6739,0 -8.5773,-6.8622 -8.5778,6.8622 -10.6735,0 5.2503,-12.2508 0,0 z"
         id="path4589" />
    </g>
  </g>
</svg>
