<?xml version="1.0" encoding="UTF-8" standalone="no"?>
<!-- Created with Inkscape (http://www.inkscape.org/) -->

<svg
   xmlns:dc="http://purl.org/dc/elements/1.1/"
   xmlns:cc="http://creativecommons.org/ns#"
   xmlns:rdf="http://www.w3.org/1999/02/22-rdf-syntax-ns#"
   xmlns:svg="http://www.w3.org/2000/svg"
   xmlns="http://www.w3.org/2000/svg"
   xmlns:sodipodi="http://sodipodi.sourceforge.net/DTD/sodipodi-0.dtd"
   xmlns:inkscape="http://www.inkscape.org/namespaces/inkscape"
   width="255"
   height="110"
   viewBox="0 0 255 110"
   id="svg4625"
   version="1.1"
   inkscape:version="0.91 r"
   sodipodi:docname="scale.svg">
  <defs
     id="defs4627" />
  <sodipodi:namedview
     id="base"
     pagecolor="#ffffff"
     bordercolor="#666666"
     borderopacity="1.0"
     inkscape:pageopacity="0.0"
     inkscape:pageshadow="2"
     inkscape:zoom="0.61107993"
     inkscape:cx="198.52829"
     inkscape:cy="262.42409"
     inkscape:document-units="px"
     inkscape:current-layer="layer1"
     showgrid="false"
     showguides="true"
     inkscape:window-width="857"
     inkscape:window-height="704"
     inkscape:window-x="507"
     inkscape:window-y="30"
     inkscape:window-maximized="0"
     fit-margin-top="0"
     fit-margin-left="0"
     fit-margin-right="0"
     fit-margin-bottom="0"
     units="px" />
  <metadata
     id="metadata4630">
    <rdf:RDF>
      <cc:Work
         rdf:about="">
        <dc:format>image/svg+xml</dc:format>
        <dc:type
           rdf:resource="http://purl.org/dc/dcmitype/StillImage" />
        <dc:title></dc:title>
      </cc:Work>
    </rdf:RDF>
  </metadata>
  <g
     inkscape:label="Layer 1"
     inkscape:groupmode="layer"
     id="layer1"
     transform="translate(-106.01048,-183.59734)">
    <rect
       y="183.59734"
       x="106.01048"
       height="110"
       width="255"
       id="rect4557"
       style="opacity:1;fill:none;fill-opacity:1;stroke:none;stroke-width:5;stroke-linecap:butt;stroke-linejoin:round;stroke-miterlimit:4;stroke-dasharray:none;stroke-dashoffset:0;stroke-opacity:1" />
    <g
       id="g7512"
       transform="matrix(0.6023733,0,0,0.6023733,10.946515,-25.004037)">
      <path
         inkscape:connector-curvature="0"
         id="rect4722"
         d="m 285.72837,370.8773 -0.007,0.0123 -3.37424,2.0774 1.0473,1.70249 -25.48188,41.41157 3.3939,2.08847 24.42844,-39.6968 24.42852,39.6968 3.39514,-2.08847 -25.4832,-41.41034 1.04853,-1.70372 -3.37547,-2.0774 -0.007,-0.0123 -0.006,0.004 -0.006,-0.004 z"
         style="fill:#ffb934;fill-opacity:1;stroke:none;stroke-width:10;stroke-linecap:round;stroke-linejoin:miter;stroke-miterlimit:4;stroke-dasharray:none" />
      <path
         style="fill:#ffb934;fill-opacity:1;stroke:none;stroke-width:10;stroke-linecap:round;stroke-linejoin:miter;stroke-miterlimit:4;stroke-dasharray:none"
         d="m 453.2151,416.46852 -0.007,0.0123 -3.37424,2.07741 1.0473,1.70248 -25.48196,41.41157 3.39391,2.08847 24.42851,-39.6968 24.42852,39.6968 3.39514,-2.08847 -25.4832,-41.41034 1.04853,-1.70371 -3.37546,-2.07741 -0.007,-0.0123 -0.006,0.004 -0.006,-0.004 z"
         id="path4765"
         inkscape:connector-curvature="0" />
      <path
         id="rect4705"
         d="m 288.20205,363.1336 a 6.8505139,6.8505139 0 0 0 -8.39012,4.84403 6.8505139,6.8505139 0 0 0 4.84404,8.39013 6.8505139,6.8505139 0 0 0 5.45752,-0.85251 l 157.60954,42.23135 a 6.8505139,6.8505139 0 0 0 4.30247,3.46769 6.8505139,6.8505139 0 0 0 8.39013,-4.84404 6.8505139,6.8505139 0 0 0 -4.84405,-8.39012 6.8505139,6.8505139 0 0 0 -5.45839,0.851 L 292.50365,366.59979 a 6.8505139,6.8505139 0 0 0 -4.3016,-3.46619 z"
         style="fill:#ff1744;fill-opacity:1;stroke:none;stroke-width:10;stroke-linecap:round;stroke-linejoin:miter;stroke-miterlimit:4;stroke-dasharray:none"
         inkscape:connector-curvature="0" />
      <circle
         transform="matrix(0.96592582,0.25881905,-0.25881905,0.96592582,0,0)"
         r="4.3384519"
         cy="283.01804"
         cx="372.36737"
         id="circle4735"
         style="fill:#ffee5a;fill-opacity:1;stroke:none;stroke-width:10;stroke-linecap:round;stroke-linejoin:miter;stroke-miterlimit:4;stroke-dasharray:none" />
      <circle
         transform="matrix(0.96592582,0.25881905,-0.25881905,0.96592582,0,0)"
         style="fill:#ffee5a;fill-opacity:1;stroke:none;stroke-width:10;stroke-linecap:round;stroke-linejoin:miter;stroke-miterlimit:4;stroke-dasharray:none"
         id="circle4739"
         cx="545.64111"
         cy="283.01804"
         r="4.3384519" />
      <path
         inkscape:connector-curvature="0"
         id="path4703"
         d="m 365.95467,401.60707 -3.29434,34.01529 -5.76509,57.92507 a 54.516092,19.358774 0 0 0 -41.29726,18.76176 l 54.51518,0 54.51641,0 a 54.516092,19.358774 0 0 0 -41.29603,-18.75561 l -5.76509,-57.93122 -3.29434,-34.00792 c -1.32711,0.36564 -2.73727,0.55391 -4.15972,0.55438 -1.42274,-0.003 -2.83371,-0.19352 -4.15972,-0.56175 z"
         style="fill:#ff1744;fill-opacity:1;stroke:none;stroke-width:10;stroke-linecap:round;stroke-linejoin:miter;stroke-miterlimit:4;stroke-dasharray:none" />
      <circle
         r="11.570763"
         cy="392.08139"
         cx="370.1138"
         id="path4707"
         style="fill:#ff1744;fill-opacity:1;stroke:none;stroke-width:10;stroke-linecap:round;stroke-linejoin:miter;stroke-miterlimit:4;stroke-dasharray:none" />
      <circle
         style="fill:#ffee5a;fill-opacity:1;stroke:none;stroke-width:10;stroke-linecap:round;stroke-linejoin:miter;stroke-miterlimit:4;stroke-dasharray:none"
         id="circle4711"
         cx="370.1138"
         cy="392.08139"
         r="7.2492719" />
      <path
         transform="scale(-1,-1)"
         d="m -318.4622,-414.42996 a 32.727058,17.83205 0 0 1 32.72706,-17.83205 32.727058,17.83205 0 0 1 32.72706,17.83205 l -32.72706,0 z"
         sodipodi:end="0"
         sodipodi:start="3.1415927"
         sodipodi:ry="17.83205"
         sodipodi:rx="32.727058"
         sodipodi:cy="-414.42996"
         sodipodi:cx="-285.73514"
         sodipodi:type="arc"
         id="path4720"
         style="fill:#bd1939;fill-opacity:1;stroke:none;stroke-width:10;stroke-linecap:round;stroke-linejoin:miter;stroke-miterlimit:4;stroke-dasharray:none" />
      <path
         style="fill:#bd1939;fill-opacity:1;stroke:none;stroke-width:10;stroke-linecap:round;stroke-linejoin:miter;stroke-miterlimit:4;stroke-dasharray:none"
         id="path4763"
         sodipodi:type="arc"
         sodipodi:cx="-453.2218"
         sodipodi:cy="-460.02121"
         sodipodi:rx="32.727058"
         sodipodi:ry="17.83205"
         sodipodi:start="3.1415927"
         sodipodi:end="0"
         d="m -485.94886,-460.02121 a 32.727058,17.83205 0 0 1 32.72706,-17.83205 32.727058,17.83205 0 0 1 32.72706,17.83205 l -32.72706,0 z"
         transform="scale(-1,-1)" />
    </g>
  </g>
</svg>
