<?xml version="1.0" encoding="UTF-8" standalone="no"?>
<!-- Created with Inkscape (http://www.inkscape.org/) -->

<svg
   xmlns:dc="http://purl.org/dc/elements/1.1/"
   xmlns:cc="http://creativecommons.org/ns#"
   xmlns:rdf="http://www.w3.org/1999/02/22-rdf-syntax-ns#"
   xmlns:svg="http://www.w3.org/2000/svg"
   xmlns="http://www.w3.org/2000/svg"
   xmlns:sodipodi="http://sodipodi.sourceforge.net/DTD/sodipodi-0.dtd"
   xmlns:inkscape="http://www.inkscape.org/namespaces/inkscape"
   width="255"
   height="106.25"
   viewBox="0 0 255 106.25"
   id="svg4111"
   version="1.1"
   inkscape:version="0.91 r"
   sodipodi:docname="class-object.svg">
  <defs
     id="defs4113" />
  <sodipodi:namedview
     id="base"
     pagecolor="#ffffff"
     bordercolor="#666666"
     borderopacity="1.0"
     inkscape:pageopacity="0.0"
     inkscape:pageshadow="2"
     inkscape:zoom="0.49497475"
     inkscape:cx="-19.701093"
     inkscape:cy="-378.67967"
     inkscape:document-units="px"
     inkscape:current-layer="layer1"
     showgrid="false"
     fit-margin-top="0"
     fit-margin-left="0"
     fit-margin-right="0"
     fit-margin-bottom="0"
     units="px"
     inkscape:window-width="1366"
     inkscape:window-height="713"
     inkscape:window-x="0"
     inkscape:window-y="30"
     inkscape:window-maximized="1" />
  <metadata
     id="metadata4116">
    <rdf:RDF>
      <cc:Work
         rdf:about="">
        <dc:format>image/svg+xml</dc:format>
        <dc:type
           rdf:resource="http://purl.org/dc/dcmitype/StillImage" />
        <dc:title />
      </cc:Work>
    </rdf:RDF>
  </metadata>
  <g
     inkscape:label="Layer 1"
     inkscape:groupmode="layer"
     id="layer1"
     transform="translate(-52.188515,-321.60242)">
    <rect
       style="opacity:1;fill:none;fill-opacity:1;stroke:none;stroke-width:5;stroke-linecap:butt;stroke-linejoin:round;stroke-miterlimit:4;stroke-dasharray:none;stroke-dashoffset:0;stroke-opacity:1"
       id="rect4279"
       width="255"
       height="106.25"
       x="52.188515"
       y="321.60242" />
    <path
       style="opacity:1;fill:#ff2650;fill-opacity:1;stroke:none;stroke-width:5;stroke-linecap:butt;stroke-linejoin:round;stroke-miterlimit:4;stroke-dasharray:none;stroke-dashoffset:0;stroke-opacity:1"
       d="m 230.12711,355.81491 33.575,0 c 1.17725,0 2.125,0.94775 2.125,2.125 l 0,33.575 c 0,1.17725 -0.94775,2.125 -2.125,2.125 l -33.575,0 c -1.17725,0 -2.125,-0.94775 -2.125,-2.125 l 0,-33.575 c 0,-1.17725 0.94775,-2.125 2.125,-2.125 z"
       id="rect3823" />
    <path
       id="path3827"
       d="m 239.68919,365.04627 a 2.2539027,2.3075671 0 0 1 2.2545,2.30762 2.2539027,2.3075671 0 0 1 -2.2545,2.30761 2.2539027,2.3075671 0 0 1 -2.25366,-2.30761 2.2539027,2.3075671 0 0 1 2.25366,-2.30762 z"
       style="opacity:1;fill:#1a1a1a;fill-opacity:1;stroke:none;stroke-width:5;stroke-linecap:butt;stroke-linejoin:round;stroke-miterlimit:4;stroke-dasharray:none;stroke-dashoffset:0;stroke-opacity:1"
       inkscape:connector-curvature="0" />
    <path
       id="path3829"
       d="m 254.1392,365.04627 a 2.2539027,2.3075671 0 0 1 2.25449,2.30762 2.2539027,2.3075671 0 0 1 -2.25449,2.30761 2.2539027,2.3075671 0 0 1 -2.25367,-2.30761 2.2539027,2.3075671 0 0 1 2.25367,-2.30762 z"
       style="opacity:1;fill:#1a1a1a;fill-opacity:1;stroke:none;stroke-width:5;stroke-linecap:butt;stroke-linejoin:round;stroke-miterlimit:4;stroke-dasharray:none;stroke-dashoffset:0;stroke-opacity:1"
       inkscape:connector-curvature="0" />
    <path
       transform="scale(1,-1)"
       style="opacity:1;fill:#1a1a1a;fill-opacity:1;stroke:none;stroke-width:5;stroke-linecap:butt;stroke-linejoin:round;stroke-miterlimit:4;stroke-dasharray:none;stroke-dashoffset:0;stroke-opacity:1"
       d="m 240.9042,-374.00586 c 0,-3.31946 2.69095,-6.01041 6.01041,-6.01041 3.31946,0 6.01041,2.69095 6.01041,6.01041 l -6.01041,0 z"
       id="path3831"
       inkscape:connector-curvature="0"
       sodipodi:nodetypes="czccc" />
    <path
       inkscape:connector-curvature="0"
       id="path3833"
       d="m 199.80202,368.08155 0,3.4083 -17.75537,0 0,5.66612 17.75537,0 0,3.73701 11.094,-6.40571 -11.094,-6.40572 z"
       style="opacity:1;fill:#ff6433;fill-opacity:1;stroke:none;stroke-width:5;stroke-linecap:butt;stroke-linejoin:round;stroke-miterlimit:4;stroke-dasharray:none;stroke-dashoffset:0;stroke-opacity:1" />
    <path
       style="opacity:1;fill:#3949ab;fill-opacity:1;stroke:none;stroke-width:5;stroke-linecap:butt;stroke-linejoin:round;stroke-miterlimit:4;stroke-dasharray:none;stroke-dashoffset:0;stroke-opacity:1"
       d="m 93.549927,342.61987 71.390623,0 0,64.21507 -71.390623,0 z"
       id="rect3819" />
    <path
       sodipodi:nodetypes="cccccccccc"
       inkscape:connector-curvature="0"
       id="path3821"
       d="m 95.961945,344.78953 0,59.87575 66.566585,0 0,-59.87575 z m 0.956488,0.78306 64.653607,0 0,58.30879 -64.653608,0 z"
       style="opacity:1;fill:#9fa8da;fill-opacity:1;stroke:none;stroke-width:5;stroke-linecap:butt;stroke-linejoin:round;stroke-miterlimit:4;stroke-dasharray:none;stroke-dashoffset:0;stroke-opacity:1" />
    <path
       style="opacity:1;fill:#999999;fill-opacity:1;stroke:none;stroke-width:5;stroke-linecap:butt;stroke-linejoin:round;stroke-miterlimit:4;stroke-dasharray:none;stroke-dashoffset:0;stroke-opacity:1"
       d="m 101.21219,348.26465 a 1.7751206,1.7751206 0 0 1 -1.775117,1.77512 1.7751206,1.7751206 0 0 1 -1.775121,-1.77512 1.7751206,1.7751206 0 0 1 1.775121,-1.77512 1.7751206,1.7751206 0 0 1 1.775117,1.77512 z"
       id="circle3835" />
    <path
       id="path3837"
       d="m 98.521022,346.74633 a 1.7751207,1.7751207 0 0 0 -0.602063,0.60244 l 2.434201,2.4342 a 1.7751207,1.7751207 0 0 0 0.60207,-0.60244 l -2.434208,-2.4342 z"
       style="opacity:1;fill:#666666;fill-opacity:1;stroke:none;stroke-width:5;stroke-linecap:butt;stroke-linejoin:round;stroke-miterlimit:4;stroke-dasharray:none;stroke-dashoffset:0;stroke-opacity:1"
       inkscape:connector-curvature="0" />
    <path
       transform="scale(-1,1)"
       style="opacity:1;fill:#999999;fill-opacity:1;stroke:none;stroke-width:5;stroke-linecap:butt;stroke-linejoin:round;stroke-miterlimit:4;stroke-dasharray:none;stroke-dashoffset:0;stroke-opacity:1"
       d="m -157.27829,348.26465 a 1.7751206,1.7751206 0 0 1 -1.77512,1.77512 1.7751206,1.7751206 0 0 1 -1.77512,-1.77512 1.7751206,1.7751206 0 0 1 1.77512,-1.77512 1.7751206,1.7751206 0 0 1 1.77512,1.77512 z"
       id="circle3839" />
    <path
       inkscape:connector-curvature="0"
       style="opacity:1;fill:#666666;fill-opacity:1;stroke:none;stroke-width:5;stroke-linecap:butt;stroke-linejoin:round;stroke-miterlimit:4;stroke-dasharray:none;stroke-dashoffset:0;stroke-opacity:1"
       d="m 159.96945,346.74633 a 1.7751207,1.7751207 0 0 1 0.60206,0.60244 l -2.4342,2.4342 a 1.7751207,1.7751207 0 0 1 -0.60207,-0.60244 l 2.43421,-2.4342 z"
       id="path3841" />
    <path
       style="opacity:1;fill:#999999;fill-opacity:1;stroke:none;stroke-width:5;stroke-linecap:butt;stroke-linejoin:round;stroke-miterlimit:4;stroke-dasharray:none;stroke-dashoffset:0;stroke-opacity:1"
       d="m 101.21219,401.19016 a 1.7751206,1.7751206 0 0 1 -1.775117,1.77512 1.7751206,1.7751206 0 0 1 -1.775121,-1.77512 1.7751206,1.7751206 0 0 1 1.775121,-1.77513 1.7751206,1.7751206 0 0 1 1.775117,1.77513 z"
       id="circle3843" />
    <path
       inkscape:connector-curvature="0"
       style="opacity:1;fill:#666666;fill-opacity:1;stroke:none;stroke-width:5;stroke-linecap:butt;stroke-linejoin:round;stroke-miterlimit:4;stroke-dasharray:none;stroke-dashoffset:0;stroke-opacity:1"
       d="m 98.521022,399.67184 a 1.7751207,1.7751207 0 0 0 -0.602063,0.60243 l 2.434201,2.43421 a 1.7751207,1.7751207 0 0 0 0.60207,-0.60244 l -2.434208,-2.4342 z"
       id="path3845" />
    <path
       style="opacity:1;fill:#999999;fill-opacity:1;stroke:none;stroke-width:5;stroke-linecap:butt;stroke-linejoin:round;stroke-miterlimit:4;stroke-dasharray:none;stroke-dashoffset:0;stroke-opacity:1"
       d="m 160.82853,401.19016 a 1.7751206,1.7751206 0 0 1 -1.77512,1.77512 1.7751206,1.7751206 0 0 1 -1.77512,-1.77512 1.7751206,1.7751206 0 0 1 1.77512,-1.77513 1.7751206,1.7751206 0 0 1 1.77512,1.77513 z"
       id="circle3847" />
    <path
       id="path3849"
       d="m 158.13736,399.67184 a 1.7751207,1.7751207 0 0 0 -0.60206,0.60243 l 2.4342,2.43421 a 1.7751207,1.7751207 0 0 0 0.60207,-0.60244 l -2.43421,-2.4342 z"
       style="opacity:1;fill:#666666;fill-opacity:1;stroke:none;stroke-width:5;stroke-linecap:butt;stroke-linejoin:round;stroke-miterlimit:4;stroke-dasharray:none;stroke-dashoffset:0;stroke-opacity:1"
       inkscape:connector-curvature="0" />
    <path
       style="opacity:1;fill:#7986cb;fill-opacity:1;stroke:none;stroke-width:5;stroke-linecap:butt;stroke-linejoin:round;stroke-miterlimit:4;stroke-dasharray:none;stroke-dashoffset:0;stroke-opacity:1"
       d="m 109.92002,357.9707 2.125,0 0,31.875 -2.125,0 z"
       id="rect3853" />
    <path
       style="opacity:1;fill:#7986cb;fill-opacity:1;stroke:none;stroke-width:5;stroke-linecap:butt;stroke-linejoin:round;stroke-miterlimit:4;stroke-dasharray:none;stroke-dashoffset:0;stroke-opacity:1"
       d="m 145.62003,357.9707 2.125,0 0,31.875 -2.125,0 z"
       id="rect3855" />
    <path
       style="opacity:1;fill:#7986cb;fill-opacity:1;stroke:none;stroke-width:5;stroke-linecap:butt;stroke-linejoin:round;stroke-miterlimit:4;stroke-dasharray:none;stroke-dashoffset:0;stroke-opacity:1"
       d="m 109.92002,354.9957 2.125,0 0,2.125 -2.125,0 z"
       id="rect3857" />
    <path
       transform="matrix(0,-1,1,0,0,0)"
       style="opacity:1;fill:#7986cb;fill-opacity:1;stroke:none;stroke-width:5;stroke-linecap:butt;stroke-linejoin:round;stroke-miterlimit:4;stroke-dasharray:none;stroke-dashoffset:0;stroke-opacity:1"
       d="m -392.82071,112.89503 2.125,0 0,31.875 -2.125,0 z"
       id="rect3859" />
    <path
       transform="matrix(0,-1,1,0,0,0)"
       style="opacity:1;fill:#7986cb;fill-opacity:1;stroke:none;stroke-width:5;stroke-linecap:butt;stroke-linejoin:round;stroke-miterlimit:4;stroke-dasharray:none;stroke-dashoffset:0;stroke-opacity:1"
       d="m -357.1207,112.89503 2.125,0 0,31.875 -2.125,0 z"
       id="rect3861" />
    <path
       style="opacity:1;fill:#7986cb;fill-opacity:1;stroke:none;stroke-width:5;stroke-linecap:butt;stroke-linejoin:round;stroke-miterlimit:4;stroke-dasharray:none;stroke-dashoffset:0;stroke-opacity:1"
       d="m 145.62003,390.69571 2.125,0 0,2.125 -2.125,0 z"
       id="rect3863" />
    <path
       style="opacity:1;fill:#7986cb;fill-opacity:1;stroke:none;stroke-width:5;stroke-linecap:butt;stroke-linejoin:round;stroke-miterlimit:4;stroke-dasharray:none;stroke-dashoffset:0;stroke-opacity:1"
       d="m 109.92002,390.69571 2.125,0 0,2.125 -2.125,0 z"
       id="rect3865" />
    <path
       inkscape:connector-curvature="0"
       id="path3867"
       d="m 121.60711,362.7402 a 3.7028403,3.7028403 0 0 0 -3.70215,3.70297 3.7028403,3.7028403 0 0 0 3.70215,3.70215 3.7028403,3.7028403 0 0 0 3.70298,-3.70215 3.7028403,3.7028403 0 0 0 -3.70298,-3.70297 z m 0,1.39536 a 2.2539027,2.3075671 0 0 1 2.25449,2.30761 2.2539027,2.3075671 0 0 1 -2.25449,2.30762 2.2539027,2.3075671 0 0 1 -2.25366,-2.30762 2.2539027,2.3075671 0 0 1 2.25366,-2.30761 z"
       style="opacity:1;fill:#7986cb;fill-opacity:1;stroke:none;stroke-width:5;stroke-linecap:butt;stroke-linejoin:round;stroke-miterlimit:4;stroke-dasharray:none;stroke-dashoffset:0;stroke-opacity:1" />
    <path
       style="opacity:1;fill:#7986cb;fill-opacity:1;stroke:none;stroke-width:5;stroke-linecap:butt;stroke-linejoin:round;stroke-miterlimit:4;stroke-dasharray:none;stroke-dashoffset:0;stroke-opacity:1"
       d="m 136.05711,362.7402 a 3.7028403,3.7028403 0 0 0 -3.70215,3.70297 3.7028403,3.7028403 0 0 0 3.70215,3.70215 3.7028403,3.7028403 0 0 0 3.70298,-3.70215 3.7028403,3.7028403 0 0 0 -3.70298,-3.70297 z m 0,1.39536 a 2.2539027,2.3075671 0 0 1 2.25449,2.30761 2.2539027,2.3075671 0 0 1 -2.25449,2.30762 2.2539027,2.3075671 0 0 1 -2.25366,-2.30762 2.2539027,2.3075671 0 0 1 2.25366,-2.30761 z"
       id="path3869"
       inkscape:connector-curvature="0" />
    <path
       style="opacity:1;fill:#7986cb;fill-opacity:1;stroke:none;stroke-width:5;stroke-linecap:butt;stroke-linejoin:round;stroke-miterlimit:4;stroke-dasharray:none;stroke-dashoffset:0;stroke-opacity:1"
       d="m 128.30127,357.1207 1.0625,0 0,33.57499 -1.0625,0 z"
       id="rect3871" />
    <path
       transform="scale(1,-1)"
       style="opacity:1;fill:#7986cb;fill-opacity:1;stroke:none;stroke-width:5;stroke-linecap:butt;stroke-linejoin:round;stroke-miterlimit:4;stroke-dasharray:none;stroke-dashoffset:0;stroke-opacity:1"
       d="m 122.82211,-374.00589 c 0,-3.31946 2.69095,-6.01041 6.01041,-6.01041 3.31946,0 6.01041,2.69095 6.01041,6.01041 l -6.01041,0 z"
       id="path3873"
       inkscape:connector-curvature="0"
       sodipodi:nodetypes="czccc" />
    <path
       transform="matrix(0,1,-1,0,0,0)"
       style="opacity:1;fill:#7986cb;fill-opacity:1;stroke:none;stroke-width:5;stroke-linecap:butt;stroke-linejoin:round;stroke-miterlimit:4;stroke-dasharray:none;stroke-dashoffset:0;stroke-opacity:1"
       d="m 383.81482,-128.30127 0.425,0 0,16.25625 -0.425,0 z"
       id="rect3875" />
    <path
       inkscape:connector-curvature="0"
       id="path3877"
       d="m 145.62002,366.54594 0,-0.72436 a 8.7004836,8.7004836 0 0 1 -8.70023,-8.70089 l -0.72436,0 a 9.4248744,9.4248744 0 0 0 9.42459,9.42525 z"
       style="opacity:1;fill:#7986cb;fill-opacity:1;stroke:none;stroke-width:5;stroke-linecap:butt;stroke-linejoin:round;stroke-miterlimit:4;stroke-dasharray:none;stroke-dashoffset:0;stroke-opacity:1" />
    <path
       inkscape:connector-curvature="0"
       style="opacity:1;fill:#7986cb;fill-opacity:1;stroke:none;stroke-width:5;stroke-linecap:butt;stroke-linejoin:round;stroke-miterlimit:4;stroke-dasharray:none;stroke-dashoffset:0;stroke-opacity:1"
       d="m 145.62002,378.98714 0,0.89983 a 10.808206,10.808206 0 0 0 -10.80789,10.80872 l -0.89983,0 a 11.708082,11.708082 0 0 1 11.70772,-11.70855 z"
       id="path3879" />
    <path
       transform="matrix(0,1,-1,0,0,0)"
       style="opacity:1;fill:#7986cb;fill-opacity:1;stroke:none;stroke-width:5;stroke-linecap:butt;stroke-linejoin:round;stroke-miterlimit:4;stroke-dasharray:none;stroke-dashoffset:0;stroke-opacity:1"
       d="m 366.54593,-145.62003 0.425,0 0,33.57501 -0.425,0 z"
       id="rect3881" />
    <path
       style="opacity:1;fill:#7986cb;fill-opacity:1;stroke:none;stroke-width:5;stroke-linecap:butt;stroke-linejoin:round;stroke-miterlimit:4;stroke-dasharray:none;stroke-dashoffset:0;stroke-opacity:1"
       d="m 104.67818,354.9957 0.425,0 0,37.825 -0.425,0 z"
       id="rect3885" />
    <path
       style="opacity:1;fill:#7986cb;fill-opacity:1;stroke:none;stroke-width:5;stroke-linecap:butt;stroke-linejoin:round;stroke-miterlimit:4;stroke-dasharray:none;stroke-dashoffset:0;stroke-opacity:1"
       d="m 104.67818,354.9957 3.54184,0 0,0.425 -3.54184,0 z"
       id="rect3887" />
    <path
       style="opacity:1;fill:#7986cb;fill-opacity:1;stroke:none;stroke-width:5;stroke-linecap:butt;stroke-linejoin:round;stroke-miterlimit:4;stroke-dasharray:none;stroke-dashoffset:0;stroke-opacity:1"
       d="m 104.67818,392.39569 3.54184,0 0,0.425 -3.54184,0 z"
       id="rect3889" />
    <path
       transform="matrix(0,-1,1,0,0,0)"
       style="opacity:1;fill:#7986cb;fill-opacity:1;stroke:none;stroke-width:5;stroke-linecap:butt;stroke-linejoin:round;stroke-miterlimit:4;stroke-dasharray:none;stroke-dashoffset:0;stroke-opacity:1"
       d="m -398.06253,109.92002 0.425,0 0,37.825 -0.425,0 z"
       id="rect3893" />
    <path
       transform="matrix(0,-1,1,0,0,0)"
       style="opacity:1;fill:#7986cb;fill-opacity:1;stroke:none;stroke-width:5;stroke-linecap:butt;stroke-linejoin:round;stroke-miterlimit:4;stroke-dasharray:none;stroke-dashoffset:0;stroke-opacity:1"
       d="m -398.06253,109.92002 3.54185,0 0,0.425 -3.54185,0 z"
       id="rect3895" />
    <path
       transform="matrix(0,-1,1,0,0,0)"
       style="opacity:1;fill:#7986cb;fill-opacity:1;stroke:none;stroke-width:5;stroke-linecap:butt;stroke-linejoin:round;stroke-miterlimit:4;stroke-dasharray:none;stroke-dashoffset:0;stroke-opacity:1"
       d="m -398.06253,147.32002 3.54185,0 0,0.425 -3.54185,0 z"
       id="rect3897" />
    <path
       inkscape:connector-curvature="0"
       id="path3899"
       d="m 138.19431,386.32625 3.1118,3.1118 3.11179,-3.1118 -3.11179,-3.11179 -3.1118,3.11179 z m 2.07287,-1.03892 a 1.4698348,1.4698348 0 0 1 2.07785,0 1.4698348,1.4698348 0 0 1 4.3e-4,2.07867 1.4698348,1.4698348 0 0 1 -2.0795,1e-5 1.4698348,1.4698348 0 0 1 4.2e-4,-2.07868 z"
       style="opacity:1;fill:#7986cb;fill-opacity:1;stroke:none;stroke-width:5;stroke-linecap:butt;stroke-linejoin:round;stroke-miterlimit:4;stroke-dasharray:none;stroke-dashoffset:0;stroke-opacity:1" />
    <path
       style="opacity:1;fill:#7986cb;fill-opacity:1;stroke:none;stroke-width:5;stroke-linecap:butt;stroke-linejoin:round;stroke-miterlimit:4;stroke-dasharray:none;stroke-dashoffset:0;stroke-opacity:1"
       d="m 121.5544,366.97095 0.425,0 0,16.84388 -0.425,0 z"
       id="rect3901" />
    <path
       d="m 127.90672,396.32676 c 0.008,0.004 0.0166,0.004 0.0207,0.004 0.008,0.004 0.0166,0.004 0.0166,0.004 0.008,0 0.0207,-0.004 0.0332,-0.008 0.087,-0.36452 0.26511,-0.63791 0.56749,-0.88231 0.0497,0.64206 0.0704,0.79946 0.13256,0.99001 0.0911,0.27754 0.36038,0.45152 0.70419,0.45152 0.23197,0 0.37695,-0.058 0.51365,-0.19883 l -0.16155,-0.19519 c -0.11184,0.19883 -0.22368,0.28168 -0.37281,0.28168 -0.19883,0 -0.33553,-0.1657 -0.42251,-0.50951 -0.0414,-0.16155 -0.0746,-0.37281 -0.1657,-1.02314 0.34796,-0.32311 0.4888,-0.42252 0.60064,-0.42252 0.0456,0 0.087,0.008 0.17398,0.0455 l 0.0911,-0.28997 c -0.0621,-0.0414 -0.0911,-0.0538 -0.14498,-0.0538 -0.0497,0 -0.087,0.008 -0.1574,0.0414 -0.11599,0.10356 -0.1367,0.12427 -0.29411,0.27754 l -0.28996,0.27753 c -0.0166,-0.15327 -0.0414,-0.30653 -0.0538,-0.36453 -0.0373,-0.16983 -0.0953,-0.23197 -0.22783,-0.23197 -0.12841,0 -0.24854,0.0704 -0.53436,0.31897 l -0.008,0.11184 c 0.24854,-0.1657 0.26925,-0.17398 0.3521,-0.17398 0.13669,0 0.1864,0.1077 0.24854,0.54264 l -0.15327,0.12427 c -0.34795,0.26511 -0.3521,0.26511 -0.4308,0.33967 -0.0746,0.0787 -0.10356,0.1367 -0.17398,0.32724 l 0.1367,0.21541 z"
       style="font-style:italic;font-variant:normal;font-weight:500;font-stretch:normal;font-size:medium;line-height:125%;font-family:'URW Chancery L';-inkscape-font-specification:'URW Chancery L Medium Italic';text-align:start;letter-spacing:0px;word-spacing:0px;writing-mode:lr-tb;text-anchor:start;fill:#7986cb;fill-opacity:1;stroke:none;stroke-width:1px;stroke-linecap:butt;stroke-linejoin:miter;stroke-opacity:1"
       id="path3905"
       inkscape:connector-curvature="0" />
    <path
       d="m 106.09502,375.40075 c 0.14259,0.0184 0.34497,0.0322 0.50595,0.0322 0.32198,0 0.50596,-0.0874 0.76813,-0.36796 0.26678,-0.28517 0.28518,-0.33577 0.44616,-1.0855 0.16098,-0.74053 0.24838,-1.0855 0.40476,-1.59605 -0.0598,0.0322 -0.11039,0.0598 -0.12878,0.069 l -0.16099,0.0782 c -0.023,0.0138 -0.0598,0.0276 -0.10119,0.0506 l -0.28057,1.1177 c -0.45996,0.28517 -0.48296,0.29897 -0.56115,0.29897 -0.0598,0 -0.10119,-0.0644 -0.10119,-0.14719 0,-0.10118 0.0414,-0.31277 0.12879,-0.63934 0.11498,-0.45535 0.17938,-0.71293 0.17938,-0.75433 0,-0.0322 -0.023,-0.0552 -0.0506,-0.0552 -0.0506,0 -0.34496,0.15638 -0.73133,0.38636 l -0.0138,0.12419 c 0.21618,-0.11039 0.26678,-0.13338 0.31737,-0.13338 0.046,0 0.069,0.0276 0.069,0.069 0,0.0828 -0.0322,0.22078 -0.14258,0.62554 -0.11039,0.40016 -0.13339,0.50135 -0.13339,0.62094 0,0.14719 0.069,0.25757 0.16099,0.25757 0.0874,0 0.45535,-0.22077 0.86471,-0.51515 -0.17478,0.84172 -0.17478,0.84172 -0.22997,1.01191 -0.0736,0.23458 -0.22078,0.32197 -0.51976,0.32197 -0.13338,0 -0.23457,-0.0184 -0.50595,-0.0828 l -0.18398,0.31277 z"
       style="font-style:italic;font-variant:normal;font-weight:500;font-stretch:normal;font-size:medium;line-height:125%;font-family:'URW Chancery L';-inkscape-font-specification:'URW Chancery L Medium Italic';text-align:start;letter-spacing:0px;word-spacing:0px;writing-mode:lr-tb;text-anchor:start;fill:#7986cb;fill-opacity:1;stroke:none;stroke-width:1px;stroke-linecap:butt;stroke-linejoin:miter;stroke-opacity:1"
       id="path3909"
       inkscape:connector-curvature="0" />
    <path
       sodipodi:nodetypes="ccccc"
       inkscape:connector-curvature="0"
       id="path3911"
       d="m 141.27895,386.06063 15.03241,0 0,0.53125 -15.03241,0 z"
       style="opacity:1;fill:#7986cb;fill-opacity:1;stroke:none;stroke-width:5;stroke-linecap:butt;stroke-linejoin:round;stroke-miterlimit:4;stroke-dasharray:none;stroke-dashoffset:0;stroke-opacity:1" />
    <path
       sodipodi:nodetypes="ccccc"
       inkscape:connector-curvature="0"
       id="path3913"
       d="m 149.51137,387.44188 6.8,0 0,0.425 -6.8,0 z"
       style="opacity:1;fill:#7986cb;fill-opacity:1;stroke:none;stroke-width:5;stroke-linecap:butt;stroke-linejoin:round;stroke-miterlimit:4;stroke-dasharray:none;stroke-dashoffset:0;stroke-opacity:1" />
    <path
       sodipodi:nodetypes="ccccc"
       inkscape:connector-curvature="0"
       id="path3915"
       d="m 149.51137,388.29188 6.8,0 0,0.425 -6.8,0 z"
       style="opacity:1;fill:#7986cb;fill-opacity:1;stroke:none;stroke-width:5;stroke-linecap:butt;stroke-linejoin:round;stroke-miterlimit:4;stroke-dasharray:none;stroke-dashoffset:0;stroke-opacity:1" />
    <path
       sodipodi:nodetypes="ccccc"
       inkscape:connector-curvature="0"
       id="path3917"
       d="m 149.51137,389.14188 6.8,0 0,0.425 -6.8,0 z"
       style="opacity:1;fill:#7986cb;fill-opacity:1;stroke:none;stroke-width:5;stroke-linecap:butt;stroke-linejoin:round;stroke-miterlimit:4;stroke-dasharray:none;stroke-dashoffset:0;stroke-opacity:1" />
    <path
       sodipodi:nodetypes="ccccc"
       inkscape:connector-curvature="0"
       id="path3919"
       d="m 153.26806,389.99188 3.0433,0 0,0.425 -3.0433,0 z"
       style="opacity:1;fill:#7986cb;fill-opacity:1;stroke:none;stroke-width:5;stroke-linecap:butt;stroke-linejoin:round;stroke-miterlimit:4;stroke-dasharray:none;stroke-dashoffset:0;stroke-opacity:1" />
    <path
       style="opacity:1;fill:#7986cb;fill-opacity:1;stroke:none;stroke-width:5;stroke-linecap:butt;stroke-linejoin:round;stroke-miterlimit:4;stroke-dasharray:none;stroke-dashoffset:0;stroke-opacity:1"
       d="m 141.57043,360.98533 15.03241,0 0,-0.53125 -15.03241,0 z"
       id="path3921"
       inkscape:connector-curvature="0"
       sodipodi:nodetypes="ccccc" />
    <path
       style="opacity:1;fill:#7986cb;fill-opacity:1;stroke:none;stroke-width:5;stroke-linecap:butt;stroke-linejoin:round;stroke-miterlimit:4;stroke-dasharray:none;stroke-dashoffset:0;stroke-opacity:1"
       d="m 149.80284,359.60408 6.8,0 0,-0.425 -6.8,0 z"
       id="path3923"
       inkscape:connector-curvature="0"
       sodipodi:nodetypes="ccccc" />
    <path
       style="opacity:1;fill:#7986cb;fill-opacity:1;stroke:none;stroke-width:5;stroke-linecap:butt;stroke-linejoin:round;stroke-miterlimit:4;stroke-dasharray:none;stroke-dashoffset:0;stroke-opacity:1"
       d="m 149.80284,358.75408 6.8,0 0,-0.425 -6.8,0 z"
       id="path3925"
       inkscape:connector-curvature="0"
       sodipodi:nodetypes="ccccc" />
    <path
       style="opacity:1;fill:#7986cb;fill-opacity:1;stroke:none;stroke-width:5;stroke-linecap:butt;stroke-linejoin:round;stroke-miterlimit:4;stroke-dasharray:none;stroke-dashoffset:0;stroke-opacity:1"
       d="m 149.80284,357.90408 6.8,0 0,-0.425 -6.8,0 z"
       id="path3927"
       inkscape:connector-curvature="0"
       sodipodi:nodetypes="ccccc" />
    <path
       style="opacity:1;fill:#7986cb;fill-opacity:1;stroke:none;stroke-width:5;stroke-linecap:butt;stroke-linejoin:round;stroke-miterlimit:4;stroke-dasharray:none;stroke-dashoffset:0;stroke-opacity:1"
       d="m 153.55954,357.05408 3.0433,0 0,-0.425 -3.0433,0 z"
       id="path3929"
       inkscape:connector-curvature="0"
       sodipodi:nodetypes="ccccc" />
    <path
       style="opacity:1;fill:#7986cb;fill-opacity:1;stroke:none;stroke-width:5;stroke-linecap:butt;stroke-linejoin:round;stroke-miterlimit:4;stroke-dasharray:none;stroke-dashoffset:0;stroke-opacity:1"
       d="m 145.62003,354.9957 2.125,0 0,2.125 -2.125,0 z"
       id="rect3931" />
    <path
       sodipodi:nodetypes="ccccc"
       inkscape:connector-curvature="0"
       id="path3933"
       d="m 115.97627,363.22811 0,-15.03242 -0.53125,0 0,15.03242 z"
       style="opacity:1;fill:#7986cb;fill-opacity:1;stroke:none;stroke-width:5;stroke-linecap:butt;stroke-linejoin:round;stroke-miterlimit:4;stroke-dasharray:none;stroke-dashoffset:0;stroke-opacity:1" />
    <path
       sodipodi:nodetypes="ccccc"
       inkscape:connector-curvature="0"
       id="path3935"
       d="m 123.62627,348.19569 -6.8,0 0,0.425 6.8,0 z"
       style="opacity:1;fill:#7986cb;fill-opacity:1;stroke:none;stroke-width:5;stroke-linecap:butt;stroke-linejoin:round;stroke-miterlimit:4;stroke-dasharray:none;stroke-dashoffset:0;stroke-opacity:1" />
    <path
       sodipodi:nodetypes="ccccc"
       inkscape:connector-curvature="0"
       id="path3937"
       d="m 123.62627,349.04569 -6.8,0 0,0.425 6.8,0 z"
       style="opacity:1;fill:#7986cb;fill-opacity:1;stroke:none;stroke-width:5;stroke-linecap:butt;stroke-linejoin:round;stroke-miterlimit:4;stroke-dasharray:none;stroke-dashoffset:0;stroke-opacity:1" />
    <path
       sodipodi:nodetypes="ccccc"
       inkscape:connector-curvature="0"
       id="path3939"
       d="m 123.62627,349.89569 -6.8,0 0,0.425 6.8,0 z"
       style="opacity:1;fill:#7986cb;fill-opacity:1;stroke:none;stroke-width:5;stroke-linecap:butt;stroke-linejoin:round;stroke-miterlimit:4;stroke-dasharray:none;stroke-dashoffset:0;stroke-opacity:1" />
    <path
       sodipodi:nodetypes="ccccc"
       inkscape:connector-curvature="0"
       id="path3941"
       d="m 119.86958,350.74569 -3.04331,0 0,0.425 3.04331,0 z"
       style="opacity:1;fill:#7986cb;fill-opacity:1;stroke:none;stroke-width:5;stroke-linecap:butt;stroke-linejoin:round;stroke-miterlimit:4;stroke-dasharray:none;stroke-dashoffset:0;stroke-opacity:1" />
    <path
       style="opacity:1;fill:#7986cb;fill-opacity:1;stroke:none;stroke-width:5;stroke-linecap:butt;stroke-linejoin:round;stroke-miterlimit:4;stroke-dasharray:none;stroke-dashoffset:0;stroke-opacity:1"
       d="m 131.9521,359.88318 a 0.85000002,0.85000002 0 0 1 -0.85,0.85 0.85000002,0.85000002 0 0 1 -0.85,-0.85 0.85000002,0.85000002 0 0 1 0.85,-0.85 0.85000002,0.85000002 0 0 1 0.85,0.85 z"
       id="circle3945" />
    <path
       style="opacity:1;fill:#7986cb;fill-opacity:1;stroke:none;stroke-width:5;stroke-linecap:butt;stroke-linejoin:round;stroke-miterlimit:4;stroke-dasharray:none;stroke-dashoffset:0;stroke-opacity:1"
       d="m 131.9521,364.5582 a 0.85000002,0.85000002 0 0 1 -0.85,0.85 0.85000002,0.85000002 0 0 1 -0.85,-0.85 0.85000002,0.85000002 0 0 1 0.85,-0.85 0.85000002,0.85000002 0 0 1 0.85,0.85 z"
       id="circle3947" />
    <path
       style="opacity:1;fill:#7986cb;fill-opacity:1;stroke:none;stroke-width:5;stroke-linecap:butt;stroke-linejoin:round;stroke-miterlimit:4;stroke-dasharray:none;stroke-dashoffset:0;stroke-opacity:1"
       d="m 131.9521,369.23318 a 0.85000002,0.85000002 0 0 1 -0.85,0.85 0.85000002,0.85000002 0 0 1 -0.85,-0.85 0.85000002,0.85000002 0 0 1 0.85,-0.85 0.85000002,0.85000002 0 0 1 0.85,0.85 z"
       id="circle3949" />
    <path
       style="opacity:1;fill:#7986cb;fill-opacity:1;stroke:none;stroke-width:5;stroke-linecap:butt;stroke-linejoin:round;stroke-miterlimit:4;stroke-dasharray:none;stroke-dashoffset:0;stroke-opacity:1"
       d="m 131.9521,373.90817 a 0.85000002,0.85000002 0 0 1 -0.85,0.85 0.85000002,0.85000002 0 0 1 -0.85,-0.85 0.85000002,0.85000002 0 0 1 0.85,-0.85 0.85000002,0.85000002 0 0 1 0.85,0.85 z"
       id="circle3951" />
    <path
       style="opacity:1;fill:#7986cb;fill-opacity:1;stroke:none;stroke-width:5;stroke-linecap:butt;stroke-linejoin:round;stroke-miterlimit:4;stroke-dasharray:none;stroke-dashoffset:0;stroke-opacity:1"
       d="m 131.9521,378.58319 a 0.85000002,0.85000002 0 0 1 -0.85,0.85 0.85000002,0.85000002 0 0 1 -0.85,-0.85 0.85000002,0.85000002 0 0 1 0.85,-0.85 0.85000002,0.85000002 0 0 1 0.85,0.85 z"
       id="circle3953" />
    <path
       style="opacity:1;fill:#7986cb;fill-opacity:1;stroke:none;stroke-width:5;stroke-linecap:butt;stroke-linejoin:round;stroke-miterlimit:4;stroke-dasharray:none;stroke-dashoffset:0;stroke-opacity:1"
       d="m 131.9521,383.25818 a 0.85000002,0.85000002 0 0 1 -0.85,0.85 0.85000002,0.85000002 0 0 1 -0.85,-0.85 0.85000002,0.85000002 0 0 1 0.85,-0.85 0.85000002,0.85000002 0 0 1 0.85,0.85 z"
       id="circle3955" />
    <path
       style="opacity:1;fill:#7986cb;fill-opacity:1;stroke:none;stroke-width:5;stroke-linecap:butt;stroke-linejoin:round;stroke-miterlimit:4;stroke-dasharray:none;stroke-dashoffset:0;stroke-opacity:1"
       d="m 131.9521,387.9332 a 0.85000002,0.85000002 0 0 1 -0.85,0.85 0.85000002,0.85000002 0 0 1 -0.85,-0.85 0.85000002,0.85000002 0 0 1 0.85,-0.85 0.85000002,0.85000002 0 0 1 0.85,0.85 z"
       id="circle3957" />
  </g>
</svg>
