<?xml version="1.0" encoding="UTF-8" standalone="no"?>
<!-- Created with Inkscape (http://www.inkscape.org/) -->

<svg
   xmlns:dc="http://purl.org/dc/elements/1.1/"
   xmlns:cc="http://creativecommons.org/ns#"
   xmlns:rdf="http://www.w3.org/1999/02/22-rdf-syntax-ns#"
   xmlns:svg="http://www.w3.org/2000/svg"
   xmlns="http://www.w3.org/2000/svg"
   xmlns:sodipodi="http://sodipodi.sourceforge.net/DTD/sodipodi-0.dtd"
   xmlns:inkscape="http://www.inkscape.org/namespaces/inkscape"
   width="255"
   height="110"
   viewBox="0 0 255 110"
   id="svg5292"
   version="1.1"
   inkscape:version="0.91 r"
   sodipodi:docname="prototype-chain.svg">
  <defs
     id="defs5294" />
  <sodipodi:namedview
     id="base"
     pagecolor="#ffffff"
     bordercolor="#666666"
     borderopacity="1.0"
     inkscape:pageopacity="0.0"
     inkscape:pageshadow="2"
     inkscape:zoom="0.7"
     inkscape:cx="416.21924"
     inkscape:cy="-191.45762"
     inkscape:document-units="px"
     inkscape:current-layer="layer1"
     showgrid="false"
     fit-margin-top="0"
     fit-margin-left="0"
     fit-margin-right="0"
     fit-margin-bottom="0"
     units="px"
     inkscape:window-width="1366"
     inkscape:window-height="713"
     inkscape:window-x="0"
     inkscape:window-y="30"
     inkscape:window-maximized="1" />
  <metadata
     id="metadata5297">
    <rdf:RDF>
      <cc:Work
         rdf:about="">
        <dc:format>image/svg+xml</dc:format>
        <dc:type
           rdf:resource="http://purl.org/dc/dcmitype/StillImage" />
        <dc:title />
      </cc:Work>
    </rdf:RDF>
  </metadata>
  <g
     inkscape:label="Layer 1"
     inkscape:groupmode="layer"
     id="layer1"
     transform="translate(-142.85718,-381.64795)">
    <path
       style="opacity:1;fill:none;fill-opacity:1;stroke:none;stroke-width:5;stroke-linecap:butt;stroke-linejoin:round;stroke-miterlimit:4;stroke-dasharray:none;stroke-dashoffset:0;stroke-opacity:1"
       d="m 142.85718,381.64795 255,0 0,110 -255,0 z"
       id="rect4279" />
    <path
       style="opacity:1;fill:#ff2650;fill-opacity:1;stroke:none;stroke-width:5;stroke-linecap:butt;stroke-linejoin:round;stroke-miterlimit:4;stroke-dasharray:none;stroke-dashoffset:0;stroke-opacity:1"
       d="m 175.04838,450.99002 48.9251,0 c 1.15266,0 2.08061,0.92795 2.08061,2.08061 l 0,23.42405 c 0,1.15266 -0.92795,2.08061 -2.08061,2.08061 l -48.9251,0 c -1.15265,0 -2.08061,-0.92795 -2.08061,-2.08061 l 0,-23.42405 c 0,-1.15266 0.92796,-2.08061 2.08061,-2.08061 z"
       id="rect4836" />
    <path
       style="font-style:normal;font-variant:normal;font-weight:500;font-stretch:normal;font-size:medium;line-height:125%;font-family:Roboto;-inkscape-font-specification:'Roboto, Medium';text-align:center;letter-spacing:0px;word-spacing:0px;writing-mode:lr-tb;text-anchor:middle;fill:#ff2650;fill-opacity:1;stroke:none;stroke-width:1px;stroke-linecap:butt;stroke-linejoin:miter;stroke-opacity:1"
       inkscape:connector-curvature="0"
       id="path5047"
       d="m 185.43806,441.42455 q -0.82971,0 -1.32,0.61852 -0.48651,0.61851 -0.48651,1.68582 0,1.06355 0.48651,1.68206 0.49029,0.61851 1.32,0.61851 0.82971,0 1.31245,-0.61851 0.48652,-0.61851 0.48652,-1.68206 0,-1.06731 -0.48652,-1.68582 -0.48274,-0.61852 -1.31245,-0.61852 z m 0,-0.61851 q 1.18423,0 1.89326,0.79577 0.70902,0.792 0.70902,2.12708 0,1.33132 -0.70902,2.12708 -0.70903,0.792 -1.89326,0.792 -1.188,0 -1.9008,-0.792 -0.70903,-0.79199 -0.70903,-2.12708 0,-1.33508 0.70903,-2.12708 0.7128,-0.79577 1.9008,-0.79577 z" />
    <path
       style="font-style:normal;font-variant:normal;font-weight:500;font-stretch:normal;font-size:medium;line-height:125%;font-family:Roboto;-inkscape-font-specification:'Roboto, Medium';text-align:center;letter-spacing:0px;word-spacing:0px;writing-mode:lr-tb;text-anchor:middle;fill:#ff2650;fill-opacity:1;stroke:none;stroke-width:1px;stroke-linecap:butt;stroke-linejoin:miter;stroke-opacity:1"
       inkscape:connector-curvature="0"
       id="path5049"
       d="m 192.23417,444.43038 q 0,-0.7656 -0.31681,-1.19931 -0.31302,-0.43749 -0.86365,-0.43749 -0.55063,0 -0.86743,0.43749 -0.31303,0.43371 -0.31303,1.19931 0,0.76559 0.31303,1.20308 0.3168,0.43372 0.86743,0.43372 0.55063,0 0.86365,-0.43372 0.31681,-0.43749 0.31681,-1.20308 z m -2.36092,-1.47463 q 0.21875,-0.37714 0.55063,-0.55817 0.33566,-0.1848 0.79954,-0.1848 0.76937,0 1.24834,0.61097 0.48275,0.61097 0.48275,1.60663 0,0.99565 -0.48275,1.60663 -0.47897,0.61096 -1.24834,0.61096 -0.46388,0 -0.79954,-0.18102 -0.33188,-0.1848 -0.55063,-0.56195 l 0,0.6336 -0.69771,0 0,-5.86833 0.69771,0 0,2.28548 z" />
    <path
       style="font-style:normal;font-variant:normal;font-weight:500;font-stretch:normal;font-size:medium;line-height:125%;font-family:Roboto;-inkscape-font-specification:'Roboto, Medium';text-align:center;letter-spacing:0px;word-spacing:0px;writing-mode:lr-tb;text-anchor:middle;fill:#ff2650;fill-opacity:1;stroke:none;stroke-width:1px;stroke-linecap:butt;stroke-linejoin:miter;stroke-opacity:1"
       inkscape:connector-curvature="0"
       id="path5051"
       d="m 194.10479,442.31461 0.69394,0 0,4.29942 q 0,0.80709 -0.30925,1.16914 -0.30549,0.36206 -0.98812,0.36206 l -0.264,0 0,-0.58834 0.1848,0 q 0.396,0 0.53932,-0.1848 0.14331,-0.18103 0.14331,-0.75806 l 0,-4.29942 z m 0,-1.64434 0.69394,0 0,0.87874 -0.69394,0 0,-0.87874 z" />
    <path
       style="font-style:normal;font-variant:normal;font-weight:500;font-stretch:normal;font-size:medium;line-height:125%;font-family:Roboto;-inkscape-font-specification:'Roboto, Medium';text-align:center;letter-spacing:0px;word-spacing:0px;writing-mode:lr-tb;text-anchor:middle;fill:#ff2650;fill-opacity:1;stroke:none;stroke-width:1px;stroke-linecap:butt;stroke-linejoin:miter;stroke-opacity:1"
       inkscape:connector-curvature="0"
       id="path5053"
       d="m 199.85998,444.25312 0,0.33943 -3.19062,0 q 0.0453,0.71657 0.42994,1.09371 0.38846,0.37337 1.07863,0.37337 0.39977,0 0.77314,-0.0981 0.37714,-0.0981 0.74674,-0.29417 l 0,0.65622 q -0.37337,0.1584 -0.7656,0.24137 -0.39222,0.083 -0.79577,0.083 -1.01074,0 -1.60285,-0.58834 -0.58834,-0.58834 -0.58834,-1.59154 0,-1.03714 0.55817,-1.64434 0.56194,-0.61097 1.51234,-0.61097 0.85234,0 1.3464,0.55063 0.49782,0.54685 0.49782,1.48971 z m -0.69394,-0.20366 q -0.008,-0.56948 -0.32057,-0.90891 -0.30926,-0.33943 -0.82217,-0.33943 -0.5808,0 -0.93154,0.32812 -0.34697,0.32811 -0.39977,0.924 l 2.47405,-0.004 z" />
    <path
       style="font-style:normal;font-variant:normal;font-weight:500;font-stretch:normal;font-size:medium;line-height:125%;font-family:Roboto;-inkscape-font-specification:'Roboto, Medium';text-align:center;letter-spacing:0px;word-spacing:0px;writing-mode:lr-tb;text-anchor:middle;fill:#ff2650;fill-opacity:1;stroke:none;stroke-width:1px;stroke-linecap:butt;stroke-linejoin:miter;stroke-opacity:1"
       inkscape:connector-curvature="0"
       id="path5055"
       d="m 201.68535,441.1153 0,1.19931 1.42937,0 0,0.53931 -1.42937,0 0,2.29303 q 0,0.51668 0.13955,0.66377 0.14331,0.14708 0.57702,0.14708 l 0.7128,0 0,0.5808 -0.7128,0 q -0.80331,0 -1.10879,-0.29794 -0.30549,-0.30171 -0.30549,-1.09371 l 0,-2.29303 -0.50914,0 0,-0.53931 0.50914,0 0,-1.19931 0.69771,0 z" />
    <path
       style="font-style:normal;font-variant:normal;font-weight:500;font-stretch:normal;font-size:medium;line-height:125%;font-family:Roboto;-inkscape-font-specification:'Roboto, Medium';text-align:center;letter-spacing:0px;word-spacing:0px;writing-mode:lr-tb;text-anchor:middle;fill:#ff2650;fill-opacity:1;stroke:none;stroke-width:1px;stroke-linecap:butt;stroke-linejoin:miter;stroke-opacity:1"
       inkscape:connector-curvature="0"
       id="path5057"
       d="m 205.66798,442.80112 q -0.55817,0 -0.88252,0.43749 -0.32434,0.43371 -0.32434,1.19177 0,0.75805 0.32057,1.19554 0.32434,0.43371 0.88629,0.43371 0.5544,0 0.87874,-0.43748 0.32434,-0.43749 0.32434,-1.19177 0,-0.75052 -0.32434,-1.188 -0.32434,-0.44126 -0.87874,-0.44126 z m 0,-0.58834 q 0.90514,0 1.42182,0.58834 0.51669,0.58834 0.51669,1.62926 0,1.03714 -0.51669,1.62925 -0.51668,0.58834 -1.42182,0.58834 -0.90892,0 -1.4256,-0.58834 -0.51292,-0.59211 -0.51292,-1.62925 0,-1.04092 0.51292,-1.62926 0.51668,-0.58834 1.4256,-0.58834 z" />
    <path
       style="font-style:normal;font-variant:normal;font-weight:500;font-stretch:normal;font-size:medium;line-height:125%;font-family:Roboto;-inkscape-font-specification:'Roboto, Medium';text-align:center;letter-spacing:0px;word-spacing:0px;writing-mode:lr-tb;text-anchor:middle;fill:#ff2650;fill-opacity:1;stroke:none;stroke-width:1px;stroke-linecap:butt;stroke-linejoin:miter;stroke-opacity:1"
       inkscape:connector-curvature="0"
       id="path5059"
       d="m 213.12408,441.65838 -1.03337,2.80217 2.07051,0 -1.03714,-2.80217 z m -0.42994,-0.75051 0.86365,0 2.14594,5.63073 -0.79199,0 -0.51292,-1.44445 -2.53817,0 -0.51291,1.44445 -0.80331,0 2.14971,-5.63073 z" />
    <path
       style="opacity:1;fill:#ff2650;fill-opacity:1;stroke:none;stroke-width:5;stroke-linecap:butt;stroke-linejoin:round;stroke-miterlimit:4;stroke-dasharray:none;stroke-dashoffset:0;stroke-opacity:1"
       d="m 226.05406,464.04578 38.09931,0 0,1.47376 -38.09931,0 z"
       id="rect4842" />
    <path
       transform="matrix(0,1,-1,0,0,0)"
       style="opacity:1;fill:#ff2650;fill-opacity:1;stroke:none;stroke-width:5;stroke-linecap:butt;stroke-linejoin:round;stroke-miterlimit:4;stroke-dasharray:none;stroke-dashoffset:0;stroke-opacity:1"
       d="m 458.18567,-264.15338 7.33387,0 0,1.47376 -7.33387,0 z"
       id="rect4844" />
    <path
       style="opacity:1;fill:#ff2650;fill-opacity:1;stroke:none;stroke-width:5;stroke-linecap:butt;stroke-linejoin:round;stroke-miterlimit:4;stroke-dasharray:none;stroke-dashoffset:0;stroke-opacity:1"
       inkscape:transform-center-y="-1.7211564"
       d="m 265.46325,458.83959 -4.09349,0 2.04674,-3.54507 z"
       id="path4846" />
    <path
       inkscape:connector-curvature="0"
       id="path5028"
       style="font-style:normal;font-variant:normal;font-weight:bold;font-stretch:normal;font-size:12.75732899px;line-height:125%;font-family:Roboto;-inkscape-font-specification:'Roboto Bold';text-align:start;letter-spacing:0px;word-spacing:0px;writing-mode:lr-tb;text-anchor:start;fill:#ff2650;fill-opacity:1;stroke:none;stroke-width:1px;stroke-linecap:butt;stroke-linejoin:miter;stroke-opacity:1"
       d="m 233.62604,468.33622 1.36642,0 q 0.60943,0 0.93446,0.27158 0.32718,0.26943 0.32718,0.76981 0,0.50252 -0.32718,0.77409 -0.32503,0.26943 -0.93446,0.26943 l -0.54315,0 0,1.10768 -0.82327,0 0,-3.19259 z m 0.82327,0.59661 0,0.8917 0.45547,0 q 0.2395,0 0.36994,-0.11547 0.13044,-0.11761 0.13044,-0.33145 0,-0.21384 -0.13044,-0.32931 -0.13044,-0.11547 -0.36994,-0.11547 l -0.45547,0 z" />
    <path
       inkscape:connector-curvature="0"
       id="path5030"
       style="font-style:normal;font-variant:normal;font-weight:bold;font-stretch:normal;font-size:12.75732899px;line-height:125%;font-family:Roboto;-inkscape-font-specification:'Roboto Bold';text-align:start;letter-spacing:0px;word-spacing:0px;writing-mode:lr-tb;text-anchor:start;fill:#ff2650;fill-opacity:1;stroke:none;stroke-width:1px;stroke-linecap:butt;stroke-linejoin:miter;stroke-opacity:1"
       d="m 238.00328,469.75182 q 0.25874,0 0.36994,-0.0962 0.11333,-0.0962 0.11333,-0.31648 0,-0.21811 -0.11333,-0.3122 -0.1112,-0.0941 -0.36994,-0.0941 l -0.34642,0 0,0.81899 0.34642,0 z m -0.34642,0.56881 0,1.20818 -0.82327,0 0,-3.19259 1.25736,0 q 0.63082,0 0.92378,0.2117 0.29509,0.2117 0.29509,0.66931 0,0.31648 -0.15396,0.51963 -0.15182,0.20314 -0.45975,0.29937 0.16893,0.0385 0.30151,0.17534 0.13472,0.13472 0.27157,0.41057 l 0.44692,0.90667 -0.87673,0 -0.38918,-0.79334 q -0.11761,-0.23949 -0.2395,-0.32717 -0.11975,-0.0877 -0.32075,-0.0877 l -0.23309,0 z" />
    <path
       inkscape:connector-curvature="0"
       id="path5032"
       style="font-style:normal;font-variant:normal;font-weight:bold;font-stretch:normal;font-size:12.75732899px;line-height:125%;font-family:Roboto;-inkscape-font-specification:'Roboto Bold';text-align:start;letter-spacing:0px;word-spacing:0px;writing-mode:lr-tb;text-anchor:start;fill:#ff2650;fill-opacity:1;stroke:none;stroke-width:1px;stroke-linecap:butt;stroke-linejoin:miter;stroke-opacity:1"
       d="m 241.66203,468.87509 q -0.37635,0 -0.58378,0.27799 -0.20742,0.27799 -0.20742,0.78264 0,0.50252 0.20742,0.78051 0.20743,0.27798 0.58378,0.27798 0.37849,0 0.58591,-0.27798 0.20742,-0.27799 0.20742,-0.78051 0,-0.50465 -0.20742,-0.78264 -0.20742,-0.27799 -0.58591,-0.27799 z m 0,-0.5966 q 0.76981,0 1.20604,0.4405 0.43622,0.44051 0.43622,1.21673 0,0.77409 -0.43622,1.2146 -0.43623,0.4405 -1.20604,0.4405 -0.76768,0 -1.20604,-0.4405 -0.43623,-0.44051 -0.43623,-1.2146 0,-0.77622 0.43623,-1.21673 0.43836,-0.4405 1.20604,-0.4405 z" />
    <path
       inkscape:connector-curvature="0"
       id="path5034"
       style="font-style:normal;font-variant:normal;font-weight:bold;font-stretch:normal;font-size:12.75732899px;line-height:125%;font-family:Roboto;-inkscape-font-specification:'Roboto Bold';text-align:start;letter-spacing:0px;word-spacing:0px;writing-mode:lr-tb;text-anchor:start;fill:#ff2650;fill-opacity:1;stroke:none;stroke-width:1px;stroke-linecap:butt;stroke-linejoin:miter;stroke-opacity:1"
       d="m 243.54379,468.33622 2.9424,0 0,0.62227 -1.0585,0 0,2.57032 -0.82327,0 0,-2.57032 -1.06063,0 0,-0.62227 z" />
    <path
       inkscape:connector-curvature="0"
       id="path5036"
       style="font-style:normal;font-variant:normal;font-weight:bold;font-stretch:normal;font-size:12.75732899px;line-height:125%;font-family:Roboto;-inkscape-font-specification:'Roboto Bold';text-align:start;letter-spacing:0px;word-spacing:0px;writing-mode:lr-tb;text-anchor:start;fill:#ff2650;fill-opacity:1;stroke:none;stroke-width:1px;stroke-linecap:butt;stroke-linejoin:miter;stroke-opacity:1"
       d="m 248.36795,468.87509 q -0.37635,0 -0.58377,0.27799 -0.20743,0.27799 -0.20743,0.78264 0,0.50252 0.20743,0.78051 0.20742,0.27798 0.58377,0.27798 0.37849,0 0.58592,-0.27798 0.20742,-0.27799 0.20742,-0.78051 0,-0.50465 -0.20742,-0.78264 -0.20743,-0.27799 -0.58592,-0.27799 z m 0,-0.5966 q 0.76981,0 1.20604,0.4405 0.43623,0.44051 0.43623,1.21673 0,0.77409 -0.43623,1.2146 -0.43623,0.4405 -1.20604,0.4405 -0.76767,0 -1.20604,-0.4405 -0.43622,-0.44051 -0.43622,-1.2146 0,-0.77622 0.43622,-1.21673 0.43837,-0.4405 1.20604,-0.4405 z m 0.0577,-0.81044 0.60516,0 -0.60944,0.56453 -0.41912,0 0.4234,-0.56453 z" />
    <path
       inkscape:connector-curvature="0"
       id="path5038"
       style="font-style:normal;font-variant:normal;font-weight:bold;font-stretch:normal;font-size:12.75732899px;line-height:125%;font-family:Roboto;-inkscape-font-specification:'Roboto Bold';text-align:start;letter-spacing:0px;word-spacing:0px;writing-mode:lr-tb;text-anchor:start;fill:#ff2650;fill-opacity:1;stroke:none;stroke-width:1px;stroke-linecap:butt;stroke-linejoin:miter;stroke-opacity:1"
       d="m 250.24972,468.33622 2.94239,0 0,0.62227 -1.05849,0 0,2.57032 -0.82328,0 0,-2.57032 -1.06062,0 0,-0.62227 z" />
    <path
       inkscape:connector-curvature="0"
       id="path5040"
       style="font-style:normal;font-variant:normal;font-weight:bold;font-stretch:normal;font-size:12.75732899px;line-height:125%;font-family:Roboto;-inkscape-font-specification:'Roboto Bold';text-align:start;letter-spacing:0px;word-spacing:0px;writing-mode:lr-tb;text-anchor:start;fill:#ff2650;fill-opacity:1;stroke:none;stroke-width:1px;stroke-linecap:butt;stroke-linejoin:miter;stroke-opacity:1"
       d="m 253.61551,468.33622 0.82327,0 0,3.19259 -0.82327,0 0,-3.19259 z" />
    <path
       inkscape:connector-curvature="0"
       id="path5042"
       style="font-style:normal;font-variant:normal;font-weight:bold;font-stretch:normal;font-size:12.75732899px;line-height:125%;font-family:Roboto;-inkscape-font-specification:'Roboto Bold';text-align:start;letter-spacing:0px;word-spacing:0px;writing-mode:lr-tb;text-anchor:start;fill:#ff2650;fill-opacity:1;stroke:none;stroke-width:1px;stroke-linecap:butt;stroke-linejoin:miter;stroke-opacity:1"
       d="m 255.24922,468.33622 1.36642,0 q 0.60943,0 0.93447,0.27158 0.32717,0.26943 0.32717,0.76981 0,0.50252 -0.32717,0.77409 -0.32504,0.26943 -0.93447,0.26943 l -0.54315,0 0,1.10768 -0.82327,0 0,-3.19259 z m 0.82327,0.59661 0,0.8917 0.45547,0 q 0.2395,0 0.36994,-0.11547 0.13044,-0.11761 0.13044,-0.33145 0,-0.21384 -0.13044,-0.32931 -0.13044,-0.11547 -0.36994,-0.11547 l -0.45547,0 z" />
    <path
       inkscape:connector-curvature="0"
       id="path5044"
       style="font-style:normal;font-variant:normal;font-weight:bold;font-stretch:normal;font-size:12.75732899px;line-height:125%;font-family:Roboto;-inkscape-font-specification:'Roboto Bold';text-align:start;letter-spacing:0px;word-spacing:0px;writing-mode:lr-tb;text-anchor:start;fill:#ff2650;fill-opacity:1;stroke:none;stroke-width:1px;stroke-linecap:butt;stroke-linejoin:miter;stroke-opacity:1"
       d="m 259.91514,468.87509 q -0.37635,0 -0.58377,0.27799 -0.20743,0.27799 -0.20743,0.78264 0,0.50252 0.20743,0.78051 0.20742,0.27798 0.58377,0.27798 0.37849,0 0.58592,-0.27798 0.20741,-0.27799 0.20741,-0.78051 0,-0.50465 -0.20741,-0.78264 -0.20743,-0.27799 -0.58592,-0.27799 z m 0,-0.5966 q 0.76981,0 1.20604,0.4405 0.43623,0.44051 0.43623,1.21673 0,0.77409 -0.43623,1.2146 -0.43623,0.4405 -1.20604,0.4405 -0.76767,0 -1.20604,-0.4405 -0.43622,-0.44051 -0.43622,-1.2146 0,-0.77622 0.43622,-1.21673 0.43837,-0.4405 1.20604,-0.4405 z" />
    <path
       inkscape:connector-curvature="0"
       style="opacity:1;fill:#1a1a1a;fill-opacity:1;stroke:none;stroke-width:5;stroke-linecap:butt;stroke-linejoin:round;stroke-miterlimit:4;stroke-dasharray:none;stroke-dashoffset:0;stroke-opacity:1"
       d="m 193.66168,458.73682 a 1.8246159,1.8638808 0 0 1 1.82509,1.86393 1.8246159,1.8638808 0 0 1 -1.82509,1.86391 1.8246159,1.8638808 0 0 1 -1.82442,-1.86391 1.8246159,1.8638808 0 0 1 1.82442,-1.86393 z"
       id="path4884" />
    <path
       inkscape:connector-curvature="0"
       style="opacity:1;fill:#1a1a1a;fill-opacity:1;stroke:none;stroke-width:5;stroke-linecap:butt;stroke-linejoin:round;stroke-miterlimit:4;stroke-dasharray:none;stroke-dashoffset:0;stroke-opacity:1"
       d="m 205.35948,458.73682 a 1.8246159,1.8638808 0 0 1 1.82509,1.86393 1.8246159,1.8638808 0 0 1 -1.82509,1.86391 1.8246159,1.8638808 0 0 1 -1.82442,-1.86391 1.8246159,1.8638808 0 0 1 1.82442,-1.86393 z"
       id="path4886" />
    <path
       transform="scale(1,-1)"
       style="opacity:1;fill:#1a1a1a;fill-opacity:1;stroke:none;stroke-width:5;stroke-linecap:butt;stroke-linejoin:round;stroke-miterlimit:4;stroke-dasharray:none;stroke-dashoffset:0;stroke-opacity:1"
       d="m 194.64525,-465.97372 a 4.865643,4.8547592 0 0 1 4.86564,-4.85476 4.865643,4.8547592 0 0 1 4.86565,4.85476 l -4.86565,0 z"
       id="path4888" />
    <path
       style="opacity:1;fill:#ff6433;fill-opacity:1;stroke:none;stroke-width:5;stroke-linecap:butt;stroke-linejoin:round;stroke-miterlimit:4;stroke-dasharray:none;stroke-dashoffset:0;stroke-opacity:1"
       d="m 239.12733,427.64676 48.57833,0 c 1.24871,0 2.25399,1.00528 2.25399,2.25399 l 0,23.07728 c 0,1.24872 -1.00528,2.254 -2.25399,2.254 l -48.57833,0 c -1.24871,0 -2.25399,-1.00528 -2.25399,-2.254 l 0,-23.07728 c 0,-1.24871 1.00528,-2.25399 2.25399,-2.25399 z"
       id="rect4848" />
    <path
       style="font-style:normal;font-variant:normal;font-weight:500;font-stretch:normal;font-size:medium;line-height:125%;font-family:Roboto;-inkscape-font-specification:'Roboto, Medium';text-align:center;letter-spacing:0px;word-spacing:0px;writing-mode:lr-tb;text-anchor:middle;fill:#ff6433;fill-opacity:1;stroke:none;stroke-width:1px;stroke-linecap:butt;stroke-linejoin:miter;stroke-opacity:1"
       inkscape:connector-curvature="0"
       id="path5013"
       d="m 249.33611,418.08129 q -0.82971,0 -1.31999,0.61851 -0.48652,0.61851 -0.48652,1.68583 0,1.06354 0.48652,1.68205 0.49028,0.61851 1.31999,0.61851 0.82971,0 1.31246,-0.61851 0.48651,-0.61851 0.48651,-1.68205 0,-1.06732 -0.48651,-1.68583 -0.48275,-0.61851 -1.31246,-0.61851 z m 0,-0.61852 q 1.18423,0 1.89326,0.79577 0.70903,0.792 0.70903,2.12709 0,1.33131 -0.70903,2.12708 -0.70903,0.792 -1.89326,0.792 -1.188,0 -1.9008,-0.792 -0.70902,-0.792 -0.70902,-2.12708 0,-1.33509 0.70902,-2.12709 0.7128,-0.79577 1.9008,-0.79577 z" />
    <path
       style="font-style:normal;font-variant:normal;font-weight:500;font-stretch:normal;font-size:medium;line-height:125%;font-family:Roboto;-inkscape-font-specification:'Roboto, Medium';text-align:center;letter-spacing:0px;word-spacing:0px;writing-mode:lr-tb;text-anchor:middle;fill:#ff6433;fill-opacity:1;stroke:none;stroke-width:1px;stroke-linecap:butt;stroke-linejoin:miter;stroke-opacity:1"
       inkscape:connector-curvature="0"
       id="path5015"
       d="m 256.13222,421.08711 q 0,-0.7656 -0.3168,-1.19931 -0.31303,-0.43749 -0.86366,-0.43749 -0.55063,0 -0.86742,0.43749 -0.31303,0.43371 -0.31303,1.19931 0,0.7656 0.31303,1.20309 0.31679,0.43371 0.86742,0.43371 0.55063,0 0.86366,-0.43371 0.3168,-0.43749 0.3168,-1.20309 z m -2.36091,-1.47462 q 0.21874,-0.37715 0.55063,-0.55818 0.33565,-0.1848 0.79954,-0.1848 0.76937,0 1.24834,0.61097 0.48274,0.61098 0.48274,1.60663 0,0.99566 -0.48274,1.60663 -0.47897,0.61097 -1.24834,0.61097 -0.46389,0 -0.79954,-0.18103 -0.33189,-0.1848 -0.55063,-0.56194 l 0,0.6336 -0.69772,0 0,-5.86834 0.69772,0 0,2.28549 z" />
    <path
       style="font-style:normal;font-variant:normal;font-weight:500;font-stretch:normal;font-size:medium;line-height:125%;font-family:Roboto;-inkscape-font-specification:'Roboto, Medium';text-align:center;letter-spacing:0px;word-spacing:0px;writing-mode:lr-tb;text-anchor:middle;fill:#ff6433;fill-opacity:1;stroke:none;stroke-width:1px;stroke-linecap:butt;stroke-linejoin:miter;stroke-opacity:1"
       inkscape:connector-curvature="0"
       id="path5017"
       d="m 258.00284,418.97134 0.69395,0 0,4.29942 q 0,0.80709 -0.30926,1.16915 -0.30549,0.36205 -0.98811,0.36205 l -0.264,0 0,-0.58834 0.1848,0 q 0.39599,0 0.53931,-0.1848 0.14331,-0.18103 0.14331,-0.75806 l 0,-4.29942 z m 0,-1.64434 0.69395,0 0,0.87875 -0.69395,0 0,-0.87875 z" />
    <path
       style="font-style:normal;font-variant:normal;font-weight:500;font-stretch:normal;font-size:medium;line-height:125%;font-family:Roboto;-inkscape-font-specification:'Roboto, Medium';text-align:center;letter-spacing:0px;word-spacing:0px;writing-mode:lr-tb;text-anchor:middle;fill:#ff6433;fill-opacity:1;stroke:none;stroke-width:1px;stroke-linecap:butt;stroke-linejoin:miter;stroke-opacity:1"
       inkscape:connector-curvature="0"
       id="path5019"
       d="m 263.75804,420.90985 0,0.33943 -3.19063,0 q 0.0453,0.71657 0.42994,1.09372 0.38846,0.37336 1.07863,0.37336 0.39977,0 0.77314,-0.0981 0.37715,-0.0981 0.74674,-0.29417 l 0,0.65623 q -0.37337,0.15839 -0.7656,0.24137 -0.39222,0.083 -0.79576,0.083 -1.01075,0 -1.60286,-0.58835 -0.58834,-0.58833 -0.58834,-1.59154 0,-1.03714 0.55817,-1.64434 0.56194,-0.61097 1.51234,-0.61097 0.85234,0 1.3464,0.55063 0.49783,0.54686 0.49783,1.48971 z m -0.69395,-0.20365 q -0.008,-0.56949 -0.32057,-0.90891 -0.30925,-0.33943 -0.82217,-0.33943 -0.5808,0 -0.93154,0.32811 -0.34697,0.32811 -0.39977,0.924 l 2.47405,-0.004 z" />
    <path
       style="font-style:normal;font-variant:normal;font-weight:500;font-stretch:normal;font-size:medium;line-height:125%;font-family:Roboto;-inkscape-font-specification:'Roboto, Medium';text-align:center;letter-spacing:0px;word-spacing:0px;writing-mode:lr-tb;text-anchor:middle;fill:#ff6433;fill-opacity:1;stroke:none;stroke-width:1px;stroke-linecap:butt;stroke-linejoin:miter;stroke-opacity:1"
       inkscape:connector-curvature="0"
       id="path5021"
       d="m 265.5834,417.77203 0,1.19931 1.42937,0 0,0.53931 -1.42937,0 0,2.29303 q 0,0.51669 0.13955,0.66377 0.14331,0.14709 0.57703,0.14709 l 0.71279,0 0,0.5808 -0.71279,0 q -0.80332,0 -1.1088,-0.29794 -0.30549,-0.30172 -0.30549,-1.09372 l 0,-2.29303 -0.50914,0 0,-0.53931 0.50914,0 0,-1.19931 0.69771,0 z" />
    <path
       style="font-style:normal;font-variant:normal;font-weight:500;font-stretch:normal;font-size:medium;line-height:125%;font-family:Roboto;-inkscape-font-specification:'Roboto, Medium';text-align:center;letter-spacing:0px;word-spacing:0px;writing-mode:lr-tb;text-anchor:middle;fill:#ff6433;fill-opacity:1;stroke:none;stroke-width:1px;stroke-linecap:butt;stroke-linejoin:miter;stroke-opacity:1"
       inkscape:connector-curvature="0"
       id="path5023"
       d="m 269.56603,419.45786 q -0.55817,0 -0.88251,0.43748 -0.32435,0.43372 -0.32435,1.19177 0,0.75806 0.32057,1.19554 0.32434,0.43371 0.88629,0.43371 0.5544,0 0.87874,-0.43748 0.32434,-0.43748 0.32434,-1.19177 0,-0.75051 -0.32434,-1.188 -0.32434,-0.44125 -0.87874,-0.44125 z m 0,-0.58835 q 0.90514,0 1.42182,0.58835 0.51669,0.58834 0.51669,1.62925 0,1.03714 -0.51669,1.62925 -0.51668,0.58835 -1.42182,0.58835 -0.90892,0 -1.4256,-0.58835 -0.51292,-0.59211 -0.51292,-1.62925 0,-1.04091 0.51292,-1.62925 0.51668,-0.58835 1.4256,-0.58835 z" />
    <path
       style="font-style:normal;font-variant:normal;font-weight:500;font-stretch:normal;font-size:medium;line-height:125%;font-family:Roboto;-inkscape-font-specification:'Roboto, Medium';text-align:center;letter-spacing:0px;word-spacing:0px;writing-mode:lr-tb;text-anchor:middle;fill:#ff6433;fill-opacity:1;stroke:none;stroke-width:1px;stroke-linecap:butt;stroke-linejoin:miter;stroke-opacity:1"
       inkscape:connector-curvature="0"
       id="path5025"
       d="m 275.90202,420.50631 0,2.06297 1.22194,0 q 0.61474,0 0.90891,-0.25269 0.29794,-0.25645 0.29794,-0.78068 0,-0.528 -0.29794,-0.77691 -0.29417,-0.25269 -0.90891,-0.25269 l -1.22194,0 z m 0,-2.31565 0,1.69714 1.12765,0 q 0.55818,0 0.82972,-0.20743 0.27531,-0.2112 0.27531,-0.64114 0,-0.42617 -0.27531,-0.63737 -0.27154,-0.2112 -0.82972,-0.2112 l -1.12765,0 z m -0.76183,-0.62606 1.94605,0 q 0.87121,0 1.34263,0.36206 0.47143,0.36205 0.47143,1.0296 0,0.51668 -0.24137,0.82217 -0.24137,0.30548 -0.70903,0.38091 0.56194,0.12069 0.8712,0.50537 0.31303,0.38092 0.31303,0.95417 0,0.75429 -0.51292,1.16537 -0.51291,0.41109 -1.45954,0.41109 l -2.02148,0 0,-5.63074 z" />
    <path
       style="opacity:1;fill:#ff6433;fill-opacity:1;stroke:none;stroke-width:5;stroke-linecap:butt;stroke-linejoin:round;stroke-miterlimit:4;stroke-dasharray:none;stroke-dashoffset:0;stroke-opacity:1"
       d="m 289.95966,441.43939 38.0993,0 0,1.47377 -38.0993,0 z"
       id="rect4854" />
    <path
       transform="matrix(0,1,-1,0,0,0)"
       style="opacity:1;fill:#ff6433;fill-opacity:1;stroke:none;stroke-width:5;stroke-linecap:butt;stroke-linejoin:round;stroke-miterlimit:4;stroke-dasharray:none;stroke-dashoffset:0;stroke-opacity:1"
       d="m 435.57928,-328.05896 7.33387,0 0,1.47377 -7.33387,0 z"
       id="rect4856" />
    <path
       style="opacity:1;fill:#ff6433;fill-opacity:1;stroke:none;stroke-width:5;stroke-linecap:butt;stroke-linejoin:round;stroke-miterlimit:4;stroke-dasharray:none;stroke-dashoffset:0;stroke-opacity:1"
       inkscape:transform-center-y="-1.7211564"
       d="m 329.36883,436.2332 -4.09349,0 2.04674,-3.54506 z"
       id="path4858" />
    <path
       inkscape:connector-curvature="0"
       id="path4994"
       style="font-style:normal;font-variant:normal;font-weight:bold;font-stretch:normal;font-size:12.75732899px;line-height:125%;font-family:Roboto;-inkscape-font-specification:'Roboto Bold';text-align:start;letter-spacing:0px;word-spacing:0px;writing-mode:lr-tb;text-anchor:start;fill:#ff6433;fill-opacity:1;stroke:none;stroke-width:1px;stroke-linecap:butt;stroke-linejoin:miter;stroke-opacity:1"
       d="m 297.53161,445.72983 1.36642,0 q 0.60944,0 0.93447,0.27157 0.32717,0.26944 0.32717,0.76982 0,0.50251 -0.32717,0.77409 -0.32503,0.26943 -0.93447,0.26943 l -0.54315,0 0,1.10768 -0.82327,0 0,-3.19259 z m 0.82327,0.5966 0,0.89171 0.45548,0 q 0.23949,0 0.36994,-0.11548 0.13044,-0.11761 0.13044,-0.33144 0,-0.21384 -0.13044,-0.32931 -0.13045,-0.11548 -0.36994,-0.11548 l -0.45548,0 z" />
    <path
       inkscape:connector-curvature="0"
       id="path4996"
       style="font-style:normal;font-variant:normal;font-weight:bold;font-stretch:normal;font-size:12.75732899px;line-height:125%;font-family:Roboto;-inkscape-font-specification:'Roboto Bold';text-align:start;letter-spacing:0px;word-spacing:0px;writing-mode:lr-tb;text-anchor:start;fill:#ff6433;fill-opacity:1;stroke:none;stroke-width:1px;stroke-linecap:butt;stroke-linejoin:miter;stroke-opacity:1"
       d="m 301.90885,447.14543 q 0.25875,0 0.36994,-0.0962 0.11334,-0.0962 0.11334,-0.31647 0,-0.21812 -0.11334,-0.31221 -0.11119,-0.0941 -0.36994,-0.0941 l -0.34641,0 0,0.819 0.34641,0 z m -0.34641,0.56881 0,1.20818 -0.82327,0 0,-3.19259 1.25736,0 q 0.63081,0 0.92377,0.2117 0.2951,0.2117 0.2951,0.66931 0,0.31648 -0.15397,0.51962 -0.15182,0.20315 -0.45975,0.29937 0.16894,0.0385 0.30152,0.17535 0.13471,0.13472 0.27157,0.41057 l 0.44692,0.90667 -0.87673,0 -0.38919,-0.79334 q -0.11761,-0.2395 -0.2395,-0.32717 -0.11974,-0.0877 -0.32075,-0.0877 l -0.23308,0 z" />
    <path
       inkscape:connector-curvature="0"
       id="path4998"
       style="font-style:normal;font-variant:normal;font-weight:bold;font-stretch:normal;font-size:12.75732899px;line-height:125%;font-family:Roboto;-inkscape-font-specification:'Roboto Bold';text-align:start;letter-spacing:0px;word-spacing:0px;writing-mode:lr-tb;text-anchor:start;fill:#ff6433;fill-opacity:1;stroke:none;stroke-width:1px;stroke-linecap:butt;stroke-linejoin:miter;stroke-opacity:1"
       d="m 305.5676,446.2687 q -0.37635,0 -0.58377,0.27799 -0.20743,0.27799 -0.20743,0.78264 0,0.50252 0.20743,0.78051 0.20742,0.27798 0.58377,0.27798 0.37849,0 0.58592,-0.27798 0.20742,-0.27799 0.20742,-0.78051 0,-0.50465 -0.20742,-0.78264 -0.20743,-0.27799 -0.58592,-0.27799 z m 0,-0.5966 q 0.76982,0 1.20604,0.4405 0.43623,0.4405 0.43623,1.21673 0,0.77409 -0.43623,1.21459 -0.43622,0.44051 -1.20604,0.44051 -0.76767,0 -1.20604,-0.44051 -0.43622,-0.4405 -0.43622,-1.21459 0,-0.77623 0.43622,-1.21673 0.43837,-0.4405 1.20604,-0.4405 z" />
    <path
       inkscape:connector-curvature="0"
       id="path5000"
       style="font-style:normal;font-variant:normal;font-weight:bold;font-stretch:normal;font-size:12.75732899px;line-height:125%;font-family:Roboto;-inkscape-font-specification:'Roboto Bold';text-align:start;letter-spacing:0px;word-spacing:0px;writing-mode:lr-tb;text-anchor:start;fill:#ff6433;fill-opacity:1;stroke:none;stroke-width:1px;stroke-linecap:butt;stroke-linejoin:miter;stroke-opacity:1"
       d="m 307.44937,445.72983 2.94239,0 0,0.62226 -1.05849,0 0,2.57033 -0.82327,0 0,-2.57033 -1.06063,0 0,-0.62226 z" />
    <path
       inkscape:connector-curvature="0"
       id="path5002"
       style="font-style:normal;font-variant:normal;font-weight:bold;font-stretch:normal;font-size:12.75732899px;line-height:125%;font-family:Roboto;-inkscape-font-specification:'Roboto Bold';text-align:start;letter-spacing:0px;word-spacing:0px;writing-mode:lr-tb;text-anchor:start;fill:#ff6433;fill-opacity:1;stroke:none;stroke-width:1px;stroke-linecap:butt;stroke-linejoin:miter;stroke-opacity:1"
       d="m 312.27353,446.2687 q -0.37636,0 -0.58378,0.27799 -0.20742,0.27799 -0.20742,0.78264 0,0.50252 0.20742,0.78051 0.20742,0.27798 0.58378,0.27798 0.37849,0 0.58591,-0.27798 0.20742,-0.27799 0.20742,-0.78051 0,-0.50465 -0.20742,-0.78264 -0.20742,-0.27799 -0.58591,-0.27799 z m 0,-0.5966 q 0.76981,0 1.20603,0.4405 0.43623,0.4405 0.43623,1.21673 0,0.77409 -0.43623,1.21459 -0.43622,0.44051 -1.20603,0.44051 -0.76768,0 -1.20604,-0.44051 -0.43623,-0.4405 -0.43623,-1.21459 0,-0.77623 0.43623,-1.21673 0.43836,-0.4405 1.20604,-0.4405 z m 0.0577,-0.81045 0.60516,0 -0.60943,0.56453 -0.41913,0 0.4234,-0.56453 z" />
    <path
       inkscape:connector-curvature="0"
       id="path5004"
       style="font-style:normal;font-variant:normal;font-weight:bold;font-stretch:normal;font-size:12.75732899px;line-height:125%;font-family:Roboto;-inkscape-font-specification:'Roboto Bold';text-align:start;letter-spacing:0px;word-spacing:0px;writing-mode:lr-tb;text-anchor:start;fill:#ff6433;fill-opacity:1;stroke:none;stroke-width:1px;stroke-linecap:butt;stroke-linejoin:miter;stroke-opacity:1"
       d="m 314.15529,445.72983 2.94239,0 0,0.62226 -1.05849,0 0,2.57033 -0.82327,0 0,-2.57033 -1.06063,0 0,-0.62226 z" />
    <path
       inkscape:connector-curvature="0"
       id="path5006"
       style="font-style:normal;font-variant:normal;font-weight:bold;font-stretch:normal;font-size:12.75732899px;line-height:125%;font-family:Roboto;-inkscape-font-specification:'Roboto Bold';text-align:start;letter-spacing:0px;word-spacing:0px;writing-mode:lr-tb;text-anchor:start;fill:#ff6433;fill-opacity:1;stroke:none;stroke-width:1px;stroke-linecap:butt;stroke-linejoin:miter;stroke-opacity:1"
       d="m 317.52108,445.72983 0.82327,0 0,3.19259 -0.82327,0 0,-3.19259 z" />
    <path
       inkscape:connector-curvature="0"
       id="path5008"
       style="font-style:normal;font-variant:normal;font-weight:bold;font-stretch:normal;font-size:12.75732899px;line-height:125%;font-family:Roboto;-inkscape-font-specification:'Roboto Bold';text-align:start;letter-spacing:0px;word-spacing:0px;writing-mode:lr-tb;text-anchor:start;fill:#ff6433;fill-opacity:1;stroke:none;stroke-width:1px;stroke-linecap:butt;stroke-linejoin:miter;stroke-opacity:1"
       d="m 319.1548,445.72983 1.36641,0 q 0.60944,0 0.93447,0.27157 0.32717,0.26944 0.32717,0.76982 0,0.50251 -0.32717,0.77409 -0.32503,0.26943 -0.93447,0.26943 l -0.54315,0 0,1.10768 -0.82326,0 0,-3.19259 z m 0.82326,0.5966 0,0.89171 0.45548,0 q 0.23949,0 0.36994,-0.11548 0.13044,-0.11761 0.13044,-0.33144 0,-0.21384 -0.13044,-0.32931 -0.13045,-0.11548 -0.36994,-0.11548 l -0.45548,0 z" />
    <path
       inkscape:connector-curvature="0"
       id="path5010"
       style="font-style:normal;font-variant:normal;font-weight:bold;font-stretch:normal;font-size:12.75732899px;line-height:125%;font-family:Roboto;-inkscape-font-specification:'Roboto Bold';text-align:start;letter-spacing:0px;word-spacing:0px;writing-mode:lr-tb;text-anchor:start;fill:#ff6433;fill-opacity:1;stroke:none;stroke-width:1px;stroke-linecap:butt;stroke-linejoin:miter;stroke-opacity:1"
       d="m 323.82072,446.2687 q -0.37636,0 -0.58378,0.27799 -0.20742,0.27799 -0.20742,0.78264 0,0.50252 0.20742,0.78051 0.20742,0.27798 0.58378,0.27798 0.37849,0 0.58591,-0.27798 0.20742,-0.27799 0.20742,-0.78051 0,-0.50465 -0.20742,-0.78264 -0.20742,-0.27799 -0.58591,-0.27799 z m 0,-0.5966 q 0.76981,0 1.20603,0.4405 0.43623,0.4405 0.43623,1.21673 0,0.77409 -0.43623,1.21459 -0.43622,0.44051 -1.20603,0.44051 -0.76768,0 -1.20604,-0.44051 -0.43623,-0.4405 -0.43623,-1.21459 0,-0.77623 0.43623,-1.21673 0.43836,-0.4405 1.20604,-0.4405 z" />
    <path
       transform="scale(1,-1)"
       style="opacity:1;fill:#1a1a1a;fill-opacity:1;stroke:none;stroke-width:5;stroke-linecap:butt;stroke-linejoin:round;stroke-miterlimit:4;stroke-dasharray:none;stroke-dashoffset:0;stroke-opacity:1"
       d="m 258.55086,-441.68027 a 4.865643,4.8547592 0 0 1 4.86564,-4.85476 4.865643,4.8547592 0 0 1 4.86565,4.85476 l -4.86565,0 z"
       id="path4890" />
    <path
       style="opacity:1;fill:#1a1a1a;fill-opacity:1;stroke:none;stroke-width:5;stroke-linecap:butt;stroke-linejoin:round;stroke-miterlimit:4;stroke-dasharray:none;stroke-dashoffset:0;stroke-opacity:1"
       d="m 255.75162,436.34372 3.64107,0 c 0.60034,0 1.08365,0.48331 1.08365,1.08365 0,0.60034 -0.48331,1.08365 -1.08365,1.08365 l -3.64107,0 c -0.60034,0 -1.08365,-0.48331 -1.08365,-1.08365 0,-0.60034 0.48331,-1.08365 1.08365,-1.08365 z"
       id="rect4892" />
    <path
       style="opacity:1;fill:#1a1a1a;fill-opacity:1;stroke:none;stroke-width:5;stroke-linecap:butt;stroke-linejoin:round;stroke-miterlimit:4;stroke-dasharray:none;stroke-dashoffset:0;stroke-opacity:1"
       d="m 268.10981,436.34372 3.64106,0 c 0.60035,0 1.08366,0.48331 1.08366,1.08365 0,0.60034 -0.48331,1.08365 -1.08366,1.08365 l -3.64106,0 c -0.60035,0 -1.08366,-0.48331 -1.08366,-1.08365 0,-0.60034 0.48331,-1.08365 1.08366,-1.08365 z"
       id="rect4894" />
    <path
       style="opacity:1;fill:#ffb934;fill-opacity:1;stroke:none;stroke-width:5;stroke-linecap:butt;stroke-linejoin:round;stroke-miterlimit:4;stroke-dasharray:none;stroke-dashoffset:0;stroke-opacity:1"
       d="m 303.03293,405.04037 48.57832,0 c 1.24871,0 2.254,1.00529 2.254,2.254 l 0,23.07728 c 0,1.24871 -1.00529,2.25399 -2.254,2.25399 l -48.57832,0 c -1.24872,0 -2.254,-1.00528 -2.254,-2.25399 l 0,-23.07728 c 0,-1.24871 1.00528,-2.254 2.254,-2.254 z"
       id="rect4860" />
    <path
       style="font-style:normal;font-variant:normal;font-weight:500;font-stretch:normal;font-size:medium;line-height:125%;font-family:Roboto;-inkscape-font-specification:'Roboto, Medium';text-align:center;letter-spacing:0px;word-spacing:0px;writing-mode:lr-tb;text-anchor:middle;fill:#ffb934;fill-opacity:1;stroke:none;stroke-width:1px;stroke-linecap:butt;stroke-linejoin:miter;stroke-opacity:1"
       inkscape:connector-curvature="0"
       id="path4979"
       d="m 313.18886,395.4749 q -0.82971,0 -1.31999,0.61852 -0.48652,0.61851 -0.48652,1.68582 0,1.06354 0.48652,1.68206 0.49028,0.61851 1.31999,0.61851 0.82972,0 1.31246,-0.61851 0.48651,-0.61852 0.48651,-1.68206 0,-1.06731 -0.48651,-1.68582 -0.48274,-0.61852 -1.31246,-0.61852 z m 0,-0.61851 q 1.18423,0 1.89326,0.79577 0.70903,0.792 0.70903,2.12708 0,1.33132 -0.70903,2.12709 -0.70903,0.792 -1.89326,0.792 -1.18799,0 -1.90079,-0.792 -0.70903,-0.792 -0.70903,-2.12709 0,-1.33508 0.70903,-2.12708 0.7128,-0.79577 1.90079,-0.79577 z" />
    <path
       style="font-style:normal;font-variant:normal;font-weight:500;font-stretch:normal;font-size:medium;line-height:125%;font-family:Roboto;-inkscape-font-specification:'Roboto, Medium';text-align:center;letter-spacing:0px;word-spacing:0px;writing-mode:lr-tb;text-anchor:middle;fill:#ffb934;fill-opacity:1;stroke:none;stroke-width:1px;stroke-linecap:butt;stroke-linejoin:miter;stroke-opacity:1"
       inkscape:connector-curvature="0"
       id="path4981"
       d="m 319.98497,398.48073 q 0,-0.7656 -0.3168,-1.19932 -0.31303,-0.43748 -0.86365,-0.43748 -0.55063,0 -0.86743,0.43748 -0.31303,0.43372 -0.31303,1.19932 0,0.7656 0.31303,1.20308 0.3168,0.43372 0.86743,0.43372 0.55062,0 0.86365,-0.43372 0.3168,-0.43748 0.3168,-1.20308 z m -2.36091,-1.47463 q 0.21874,-0.37714 0.55063,-0.55817 0.33565,-0.1848 0.79954,-0.1848 0.76937,0 1.24834,0.61097 0.48274,0.61097 0.48274,1.60663 0,0.99566 -0.48274,1.60662 -0.47897,0.61098 -1.24834,0.61098 -0.46389,0 -0.79954,-0.18103 -0.33189,-0.1848 -0.55063,-0.56195 l 0,0.6336 -0.69772,0 0,-5.86833 0.69772,0 0,2.28548 z" />
    <path
       style="font-style:normal;font-variant:normal;font-weight:500;font-stretch:normal;font-size:medium;line-height:125%;font-family:Roboto;-inkscape-font-specification:'Roboto, Medium';text-align:center;letter-spacing:0px;word-spacing:0px;writing-mode:lr-tb;text-anchor:middle;fill:#ffb934;fill-opacity:1;stroke:none;stroke-width:1px;stroke-linecap:butt;stroke-linejoin:miter;stroke-opacity:1"
       inkscape:connector-curvature="0"
       id="path4983"
       d="m 321.8556,396.36496 0.69394,0 0,4.29942 q 0,0.80709 -0.30926,1.16914 -0.30548,0.36206 -0.98811,0.36206 l -0.264,0 0,-0.58834 0.1848,0 q 0.396,0 0.53931,-0.1848 0.14332,-0.18103 0.14332,-0.75806 l 0,-4.29942 z m 0,-1.64434 0.69394,0 0,0.87874 -0.69394,0 0,-0.87874 z" />
    <path
       style="font-style:normal;font-variant:normal;font-weight:500;font-stretch:normal;font-size:medium;line-height:125%;font-family:Roboto;-inkscape-font-specification:'Roboto, Medium';text-align:center;letter-spacing:0px;word-spacing:0px;writing-mode:lr-tb;text-anchor:middle;fill:#ffb934;fill-opacity:1;stroke:none;stroke-width:1px;stroke-linecap:butt;stroke-linejoin:miter;stroke-opacity:1"
       inkscape:connector-curvature="0"
       id="path4985"
       d="m 327.61079,398.30347 0,0.33943 -3.19063,0 q 0.0453,0.71657 0.42995,1.09371 0.38845,0.37337 1.07862,0.37337 0.39977,0 0.77315,-0.0981 0.37714,-0.0981 0.74674,-0.29418 l 0,0.65623 q -0.37338,0.1584 -0.7656,0.24137 -0.39223,0.083 -0.79577,0.083 -1.01075,0 -1.60286,-0.58835 -0.58834,-0.58834 -0.58834,-1.59154 0,-1.03714 0.55817,-1.64434 0.56194,-0.61097 1.51234,-0.61097 0.85234,0 1.3464,0.55063 0.49783,0.54686 0.49783,1.48971 z m -0.69394,-0.20365 q -0.008,-0.56949 -0.32057,-0.90892 -0.30926,-0.33943 -0.82218,-0.33943 -0.58079,0 -0.93154,0.32812 -0.34697,0.32811 -0.39977,0.924 l 2.47406,-0.004 z" />
    <path
       style="font-style:normal;font-variant:normal;font-weight:500;font-stretch:normal;font-size:medium;line-height:125%;font-family:Roboto;-inkscape-font-specification:'Roboto, Medium';text-align:center;letter-spacing:0px;word-spacing:0px;writing-mode:lr-tb;text-anchor:middle;fill:#ffb934;fill-opacity:1;stroke:none;stroke-width:1px;stroke-linecap:butt;stroke-linejoin:miter;stroke-opacity:1"
       inkscape:connector-curvature="0"
       id="path4987"
       d="m 329.43616,395.16565 0,1.19931 1.42937,0 0,0.53931 -1.42937,0 0,2.29303 q 0,0.51669 0.13954,0.66377 0.14331,0.14709 0.57703,0.14709 l 0.7128,0 0,0.58079 -0.7128,0 q -0.80332,0 -1.1088,-0.29794 -0.30549,-0.30171 -0.30549,-1.09371 l 0,-2.29303 -0.50914,0 0,-0.53931 0.50914,0 0,-1.19931 0.69772,0 z" />
    <path
       style="font-style:normal;font-variant:normal;font-weight:500;font-stretch:normal;font-size:medium;line-height:125%;font-family:Roboto;-inkscape-font-specification:'Roboto, Medium';text-align:center;letter-spacing:0px;word-spacing:0px;writing-mode:lr-tb;text-anchor:middle;fill:#ffb934;fill-opacity:1;stroke:none;stroke-width:1px;stroke-linecap:butt;stroke-linejoin:miter;stroke-opacity:1"
       inkscape:connector-curvature="0"
       id="path4989"
       d="m 333.41878,396.85147 q -0.55817,0 -0.88251,0.43749 -0.32435,0.43371 -0.32435,1.19177 0,0.75806 0.32058,1.19554 0.32434,0.43371 0.88628,0.43371 0.5544,0 0.87874,-0.43748 0.32435,-0.43749 0.32435,-1.19177 0,-0.75051 -0.32435,-1.188 -0.32434,-0.44126 -0.87874,-0.44126 z m 0,-0.58834 q 0.90514,0 1.42183,0.58834 0.51668,0.58835 0.51668,1.62926 0,1.03714 -0.51668,1.62925 -0.51669,0.58835 -1.42183,0.58835 -0.90891,0 -1.4256,-0.58835 -0.51291,-0.59211 -0.51291,-1.62925 0,-1.04091 0.51291,-1.62926 0.51669,-0.58834 1.4256,-0.58834 z" />
    <path
       style="font-style:normal;font-variant:normal;font-weight:500;font-stretch:normal;font-size:medium;line-height:125%;font-family:Roboto;-inkscape-font-specification:'Roboto, Medium';text-align:center;letter-spacing:0px;word-spacing:0px;writing-mode:lr-tb;text-anchor:middle;fill:#ffb934;fill-opacity:1;stroke:none;stroke-width:1px;stroke-linecap:butt;stroke-linejoin:miter;stroke-opacity:1"
       inkscape:connector-curvature="0"
       id="path4991"
       d="m 343.2094,395.39193 0,0.80332 q -0.38469,-0.35829 -0.82217,-0.53555 -0.43372,-0.17725 -0.924,-0.17725 -0.96549,0 -1.4784,0.59211 -0.51292,0.58834 -0.51292,1.70468 0,1.11258 0.51292,1.70469 0.51291,0.58834 1.4784,0.58834 0.49028,0 0.924,-0.17726 0.43748,-0.17726 0.82217,-0.53554 l 0,0.79577 q -0.39978,0.27154 -0.84858,0.40731 -0.44502,0.13578 -0.94285,0.13578 -1.27852,0 -2.01394,-0.78069 -0.73543,-0.78446 -0.73543,-2.1384 0,-1.35771 0.73543,-2.13839 0.73542,-0.78446 2.01394,-0.78446 0.50537,0 0.9504,0.13577 0.4488,0.132 0.84103,0.39977 z" />
    <path
       style="opacity:1;fill:#ffb934;fill-opacity:1;stroke:none;stroke-width:5;stroke-linecap:butt;stroke-linejoin:round;stroke-miterlimit:4;stroke-dasharray:none;stroke-dashoffset:0;stroke-opacity:1"
       d="m 353.8652,418.09613 6.34156,0 0,1.47377 -6.34156,0 z"
       id="rect4874" />
    <path
       style="opacity:1;fill:#ffb934;fill-opacity:1;stroke:none;stroke-width:5;stroke-linecap:butt;stroke-linejoin:round;stroke-miterlimit:4;stroke-dasharray:none;stroke-dashoffset:0;stroke-opacity:1"
       d="m 360.81424,418.09613 3.43737,0 0,1.47377 -3.43737,0 z"
       id="rect4876" />
    <path
       style="opacity:1;fill:#ffb934;fill-opacity:1;stroke:none;stroke-width:5;stroke-linecap:butt;stroke-linejoin:round;stroke-miterlimit:4;stroke-dasharray:none;stroke-dashoffset:0;stroke-opacity:1"
       d="m 364.85907,418.09613 1.44345,0 0,1.47377 -1.44345,0 z"
       id="rect4878" />
    <path
       style="opacity:1;fill:#ffb934;fill-opacity:1;stroke:none;stroke-width:5;stroke-linecap:butt;stroke-linejoin:round;stroke-miterlimit:4;stroke-dasharray:none;stroke-dashoffset:0;stroke-opacity:1"
       d="m 366.90997,418.09613 0.83661,0 0,1.47377 -0.83661,0 z"
       id="rect4880" />
    <path
       inkscape:connector-curvature="0"
       id="path4898"
       d="m 322.45644,420.02912 a 4.865643,4.8547595 0 0 0 4.86564,4.85491 4.865643,4.8547595 0 0 0 4.86564,-4.85491 l -1.53606,0 a 3.3296924,3.3222445 0 0 1 -3.32958,3.3222 3.3296924,3.3222445 0 0 1 -3.33025,-3.3222 l -1.53539,0 z"
       style="opacity:1;fill:#1a1a1a;fill-opacity:1;stroke:none;stroke-width:5;stroke-linecap:butt;stroke-linejoin:round;stroke-miterlimit:4;stroke-dasharray:none;stroke-dashoffset:0;stroke-opacity:1" />
    <path
       id="path4902"
       d="m 322.84597,412.78199 a 1.8246159,1.8638808 0 0 1 1.8251,1.86392 1.8246159,1.8638808 0 0 1 -1.8251,1.86392 1.8246159,1.8638808 0 0 1 -1.82442,-1.86392 1.8246159,1.8638808 0 0 1 1.82442,-1.86392 z"
       style="opacity:1;fill:#1a1a1a;fill-opacity:1;stroke:none;stroke-width:5;stroke-linecap:butt;stroke-linejoin:round;stroke-miterlimit:4;stroke-dasharray:none;stroke-dashoffset:0;stroke-opacity:1"
       inkscape:connector-curvature="0" />
    <path
       id="path4904"
       d="m 331.79751,412.78199 a 1.8246159,1.8638808 0 0 1 1.82509,1.86392 1.8246159,1.8638808 0 0 1 -1.82509,1.86392 1.8246159,1.8638808 0 0 1 -1.82443,-1.86392 1.8246159,1.8638808 0 0 1 1.82443,-1.86392 z"
       style="opacity:1;fill:#1a1a1a;fill-opacity:1;stroke:none;stroke-width:5;stroke-linecap:butt;stroke-linejoin:round;stroke-miterlimit:4;stroke-dasharray:none;stroke-dashoffset:0;stroke-opacity:1"
       inkscape:connector-curvature="0" />
    <path
       id="path3714"
       d="m 142.85718,381.64795 255,0 0,110 -255,0 z"
       style="opacity:1;fill:none;fill-opacity:1;stroke:none;stroke-width:5;stroke-linecap:butt;stroke-linejoin:round;stroke-miterlimit:4;stroke-dasharray:none;stroke-dashoffset:0;stroke-opacity:1" />
    <path
       id="path3716"
       d="m 175.04838,450.99002 48.9251,0 c 1.15266,0 2.08061,0.92795 2.08061,2.08061 l 0,23.42405 c 0,1.15266 -0.92795,2.08061 -2.08061,2.08061 l -48.9251,0 c -1.15265,0 -2.08061,-0.92795 -2.08061,-2.08061 l 0,-23.42405 c 0,-1.15266 0.92796,-2.08061 2.08061,-2.08061 z"
       style="opacity:1;fill:#ff2650;fill-opacity:1;stroke:none;stroke-width:5;stroke-linecap:butt;stroke-linejoin:round;stroke-miterlimit:4;stroke-dasharray:none;stroke-dashoffset:0;stroke-opacity:1" />
    <path
       d="m 185.43806,441.42455 q -0.82971,0 -1.32,0.61852 -0.48651,0.61851 -0.48651,1.68582 0,1.06355 0.48651,1.68206 0.49029,0.61851 1.32,0.61851 0.82971,0 1.31245,-0.61851 0.48652,-0.61851 0.48652,-1.68206 0,-1.06731 -0.48652,-1.68582 -0.48274,-0.61852 -1.31245,-0.61852 z m 0,-0.61851 q 1.18423,0 1.89326,0.79577 0.70902,0.792 0.70902,2.12708 0,1.33132 -0.70902,2.12708 -0.70903,0.792 -1.89326,0.792 -1.188,0 -1.9008,-0.792 -0.70903,-0.79199 -0.70903,-2.12708 0,-1.33508 0.70903,-2.12708 0.7128,-0.79577 1.9008,-0.79577 z"
       id="path3718"
       inkscape:connector-curvature="0"
       style="font-style:normal;font-variant:normal;font-weight:500;font-stretch:normal;font-size:medium;line-height:125%;font-family:Roboto;-inkscape-font-specification:'Roboto, Medium';text-align:center;letter-spacing:0px;word-spacing:0px;writing-mode:lr-tb;text-anchor:middle;fill:#ff2650;fill-opacity:1;stroke:none;stroke-width:1px;stroke-linecap:butt;stroke-linejoin:miter;stroke-opacity:1" />
    <path
       d="m 192.23417,444.43038 q 0,-0.7656 -0.31681,-1.19931 -0.31302,-0.43749 -0.86365,-0.43749 -0.55063,0 -0.86743,0.43749 -0.31303,0.43371 -0.31303,1.19931 0,0.76559 0.31303,1.20308 0.3168,0.43372 0.86743,0.43372 0.55063,0 0.86365,-0.43372 0.31681,-0.43749 0.31681,-1.20308 z m -2.36092,-1.47463 q 0.21875,-0.37714 0.55063,-0.55817 0.33566,-0.1848 0.79954,-0.1848 0.76937,0 1.24834,0.61097 0.48275,0.61097 0.48275,1.60663 0,0.99565 -0.48275,1.60663 -0.47897,0.61096 -1.24834,0.61096 -0.46388,0 -0.79954,-0.18102 -0.33188,-0.1848 -0.55063,-0.56195 l 0,0.6336 -0.69771,0 0,-5.86833 0.69771,0 0,2.28548 z"
       id="path3720"
       inkscape:connector-curvature="0"
       style="font-style:normal;font-variant:normal;font-weight:500;font-stretch:normal;font-size:medium;line-height:125%;font-family:Roboto;-inkscape-font-specification:'Roboto, Medium';text-align:center;letter-spacing:0px;word-spacing:0px;writing-mode:lr-tb;text-anchor:middle;fill:#ff2650;fill-opacity:1;stroke:none;stroke-width:1px;stroke-linecap:butt;stroke-linejoin:miter;stroke-opacity:1" />
    <path
       d="m 194.10479,442.31461 0.69394,0 0,4.29942 q 0,0.80709 -0.30925,1.16914 -0.30549,0.36206 -0.98812,0.36206 l -0.264,0 0,-0.58834 0.1848,0 q 0.396,0 0.53932,-0.1848 0.14331,-0.18103 0.14331,-0.75806 l 0,-4.29942 z m 0,-1.64434 0.69394,0 0,0.87874 -0.69394,0 0,-0.87874 z"
       id="path3722"
       inkscape:connector-curvature="0"
       style="font-style:normal;font-variant:normal;font-weight:500;font-stretch:normal;font-size:medium;line-height:125%;font-family:Roboto;-inkscape-font-specification:'Roboto, Medium';text-align:center;letter-spacing:0px;word-spacing:0px;writing-mode:lr-tb;text-anchor:middle;fill:#ff2650;fill-opacity:1;stroke:none;stroke-width:1px;stroke-linecap:butt;stroke-linejoin:miter;stroke-opacity:1" />
    <path
       d="m 199.85998,444.25312 0,0.33943 -3.19062,0 q 0.0453,0.71657 0.42994,1.09371 0.38846,0.37337 1.07863,0.37337 0.39977,0 0.77314,-0.0981 0.37714,-0.0981 0.74674,-0.29417 l 0,0.65622 q -0.37337,0.1584 -0.7656,0.24137 -0.39222,0.083 -0.79577,0.083 -1.01074,0 -1.60285,-0.58834 -0.58834,-0.58834 -0.58834,-1.59154 0,-1.03714 0.55817,-1.64434 0.56194,-0.61097 1.51234,-0.61097 0.85234,0 1.3464,0.55063 0.49782,0.54685 0.49782,1.48971 z m -0.69394,-0.20366 q -0.008,-0.56948 -0.32057,-0.90891 -0.30926,-0.33943 -0.82217,-0.33943 -0.5808,0 -0.93154,0.32812 -0.34697,0.32811 -0.39977,0.924 l 2.47405,-0.004 z"
       id="path3724"
       inkscape:connector-curvature="0"
       style="font-style:normal;font-variant:normal;font-weight:500;font-stretch:normal;font-size:medium;line-height:125%;font-family:Roboto;-inkscape-font-specification:'Roboto, Medium';text-align:center;letter-spacing:0px;word-spacing:0px;writing-mode:lr-tb;text-anchor:middle;fill:#ff2650;fill-opacity:1;stroke:none;stroke-width:1px;stroke-linecap:butt;stroke-linejoin:miter;stroke-opacity:1" />
    <path
       d="m 201.68535,441.1153 0,1.19931 1.42937,0 0,0.53931 -1.42937,0 0,2.29303 q 0,0.51668 0.13955,0.66377 0.14331,0.14708 0.57702,0.14708 l 0.7128,0 0,0.5808 -0.7128,0 q -0.80331,0 -1.10879,-0.29794 -0.30549,-0.30171 -0.30549,-1.09371 l 0,-2.29303 -0.50914,0 0,-0.53931 0.50914,0 0,-1.19931 0.69771,0 z"
       id="path3726"
       inkscape:connector-curvature="0"
       style="font-style:normal;font-variant:normal;font-weight:500;font-stretch:normal;font-size:medium;line-height:125%;font-family:Roboto;-inkscape-font-specification:'Roboto, Medium';text-align:center;letter-spacing:0px;word-spacing:0px;writing-mode:lr-tb;text-anchor:middle;fill:#ff2650;fill-opacity:1;stroke:none;stroke-width:1px;stroke-linecap:butt;stroke-linejoin:miter;stroke-opacity:1" />
    <path
       d="m 205.66798,442.80112 q -0.55817,0 -0.88252,0.43749 -0.32434,0.43371 -0.32434,1.19177 0,0.75805 0.32057,1.19554 0.32434,0.43371 0.88629,0.43371 0.5544,0 0.87874,-0.43748 0.32434,-0.43749 0.32434,-1.19177 0,-0.75052 -0.32434,-1.188 -0.32434,-0.44126 -0.87874,-0.44126 z m 0,-0.58834 q 0.90514,0 1.42182,0.58834 0.51669,0.58834 0.51669,1.62926 0,1.03714 -0.51669,1.62925 -0.51668,0.58834 -1.42182,0.58834 -0.90892,0 -1.4256,-0.58834 -0.51292,-0.59211 -0.51292,-1.62925 0,-1.04092 0.51292,-1.62926 0.51668,-0.58834 1.4256,-0.58834 z"
       id="path3728"
       inkscape:connector-curvature="0"
       style="font-style:normal;font-variant:normal;font-weight:500;font-stretch:normal;font-size:medium;line-height:125%;font-family:Roboto;-inkscape-font-specification:'Roboto, Medium';text-align:center;letter-spacing:0px;word-spacing:0px;writing-mode:lr-tb;text-anchor:middle;fill:#ff2650;fill-opacity:1;stroke:none;stroke-width:1px;stroke-linecap:butt;stroke-linejoin:miter;stroke-opacity:1" />
    <path
       d="m 213.12408,441.65838 -1.03337,2.80217 2.07051,0 -1.03714,-2.80217 z m -0.42994,-0.75051 0.86365,0 2.14594,5.63073 -0.79199,0 -0.51292,-1.44445 -2.53817,0 -0.51291,1.44445 -0.80331,0 2.14971,-5.63073 z"
       id="path3730"
       inkscape:connector-curvature="0"
       style="font-style:normal;font-variant:normal;font-weight:500;font-stretch:normal;font-size:medium;line-height:125%;font-family:Roboto;-inkscape-font-specification:'Roboto, Medium';text-align:center;letter-spacing:0px;word-spacing:0px;writing-mode:lr-tb;text-anchor:middle;fill:#ff2650;fill-opacity:1;stroke:none;stroke-width:1px;stroke-linecap:butt;stroke-linejoin:miter;stroke-opacity:1" />
    <path
       id="path3732"
       d="m 226.05406,464.04578 38.09931,0 0,1.47376 -38.09931,0 z"
       style="opacity:1;fill:#ff2650;fill-opacity:1;stroke:none;stroke-width:5;stroke-linecap:butt;stroke-linejoin:round;stroke-miterlimit:4;stroke-dasharray:none;stroke-dashoffset:0;stroke-opacity:1" />
    <path
       id="path3734"
       d="m 458.18567,-264.15338 7.33387,0 0,1.47376 -7.33387,0 z"
       style="opacity:1;fill:#ff2650;fill-opacity:1;stroke:none;stroke-width:5;stroke-linecap:butt;stroke-linejoin:round;stroke-miterlimit:4;stroke-dasharray:none;stroke-dashoffset:0;stroke-opacity:1"
       transform="matrix(0,1,-1,0,0,0)" />
    <path
       id="path3736"
       d="m 265.46325,458.83959 -4.09349,0 2.04674,-3.54507 z"
       inkscape:transform-center-y="-1.7211564"
       style="opacity:1;fill:#ff2650;fill-opacity:1;stroke:none;stroke-width:5;stroke-linecap:butt;stroke-linejoin:round;stroke-miterlimit:4;stroke-dasharray:none;stroke-dashoffset:0;stroke-opacity:1" />
    <path
       d="m 233.62604,468.33622 1.36642,0 q 0.60943,0 0.93446,0.27158 0.32718,0.26943 0.32718,0.76981 0,0.50252 -0.32718,0.77409 -0.32503,0.26943 -0.93446,0.26943 l -0.54315,0 0,1.10768 -0.82327,0 0,-3.19259 z m 0.82327,0.59661 0,0.8917 0.45547,0 q 0.2395,0 0.36994,-0.11547 0.13044,-0.11761 0.13044,-0.33145 0,-0.21384 -0.13044,-0.32931 -0.13044,-0.11547 -0.36994,-0.11547 l -0.45547,0 z"
       style="font-style:normal;font-variant:normal;font-weight:bold;font-stretch:normal;font-size:12.75732899px;line-height:125%;font-family:Roboto;-inkscape-font-specification:'Roboto Bold';text-align:start;letter-spacing:0px;word-spacing:0px;writing-mode:lr-tb;text-anchor:start;fill:#ff2650;fill-opacity:1;stroke:none;stroke-width:1px;stroke-linecap:butt;stroke-linejoin:miter;stroke-opacity:1"
       id="path3738"
       inkscape:connector-curvature="0" />
    <path
       d="m 238.00328,469.75182 q 0.25874,0 0.36994,-0.0962 0.11333,-0.0962 0.11333,-0.31648 0,-0.21811 -0.11333,-0.3122 -0.1112,-0.0941 -0.36994,-0.0941 l -0.34642,0 0,0.81899 0.34642,0 z m -0.34642,0.56881 0,1.20818 -0.82327,0 0,-3.19259 1.25736,0 q 0.63082,0 0.92378,0.2117 0.29509,0.2117 0.29509,0.66931 0,0.31648 -0.15396,0.51963 -0.15182,0.20314 -0.45975,0.29937 0.16893,0.0385 0.30151,0.17534 0.13472,0.13472 0.27157,0.41057 l 0.44692,0.90667 -0.87673,0 -0.38918,-0.79334 q -0.11761,-0.23949 -0.2395,-0.32717 -0.11975,-0.0877 -0.32075,-0.0877 l -0.23309,0 z"
       style="font-style:normal;font-variant:normal;font-weight:bold;font-stretch:normal;font-size:12.75732899px;line-height:125%;font-family:Roboto;-inkscape-font-specification:'Roboto Bold';text-align:start;letter-spacing:0px;word-spacing:0px;writing-mode:lr-tb;text-anchor:start;fill:#ff2650;fill-opacity:1;stroke:none;stroke-width:1px;stroke-linecap:butt;stroke-linejoin:miter;stroke-opacity:1"
       id="path3740"
       inkscape:connector-curvature="0" />
    <path
       d="m 241.66203,468.87509 q -0.37635,0 -0.58378,0.27799 -0.20742,0.27799 -0.20742,0.78264 0,0.50252 0.20742,0.78051 0.20743,0.27798 0.58378,0.27798 0.37849,0 0.58591,-0.27798 0.20742,-0.27799 0.20742,-0.78051 0,-0.50465 -0.20742,-0.78264 -0.20742,-0.27799 -0.58591,-0.27799 z m 0,-0.5966 q 0.76981,0 1.20604,0.4405 0.43622,0.44051 0.43622,1.21673 0,0.77409 -0.43622,1.2146 -0.43623,0.4405 -1.20604,0.4405 -0.76768,0 -1.20604,-0.4405 -0.43623,-0.44051 -0.43623,-1.2146 0,-0.77622 0.43623,-1.21673 0.43836,-0.4405 1.20604,-0.4405 z"
       style="font-style:normal;font-variant:normal;font-weight:bold;font-stretch:normal;font-size:12.75732899px;line-height:125%;font-family:Roboto;-inkscape-font-specification:'Roboto Bold';text-align:start;letter-spacing:0px;word-spacing:0px;writing-mode:lr-tb;text-anchor:start;fill:#ff2650;fill-opacity:1;stroke:none;stroke-width:1px;stroke-linecap:butt;stroke-linejoin:miter;stroke-opacity:1"
       id="path3742"
       inkscape:connector-curvature="0" />
    <path
       d="m 243.54379,468.33622 2.9424,0 0,0.62227 -1.0585,0 0,2.57032 -0.82327,0 0,-2.57032 -1.06063,0 0,-0.62227 z"
       style="font-style:normal;font-variant:normal;font-weight:bold;font-stretch:normal;font-size:12.75732899px;line-height:125%;font-family:Roboto;-inkscape-font-specification:'Roboto Bold';text-align:start;letter-spacing:0px;word-spacing:0px;writing-mode:lr-tb;text-anchor:start;fill:#ff2650;fill-opacity:1;stroke:none;stroke-width:1px;stroke-linecap:butt;stroke-linejoin:miter;stroke-opacity:1"
       id="path3744"
       inkscape:connector-curvature="0" />
    <path
       d="m 248.36795,468.87509 q -0.37635,0 -0.58377,0.27799 -0.20743,0.27799 -0.20743,0.78264 0,0.50252 0.20743,0.78051 0.20742,0.27798 0.58377,0.27798 0.37849,0 0.58592,-0.27798 0.20742,-0.27799 0.20742,-0.78051 0,-0.50465 -0.20742,-0.78264 -0.20743,-0.27799 -0.58592,-0.27799 z m 0,-0.5966 q 0.76981,0 1.20604,0.4405 0.43623,0.44051 0.43623,1.21673 0,0.77409 -0.43623,1.2146 -0.43623,0.4405 -1.20604,0.4405 -0.76767,0 -1.20604,-0.4405 -0.43622,-0.44051 -0.43622,-1.2146 0,-0.77622 0.43622,-1.21673 0.43837,-0.4405 1.20604,-0.4405 z m 0.0577,-0.81044 0.60516,0 -0.60944,0.56453 -0.41912,0 0.4234,-0.56453 z"
       style="font-style:normal;font-variant:normal;font-weight:bold;font-stretch:normal;font-size:12.75732899px;line-height:125%;font-family:Roboto;-inkscape-font-specification:'Roboto Bold';text-align:start;letter-spacing:0px;word-spacing:0px;writing-mode:lr-tb;text-anchor:start;fill:#ff2650;fill-opacity:1;stroke:none;stroke-width:1px;stroke-linecap:butt;stroke-linejoin:miter;stroke-opacity:1"
       id="path3746"
       inkscape:connector-curvature="0" />
    <path
       d="m 250.24972,468.33622 2.94239,0 0,0.62227 -1.05849,0 0,2.57032 -0.82328,0 0,-2.57032 -1.06062,0 0,-0.62227 z"
       style="font-style:normal;font-variant:normal;font-weight:bold;font-stretch:normal;font-size:12.75732899px;line-height:125%;font-family:Roboto;-inkscape-font-specification:'Roboto Bold';text-align:start;letter-spacing:0px;word-spacing:0px;writing-mode:lr-tb;text-anchor:start;fill:#ff2650;fill-opacity:1;stroke:none;stroke-width:1px;stroke-linecap:butt;stroke-linejoin:miter;stroke-opacity:1"
       id="path3748"
       inkscape:connector-curvature="0" />
    <path
       d="m 253.61551,468.33622 0.82327,0 0,3.19259 -0.82327,0 0,-3.19259 z"
       style="font-style:normal;font-variant:normal;font-weight:bold;font-stretch:normal;font-size:12.75732899px;line-height:125%;font-family:Roboto;-inkscape-font-specification:'Roboto Bold';text-align:start;letter-spacing:0px;word-spacing:0px;writing-mode:lr-tb;text-anchor:start;fill:#ff2650;fill-opacity:1;stroke:none;stroke-width:1px;stroke-linecap:butt;stroke-linejoin:miter;stroke-opacity:1"
       id="path3750"
       inkscape:connector-curvature="0" />
    <path
       d="m 255.24922,468.33622 1.36642,0 q 0.60943,0 0.93447,0.27158 0.32717,0.26943 0.32717,0.76981 0,0.50252 -0.32717,0.77409 -0.32504,0.26943 -0.93447,0.26943 l -0.54315,0 0,1.10768 -0.82327,0 0,-3.19259 z m 0.82327,0.59661 0,0.8917 0.45547,0 q 0.2395,0 0.36994,-0.11547 0.13044,-0.11761 0.13044,-0.33145 0,-0.21384 -0.13044,-0.32931 -0.13044,-0.11547 -0.36994,-0.11547 l -0.45547,0 z"
       style="font-style:normal;font-variant:normal;font-weight:bold;font-stretch:normal;font-size:12.75732899px;line-height:125%;font-family:Roboto;-inkscape-font-specification:'Roboto Bold';text-align:start;letter-spacing:0px;word-spacing:0px;writing-mode:lr-tb;text-anchor:start;fill:#ff2650;fill-opacity:1;stroke:none;stroke-width:1px;stroke-linecap:butt;stroke-linejoin:miter;stroke-opacity:1"
       id="path3752"
       inkscape:connector-curvature="0" />
    <path
       d="m 259.91514,468.87509 q -0.37635,0 -0.58377,0.27799 -0.20743,0.27799 -0.20743,0.78264 0,0.50252 0.20743,0.78051 0.20742,0.27798 0.58377,0.27798 0.37849,0 0.58592,-0.27798 0.20741,-0.27799 0.20741,-0.78051 0,-0.50465 -0.20741,-0.78264 -0.20743,-0.27799 -0.58592,-0.27799 z m 0,-0.5966 q 0.76981,0 1.20604,0.4405 0.43623,0.44051 0.43623,1.21673 0,0.77409 -0.43623,1.2146 -0.43623,0.4405 -1.20604,0.4405 -0.76767,0 -1.20604,-0.4405 -0.43622,-0.44051 -0.43622,-1.2146 0,-0.77622 0.43622,-1.21673 0.43837,-0.4405 1.20604,-0.4405 z"
       style="font-style:normal;font-variant:normal;font-weight:bold;font-stretch:normal;font-size:12.75732899px;line-height:125%;font-family:Roboto;-inkscape-font-specification:'Roboto Bold';text-align:start;letter-spacing:0px;word-spacing:0px;writing-mode:lr-tb;text-anchor:start;fill:#ff2650;fill-opacity:1;stroke:none;stroke-width:1px;stroke-linecap:butt;stroke-linejoin:miter;stroke-opacity:1"
       id="path3754"
       inkscape:connector-curvature="0" />
    <path
       id="path3756"
       d="m 193.66168,458.73682 a 1.8246159,1.8638808 0 0 1 1.82509,1.86393 1.8246159,1.8638808 0 0 1 -1.82509,1.86391 1.8246159,1.8638808 0 0 1 -1.82442,-1.86391 1.8246159,1.8638808 0 0 1 1.82442,-1.86393 z"
       style="opacity:1;fill:#1a1a1a;fill-opacity:1;stroke:none;stroke-width:5;stroke-linecap:butt;stroke-linejoin:round;stroke-miterlimit:4;stroke-dasharray:none;stroke-dashoffset:0;stroke-opacity:1"
       inkscape:connector-curvature="0" />
    <path
       id="path3758"
       d="m 205.35948,458.73682 a 1.8246159,1.8638808 0 0 1 1.82509,1.86393 1.8246159,1.8638808 0 0 1 -1.82509,1.86391 1.8246159,1.8638808 0 0 1 -1.82442,-1.86391 1.8246159,1.8638808 0 0 1 1.82442,-1.86393 z"
       style="opacity:1;fill:#1a1a1a;fill-opacity:1;stroke:none;stroke-width:5;stroke-linecap:butt;stroke-linejoin:round;stroke-miterlimit:4;stroke-dasharray:none;stroke-dashoffset:0;stroke-opacity:1"
       inkscape:connector-curvature="0" />
    <path
       id="path3760"
       d="m 194.64525,-465.97372 c 0,-2.68121 2.17842,-4.85476 4.86564,-4.85476 2.68722,0 4.86565,2.17355 4.86565,4.85476 l -4.86565,0 z"
       style="opacity:1;fill:#1a1a1a;fill-opacity:1;stroke:none;stroke-width:5;stroke-linecap:butt;stroke-linejoin:round;stroke-miterlimit:4;stroke-dasharray:none;stroke-dashoffset:0;stroke-opacity:1"
       transform="scale(1,-1)"
       inkscape:connector-curvature="0"
       sodipodi:nodetypes="czccc" />
    <path
       id="path3762"
       d="m 239.12733,427.64676 48.57833,0 c 1.24871,0 2.25399,1.00528 2.25399,2.25399 l 0,23.07728 c 0,1.24872 -1.00528,2.254 -2.25399,2.254 l -48.57833,0 c -1.24871,0 -2.25399,-1.00528 -2.25399,-2.254 l 0,-23.07728 c 0,-1.24871 1.00528,-2.25399 2.25399,-2.25399 z"
       style="opacity:1;fill:#ff6433;fill-opacity:1;stroke:none;stroke-width:5;stroke-linecap:butt;stroke-linejoin:round;stroke-miterlimit:4;stroke-dasharray:none;stroke-dashoffset:0;stroke-opacity:1" />
    <path
       d="m 249.33611,418.08129 q -0.82971,0 -1.31999,0.61851 -0.48652,0.61851 -0.48652,1.68583 0,1.06354 0.48652,1.68205 0.49028,0.61851 1.31999,0.61851 0.82971,0 1.31246,-0.61851 0.48651,-0.61851 0.48651,-1.68205 0,-1.06732 -0.48651,-1.68583 -0.48275,-0.61851 -1.31246,-0.61851 z m 0,-0.61852 q 1.18423,0 1.89326,0.79577 0.70903,0.792 0.70903,2.12709 0,1.33131 -0.70903,2.12708 -0.70903,0.792 -1.89326,0.792 -1.188,0 -1.9008,-0.792 -0.70902,-0.792 -0.70902,-2.12708 0,-1.33509 0.70902,-2.12709 0.7128,-0.79577 1.9008,-0.79577 z"
       id="path3764"
       inkscape:connector-curvature="0"
       style="font-style:normal;font-variant:normal;font-weight:500;font-stretch:normal;font-size:medium;line-height:125%;font-family:Roboto;-inkscape-font-specification:'Roboto, Medium';text-align:center;letter-spacing:0px;word-spacing:0px;writing-mode:lr-tb;text-anchor:middle;fill:#ff6433;fill-opacity:1;stroke:none;stroke-width:1px;stroke-linecap:butt;stroke-linejoin:miter;stroke-opacity:1" />
    <path
       d="m 256.13222,421.08711 q 0,-0.7656 -0.3168,-1.19931 -0.31303,-0.43749 -0.86366,-0.43749 -0.55063,0 -0.86742,0.43749 -0.31303,0.43371 -0.31303,1.19931 0,0.7656 0.31303,1.20309 0.31679,0.43371 0.86742,0.43371 0.55063,0 0.86366,-0.43371 0.3168,-0.43749 0.3168,-1.20309 z m -2.36091,-1.47462 q 0.21874,-0.37715 0.55063,-0.55818 0.33565,-0.1848 0.79954,-0.1848 0.76937,0 1.24834,0.61097 0.48274,0.61098 0.48274,1.60663 0,0.99566 -0.48274,1.60663 -0.47897,0.61097 -1.24834,0.61097 -0.46389,0 -0.79954,-0.18103 -0.33189,-0.1848 -0.55063,-0.56194 l 0,0.6336 -0.69772,0 0,-5.86834 0.69772,0 0,2.28549 z"
       id="path3766"
       inkscape:connector-curvature="0"
       style="font-style:normal;font-variant:normal;font-weight:500;font-stretch:normal;font-size:medium;line-height:125%;font-family:Roboto;-inkscape-font-specification:'Roboto, Medium';text-align:center;letter-spacing:0px;word-spacing:0px;writing-mode:lr-tb;text-anchor:middle;fill:#ff6433;fill-opacity:1;stroke:none;stroke-width:1px;stroke-linecap:butt;stroke-linejoin:miter;stroke-opacity:1" />
    <path
       d="m 258.00284,418.97134 0.69395,0 0,4.29942 q 0,0.80709 -0.30926,1.16915 -0.30549,0.36205 -0.98811,0.36205 l -0.264,0 0,-0.58834 0.1848,0 q 0.39599,0 0.53931,-0.1848 0.14331,-0.18103 0.14331,-0.75806 l 0,-4.29942 z m 0,-1.64434 0.69395,0 0,0.87875 -0.69395,0 0,-0.87875 z"
       id="path3768"
       inkscape:connector-curvature="0"
       style="font-style:normal;font-variant:normal;font-weight:500;font-stretch:normal;font-size:medium;line-height:125%;font-family:Roboto;-inkscape-font-specification:'Roboto, Medium';text-align:center;letter-spacing:0px;word-spacing:0px;writing-mode:lr-tb;text-anchor:middle;fill:#ff6433;fill-opacity:1;stroke:none;stroke-width:1px;stroke-linecap:butt;stroke-linejoin:miter;stroke-opacity:1" />
    <path
       d="m 263.75804,420.90985 0,0.33943 -3.19063,0 q 0.0453,0.71657 0.42994,1.09372 0.38846,0.37336 1.07863,0.37336 0.39977,0 0.77314,-0.0981 0.37715,-0.0981 0.74674,-0.29417 l 0,0.65623 q -0.37337,0.15839 -0.7656,0.24137 -0.39222,0.083 -0.79576,0.083 -1.01075,0 -1.60286,-0.58835 -0.58834,-0.58833 -0.58834,-1.59154 0,-1.03714 0.55817,-1.64434 0.56194,-0.61097 1.51234,-0.61097 0.85234,0 1.3464,0.55063 0.49783,0.54686 0.49783,1.48971 z m -0.69395,-0.20365 q -0.008,-0.56949 -0.32057,-0.90891 -0.30925,-0.33943 -0.82217,-0.33943 -0.5808,0 -0.93154,0.32811 -0.34697,0.32811 -0.39977,0.924 l 2.47405,-0.004 z"
       id="path3770"
       inkscape:connector-curvature="0"
       style="font-style:normal;font-variant:normal;font-weight:500;font-stretch:normal;font-size:medium;line-height:125%;font-family:Roboto;-inkscape-font-specification:'Roboto, Medium';text-align:center;letter-spacing:0px;word-spacing:0px;writing-mode:lr-tb;text-anchor:middle;fill:#ff6433;fill-opacity:1;stroke:none;stroke-width:1px;stroke-linecap:butt;stroke-linejoin:miter;stroke-opacity:1" />
    <path
       d="m 265.5834,417.77203 0,1.19931 1.42937,0 0,0.53931 -1.42937,0 0,2.29303 q 0,0.51669 0.13955,0.66377 0.14331,0.14709 0.57703,0.14709 l 0.71279,0 0,0.5808 -0.71279,0 q -0.80332,0 -1.1088,-0.29794 -0.30549,-0.30172 -0.30549,-1.09372 l 0,-2.29303 -0.50914,0 0,-0.53931 0.50914,0 0,-1.19931 0.69771,0 z"
       id="path3772"
       inkscape:connector-curvature="0"
       style="font-style:normal;font-variant:normal;font-weight:500;font-stretch:normal;font-size:medium;line-height:125%;font-family:Roboto;-inkscape-font-specification:'Roboto, Medium';text-align:center;letter-spacing:0px;word-spacing:0px;writing-mode:lr-tb;text-anchor:middle;fill:#ff6433;fill-opacity:1;stroke:none;stroke-width:1px;stroke-linecap:butt;stroke-linejoin:miter;stroke-opacity:1" />
    <path
       d="m 269.56603,419.45786 q -0.55817,0 -0.88251,0.43748 -0.32435,0.43372 -0.32435,1.19177 0,0.75806 0.32057,1.19554 0.32434,0.43371 0.88629,0.43371 0.5544,0 0.87874,-0.43748 0.32434,-0.43748 0.32434,-1.19177 0,-0.75051 -0.32434,-1.188 -0.32434,-0.44125 -0.87874,-0.44125 z m 0,-0.58835 q 0.90514,0 1.42182,0.58835 0.51669,0.58834 0.51669,1.62925 0,1.03714 -0.51669,1.62925 -0.51668,0.58835 -1.42182,0.58835 -0.90892,0 -1.4256,-0.58835 -0.51292,-0.59211 -0.51292,-1.62925 0,-1.04091 0.51292,-1.62925 0.51668,-0.58835 1.4256,-0.58835 z"
       id="path3774"
       inkscape:connector-curvature="0"
       style="font-style:normal;font-variant:normal;font-weight:500;font-stretch:normal;font-size:medium;line-height:125%;font-family:Roboto;-inkscape-font-specification:'Roboto, Medium';text-align:center;letter-spacing:0px;word-spacing:0px;writing-mode:lr-tb;text-anchor:middle;fill:#ff6433;fill-opacity:1;stroke:none;stroke-width:1px;stroke-linecap:butt;stroke-linejoin:miter;stroke-opacity:1" />
    <path
       d="m 275.90202,420.50631 0,2.06297 1.22194,0 q 0.61474,0 0.90891,-0.25269 0.29794,-0.25645 0.29794,-0.78068 0,-0.528 -0.29794,-0.77691 -0.29417,-0.25269 -0.90891,-0.25269 l -1.22194,0 z m 0,-2.31565 0,1.69714 1.12765,0 q 0.55818,0 0.82972,-0.20743 0.27531,-0.2112 0.27531,-0.64114 0,-0.42617 -0.27531,-0.63737 -0.27154,-0.2112 -0.82972,-0.2112 l -1.12765,0 z m -0.76183,-0.62606 1.94605,0 q 0.87121,0 1.34263,0.36206 0.47143,0.36205 0.47143,1.0296 0,0.51668 -0.24137,0.82217 -0.24137,0.30548 -0.70903,0.38091 0.56194,0.12069 0.8712,0.50537 0.31303,0.38092 0.31303,0.95417 0,0.75429 -0.51292,1.16537 -0.51291,0.41109 -1.45954,0.41109 l -2.02148,0 0,-5.63074 z"
       id="path3776"
       inkscape:connector-curvature="0"
       style="font-style:normal;font-variant:normal;font-weight:500;font-stretch:normal;font-size:medium;line-height:125%;font-family:Roboto;-inkscape-font-specification:'Roboto, Medium';text-align:center;letter-spacing:0px;word-spacing:0px;writing-mode:lr-tb;text-anchor:middle;fill:#ff6433;fill-opacity:1;stroke:none;stroke-width:1px;stroke-linecap:butt;stroke-linejoin:miter;stroke-opacity:1" />
    <path
       id="path3778"
       d="m 289.95966,441.43939 38.0993,0 0,1.47377 -38.0993,0 z"
       style="opacity:1;fill:#ff6433;fill-opacity:1;stroke:none;stroke-width:5;stroke-linecap:butt;stroke-linejoin:round;stroke-miterlimit:4;stroke-dasharray:none;stroke-dashoffset:0;stroke-opacity:1" />
    <path
       id="path3780"
       d="m 435.57928,-328.05896 7.33387,0 0,1.47377 -7.33387,0 z"
       style="opacity:1;fill:#ff6433;fill-opacity:1;stroke:none;stroke-width:5;stroke-linecap:butt;stroke-linejoin:round;stroke-miterlimit:4;stroke-dasharray:none;stroke-dashoffset:0;stroke-opacity:1"
       transform="matrix(0,1,-1,0,0,0)" />
    <path
       id="path3782"
       d="m 329.36883,436.2332 -4.09349,0 2.04674,-3.54506 z"
       inkscape:transform-center-y="-1.7211564"
       style="opacity:1;fill:#ff6433;fill-opacity:1;stroke:none;stroke-width:5;stroke-linecap:butt;stroke-linejoin:round;stroke-miterlimit:4;stroke-dasharray:none;stroke-dashoffset:0;stroke-opacity:1" />
    <path
       d="m 297.53161,445.72983 1.36642,0 q 0.60944,0 0.93447,0.27157 0.32717,0.26944 0.32717,0.76982 0,0.50251 -0.32717,0.77409 -0.32503,0.26943 -0.93447,0.26943 l -0.54315,0 0,1.10768 -0.82327,0 0,-3.19259 z m 0.82327,0.5966 0,0.89171 0.45548,0 q 0.23949,0 0.36994,-0.11548 0.13044,-0.11761 0.13044,-0.33144 0,-0.21384 -0.13044,-0.32931 -0.13045,-0.11548 -0.36994,-0.11548 l -0.45548,0 z"
       style="font-style:normal;font-variant:normal;font-weight:bold;font-stretch:normal;font-size:12.75732899px;line-height:125%;font-family:Roboto;-inkscape-font-specification:'Roboto Bold';text-align:start;letter-spacing:0px;word-spacing:0px;writing-mode:lr-tb;text-anchor:start;fill:#ff6433;fill-opacity:1;stroke:none;stroke-width:1px;stroke-linecap:butt;stroke-linejoin:miter;stroke-opacity:1"
       id="path3784"
       inkscape:connector-curvature="0" />
    <path
       d="m 301.90885,447.14543 q 0.25875,0 0.36994,-0.0962 0.11334,-0.0962 0.11334,-0.31647 0,-0.21812 -0.11334,-0.31221 -0.11119,-0.0941 -0.36994,-0.0941 l -0.34641,0 0,0.819 0.34641,0 z m -0.34641,0.56881 0,1.20818 -0.82327,0 0,-3.19259 1.25736,0 q 0.63081,0 0.92377,0.2117 0.2951,0.2117 0.2951,0.66931 0,0.31648 -0.15397,0.51962 -0.15182,0.20315 -0.45975,0.29937 0.16894,0.0385 0.30152,0.17535 0.13471,0.13472 0.27157,0.41057 l 0.44692,0.90667 -0.87673,0 -0.38919,-0.79334 q -0.11761,-0.2395 -0.2395,-0.32717 -0.11974,-0.0877 -0.32075,-0.0877 l -0.23308,0 z"
       style="font-style:normal;font-variant:normal;font-weight:bold;font-stretch:normal;font-size:12.75732899px;line-height:125%;font-family:Roboto;-inkscape-font-specification:'Roboto Bold';text-align:start;letter-spacing:0px;word-spacing:0px;writing-mode:lr-tb;text-anchor:start;fill:#ff6433;fill-opacity:1;stroke:none;stroke-width:1px;stroke-linecap:butt;stroke-linejoin:miter;stroke-opacity:1"
       id="path3786"
       inkscape:connector-curvature="0" />
    <path
       d="m 305.5676,446.2687 q -0.37635,0 -0.58377,0.27799 -0.20743,0.27799 -0.20743,0.78264 0,0.50252 0.20743,0.78051 0.20742,0.27798 0.58377,0.27798 0.37849,0 0.58592,-0.27798 0.20742,-0.27799 0.20742,-0.78051 0,-0.50465 -0.20742,-0.78264 -0.20743,-0.27799 -0.58592,-0.27799 z m 0,-0.5966 q 0.76982,0 1.20604,0.4405 0.43623,0.4405 0.43623,1.21673 0,0.77409 -0.43623,1.21459 -0.43622,0.44051 -1.20604,0.44051 -0.76767,0 -1.20604,-0.44051 -0.43622,-0.4405 -0.43622,-1.21459 0,-0.77623 0.43622,-1.21673 0.43837,-0.4405 1.20604,-0.4405 z"
       style="font-style:normal;font-variant:normal;font-weight:bold;font-stretch:normal;font-size:12.75732899px;line-height:125%;font-family:Roboto;-inkscape-font-specification:'Roboto Bold';text-align:start;letter-spacing:0px;word-spacing:0px;writing-mode:lr-tb;text-anchor:start;fill:#ff6433;fill-opacity:1;stroke:none;stroke-width:1px;stroke-linecap:butt;stroke-linejoin:miter;stroke-opacity:1"
       id="path3788"
       inkscape:connector-curvature="0" />
    <path
       d="m 307.44937,445.72983 2.94239,0 0,0.62226 -1.05849,0 0,2.57033 -0.82327,0 0,-2.57033 -1.06063,0 0,-0.62226 z"
       style="font-style:normal;font-variant:normal;font-weight:bold;font-stretch:normal;font-size:12.75732899px;line-height:125%;font-family:Roboto;-inkscape-font-specification:'Roboto Bold';text-align:start;letter-spacing:0px;word-spacing:0px;writing-mode:lr-tb;text-anchor:start;fill:#ff6433;fill-opacity:1;stroke:none;stroke-width:1px;stroke-linecap:butt;stroke-linejoin:miter;stroke-opacity:1"
       id="path3790"
       inkscape:connector-curvature="0" />
    <path
       d="m 312.27353,446.2687 q -0.37636,0 -0.58378,0.27799 -0.20742,0.27799 -0.20742,0.78264 0,0.50252 0.20742,0.78051 0.20742,0.27798 0.58378,0.27798 0.37849,0 0.58591,-0.27798 0.20742,-0.27799 0.20742,-0.78051 0,-0.50465 -0.20742,-0.78264 -0.20742,-0.27799 -0.58591,-0.27799 z m 0,-0.5966 q 0.76981,0 1.20603,0.4405 0.43623,0.4405 0.43623,1.21673 0,0.77409 -0.43623,1.21459 -0.43622,0.44051 -1.20603,0.44051 -0.76768,0 -1.20604,-0.44051 -0.43623,-0.4405 -0.43623,-1.21459 0,-0.77623 0.43623,-1.21673 0.43836,-0.4405 1.20604,-0.4405 z m 0.0577,-0.81045 0.60516,0 -0.60943,0.56453 -0.41913,0 0.4234,-0.56453 z"
       style="font-style:normal;font-variant:normal;font-weight:bold;font-stretch:normal;font-size:12.75732899px;line-height:125%;font-family:Roboto;-inkscape-font-specification:'Roboto Bold';text-align:start;letter-spacing:0px;word-spacing:0px;writing-mode:lr-tb;text-anchor:start;fill:#ff6433;fill-opacity:1;stroke:none;stroke-width:1px;stroke-linecap:butt;stroke-linejoin:miter;stroke-opacity:1"
       id="path3792"
       inkscape:connector-curvature="0" />
    <path
       d="m 314.15529,445.72983 2.94239,0 0,0.62226 -1.05849,0 0,2.57033 -0.82327,0 0,-2.57033 -1.06063,0 0,-0.62226 z"
       style="font-style:normal;font-variant:normal;font-weight:bold;font-stretch:normal;font-size:12.75732899px;line-height:125%;font-family:Roboto;-inkscape-font-specification:'Roboto Bold';text-align:start;letter-spacing:0px;word-spacing:0px;writing-mode:lr-tb;text-anchor:start;fill:#ff6433;fill-opacity:1;stroke:none;stroke-width:1px;stroke-linecap:butt;stroke-linejoin:miter;stroke-opacity:1"
       id="path3794"
       inkscape:connector-curvature="0" />
    <path
       d="m 317.52108,445.72983 0.82327,0 0,3.19259 -0.82327,0 0,-3.19259 z"
       style="font-style:normal;font-variant:normal;font-weight:bold;font-stretch:normal;font-size:12.75732899px;line-height:125%;font-family:Roboto;-inkscape-font-specification:'Roboto Bold';text-align:start;letter-spacing:0px;word-spacing:0px;writing-mode:lr-tb;text-anchor:start;fill:#ff6433;fill-opacity:1;stroke:none;stroke-width:1px;stroke-linecap:butt;stroke-linejoin:miter;stroke-opacity:1"
       id="path3796"
       inkscape:connector-curvature="0" />
    <path
       d="m 319.1548,445.72983 1.36641,0 q 0.60944,0 0.93447,0.27157 0.32717,0.26944 0.32717,0.76982 0,0.50251 -0.32717,0.77409 -0.32503,0.26943 -0.93447,0.26943 l -0.54315,0 0,1.10768 -0.82326,0 0,-3.19259 z m 0.82326,0.5966 0,0.89171 0.45548,0 q 0.23949,0 0.36994,-0.11548 0.13044,-0.11761 0.13044,-0.33144 0,-0.21384 -0.13044,-0.32931 -0.13045,-0.11548 -0.36994,-0.11548 l -0.45548,0 z"
       style="font-style:normal;font-variant:normal;font-weight:bold;font-stretch:normal;font-size:12.75732899px;line-height:125%;font-family:Roboto;-inkscape-font-specification:'Roboto Bold';text-align:start;letter-spacing:0px;word-spacing:0px;writing-mode:lr-tb;text-anchor:start;fill:#ff6433;fill-opacity:1;stroke:none;stroke-width:1px;stroke-linecap:butt;stroke-linejoin:miter;stroke-opacity:1"
       id="path3798"
       inkscape:connector-curvature="0" />
    <path
       d="m 323.82072,446.2687 q -0.37636,0 -0.58378,0.27799 -0.20742,0.27799 -0.20742,0.78264 0,0.50252 0.20742,0.78051 0.20742,0.27798 0.58378,0.27798 0.37849,0 0.58591,-0.27798 0.20742,-0.27799 0.20742,-0.78051 0,-0.50465 -0.20742,-0.78264 -0.20742,-0.27799 -0.58591,-0.27799 z m 0,-0.5966 q 0.76981,0 1.20603,0.4405 0.43623,0.4405 0.43623,1.21673 0,0.77409 -0.43623,1.21459 -0.43622,0.44051 -1.20603,0.44051 -0.76768,0 -1.20604,-0.44051 -0.43623,-0.4405 -0.43623,-1.21459 0,-0.77623 0.43623,-1.21673 0.43836,-0.4405 1.20604,-0.4405 z"
       style="font-style:normal;font-variant:normal;font-weight:bold;font-stretch:normal;font-size:12.75732899px;line-height:125%;font-family:Roboto;-inkscape-font-specification:'Roboto Bold';text-align:start;letter-spacing:0px;word-spacing:0px;writing-mode:lr-tb;text-anchor:start;fill:#ff6433;fill-opacity:1;stroke:none;stroke-width:1px;stroke-linecap:butt;stroke-linejoin:miter;stroke-opacity:1"
       id="path3800"
       inkscape:connector-curvature="0" />
    <path
       id="path3802"
       d="m 258.55086,-441.68027 c 0,-2.68121 2.17842,-4.85476 4.86564,-4.85476 2.68722,0 4.86565,2.17355 4.86565,4.85476 l -4.86565,0 z"
       style="opacity:1;fill:#1a1a1a;fill-opacity:1;stroke:none;stroke-width:5;stroke-linecap:butt;stroke-linejoin:round;stroke-miterlimit:4;stroke-dasharray:none;stroke-dashoffset:0;stroke-opacity:1"
       transform="scale(1,-1)"
       inkscape:connector-curvature="0"
       sodipodi:nodetypes="czccc" />
    <path
       id="path3804"
       d="m 255.75162,436.34372 3.64107,0 c 0.60034,0 1.08365,0.48331 1.08365,1.08365 0,0.60034 -0.48331,1.08365 -1.08365,1.08365 l -3.64107,0 c -0.60034,0 -1.08365,-0.48331 -1.08365,-1.08365 0,-0.60034 0.48331,-1.08365 1.08365,-1.08365 z"
       style="opacity:1;fill:#1a1a1a;fill-opacity:1;stroke:none;stroke-width:5;stroke-linecap:butt;stroke-linejoin:round;stroke-miterlimit:4;stroke-dasharray:none;stroke-dashoffset:0;stroke-opacity:1" />
    <path
       id="path3806"
       d="m 268.10981,436.34372 3.64106,0 c 0.60035,0 1.08366,0.48331 1.08366,1.08365 0,0.60034 -0.48331,1.08365 -1.08366,1.08365 l -3.64106,0 c -0.60035,0 -1.08366,-0.48331 -1.08366,-1.08365 0,-0.60034 0.48331,-1.08365 1.08366,-1.08365 z"
       style="opacity:1;fill:#1a1a1a;fill-opacity:1;stroke:none;stroke-width:5;stroke-linecap:butt;stroke-linejoin:round;stroke-miterlimit:4;stroke-dasharray:none;stroke-dashoffset:0;stroke-opacity:1" />
    <path
       id="path3808"
       d="m 303.03293,405.04037 48.57832,0 c 1.24871,0 2.254,1.00529 2.254,2.254 l 0,23.07728 c 0,1.24871 -1.00529,2.25399 -2.254,2.25399 l -48.57832,0 c -1.24872,0 -2.254,-1.00528 -2.254,-2.25399 l 0,-23.07728 c 0,-1.24871 1.00528,-2.254 2.254,-2.254 z"
       style="opacity:1;fill:#ffb934;fill-opacity:1;stroke:none;stroke-width:5;stroke-linecap:butt;stroke-linejoin:round;stroke-miterlimit:4;stroke-dasharray:none;stroke-dashoffset:0;stroke-opacity:1" />
    <path
       d="m 313.18886,395.4749 q -0.82971,0 -1.31999,0.61852 -0.48652,0.61851 -0.48652,1.68582 0,1.06354 0.48652,1.68206 0.49028,0.61851 1.31999,0.61851 0.82972,0 1.31246,-0.61851 0.48651,-0.61852 0.48651,-1.68206 0,-1.06731 -0.48651,-1.68582 -0.48274,-0.61852 -1.31246,-0.61852 z m 0,-0.61851 q 1.18423,0 1.89326,0.79577 0.70903,0.792 0.70903,2.12708 0,1.33132 -0.70903,2.12709 -0.70903,0.792 -1.89326,0.792 -1.18799,0 -1.90079,-0.792 -0.70903,-0.792 -0.70903,-2.12709 0,-1.33508 0.70903,-2.12708 0.7128,-0.79577 1.90079,-0.79577 z"
       id="path3810"
       inkscape:connector-curvature="0"
       style="font-style:normal;font-variant:normal;font-weight:500;font-stretch:normal;font-size:medium;line-height:125%;font-family:Roboto;-inkscape-font-specification:'Roboto, Medium';text-align:center;letter-spacing:0px;word-spacing:0px;writing-mode:lr-tb;text-anchor:middle;fill:#ffb934;fill-opacity:1;stroke:none;stroke-width:1px;stroke-linecap:butt;stroke-linejoin:miter;stroke-opacity:1" />
    <path
       d="m 319.98497,398.48073 q 0,-0.7656 -0.3168,-1.19932 -0.31303,-0.43748 -0.86365,-0.43748 -0.55063,0 -0.86743,0.43748 -0.31303,0.43372 -0.31303,1.19932 0,0.7656 0.31303,1.20308 0.3168,0.43372 0.86743,0.43372 0.55062,0 0.86365,-0.43372 0.3168,-0.43748 0.3168,-1.20308 z m -2.36091,-1.47463 q 0.21874,-0.37714 0.55063,-0.55817 0.33565,-0.1848 0.79954,-0.1848 0.76937,0 1.24834,0.61097 0.48274,0.61097 0.48274,1.60663 0,0.99566 -0.48274,1.60662 -0.47897,0.61098 -1.24834,0.61098 -0.46389,0 -0.79954,-0.18103 -0.33189,-0.1848 -0.55063,-0.56195 l 0,0.6336 -0.69772,0 0,-5.86833 0.69772,0 0,2.28548 z"
       id="path3812"
       inkscape:connector-curvature="0"
       style="font-style:normal;font-variant:normal;font-weight:500;font-stretch:normal;font-size:medium;line-height:125%;font-family:Roboto;-inkscape-font-specification:'Roboto, Medium';text-align:center;letter-spacing:0px;word-spacing:0px;writing-mode:lr-tb;text-anchor:middle;fill:#ffb934;fill-opacity:1;stroke:none;stroke-width:1px;stroke-linecap:butt;stroke-linejoin:miter;stroke-opacity:1" />
    <path
       d="m 321.8556,396.36496 0.69394,0 0,4.29942 q 0,0.80709 -0.30926,1.16914 -0.30548,0.36206 -0.98811,0.36206 l -0.264,0 0,-0.58834 0.1848,0 q 0.396,0 0.53931,-0.1848 0.14332,-0.18103 0.14332,-0.75806 l 0,-4.29942 z m 0,-1.64434 0.69394,0 0,0.87874 -0.69394,0 0,-0.87874 z"
       id="path3814"
       inkscape:connector-curvature="0"
       style="font-style:normal;font-variant:normal;font-weight:500;font-stretch:normal;font-size:medium;line-height:125%;font-family:Roboto;-inkscape-font-specification:'Roboto, Medium';text-align:center;letter-spacing:0px;word-spacing:0px;writing-mode:lr-tb;text-anchor:middle;fill:#ffb934;fill-opacity:1;stroke:none;stroke-width:1px;stroke-linecap:butt;stroke-linejoin:miter;stroke-opacity:1" />
    <path
       d="m 327.61079,398.30347 0,0.33943 -3.19063,0 q 0.0453,0.71657 0.42995,1.09371 0.38845,0.37337 1.07862,0.37337 0.39977,0 0.77315,-0.0981 0.37714,-0.0981 0.74674,-0.29418 l 0,0.65623 q -0.37338,0.1584 -0.7656,0.24137 -0.39223,0.083 -0.79577,0.083 -1.01075,0 -1.60286,-0.58835 -0.58834,-0.58834 -0.58834,-1.59154 0,-1.03714 0.55817,-1.64434 0.56194,-0.61097 1.51234,-0.61097 0.85234,0 1.3464,0.55063 0.49783,0.54686 0.49783,1.48971 z m -0.69394,-0.20365 q -0.008,-0.56949 -0.32057,-0.90892 -0.30926,-0.33943 -0.82218,-0.33943 -0.58079,0 -0.93154,0.32812 -0.34697,0.32811 -0.39977,0.924 l 2.47406,-0.004 z"
       id="path3816"
       inkscape:connector-curvature="0"
       style="font-style:normal;font-variant:normal;font-weight:500;font-stretch:normal;font-size:medium;line-height:125%;font-family:Roboto;-inkscape-font-specification:'Roboto, Medium';text-align:center;letter-spacing:0px;word-spacing:0px;writing-mode:lr-tb;text-anchor:middle;fill:#ffb934;fill-opacity:1;stroke:none;stroke-width:1px;stroke-linecap:butt;stroke-linejoin:miter;stroke-opacity:1" />
    <path
       d="m 329.43616,395.16565 0,1.19931 1.42937,0 0,0.53931 -1.42937,0 0,2.29303 q 0,0.51669 0.13954,0.66377 0.14331,0.14709 0.57703,0.14709 l 0.7128,0 0,0.58079 -0.7128,0 q -0.80332,0 -1.1088,-0.29794 -0.30549,-0.30171 -0.30549,-1.09371 l 0,-2.29303 -0.50914,0 0,-0.53931 0.50914,0 0,-1.19931 0.69772,0 z"
       id="path3818"
       inkscape:connector-curvature="0"
       style="font-style:normal;font-variant:normal;font-weight:500;font-stretch:normal;font-size:medium;line-height:125%;font-family:Roboto;-inkscape-font-specification:'Roboto, Medium';text-align:center;letter-spacing:0px;word-spacing:0px;writing-mode:lr-tb;text-anchor:middle;fill:#ffb934;fill-opacity:1;stroke:none;stroke-width:1px;stroke-linecap:butt;stroke-linejoin:miter;stroke-opacity:1" />
    <path
       d="m 333.41878,396.85147 q -0.55817,0 -0.88251,0.43749 -0.32435,0.43371 -0.32435,1.19177 0,0.75806 0.32058,1.19554 0.32434,0.43371 0.88628,0.43371 0.5544,0 0.87874,-0.43748 0.32435,-0.43749 0.32435,-1.19177 0,-0.75051 -0.32435,-1.188 -0.32434,-0.44126 -0.87874,-0.44126 z m 0,-0.58834 q 0.90514,0 1.42183,0.58834 0.51668,0.58835 0.51668,1.62926 0,1.03714 -0.51668,1.62925 -0.51669,0.58835 -1.42183,0.58835 -0.90891,0 -1.4256,-0.58835 -0.51291,-0.59211 -0.51291,-1.62925 0,-1.04091 0.51291,-1.62926 0.51669,-0.58834 1.4256,-0.58834 z"
       id="path3820"
       inkscape:connector-curvature="0"
       style="font-style:normal;font-variant:normal;font-weight:500;font-stretch:normal;font-size:medium;line-height:125%;font-family:Roboto;-inkscape-font-specification:'Roboto, Medium';text-align:center;letter-spacing:0px;word-spacing:0px;writing-mode:lr-tb;text-anchor:middle;fill:#ffb934;fill-opacity:1;stroke:none;stroke-width:1px;stroke-linecap:butt;stroke-linejoin:miter;stroke-opacity:1" />
    <path
       d="m 343.2094,395.39193 0,0.80332 q -0.38469,-0.35829 -0.82217,-0.53555 -0.43372,-0.17725 -0.924,-0.17725 -0.96549,0 -1.4784,0.59211 -0.51292,0.58834 -0.51292,1.70468 0,1.11258 0.51292,1.70469 0.51291,0.58834 1.4784,0.58834 0.49028,0 0.924,-0.17726 0.43748,-0.17726 0.82217,-0.53554 l 0,0.79577 q -0.39978,0.27154 -0.84858,0.40731 -0.44502,0.13578 -0.94285,0.13578 -1.27852,0 -2.01394,-0.78069 -0.73543,-0.78446 -0.73543,-2.1384 0,-1.35771 0.73543,-2.13839 0.73542,-0.78446 2.01394,-0.78446 0.50537,0 0.9504,0.13577 0.4488,0.132 0.84103,0.39977 z"
       id="path3822"
       inkscape:connector-curvature="0"
       style="font-style:normal;font-variant:normal;font-weight:500;font-stretch:normal;font-size:medium;line-height:125%;font-family:Roboto;-inkscape-font-specification:'Roboto, Medium';text-align:center;letter-spacing:0px;word-spacing:0px;writing-mode:lr-tb;text-anchor:middle;fill:#ffb934;fill-opacity:1;stroke:none;stroke-width:1px;stroke-linecap:butt;stroke-linejoin:miter;stroke-opacity:1" />
    <path
       id="path3824"
       d="m 353.8652,418.09613 6.34156,0 0,1.47377 -6.34156,0 z"
       style="opacity:1;fill:#ffb934;fill-opacity:1;stroke:none;stroke-width:5;stroke-linecap:butt;stroke-linejoin:round;stroke-miterlimit:4;stroke-dasharray:none;stroke-dashoffset:0;stroke-opacity:1" />
    <path
       id="path3826"
       d="m 360.81424,418.09613 3.43737,0 0,1.47377 -3.43737,0 z"
       style="opacity:1;fill:#ffb934;fill-opacity:1;stroke:none;stroke-width:5;stroke-linecap:butt;stroke-linejoin:round;stroke-miterlimit:4;stroke-dasharray:none;stroke-dashoffset:0;stroke-opacity:1" />
    <path
       id="path3828"
       d="m 364.85907,418.09613 1.44345,0 0,1.47377 -1.44345,0 z"
       style="opacity:1;fill:#ffb934;fill-opacity:1;stroke:none;stroke-width:5;stroke-linecap:butt;stroke-linejoin:round;stroke-miterlimit:4;stroke-dasharray:none;stroke-dashoffset:0;stroke-opacity:1" />
    <path
       id="path3830"
       d="m 366.90997,418.09613 0.83661,0 0,1.47377 -0.83661,0 z"
       style="opacity:1;fill:#ffb934;fill-opacity:1;stroke:none;stroke-width:5;stroke-linecap:butt;stroke-linejoin:round;stroke-miterlimit:4;stroke-dasharray:none;stroke-dashoffset:0;stroke-opacity:1" />
    <path
       style="opacity:1;fill:#1a1a1a;fill-opacity:1;stroke:none;stroke-width:5;stroke-linecap:butt;stroke-linejoin:round;stroke-miterlimit:4;stroke-dasharray:none;stroke-dashoffset:0;stroke-opacity:1"
       d="m 322.45644,420.02912 a 4.865643,4.8547595 0 0 0 4.86564,4.85491 4.865643,4.8547595 0 0 0 4.86564,-4.85491 l -1.53606,0 a 3.3296924,3.3222445 0 0 1 -3.32958,3.3222 3.3296924,3.3222445 0 0 1 -3.33025,-3.3222 l -1.53539,0 z"
       id="path3832"
       inkscape:connector-curvature="0" />
    <path
       inkscape:connector-curvature="0"
       style="opacity:1;fill:#1a1a1a;fill-opacity:1;stroke:none;stroke-width:5;stroke-linecap:butt;stroke-linejoin:round;stroke-miterlimit:4;stroke-dasharray:none;stroke-dashoffset:0;stroke-opacity:1"
       d="m 322.84597,412.78199 a 1.8246159,1.8638808 0 0 1 1.8251,1.86392 1.8246159,1.8638808 0 0 1 -1.8251,1.86392 1.8246159,1.8638808 0 0 1 -1.82442,-1.86392 1.8246159,1.8638808 0 0 1 1.82442,-1.86392 z"
       id="path3834" />
    <path
       inkscape:connector-curvature="0"
       style="opacity:1;fill:#1a1a1a;fill-opacity:1;stroke:none;stroke-width:5;stroke-linecap:butt;stroke-linejoin:round;stroke-miterlimit:4;stroke-dasharray:none;stroke-dashoffset:0;stroke-opacity:1"
       d="m 331.79751,412.78199 a 1.8246159,1.8638808 0 0 1 1.82509,1.86392 1.8246159,1.8638808 0 0 1 -1.82509,1.86392 1.8246159,1.8638808 0 0 1 -1.82443,-1.86392 1.8246159,1.8638808 0 0 1 1.82443,-1.86392 z"
       id="path3836" />
  </g>
</svg>
