<?xml version="1.0" encoding="UTF-8" standalone="no"?>
<!-- Created with Inkscape (http://www.inkscape.org/) -->

<svg
   xmlns:dc="http://purl.org/dc/elements/1.1/"
   xmlns:cc="http://creativecommons.org/ns#"
   xmlns:rdf="http://www.w3.org/1999/02/22-rdf-syntax-ns#"
   xmlns:svg="http://www.w3.org/2000/svg"
   xmlns="http://www.w3.org/2000/svg"
   xmlns:sodipodi="http://sodipodi.sourceforge.net/DTD/sodipodi-0.dtd"
   xmlns:inkscape="http://www.inkscape.org/namespaces/inkscape"
   width="255"
   height="110"
   viewBox="0 0 255 110"
   id="svg4625"
   version="1.1"
   inkscape:version="0.91 r"
   sodipodi:docname="polymorphism.svg">
  <defs
     id="defs4627" />
  <sodipodi:namedview
     id="base"
     pagecolor="#ffffff"
     bordercolor="#666666"
     borderopacity="1.0"
     inkscape:pageopacity="0.0"
     inkscape:pageshadow="2"
     inkscape:zoom="19.554558"
     inkscape:cx="137.75868"
     inkscape:cy="70.252861"
     inkscape:document-units="px"
     inkscape:current-layer="layer1"
     showgrid="false"
     showguides="true"
     inkscape:window-width="857"
     inkscape:window-height="704"
     inkscape:window-x="507"
     inkscape:window-y="30"
     inkscape:window-maximized="0"
     fit-margin-top="0"
     fit-margin-left="0"
     fit-margin-right="0"
     fit-margin-bottom="0"
     units="px" />
  <metadata
     id="metadata4630">
    <rdf:RDF>
      <cc:Work
         rdf:about="">
        <dc:format>image/svg+xml</dc:format>
        <dc:type
           rdf:resource="http://purl.org/dc/dcmitype/StillImage" />
        <dc:title />
      </cc:Work>
    </rdf:RDF>
  </metadata>
  <g
     inkscape:label="Layer 1"
     inkscape:groupmode="layer"
     id="layer1"
     transform="translate(-106.01048,-183.59734)">
    <rect
       y="183.59734"
       x="106.01048"
       height="110"
       width="255"
       id="rect4557"
       style="opacity:1;fill:none;fill-opacity:1;stroke:none;stroke-width:5;stroke-linecap:butt;stroke-linejoin:round;stroke-miterlimit:4;stroke-dasharray:none;stroke-dashoffset:0;stroke-opacity:1" />
    <path
       style="fill:#ffee5a;fill-opacity:1;stroke:none;stroke-width:10;stroke-linecap:round;stroke-linejoin:miter;stroke-miterlimit:4;stroke-dasharray:none;stroke-opacity:1"
       d="m 235.81608,244.444 0,15.46568 -35.1657,0 c -4.54091,0 -8.15627,-3.61587 -8.15627,-8.15678 l 0,-6.85447 -2.55961,0 0,6.85447 c 0,5.91468 4.80122,10.71639 10.71588,10.71639 l 72.89001,0 c 5.91466,0 10.71638,-4.80171 10.71638,-10.71639 l 0,-6.85447 -2.55961,0 0,6.85447 c 0,4.54091 -3.61586,8.15678 -8.15677,8.15678 l -35.1647,0 0,-15.46568 z"
       id="rect5802"
       inkscape:connector-curvature="0"
       sodipodi:nodetypes="ccssccssssccssccc" />
    <rect
       style="opacity:1;fill:#ff2650;fill-opacity:1;stroke:none;stroke-width:5;stroke-linecap:butt;stroke-linejoin:round;stroke-miterlimit:4;stroke-dasharray:none;stroke-dashoffset:0;stroke-opacity:1"
       id="rect5695"
       width="20.476913"
       height="20.476913"
       x="226.85718"
       y="210.77141"
       ry="1.1503884" />
    <path
       inkscape:connector-curvature="0"
       style="opacity:1;fill:#1a1a1a;fill-opacity:1;stroke:none;stroke-width:5;stroke-linecap:butt;stroke-linejoin:round;stroke-miterlimit:4;stroke-dasharray:none;stroke-dashoffset:0;stroke-opacity:1"
       d="m 233.18409,215.76888 a 1.220171,1.2492227 0 0 1 1.22049,1.24925 1.220171,1.2492227 0 0 1 -1.22049,1.24925 1.220171,1.2492227 0 0 1 -1.22004,-1.24925 1.220171,1.2492227 0 0 1 1.22004,-1.24925 z"
       id="path5699" />
    <path
       inkscape:connector-curvature="0"
       style="opacity:1;fill:#1a1a1a;fill-opacity:1;stroke:none;stroke-width:5;stroke-linecap:butt;stroke-linejoin:round;stroke-miterlimit:4;stroke-dasharray:none;stroke-dashoffset:0;stroke-opacity:1"
       d="m 241.00673,215.76888 a 1.220171,1.2492227 0 0 1 1.22049,1.24925 1.220171,1.2492227 0 0 1 -1.22049,1.24925 1.220171,1.2492227 0 0 1 -1.22004,-1.24925 1.220171,1.2492227 0 0 1 1.22004,-1.24925 z"
       id="path5701" />
    <path
       transform="scale(1,-1)"
       style="opacity:1;fill:#1a1a1a;fill-opacity:1;stroke:none;stroke-width:5;stroke-linecap:butt;stroke-linejoin:round;stroke-miterlimit:4;stroke-dasharray:none;stroke-dashoffset:0;stroke-opacity:1"
       d="m 233.84185,-220.61923 c 0,-1.79702 1.71994,-3.25379 3.25379,-3.25379 1.53385,0 3.25379,1.45677 3.25379,3.25379 l -3.25379,0 z"
       id="path5703"
       inkscape:connector-curvature="0"
       sodipodi:nodetypes="caccc" />
    <circle
       r="10.238457"
       cy="221.00983"
       cx="192.1001"
       id="circle5705"
       style="fill:#ffb934;fill-opacity:1;stroke:none;stroke-width:10;stroke-linecap:round;stroke-linejoin:miter;stroke-miterlimit:4;stroke-dasharray:none" />
    <path
       style="opacity:1;fill:#1a1a1a;fill-opacity:1;stroke:none;stroke-width:5;stroke-linecap:butt;stroke-linejoin:round;stroke-miterlimit:4;stroke-dasharray:none;stroke-dashoffset:0;stroke-opacity:1"
       d="m 188.47216,222.41362 a 3.6279561,3.6198411 0 0 0 3.62795,3.61996 3.6279561,3.6198411 0 0 0 3.62795,-3.61996 l -1.14532,0 a 2.4827094,2.4771561 0 0 1 -2.48263,2.47713 2.4827094,2.4771561 0 0 1 -2.48313,-2.47713 l -1.14482,0 z"
       id="path5711"
       inkscape:connector-curvature="0" />
    <path
       inkscape:connector-curvature="0"
       style="opacity:1;fill:#1a1a1a;fill-opacity:1;stroke:none;stroke-width:5;stroke-linecap:butt;stroke-linejoin:round;stroke-miterlimit:4;stroke-dasharray:none;stroke-dashoffset:0;stroke-opacity:1"
       d="m 188.76261,217.00997 a 1.3604833,1.3897603 0 0 1 1.36084,1.38979 1.3604833,1.3897603 0 0 1 -1.36084,1.38979 1.3604833,1.3897603 0 0 1 -1.36034,-1.38979 1.3604833,1.3897603 0 0 1 1.36034,-1.38979 z"
       id="path5715" />
    <path
       inkscape:connector-curvature="0"
       style="opacity:1;fill:#1a1a1a;fill-opacity:1;stroke:none;stroke-width:5;stroke-linecap:butt;stroke-linejoin:round;stroke-miterlimit:4;stroke-dasharray:none;stroke-dashoffset:0;stroke-opacity:1"
       d="m 195.43711,217.00997 a 1.3604833,1.3897603 0 0 1 1.36084,1.38979 1.3604833,1.3897603 0 0 1 -1.36084,1.38979 1.3604833,1.3897603 0 0 1 -1.36034,-1.38979 1.3604833,1.3897603 0 0 1 1.36034,-1.38979 z"
       id="path5717" />
    <path
       inkscape:connector-curvature="0"
       id="path5721"
       d="m 188.47216,222.41362 a 3.6279561,3.6198411 0 0 0 3.62795,3.61996 3.6279561,3.6198411 0 0 0 3.62795,-3.61996 l -1.14532,0 a 2.4827094,2.4771561 0 0 1 -2.48263,2.47713 2.4827094,2.4771561 0 0 1 -2.48313,-2.47713 l -1.14482,0 z"
       style="opacity:1;fill:#1a1a1a;fill-opacity:1;stroke:none;stroke-width:5;stroke-linecap:butt;stroke-linejoin:round;stroke-miterlimit:4;stroke-dasharray:none;stroke-dashoffset:0;stroke-opacity:1" />
    <path
       id="path5725"
       d="m 188.76261,217.00997 a 1.3604833,1.3897603 0 0 1 1.36084,1.38979 1.3604833,1.3897603 0 0 1 -1.36084,1.38979 1.3604833,1.3897603 0 0 1 -1.36034,-1.38979 1.3604833,1.3897603 0 0 1 1.36034,-1.38979 z"
       style="opacity:1;fill:#1a1a1a;fill-opacity:1;stroke:none;stroke-width:5;stroke-linecap:butt;stroke-linejoin:round;stroke-miterlimit:4;stroke-dasharray:none;stroke-dashoffset:0;stroke-opacity:1"
       inkscape:connector-curvature="0" />
    <path
       id="path5727"
       d="m 195.43711,217.00997 a 1.3604833,1.3897603 0 0 1 1.36084,1.38979 1.3604833,1.3897603 0 0 1 -1.36084,1.38979 1.3604833,1.3897603 0 0 1 -1.36034,-1.38979 1.3604833,1.3897603 0 0 1 1.36034,-1.38979 z"
       style="opacity:1;fill:#1a1a1a;fill-opacity:1;stroke:none;stroke-width:5;stroke-linecap:butt;stroke-linejoin:round;stroke-miterlimit:4;stroke-dasharray:none;stroke-dashoffset:0;stroke-opacity:1"
       inkscape:connector-curvature="0" />
    <path
       inkscape:transform-center-y="-4.0929265"
       inkscape:transform-center-x="-0.12365808"
       d="m 290.0955,231.24832 -13.26758,-0.12042 -3.98538,-12.65543 10.80448,-7.70107 10.66292,7.89591 z"
       inkscape:randomized="0"
       inkscape:rounded="0"
       inkscape:flatsided="true"
       sodipodi:arg2="1.5798724"
       sodipodi:arg1="0.95155389"
       sodipodi:r2="9.1310023"
       sodipodi:r1="11.286541"
       sodipodi:cy="222.05748"
       sodipodi:cx="283.54459"
       sodipodi:sides="5"
       id="path5707"
       style="fill:#ff6433;fill-opacity:1;stroke:none;stroke-width:10;stroke-linecap:round;stroke-linejoin:miter;stroke-miterlimit:4;stroke-dasharray:none"
       sodipodi:type="star" />
    <circle
       style="fill:#bd1939;fill-opacity:1;stroke:none;stroke-width:10;stroke-linecap:round;stroke-linejoin:miter;stroke-miterlimit:4;stroke-dasharray:none"
       id="path5773"
       cx="237.09563"
       cy="260.69778"
       r="5.1229959" />
    <path
       style="opacity:1;fill:#1a1a1a;fill-opacity:1;stroke:none;stroke-width:5;stroke-linecap:butt;stroke-linejoin:round;stroke-miterlimit:4;stroke-dasharray:none;stroke-dashoffset:0;stroke-opacity:1"
       d="m 280.3615,222.01283 a 3.2147334,3.2075427 0 0 0 3.21473,3.20763 3.2147334,3.2075427 0 0 0 3.21473,-3.20763 l -1.01487,0 a 2.1999299,2.195009 0 0 1 -2.19986,2.19498 2.1999299,2.195009 0 0 1 -2.2003,-2.19498 l -1.01443,0 z"
       id="path5779"
       inkscape:connector-curvature="0" />
    <rect
       ry="0.71596932"
       y="219.24658"
       x="277.57489"
       height="1.4319386"
       width="3.8375957"
       id="rect5783"
       style="opacity:1;fill:#1a1a1a;fill-opacity:1;stroke:none;stroke-width:5;stroke-linecap:butt;stroke-linejoin:round;stroke-miterlimit:4;stroke-dasharray:none;stroke-dashoffset:0;stroke-opacity:1" />
    <rect
       style="opacity:1;fill:#1a1a1a;fill-opacity:1;stroke:none;stroke-width:5;stroke-linecap:butt;stroke-linejoin:round;stroke-miterlimit:4;stroke-dasharray:none;stroke-dashoffset:0;stroke-opacity:1"
       id="rect5785"
       width="3.8375957"
       height="1.4319386"
       x="285.73996"
       y="219.24658"
       ry="0.71596932" />
    <circle
       style="fill:#bd1939;fill-opacity:1;stroke:none;stroke-width:10;stroke-linecap:round;stroke-linejoin:miter;stroke-miterlimit:4;stroke-dasharray:none;stroke-opacity:1"
       id="path5805"
       cx="191.21043"
       cy="242.63766"
       r="2.7148807" />
    <circle
       r="2.7148807"
       cy="242.63766"
       cx="237.09546"
       id="circle5807"
       style="fill:#bd1939;fill-opacity:1;stroke:none;stroke-width:10;stroke-linecap:round;stroke-linejoin:miter;stroke-miterlimit:4;stroke-dasharray:none;stroke-opacity:1" />
    <circle
       style="fill:#bd1939;fill-opacity:1;stroke:none;stroke-width:10;stroke-linecap:round;stroke-linejoin:miter;stroke-miterlimit:4;stroke-dasharray:none;stroke-opacity:1"
       id="circle5809"
       cx="282.8446"
       cy="242.63766"
       r="2.7148807" />
    <path
       style="fill:#f2f2f2;fill-opacity:1;stroke:none;stroke-width:10;stroke-linecap:round;stroke-linejoin:miter;stroke-miterlimit:4;stroke-dasharray:none;stroke-opacity:1"
       d="m 237.49815,267.14609 7.03644,6.09357 8.37324,0 c 2.12704,0 3.83942,1.71238 3.83942,3.83942 l 0,7.67884 c 0,2.12704 -1.71238,3.83942 -3.83942,3.83942 l -21.8847,0 c -2.12704,0 -3.83942,-1.71238 -3.83942,-3.83942 l 0,-7.67884 c 0,-2.12704 1.71238,-3.83942 3.83942,-3.83942 l 6.47502,0 0,-6.09357 z"
       id="rect5817"
       inkscape:connector-curvature="0" />
    <path
       id="path7355"
       style="font-style:normal;font-variant:normal;font-weight:500;font-stretch:normal;font-size:medium;line-height:125%;font-family:Roboto;-inkscape-font-specification:'Roboto Medium';letter-spacing:0px;word-spacing:0px;fill:#808080;fill-opacity:1;stroke:none;stroke-width:1px;stroke-linecap:butt;stroke-linejoin:miter;stroke-opacity:1"
       d="m 238.649,279.3589 -1.38986,0 0,3.83283 -0.7684,0 0,-3.83283 -1.37762,0 0,-0.62452 3.53588,0 0,0.62452 z"
       inkscape:connector-curvature="0" />
    <path
       id="path7357"
       style="font-style:normal;font-variant:normal;font-weight:500;font-stretch:normal;font-size:medium;line-height:125%;font-family:Roboto;-inkscape-font-specification:'Roboto Medium';letter-spacing:0px;word-spacing:0px;fill:#808080;fill-opacity:1;stroke:none;stroke-width:1px;stroke-linecap:butt;stroke-linejoin:miter;stroke-opacity:1"
       d="m 240.6297,283.19173 q -0.049,-0.0949 -0.0857,-0.3092 -0.35512,0.37043 -0.86943,0.37043 -0.49901,0 -0.81433,-0.28471 -0.31532,-0.2847 -0.31532,-0.70411 0,-0.52962 0.39186,-0.81126 0.39492,-0.28471 1.12658,-0.28471 l 0.45614,0 0,-0.21736 q 0,-0.25715 -0.14388,-0.41022 -0.14388,-0.15613 -0.43778,-0.15613 -0.25409,0 -0.41634,0.12857 -0.16225,0.12552 -0.16225,0.32145 l -0.74392,0 q 0,-0.27246 0.18063,-0.50819 0.18062,-0.23878 0.48981,-0.37348 0.31226,-0.13471 0.69494,-0.13471 0.58166,0 0.92759,0.2939 0.34593,0.29083 0.35512,0.82044 l 0,1.49395 q 0,0.44696 0.12551,0.7133 l 0,0.052 -0.75922,0 z m -0.81738,-0.53574 q 0.22042,0 0.41328,-0.10714 0.19593,-0.10715 0.29389,-0.28777 l 0,-0.62452 -0.40103,0 q -0.41329,0 -0.62146,0.14388 -0.20818,0.14389 -0.20818,0.40716 0,0.2143 0.14083,0.34288 0.14388,0.12551 0.38267,0.12551 z"
       inkscape:connector-curvature="0" />
    <path
       id="path7359"
       style="font-style:normal;font-variant:normal;font-weight:500;font-stretch:normal;font-size:medium;line-height:125%;font-family:Roboto;-inkscape-font-specification:'Roboto Medium';letter-spacing:0px;word-spacing:0px;fill:#808080;fill-opacity:1;stroke:none;stroke-width:1px;stroke-linecap:butt;stroke-linejoin:miter;stroke-opacity:1"
       d="m 242.83389,283.19173 -0.74391,0 0,-4.70226 0.74391,0 0,4.70226 z"
       inkscape:connector-curvature="0" />
    <path
       id="path7361"
       style="font-style:normal;font-variant:normal;font-weight:500;font-stretch:normal;font-size:medium;line-height:125%;font-family:Roboto;-inkscape-font-specification:'Roboto Medium';letter-spacing:0px;word-spacing:0px;fill:#808080;fill-opacity:1;stroke:none;stroke-width:1px;stroke-linecap:butt;stroke-linejoin:miter;stroke-opacity:1"
       d="m 244.72275,281.77126 -0.33062,0.33981 0,1.08066 -0.74392,0 0,-4.70226 0.74392,0 0,2.71237 0.23266,-0.29083 0.91535,-1.03168 0.89392,0 -1.23067,1.38068 1.36231,1.93172 -0.86025,0 -0.9827,-1.42047 z"
       inkscape:connector-curvature="0" />
    <path
       id="path7363"
       style="font-style:normal;font-variant:normal;font-weight:500;font-stretch:normal;font-size:medium;line-height:125%;font-family:Roboto;-inkscape-font-specification:'Roboto Medium';letter-spacing:0px;word-spacing:0px;fill:#808080;fill-opacity:1;stroke:none;stroke-width:1px;stroke-linecap:butt;stroke-linejoin:miter;stroke-opacity:1"
       d="m 247.70453,281.87841 -0.63983,0 -0.0704,-3.14403 0.78371,0 -0.0735,3.14403 z m -0.73167,0.96126 q 0,-0.17449 0.11327,-0.28776 0.11327,-0.11634 0.3092,-0.11634 0.19593,0 0.3092,0.11634 0.11327,0.11327 0.11327,0.28776 0,0.16838 -0.11021,0.28165 -0.11021,0.11327 -0.31226,0.11327 -0.20205,0 -0.31226,-0.11327 -0.11021,-0.11327 -0.11021,-0.28165 z"
       inkscape:connector-curvature="0" />
    <path
       inkscape:connector-curvature="0"
       id="path5822"
       d="m 191.96011,210.0486 -7.03644,-6.09357 -8.37323,0 c -2.12704,0 -3.83943,-1.71238 -3.83943,-3.83942 l 0,-7.67884 c 0,-2.12704 1.71239,-3.83943 3.83943,-3.83943 l 21.8847,0 c 2.12704,0 3.83942,1.71239 3.83942,3.83943 l 0,7.67884 c 0,2.12704 -1.71238,3.83942 -3.83942,3.83942 l -6.47503,0 0,6.09357 z"
       style="fill:#f2f2f2;fill-opacity:1;stroke:none;stroke-width:10;stroke-linecap:round;stroke-linejoin:miter;stroke-miterlimit:4;stroke-dasharray:none;stroke-opacity:1" />
    <path
       id="path7384"
       style="font-style:normal;font-variant:normal;font-weight:500;font-stretch:normal;font-size:medium;line-height:125%;font-family:Roboto;-inkscape-font-specification:'Roboto Medium';letter-spacing:0px;word-spacing:0px;fill:#808080;fill-opacity:1;stroke:none;stroke-width:1px;stroke-linecap:butt;stroke-linejoin:miter;stroke-opacity:1"
       d="m 183.31249,198.62789 -0.77146,0 0,-1.9807 -1.99296,0 0,1.9807 -0.77452,0 0,-4.45735 0.77452,0 0,1.85519 1.99296,0 0,-1.85519 0.77146,0 0,4.45735 z"
       inkscape:connector-curvature="0" />
    <path
       id="path7386"
       style="font-style:normal;font-variant:normal;font-weight:500;font-stretch:normal;font-size:medium;line-height:125%;font-family:Roboto;-inkscape-font-specification:'Roboto Medium';letter-spacing:0px;word-spacing:0px;fill:#808080;fill-opacity:1;stroke:none;stroke-width:1px;stroke-linecap:butt;stroke-linejoin:miter;stroke-opacity:1"
       d="m 185.6177,198.68912 q -0.70718,0 -1.14801,-0.4439 -0.43778,-0.44696 -0.43778,-1.18781 l 0,-0.0918 q 0,-0.49594 0.18981,-0.88473 0.19286,-0.39186 0.5388,-0.60922 0.34593,-0.21735 0.77146,-0.21735 0.67656,0 1.04393,0.43165 0.37042,0.43165 0.37042,1.22149 l 0,0.30001 -2.16438,0 q 0.0337,0.41022 0.27246,0.64901 0.24185,0.23879 0.60615,0.23879 0.51125,0 0.83269,-0.41329 l 0.40104,0.38267 q -0.19899,0.29696 -0.53268,0.46227 -0.33063,0.16225 -0.74391,0.16225 z m -0.0888,-2.83789 q -0.30614,0 -0.49594,0.2143 -0.18675,0.2143 -0.23879,0.59697 l 1.41741,0 0,-0.0551 q -0.0245,-0.37349 -0.19898,-0.56329 -0.1745,-0.19287 -0.4837,-0.19287 z"
       inkscape:connector-curvature="0" />
    <path
       id="path7388"
       style="font-style:normal;font-variant:normal;font-weight:500;font-stretch:normal;font-size:medium;line-height:125%;font-family:Roboto;-inkscape-font-specification:'Roboto Medium';letter-spacing:0px;word-spacing:0px;fill:#808080;fill-opacity:1;stroke:none;stroke-width:1px;stroke-linecap:butt;stroke-linejoin:miter;stroke-opacity:1"
       d="m 188.31783,198.62789 -0.74392,0 0,-4.70226 0.74392,0 0,4.70226 z"
       inkscape:connector-curvature="0" />
    <path
       id="path7390"
       style="font-style:normal;font-variant:normal;font-weight:500;font-stretch:normal;font-size:medium;line-height:125%;font-family:Roboto;-inkscape-font-specification:'Roboto Medium';letter-spacing:0px;word-spacing:0px;fill:#808080;fill-opacity:1;stroke:none;stroke-width:1px;stroke-linecap:butt;stroke-linejoin:miter;stroke-opacity:1"
       d="m 189.92198,198.62789 -0.74391,0 0,-4.70226 0.74391,0 0,4.70226 z"
       inkscape:connector-curvature="0" />
    <path
       id="path7392"
       style="font-style:normal;font-variant:normal;font-weight:500;font-stretch:normal;font-size:medium;line-height:125%;font-family:Roboto;-inkscape-font-specification:'Roboto Medium';letter-spacing:0px;word-spacing:0px;fill:#808080;fill-opacity:1;stroke:none;stroke-width:1px;stroke-linecap:butt;stroke-linejoin:miter;stroke-opacity:1"
       d="m 190.59548,196.94108 q 0,-0.48676 0.19287,-0.87555 0.19287,-0.39186 0.54186,-0.60003 0.349,-0.21123 0.80208,-0.21123 0.67044,0 1.08679,0.43165 0.4194,0.43165 0.45308,1.14495 l 0.003,0.1745 q 0,0.48982 -0.1898,0.87555 -0.18675,0.38573 -0.53881,0.59697 -0.34899,0.21123 -0.8082,0.21123 -0.70105,0 -1.12352,-0.46533 -0.41941,-0.46838 -0.41941,-1.24597 l 0,-0.0367 z m 0.74392,0.0643 q 0,0.51125 0.21123,0.80208 0.21124,0.28777 0.58778,0.28777 0.37655,0 0.58472,-0.29389 0.21124,-0.2939 0.21124,-0.86025 0,-0.50206 -0.21736,-0.79596 -0.21429,-0.29389 -0.58472,-0.29389 -0.3643,0 -0.5786,0.29083 -0.21429,0.28777 -0.21429,0.86331 z"
       inkscape:connector-curvature="0" />
    <path
       style="fill:#f2f2f2;fill-opacity:1;stroke:none;stroke-width:10;stroke-linecap:round;stroke-linejoin:miter;stroke-miterlimit:4;stroke-dasharray:none;stroke-opacity:1"
       d="m 237.00932,210.04862 -7.03644,-6.09357 -8.37324,0 c -2.12704,0 -3.83942,-1.71238 -3.83942,-3.83942 l 0,-7.67884 c 0,-2.12704 1.71238,-3.83942 3.83942,-3.83942 l 21.8847,0 c 2.12704,0 3.83943,1.71238 3.83943,3.83942 l 0,7.67884 c 0,2.12704 -1.71239,3.83942 -3.83943,3.83942 l -6.47502,0 0,6.09357 z"
       id="path5841"
       inkscape:connector-curvature="0" />
    <path
       id="path7371"
       style="font-style:normal;font-variant:normal;font-weight:500;font-stretch:normal;font-size:medium;line-height:125%;font-family:'Roboto Mono';-inkscape-font-specification:'Roboto Mono Medium';letter-spacing:0px;word-spacing:0px;fill:#808080;fill-opacity:1;stroke:none;stroke-width:1px;stroke-linecap:butt;stroke-linejoin:miter;stroke-opacity:1"
       d="m 222.31735,197.73565 0,-3.57777 1.14263,0 q 0.25801,0.003 0.48162,0.059 0.22607,0.0565 0.39316,0.17446 0.16955,0.11795 0.26538,0.30224 0.0958,0.18184 0.0934,0.43248 -0.003,0.26539 -0.14744,0.45459 -0.14497,0.18675 -0.3907,0.28996 0.14989,0.0418 0.26539,0.1204 0.11794,0.0762 0.19658,0.1843 0.0786,0.10812 0.1204,0.24081 0.0418,0.13023 0.0418,0.27767 0,0.25555 -0.0934,0.44968 -0.0934,0.19412 -0.26047,0.32436 -0.16464,0.13023 -0.39316,0.19903 -0.22607,0.0663 -0.489,0.0688 l -1.22617,0 z m 0.5922,-1.62179 0,1.14016 0.6438,0 q 0.14007,-0.003 0.25556,-0.0418 0.11549,-0.0418 0.19904,-0.11303 0.0835,-0.0713 0.13023,-0.17447 0.0491,-0.1032 0.0491,-0.23098 0,-0.13515 -0.0418,-0.24081 -0.0418,-0.10812 -0.1204,-0.18184 -0.0786,-0.0737 -0.19167,-0.11303 -0.11303,-0.0418 -0.2531,-0.0442 l -0.67083,0 z m 0,-0.44968 0.56517,0 q 0.13269,-0.003 0.24573,-0.0344 0.11549,-0.0344 0.19904,-0.0983 0.0835,-0.0663 0.13269,-0.15972 0.0491,-0.0958 0.0491,-0.2187 0,-0.13515 -0.0467,-0.23098 -0.0467,-0.0958 -0.13269,-0.15727 -0.0836,-0.0614 -0.19904,-0.0885 -0.11549,-0.0295 -0.25309,-0.0319 l -0.56026,0 0,1.01976 z"
       inkscape:connector-curvature="0" />
    <path
       id="path7373"
       style="font-style:normal;font-variant:normal;font-weight:500;font-stretch:normal;font-size:medium;line-height:125%;font-family:'Roboto Mono';-inkscape-font-specification:'Roboto Mono Medium';letter-spacing:0px;word-spacing:0px;fill:#808080;fill-opacity:1;stroke:none;stroke-width:1px;stroke-linecap:butt;stroke-linejoin:miter;stroke-opacity:1"
       d="m 225.47984,195.0769 1.41784,0 0,2.17221 0.78878,0 0,0.48654 -2.20662,0 0,-0.48654 0.82564,0 0,-1.68322 -0.82564,0 0,-0.48899 z m 0.77649,-0.68804 q 0,-0.1376 0.0885,-0.22606 0.0885,-0.0909 0.24818,-0.0909 0.16218,0 0.25064,0.0909 0.0909,0.0885 0.0909,0.22606 0,0.13761 -0.0909,0.22853 -0.0885,0.0885 -0.25064,0.0885 -0.15972,0 -0.24818,-0.0885 -0.0885,-0.0909 -0.0885,-0.22853 z"
       inkscape:connector-curvature="0" />
    <path
       id="path7375"
       style="font-style:normal;font-variant:normal;font-weight:500;font-stretch:normal;font-size:medium;line-height:125%;font-family:'Roboto Mono';-inkscape-font-specification:'Roboto Mono Medium';letter-spacing:0px;word-spacing:0px;fill:#808080;fill-opacity:1;stroke:none;stroke-width:1px;stroke-linecap:butt;stroke-linejoin:miter;stroke-opacity:1"
       d="m 230.6966,196.4333 q 0,0.28996 -0.0688,0.53814 -0.0688,0.24818 -0.20149,0.43002 -0.13269,0.17938 -0.32682,0.28258 -0.19166,0.10075 -0.4423,0.10075 -0.22607,0 -0.40054,-0.0737 -0.172,-0.0737 -0.29732,-0.21132 l 0,1.25812 -0.58729,0 0,-3.68097 0.5406,0 0.0246,0.26784 q 0.12778,-0.15235 0.30224,-0.23344 0.17692,-0.0836 0.41036,-0.0836 0.2531,0 0.44722,0.0983 0.19659,0.0983 0.32928,0.27767 0.13269,0.17692 0.20149,0.42756 0.0688,0.24819 0.0688,0.55043 l 0,0.0516 z m -0.58729,-0.0516 q 0,-0.17938 -0.0369,-0.33665 -0.0369,-0.15972 -0.11303,-0.27767 -0.0762,-0.1204 -0.19412,-0.1892 -0.11795,-0.0688 -0.28013,-0.0688 -0.19658,0 -0.32436,0.0836 -0.12778,0.0836 -0.20149,0.22361 l 0,1.18931 q 0.0737,0.13761 0.19903,0.22361 0.12778,0.086 0.33173,0.086 0.16218,0 0.28013,-0.0713 0.11795,-0.0712 0.19167,-0.19166 0.0762,-0.12041 0.11057,-0.28013 0.0369,-0.15972 0.0369,-0.3391 l 0,-0.0516 z"
       inkscape:connector-curvature="0" />
    <path
       id="path7377"
       style="font-style:normal;font-variant:normal;font-weight:500;font-stretch:normal;font-size:medium;line-height:125%;font-family:'Roboto Mono';-inkscape-font-specification:'Roboto Mono Medium';letter-spacing:0px;word-spacing:0px;fill:#808080;fill-opacity:1;stroke:none;stroke-width:1px;stroke-linecap:butt;stroke-linejoin:miter;stroke-opacity:1"
       d="m 234.38739,197.73565 0,-3.57777 1.14263,0 q 0.25801,0.003 0.48162,0.059 0.22607,0.0565 0.39316,0.17446 0.16955,0.11795 0.26539,0.30224 0.0958,0.18184 0.0934,0.43248 -0.003,0.26539 -0.14744,0.45459 -0.14497,0.18675 -0.3907,0.28996 0.14989,0.0418 0.26539,0.1204 0.11794,0.0762 0.19658,0.1843 0.0786,0.10812 0.1204,0.24081 0.0418,0.13023 0.0418,0.27767 0,0.25555 -0.0934,0.44968 -0.0934,0.19412 -0.26047,0.32436 -0.16464,0.13023 -0.39316,0.19903 -0.22607,0.0663 -0.489,0.0688 l -1.22617,0 z m 0.5922,-1.62179 0,1.14016 0.6438,0 q 0.14007,-0.003 0.25556,-0.0418 0.11549,-0.0418 0.19904,-0.11303 0.0835,-0.0713 0.13023,-0.17447 0.0491,-0.1032 0.0491,-0.23098 0,-0.13515 -0.0418,-0.24081 -0.0418,-0.10812 -0.1204,-0.18184 -0.0786,-0.0737 -0.19167,-0.11303 -0.11303,-0.0418 -0.2531,-0.0442 l -0.67083,0 z m 0,-0.44968 0.56517,0 q 0.13269,-0.003 0.24573,-0.0344 0.11549,-0.0344 0.19904,-0.0983 0.0835,-0.0663 0.13269,-0.15972 0.0491,-0.0958 0.0491,-0.2187 0,-0.13515 -0.0467,-0.23098 -0.0467,-0.0958 -0.13269,-0.15727 -0.0836,-0.0614 -0.19904,-0.0885 -0.11549,-0.0295 -0.25309,-0.0319 l -0.56026,0 0,1.01976 z"
       inkscape:connector-curvature="0" />
    <path
       id="path7379"
       style="font-style:normal;font-variant:normal;font-weight:500;font-stretch:normal;font-size:medium;line-height:125%;font-family:'Roboto Mono';-inkscape-font-specification:'Roboto Mono Medium';letter-spacing:0px;word-spacing:0px;fill:#808080;fill-opacity:1;stroke:none;stroke-width:1px;stroke-linecap:butt;stroke-linejoin:miter;stroke-opacity:1"
       d="m 237.54988,195.0769 1.41784,0 0,2.17221 0.78878,0 0,0.48654 -2.20662,0 0,-0.48654 0.82564,0 0,-1.68322 -0.82564,0 0,-0.48899 z m 0.77649,-0.68804 q 0,-0.1376 0.0885,-0.22606 0.0885,-0.0909 0.24818,-0.0909 0.16218,0 0.25064,0.0909 0.0909,0.0885 0.0909,0.22606 0,0.13761 -0.0909,0.22853 -0.0885,0.0885 -0.25064,0.0885 -0.15972,0 -0.24818,-0.0885 -0.0885,-0.0909 -0.0885,-0.22853 z"
       inkscape:connector-curvature="0" />
    <path
       id="path7381"
       style="font-style:normal;font-variant:normal;font-weight:500;font-stretch:normal;font-size:medium;line-height:125%;font-family:'Roboto Mono';-inkscape-font-specification:'Roboto Mono Medium';letter-spacing:0px;word-spacing:0px;fill:#808080;fill-opacity:1;stroke:none;stroke-width:1px;stroke-linecap:butt;stroke-linejoin:miter;stroke-opacity:1"
       d="m 242.76664,196.4333 q 0,0.28996 -0.0688,0.53814 -0.0688,0.24818 -0.20149,0.43002 -0.13269,0.17938 -0.32682,0.28258 -0.19166,0.10075 -0.4423,0.10075 -0.22607,0 -0.40054,-0.0737 -0.172,-0.0737 -0.29732,-0.21132 l 0,1.25812 -0.58729,0 0,-3.68097 0.5406,0 0.0246,0.26784 q 0.12778,-0.15235 0.30224,-0.23344 0.17692,-0.0836 0.41036,-0.0836 0.2531,0 0.44722,0.0983 0.19658,0.0983 0.32928,0.27767 0.13269,0.17692 0.20149,0.42756 0.0688,0.24819 0.0688,0.55043 l 0,0.0516 z m -0.58729,-0.0516 q 0,-0.17938 -0.0369,-0.33665 -0.0369,-0.15972 -0.11303,-0.27767 -0.0762,-0.1204 -0.19412,-0.1892 -0.11795,-0.0688 -0.28013,-0.0688 -0.19658,0 -0.32436,0.0836 -0.12778,0.0836 -0.20149,0.22361 l 0,1.18931 q 0.0737,0.13761 0.19903,0.22361 0.12778,0.086 0.33173,0.086 0.16218,0 0.28013,-0.0713 0.11795,-0.0712 0.19167,-0.19166 0.0762,-0.12041 0.11057,-0.28013 0.0369,-0.15972 0.0369,-0.3391 l 0,-0.0516 z"
       inkscape:connector-curvature="0" />
    <path
       inkscape:connector-curvature="0"
       id="path5849"
       d="m 283.5943,210.04862 -7.03644,-6.09357 -8.37324,0 c -2.12704,0 -3.83942,-1.71238 -3.83942,-3.83942 l 0,-7.67884 c 0,-2.12704 1.71238,-3.83942 3.83942,-3.83942 l 21.8847,0 c 2.12704,0 3.83942,1.71238 3.83942,3.83942 l 0,7.67884 c 0,2.12704 -1.71238,3.83942 -3.83942,3.83942 l -6.47502,0 0,6.09357 z"
       style="fill:#f2f2f2;fill-opacity:1;stroke:none;stroke-width:10;stroke-linecap:round;stroke-linejoin:miter;stroke-miterlimit:4;stroke-dasharray:none;stroke-opacity:1" />
    <path
       id="path7366"
       style="font-style:normal;font-variant:normal;font-weight:500;font-stretch:normal;font-size:medium;line-height:125%;font-family:Roboto;-inkscape-font-specification:'Roboto Medium';letter-spacing:0px;word-spacing:0px;fill:#808080;fill-opacity:1;stroke:none;stroke-width:1px;stroke-linecap:butt;stroke-linejoin:miter;stroke-opacity:1"
       d="m 274.62063,193.55829 0.48982,0.14695 q -0.2694,0.71024 -0.63676,1.39598 l 0,4.08999 -0.48982,0 0,-3.30628 q -0.29389,0.39186 -0.61228,0.73473 l -0.24491,-0.48982 q 1.05312,-1.22454 1.49395,-2.57155 z m 1.24904,0 0.46533,0.14695 q -0.098,0.41635 -0.24491,0.78371 l 2.66951,0 0,0.46533 q -0.22042,0.48981 -0.51431,0.93065 l -0.39185,-0.2694 q 0.22042,-0.34287 0.36736,-0.66125 l -2.30215,0 q -0.22042,0.61227 -0.61227,1.20005 l -0.41635,-0.31838 q 0.68575,-1.05311 0.97964,-2.27766 z m 0.85718,1.83682 0.48982,0 0,3.20832 q 0,0.34287 -0.12245,0.46532 -0.12246,0.14695 -0.46533,0.14695 -0.44084,0 -0.78371,-0.049 l -0.098,-0.48982 q 0.44083,0.0735 0.88167,0.0735 0.098,0 0.098,-0.22041 l 0,-3.13485 z m 1.42048,0.8082 q 0.44084,1.00413 0.58778,2.05724 l -0.51431,0.14695 q -0.14694,-1.12658 -0.5388,-2.08173 l 0.46533,-0.12246 z m -2.42461,0 0.46533,0.12246 q -0.14694,1.15107 -0.78371,2.13071 l -0.44084,-0.24491 q 0.61228,-1.00413 0.75922,-2.00826 z"
       inkscape:connector-curvature="0" />
    <path
       id="path7368"
       style="font-style:normal;font-variant:normal;font-weight:500;font-stretch:normal;font-size:medium;line-height:125%;font-family:Roboto;-inkscape-font-specification:'Roboto Medium';letter-spacing:0px;word-spacing:0px;fill:#808080;fill-opacity:1;stroke:none;stroke-width:1px;stroke-linecap:butt;stroke-linejoin:miter;stroke-opacity:1"
       d="m 280.4005,193.55829 0.44083,0.098 -0.17143,1.00412 0.95514,0 q -0.0735,1.86132 -0.56329,2.9879 0.34288,0.39185 0.66126,0.8082 l -0.41635,0.31838 q -0.22042,-0.36736 -0.48982,-0.68574 -0.5388,0.75922 -1.05311,1.12658 l -0.29389,-0.41635 q 0.56329,-0.39185 1.00413,-1.12658 -0.36737,-0.44084 -0.8082,-0.83269 0.24491,-0.83269 0.41634,-1.71437 l -0.61227,0 0,-0.46533 0.73473,0 0.19593,-1.10209 z m 0.29389,3.67364 q 0.34287,-0.8082 0.41634,-2.10622 l -0.5388,0 q -0.19592,0.85719 -0.39185,1.56742 0.2694,0.2694 0.51431,0.5388 z m 1.27353,-3.45322 2.81646,0 0,0.51431 q -0.53881,0.63677 -1.17557,1.17557 l 0,0.56329 1.51844,0 0,0.46533 -1.51844,0 0,2.25316 q 0,0.22042 -0.14695,0.31838 -0.12245,0.12246 -0.41634,0.12246 -0.2694,0 -0.51431,-0.049 l -0.0735,-0.44084 q 0.19593,0.049 0.46533,0.049 0.24491,0 0.24491,-0.0735 l 0,-2.17969 -1.59191,0 0,-0.46533 1.59191,0 0,-0.8082 q 0.58779,-0.48982 1.02862,-0.97964 l -2.22867,0 0,-0.46533 z"
       inkscape:connector-curvature="0" />
  </g>
</svg>
