<svg xmlns="http://www.w3.org/2000/svg" height="144mm" width="289mm" viewBox="0 0 1024 512.00003"><g stroke-width="0"><path fill="#fff" d="M1024 0H4v512h1020z"/><path d="M457.56 69.834a36.208 36.208 0 0 0-36.208 36.208 36.208 36.208 0 0 0 2.409 12.833l25.696-12.833.009.017h44.238a36.208 36.208 0 0 0 0-.017 36.208 36.208 0 0 0-36.208-36.208zm235.06 0a36.208 36.208 0 0 0-36.208 36.208 36.208 36.208 0 0 0 0 .017h26.864l.034-.017.009.017h8.964v36.062a36.208 36.208 0 0 0 .195.006 36.208 36.208 0 0 0 36.208-36.062 36.208 36.208 0 0 0-36.208-36.208zm-227.76 51.538v19.856a36.208 36.208 0 0 0 25.258-19.856H464.86zm-16.06 2.044l-17.082 8.512a36.208 36.208 0 0 0 17.082 9.227v-17.812z" fill="#3f51b5"/><path d="M332.292 125.46a36.208 36.208 0 0 0-36.208 36.208 36.208 36.208 0 0 0 36.208 36.208v-33.872h.08l-.017-.034 33.142-16.498a36.208 36.208 0 0 0-33.142-21.754z" fill="#e91e63"/><path d="M676.56 126.92l-9.826 4.906a36.208 36.208 0 0 0 9.826 6.95V126.92z" fill="#3f51b5"/><path d="M569.98 137.14a36.208 36.208 0 0 0-34.894 27.156h30.937l-.017-.034 30.66-15.33a36.208 36.208 0 0 0-26.572-11.768zm35.04 24.82l-29.492 14.746v32.032a36.208 36.208 0 0 0 31.244-35.77 36.208 36.208 0 0 0-1.708-10.935zm-236.52 1.46l-1.415.707h1.389a36.208 36.208 0 0 0 .025-.707zm-20.44 16.06v14.892a36.208 36.208 0 0 0 15.914-14.892H348.06zm186.88 0a36.208 36.208 0 0 0 24.966 28.032V179.48H534.94z" fill="#e91e63"/><path d="M448.8 299.2a36.208 36.208 0 0 0-30.368 35.624 36.208 36.208 0 0 0 3.227 14.892l27.01-13.534v-36.997zm16.06 0v33.434h26.426A36.208 36.208 0 0 0 464.86 299.2zm227.76 1.46a36.208 36.208 0 0 0-.194.009v47.742l.194.356-26.134 13.009a36.208 36.208 0 0 0 26.134 11.169 36.208 36.208 0 0 0 36.208-36.208 36.208 36.208 0 0 0-36.208-36.208zm-16.06 2.92a36.208 36.208 0 0 0-20.294 28.908h20.294V303.58zm-217.54 45.26l.009.017-26.718 13.344a36.208 36.208 0 0 0 23.36 8.644 36.208 36.208 0 0 0 33.142-22.046h-29.799z" fill="#3f51b5"/><g fill="#e91e63"><path d="M332.292 359.06a36.208 36.208 0 0 0-36.208 36.208 36.208 36.208 0 0 0 36.208 36.208 36.208 36.208 0 0 0 34.31-24.966h-34.31v-47.304z"/><path d="M348.06 363.44v23.214l16.206-8.088a36.208 36.208 0 0 0-16.206-15.184zm226.3 7.3v18.396l19.126-9.578a36.208 36.208 0 0 0-19.126-8.862zm-14.6 1.46a36.208 36.208 0 0 0-22.046 19.126h22.046V372.2zm43.8 20.44l-28.324 14.133v.003h-41.035a36.208 36.208 0 0 0 36.208 36.208 36.208 36.208 0 0 0 36.208-36.208 36.208 36.208 0 0 0-2.89-14.148z"/></g></g></svg>