<svg xmlns="http://www.w3.org/2000/svg" width="1092.267" height="546.133" viewBox="0 0 1024.0001 511.99998"><g transform="translate(216.37 -311.964)"><path fill="#fff" d="M-216.37 311.964h1024v512h-1024z"/><path fill="#ececec" d="M-81.346 367.964h415.584v400H-81.346z"/><path fill="#303f9f" d="M-19.11 397.644h82.08v19.74h-82.08z"/><path fill="#999" d="M79.63 397.644h123.635v19.74H79.63zM211.28 397.644h37.402v19.74H211.28z"/><path fill="#303f9f" d="M22.032 430.557h47.792v19.74H22.032z"/><path fill="#999" d="M79.63 430.557h75.843v19.74H79.63z"/><path fill="#d81b60" d="M166.024 430.557h47.792v19.74h-47.792z"/><path fill="#999" d="M79.63 459.356H197.03v19.74H79.63z"/><path fill="#f5a816" d="M207.165 459.356h47.792v19.74h-47.792z"/><path fill="#303f9f" d="M22.032 500.496h47.792v19.74H22.032z"/><path fill="#999" d="M79.63 500.496h47.79v19.74H79.63zM137.226 500.496h88.933v19.74h-88.934z"/><path fill="#303f9f" d="M235.964 500.496h36.038v19.74h-36.038zM79.63 529.295h47.79v19.74H79.63z"/><path fill="#f5a816" d="M137.226 529.295h88.933v19.74h-88.934z"/><path fill="#999" d="M120.77 558.094h122.726v19.74H120.77z"/><path fill="#303f9f" d="M22.032 595.12h47.792v19.74H22.032z"/><path fill="#d81b60" d="M79.63 595.12h116.85v19.74H79.63z"/><path fill="#999" d="M54.944 623.92h88.933v19.74H54.944z"/><path fill="#303f9f" d="M153.682 623.92h36.038v19.74h-36.038zM22.032 652.717H92.6v19.74H22.03z"/><path fill="#999" d="M54.944 681.516h56.608v19.74H54.944z"/><path fill="#f5a816" d="M120.77 681.516h56.607v19.74H120.77z"/><path fill="#999" d="M-19.11 718.542H128.93v19.74H-19.11z"/><path fill="#f5a816" d="M284.1 645.594l23.895 41.39-17.095 9.87-23.896-41.39z"/><path d="M289.458 416.506l-1.33 1.23-1.085-.684-2.555 4.05-6.47 5.986 1.604 1.732-.892 1.414 5.276 3.327L469.22 633.77l11.442-10.582-68.638-74.194h52.085V547.1l52.803 33.286 8.31-13.182L294.05 421.468l-4.592-4.962zm45.48 49.16l15.664 9.875v7.06l-15.665-16.934zm21.9 13.808l10.566 6.662h-10.566v-6.662zm20.257 12.77l22.45 14.153h-22.45v-14.153zm-17.453.127h11.22v12.13l-11.22-12.13zm18.742 20.258h25.203v27.244l-25.203-27.244zm31.438.25l47.405 29.883h-47.405v-29.883z" fill="#d81b60"/><path fill="gray" d="M280.81 428.195h8.082v189.54h-8.08z"/><path d="M284.853 616.633a25.713 25.713 0 0 0-25.713 25.713 25.713 25.713 0 0 0 15.28 23.483v-32.062h20.863v32.045a25.713 25.713 0 0 0 15.283-23.467 25.713 25.713 0 0 0-25.713-25.713z" fill="#303f9f"/><path d="M311.7 634.58c-4.11-12.724-14.838-21.192-26.848-21.192s-22.74 8.468-26.848 21.19l26.848 11.016z" fill="#d81b60"/><path d="M422.824 665.488c-16.28 0-29.39 13.11-29.39 29.39s13.11 29.384 29.39 29.384H643.22a29.32 29.32 0 0 0 29.385-29.385c0-16.28-13.105-29.39-29.385-29.39H422.824zm2.844 10.168a19.22 19.22 0 0 1 19.22 19.22 19.22 19.22 0 0 1-19.22 19.22 19.22 19.22 0 0 1-19.22-19.22 19.22 19.22 0 0 1 19.22-19.22zm72.68 0a19.22 19.22 0 0 1 19.22 19.22 19.22 19.22 0 0 1-19.22 19.22 19.22 19.22 0 0 1-19.22-19.22 19.22 19.22 0 0 1 19.22-19.22zm72.683 0a19.22 19.22 0 0 1 19.22 19.22 19.22 19.22 0 0 1-19.22 19.22 19.22 19.22 0 0 1-19.22-19.22 19.22 19.22 0 0 1 19.22-19.22zm72.684 0a19.22 19.22 0 0 1 19.22 19.22 19.22 19.22 0 0 1-19.22 19.22 19.22 19.22 0 0 1-19.22-19.22 19.22 19.22 0 0 1 19.22-19.22z" fill="gray"/><circle cx="284.852" cy="425.44" r="13.775" fill="#303f9f"/><rect width="188.052" height="109.091" x="438.995" y="546.857" ry="10.653" fill="#303f9f"/><rect width="67.868" height="35.325" x="453.241" y="558.962" rx="3.117" ry="3.117" fill="#fff"/></g></svg>