<svg xmlns="http://www.w3.org/2000/svg" width="512" height="300"><path fill="#fff" d="M0 0h512v300H0z"/><path d="M350.732 144.992h26.09l-38.9 38.888-38.9-38.888h35.757c.234-12.098-4.324-24.118-13.597-33.39-18.39-18.382-48.253-18.382-66.642 0-18.39 18.385-18.39 48.317 0 66.7 14.46 14.455 36.15 17.52 53.597 9.192l11.553 11.548c-23.97 14.22-55.404 11.077-76.31-9.663-24.518-24.512-24.44-64.264.08-88.775 24.755-24.59 64.285-24.67 88.882-.08 12.26 12.257 18.39 28.362 18.39 44.467z" fill="#ad1457"/><g style="line-height:125%;-inkscape-font-specification:Droid Sans" font-size="25.648" letter-spacing="0" word-spacing="0" fill="#ad1457" font-family="Droid Sans" text-anchor="middle"><path d="M207.493 58.225h-8.18V42.472h8.18v1.767h-6.176v4.87h5.766v1.745h-5.766v5.603h6.176v1.767m5.357.001l-4.042-11.83h2.026l2.145 6.582c.078.238.17.543.28.916.107.374.215.755.322 1.142.108.388.205.755.29 1.1.095.344.156.606.185.786h.075c.036-.18.097-.44.183-.786.087-.344.184-.71.29-1.1.11-.386.217-.767.325-1.14.107-.374.2-.68.28-.917l2.145-6.583h2.026l-4.04 11.83h-2.49m13.073.215c-.79 0-1.512-.133-2.166-.398a4.696 4.696 0 0 1-1.692-1.164c-.467-.51-.83-1.142-1.09-1.896-.257-.755-.387-1.617-.387-2.586 0-.977.12-1.85.356-2.62.237-.767.57-1.417 1.002-1.95a4.3 4.3 0 0 1 1.542-1.227 4.678 4.678 0 0 1 1.994-.42c.71 0 1.35.128 1.918.387.568.25 1.05.61 1.444 1.077.395.46.697 1.016.906 1.67.215.647.323 1.365.323 2.155v1.217h-7.458c.035 1.386.326 2.406.873 3.06.553.653 1.372.98 2.457.98a8.792 8.792 0 0 0 1.918-.204c.295-.073.58-.16.852-.26.273-.107.55-.226.83-.355v1.746c-.288.136-.57.255-.852.355-.273.1-.556.182-.85.247-.29.065-.59.11-.906.14-.31.03-.647.043-1.014.043m-.485-10.634c-.82 0-1.47.28-1.95.84-.475.56-.75 1.376-.83 2.446h5.302c0-.488-.05-.934-.15-1.336a2.84 2.84 0 0 0-.453-1.045c-.2-.287-.46-.51-.776-.667-.315-.158-.696-.237-1.142-.237m15.013 10.421v-7.618c0-.934-.19-1.634-.57-2.1-.375-.468-.964-.7-1.768-.7-.583 0-1.07.092-1.466.28a2.324 2.324 0 0 0-.96.828c-.237.367-.41.816-.517 1.347a9.99 9.99 0 0 0-.15 1.832v6.13h-1.96v-11.83h1.594l.28 1.595h.108c.18-.31.39-.576.636-.798.25-.23.524-.42.82-.572.293-.15.606-.262.936-.334.33-.07.67-.107 1.014-.107 1.315 0 2.303.344 2.964 1.033.668.682 1.002 1.778 1.002 3.286v7.725h-1.962m9.204-1.387a7.898 7.898 0 0 0 .905-.076 4.827 4.827 0 0 0 .7-.152v1.487c-.093.043-.21.086-.355.13-.144.043-.302.08-.474.107a4.53 4.53 0 0 1-.54.076 5.16 5.16 0 0 1-.55.032c-.444 0-.857-.057-1.238-.172a2.344 2.344 0 0 1-.992-.593c-.273-.28-.488-.657-.646-1.13-.16-.482-.238-1.086-.238-1.81V47.87h-1.67v-.872l1.67-.84.84-2.48h1.132v2.716h2.975v1.476h-2.975v6.864c0 .696.11 1.22.334 1.573.23.352.604.528 1.12.528m9.929 1.39V42.472h2.004v13.964h6.176v1.79h-8.18m20.241-5.938c0 .984-.122 1.86-.366 2.63-.24.76-.584 1.403-1.036 1.928a4.398 4.398 0 0 1-1.628 1.185c-.64.274-1.358.41-2.155.41a5.04 5.04 0 0 1-2.047-.41 4.631 4.631 0 0 1-1.628-1.184c-.452-.525-.808-1.168-1.067-1.93-.25-.768-.377-1.644-.377-2.628 0-.977.12-1.843.357-2.597.244-.76.59-1.4 1.034-1.917.447-.524.99-.92 1.63-1.185.646-.273 1.368-.41 2.165-.41.74 0 1.423.137 2.048.41.625.266 1.164.66 1.617 1.185.46.518.815 1.157 1.067 1.918.26.755.388 1.62.388 2.598m-8.278 0c0 1.5.245 2.632.733 3.394.496.754 1.297 1.13 2.404 1.13 1.106 0 1.9-.376 2.382-1.13.488-.762.733-1.893.733-3.394 0-1.5-.25-2.622-.745-3.362-.49-.747-1.286-1.12-2.393-1.12-1.106 0-1.904.373-2.393 1.12-.482.74-.723 1.86-.723 3.362m21.039-.003c0 .984-.122 1.86-.366 2.63-.237.76-.582 1.403-1.035 1.928a4.394 4.394 0 0 1-1.627 1.185c-.64.274-1.358.41-2.156.41-.74 0-1.423-.136-2.048-.41a4.628 4.628 0 0 1-1.627-1.184c-.453-.525-.81-1.168-1.067-1.93-.252-.768-.378-1.644-.378-2.628 0-.977.12-1.843.356-2.597.244-.76.59-1.4 1.035-1.917.445-.524.988-.92 1.627-1.185.647-.273 1.37-.41 2.167-.41.74 0 1.422.137 2.048.41a4.36 4.36 0 0 1 1.616 1.185c.46.518.817 1.157 1.068 1.918.26.755.388 1.62.388 2.598m-8.277 0c0 1.5.243 2.632.732 3.394.495.754 1.297 1.13 2.403 1.13 1.107 0 1.9-.376 2.382-1.13.49-.762.733-1.893.733-3.394 0-1.5-.248-2.622-.744-3.362-.488-.747-1.286-1.12-2.392-1.12-1.107 0-1.905.373-2.393 1.12-.48.74-.72 1.86-.72 3.362m16.736 6.149c-.424 0-.808-.047-1.153-.14a4.362 4.362 0 0 1-.938-.366 3.707 3.707 0 0 1-.733-.55 5.294 5.294 0 0 1-.56-.657h-.13l.065.7c.014.187.03.38.043.582.016.193.023.348.023.463v5.053H295.7V46.394h1.596l.28 1.595h.087c.165-.253.352-.486.56-.7.21-.224.45-.415.722-.573.28-.165.593-.294.938-.387.345-.1.733-.15 1.164-.15.676 0 1.29.128 1.843.387a3.716 3.716 0 0 1 1.412 1.163c.395.51.7 1.146.916 1.907.216.762.324 1.645.324 2.65 0 1.014-.108 1.904-.324 2.673-.215.76-.52 1.4-.916 1.918a3.81 3.81 0 0 1-1.412 1.174c-.553.26-1.167.388-1.843.388m-.377-10.634c-.546 0-1.01.082-1.39.248a2.17 2.17 0 0 0-.917.754c-.23.337-.402.758-.517 1.26a9.413 9.413 0 0 0-.183 1.778v.442c0 .725.046 1.372.14 1.94.1.56.266 1.034.496 1.422.236.38.548.67.936.872.388.194.873.29 1.455.29.97 0 1.683-.39 2.135-1.173.46-.784.69-1.908.69-3.374 0-1.494-.23-2.61-.69-3.35-.452-.74-1.17-1.11-2.155-1.11" style="text-align:center;-inkscape-font-specification:Droid Sans"/><path d="M219.717 75.82h-1.1v-7.635h-2.46v-.965h6.013v.965h-2.453v7.634m7.643.001v-4.16c0-.51-.105-.89-.313-1.146-.204-.255-.525-.382-.965-.382-.317 0-.584.05-.8.153a1.27 1.27 0 0 0-.523.452c-.13.2-.225.445-.284.736a5.41 5.41 0 0 0-.082 1v3.346h-1.07v-9.152h1.07v2.717l-.047.847h.06c.097-.17.212-.314.346-.436.137-.125.286-.23.447-.31.16-.084.33-.144.512-.184.18-.04.365-.058.553-.058.718 0 1.257.188 1.618.564.365.373.547.97.547 1.794v4.217h-1.07m5.866-6.574c.114 0 .24.006.382.017.14.01.263.023.365.042l-.14.988a4.475 4.475 0 0 0-.342-.047 2.492 2.492 0 0 0-.324-.023c-.247 0-.473.05-.677.153-.205.098-.38.24-.53.43-.145.183-.26.407-.34.67-.08.258-.12.547-.12.864v3.482h-1.07v-6.46h.87l.13 1.183h.047a8.1 8.1 0 0 1 .312-.488c.113-.157.24-.294.376-.412.14-.12.298-.217.47-.288.173-.074.37-.11.59-.11m4.56 6.692c-.43 0-.825-.073-1.182-.218a2.584 2.584 0 0 1-.924-.636 2.92 2.92 0 0 1-.594-1.035 4.39 4.39 0 0 1-.212-1.413c0-.533.065-1.01.194-1.43.13-.42.312-.773.548-1.064.235-.294.515-.517.84-.67.33-.153.693-.23 1.09-.23.388 0 .737.07 1.047.212.31.138.573.334.79.588.215.25.38.555.493.912.118.353.177.745.177 1.176v.666h-4.072c.02.757.18 1.313.477 1.67.302.357.75.535 1.34.535a4.746 4.746 0 0 0 1.047-.11c.16-.04.316-.087.465-.14.15-.06.3-.125.453-.196v.953a4.615 4.615 0 0 1-.928.331c-.157.035-.322.06-.494.076-.17.016-.353.024-.554.024m-.264-5.805c-.447 0-.802.153-1.065.458-.26.306-.41.75-.453 1.335h2.894c0-.266-.027-.51-.082-.73a1.542 1.542 0 0 0-.247-.57 1.116 1.116 0 0 0-.424-.364 1.395 1.395 0 0 0-.623-.128m7.799 5.686l-.217-.895h-.047c-.13.176-.26.33-.388.46a1.859 1.859 0 0 1-.934.493c-.19.04-.407.06-.654.06-.27 0-.52-.04-.748-.12a1.58 1.58 0 0 1-.594-.346 1.67 1.67 0 0 1-.388-.6 2.382 2.382 0 0 1-.14-.86c0-.642.224-1.136.675-1.48.455-.346 1.145-.534 2.07-.565l1.084-.042v-.405c0-.263-.03-.483-.09-.66a.975.975 0 0 0-.247-.423.893.893 0 0 0-.4-.235 1.886 1.886 0 0 0-.54-.07c-.327 0-.63.047-.913.14-.278.095-.547.21-.806.342l-.377-.806c.29-.157.614-.29.97-.4.358-.11.733-.164 1.125-.164.4 0 .745.04 1.035.123.295.08.536.206.724.382.193.172.336.393.43.664.095.27.142.598.142.982v4.423h-.77m-1.966-.748c.24 0 .46-.037.665-.112a1.43 1.43 0 0 0 .53-.335c.15-.153.265-.343.347-.57.087-.232.13-.502.13-.812v-.582l-.84.042c-.354.015-.65.055-.89.117-.24.062-.43.15-.576.264a.942.942 0 0 0-.305.406 1.426 1.426 0 0 0-.094.535c0 .36.095.626.283.794.192.168.443.252.753.252m8.711-.115h-.048a2.52 2.52 0 0 1-.306.383 1.87 1.87 0 0 1-.4.31c-.15.092-.317.162-.506.213-.188.05-.4.077-.635.077a2.32 2.32 0 0 1-1-.212c-.302-.14-.56-.35-.777-.63a3.084 3.084 0 0 1-.5-1.046 5.339 5.339 0 0 1-.177-1.448c0-.553.06-1.037.178-1.453.118-.42.284-.77.5-1.054.216-.282.475-.494.777-.635a2.292 2.292 0 0 1 1-.216c.23 0 .44.025.63.076.188.05.356.12.505.206.153.086.29.186.406.3.118.114.22.233.306.36h.07c-.01-.135-.023-.262-.034-.384l-.024-.31a3.806 3.806 0 0 1-.012-.26v-2.564h1.07v9.15h-.864l-.16-.864m-1.687.095c.3 0 .55-.046.754-.137.208-.09.374-.227.5-.41.13-.186.223-.415.282-.69.063-.278.098-.6.106-.97v-.24c0-.397-.027-.748-.082-1.054-.05-.31-.14-.57-.27-.777a1.218 1.218 0 0 0-.507-.477c-.212-.11-.476-.164-.794-.164-.53 0-.92.213-1.172.64-.247.428-.37 1.042-.37 1.842 0 .82.123 1.43.37 1.835.25.4.645.6 1.183.6m14.19-7.836v5.574c0 .447-.065.863-.195 1.247-.13.385-.325.72-.588 1-.26.283-.587.505-.983.665-.393.16-.856.242-1.39.242-.5 0-.944-.075-1.33-.224a2.675 2.675 0 0 1-.97-.647 2.77 2.77 0 0 1-.588-1 4.016 4.016 0 0 1-.2-1.305v-5.54h1.1v5.6c0 .686.168 1.217.505 1.593.342.377.855.565 1.542.565.35 0 .65-.053.9-.16.25-.105.457-.254.618-.446.16-.192.28-.42.36-.688a3.31 3.31 0 0 0 .122-.876v-5.6h1.095m-3.854-.835c.086-.113.174-.245.265-.394.094-.15.186-.303.276-.46.093-.16.182-.32.264-.476.082-.16.155-.308.218-.44h1.288v.123c-.063.106-.157.24-.282.4-.122.156-.26.32-.412.494-.15.173-.304.342-.465.506-.156.16-.303.296-.44.406h-.712v-.16m10.014 9.446v-4.16c0-.51-.103-.89-.31-1.146-.204-.255-.526-.382-.965-.382-.318 0-.585.05-.8.153-.216.102-.39.252-.524.452-.128.2-.223.445-.28.736-.056.29-.084.623-.084 1v3.346h-1.07v-6.46h.87l.153.872h.058c.098-.17.214-.314.347-.436a2.057 2.057 0 0 1 .959-.494c.18-.04.365-.058.553-.058.718 0 1.257.188 1.618.564.365.373.547.97.547 1.794v4.217h-1.07m4.141.002h-1.07v-6.46h1.07v6.46m-1.153-8.206c0-.235.06-.405.177-.51.12-.107.27-.16.447-.16.086 0 .167.014.24.04.08.025.146.064.2.12.06.054.105.124.136.21a.752.752 0 0 1 .053.3c0 .228-.062.398-.188.512a.637.637 0 0 1-.44.165.64.64 0 0 1-.448-.164c-.118-.11-.177-.28-.177-.512m5.684 8.322c-.397 0-.767-.06-1.112-.183a2.298 2.298 0 0 1-.9-.588 2.8 2.8 0 0 1-.6-1.03c-.146-.42-.218-.922-.218-1.51 0-.616.074-1.138.223-1.565.15-.43.353-.78.612-1.046.262-.27.568-.467.917-.588.35-.122.724-.182 1.124-.182.307 0 .605.033.895.1.294.066.54.15.735.247l-.317.906c-.09-.04-.19-.076-.3-.11a2.701 2.701 0 0 0-.342-.1 2.567 2.567 0 0 0-.346-.072c-.114-.02-.22-.03-.323-.03-.615 0-1.064.2-1.347.595-.282.39-.423 1.002-.423 1.834 0 .827.14 1.433.423 1.817.287.38.72.57 1.3.57.318 0 .605-.034.86-.104.258-.075.494-.16.706-.26v.954c-.213.113-.44.2-.684.258-.24.06-.533.09-.882.09m6.747-.12l-.218-.895h-.047c-.13.176-.26.33-.388.46a1.849 1.849 0 0 1-.937.493c-.188.04-.406.06-.653.06-.27 0-.52-.04-.747-.12a1.572 1.572 0 0 1-.594-.346 1.673 1.673 0 0 1-.39-.6 2.382 2.382 0 0 1-.14-.86c0-.642.225-1.136.676-1.48.455-.346 1.145-.534 2.07-.565l1.083-.042v-.405c0-.263-.03-.483-.09-.66a.974.974 0 0 0-.246-.423.893.893 0 0 0-.4-.235 1.886 1.886 0 0 0-.54-.07c-.327 0-.63.047-.913.14-.278.095-.546.21-.805.342l-.377-.806c.29-.157.614-.29.97-.4.358-.11.732-.164 1.125-.164.4 0 .745.04 1.035.123.294.08.536.206.724.382.192.172.335.393.43.664.093.27.14.598.14.982v4.423h-.77m-1.965-.748c.24 0 .46-.037.665-.112.203-.074.38-.186.53-.335a1.58 1.58 0 0 0 .346-.57c.086-.232.13-.502.13-.812v-.582l-.842.042c-.353.015-.65.055-.888.117-.24.062-.432.15-.577.264a.95.95 0 0 0-.305.406 1.446 1.446 0 0 0-.094.535c0 .36.095.626.284.794.192.168.443.252.753.252" style="text-align:center;-inkscape-font-specification:Droid Sans" font-size="14"/></g><path d="M19.96 109.352h74.354v68.182H19.96z" fill="#303f9f"/><path d="M189.686 116.435v5.397H101.84v7.288h87.846v5.397l7.833-4.522 7.833-4.516-7.834-4.523zm-34.426 17.207v5.398h-53.42v7.287h53.42v5.397l7.833-4.522 7.834-4.515-7.834-4.523zm17.213 17.208v5.397H101.84v7.287h70.633v5.398l7.833-4.522 7.834-4.516-7.834-4.522z" fill="#e91e6f"/><path d="M405.1 97.556h86.94v116.46H405.1z" fill="#303f9f"/><path d="M414.823 106.247h67.492v25.638h-67.492zm0 34.413h67.492v25.64h-67.492zm0 34.416h67.492v25.64h-67.492z" fill="#3f51b5"/><path d="M453.017 94.953l-5.997-10.35-5.97-10.353h7.126c-3.894-15.235-22.918-26.456-51.37-26.456-28.452 0-52.473 15.733-52.473 35.248h-8.607c0-24.164 30.114-43.852 61.08-43.852 30.965 0 56.102 15.09 60.192 35.06h7.988l-5.998 10.352zM340.81 206.198l5.997 10.352 5.97 10.35h-7.126c3.895 15.236 22.92 26.457 51.37 26.457 28.453 0 52.474-15.733 52.474-35.248h8.607c0 24.164-30.113 43.85-61.08 43.85-30.964 0-56.1-15.09-60.19-35.06h-7.99l6-10.35z" style="text-indent:0;text-align:start;line-height:normal;text-transform:none;block-progression:tb;-inkscape-font-specification:Sans" color="#000" fill="#e91e6f" overflow="visible" font-family="Sans"/><g style="line-height:125%;-inkscape-font-specification:Droid Sans" font-size="32" letter-spacing="0" word-spacing="0" fill="#e91e6f" font-family="Droid Sans"><path d="M354.766 25.38v3.552h-1.094v-8.6h2.094c1.044 0 1.814.203 2.312.607.5.403.748 1.014.748 1.834 0 .34-.05.64-.147.894a2.12 2.12 0 0 1-.924 1.111c-.205.12-.415.22-.63.3l2.34 3.852h-1.287l-2.067-3.553h-1.347m0-.93h.965c.354 0 .654-.033.9-.1.248-.07.45-.173.607-.306.16-.137.277-.306.347-.506a2.05 2.05 0 0 0 .112-.71c0-.284-.04-.523-.123-.72-.08-.195-.2-.356-.365-.48a1.496 1.496 0 0 0-.618-.272 3.783 3.783 0 0 0-.883-.088h-.94v3.182m8.419 4.603c-.43 0-.825-.073-1.182-.218a2.571 2.571 0 0 1-.924-.636 2.881 2.881 0 0 1-.595-1.035c-.14-.41-.212-.88-.212-1.41 0-.534.065-1.01.194-1.43.13-.42.312-.774.547-1.064a2.34 2.34 0 0 1 .842-.67c.33-.153.692-.23 1.088-.23.388 0 .737.07 1.047.212.31.137.574.333.79.588.215.25.38.555.494.912.118.352.176.745.176 1.176v.664h-4.07c.02.757.178 1.314.476 1.67.302.358.75.536 1.34.536a4.736 4.736 0 0 0 1.048-.112c.16-.04.316-.086.465-.14.148-.06.3-.124.452-.195v.953c-.157.074-.312.14-.465.194-.15.055-.304.1-.464.135-.157.034-.322.06-.495.076a6.25 6.25 0 0 1-.553.023m-.264-5.806c-.447 0-.802.153-1.064.46-.26.305-.41.75-.453 1.334h2.894c0-.267-.027-.51-.082-.73a1.544 1.544 0 0 0-.247-.57 1.107 1.107 0 0 0-.424-.364 1.368 1.368 0 0 0-.623-.13m9.136-.769v.664l-1.16.16c.11.136.203.313.278.528.074.212.112.453.112.724 0 .298-.047.574-.142.83-.09.25-.23.468-.417.652-.185.184-.414.33-.69.435a2.735 2.735 0 0 1-.958.153h-.258a1.44 1.44 0 0 1-.212-.023c-.067.04-.134.084-.2.135a1.14 1.14 0 0 0-.177.165 1.03 1.03 0 0 0-.13.21.732.732 0 0 0-.046.26c0 .106.023.192.07.26.047.062.11.11.19.146a.93.93 0 0 0 .287.07c.11.012.225.018.347.018h1.036c.365 0 .673.048.924.142.25.09.455.214.612.37.16.158.277.344.347.56.07.21.105.437.105.676 0 .345-.065.655-.194.93-.125.274-.32.505-.582.693-.262.193-.596.34-1 .442-.4.102-.872.153-1.418.153-.42 0-.786-.04-1.1-.123a2.211 2.211 0 0 1-.782-.36 1.505 1.505 0 0 1-.47-.57 1.738 1.738 0 0 1-.154-.747c0-.235.037-.443.112-.623.078-.176.182-.33.312-.46.13-.128.278-.234.447-.316.172-.083.35-.145.535-.19a.937.937 0 0 1-.406-.35.99.99 0 0 1-.16-.554c0-.24.064-.445.19-.618.125-.176.323-.347.594-.512a1.688 1.688 0 0 1-.465-.288 2.015 2.015 0 0 1-.353-.423 2.248 2.248 0 0 1-.224-.523 2.255 2.255 0 0 1-.076-.582c0-.35.05-.66.147-.935.098-.275.243-.508.435-.7.193-.192.432-.34.718-.44.287-.103.62-.154 1-.154.145 0 .295.012.447.035.157.02.29.048.395.084h2.135m-4.77 7.516c0 .145.024.28.075.406a.78.78 0 0 0 .248.323c.117.09.27.16.458.21.193.056.43.083.712.083.73 0 1.275-.113 1.636-.34.365-.224.547-.548.547-.97 0-.18-.024-.33-.07-.442a.571.571 0 0 0-.236-.27 1.148 1.148 0 0 0-.423-.13 5.152 5.152 0 0 0-.648-.034h-1.035c-.136 0-.28.015-.43.047a1.017 1.017 0 0 0-.716.528c-.08.153-.118.35-.118.588m.54-5.44c0 .45.107.786.32 1.006.21.22.51.33.9.33s.687-.11.887-.325c.204-.218.306-.56.306-1.028 0-.482-.105-.837-.312-1.064-.204-.228-.502-.34-.895-.342-.388 0-.686.118-.894.353-.21.235-.313.59-.313 1.07m6.56 4.379h-1.07v-6.458h1.07v6.458m-1.153-8.205c0-.235.06-.406.177-.512a.658.658 0 0 1 .448-.16c.086 0 .166.015.24.043a.521.521 0 0 1 .336.329.746.746 0 0 1 .053.3c0 .227-.063.398-.188.512a.647.647 0 0 1-.442.163.644.644 0 0 1-.447-.164c-.117-.11-.176-.282-.176-.513m7.077 6.435c0 .315-.057.59-.17.825-.115.235-.28.433-.495.594-.212.155-.47.273-.77.352a4.09 4.09 0 0 1-1.02.117c-.426 0-.793-.036-1.1-.107a2.77 2.77 0 0 1-.805-.3v-.976c.122.063.257.125.406.188a5.179 5.179 0 0 0 .977.277c.176.027.35.04.523.04.255 0 .47-.02.648-.064.18-.043.325-.104.435-.182a.728.728 0 0 0 .248-.294.984.984 0 0 0 .017-.718.781.781 0 0 0-.217-.288 1.962 1.962 0 0 0-.424-.294 8.48 8.48 0 0 0-.694-.33c-.282-.12-.537-.24-.765-.358a2.723 2.723 0 0 1-.57-.394 1.545 1.545 0 0 1-.365-.5 1.73 1.73 0 0 1-.124-.682c0-.275.053-.518.16-.73a1.52 1.52 0 0 1 .458-.54c.196-.146.432-.256.706-.33.275-.075.58-.112.918-.112.38 0 .727.04 1.04.124.32.082.62.19.9.323l-.37.865a6.57 6.57 0 0 0-.788-.294 2.62 2.62 0 0 0-.817-.13c-.4 0-.697.067-.89.2a.638.638 0 0 0-.287.56c0 .136.022.256.065.358a.84.84 0 0 0 .236.288c.11.09.257.182.44.276.186.09.415.192.69.306.282.118.533.235.753.353.222.118.412.25.57.4.156.145.276.312.358.5.083.188.124.413.124.676m3.523 1.014a4.715 4.715 0 0 0 .495-.04c.083-.012.157-.026.224-.042.07-.015.123-.03.16-.04v.81a1.308 1.308 0 0 1-.196.07 1.75 1.75 0 0 1-.258.06c-.095.02-.193.034-.295.042-.102.01-.202.017-.3.017a2.32 2.32 0 0 1-.676-.095 1.27 1.27 0 0 1-.543-.323 1.595 1.595 0 0 1-.353-.618c-.086-.263-.13-.592-.13-.988V23.28h-.91v-.477l.91-.46.46-1.35h.618v1.48h1.623v.806h-1.623v3.746c0 .38.06.667.182.86.126.19.33.287.612.287m4.936-5.816c.114 0 .24.006.383.018.14.007.262.02.364.04l-.142.99a4.417 4.417 0 0 0-.34-.048 2.36 2.36 0 0 0-.325-.024 1.513 1.513 0 0 0-1.206.583c-.145.184-.26.408-.34.67-.08.26-.12.547-.12.865v3.482h-1.07v-6.458h.87l.13 1.182h.048c.098-.17.202-.33.312-.488.113-.157.24-.294.376-.412.14-.12.298-.218.47-.288.173-.075.37-.112.59-.112m7.272 3.334a4.75 4.75 0 0 1-.2 1.436c-.13.416-.318.766-.565 1.053-.244.28-.54.497-.89.646-.348.15-.74.223-1.176.223-.404 0-.777-.075-1.118-.224a2.559 2.559 0 0 1-.888-.647 3.186 3.186 0 0 1-.583-1.054 4.619 4.619 0 0 1-.206-1.435c0-.532.064-1.005.194-1.417.133-.415.32-.764.564-1.046a2.31 2.31 0 0 1 .89-.647c.352-.15.746-.224 1.18-.224.405 0 .778.075 1.12.224.34.145.635.36.882.647.25.282.445.63.582 1.046a4.4 4.4 0 0 1 .212 1.418m-4.518 0c0 .82.133 1.438.4 1.854.27.41.708.617 1.312.617.604 0 1.037-.205 1.3-.616.267-.416.4-1.034.4-1.853 0-.82-.135-1.43-.406-1.834-.267-.408-.702-.612-1.306-.612-.604 0-1.04.204-1.306.612-.263.404-.394 1.015-.394 1.835m13.339 2.375h-.047c-.086.133-.188.26-.306.382-.114.117-.247.22-.4.31a1.99 1.99 0 0 1-.506.213c-.188.05-.4.076-.635.076-.366 0-.7-.07-1-.213a2.065 2.065 0 0 1-.778-.63 3.048 3.048 0 0 1-.5-1.046 5.303 5.303 0 0 1-.177-1.446c0-.552.06-1.037.177-1.452.117-.42.284-.77.5-1.053.216-.283.474-.495.777-.636a2.27 2.27 0 0 1 1-.218c.23 0 .44.026.628.077a2.117 2.117 0 0 1 .912.505c.118.114.22.234.306.36h.07c-.01-.134-.023-.262-.035-.383-.006-.102-.014-.206-.022-.312a3.78 3.78 0 0 1-.012-.26V19.78h1.07v9.152h-.864l-.16-.865m-1.687.094c.298 0 .55-.044.753-.134.208-.09.374-.228.5-.412.13-.184.223-.414.282-.688.063-.278.098-.602.106-.97v-.242c0-.396-.027-.746-.082-1.052-.05-.31-.14-.57-.27-.777a1.222 1.222 0 0 0-.507-.476c-.212-.11-.476-.166-.794-.166-.53 0-.92.214-1.17.64-.248.43-.372 1.042-.372 1.842 0 .82.125 1.43.372 1.835.25.4.645.6 1.183.6m7.313.889c-.432 0-.826-.073-1.183-.218a2.571 2.571 0 0 1-.924-.636 2.907 2.907 0 0 1-.593-1.035c-.14-.41-.212-.88-.212-1.41 0-.534.065-1.01.195-1.43.13-.42.31-.774.547-1.064.235-.294.515-.518.84-.67.33-.153.693-.23 1.09-.23.388 0 .737.07 1.047.212.31.137.572.333.788.588.216.25.38.555.494.912.118.352.177.745.177 1.176v.664h-4.072c.02.757.18 1.314.478 1.67.302.358.75.536 1.34.536a4.724 4.724 0 0 0 1.049-.112c.16-.04.315-.086.464-.14.15-.06.302-.124.454-.195v.953a4.77 4.77 0 0 1-.464.194c-.15.055-.304.1-.465.135-.157.034-.322.06-.494.076a6.226 6.226 0 0 1-.552.023m-.265-5.806c-.447 0-.802.153-1.065.46-.26.305-.41.75-.453 1.334h2.895c0-.267-.028-.51-.083-.73a1.527 1.527 0 0 0-.247-.57 1.112 1.112 0 0 0-.423-.364 1.373 1.373 0 0 0-.624-.13" font-size="14"/><path d="M419.96 29.05c-.396 0-.755-.062-1.077-.183a1.808 1.808 0 0 1-.782-.588c-.2-.272-.33-.615-.393-1.03-.06-.42-.03-.924.088-1.512.12-.616.3-1.137.535-1.565.236-.43.51-.78.824-1.046.314-.27.657-.467 1.03-.59.376-.12.764-.18 1.164-.18.306 0 .6.032.877.1.278.066.506.148.682.246l-.5.906a2.427 2.427 0 0 0-.276-.113c-.1-.04-.21-.072-.323-.1-.11-.03-.22-.055-.33-.07-.11-.02-.215-.03-.317-.03-.616 0-1.106.198-1.47.594-.362.393-.624 1.005-.79 1.836-.164.827-.142 1.433.066 1.818.208.38.602.57 1.182.57.318 0 .612-.035.883-.106.27-.074.522-.16.754-.26l-.19.954c-.234.114-.48.2-.734.26-.25.058-.55.087-.9.087m6.769-.116l-.042-.894h-.047c-.164.176-.325.33-.482.458a2.278 2.278 0 0 1-1.03.494c-.195.04-.416.06-.663.06-.27 0-.512-.04-.724-.118a1.225 1.225 0 0 1-.524-.347 1.295 1.295 0 0 1-.27-.6 2.376 2.376 0 0 1 .028-.86c.13-.642.455-1.136.977-1.48.52-.346 1.25-.534 2.182-.566l1.09-.042.08-.406c.056-.262.072-.482.048-.66a.784.784 0 0 0-.16-.422.692.692 0 0 0-.357-.235 1.777 1.777 0 0 0-.53-.07 3.09 3.09 0 0 0-.935.14c-.298.094-.59.208-.877.34l-.218-.804c.322-.156.673-.29 1.053-.4.382-.11.768-.164 1.16-.164.4 0 .738.04 1.012.124.275.078.49.205.648.382.156.172.255.394.294.665.04.27.02.597-.06.982l-.882 4.422h-.77m-1.818-.747c.24 0 .468-.038.688-.112.22-.075.418-.186.594-.335.18-.153.336-.343.465-.57.134-.232.232-.503.295-.813l.112-.582-.847.04a4.66 4.66 0 0 0-.912.12c-.25.062-.46.15-.63.264a1.24 1.24 0 0 0-.388.406c-.094.156-.16.335-.2.535-.07.36-.03.625.124.794.156.168.39.253.7.253m5.646.748h-1.07l1.83-9.152h1.07l-1.83 9.152m3.13 0h-1.07l1.83-9.152h1.07l-1.83 9.152m6.295-6.576c.37 0 .688.07.96.212.273.14.49.353.646.635.16.278.257.625.288 1.04.037.417 0 .9-.11 1.448a6.061 6.061 0 0 1-.47 1.46c-.2.415-.436.764-.707 1.046a2.607 2.607 0 0 1-1.947.853 2.27 2.27 0 0 1-.618-.077 1.831 1.831 0 0 1-.465-.2 1.5 1.5 0 0 1-.34-.3 1.864 1.864 0 0 1-.237-.36h-.07l-.383.82h-.782l1.83-9.153h1.07l-.44 2.21c-.027.14-.06.286-.094.443-.035.152-.07.296-.106.43-.04.156-.076.31-.112.458h.047c.118-.137.246-.264.383-.382.137-.117.29-.22.46-.306.167-.086.35-.152.546-.2.2-.05.418-.076.653-.076m-.388.888c-.315 0-.588.05-.82.153-.227.098-.425.25-.593.453-.17.204-.31.46-.424.765a7.004 7.004 0 0 0-.294 1.076 6.13 6.13 0 0 0-.13 1.06c-.008.305.03.564.11.776a.973.973 0 0 0 .413.476c.192.106.447.16.765.16.53 0 .96-.215 1.294-.642.338-.427.587-1.04.747-1.84.16-.816.156-1.426-.012-1.83-.17-.404-.522-.606-1.06-.606m6.856 5.686l-.04-.894h-.05c-.163.176-.324.33-.48.458a2.248 2.248 0 0 1-1.031.494c-.196.04-.417.06-.664.06-.27 0-.512-.04-.724-.118a1.225 1.225 0 0 1-.524-.347 1.316 1.316 0 0 1-.27-.6 2.38 2.38 0 0 1 .03-.86c.13-.642.454-1.136.976-1.48.52-.346 1.25-.534 2.183-.566l1.087-.042.082-.406a2.02 2.02 0 0 0 .046-.66.8.8 0 0 0-.158-.422.705.705 0 0 0-.36-.235 1.764 1.764 0 0 0-.53-.07c-.324 0-.636.046-.934.14-.298.094-.59.208-.877.34l-.218-.804c.32-.156.672-.29 1.053-.4.38-.11.766-.164 1.16-.164.4 0 .736.04 1.01.124.275.078.49.205.648.382.158.172.256.394.295.665.04.27.02.597-.06.982l-.882 4.422h-.77m-1.818-.747c.24 0 .468-.038.688-.112.22-.075.418-.186.594-.335.18-.153.336-.343.465-.57.133-.232.232-.503.294-.813l.112-.582-.847.04c-.356.017-.66.056-.91.12-.252.062-.462.15-.63.264-.165.11-.295.245-.39.406-.093.156-.16.335-.2.535-.07.36-.028.625.125.794.157.168.39.253.7.253m7.026.866c-.397 0-.755-.062-1.077-.183a1.8 1.8 0 0 1-.783-.588c-.2-.272-.33-.615-.394-1.03-.06-.42-.03-.924.09-1.512.12-.616.3-1.137.534-1.565.235-.43.51-.78.824-1.046.313-.27.657-.467 1.03-.59.376-.12.764-.18 1.164-.18.306 0 .598.032.877.1.278.066.506.148.682.246l-.5.906a2.427 2.427 0 0 0-.276-.113c-.1-.04-.21-.072-.323-.1-.11-.03-.22-.055-.33-.07-.11-.02-.215-.03-.317-.03-.616 0-1.106.198-1.47.594-.362.393-.625 1.005-.79 1.836-.164.827-.143 1.433.065 1.818.208.38.602.57 1.183.57.318 0 .612-.035.882-.106.27-.074.522-.16.753-.26l-.188.954c-.235.114-.48.2-.735.26-.25.058-.55.087-.9.087m4.782-3.451l.994-1 2.153-2.123h1.242l-2.918 2.793 1.782 3.665h-1.23l-1.382-2.965-.74.483-.495 2.482h-1.06l1.83-9.152h1.058l-.84 4.2-.42 1.617h.025" style="-inkscape-font-specification:Droid Sans Italic" font-style="italic"/></g><g style="line-height:125%;-inkscape-font-specification:Droid Sans" font-size="32" letter-spacing="0" word-spacing="0" fill="#e91e6f" font-family="Droid Sans"><path d="M339.117 276.55v3.552h-1.094v-8.598h2.094c1.044 0 1.814.202 2.312.605.498.403.747 1.015.747 1.834 0 .342-.05.64-.147.894a2.12 2.12 0 0 1-.923 1.112 3.694 3.694 0 0 1-.63.3l2.34 3.852h-1.288l-2.066-3.552h-1.347m0-.93h.965c.353 0 .653-.033.9-.1.247-.07.45-.172.606-.305.16-.137.277-.306.347-.506.075-.205.112-.442.112-.713 0-.282-.04-.52-.124-.717a1.112 1.112 0 0 0-.364-.482 1.51 1.51 0 0 0-.62-.27c-.246-.06-.54-.09-.882-.09h-.94v3.183m8.421 4.601c-.43 0-.825-.073-1.182-.218a2.556 2.556 0 0 1-.924-.635 2.894 2.894 0 0 1-.594-1.035 4.375 4.375 0 0 1-.212-1.412c0-.533.065-1.01.194-1.43.13-.418.312-.773.547-1.063a2.34 2.34 0 0 1 .842-.67c.33-.154.692-.23 1.088-.23.388 0 .737.07 1.047.212.31.136.573.332.79.587.214.25.38.555.493.91.117.354.176.746.176 1.178v.664h-4.07c.02.756.178 1.313.477 1.67.302.356.75.535 1.34.535a4.736 4.736 0 0 0 1.049-.112c.16-.04.316-.086.465-.14.15-.06.3-.125.453-.195v.953c-.157.075-.312.14-.465.195a3.872 3.872 0 0 1-.959.211c-.17.016-.354.024-.554.024m-.265-5.805c-.446 0-.8.153-1.063.46-.26.305-.41.75-.453 1.334h2.894c0-.268-.027-.51-.082-.73a1.53 1.53 0 0 0-.247-.57 1.114 1.114 0 0 0-.425-.366 1.383 1.383 0 0 0-.624-.13m6.112 4.932c.07 0 .15-.005.236-.012a4.59 4.59 0 0 0 .482-.07c.07-.016.124-.03.16-.042v.812a1.618 1.618 0 0 1-.195.07c-.08.024-.165.043-.26.06-.093.02-.19.032-.293.04a2.567 2.567 0 0 1-.3.018c-.244 0-.47-.032-.677-.094a1.257 1.257 0 0 1-.54-.324 1.572 1.572 0 0 1-.354-.617c-.086-.263-.13-.592-.13-.988v-3.747h-.912v-.476l.913-.46.46-1.352h.617v1.482h1.624v.806h-1.624v3.747c0 .38.06.666.182.858.126.192.33.29.612.29m7.405-2.483c0 .537-.065 1.015-.2 1.435a2.903 2.903 0 0 1-.563 1.053c-.244.282-.54.497-.89.646-.348.15-.74.224-1.175.224-.404 0-.777-.075-1.118-.224a2.554 2.554 0 0 1-.89-.646 3.14 3.14 0 0 1-.58-1.053 4.589 4.589 0 0 1-.207-1.435c0-.534.065-1.006.194-1.418.134-.415.323-.764.566-1.047.243-.286.54-.502.888-.647.353-.15.747-.223 1.183-.223.404 0 .776.074 1.118.223.34.145.635.36.882.647.25.283.445.632.583 1.047.14.412.21.884.21 1.418m-4.517 0c0 .82.133 1.437.4 1.852.27.412.708.618 1.312.618.604 0 1.038-.206 1.3-.618.267-.415.4-1.033.4-1.852 0-.82-.135-1.43-.406-1.835-.267-.408-.703-.612-1.307-.612s-1.04.204-1.306.612c-.263.404-.394 1.015-.394 1.835m9.013-3.335c.114 0 .242.006.383.018.14.007.262.02.364.04l-.142.99a3.975 3.975 0 0 0-.34-.048 2.347 2.347 0 0 0-.324-.024 1.5 1.5 0 0 0-1.207.583 2.1 2.1 0 0 0-.34.67c-.078.26-.117.547-.117.865v3.482h-1.07v-6.457h.87l.13 1.182h.046c.097-.17.2-.332.31-.488.115-.158.24-.296.377-.413.142-.122.298-.218.47-.288.174-.076.37-.113.59-.113m6.044 6.576v-4.158c0-.51-.105-.892-.313-1.147-.204-.255-.526-.382-.965-.382-.318 0-.585.05-.8.153-.216.102-.39.253-.524.453-.13.2-.223.446-.282.736-.055.29-.083.623-.083 1v3.346h-1.07v-6.457h.87l.153.87h.06c.097-.17.213-.314.346-.435a2.044 2.044 0 0 1 .957-.494c.182-.04.366-.06.554-.06.718 0 1.257.19 1.618.566.365.372.547.97.547 1.793v4.217h-1.07m8.337-3.241c0 .537-.066 1.015-.2 1.435-.13.415-.317.766-.564 1.053-.243.282-.54.497-.888.646-.35.15-.74.224-1.177.224-.404 0-.776-.075-1.117-.224a2.554 2.554 0 0 1-.89-.646 3.14 3.14 0 0 1-.58-1.053c-.14-.42-.207-.898-.207-1.435 0-.534.066-1.006.195-1.418.133-.415.322-.764.565-1.047.243-.286.54-.502.888-.647.353-.15.747-.223 1.183-.223.405 0 .777.074 1.12.223.34.145.634.36.88.647.252.283.446.632.584 1.047.14.412.21.884.21 1.418m-4.517 0c0 .82.133 1.437.4 1.852.27.412.708.618 1.312.618.603 0 1.036-.206 1.3-.618.266-.415.4-1.033.4-1.852 0-.82-.136-1.43-.407-1.835-.266-.408-.702-.612-1.306-.612-.604 0-1.04.204-1.306.612-.262.404-.393 1.015-.393 1.835m13.335 2.376h-.048c-.086.133-.188.26-.305.382a1.943 1.943 0 0 1-.907.522c-.188.053-.4.078-.635.078a2.32 2.32 0 0 1-1-.212c-.302-.14-.56-.35-.777-.63a3.084 3.084 0 0 1-.5-1.046 5.363 5.363 0 0 1-.176-1.447c0-.553.06-1.037.176-1.452.118-.42.285-.77.5-1.053.216-.283.475-.494.777-.635a2.265 2.265 0 0 1 1-.218c.23 0 .44.025.63.076a2.078 2.078 0 0 1 .912.506 2.3 2.3 0 0 1 .305.358h.07c-.01-.133-.023-.26-.034-.382l-.024-.312a2.886 2.886 0 0 1-.013-.26v-2.563h1.07v9.152h-.864l-.16-.864m-1.687.094c.298 0 .55-.045.753-.135.207-.09.374-.228.5-.412.13-.184.223-.414.28-.688.064-.28.1-.602.107-.97v-.242c0-.396-.027-.747-.082-1.053-.05-.31-.14-.568-.27-.776a1.21 1.21 0 0 0-.507-.476c-.21-.11-.476-.165-.794-.165-.53 0-.92.214-1.17.64-.248.43-.37 1.042-.37 1.842 0 .82.122 1.43.37 1.835.25.4.645.6 1.182.6m10.026-2.47c0 .537-.065 1.015-.2 1.435a2.89 2.89 0 0 1-.564 1.053c-.243.282-.54.497-.888.646-.35.15-.74.224-1.177.224-.403 0-.775-.075-1.116-.224a2.554 2.554 0 0 1-.89-.646 3.14 3.14 0 0 1-.58-1.053c-.14-.42-.207-.898-.207-1.435 0-.534.065-1.006.194-1.418.134-.415.323-.764.566-1.047.243-.286.54-.502.888-.647.353-.15.747-.223 1.183-.223.404 0 .776.074 1.118.223.34.145.635.36.882.647.25.283.445.632.583 1.047.14.412.21.884.21 1.418m-4.517 0c0 .82.133 1.437.4 1.852.27.412.708.618 1.312.618.604 0 1.037-.206 1.3-.618.267-.415.4-1.033.4-1.852 0-.82-.135-1.43-.406-1.835-.267-.408-.703-.612-1.307-.612s-1.04.204-1.306.612c-.263.404-.394 1.015-.394 1.835" font-size="14"/><path d="M404.1 280.22c-.397 0-.756-.06-1.078-.182a1.797 1.797 0 0 1-.782-.59c-.2-.27-.332-.612-.394-1.028-.06-.42-.03-.923.088-1.51.122-.617.3-1.138.535-1.566.235-.43.51-.78.823-1.047a3 3 0 0 1 1.03-.588 3.75 3.75 0 0 1 1.165-.183c.305 0 .598.033.876.1.28.067.506.15.683.247l-.5.906a2.53 2.53 0 0 0-.277-.112 2.404 2.404 0 0 0-.324-.1c-.11-.03-.22-.055-.33-.07-.11-.02-.215-.03-.317-.03-.617 0-1.107.198-1.472.594-.36.392-.623 1.004-.788 1.835-.165.827-.143 1.433.065 1.817.208.38.602.57 1.182.57.318 0 .612-.034.883-.105.27-.076.52-.162.753-.26l-.188.953c-.236.114-.48.2-.736.26a4.06 4.06 0 0 1-.9.087m6.773-.116l-.04-.894h-.047c-.165.177-.326.33-.483.46a2.48 2.48 0 0 1-.482.31c-.17.083-.35.144-.548.183-.196.04-.417.06-.664.06-.27 0-.512-.04-.724-.118a1.216 1.216 0 0 1-.524-.347 1.316 1.316 0 0 1-.27-.6 2.369 2.369 0 0 1 .03-.858c.13-.643.454-1.137.976-1.482.52-.345 1.25-.534 2.183-.565l1.088-.04.082-.407c.055-.263.07-.482.047-.66a.8.8 0 0 0-.158-.422.704.704 0 0 0-.36-.234 1.732 1.732 0 0 0-.53-.07c-.324 0-.636.046-.934.14-.298.094-.59.208-.877.34l-.218-.804c.322-.157.673-.29 1.054-.4.38-.11.767-.165 1.16-.165.4 0 .737.04 1.012.123.274.08.49.206.647.383.156.172.254.394.293.664.04.27.02.598-.06.983l-.882 4.422h-.77m-1.817-.747c.24 0 .47-.037.688-.11.22-.076.42-.188.595-.337a2.09 2.09 0 0 0 .465-.57c.134-.23.232-.502.294-.812l.112-.582-.847.04a4.65 4.65 0 0 0-.913.12c-.25.062-.46.15-.63.264-.164.11-.294.245-.388.405a1.606 1.606 0 0 0-.2.536c-.07.36-.03.624.123.793.157.168.39.252.7.252m5.647.746h-1.07l1.83-9.15h1.07l-1.83 9.15m3.13 0h-1.07l1.83-9.15h1.07l-1.83 9.15m6.296-6.575c.37 0 .688.07.96.212.274.14.49.352.646.634.16.278.257.625.29 1.04.034.416-.003.9-.113 1.448a5.986 5.986 0 0 1-.472 1.458c-.2.416-.435.765-.706 1.047a2.725 2.725 0 0 1-.9.64c-.33.142-.68.213-1.047.213a2.27 2.27 0 0 1-.618-.077 1.797 1.797 0 0 1-.465-.2 1.452 1.452 0 0 1-.34-.3 1.8 1.8 0 0 1-.236-.358h-.07l-.383.817h-.783l1.83-9.15h1.07l-.44 2.21c-.028.137-.06.284-.095.44-.035.154-.07.297-.106.43-.04.158-.077.31-.112.46h.047c.117-.138.245-.265.382-.383s.29-.22.46-.307c.168-.086.35-.153.546-.2.2-.05.418-.076.653-.076m-.388.888c-.314 0-.587.05-.818.153-.227.098-.426.25-.594.453-.17.205-.31.46-.424.765a7.05 7.05 0 0 0-.294 1.077 6.43 6.43 0 0 0-.13 1.058c-.007.306.03.565.112.777a.97.97 0 0 0 .412.476c.192.106.447.16.765.16.53 0 .96-.215 1.294-.642.34-.427.588-1.04.75-1.84.16-.816.155-1.425-.013-1.83-.17-.403-.522-.605-1.06-.605m6.856 5.687l-.04-.894h-.048c-.165.177-.326.33-.483.46a2.467 2.467 0 0 1-.48.31c-.17.083-.352.144-.548.183-.197.04-.418.06-.665.06-.27 0-.512-.04-.724-.118a1.216 1.216 0 0 1-.524-.347 1.295 1.295 0 0 1-.27-.6 2.386 2.386 0 0 1 .028-.858c.13-.643.455-1.137.977-1.482s1.25-.534 2.183-.565l1.088-.04.082-.407c.055-.263.07-.482.048-.66a.792.792 0 0 0-.16-.422.698.698 0 0 0-.358-.234 1.746 1.746 0 0 0-.53-.07 3.09 3.09 0 0 0-.935.14c-.298.094-.59.208-.877.34l-.217-.804c.32-.157.67-.29 1.052-.4.38-.11.766-.165 1.16-.165.4 0 .736.04 1.01.123.275.08.49.206.648.383.157.172.255.394.294.664.04.27.02.598-.06.983l-.88 4.422h-.772m-1.818-.747c.24 0 .47-.037.688-.11a1.84 1.84 0 0 0 .594-.337 2.09 2.09 0 0 0 .465-.57c.135-.23.233-.502.295-.812l.112-.582-.847.04a4.66 4.66 0 0 0-.912.12c-.25.062-.46.15-.63.264-.164.11-.294.245-.388.405-.094.157-.16.336-.2.536-.07.36-.03.624.124.793.157.168.39.252.7.252m7.026.864c-.397 0-.756-.06-1.078-.182a1.791 1.791 0 0 1-.782-.59c-.2-.27-.332-.612-.395-1.028-.058-.42-.03-.923.09-1.51.12-.617.3-1.138.534-1.566.234-.43.51-.78.823-1.047.313-.27.657-.466 1.03-.588a3.748 3.748 0 0 1 1.164-.183c.306 0 .598.033.877.1.278.067.506.15.682.247l-.5.906a2.431 2.431 0 0 0-.276-.112 2.404 2.404 0 0 0-.324-.1c-.11-.03-.22-.055-.33-.07-.11-.02-.215-.03-.317-.03-.617 0-1.107.198-1.472.594-.36.392-.624 1.004-.788 1.835-.165.827-.143 1.433.064 1.817.208.38.602.57 1.183.57.318 0 .612-.034.883-.105.27-.076.52-.162.753-.26l-.19.953c-.234.114-.48.2-.734.26a4.06 4.06 0 0 1-.9.087m4.785-3.45l.994-1 2.154-2.123h1.24l-2.917 2.793 1.782 3.664h-1.23l-1.382-2.964-.74.482-.495 2.482h-1.06l1.83-9.15h1.06l-.842 4.198-.418 1.618h.024" style="-inkscape-font-specification:Droid Sans Italic" font-style="italic"/></g><g style="line-height:125%;-inkscape-font-specification:Droid Sans"><path d="M430.34 113.958c0 .29-.052.55-.157.78-.1.228-.248.42-.44.58-.19.158-.424.28-.7.362-.274.08-.584.12-.928.12-.33 0-.642-.026-.933-.08a2.474 2.474 0 0 1-.722-.228v-.798c.102.048.217.095.346.143.13.045.27.085.412.12.144.037.292.067.444.09.153.022.304.032.453.032.48 0 .832-.09 1.06-.27.23-.18.345-.436.345-.77 0-.162-.023-.303-.068-.422a.777.777 0 0 0-.23-.328c-.106-.1-.25-.2-.434-.29a6.886 6.886 0 0 0-.69-.31 4.384 4.384 0 0 1-.696-.342 2.11 2.11 0 0 1-.484-.42 1.63 1.63 0 0 1-.283-.53 2.318 2.318 0 0 1-.09-.673c0-.263.048-.498.144-.704.095-.205.23-.38.403-.52.173-.143.38-.252.62-.327.24-.074.507-.112.797-.112.356 0 .676.036.96.105.284.065.537.15.758.255l-.3.7a4.122 4.122 0 0 0-.664-.225 2.967 2.967 0 0 0-.763-.098c-.364 0-.646.085-.847.255-.2.168-.3.395-.3.682 0 .17.022.318.067.444.045.123.12.235.224.336.105.1.243.193.413.283.174.087.386.18.637.278.272.108.51.218.713.332.207.113.38.242.516.385.138.144.24.31.31.498.072.19.107.41.107.668m2.024 1.753h-.817v-4.924h.817v4.924m-.88-6.256c0-.18.045-.31.135-.39a.5.5 0 0 1 .34-.12.55.55 0 0 1 .184.03c.06.018.11.048.152.09.045.042.08.096.104.16.026.064.04.14.04.23 0 .173-.048.303-.144.39a.482.482 0 0 1-.336.126.485.485 0 0 1-.34-.126c-.09-.084-.136-.214-.136-.39m5.397 4.906c0 .24-.042.448-.13.628-.086.18-.21.33-.376.453-.16.12-.357.21-.588.27-.23.06-.49.088-.776.088-.326 0-.605-.026-.84-.08a2.098 2.098 0 0 1-.613-.228v-.744a3.577 3.577 0 0 0 .668.265c.126.036.254.066.386.09.136.02.27.03.4.03.195 0 .36-.015.494-.048a.954.954 0 0 0 .332-.14.553.553 0 0 0 .188-.223.716.716 0 0 0 .058-.295.656.656 0 0 0-.044-.25.587.587 0 0 0-.166-.22 1.49 1.49 0 0 0-.323-.225 6.158 6.158 0 0 0-.53-.25 9.713 9.713 0 0 1-.584-.275 2.08 2.08 0 0 1-.435-.3c-.12-.11-.21-.238-.277-.382a1.309 1.309 0 0 1-.094-.52c0-.21.04-.394.12-.556.084-.164.2-.302.35-.412.15-.11.33-.195.538-.252.21-.056.443-.085.7-.085.29 0 .555.032.794.094.242.063.47.145.686.247l-.282.658a5.55 5.55 0 0 0-.602-.224 2 2 0 0 0-.623-.1c-.304 0-.53.052-.676.154-.147.1-.22.24-.22.426 0 .105.016.196.05.273.035.078.095.15.178.22.084.07.196.14.337.21.14.07.314.147.524.234.215.09.406.18.574.27.17.09.315.192.435.305.12.11.21.238.274.38.063.145.094.317.094.517m2.687.768a3.745 3.745 0 0 0 .377-.03c.063-.01.12-.02.17-.033.054-.012.094-.022.12-.03v.618a1.069 1.069 0 0 1-.147.054c-.06.018-.125.032-.197.044a1.71 1.71 0 0 1-.223.032c-.078.01-.154.013-.23.013-.185 0-.356-.023-.515-.07a.977.977 0 0 1-.413-.247 1.22 1.22 0 0 1-.27-.47 2.44 2.44 0 0 1-.1-.754v-2.86h-.694v-.363l.695-.35.35-1.032h.472v1.13h1.238v.614h-1.238v2.857c0 .29.047.507.14.653.095.147.25.22.466.22m3.579.671c-.33 0-.63-.054-.902-.165a1.946 1.946 0 0 1-.704-.484 2.17 2.17 0 0 1-.453-.788 3.249 3.249 0 0 1-.163-1.076c0-.407.05-.77.148-1.09.1-.32.238-.59.417-.812a1.79 1.79 0 0 1 .642-.51c.25-.118.528-.176.83-.176.296 0 .562.054.798.162.237.104.437.254.6.448.166.19.29.423.378.695.09.27.135.568.135.897v.507h-3.104c.016.577.137 1 .364 1.273.23.272.57.408 1.023.408a3.616 3.616 0 0 0 .798-.085 3.326 3.326 0 0 0 .7-.256v.727c-.12.057-.238.106-.354.148a2.915 2.915 0 0 1-.731.161c-.13.012-.27.018-.422.018m-.202-4.425c-.34 0-.612.117-.812.35-.197.233-.313.573-.346 1.018h2.208c0-.203-.02-.39-.063-.556a1.184 1.184 0 0 0-.19-.435.834.834 0 0 0-.322-.278c-.13-.066-.29-.1-.474-.1m9.069 4.336v-3.17c0-.39-.074-.68-.224-.875-.15-.195-.38-.292-.695-.292-.22 0-.404.036-.557.108a.928.928 0 0 0-.376.31 1.353 1.353 0 0 0-.21.506c-.046.2-.068.43-.068.694v2.718h-.82v-3.17c0-.39-.076-.68-.226-.875-.146-.195-.377-.292-.69-.292-.23 0-.424.04-.58.117a.937.937 0 0 0-.376.345c-.093.153-.16.34-.202.56-.04.222-.058.476-.058.763v2.552h-.817v-4.924h.664l.118.664h.045a1.495 1.495 0 0 1 .578-.57c.12-.063.247-.11.378-.14.135-.03.27-.044.408-.044.36 0 .657.066.893.197.238.132.415.338.528.62h.036c.078-.14.17-.262.278-.364.11-.1.23-.184.36-.25.13-.07.27-.12.412-.153.144-.032.29-.05.44-.05.523 0 .916.145 1.18.432.266.283.4.74.4 1.366v3.216h-.818m5.113.001l-.166-.682h-.036c-.098.135-.197.25-.296.35a1.425 1.425 0 0 1-.713.378c-.144.028-.31.043-.5.043-.205 0-.395-.028-.57-.088a1.217 1.217 0 0 1-.452-.265 1.295 1.295 0 0 1-.296-.457 1.81 1.81 0 0 1-.107-.655c0-.49.172-.867.515-1.13.347-.263.874-.407 1.58-.43l.825-.032v-.31c0-.2-.023-.367-.067-.502a.75.75 0 0 0-.19-.322.682.682 0 0 0-.304-.18 1.473 1.473 0 0 0-.413-.053c-.247 0-.48.036-.694.108a4.433 4.433 0 0 0-.614.26l-.288-.614c.222-.12.47-.223.74-.306.273-.084.558-.126.857-.126.307 0 .57.03.79.094.225.06.41.157.553.292.146.13.255.3.327.506.072.207.108.456.108.75v3.372h-.588m-1.498-.57c.182 0 .35-.028.507-.085.154-.057.29-.142.403-.256.113-.115.2-.26.264-.434.066-.176.1-.382.1-.62v-.442l-.643.03c-.27.013-.494.043-.677.09-.182.048-.33.116-.44.202a.723.723 0 0 0-.233.31c-.048.12-.072.255-.072.408 0 .275.072.477.216.605.146.128.338.192.574.192m9.03-.091h-.036c-.066.102-.143.2-.233.292a1.49 1.49 0 0 1-.691.398c-.143.04-.305.06-.484.06-.28 0-.533-.054-.763-.162a1.605 1.605 0 0 1-.592-.48 2.304 2.304 0 0 1-.38-.798 4.053 4.053 0 0 1-.136-1.103c0-.423.045-.792.135-1.11.09-.32.216-.586.38-.802.165-.215.363-.376.593-.484.23-.11.484-.166.763-.166.176 0 .336.02.48.06a1.55 1.55 0 0 1 .695.385c.09.086.167.177.233.273h.054l-.027-.292-.018-.237a3.079 3.079 0 0 1-.01-.198v-1.956h.818v6.978h-.66l-.12-.66m-1.288.072c.227 0 .418-.034.574-.103a.867.867 0 0 0 .38-.313c.1-.14.17-.315.215-.524.048-.213.075-.46.08-.74v-.184c0-.303-.02-.57-.062-.804a1.625 1.625 0 0 0-.206-.592.93.93 0 0 0-.386-.363 1.306 1.306 0 0 0-.604-.125c-.404 0-.702.163-.893.49-.188.325-.283.793-.283 1.403 0 .625.095 1.09.283 1.4.19.304.492.456.902.456m5.575.677c-.328 0-.63-.054-.9-.165a1.942 1.942 0 0 1-.705-.484 2.17 2.17 0 0 1-.453-.788 3.302 3.302 0 0 1-.162-1.076c0-.407.05-.77.148-1.09.1-.32.238-.59.417-.812a1.79 1.79 0 0 1 .642-.51c.25-.118.528-.176.83-.176.296 0 .562.054.798.162.236.104.437.254.6.448.166.19.29.423.378.695.09.27.135.568.135.897v.507h-3.105c.015.577.136 1 .364 1.273.23.272.57.408 1.023.408a3.616 3.616 0 0 0 .798-.085c.123-.03.24-.066.354-.108.114-.044.23-.094.346-.148v.727c-.12.057-.238.106-.355.148a2.93 2.93 0 0 1-.732.161c-.128.012-.27.018-.42.018m-.203-4.425c-.342 0-.613.117-.813.35-.198.233-.313.573-.346 1.018h2.208c0-.203-.02-.39-.062-.556a1.184 1.184 0 0 0-.19-.435.841.841 0 0 0-.322-.278c-.13-.066-.29-.1-.475-.1m-34.415 15.816l-.166-.682h-.036c-.098.135-.196.25-.295.35a1.47 1.47 0 0 1-.323.238c-.117.062-.247.11-.39.14-.144.028-.31.043-.498.043-.207 0-.396-.03-.57-.088a1.213 1.213 0 0 1-.453-.265 1.293 1.293 0 0 1-.295-.457 1.809 1.809 0 0 1-.108-.655c0-.49.172-.867.516-1.13.347-.263.873-.407 1.58-.43l.825-.032v-.31c0-.2-.023-.367-.068-.502a.738.738 0 0 0-.188-.32.66.66 0 0 0-.305-.18 1.4 1.4 0 0 0-.413-.055c-.248 0-.48.036-.695.108a4.458 4.458 0 0 0-.616.26l-.287-.614c.22-.12.468-.223.74-.306a2.89 2.89 0 0 1 .857-.126c.305 0 .568.032.79.094.224.06.408.157.55.292.148.13.257.3.33.507.07.207.107.457.107.75v3.372h-.587m-1.498-.57c.182 0 .35-.028.507-.085.155-.057.29-.142.403-.256.114-.115.202-.26.265-.434.066-.176.1-.382.1-.618v-.444l-.643.03c-.27.013-.495.043-.677.09-.183.05-.33.116-.44.203a.704.704 0 0 0-.233.31c-.048.12-.072.255-.072.407 0 .275.072.477.215.605.147.128.338.192.575.192m5.731-4.446c.086 0 .184.005.29.014.11.006.202.016.28.03l-.108.754a2.966 2.966 0 0 0-.26-.035 2.199 2.199 0 0 0-.247-.017 1.157 1.157 0 0 0-.92.443c-.11.14-.197.31-.26.51a2.27 2.27 0 0 0-.09.66v2.655h-.816v-4.924h.664l.1.9h.035c.075-.127.154-.25.238-.37.087-.12.182-.225.287-.315.108-.092.227-.166.36-.22.13-.056.28-.085.448-.085m3.281 4.426c.23 0 .42-.034.575-.103a.856.856 0 0 0 .382-.313c.098-.14.17-.315.215-.524.048-.213.075-.46.08-.74v-.184c0-.303-.02-.57-.062-.804a1.644 1.644 0 0 0-.206-.592.936.936 0 0 0-.386-.363 1.318 1.318 0 0 0-.606-.125c-.403 0-.7.163-.892.49-.19.325-.283.793-.283 1.403 0 .625.094 1.09.283 1.4.19.304.492.456.9.456m-.156.677a1.77 1.77 0 0 1-.762-.16 1.605 1.605 0 0 1-.592-.48 2.342 2.342 0 0 1-.382-.798 4.058 4.058 0 0 1-.134-1.103c0-.423.044-.792.134-1.11.09-.32.217-.586.382-.802.164-.215.36-.376.592-.484.23-.11.484-.166.762-.166a1.666 1.666 0 0 1 .866.225c.114.066.215.145.305.238.09.09.17.187.238.292h.036l.12-.664h.66v7.13h-.817v-2.103c0-.057.002-.13.01-.215.005-.087.01-.17.017-.25.01-.097.018-.196.027-.297h-.054c-.066.1-.144.198-.233.29-.087.09-.19.17-.305.24a1.62 1.62 0 0 1-.386.16c-.145.04-.306.06-.486.06m6.978-.093l-.12-.66h-.046a1.42 1.42 0 0 1-.606.569c-.122.06-.252.105-.39.135-.138.03-.278.044-.422.044-.272 0-.51-.033-.717-.102a1.203 1.203 0 0 1-.517-.323 1.417 1.417 0 0 1-.314-.56 2.777 2.777 0 0 1-.104-.812v-3.215h.816v3.17c0 .39.08.68.238.875.158.194.403.29.735.29.243 0 .446-.038.61-.115a.954.954 0 0 0 .395-.34c.102-.154.174-.34.216-.562.044-.22.067-.475.067-.762v-2.556h.816v4.924h-.66m3.049 0h-.817v-4.924h.816v4.924m-.88-6.256c0-.18.045-.31.135-.39a.508.508 0 0 1 .342-.12.55.55 0 0 1 .184.03c.06.018.11.048.152.09.045.042.08.096.104.16.027.064.04.14.04.23 0 .173-.048.303-.144.39a.48.48 0 0 1-.336.126.485.485 0 0 1-.34-.126c-.09-.084-.135-.214-.135-.39m3.351 6.256l-1.683-4.924h.844l.89 2.74c.034.1.073.226.118.38l.135.476c.044.162.085.314.12.458.04.143.065.252.077.327h.03a18.015 18.015 0 0 1 .198-.786l.135-.475c.045-.156.084-.283.117-.382l.893-2.74h.843l-1.682 4.924h-1.036m7.51-2.47c0 .41-.05.775-.153 1.095a2.214 2.214 0 0 1-.43.803c-.186.215-.41.38-.678.493-.266.115-.565.17-.897.17a2.08 2.08 0 0 1-.853-.17 1.933 1.933 0 0 1-.678-.492 2.366 2.366 0 0 1-.445-.803 3.536 3.536 0 0 1-.157-1.094c0-.406.05-.766.148-1.08a2.29 2.29 0 0 1 .43-.798c.186-.218.412-.383.678-.493.27-.115.57-.172.902-.172.308 0 .592.057.852.17.26.11.485.276.673.494.193.215.34.48.445.798.108.314.162.674.162 1.08m-3.445 0c0 .626.1 1.097.305 1.413.206.314.54.47 1 .47.46 0 .79-.156.992-.47.202-.316.304-.787.304-1.412 0-.624-.104-1.09-.31-1.398-.203-.31-.535-.467-.996-.467-.46 0-.792.156-.996.467-.2.308-.3.774-.3 1.4m7.69 1.118c0 .24-.043.448-.13.628-.086.18-.212.33-.376.453-.162.12-.358.21-.588.27-.23.06-.49.088-.776.088-.326 0-.606-.025-.84-.08a2.098 2.098 0 0 1-.613-.228v-.744a3.492 3.492 0 0 0 .668.265c.125.036.254.066.386.09.135.02.268.03.4.03.194 0 .36-.015.493-.048a.93.93 0 0 0 .332-.14.566.566 0 0 0 .19-.223.75.75 0 0 0 .012-.545.577.577 0 0 0-.166-.22 1.432 1.432 0 0 0-.322-.225 5.632 5.632 0 0 0-.53-.25 9.623 9.623 0 0 1-.582-.275c-.17-.09-.316-.19-.435-.3a1.163 1.163 0 0 1-.277-.382 1.308 1.308 0 0 1-.095-.52c0-.21.04-.394.12-.556a1.19 1.19 0 0 1 .35-.412c.15-.11.33-.195.54-.252.21-.056.442-.085.7-.085.29 0 .554.032.793.094.244.063.472.145.688.247l-.283.658a5.595 5.595 0 0 0-.6-.224 2.016 2.016 0 0 0-.624-.1c-.305 0-.53.052-.677.154-.146.1-.22.24-.22.426a.69.69 0 0 0 .05.273c.036.078.095.15.18.22.083.07.195.14.336.21.14.07.314.147.523.234.216.09.407.18.575.27.17.09.315.192.435.305.12.11.21.238.273.38.063.145.095.317.095.517" style="text-align:center" font-size="10.675" letter-spacing="0" word-spacing="0" fill="#fff" font-family="Droid Sans" text-anchor="middle"/></g><g style="line-height:125%;-inkscape-font-specification:Droid Sans"><path d="M430.118 144.63h1.79c.383 0 .72.028 1.01.088.293.057.536.15.73.283.198.13.346.3.445.512.1.21.148.468.148.776 0 .185-.03.36-.09.52-.056.16-.14.303-.25.426-.11.123-.248.226-.413.31-.16.08-.345.134-.55.16v.046c.205.036.398.088.577.157.183.065.34.158.476.278.134.116.24.264.318.444.078.178.117.396.117.653 0 .3-.05.567-.148.803a1.59 1.59 0 0 1-.422.596 1.876 1.876 0 0 1-.668.373c-.263.086-.56.13-.893.13h-2.176v-6.556m.835 2.78h1.094c.252 0 .462-.024.633-.068.17-.045.308-.11.413-.198.104-.09.18-.2.224-.332.048-.134.072-.29.072-.466 0-.36-.117-.616-.347-.77-.23-.157-.593-.234-1.09-.234h-1v2.067m0 .698v2.368h1.193c.263 0 .483-.03.66-.09.18-.06.322-.143.43-.25a.937.937 0 0 0 .238-.386 1.67 1.67 0 0 0 .072-.503c0-.167-.026-.32-.077-.46a.816.816 0 0 0-.243-.36c-.11-.102-.26-.18-.444-.233a2.38 2.38 0 0 0-.69-.086h-1.14m7.538 3.079l-.167-.682h-.036c-.098.135-.197.25-.296.35a1.42 1.42 0 0 1-.712.378c-.144.03-.31.044-.498.044-.206 0-.396-.03-.57-.09a1.198 1.198 0 0 1-.453-.264 1.295 1.295 0 0 1-.296-.457 1.854 1.854 0 0 1-.107-.655c0-.49.172-.867.516-1.13.346-.263.873-.407 1.578-.43l.826-.032v-.31c0-.2-.023-.367-.068-.502a.73.73 0 0 0-.188-.323.688.688 0 0 0-.305-.178 1.436 1.436 0 0 0-.413-.054c-.248 0-.48.036-.695.108a4.498 4.498 0 0 0-.615.26l-.287-.614c.222-.12.468-.222.74-.305.273-.084.558-.126.857-.126.305 0 .57.033.79.095.224.06.408.157.552.292.146.13.255.3.327.507.07.206.107.456.107.748v3.373h-.588m-1.5-.57c.183 0 .352-.028.508-.085a1.089 1.089 0 0 0 .669-.691c.066-.177.1-.383.1-.62v-.443l-.643.03c-.27.013-.495.043-.677.09-.183.05-.33.116-.44.203a.712.712 0 0 0-.233.31c-.048.12-.072.255-.072.407 0 .275.073.477.217.605.146.13.338.193.574.193m6.678.568v-3.17c0-.39-.08-.68-.237-.875-.156-.194-.4-.292-.736-.292-.242 0-.446.04-.61.117a.975.975 0 0 0-.4.345c-.098.153-.17.34-.215.56a4.133 4.133 0 0 0-.063.763v2.552h-.817v-4.924h.664l.116.665h.045c.075-.13.163-.24.265-.332a1.568 1.568 0 0 1 .73-.378c.14-.03.28-.044.423-.044.547 0 .958.145 1.233.432.278.284.417.74.417 1.367v3.215h-.817m4.228.088c-.302 0-.585-.046-.848-.14a1.757 1.757 0 0 1-.686-.447 2.163 2.163 0 0 1-.458-.785c-.11-.32-.166-.704-.166-1.152 0-.47.057-.867.17-1.193.114-.33.27-.595.467-.798.2-.208.434-.357.7-.45.266-.092.552-.14.857-.14.233 0 .46.027.682.077.224.05.41.114.56.19l-.242.69c-.07-.03-.145-.06-.23-.086a2.248 2.248 0 0 0-.26-.075 2.118 2.118 0 0 0-.511-.074c-.47 0-.812.15-1.027.452-.216.3-.323.765-.323 1.4 0 .63.107 1.09.323 1.384.218.29.548.435.99.435.243 0 .462-.025.656-.08a3.65 3.65 0 0 0 .54-.197v.727a2.198 2.198 0 0 1-.52.197 2.875 2.875 0 0 1-.674.068m6.384-2.563c0 .41-.05.774-.153 1.094-.1.317-.242.585-.43.803-.186.216-.412.38-.678.494-.267.114-.566.17-.898.17-.308 0-.592-.056-.853-.17a1.939 1.939 0 0 1-.678-.493 2.384 2.384 0 0 1-.444-.802 3.506 3.506 0 0 1-.157-1.094c0-.407.05-.767.15-1.08.1-.318.244-.584.43-.8.185-.217.41-.382.677-.492.27-.114.57-.17.902-.17.307 0 .59.056.85.17.26.11.485.275.674.493.19.215.34.48.444.798.108.314.16.674.16 1.08m-3.444 0c0 .626.102 1.097.305 1.413.206.314.54.47 1 .47.46 0 .79-.156.99-.47.204-.316.306-.787.306-1.412 0-.625-.103-1.09-.31-1.4-.203-.31-.535-.466-.995-.466-.46 0-.792.156-.995.467-.2.308-.3.774-.3 1.4m10.171 1.809h-.036c-.066.1-.144.198-.233.29-.087.09-.19.17-.305.24a1.62 1.62 0 0 1-.386.16c-.144.04-.305.058-.485.058-.28 0-.533-.053-.763-.16-.23-.11-.428-.27-.592-.48a2.362 2.362 0 0 1-.382-.8 4.045 4.045 0 0 1-.134-1.102c0-.422.044-.79.133-1.108.09-.32.217-.587.382-.803.164-.214.36-.375.592-.483.23-.11.484-.166.762-.166.176 0 .336.02.48.06.143.038.27.09.385.157.117.065.22.142.31.228.09.087.167.178.233.274h.054l-.027-.293-.018-.237a3.079 3.079 0 0 1-.01-.198v-1.955h.817v6.978h-.66l-.12-.66m-1.288.072c.228 0 .42-.034.575-.103a.871.871 0 0 0 .382-.314c.1-.14.17-.315.215-.524.048-.213.075-.46.08-.74v-.184c0-.302-.02-.57-.062-.803a1.642 1.642 0 0 0-.206-.593.944.944 0 0 0-.387-.363 1.305 1.305 0 0 0-.606-.126c-.403 0-.7.163-.892.49-.19.325-.283.793-.283 1.403 0 .626.094 1.092.283 1.4.19.305.492.457.9.457m5.58.676c-.33 0-.63-.055-.9-.165a1.975 1.975 0 0 1-.706-.486 2.217 2.217 0 0 1-.453-.79 3.32 3.32 0 0 1-.16-1.075c0-.408.048-.77.147-1.09.1-.32.238-.59.417-.813.18-.224.393-.394.64-.51a1.94 1.94 0 0 1 .83-.176c.297 0 .564.055.8.163.236.104.436.254.6.448.165.192.29.424.378.696.09.27.134.568.134.897v.507h-3.105c.015.577.136 1 .363 1.273.23.272.572.408 1.023.408.154 0 .294-.006.423-.02.132-.016.257-.037.377-.064.122-.03.24-.066.354-.107.114-.046.23-.096.346-.15v.727c-.12.057-.238.106-.355.148a2.681 2.681 0 0 1-.354.103c-.12.027-.244.047-.376.058-.13.012-.27.018-.422.018m-.202-4.426c-.34 0-.61.117-.812.35-.197.233-.312.573-.345 1.018h2.207c0-.203-.02-.39-.063-.556-.04-.17-.1-.315-.188-.435a.862.862 0 0 0-.324-.278c-.132-.066-.29-.1-.476-.1m-25.466 15.159h-.036c-.066.1-.143.198-.233.29-.087.09-.19.17-.305.24-.114.068-.242.12-.386.16-.144.04-.305.06-.484.06-.28 0-.533-.055-.763-.163a1.595 1.595 0 0 1-.592-.48 2.304 2.304 0 0 1-.38-.798 4.053 4.053 0 0 1-.136-1.103c0-.422.044-.79.134-1.108.09-.32.216-.587.38-.802.165-.216.363-.377.593-.485.23-.11.484-.166.763-.166.176 0 .336.02.48.06a1.591 1.591 0 0 1 .695.385c.09.087.167.178.233.274h.054l-.027-.293-.018-.237a3.079 3.079 0 0 1-.01-.198v-1.955h.818v6.978h-.66l-.12-.66m-1.288.072c.227 0 .418-.034.574-.103a.858.858 0 0 0 .382-.314c.1-.14.17-.315.215-.524.048-.213.075-.46.08-.74v-.184c0-.302-.02-.57-.062-.803a1.624 1.624 0 0 0-.206-.593.938.938 0 0 0-.387-.363 1.298 1.298 0 0 0-.605-.126c-.404 0-.702.163-.893.49-.19.325-.283.793-.283 1.403 0 .626.094 1.092.283 1.4.19.305.492.457.902.457m6.406.588l-.166-.682h-.035c-.098.135-.197.25-.296.35a1.442 1.442 0 0 1-.322.238c-.117.063-.247.11-.39.14-.144.03-.31.044-.5.044-.205 0-.395-.03-.568-.09a1.183 1.183 0 0 1-.453-.264 1.295 1.295 0 0 1-.296-.457 1.854 1.854 0 0 1-.107-.655c0-.49.172-.867.516-1.13.347-.263.873-.407 1.58-.43l.824-.032v-.31c0-.2-.022-.367-.067-.502a.733.733 0 0 0-.494-.502 1.434 1.434 0 0 0-.412-.054c-.25 0-.48.036-.696.108a4.433 4.433 0 0 0-.614.26l-.287-.614c.22-.12.468-.22.74-.305a2.89 2.89 0 0 1 .857-.126c.305 0 .568.033.79.095.223.06.407.157.55.292.147.13.257.3.328.507.072.206.108.456.108.75v3.37h-.588m-1.498-.57c.183 0 .352-.027.507-.084.157-.057.29-.142.405-.255a1.2 1.2 0 0 0 .264-.435c.065-.177.098-.383.098-.62v-.443l-.64.03c-.27.013-.496.043-.68.09-.18.05-.328.116-.438.203a.706.706 0 0 0-.234.31c-.047.12-.07.255-.07.407 0 .275.07.477.214.606.146.128.338.192.574.192m6.642-.091h-.036c-.066.1-.144.198-.233.29-.088.09-.19.17-.306.24a1.58 1.58 0 0 1-.386.16c-.144.04-.305.06-.485.06a1.77 1.77 0 0 1-.762-.163 1.581 1.581 0 0 1-.59-.48 2.325 2.325 0 0 1-.383-.798 4.058 4.058 0 0 1-.134-1.103c0-.422.045-.79.134-1.108.09-.32.217-.587.382-.802.163-.216.36-.377.59-.485.23-.11.485-.166.763-.166.177 0 .337.02.48.06a1.6 1.6 0 0 1 .928.659h.054l-.027-.293-.02-.237a3.626 3.626 0 0 1-.008-.198v-1.955h.816v6.978h-.66l-.12-.66m-1.288.072c.228 0 .42-.034.574-.103a.858.858 0 0 0 .382-.314c.098-.14.17-.315.215-.524.05-.213.076-.46.082-.74v-.184c0-.302-.02-.57-.063-.803a1.662 1.662 0 0 0-.207-.593.936.936 0 0 0-.386-.363 1.305 1.305 0 0 0-.606-.126c-.402 0-.7.163-.89.49-.19.325-.284.793-.284 1.403 0 .626.094 1.092.283 1.4.19.305.49.457.9.457m7.647-1.883c0 .41-.05.774-.152 1.094a2.26 2.26 0 0 1-.43.803c-.186.216-.412.38-.678.494a2.26 2.26 0 0 1-.897.17c-.308 0-.593-.056-.853-.17a1.935 1.935 0 0 1-.677-.493 2.333 2.333 0 0 1-.444-.802 3.506 3.506 0 0 1-.157-1.094c0-.407.05-.767.148-1.08.1-.318.245-.584.43-.8.186-.217.412-.382.678-.492.27-.114.57-.17.9-.17.31 0 .594.056.854.17.26.11.484.275.673.493.19.215.338.48.443.798.107.314.16.674.16 1.08m-3.444 0c0 .626.1 1.097.304 1.413.206.314.54.47 1 .47.46 0 .79-.156.992-.47.203-.316.305-.787.305-1.412 0-.625-.102-1.09-.31-1.4-.202-.31-.534-.466-.994-.466-.46 0-.793.156-.996.467-.2.308-.3.774-.3 1.4m7.689 1.118c0 .24-.043.448-.13.628-.087.18-.213.33-.377.453-.16.12-.356.21-.587.27-.23.06-.49.088-.776.088-.326 0-.605-.026-.84-.08a2.072 2.072 0 0 1-.613-.23v-.743c.093.05.196.096.31.144.113.045.233.085.358.12.126.037.254.067.386.09.135.022.268.032.4.032.194 0 .358-.016.493-.05a.926.926 0 0 0 .333-.138.555.555 0 0 0 .188-.224.725.725 0 0 0 .015-.546.587.587 0 0 0-.166-.22 1.55 1.55 0 0 0-.324-.225 5.755 5.755 0 0 0-.53-.25 9.668 9.668 0 0 1-.583-.275 2.08 2.08 0 0 1-.435-.3 1.18 1.18 0 0 1-.278-.382 1.309 1.309 0 0 1-.094-.52c0-.21.04-.394.12-.556.085-.164.2-.302.35-.412.15-.11.33-.195.54-.25a2.61 2.61 0 0 1 .7-.087c.29 0 .554.033.793.096.24.062.47.145.685.246l-.282.66a5.165 5.165 0 0 0-.602-.225c-.202-.066-.41-.1-.622-.1-.305 0-.53.052-.677.154a.487.487 0 0 0-.22.427c0 .105.017.196.05.274.036.078.096.15.18.22.083.07.195.14.336.21.14.07.315.148.525.234.216.09.407.18.575.27.17.09.315.19.435.304.12.11.21.238.274.38.063.145.094.317.094.517" style="text-align:center" font-size="10.675" letter-spacing="0" word-spacing="0" fill="#fff" font-family="Droid Sans" text-anchor="middle"/></g><g style="line-height:125%;-inkscape-font-specification:Droid Sans"><path d="M425.933 178.516c-.32 0-.61.062-.87.184-.26.12-.483.293-.67.52-.18.228-.323.504-.425.83a3.829 3.829 0 0 0-.148 1.103c0 .422.044.797.13 1.126.09.325.223.6.4.824.176.224.396.394.66.51.262.118.57.176.923.176.266 0 .52-.025.758-.076.24-.054.477-.115.71-.184v.726a3.361 3.361 0 0 1-.718.202 5.819 5.819 0 0 1-.888.063c-.49 0-.915-.08-1.274-.24a2.369 2.369 0 0 1-.893-.687 2.975 2.975 0 0 1-.52-1.068 5.21 5.21 0 0 1-.17-1.38c0-.497.064-.952.192-1.364.13-.412.322-.766.574-1.062.254-.296.568-.526.942-.69a3.157 3.157 0 0 1 1.287-.247c.323 0 .63.034.924.1.293.065.558.16.794.286l-.35.7a3.862 3.862 0 0 0-.613-.247 2.504 2.504 0 0 0-.754-.104m6.782 3.443c0 .41-.05.775-.153 1.095a2.218 2.218 0 0 1-.43.802c-.186.215-.412.38-.678.494-.266.114-.565.17-.897.17-.308 0-.592-.056-.852-.17a1.935 1.935 0 0 1-.678-.493 2.403 2.403 0 0 1-.444-.802 3.538 3.538 0 0 1-.157-1.095c0-.406.05-.766.148-1.08.102-.317.245-.583.43-.8.186-.217.412-.38.678-.492.27-.114.57-.17.902-.17.308 0 .592.056.852.17.26.11.485.275.673.493.192.217.34.483.444.8.108.314.162.674.162 1.08m-3.445 0c0 .625.102 1.096.306 1.413.206.314.54.47 1 .47.46 0 .79-.156.99-.47.205-.317.306-.788.306-1.413 0-.624-.103-1.09-.31-1.4-.202-.31-.534-.465-.995-.465-.46 0-.793.155-.996.466-.2.31-.3.776-.3 1.4m10.638 2.467v-3.17c0-.388-.074-.68-.223-.874-.15-.194-.38-.29-.695-.29-.22 0-.404.035-.557.106a.938.938 0 0 0-.377.31 1.367 1.367 0 0 0-.21.507c-.045.2-.068.43-.068.694v2.717h-.82v-3.17c0-.388-.075-.68-.225-.874-.146-.194-.377-.29-.69-.29-.23 0-.424.038-.58.115a.95.95 0 0 0-.376.347 1.67 1.67 0 0 0-.203.56c-.04.222-.058.476-.058.763v2.55h-.818v-4.923h.664l.117.664h.044a1.462 1.462 0 0 1 .956-.708c.135-.03.27-.044.408-.044.36 0 .658.066.894.197.24.132.416.338.53.62h.035a1.44 1.44 0 0 1 .637-.614c.13-.07.268-.12.412-.153.142-.033.29-.05.438-.05.524 0 .917.144 1.18.43.266.285.4.74.4 1.37v3.214h-.817m4.565.086c-.176 0-.336-.02-.48-.057a1.897 1.897 0 0 1-.39-.153 1.525 1.525 0 0 1-.305-.23 1.985 1.985 0 0 1-.233-.272h-.054l.028.29.018.244c.006.08.01.145.01.192v2.104h-.818v-7.13h.664l.117.663h.035c.068-.104.146-.2.233-.29.087-.093.187-.172.3-.238.117-.07.247-.123.39-.162.144-.04.306-.062.485-.062.28 0 .537.053.767.16.23.11.427.27.588.485.164.213.292.477.38.794.09.317.136.685.136 1.103 0 .422-.045.793-.135 1.112a2.4 2.4 0 0 1-.382.8c-.16.214-.357.377-.588.487-.23.107-.486.16-.767.16m-.157-4.425c-.227 0-.42.034-.578.103a.912.912 0 0 0-.382.314c-.095.14-.167.315-.215.524-.044.21-.07.456-.075.74v.184c0 .302.02.57.058.807.042.234.11.43.206.592.098.158.228.28.39.363.16.08.363.12.605.12.404 0 .7-.162.888-.488.192-.326.288-.794.288-1.404 0-.62-.095-1.085-.287-1.393-.188-.308-.487-.462-.897-.462m6.504 4.335l-.12-.658h-.045c-.075.13-.165.24-.27.336-.1.093-.213.17-.336.234-.123.06-.253.104-.39.134-.14.03-.28.045-.423.045-.272 0-.51-.033-.717-.102a1.228 1.228 0 0 1-.516-.323 1.424 1.424 0 0 1-.314-.56 2.781 2.781 0 0 1-.104-.812v-3.216h.817v3.17c0 .39.08.68.238.875.16.195.404.292.736.292.243 0 .446-.04.61-.117a.94.94 0 0 0 .395-.34c.103-.153.175-.34.217-.56.044-.222.067-.477.067-.764v-2.556h.816v4.924h-.66m3.719-.579a2.792 2.792 0 0 0 .668-.092v.617a1.326 1.326 0 0 1-.345.1 1.606 1.606 0 0 1-.225.03 1.803 1.803 0 0 1-.744-.055.977.977 0 0 1-.413-.248 1.216 1.216 0 0 1-.268-.47 2.44 2.44 0 0 1-.1-.754v-2.856h-.694v-.364l.695-.35.35-1.03h.47v1.13h1.24v.614h-1.24v2.856c0 .29.047.508.14.655.096.146.25.22.467.22m4.409.574l-.167-.68h-.036c-.098.134-.197.25-.296.35a1.423 1.423 0 0 1-.712.377c-.143.03-.31.044-.498.044-.206 0-.396-.03-.57-.09a1.209 1.209 0 0 1-.453-.263 1.3 1.3 0 0 1-.296-.458 1.855 1.855 0 0 1-.106-.655c0-.49.172-.867.515-1.13.346-.264.873-.407 1.58-.43l.824-.032v-.31c0-.2-.023-.368-.067-.502a.745.745 0 0 0-.19-.322.664.664 0 0 0-.304-.18 1.473 1.473 0 0 0-.413-.053c-.248 0-.48.036-.695.107a4.69 4.69 0 0 0-.614.26l-.287-.614c.222-.12.47-.22.74-.305.273-.083.558-.125.857-.125.306 0 .57.03.79.094.224.06.408.157.552.29.146.133.255.302.327.508.07.206.107.456.107.75v3.37h-.588m-1.5-.568c.183 0 .352-.03.508-.085.155-.057.29-.142.404-.256.113-.116.2-.26.264-.434.066-.176.1-.383.1-.62v-.443l-.643.032c-.27.012-.494.04-.677.09-.182.047-.33.114-.44.2a.735.735 0 0 0-.233.31c-.048.12-.072.256-.072.41 0 .274.073.475.217.604.146.128.338.192.574.192m5.485.657a2.53 2.53 0 0 1-.848-.138 1.76 1.76 0 0 1-.687-.45 2.16 2.16 0 0 1-.458-.783c-.11-.32-.166-.705-.166-1.154 0-.47.056-.867.17-1.193.114-.328.27-.595.466-.798.2-.206.434-.356.7-.448a2.58 2.58 0 0 1 .857-.14c.233 0 .46.026.682.077.224.05.41.114.56.188l-.242.69a2.457 2.457 0 0 0-.228-.084 2.634 2.634 0 0 0-.772-.152c-.47 0-.812.15-1.027.453-.215.3-.323.765-.323 1.4 0 .63.108 1.092.323 1.385.218.29.55.435.99.435.243 0 .462-.027.656-.08.198-.058.377-.123.538-.198v.726c-.16.087-.334.153-.52.198a2.86 2.86 0 0 1-.673.067m.61 1.198c0 .29-.106.516-.318.677-.21.162-.54.243-.988.243a1.56 1.56 0 0 1-.202-.014c-.066-.01-.12-.018-.166-.027v-.484c.045.01.103.015.175.018.074.007.135.01.183.01.212 0 .378-.033.498-.1.12-.062.18-.166.18-.313 0-.07-.02-.134-.058-.188a.54.54 0 0 0-.16-.136 1.277 1.277 0 0 0-.248-.103 9.89 9.89 0 0 0-.305-.08l.402-.79h.543l-.255.517c.1.024.195.055.282.094.087.04.162.09.224.15a.643.643 0 0 1 .153.223c.038.087.057.19.057.305m4.541-1.291l-.166-.68h-.036c-.098.134-.197.25-.295.35a1.443 1.443 0 0 1-.713.377c-.144.03-.31.044-.5.044-.205 0-.395-.03-.568-.09a1.193 1.193 0 0 1-.453-.263 1.284 1.284 0 0 1-.295-.458 1.809 1.809 0 0 1-.108-.655c0-.49.172-.867.516-1.13.347-.264.873-.407 1.58-.43l.824-.032v-.31a1.6 1.6 0 0 0-.067-.502.745.745 0 0 0-.19-.322.664.664 0 0 0-.304-.18 1.471 1.471 0 0 0-.412-.053c-.248 0-.48.036-.696.107a4.69 4.69 0 0 0-.614.26l-.287-.614c.22-.12.468-.22.74-.305.272-.083.558-.125.857-.125.305 0 .568.03.79.094a1.21 1.21 0 0 1 .88.798c.07.206.106.456.106.75v3.37h-.587m-1.5-.568c.184 0 .353-.03.508-.085.157-.057.29-.142.405-.256.113-.116.202-.26.265-.434.065-.176.098-.383.098-.62v-.443l-.64.032c-.27.012-.496.04-.68.09-.18.047-.328.114-.438.2a.73.73 0 0 0-.234.31c-.047.12-.07.256-.07.41 0 .274.07.475.214.604.147.128.338.192.574.192m1.077-5.005a.904.904 0 0 1-.358-.076 4.284 4.284 0 0 1-.345-.174 5.117 5.117 0 0 0-.328-.175.674.674 0 0 0-.3-.08c-.136 0-.24.04-.31.122-.073.077-.13.21-.17.394h-.468c.015-.18.046-.342.094-.49.05-.145.115-.27.193-.37a.79.79 0 0 1 .286-.238.8.8 0 0 1 .373-.086c.124 0 .247.027.366.08.123.052.24.11.355.17.114.064.222.123.324.176.104.05.2.077.287.077.135 0 .237-.04.306-.117.07-.078.125-.21.17-.395h.47c-.014.18-.047.343-.097.49a1.27 1.27 0 0 1-.194.37.835.835 0 0 1-.283.24.811.811 0 0 1-.372.084m6.537 3.1c0 .41-.05.775-.15 1.095-.1.316-.243.584-.432.802-.185.215-.41.38-.677.494-.265.114-.564.17-.896.17-.308 0-.593-.056-.853-.17a1.92 1.92 0 0 1-.676-.493 2.352 2.352 0 0 1-.444-.802 3.508 3.508 0 0 1-.157-1.095c0-.406.05-.766.148-1.08.102-.317.246-.583.43-.8.187-.217.413-.38.68-.492.268-.114.57-.17.9-.17.31 0 .593.056.853.17.26.11.484.275.673.493.19.217.34.483.444.8.107.314.16.674.16 1.08m-3.444 0c0 .625.102 1.096.305 1.413.208.314.54.47 1.002.47.46 0 .79-.156.99-.47.204-.317.306-.788.306-1.413 0-.624-.103-1.09-.31-1.4-.203-.31-.535-.465-.995-.465-.46 0-.793.155-.996.466-.2.31-.3.776-.3 1.4M436.758 196c-.177 0-.337-.018-.48-.057a1.853 1.853 0 0 1-.39-.153 1.532 1.532 0 0 1-.306-.23 2.057 2.057 0 0 1-.233-.272h-.055l.027.29.018.244c.006.08.01.145.01.192v2.104h-.817v-7.13h.663l.117.663h.036c.068-.104.145-.2.232-.29.087-.093.187-.172.3-.238.117-.07.248-.123.39-.162.145-.04.306-.062.486-.062.28 0 .536.053.767.16.23.11.426.27.587.485.165.213.292.477.382.794.09.317.134.685.134 1.103 0 .422-.045.793-.134 1.112a2.38 2.38 0 0 1-.382.8c-.16.214-.357.377-.587.487-.23.107-.486.16-.767.16m-.157-4.425c-.227 0-.42.034-.578.103a.895.895 0 0 0-.38.314c-.097.14-.17.315-.217.525a3.96 3.96 0 0 0-.076.74v.183c0 .302.018.57.057.808.042.233.11.43.207.59.098.16.228.28.39.365.16.08.363.12.606.12.403 0 .7-.162.888-.488.19-.326.287-.794.287-1.404 0-.62-.096-1.085-.287-1.393-.19-.308-.488-.462-.897-.462m5.263 4.424c-.328 0-.63-.054-.9-.165a1.942 1.942 0 0 1-.705-.484 2.212 2.212 0 0 1-.454-.788 3.333 3.333 0 0 1-.16-1.077c0-.406.048-.77.147-1.09.1-.32.238-.59.417-.81.18-.225.393-.396.642-.512.25-.117.527-.175.83-.175.295 0 .56.054.797.16.236.106.437.255.6.45.166.19.29.423.378.695.09.27.135.568.135.897v.506h-3.105c.015.577.136 1.002.364 1.274.23.272.57.408 1.02.408a3.527 3.527 0 0 0 .8-.085c.123-.03.24-.066.354-.108.114-.045.23-.094.346-.148v.727c-.12.056-.238.106-.355.148a2.915 2.915 0 0 1-.73.161c-.128.012-.27.018-.422.018m-.2-4.425c-.342 0-.613.116-.813.35-.2.233-.314.572-.347 1.018h2.207c0-.204-.02-.39-.063-.556-.038-.17-.1-.316-.188-.435a.876.876 0 0 0-.324-.28 1.079 1.079 0 0 0-.475-.097m6.122 2.985c0 .24-.044.448-.13.627a1.21 1.21 0 0 1-.378.452c-.16.12-.357.21-.587.27-.23.06-.49.09-.776.09-.327 0-.607-.028-.84-.082a2.14 2.14 0 0 1-.615-.228v-.745a3.45 3.45 0 0 0 .67.266c.124.036.253.066.385.09.134.02.267.03.4.03.193 0 .358-.016.492-.048a.946.946 0 0 0 .332-.14.562.562 0 0 0 .19-.224.77.77 0 0 0 .013-.546.577.577 0 0 0-.166-.22 1.5 1.5 0 0 0-.323-.225 5.84 5.84 0 0 0-.53-.252 9.391 9.391 0 0 1-.582-.273c-.17-.09-.316-.19-.436-.3-.12-.11-.213-.24-.28-.382a1.368 1.368 0 0 1-.093-.52c0-.21.04-.395.12-.556.085-.165.202-.302.35-.413.15-.11.33-.194.54-.25.21-.058.442-.086.7-.086.29 0 .554.03.793.094.243.063.47.145.687.247l-.283.658a5.02 5.02 0 0 0-.6-.224 2.018 2.018 0 0 0-.625-.1c-.306 0-.53.052-.678.153-.147.1-.22.24-.22.426 0 .105.017.196.05.274a.62.62 0 0 0 .18.22c.083.068.195.14.335.21.14.07.316.147.525.234.216.09.407.18.574.27.17.09.316.19.436.305.12.11.21.237.273.38.063.144.094.316.094.517m3.977 1.349l-.166-.68h-.036c-.1.134-.197.25-.296.35a1.443 1.443 0 0 1-.713.377c-.144.03-.31.044-.498.044a1.73 1.73 0 0 1-.57-.09 1.195 1.195 0 0 1-.453-.263 1.286 1.286 0 0 1-.296-.458 1.809 1.809 0 0 1-.108-.655c0-.49.172-.867.516-1.13.347-.264.873-.407 1.58-.43l.825-.032v-.31c0-.2-.024-.368-.07-.502a.73.73 0 0 0-.187-.322.687.687 0 0 0-.305-.18 1.473 1.473 0 0 0-.413-.053c-.248 0-.48.036-.695.108-.213.07-.417.158-.615.26l-.287-.615c.22-.12.468-.22.74-.305.272-.083.558-.125.857-.125.305 0 .568.03.79.094a1.21 1.21 0 0 1 .88.798c.07.206.106.456.106.75v3.37h-.586m-1.498-.568c.182 0 .35-.03.506-.085.156-.057.29-.142.404-.256.114-.116.202-.26.265-.434.067-.176.1-.383.1-.62v-.443l-.642.032a3.27 3.27 0 0 0-.677.09 1.213 1.213 0 0 0-.44.2.733.733 0 0 0-.232.31c-.048.12-.072.256-.072.41 0 .274.072.475.215.604.148.128.34.192.576.192m6.641-.091h-.037c-.066.102-.143.2-.233.292-.087.09-.188.168-.305.237-.114.07-.242.124-.386.163-.144.04-.306.058-.485.058-.278 0-.533-.053-.763-.16a1.605 1.605 0 0 1-.592-.48 2.321 2.321 0 0 1-.38-.798 4.056 4.056 0 0 1-.136-1.104c0-.42.045-.79.135-1.107.088-.32.215-.587.38-.802.164-.215.362-.377.592-.484.23-.11.485-.166.763-.166.176 0 .336.02.48.058a1.616 1.616 0 0 1 .929.659h.054l-.027-.29-.018-.24a2.996 2.996 0 0 1-.01-.196v-1.956h.818v6.977h-.66l-.12-.658m-1.288.072c.227 0 .418-.034.574-.103a.857.857 0 0 0 .38-.313c.1-.14.172-.316.217-.525.047-.212.074-.46.08-.74v-.184c0-.302-.02-.57-.063-.802a1.583 1.583 0 0 0-.206-.592.911.911 0 0 0-.386-.363 1.31 1.31 0 0 0-.605-.125c-.404 0-.702.163-.893.49-.188.325-.283.793-.283 1.402 0 .625.095 1.092.283 1.4.19.304.492.457.902.457m6.407.581l-.166-.68h-.036c-.1.134-.198.25-.296.35a1.443 1.443 0 0 1-.713.377c-.144.03-.31.044-.5.044-.205 0-.395-.03-.568-.09a1.177 1.177 0 0 1-.454-.263 1.272 1.272 0 0 1-.296-.458 1.809 1.809 0 0 1-.108-.655c0-.49.172-.867.516-1.13.347-.264.873-.407 1.58-.43l.824-.032v-.31a1.6 1.6 0 0 0-.067-.502.762.762 0 0 0-.188-.322.687.687 0 0 0-.305-.18 1.478 1.478 0 0 0-.413-.053c-.25 0-.48.036-.696.108-.213.07-.418.158-.615.26l-.288-.615c.22-.12.468-.22.74-.305.272-.083.558-.125.857-.125.304 0 .567.03.788.094.225.06.41.157.552.29.147.133.256.302.328.508.07.206.107.456.107.75v3.37h-.587m-1.5-.568c.184 0 .353-.03.508-.085.156-.057.29-.142.404-.256.114-.116.202-.26.265-.434.065-.176.098-.383.098-.62v-.443l-.64.032c-.27.012-.496.042-.68.09-.18.047-.328.114-.438.2a.72.72 0 0 0-.233.31c-.048.12-.072.256-.072.41 0 .274.072.475.215.604.147.128.338.192.574.192" style="text-align:center" font-size="10.675" letter-spacing="0" word-spacing="0" fill="#fff" font-family="Droid Sans" text-anchor="middle"/></g><path d="M27.168 142.88v3.554h-1.095v-8.6h2.095c1.043 0 1.814.203 2.312.607.498.405.747 1.016.747 1.836 0 .34-.05.64-.147.894a2.13 2.13 0 0 1-.382.66c-.157.18-.338.33-.542.45a3.484 3.484 0 0 1-.63.3l2.342 3.854H30.58l-2.065-3.553h-1.347m0-.928h.964c.353 0 .653-.033.9-.1.248-.07.45-.172.607-.306a1.17 1.17 0 0 0 .346-.506c.074-.203.11-.44.11-.71 0-.283-.04-.523-.122-.72-.08-.195-.2-.356-.365-.48a1.524 1.524 0 0 0-.62-.272 3.879 3.879 0 0 0-.88-.088h-.942v3.182m8.421 4.596c-.432 0-.826-.07-1.183-.216a2.569 2.569 0 0 1-.924-.635 2.92 2.92 0 0 1-.594-1.037 4.363 4.363 0 0 1-.212-1.41c0-.534.065-1.01.195-1.43.128-.42.31-.775.546-1.065.235-.294.515-.517.84-.67.33-.153.693-.23 1.09-.23.388 0 .737.07 1.047.212.31.137.572.333.788.588.217.25.38.555.495.912.118.353.177.745.177 1.176v.665H33.78c.02.757.18 1.314.477 1.67.302.358.75.536 1.34.536a4.724 4.724 0 0 0 1.05-.112c.16-.04.315-.086.464-.14.15-.06.3-.124.453-.195v.952a4.535 4.535 0 0 1-.93.329 3.615 3.615 0 0 1-.494.078 5.92 5.92 0 0 1-.553.023m-.265-5.804c-.447 0-.802.153-1.065.46-.26.305-.41.75-.453 1.334H36.7c0-.266-.03-.51-.084-.73a1.527 1.527 0 0 0-.247-.57 1.13 1.13 0 0 0-.424-.364 1.386 1.386 0 0 0-.624-.13m6.461 4.916c.298 0 .55-.045.753-.135.208-.09.374-.227.5-.412.13-.184.224-.413.282-.688.063-.278.098-.602.106-.97v-.24c0-.397-.027-.748-.082-1.054-.05-.31-.14-.57-.27-.777a1.214 1.214 0 0 0-.506-.476c-.21-.11-.476-.164-.794-.164-.53 0-.92.214-1.17.64-.248.43-.37 1.042-.37 1.842 0 .82.122 1.432.37 1.835.25.4.644.6 1.182.6m-.206.888c-.365 0-.698-.07-1-.21a2.105 2.105 0 0 1-.777-.63 3.044 3.044 0 0 1-.5-1.047c-.12-.415-.177-.897-.177-1.446 0-.553.058-1.037.176-1.453.117-.42.283-.77.5-1.053.215-.28.474-.493.776-.634a2.28 2.28 0 0 1 1-.218 2.26 2.26 0 0 1 1.135.295c.15.087.284.19.4.312.12.118.223.245.313.382h.047l.16-.87h.864v9.35h-1.07v-2.757c0-.076.004-.17.01-.283.01-.114.017-.224.025-.33l.034-.388h-.07c-.087.132-.19.26-.307.38a2.01 2.01 0 0 1-.906.525c-.187.05-.4.076-.634.076m9.149-.119l-.16-.865h-.058a1.86 1.86 0 0 1-.353.44c-.134.122-.28.224-.44.306-.162.08-.333.137-.513.177-.18.04-.364.058-.552.058-.357 0-.67-.044-.942-.134-.27-.09-.496-.23-.676-.423a1.89 1.89 0 0 1-.412-.736 3.7 3.7 0 0 1-.135-1.064v-4.217h1.07v4.158c0 .51.104.892.312 1.147.208.256.53.383.965.383.318 0 .585-.05.8-.153.216-.102.39-.25.518-.447.133-.2.227-.445.282-.735.06-.29.09-.623.09-1v-3.352h1.07v6.458h-.865m3.994-.001h-1.07v-6.458h1.07v6.458m-1.154-8.205c0-.236.06-.407.177-.513a.657.657 0 0 1 .447-.158c.086 0 .167.012.24.04a.521.521 0 0 1 .336.329c.036.08.053.18.053.3 0 .227-.063.397-.19.51a.63.63 0 0 1-.44.165.64.64 0 0 1-.447-.164c-.118-.11-.177-.28-.177-.51m7.079 6.435c0 .314-.057.59-.17.824-.114.235-.28.433-.495.594-.213.158-.47.275-.772.354-.302.078-.64.117-1.017.117-.427 0-.794-.034-1.1-.105a2.766 2.766 0 0 1-.806-.3v-.976c.122.062.257.125.406.187a5.179 5.179 0 0 0 .977.277c.176.027.35.04.524.04.256 0 .47-.02.648-.064.18-.043.325-.104.435-.182a.726.726 0 0 0 .247-.294.984.984 0 0 0 .017-.718.76.76 0 0 0-.217-.288 1.978 1.978 0 0 0-.423-.294 8.685 8.685 0 0 0-.695-.33c-.282-.12-.537-.24-.764-.358a2.671 2.671 0 0 1-.57-.394 1.548 1.548 0 0 1-.366-.5 1.73 1.73 0 0 1-.123-.682c0-.275.05-.518.157-.73.11-.215.263-.395.46-.54.195-.146.43-.255.705-.33.275-.074.58-.112.918-.112.38 0 .728.042 1.04.124.32.082.62.19.902.323l-.37.865a6.798 6.798 0 0 0-.79-.294 2.649 2.649 0 0 0-.817-.13c-.4 0-.696.067-.89.2a.638.638 0 0 0-.287.56c0 .136.022.256.065.358a.824.824 0 0 0 .235.288c.11.09.257.182.44.277.186.09.415.19.69.304.282.118.533.236.753.353.224.118.415.25.572.4.156.145.276.312.358.5.083.188.124.414.124.676m2.641 1.771h-1.07v-6.458h1.07v6.458m-1.154-8.205c0-.236.06-.407.177-.513a.656.656 0 0 1 .446-.158c.086 0 .167.012.24.04a.533.533 0 0 1 .337.329.75.75 0 0 1 .053.3c0 .227-.063.397-.19.51a.628.628 0 0 1-.44.165.643.643 0 0 1-.447-.164c-.12-.11-.178-.28-.178-.51m5.686 8.322c-.396 0-.767-.06-1.112-.18a2.328 2.328 0 0 1-.9-.59 2.836 2.836 0 0 1-.6-1.028c-.146-.42-.218-.924-.218-1.512 0-.615.074-1.137.223-1.564.15-.432.352-.78.61-1.047.264-.272.57-.468.92-.59.348-.12.723-.182 1.123-.182.306 0 .604.034.894.1.294.067.54.15.736.247l-.318.906a3.504 3.504 0 0 0-.3-.11 2.958 2.958 0 0 0-.34-.1 2.55 2.55 0 0 0-.35-.07c-.112-.02-.22-.03-.322-.03-.616 0-1.065.197-1.347.593-.283.392-.424 1.004-.424 1.835 0 .828.14 1.433.424 1.818.286.38.72.57 1.3.57.318 0 .604-.035.86-.106a4.9 4.9 0 0 0 .705-.258v.952c-.21.114-.44.2-.682.26a3.81 3.81 0 0 1-.882.087m.8 1.572c0 .38-.14.676-.418.888-.274.212-.706.317-1.294.317-.086 0-.175-.006-.265-.017a5.042 5.042 0 0 1-.22-.035v-.636c.06.01.137.02.23.023.1.008.18.012.242.012.28 0 .496-.044.653-.13.157-.082.236-.22.236-.412a.411.411 0 0 0-.076-.247.687.687 0 0 0-.212-.176 1.726 1.726 0 0 0-.323-.135c-.123-.036-.256-.07-.4-.106l.528-1.036h.712l-.335.676c.133.032.256.073.37.124.114.05.212.115.294.194.086.082.152.18.2.294.05.114.076.247.076.4m7.574-4.928c0 .537-.067 1.016-.2 1.435a2.92 2.92 0 0 1-.565 1.053c-.243.283-.54.5-.888.648-.35.15-.742.223-1.177.223-.404 0-.777-.073-1.118-.222a2.559 2.559 0 0 1-.888-.647 3.111 3.111 0 0 1-.583-1.052 4.589 4.589 0 0 1-.207-1.435c0-.533.065-1.006.195-1.417.133-.416.32-.765.564-1.047.243-.287.54-.503.89-.648.352-.15.746-.224 1.18-.224.405 0 .778.075 1.12.224.34.145.634.36.882.647.25.28.445.63.582 1.046.14.41.212.884.212 1.417m-4.52 0c0 .82.135 1.437.4 1.853.272.41.71.617 1.313.617.606 0 1.04-.206 1.302-.617.266-.416.4-1.033.4-1.853 0-.82-.136-1.43-.406-1.835-.267-.408-.702-.612-1.306-.612-.604 0-1.04.204-1.306.612-.263.404-.395 1.016-.395 1.835m2.56-4.07c-.158 0-.315-.033-.472-.1a6.422 6.422 0 0 1-.453-.23 8.49 8.49 0 0 0-.43-.23.863.863 0 0 0-.394-.104c-.175 0-.31.05-.405.157-.094.102-.168.275-.223.518h-.612c.02-.235.06-.45.123-.64.067-.193.15-.356.253-.49.106-.137.232-.24.377-.31.145-.076.308-.113.488-.113.166 0 .327.035.484.106.16.067.316.14.465.224.148.082.29.158.422.23.137.066.263.1.377.1.175 0 .31-.052.4-.154.09-.102.164-.274.222-.518h.618c-.02.236-.063.45-.13.642a1.63 1.63 0 0 1-.252.488 1.046 1.046 0 0 1-.86.423m6.215 7.427c-.432 0-.826-.07-1.183-.216a2.564 2.564 0 0 1-.925-.635 2.92 2.92 0 0 1-.594-1.037c-.14-.41-.21-.882-.21-1.41 0-.534.064-1.01.193-1.43.13-.42.312-.775.548-1.065a2.35 2.35 0 0 1 .842-.67c.33-.153.692-.23 1.088-.23.39 0 .738.07 1.048.212.31.137.572.333.788.588.216.25.38.555.494.912.118.353.177.745.177 1.176v.665h-4.072c.02.757.18 1.314.477 1.67.302.358.75.536 1.34.536a4.724 4.724 0 0 0 1.049-.112c.16-.04.316-.086.465-.14.15-.06.3-.124.453-.195v.952a4.63 4.63 0 0 1-.464.194c-.15.055-.304.1-.465.135a3.655 3.655 0 0 1-.495.078 5.92 5.92 0 0 1-.553.023m-.265-5.804c-.447 0-.802.153-1.065.46-.26.305-.41.75-.453 1.334h2.894c0-.266-.028-.51-.083-.73a1.526 1.526 0 0 0-.246-.57 1.116 1.116 0 0 0-.424-.364 1.382 1.382 0 0 0-.623-.13m8.024 3.916c0 .314-.057.59-.17.824-.115.235-.28.433-.495.594-.212.158-.47.275-.77.354a4.09 4.09 0 0 1-1.02.117c-.426 0-.793-.034-1.1-.105a2.77 2.77 0 0 1-.805-.3v-.976c.122.062.257.125.406.187a5.179 5.179 0 0 0 .977.277c.176.027.35.04.523.04.255 0 .47-.02.648-.064.18-.043.325-.104.435-.182a.721.721 0 0 0 .248-.294.984.984 0 0 0 .017-.718.781.781 0 0 0-.217-.288 1.962 1.962 0 0 0-.424-.294 8.48 8.48 0 0 0-.694-.33c-.282-.12-.537-.24-.765-.358a2.697 2.697 0 0 1-.57-.394 1.545 1.545 0 0 1-.365-.5 1.713 1.713 0 0 1-.124-.682c0-.275.053-.518.16-.73.11-.215.262-.395.458-.54.196-.146.43-.255.706-.33.275-.074.58-.112.918-.112.38 0 .727.042 1.04.124.32.082.62.19.9.323l-.37.865a6.57 6.57 0 0 0-.788-.294 2.649 2.649 0 0 0-.817-.13c-.4 0-.697.067-.89.2a.638.638 0 0 0-.287.56c0 .136.02.256.065.358a.84.84 0 0 0 .236.288c.11.09.257.182.44.277.186.09.415.19.69.304.282.118.533.236.753.353.222.118.412.25.57.4.156.145.276.312.358.5.083.188.124.414.124.676" style="line-height:125%;-inkscape-font-specification:Droid Sans" font-size="14" letter-spacing="0" word-spacing="0" fill="#fff" font-family="Droid Sans"/><path d="M109.116 177.518l5.998 10.35 5.97 10.353h-7.126c3.894 15.236 22.918 26.457 51.37 26.457 28.452 0 52.473-15.734 52.473-35.248h8.608c0 24.163-30.115 43.85-61.08 43.85-30.966 0-56.102-15.09-60.192-35.06h-7.988l5.998-10.35z" style="text-indent:0;text-align:start;line-height:normal;text-transform:none;block-progression:tb;-inkscape-font-specification:Sans" color="#000" fill="#e91e6f" overflow="visible" font-family="Sans"/><g style="line-height:125%;-inkscape-font-specification:Droid Sans" font-size="32" letter-spacing="0" word-spacing="0" fill="#e91e6f" font-family="Droid Sans"><path d="M117.108 245.737c0 .725-.094 1.362-.282 1.91a3.611 3.611 0 0 1-.818 1.37c-.357.366-.796.64-1.318.825-.517.184-1.106.276-1.765.276h-2.153v-8.598h2.395c.6 0 1.143.09 1.63.27.486.18.9.45 1.24.806.342.353.605.792.79 1.317.187.526.28 1.134.28 1.824m-1.158.035c0-.573-.065-1.067-.195-1.482-.13-.42-.318-.765-.565-1.035-.247-.27-.55-.47-.912-.6a3.51 3.51 0 0 0-1.23-.2h-1.182v6.722h.953c1.035 0 1.815-.286 2.34-.858.527-.574.79-1.423.79-2.548m3.984 4.347h-1.07v-6.458h1.07v6.458m-1.153-8.204c0-.236.058-.406.176-.512.12-.106.27-.16.447-.16.086 0 .167.015.24.042.08.024.146.063.2.118.06.055.105.125.136.212a.764.764 0 0 1 .052.3c0 .227-.062.398-.188.51a.634.634 0 0 1-.44.166.64.64 0 0 1-.448-.165c-.118-.11-.177-.28-.177-.51m7.08 6.433c0 .314-.057.588-.17.823-.114.237-.28.435-.495.595-.212.157-.47.275-.77.353-.303.08-.642.118-1.018.118-.428 0-.795-.035-1.1-.106a2.82 2.82 0 0 1-.807-.3v-.976c.122.062.257.125.406.188.15.06.306.112.47.16.166.046.334.085.507.116a3.324 3.324 0 0 0 1.171-.023c.18-.043.326-.104.436-.182a.733.733 0 0 0 .247-.294c.05-.12.077-.25.077-.39a.88.88 0 0 0-.06-.33.765.765 0 0 0-.217-.287 1.978 1.978 0 0 0-.423-.294c-.18-.1-.412-.21-.695-.33a11.972 11.972 0 0 1-.764-.36 2.647 2.647 0 0 1-.57-.393 1.556 1.556 0 0 1-.365-.5 1.736 1.736 0 0 1-.123-.683c0-.274.052-.517.158-.73.11-.215.263-.395.46-.54a2.09 2.09 0 0 1 .705-.33c.275-.074.58-.11.918-.11.38 0 .728.04 1.04.122.32.083.62.19.902.324l-.37.864a7.393 7.393 0 0 0-.79-.294 2.649 2.649 0 0 0-.817-.13c-.4 0-.696.068-.89.2a.64.64 0 0 0-.287.56c0 .137.023.256.066.358a.848.848 0 0 0 .235.29c.11.09.258.18.442.275.185.09.414.192.69.306.28.117.532.234.752.352.223.117.414.25.57.4.157.145.277.31.36.5.082.188.123.413.123.676m4.485 1.89c-.23 0-.44-.026-.63-.077a2.44 2.44 0 0 1-.51-.2 2.03 2.03 0 0 1-.4-.3 2.788 2.788 0 0 1-.307-.36h-.072l.035.383.024.318c.008.106.012.19.012.254v2.758h-1.072v-9.352h.87l.154.87h.047c.09-.136.19-.264.305-.38.113-.123.245-.227.394-.313a2.275 2.275 0 0 1 1.146-.294c.37 0 .704.07 1.006.212.302.14.56.352.77.635.217.278.383.625.5 1.04.12.416.177.9.177 1.448 0 .552-.06 1.04-.177 1.458a3.09 3.09 0 0 1-.5 1.047c-.212.282-.47.496-.77.64a2.342 2.342 0 0 1-1.007.213m-.206-5.805c-.298 0-.55.046-.76.136-.203.09-.37.228-.5.412-.124.184-.22.414-.28.688-.06.274-.094.598-.1.97v.242c0 .396.024.748.075 1.058.055.306.145.565.27.777.13.207.3.366.513.476.21.105.476.158.794.158.53 0 .918-.214 1.165-.64.25-.43.376-1.042.376-1.842 0-.816-.125-1.425-.376-1.83-.247-.403-.64-.605-1.177-.605m7.995 5.687l-.218-.894h-.047c-.13.177-.26.33-.388.46a1.89 1.89 0 0 1-.936.493c-.187.04-.405.06-.652.06-.27 0-.52-.04-.747-.12a1.568 1.568 0 0 1-.593-.346 1.7 1.7 0 0 1-.39-.6 2.387 2.387 0 0 1-.14-.857c0-.643.226-1.137.677-1.482.455-.344 1.145-.533 2.07-.564l1.083-.04v-.407c0-.264-.03-.483-.088-.66a.99.99 0 0 0-.248-.423.904.904 0 0 0-.4-.236 1.922 1.922 0 0 0-.54-.07c-.327 0-.63.048-.913.142-.28.094-.548.208-.807.34l-.377-.805c.29-.156.614-.29.97-.4.358-.11.732-.164 1.125-.164.4 0 .746.04 1.036.123.294.08.535.206.724.383.192.17.335.393.43.663.093.27.14.598.14.982v4.423h-.77m-1.965-.747c.24 0 .46-.036.664-.11.203-.075.38-.187.53-.336a1.58 1.58 0 0 0 .346-.57c.086-.23.13-.502.13-.812v-.582l-.842.04c-.353.017-.65.056-.888.12-.24.06-.432.15-.577.263a.944.944 0 0 0-.307.406 1.44 1.44 0 0 0-.094.534c0 .36.093.626.282.794.192.17.443.253.753.253m7.521-5.829c.113 0 .24.006.382.017.14.008.263.022.365.042l-.14.988a3.971 3.971 0 0 0-.342-.047 2.3 2.3 0 0 0-.323-.024c-.247 0-.473.05-.677.152-.204.098-.38.24-.53.43a2.08 2.08 0 0 0-.34.67c-.08.26-.118.547-.118.864v3.482h-1.07v-6.458h.87l.13 1.183h.046c.098-.17.202-.332.312-.49.114-.155.24-.293.377-.41a1.67 1.67 0 0 1 .47-.288c.173-.075.37-.112.59-.112m7.269 3.336c0 .537-.066 1.015-.2 1.435-.13.415-.317.766-.564 1.052-.243.283-.54.498-.888.647-.35.15-.74.224-1.176.224-.404 0-.777-.075-1.118-.224a2.545 2.545 0 0 1-.89-.647 3.126 3.126 0 0 1-.58-1.052 4.589 4.589 0 0 1-.207-1.435c0-.534.066-1.006.195-1.418.133-.415.322-.764.565-1.047.243-.286.54-.502.888-.647.353-.15.748-.223 1.183-.223.405 0 .777.074 1.12.223.34.145.634.36.88.647.252.283.446.632.584 1.047.14.412.21.884.21 1.418m-4.517 0c0 .82.133 1.437.4 1.852.27.412.708.618 1.312.618.603 0 1.037-.206 1.3-.618.266-.415.4-1.033.4-1.852 0-.82-.136-1.432-.407-1.835-.266-.408-.702-.612-1.306-.612-.604 0-1.04.205-1.306.613-.262.403-.393 1.015-.393 1.835m13.335 2.375h-.047a2.71 2.71 0 0 1-.306.382 1.95 1.95 0 0 1-.906.522c-.19.052-.4.078-.636.078a2.32 2.32 0 0 1-1-.212c-.302-.14-.56-.35-.777-.63a3.084 3.084 0 0 1-.5-1.046 5.363 5.363 0 0 1-.176-1.447c0-.552.06-1.036.176-1.452.118-.42.285-.77.5-1.052.216-.283.475-.494.777-.636a2.279 2.279 0 0 1 1-.217c.232 0 .44.025.63.076a2.117 2.117 0 0 1 .912.505c.117.114.22.233.306.36h.07l-.035-.383-.024-.312a3.78 3.78 0 0 1-.012-.26v-2.563h1.07v9.15h-.864l-.16-.863m-1.688.094c.298 0 .55-.045.753-.135.207-.09.374-.228.5-.412.13-.183.223-.413.282-.687a5.01 5.01 0 0 0 .106-.97v-.242c0-.395-.028-.746-.083-1.052-.05-.31-.14-.568-.27-.776a1.213 1.213 0 0 0-.506-.476c-.213-.11-.478-.165-.796-.165-.53 0-.92.215-1.17.642-.248.427-.37 1.04-.37 1.84 0 .82.122 1.432.37 1.836.25.4.645.6 1.182.6m10.027-2.473c0 .537-.065 1.015-.2 1.435a2.89 2.89 0 0 1-.563 1.052c-.244.283-.54.498-.89.647-.348.15-.74.224-1.175.224-.404 0-.777-.075-1.118-.224a2.545 2.545 0 0 1-.89-.647 3.126 3.126 0 0 1-.58-1.052 4.589 4.589 0 0 1-.207-1.435c0-.534.065-1.006.194-1.418.134-.415.323-.764.566-1.047.243-.286.54-.502.888-.647.353-.15.747-.223 1.183-.223.404 0 .776.074 1.118.223.34.145.635.36.882.647.25.283.445.632.583 1.047.14.412.21.884.21 1.418m-4.517 0c0 .82.133 1.437.4 1.852.27.412.708.618 1.312.618.604 0 1.037-.206 1.3-.618.267-.415.4-1.033.4-1.852 0-.82-.135-1.432-.406-1.835-.267-.408-.703-.612-1.307-.612s-1.04.205-1.306.613c-.263.403-.394 1.015-.394 1.835" font-size="14"/><path d="M175.39 250.236c-.397 0-.756-.06-1.077-.182a1.789 1.789 0 0 1-.783-.59c-.2-.27-.33-.612-.394-1.028-.06-.42-.03-.923.088-1.51.122-.617.3-1.138.535-1.566.235-.43.51-.78.823-1.047a3 3 0 0 1 1.03-.588 3.813 3.813 0 0 1 2.041-.082c.28.066.506.15.683.247l-.5.906a2.53 2.53 0 0 0-.277-.112 2.434 2.434 0 0 0-.323-.1 2.284 2.284 0 0 0-.33-.07c-.11-.02-.216-.03-.318-.03-.616 0-1.107.198-1.47.594-.362.392-.625 1.004-.79 1.835-.165.827-.143 1.433.065 1.817.208.38.602.57 1.182.57.318 0 .612-.035.883-.105.27-.075.522-.16.753-.26l-.188.954c-.236.113-.48.2-.736.258-.252.06-.552.088-.9.088m6.773-.117l-.04-.894h-.047c-.165.177-.326.33-.483.46a2.45 2.45 0 0 1-.482.31c-.17.083-.35.144-.547.183-.195.04-.417.06-.664.06-.27 0-.512-.04-.724-.12a1.205 1.205 0 0 1-.523-.346 1.297 1.297 0 0 1-.272-.6 2.387 2.387 0 0 1 .03-.857c.13-.643.454-1.137.976-1.482.522-.344 1.25-.533 2.183-.564l1.088-.04.083-.407c.054-.264.07-.483.047-.66a.793.793 0 0 0-.16-.423.707.707 0 0 0-.358-.236 1.81 1.81 0 0 0-.53-.07c-.325 0-.637.048-.935.142-.298.094-.59.208-.877.34l-.217-.805c.32-.156.672-.29 1.053-.4.38-.11.768-.164 1.16-.164.4 0 .737.04 1.012.123.274.08.49.206.647.383.156.17.254.393.293.663.04.27.02.598-.06.982l-.88 4.423h-.772m-1.817-.747c.24 0 .47-.036.688-.11.22-.075.42-.187.596-.336.18-.153.335-.343.464-.57.134-.23.232-.502.295-.812l.11-.582-.846.04a4.65 4.65 0 0 0-.913.12c-.25.06-.46.15-.63.263a1.26 1.26 0 0 0-.388.406c-.095.156-.16.335-.2.534-.07.36-.03.626.123.794.157.17.39.253.7.253m5.647.746h-1.07l1.83-9.15h1.07l-1.83 9.15m3.13 0h-1.07l1.83-9.15h1.07l-1.83 9.15m6.296-6.575c.37 0 .69.07.96.212.274.14.49.352.646.635.16.278.257.625.29 1.04.034.416-.003.9-.113 1.448a6 6 0 0 1-.472 1.458c-.2.416-.435.765-.706 1.047a2.725 2.725 0 0 1-.9.64c-.33.142-.68.213-1.047.213a2.27 2.27 0 0 1-.618-.077 1.957 1.957 0 0 1-.465-.2 1.5 1.5 0 0 1-.34-.3 1.813 1.813 0 0 1-.236-.36h-.07l-.383.818h-.783l1.83-9.15h1.07l-.44 2.21c-.028.137-.06.284-.095.44-.035.154-.07.297-.106.43-.04.157-.077.31-.112.46h.047c.117-.138.245-.265.382-.383s.29-.22.46-.306a2.35 2.35 0 0 1 .546-.2c.2-.052.418-.077.653-.077m-.388.888c-.314 0-.586.052-.818.154a1.59 1.59 0 0 0-.594.453c-.17.204-.31.458-.424.764-.113.307-.21.666-.294 1.078-.078.396-.12.748-.13 1.058-.007.306.03.565.113.777a.97.97 0 0 0 .412.476c.193.105.447.158.765.158.53 0 .96-.214 1.295-.64.337-.43.586-1.042.747-1.842.16-.816.156-1.425-.013-1.83-.17-.403-.522-.605-1.06-.605m6.857 5.688l-.04-.894h-.048c-.165.177-.326.33-.483.46a2.437 2.437 0 0 1-.48.31c-.17.083-.352.144-.548.183-.196.04-.418.06-.665.06-.27 0-.512-.04-.724-.12a1.217 1.217 0 0 1-.523-.346 1.295 1.295 0 0 1-.27-.6 2.342 2.342 0 0 1 .03-.857c.128-.643.453-1.137.975-1.482.522-.344 1.25-.533 2.183-.564l1.088-.04.083-.407c.054-.264.07-.483.046-.66a.793.793 0 0 0-.16-.423.703.703 0 0 0-.358-.236 1.81 1.81 0 0 0-.53-.07c-.325 0-.637.048-.935.142-.298.094-.59.208-.877.34l-.217-.805a6.5 6.5 0 0 1 1.052-.4c.38-.11.767-.164 1.16-.164.4 0 .736.04 1.01.123.275.08.49.206.648.383.157.17.255.393.294.663.04.27.02.598-.06.982l-.88 4.423h-.772m-1.818-.747c.24 0 .47-.036.688-.11.22-.075.418-.187.595-.336.18-.153.335-.343.464-.57.135-.23.233-.502.296-.812l.11-.582-.846.04a4.66 4.66 0 0 0-.912.12c-.25.06-.46.15-.63.263a1.26 1.26 0 0 0-.388.406c-.094.156-.16.335-.2.534-.07.36-.03.626.124.794.157.17.39.253.7.253m7.026.864c-.397 0-.756-.06-1.078-.182a1.791 1.791 0 0 1-.782-.59c-.2-.27-.332-.612-.394-1.028-.06-.42-.03-.923.088-1.51.12-.617.3-1.138.535-1.566.234-.43.51-.78.823-1.047a3 3 0 0 1 1.03-.588c.376-.12.764-.182 1.164-.182.306 0 .598.033.877.1.278.066.506.15.682.247l-.5.906a2.431 2.431 0 0 0-.276-.112 2.404 2.404 0 0 0-.324-.1 2.284 2.284 0 0 0-.33-.07c-.11-.02-.215-.03-.317-.03-.617 0-1.107.198-1.472.594-.36.392-.623 1.004-.788 1.835-.165.827-.143 1.433.065 1.817.207.38.602.57 1.182.57.318 0 .612-.035.883-.105.27-.075.52-.16.753-.26l-.19.954c-.234.113-.48.2-.734.258-.252.06-.552.088-.9.088m4.785-3.452l.994-1 2.154-2.123h1.24l-2.917 2.794 1.783 3.664h-1.23l-1.383-2.964-.74.482-.495 2.482h-1.06l1.83-9.15h1.06l-.842 4.198-.418 1.617h.024" style="-inkscape-font-specification:Droid Sans Italic" font-style="italic"/></g></svg>