<?xml version="1.0" encoding="UTF-8" standalone="no"?>
<!-- Created with Inkscape (http://www.inkscape.org/) -->

<svg
   xmlns:dc="http://purl.org/dc/elements/1.1/"
   xmlns:cc="http://creativecommons.org/ns#"
   xmlns:rdf="http://www.w3.org/1999/02/22-rdf-syntax-ns#"
   xmlns:svg="http://www.w3.org/2000/svg"
   xmlns="http://www.w3.org/2000/svg"
   xmlns:sodipodi="http://sodipodi.sourceforge.net/DTD/sodipodi-0.dtd"
   xmlns:inkscape="http://www.inkscape.org/namespaces/inkscape"
   width="255"
   height="110"
   viewBox="0 0 255 110"
   id="svg4625"
   version="1.1"
   inkscape:version="0.91 r"
   sodipodi:docname="constructor.svg">
  <defs
     id="defs4627" />
  <sodipodi:namedview
     id="base"
     pagecolor="#ffffff"
     bordercolor="#666666"
     borderopacity="1.0"
     inkscape:pageopacity="0.0"
     inkscape:pageshadow="2"
     inkscape:zoom="31.678384"
     inkscape:cx="127.93088"
     inkscape:cy="17.502979"
     inkscape:document-units="px"
     inkscape:current-layer="layer1"
     showgrid="false"
     showguides="false"
     inkscape:window-width="1366"
     inkscape:window-height="713"
     inkscape:window-x="0"
     inkscape:window-y="30"
     inkscape:window-maximized="1"
     fit-margin-top="0"
     fit-margin-left="0"
     fit-margin-right="0"
     fit-margin-bottom="0"
     units="px" />
  <metadata
     id="metadata4630">
    <rdf:RDF>
      <cc:Work
         rdf:about="">
        <dc:format>image/svg+xml</dc:format>
        <dc:type
           rdf:resource="http://purl.org/dc/dcmitype/StillImage" />
        <dc:title />
      </cc:Work>
    </rdf:RDF>
  </metadata>
  <g
     inkscape:label="Layer 1"
     inkscape:groupmode="layer"
     id="layer1"
     transform="translate(-106.01048,-183.59734)">
    <rect
       y="183.59734"
       x="106.01048"
       height="110"
       width="255"
       id="rect4557"
       style="opacity:1;fill:none;fill-opacity:1;stroke:none;stroke-width:5;stroke-linecap:butt;stroke-linejoin:round;stroke-miterlimit:4;stroke-dasharray:none;stroke-dashoffset:0;stroke-opacity:1" />
    <path
       inkscape:connector-curvature="0"
       d="m 239.85786,263.52208 c -1.07203,0 -1.89174,0.81986 -1.89174,1.89189 0,1.07199 0.81971,1.89174 1.89174,1.89174 1.07201,0 1.89188,-0.81975 1.89188,-1.89174 0,-1.07203 -0.81987,-1.89189 -1.89188,-1.89189 z m -0.88279,-3.15295 1.8288,0 0.12604,1.135 c 0.25225,0.0631 0.56749,0.18926 0.88278,0.37843 l 0.94602,-0.69361 1.32417,1.32415 -0.69364,0.94587 c 0.18918,0.37836 0.31537,0.63069 0.37843,0.88293 l 1.13502,0.18914 0,1.82879 -0.94586,0.18914 c -0.0631,0.25224 -0.18927,0.56748 -0.37845,0.88278 l 0.69379,0.94588 -1.32432,1.32429 -0.94587,-0.69363 c -0.31529,0.18918 -0.56762,0.31522 -0.88292,0.3783 l -0.18915,1.13516 -1.89174,0 -0.18928,-1.13516 c -0.31529,-0.12613 -0.63054,-0.25217 -0.88277,-0.3783 l -0.94588,0.63054 -1.32431,-1.32416 0.6307,-0.94587 c -0.18918,-0.31529 -0.31538,-0.56762 -0.37845,-0.88291 l -1.135,-0.18916 0,-1.82878 1.07205,-0.12605 c 0.12611,-0.31532 0.18911,-0.56763 0.37828,-0.88293 l -0.63052,-0.94587 1.32416,-1.32415 0.94587,0.69361 c 0.3153,-0.18917 0.56762,-0.31536 0.88293,-0.37843 l 0.18912,-1.135 z"
       style="opacity:1;fill:#333333;fill-opacity:1;stroke:none;stroke-width:5;stroke-linecap:butt;stroke-linejoin:round;stroke-miterlimit:4;stroke-dasharray:none;stroke-dashoffset:0;stroke-opacity:1"
       id="path4577" />
    <path
       sodipodi:nodetypes="sssssssss"
       inkscape:connector-curvature="0"
       id="path4579"
       d="m 215.1657,208.87593 37.7544,0 c 1.32378,0 2.38951,1.06572 2.38951,2.38952 l 0,28.19632 c 0,1.3238 -1.06573,2.38951 -2.38951,2.38951 l -37.7544,0 c -1.3238,0 -2.38952,-1.06571 -2.38952,-2.38951 l 0,-28.19632 c 0,-1.3238 1.06572,-2.38952 2.38952,-2.38952 z"
       style="opacity:1;fill:#ff6433;fill-opacity:1;stroke:none;stroke-width:5;stroke-linecap:butt;stroke-linejoin:round;stroke-miterlimit:4;stroke-dasharray:none;stroke-dashoffset:0;stroke-opacity:1" />
    <path
       d="m 217.06024,210.13188 a 17.580036,17.479401 0 0 1 17.58003,-17.4794 17.580036,17.479401 0 0 1 17.58004,17.4794 l -17.58004,0 z"
       sodipodi:end="0"
       sodipodi:start="3.1415927"
       sodipodi:ry="17.479401"
       sodipodi:rx="17.580036"
       sodipodi:cy="210.13188"
       sodipodi:cx="234.64027"
       sodipodi:type="arc"
       id="path4583"
       style="fill:#f9ce1d" />
    <path
       d="m 215.86547,210.13188 a 16.385275,7.4245772 0 0 1 16.38528,-7.42458 16.385275,7.4245772 0 0 1 16.38527,7.42458 l -16.38527,0 z"
       sodipodi:end="0"
       sodipodi:start="3.1415927"
       sodipodi:ry="7.4245772"
       sodipodi:rx="16.385275"
       sodipodi:cy="210.13188"
       sodipodi:cx="232.25075"
       sodipodi:type="arc"
       id="path4585"
       style="fill:#f29312" />
    <path
       inkscape:connector-curvature="0"
       style="opacity:1;fill:#1a1a1a;fill-opacity:1;stroke:none;stroke-width:5;stroke-linecap:butt;stroke-linejoin:round;stroke-miterlimit:4;stroke-dasharray:none;stroke-dashoffset:0;stroke-opacity:1"
       d="m 225.978,217.74361 a 2.5344676,2.5948122 0 0 1 2.53513,2.59487 2.5344676,2.5948122 0 0 1 -2.53513,2.59486 2.5344676,2.5948122 0 0 1 -2.5342,-2.59486 2.5344676,2.5948122 0 0 1 2.5342,-2.59487 z"
       id="path4591" />
    <path
       inkscape:connector-curvature="0"
       style="opacity:1;fill:#1a1a1a;fill-opacity:1;stroke:none;stroke-width:5;stroke-linecap:butt;stroke-linejoin:round;stroke-miterlimit:4;stroke-dasharray:none;stroke-dashoffset:0;stroke-opacity:1"
       d="m 242.22673,217.74361 a 2.5344676,2.5948122 0 0 1 2.53513,2.59487 2.5344676,2.5948122 0 0 1 -2.53513,2.59486 2.5344676,2.5948122 0 0 1 -2.5342,-2.59486 2.5344676,2.5948122 0 0 1 2.5342,-2.59487 z"
       id="path4593" />
    <path
       sodipodi:nodetypes="czcssc"
       inkscape:connector-curvature="0"
       id="path4597"
       d="m 234.06714,226.32238 c 0.7162,1.92082 0.7478,3.99179 -3.03531,5.93699 -3.78311,1.94521 -9.65486,-0.64407 -9.65486,-0.64407 0,0 4.61801,-2.04547 5.30023,-4.27921 1.45531,-4.76503 6.47209,-3.47536 7.38994,-1.01368 z"
       style="fill:#4e342e;fill-rule:evenodd;stroke:none;stroke-width:1px;stroke-linecap:butt;stroke-linejoin:miter;stroke-opacity:1" />
    <path
       style="fill:#4e342e;fill-rule:evenodd;stroke:none;stroke-width:1px;stroke-linecap:butt;stroke-linejoin:miter;stroke-opacity:1"
       d="m 234.01865,226.32238 c -0.7162,1.92082 -0.7478,3.99179 3.03531,5.93699 3.78311,1.94521 9.65486,-0.64407 9.65486,-0.64407 0,0 -4.61801,-2.04547 -5.30023,-4.27921 -1.45531,-4.76503 -6.47208,-3.47536 -7.38994,-1.01368 z"
       id="path4599"
       inkscape:connector-curvature="0"
       sodipodi:nodetypes="czcssc" />
    <path
       inkscape:connector-curvature="0"
       id="path4601"
       d="m 213.73484,224.31129 a 2.3897582,2.3897582 0 0 0 -0.40324,0.0448 c 0,0 -5.59927,1.00333 -11.18408,3.85217 -2.7924,1.42441 -5.634,3.3189 -7.80513,5.94206 -2.17113,2.62316 -3.6189,6.07646 -3.35559,10.07705 0.2587,3.93056 1.93215,7.10854 4.19472,9.39752 2.26256,2.28898 5.05338,3.7555 7.72674,4.7473 5.34669,1.98363 10.46721,2.10577 10.46721,2.10577 a 2.3897582,2.3897582 0 1 0 0.13534,-4.77717 c 0,0 -4.47257,-0.15147 -8.94016,-1.80894 -2.2338,-0.82874 -4.4056,-2.02466 -5.98966,-3.62722 -1.58407,-1.60255 -2.64075,-3.54511 -2.82543,-6.35088 -0.18006,-2.73576 0.69922,-4.82117 2.26818,-6.7168 1.56896,-1.89561 3.87974,-3.49897 6.29582,-4.73143 4.83217,-2.46492 9.8717,-3.40786 9.8717,-3.40786 a 2.3897582,2.3897582 0 0 0 -0.45642,-4.74637 z"
       style="color:#000000;font-style:normal;font-variant:normal;font-weight:normal;font-stretch:normal;font-size:medium;line-height:normal;font-family:sans-serif;text-indent:0;text-align:start;text-decoration:none;text-decoration-line:none;text-decoration-style:solid;text-decoration-color:#000000;letter-spacing:normal;word-spacing:normal;text-transform:none;direction:ltr;block-progression:tb;writing-mode:lr-tb;baseline-shift:baseline;text-anchor:start;white-space:normal;clip-rule:nonzero;display:inline;overflow:visible;visibility:visible;opacity:1;isolation:auto;mix-blend-mode:normal;color-interpolation:sRGB;color-interpolation-filters:linearRGB;solid-color:#000000;solid-opacity:1;fill:#ff6433;fill-opacity:1;fill-rule:evenodd;stroke:none;stroke-width:10;stroke-linecap:round;stroke-linejoin:miter;stroke-miterlimit:4;stroke-dasharray:none;stroke-dashoffset:0;stroke-opacity:1;color-rendering:auto;image-rendering:auto;shape-rendering:auto;text-rendering:auto;enable-background:accumulate" />
    <path
       inkscape:connector-curvature="0"
       id="path4603"
       d="m 224.42707,259.26743 c -0.71228,0 -1.2853,0.57302 -1.2853,1.28531 l 0,20.31464 c 0,0.71228 0.57302,1.2853 1.2853,1.2853 l 20.31464,0 c 0.71228,0 1.28529,-0.57302 1.28529,-1.2853 l 0,-16.03685 -7.11534,0 c -1.32379,0 -2.38953,-1.06573 -2.38953,-2.38952 l 0,-3.17358 -12.09506,0 z"
       style="opacity:1;fill:#999999;fill-opacity:1;stroke:none;stroke-width:5;stroke-linecap:butt;stroke-linejoin:round;stroke-miterlimit:4;stroke-dasharray:none;stroke-dashoffset:0;stroke-opacity:1" />
    <circle
       r="2.5907896"
       cy="265.45145"
       cx="229.44566"
       id="circle4605"
       style="fill:#666666;fill-opacity:1;stroke:none;stroke-width:10;stroke-linecap:round;stroke-linejoin:miter;stroke-miterlimit:4;stroke-dasharray:none" />
    <path
       inkscape:connector-curvature="0"
       style="opacity:1;fill:#1a1a1a;fill-opacity:1;stroke:none;stroke-width:5;stroke-linecap:butt;stroke-linejoin:round;stroke-miterlimit:4;stroke-dasharray:none;stroke-dashoffset:0;stroke-opacity:1"
       d="m 239.86843,263.79729 a 1.6484661,1.6877154 0 0 1 1.64889,1.68776 1.6484661,1.6877154 0 0 1 -1.64889,1.68776 1.6484661,1.6877154 0 0 1 -1.64829,-1.68776 1.6484661,1.6877154 0 0 1 1.64829,-1.68776 z"
       id="path4607" />
    <path
       inkscape:connector-curvature="0"
       id="path4609"
       d="m 253.44878,246.6301 c -1.10986,-0.72155 -2.58425,-0.40894 -3.3058,0.70092 l -6.22526,9.57543 14.65425,9.52715 7.52771,-11.57878 -12.6509,-8.22472 z"
       style="opacity:1;fill:#ff2650;fill-opacity:1;stroke:none;stroke-width:5;stroke-linecap:butt;stroke-linejoin:round;stroke-miterlimit:4;stroke-dasharray:none;stroke-dashoffset:0;stroke-opacity:1" />
    <path
       style="color:#000000;font-style:normal;font-variant:normal;font-weight:normal;font-stretch:normal;font-size:medium;line-height:normal;font-family:sans-serif;text-indent:0;text-align:start;text-decoration:none;text-decoration-line:none;text-decoration-style:solid;text-decoration-color:#000000;letter-spacing:normal;word-spacing:normal;text-transform:none;direction:ltr;block-progression:tb;writing-mode:lr-tb;baseline-shift:baseline;text-anchor:start;white-space:normal;clip-rule:nonzero;display:inline;overflow:visible;visibility:visible;opacity:1;isolation:auto;mix-blend-mode:normal;color-interpolation:sRGB;color-interpolation-filters:linearRGB;solid-color:#000000;solid-opacity:1;fill:#ff6433;fill-opacity:1;fill-rule:evenodd;stroke:none;stroke-width:10;stroke-linecap:round;stroke-linejoin:miter;stroke-miterlimit:4;stroke-dasharray:none;stroke-dashoffset:0;stroke-opacity:1;color-rendering:auto;image-rendering:auto;shape-rendering:auto;text-rendering:auto;enable-background:accumulate"
       d="m 256.69083,268.12947 a 2.3897582,2.3897582 0 0 1 1.00409,-3.71174 c 0,0 3.72212,-1.52406 7.30771,-4.85547 3.58559,-3.33143 6.84725,-8.15938 6.20621,-15.23571 -0.63245,-6.98151 -4.82413,-10.0969 -9.24882,-11.89129 -4.42468,-1.79439 -8.76264,-1.83273 -8.76264,-1.83273 a 2.3897582,2.3897582 0 1 1 0.0135,-4.77866 c 0,0 5.13674,-0.0112 10.54528,2.18217 5.40854,2.19337 11.40927,7.02617 12.21216,15.88911 0.7943,8.76812 -3.4416,15.20071 -7.71197,19.16838 -4.27039,3.96767 -8.76267,5.78122 -8.76267,5.78122 a 2.3897582,2.3897582 0 0 1 -2.80279,-0.71528 z"
       id="path4611"
       inkscape:connector-curvature="0" />
    <path
       inkscape:connector-curvature="0"
       style="opacity:1;fill:#666666;fill-opacity:1;stroke:none;stroke-width:5;stroke-linecap:butt;stroke-linejoin:round;stroke-miterlimit:4;stroke-dasharray:none;stroke-dashoffset:0;stroke-opacity:1"
       d="m 239.85749,263.00059 a 2.3879393,2.444795 0 0 1 2.38856,2.44485 2.3879393,2.444795 0 0 1 -2.38856,2.44484 2.3879393,2.444795 0 0 1 -2.38768,-2.44484 2.3879393,2.444795 0 0 1 2.38768,-2.44485 z"
       id="path4615" />
    <path
       id="path4617"
       d="m 239.85765,263.90541 a 1.5041748,1.5399885 0 0 1 1.50457,1.54002 1.5041748,1.5399885 0 0 1 -1.50457,1.54002 1.5041748,1.5399885 0 0 1 -1.50401,-1.54002 1.5041748,1.5399885 0 0 1 1.50401,-1.54002 z"
       style="opacity:1;fill:#ffee5a;fill-opacity:1;stroke:none;stroke-width:5;stroke-linecap:butt;stroke-linejoin:round;stroke-miterlimit:4;stroke-dasharray:none;stroke-dashoffset:0;stroke-opacity:1"
       inkscape:connector-curvature="0" />
    <path
       inkscape:connector-curvature="0"
       id="path4619"
       d="m 220.75225,265.26457 0,17.72351 c 0,0.86102 0.69309,1.55412 1.55412,1.55412 l 24.55603,0 c 0.86102,0 1.55413,-0.6931 1.55413,-1.55412 l 0,-8.80295 -12.8306,0 c -0.86102,0 -1.55412,-0.6931 -1.55412,-1.55413 l 0,-7.36643 -13.27956,0 z"
       style="opacity:1;fill:#ff2650;fill-opacity:1;stroke:none;stroke-width:5;stroke-linecap:butt;stroke-linejoin:round;stroke-miterlimit:4;stroke-dasharray:none;stroke-dashoffset:0;stroke-opacity:1" />
    <path
       transform="scale(1,-1)"
       style="opacity:1;fill:#1a1a1a;fill-opacity:1;stroke:none;stroke-width:5;stroke-linecap:butt;stroke-linejoin:round;stroke-miterlimit:4;stroke-dasharray:none;stroke-dashoffset:0;stroke-opacity:1"
       d="m 230.18861,-270.18237 c 0,-2.42779 2.32366,-4.39591 4.39591,-4.39591 2.07225,0 4.39591,1.96812 4.39591,4.39591 l -4.39591,0 z"
       id="path4621"
       inkscape:connector-curvature="0"
       sodipodi:nodetypes="caccc" />
    <path
       inkscape:connector-curvature="0"
       style="opacity:1;fill:#1a1a1a;fill-opacity:1;stroke:none;stroke-width:5;stroke-linecap:butt;stroke-linejoin:round;stroke-miterlimit:4;stroke-dasharray:none;stroke-dashoffset:0;stroke-opacity:1"
       d="m 229.43816,263.87032 a 1.6484661,1.6877154 0 0 1 1.64889,1.68777 1.6484661,1.6877154 0 0 1 -1.64889,1.68774 1.6484661,1.6877154 0 0 1 -1.6483,-1.68774 1.6484661,1.6877154 0 0 1 1.6483,-1.68777 z"
       id="path4623" />
    <path
       style="opacity:1;fill:#999999;fill-opacity:1;stroke:none;stroke-width:5;stroke-linecap:butt;stroke-linejoin:round;stroke-miterlimit:4;stroke-dasharray:none;stroke-dashoffset:0;stroke-opacity:1"
       d="m 216.19072,244.96541 c -0.33765,-0.6635 -1.14363,-0.92583 -1.80713,-0.58819 l -5.72439,2.91307 4.45817,8.76064 6.92205,-3.52254 -3.8487,-7.56298 z"
       id="path4627"
       inkscape:connector-curvature="0" />
    <circle
       r="0.6144163"
       cy="249.62003"
       cx="211.58662"
       id="circle4629"
       style="fill:#4d4d4d;fill-opacity:1;stroke:none;stroke-width:10;stroke-linecap:round;stroke-linejoin:miter;stroke-miterlimit:4;stroke-dasharray:none" />
    <circle
       style="fill:#4d4d4d;fill-opacity:1;stroke:none;stroke-width:10;stroke-linecap:round;stroke-linejoin:miter;stroke-miterlimit:4;stroke-dasharray:none"
       id="circle4631"
       cx="212.61066"
       cy="251.60956"
       r="0.6144163" />
  </g>
</svg>
