<?xml version="1.0" encoding="UTF-8" standalone="no"?>
<!-- Created with Inkscape (http://www.inkscape.org/) -->

<svg
   xmlns:dc="http://purl.org/dc/elements/1.1/"
   xmlns:cc="http://creativecommons.org/ns#"
   xmlns:rdf="http://www.w3.org/1999/02/22-rdf-syntax-ns#"
   xmlns:svg="http://www.w3.org/2000/svg"
   xmlns="http://www.w3.org/2000/svg"
   xmlns:sodipodi="http://sodipodi.sourceforge.net/DTD/sodipodi-0.dtd"
   xmlns:inkscape="http://www.inkscape.org/namespaces/inkscape"
   width="255"
   height="110"
   viewBox="0 0 255 110"
   id="svg4625"
   version="1.1"
   inkscape:version="0.91 r"
   sodipodi:docname="encapsulation.svg">
  <defs
     id="defs4627" />
  <sodipodi:namedview
     id="base"
     pagecolor="#ffffff"
     bordercolor="#666666"
     borderopacity="1.0"
     inkscape:pageopacity="0.0"
     inkscape:pageshadow="2"
     inkscape:zoom="6.9135802"
     inkscape:cx="129.33231"
     inkscape:cy="42.935104"
     inkscape:document-units="px"
     inkscape:current-layer="layer1"
     showgrid="false"
     showguides="true"
     inkscape:window-width="857"
     inkscape:window-height="704"
     inkscape:window-x="507"
     inkscape:window-y="30"
     inkscape:window-maximized="0"
     fit-margin-top="0"
     fit-margin-left="0"
     fit-margin-right="0"
     fit-margin-bottom="0"
     units="px" />
  <metadata
     id="metadata4630">
    <rdf:RDF>
      <cc:Work
         rdf:about="">
        <dc:format>image/svg+xml</dc:format>
        <dc:type
           rdf:resource="http://purl.org/dc/dcmitype/StillImage" />
        <dc:title />
      </cc:Work>
    </rdf:RDF>
  </metadata>
  <g
     inkscape:label="Layer 1"
     inkscape:groupmode="layer"
     id="layer1"
     transform="translate(-106.01048,-183.59734)">
    <rect
       y="183.59734"
       x="106.01048"
       height="110"
       width="255"
       id="rect4557"
       style="opacity:1;fill:none;fill-opacity:1;stroke:none;stroke-width:5;stroke-linecap:butt;stroke-linejoin:round;stroke-miterlimit:4;stroke-dasharray:none;stroke-dashoffset:0;stroke-opacity:1" />
    <rect
       style="opacity:1;fill:#ff2650;fill-opacity:1;stroke:none;stroke-width:5;stroke-linecap:butt;stroke-linejoin:round;stroke-miterlimit:4;stroke-dasharray:none;stroke-dashoffset:0;stroke-opacity:1"
       id="rect5605"
       width="70.572899"
       height="70.572899"
       x="191.0282"
       y="203.3109"
       ry="3.9647691" />
    <path
       inkscape:connector-curvature="0"
       style="opacity:1;fill:#1a1a1a;fill-opacity:1;stroke:none;stroke-width:5;stroke-linecap:butt;stroke-linejoin:round;stroke-miterlimit:4;stroke-dasharray:none;stroke-dashoffset:0;stroke-opacity:1"
       d="m 206.21906,220.71331 a 4.2052725,4.3053982 0 0 1 4.20638,4.30549 4.2052725,4.3053982 0 0 1 -4.20638,4.30549 4.2052725,4.3053982 0 0 1 -4.20482,-4.30549 4.2052725,4.3053982 0 0 1 4.20482,-4.30549 z"
       id="path5609" />
    <path
       inkscape:connector-curvature="0"
       style="opacity:1;fill:#1a1a1a;fill-opacity:1;stroke:none;stroke-width:5;stroke-linecap:butt;stroke-linejoin:round;stroke-miterlimit:4;stroke-dasharray:none;stroke-dashoffset:0;stroke-opacity:1"
       d="m 233.1795,220.71331 a 4.2052725,4.3053982 0 0 1 4.20637,4.30549 4.2052725,4.3053982 0 0 1 -4.20637,4.30549 4.2052725,4.3053982 0 0 1 -4.20483,-4.30549 4.2052725,4.3053982 0 0 1 4.20483,-4.30549 z"
       id="path5611" />
    <path
       transform="scale(1,-1)"
       style="opacity:1;fill:#1a1a1a;fill-opacity:1;stroke:none;stroke-width:5;stroke-linecap:butt;stroke-linejoin:round;stroke-miterlimit:4;stroke-dasharray:none;stroke-dashoffset:0;stroke-opacity:1"
       d="m 207.9496,-237.25104 c 0,-6.19336 5.92771,-11.21406 11.21407,-11.21406 5.28636,0 11.21406,5.02071 11.21406,11.21406 l -11.21406,0 z"
       id="path5613"
       inkscape:connector-curvature="0"
       sodipodi:nodetypes="caccc" />
    <path
       style="fill:#cccccc;fill-opacity:1;stroke:none;stroke-width:10;stroke-linecap:round;stroke-linejoin:miter;stroke-miterlimit:4;stroke-dasharray:none"
       d="m 260.92966,228.96388 a 11.736997,13.099977 0 0 0 -10.9426,8.36342 l 4.59161,0 a 7.641554,8.5289438 0 0 1 6.35099,-3.7924 7.641554,8.5289438 0 0 1 7.64162,8.52917 l 4.09537,0 a 11.736997,13.099977 0 0 0 -11.73699,-13.10019 z"
       id="path5630"
       inkscape:connector-curvature="0" />
    <rect
       style="fill:#f9ce1d;fill-opacity:1;stroke:none;stroke-width:10;stroke-linecap:round;stroke-linejoin:miter;stroke-miterlimit:4;stroke-dasharray:none"
       id="rect5628"
       width="30.12705"
       height="24.980345"
       x="245.86571"
       y="241.23882"
       ry="2.8244109"
       rx="2.8244109" />
    <path
       style="fill:#1a1a1a;fill-opacity:1;stroke:none;stroke-width:10;stroke-linecap:round;stroke-linejoin:miter;stroke-miterlimit:4;stroke-dasharray:none"
       d="m 264.64121,246.35035 c -2.07541,-1.5e-4 -3.75795,1.68234 -3.75775,3.75779 5e-4,1.51555 0.91164,2.88231 2.31029,3.46602 l -3.01767,7.53352 8.9292,0 -3.01883,-7.53573 c 1.3983,-0.58306 2.30969,-1.94882 2.31145,-3.46381 1.5e-4,-2.075 -1.68169,-3.75734 -3.75669,-3.75779 z"
       id="path5635"
       inkscape:connector-curvature="0"
       sodipodi:nodetypes="cccccccc" />
    <path
       id="rect5647"
       style="fill:#f29312;fill-opacity:1;stroke:none;stroke-width:10;stroke-linecap:round;stroke-linejoin:miter;stroke-miterlimit:4;stroke-dasharray:none"
       d="m 246.34194,257.67491 4.19418,0 c 1.30702,0 2.3592,0.83979 2.3592,1.88294 0,1.04314 -1.05218,1.88294 -2.3592,1.88294 l -4.19418,0 c -1.30697,0 -2.3592,-0.8398 -2.3592,-1.88294 0,-1.04315 1.05223,-1.88294 2.3592,-1.88294 z m 0,-5.02118 4.19418,0 c 1.30702,0 2.3592,0.83979 2.3592,1.88294 0,1.04315 -1.05218,1.88294 -2.3592,1.88294 l -4.19418,0 c -1.30697,0 -2.3592,-0.83979 -2.3592,-1.88294 0,-1.04315 1.05223,-1.88294 2.3592,-1.88294 z m 0,-5.02117 4.19418,0 c 1.30702,0 2.3592,0.83979 2.3592,1.88294 0,1.04314 -1.05218,1.88294 -2.3592,1.88294 l -4.19418,0 c -1.30697,0 -2.3592,-0.8398 -2.3592,-1.88294 0,-1.04315 1.05223,-1.88294 2.3592,-1.88294 z"
       inkscape:connector-curvature="0" />
  </g>
</svg>
