<svg xmlns="http://www.w3.org/2000/svg" width="255" height="106.25" viewBox="0 0 255 106.25"><path fill="none" d="M0 0h255v106.25H0z"/><path d="M177.939 34.212h33.575a2.12 2.12 0 0 1 2.125 2.125v33.575a2.12 2.12 0 0 1-2.125 2.125h-33.575a2.12 2.12 0 0 1-2.125-2.125V36.337a2.12 2.12 0 0 1 2.125-2.125z" fill="#ff2650"/><path d="M187.5 43.444a2.254 2.308 0 0 1 2.255 2.307 2.254 2.308 0 0 1-2.254 2.308 2.254 2.308 0 0 1-2.254-2.308 2.254 2.308 0 0 1 2.254-2.307zm14.45 0a2.254 2.308 0 0 1 2.255 2.307 2.254 2.308 0 0 1-2.254 2.308 2.254 2.308 0 0 1-2.254-2.308 2.254 2.308 0 0 1 2.254-2.307zm-13.234 8.959a6.01 6.01 0 1 0 12.02 0h-6.01z" fill="#1a1a1a"/><path d="M147.614 46.48v3.407h-17.756v5.667h17.756v3.737l11.094-6.406-11.094-6.406z" fill="#ff6433"/><path d="M41.361 21.017h71.391v64.216h-71.39z" fill="#3949ab"/><path d="M43.773 23.187v59.876h66.567V23.187zm.957.783h64.654v58.31H44.73z" fill="#9fa8da"/><path d="M49.024 26.662a1.775 1.775 0 0 1-1.775 1.775 1.775 1.775 0 0 1-1.776-1.775 1.775 1.775 0 0 1 1.776-1.775 1.775 1.775 0 0 1 1.775 1.775z" fill="#999"/><path d="M46.333 25.144a1.775 1.775 0 0 0-.603.602l2.435 2.435a1.775 1.775 0 0 0 .602-.603l-2.434-2.434z" fill="#666"/><path d="M105.09 26.662a1.775 1.775 0 0 1 1.775 1.775 1.775 1.775 0 0 1 1.775-1.775 1.775 1.775 0 0 1-1.775-1.775 1.775 1.775 0 0 1-1.775 1.775z" fill="#999"/><path d="M107.78 25.144a1.775 1.775 0 0 1 .603.602l-2.434 2.435a1.775 1.775 0 0 1-.602-.603l2.434-2.434z" fill="#666"/><path d="M49.024 79.588a1.775 1.775 0 0 1-1.775 1.775 1.775 1.775 0 0 1-1.776-1.775 1.775 1.775 0 0 1 1.776-1.775 1.775 1.775 0 0 1 1.775 1.775z" fill="#999"/><path d="M46.333 78.07a1.775 1.775 0 0 0-.603.602l2.435 2.434a1.775 1.775 0 0 0 .602-.602l-2.434-2.435z" fill="#666"/><path d="M108.64 79.588a1.775 1.775 0 0 1-1.775 1.775 1.775 1.775 0 0 1-1.775-1.775 1.775 1.775 0 0 1 1.775-1.775 1.775 1.775 0 0 1 1.775 1.775z" fill="#999"/><path d="M105.949 78.07a1.775 1.775 0 0 0-.602.602l2.434 2.434a1.775 1.775 0 0 0 .602-.602l-2.434-2.435z" fill="#666"/><path d="M57.732 36.368h2.125v31.875h-2.125zm35.7 0h2.125v31.875h-2.125zm-35.7-2.975h2.125v2.125h-2.125zm2.975 37.825v-2.125h31.875v2.125zm0-35.7v-2.125h31.875v2.125zm32.725 33.575h2.125v2.125h-2.125zm-35.7 0h2.125v2.125h-2.125zm11.687-27.955a3.703 3.703 0 0 0-3.703 3.703 3.703 3.703 0 0 0 3.703 3.702 3.703 3.703 0 0 0 3.703-3.702 3.703 3.703 0 0 0-3.703-3.703zm0 1.395a2.254 2.308 0 0 1 2.254 2.308 2.254 2.308 0 0 1-2.254 2.307 2.254 2.308 0 0 1-2.254-2.307 2.254 2.308 0 0 1 2.254-2.308zm14.45-1.395a3.703 3.703 0 0 0-3.703 3.703 3.703 3.703 0 0 0 3.703 3.702 3.703 3.703 0 0 0 3.703-3.702 3.703 3.703 0 0 0-3.703-3.703zm0 1.395a2.254 2.308 0 0 1 2.254 2.308 2.254 2.308 0 0 1-2.254 2.307 2.254 2.308 0 0 1-2.254-2.307 2.254 2.308 0 0 1 2.254-2.308zm-7.756-7.015h1.062v33.575h-1.062z" fill="#7986cb"/><path d="M70.634 52.403a6.01 6.01 0 1 0 12.02 0h-6.01zm5.479 9.809v.425H59.857v-.425zm17.319-17.268v-.725a8.7 8.7 0 0 1-8.7-8.7h-.725a9.425 9.425 0 0 0 9.425 9.425zm0 12.441v.9a10.808 10.808 0 0 0-10.808 10.808h-.9a11.708 11.708 0 0 1 11.708-11.708zm0-12.441v.425H59.857v-.425zM52.49 33.393h.425v37.825h-.425z" fill="#7986cb"/><path d="M52.49 33.393h3.542v.425H52.49zm0 37.4h3.542v.425H52.49zm5.242 5.667v-.425h37.825v.425z" fill="#7986cb"/><path d="M57.732 76.46v-3.542h.425v3.542zm37.4 0v-3.542h.425v3.542zm-9.126-11.736l3.112 3.112 3.111-3.112-3.111-3.112-3.112 3.112zm2.073-1.04a1.47 1.47 0 0 1 2.078 0 1.47 1.47 0 0 1 0 2.08 1.47 1.47 0 0 1-2.08 0 1.47 1.47 0 0 1 0-2.08zM69.366 45.369h.425v16.843h-.425z" fill="#7986cb"/><path d="M75.718 74.724c.008.004.017.004.02.004a.042.042 0 0 0 .018.004c.008 0 .02-.004.033-.008.087-.364.265-.638.567-.882.05.642.07.8.133.99.09.278.36.452.704.452.232 0 .377-.058.514-.2l-.162-.194c-.112.198-.224.281-.373.281-.199 0-.335-.165-.422-.51-.042-.16-.075-.372-.166-1.022.348-.324.489-.423.6-.423.046 0 .088.008.175.046l.09-.29c-.061-.042-.09-.054-.144-.054a.326.326 0 0 0-.158.041c-.116.104-.136.124-.294.278l-.29.277a4.469 4.469 0 0 0-.054-.364c-.037-.17-.095-.232-.227-.232-.129 0-.249.07-.535.319l-.008.112c.249-.166.27-.174.352-.174.137 0 .187.107.249.542l-.153.124c-.348.266-.352.266-.431.34-.075.079-.104.137-.174.327l.137.216zM53.907 53.798c.142.019.344.033.505.033.322 0 .506-.088.769-.368.266-.286.285-.336.446-1.086.16-.74.248-1.085.405-1.596-.06.032-.11.06-.13.069l-.16.078c-.023.014-.06.028-.101.05l-.281 1.119c-.46.285-.483.298-.561.298-.06 0-.101-.064-.101-.147 0-.1.041-.312.128-.639.115-.455.18-.713.18-.754 0-.033-.023-.056-.05-.056-.051 0-.346.157-.732.387l-.014.124c.216-.11.267-.133.317-.133.046 0 .07.027.07.069 0 .082-.033.22-.143.625-.11.4-.134.501-.134.621 0 .147.07.258.161.258.088 0 .456-.221.865-.515-.175.841-.175.841-.23 1.011-.073.235-.22.322-.52.322-.133 0-.234-.018-.506-.082l-.183.312z" style="line-height:125%;-inkscape-font-specification:'URW Chancery L Medium Italic';text-align:start" font-style="italic" font-weight="500" font-family="URW Chancery L" letter-spacing="0" word-spacing="0" fill="#7986cb"/><path d="M89.09 64.458h15.033v.531H89.09zm8.233 1.382h6.8v.424h-6.8zm0 .85h6.8v.424h-6.8zm0 .85h6.8v.424h-6.8zm3.757.85h3.043v.424h-3.043zM89.382 39.383h15.032v-.531H89.382zm8.232-1.381h6.8v-.425h-6.8zm0-.85h6.8v-.425h-6.8zm0-.85h6.8v-.425h-6.8zm3.757-.85h3.043v-.425h-3.043zm-7.939-2.059h2.125v2.125h-2.125zm-29.644 8.233V26.593h-.531v15.033zm7.65-15.033h-6.8v.425h6.8zm0 .85h-6.8v.425h6.8zm0 .85h-6.8v.425h6.8zm-3.757.85h-3.043v.425h3.043zm12.083 9.137a.85.85 0 0 1-.85.85.85.85 0 0 1-.85-.85.85.85 0 0 1 .85-.85.85.85 0 0 1 .85.85zm0 4.676a.85.85 0 0 1-.85.85.85.85 0 0 1-.85-.85.85.85 0 0 1 .85-.85.85.85 0 0 1 .85.85zm0 4.674a.85.85 0 0 1-.85.85.85.85 0 0 1-.85-.85.85.85 0 0 1 .85-.85.85.85 0 0 1 .85.85zm0 4.676a.85.85 0 0 1-.85.85.85.85 0 0 1-.85-.85.85.85 0 0 1 .85-.85.85.85 0 0 1 .85.85zm0 4.674a.85.85 0 0 1-.85.85.85.85 0 0 1-.85-.85.85.85 0 0 1 .85-.85.85.85 0 0 1 .85.85zm0 4.676a.85.85 0 0 1-.85.85.85.85 0 0 1-.85-.85.85.85 0 0 1 .85-.85.85.85 0 0 1 .85.85zm0 4.674a.85.85 0 0 1-.85.85.85.85 0 0 1-.85-.85.85.85 0 0 1 .85-.85.85.85 0 0 1 .85.85z" fill="#7986cb"/></svg>