<svg xmlns="http://www.w3.org/2000/svg" width="255" height="110" viewBox="0 0 255 110"><path fill="none" d="M0 0h255v110H0z"/><path d="M101.35 25.54h52.3a3.303 3.303 0 0 1 3.31 3.31v52.3a3.303 3.303 0 0 1-3.31 3.31h-52.3a3.303 3.303 0 0 1-3.31-3.31v-52.3a3.303 3.303 0 0 1 3.31-3.31z" fill="#bd1939"/><path d="M103.262 27.694h48.476a3.06 3.06 0 0 1 3.068 3.068v48.476a3.06 3.06 0 0 1-3.068 3.068h-48.476a3.061 3.061 0 0 1-3.068-3.068V30.762a3.06 3.06 0 0 1 3.068-3.068z" fill="#999"/><path d="M126.363 27.618h2.274v54.688h-2.274z" fill="#666"/><path d="M118.138 53.876a9.362 9.362 0 0 0 18.724 0H127.5z" fill="#4d4d4d"/><path d="M131.667 30.213a.838.838 0 0 1-.837.837.838.838 0 0 1-.838-.837.838.838 0 0 1 .838-.838.838.838 0 0 1 .837.838zm0 5.36a.838.838 0 0 1-.837.838.838.838 0 0 1-.838-.838.838.838 0 0 1 .838-.837.838.838 0 0 1 .837.837zm0 5.36a.838.838 0 0 1-.837.838.838.838 0 0 1-.838-.838.838.838 0 0 1 .838-.837.838.838 0 0 1 .837.837zm0 5.36a.838.838 0 0 1-.837.838.838.838 0 0 1-.838-.838.838.838 0 0 1 .838-.837.838.838 0 0 1 .837.837zm0 5.361a.838.838 0 0 1-.837.837.838.838 0 0 1-.838-.837.838.838 0 0 1 .838-.838.838.838 0 0 1 .837.838z" fill="#666"/><path d="M125.613 34.923c-1.608 0-2.838 1.23-2.838 2.838s1.23 2.837 2.838 2.837 2.838-1.23 2.838-2.837c0-1.609-1.23-2.838-2.838-2.838zm-1.324-4.73h2.743l.189 1.703c.378.094.851.284 1.324.567l1.42-1.04 1.985 1.986-1.04 1.419c.284.568.473.946.568 1.324l1.702.284v2.743l-1.419.284a5.055 5.055 0 0 1-.567 1.324l1.04 1.419-1.986 1.986-1.419-1.04c-.473.284-.851.473-1.324.567l-.284 1.703h-2.838l-.284-1.703a18.656 18.656 0 0 1-1.324-.567l-1.419.946-1.986-1.986.946-1.42c-.284-.472-.473-.85-.568-1.324l-1.702-.283V36.34l1.608-.189c.189-.473.284-.851.567-1.324l-.945-1.419 1.986-1.986 1.419 1.04c.473-.283.851-.473 1.324-.567l.284-1.703z" fill="#ccc"/><path d="M101.35 25.54a3.302 3.302 0 0 0-3.31 3.31v52.3a3.303 3.303 0 0 0 3.31 3.31h52.3a3.303 3.303 0 0 0 3.31-3.31v-7.34a32.234 32.234 0 0 1-3.348.21 32.234 32.234 0 0 1-32.233-32.234 32.234 32.234 0 0 1 4.43-16.246h-24.458z" fill="#ff2650"/><path d="M116.245 39.92a3.51 3.594 0 0 1 3.512 3.594 3.51 3.594 0 0 1-3.512 3.595 3.51 3.594 0 0 1-3.51-3.595 3.51 3.594 0 0 1 3.51-3.594z" fill="#1a1a1a"/><path d="M119.72 53.876a7.78 7.78 0 0 0 15.56 0h-7.78z" fill="#ccc"/><path d="M118.138 53.876a9.362 9.362 0 0 0 9.362 9.362 9.362 9.362 0 0 0 1.927-.203 32.234 32.234 0 0 1-5.675-9.16h-5.614z" fill="#1a1a1a"/><path d="M149.82 33.557l-.414 2.483c-.69.138-1.242.414-1.932.828l-2.069-1.517-2.896 2.896 1.379 2.07c-.414.689-.552 1.241-.828 1.93l-2.345.277v4l2.483.414c.138.69.414 1.242.828 1.932l-1.38 2.068 2.897 2.898 2.07-1.38c.551.276 1.241.552 1.93.828l.415 2.483h4.138l.414-2.483c.103-.021.198-.051.296-.078v-5.781c-.748.809-1.824 1.306-3.055 1.306-2.345 0-4.139-1.793-4.139-4.138 0-2.345 1.794-4.139 4.139-4.139 1.231 0 2.307.498 3.055 1.308v-5.49a6.22 6.22 0 0 0-.71-.232l-.276-2.483h-4z" fill="#4d4d4d"/><path d="M146.844 59.82c-1.608 0-2.838 1.229-2.838 2.837s1.23 2.838 2.838 2.838 2.838-1.23 2.838-2.838-1.23-2.838-2.838-2.838zm-1.324-4.73h2.743l.19 1.702c.377.095.85.284 1.323.568l1.42-1.04 1.986 1.986-1.04 1.418c.283.568.472.946.567 1.325l1.702.284v2.743l-1.419.283a5.055 5.055 0 0 1-.567 1.325l1.04 1.418-1.986 1.987-1.419-1.04c-.473.283-.851.472-1.324.567l-.284 1.703h-2.838l-.284-1.703c-.472-.19-.945-.378-1.324-.568l-1.418.946-1.987-1.986.946-1.419c-.284-.473-.473-.851-.568-1.324l-1.702-.284v-2.743l1.608-.19c.19-.472.284-.85.567-1.324l-.945-1.418 1.986-1.987 1.419 1.04c.473-.283.851-.472 1.324-.567l.284-1.702zm-6.767-17.282a5.574 5.706 0 0 1 5.575 5.706 5.574 5.706 0 0 1-5.575 5.707 5.574 5.706 0 0 1-5.573-5.707 5.574 5.706 0 0 1 5.573-5.706z" fill="#666"/><path d="M138.754 39.92a3.51 3.594 0 0 1 3.511 3.594 3.51 3.594 0 0 1-3.511 3.595 3.51 3.594 0 0 1-3.51-3.595 3.51 3.594 0 0 1 3.51-3.594z" fill="#ffee5a"/><path d="M154.626 44.602a2.842 2.842 0 0 1-2.841 2.842 2.842 2.842 0 0 1-2.842-2.842 2.842 2.842 0 0 1 2.842-2.842 2.842 2.842 0 0 1 2.841 2.842z" fill="#ccc"/><path d="M127.2 37.808a1.586 1.586 0 0 1-1.587 1.586 1.586 1.586 0 0 1-1.586-1.586 1.586 1.586 0 0 1 1.586-1.587 1.586 1.586 0 0 1 1.586 1.587z" fill="#4d4d4d"/></svg>