<svg xmlns="http://www.w3.org/2000/svg" width="255" height="110" viewBox="0 0 255 110"><path d="M0 0h255v110H0z" fill="none"/><path d="M32.191 69.342h48.925c1.153 0 2.08.928 2.08 2.08v23.425c0 1.152-.927 2.08-2.08 2.08H32.191a2.076 2.076 0 0 1-2.08-2.08V71.423c0-1.153.928-2.08 2.08-2.08z" fill="#ff2650"/><path style="line-height:125%;-inkscape-font-specification:'Roboto, Medium';text-align:center" d="M42.58 59.777q-.829 0-1.32.618-.486.619-.486 1.686 0 1.063.487 1.682.49.619 1.32.619.83 0 1.312-.619.487-.619.487-1.682 0-1.067-.487-1.686-.482-.618-1.312-.618zm0-.619q1.185 0 1.894.796.71.792.71 2.127 0 1.331-.71 2.127-.709.792-1.893.792-1.188 0-1.9-.792-.71-.792-.71-2.127 0-1.335.71-2.127.712-.796 1.9-.796zm6.797 3.624q0-.765-.317-1.199-.313-.437-.863-.437-.551 0-.868.437-.313.434-.313 1.2 0 .765.313 1.203.317.433.868.433.55 0 .863-.433.317-.438.317-1.204zm-2.36-1.474q.218-.377.55-.558.335-.185.8-.185.769 0 1.248.61.482.612.482 1.607 0 .996-.482 1.607-.48.611-1.249.611-.464 0-.8-.181-.331-.185-.55-.562v.634h-.698v-5.869h.698v2.286zm4.231-.641h.694v4.3q0 .806-.31 1.168-.305.362-.988.362h-.264v-.588h.185q.396 0 .54-.185.143-.18.143-.758v-4.3zm0-1.645h.694v.88h-.694v-.88zm5.755 3.583v.34h-3.19q.044.716.43 1.093.388.374 1.078.374.4 0 .773-.098.377-.099.747-.295v.657q-.374.158-.766.241-.392.083-.796.083-1.01 0-1.603-.588-.588-.589-.588-1.592 0-1.037.558-1.644.562-.611 1.513-.611.852 0 1.346.55.498.547.498 1.49zm-.694-.203q-.008-.57-.32-.91-.31-.339-.823-.339-.58 0-.931.328-.347.328-.4.924l2.474-.004zm2.519-2.935v1.2h1.43v.539h-1.43v2.293q0 .517.14.664.143.147.577.147h.713v.58h-.713q-.804 0-1.11-.297-.305-.302-.305-1.094v-2.293h-.509v-.54h.51v-1.199h.697zm3.982 1.686q-.557 0-.882.438-.324.433-.324 1.191t.32 1.196q.325.434.887.434.554 0 .879-.438.324-.437.324-1.192 0-.75-.324-1.188-.325-.44-.88-.44zm0-.588q.906 0 1.423.588.516.589.516 1.63 0 1.037-.516 1.629-.517.588-1.422.588-.91 0-1.426-.588-.513-.592-.513-1.63 0-1.04.513-1.629.517-.588 1.426-.588zm7.457-.555l-1.033 2.803h2.07l-1.037-2.803zm-.43-.75h.864l2.146 5.63h-.792l-.513-1.444h-2.539l-.512 1.445h-.804l2.15-5.631z" font-weight="500" font-family="Roboto" letter-spacing="0" word-spacing="0" text-anchor="middle" fill="#ff2650"/><path d="M83.197 82.398h38.1v1.474h-38.1z" fill="#ff2650"/><path d="M121.296 76.538v7.334h-1.474v-7.334z" fill="#ff2650"/><path d="M122.606 77.192h-4.093l2.046-3.545z" fill="#ff2650"/><path style="line-height:125%;-inkscape-font-specification:'Roboto Bold';text-align:start" d="M90.769 86.688h1.366q.61 0 .935.272.327.27.327.77 0 .502-.327.774-.325.27-.935.27h-.543v1.107h-.823v-3.193zm.823.597v.892h.456q.24 0 .37-.116.13-.117.13-.331 0-.214-.13-.33-.13-.115-.37-.115h-.456zm3.554.819q.259 0 .37-.096.113-.097.113-.317 0-.218-.113-.312-.111-.094-.37-.094H94.8v.819h.346zm-.346.569v1.208h-.824v-3.193h1.258q.63 0 .924.212.295.212.295.67 0 .316-.154.519-.152.203-.46.3.169.038.301.175.135.134.272.41l.447.907h-.877l-.389-.793q-.118-.24-.24-.328-.12-.087-.32-.087H94.8zm4.005-1.446q-.377 0-.584.278-.207.278-.207.783 0 .502.207.78t.584.278q.378 0 .586-.278.207-.278.207-.78 0-.505-.207-.783-.208-.278-.586-.278zm0-.596q.77 0 1.206.44.436.44.436 1.217 0 .774-.436 1.214-.436.44-1.206.44-.768 0-1.206-.44-.436-.44-.436-1.214 0-.776.436-1.217.438-.44 1.206-.44zm1.882.057h2.942v.623h-1.058v2.57h-.824v-2.57h-1.06v-.623zm4.823.539q-.376 0-.583.278-.207.278-.207.783 0 .502.207.78t.584.278q.378 0 .586-.278.207-.278.207-.78 0-.505-.207-.783-.208-.278-.586-.278zm0-.596q.77 0 1.207.44.436.44.436 1.217 0 .774-.436 1.214-.436.44-1.206.44-.768 0-1.206-.44-.436-.44-.436-1.214 0-.776.436-1.217.438-.44 1.206-.44zm.058-.81h.606l-.61.564h-.419l.423-.565zm1.825.867h2.942v.623h-1.059v2.57h-.823v-2.57h-1.06v-.623zm3.365 0h.824v3.193h-.824v-3.193zm1.634 0h1.366q.61 0 .935.272.327.27.327.77 0 .502-.327.774-.325.27-.935.27h-.543v1.107h-.823v-3.193zm.823.597v.892h.456q.24 0 .37-.116.13-.117.13-.331 0-.214-.13-.33-.13-.115-.37-.115h-.456zm3.843-.058q-.376 0-.584.278-.207.278-.207.783 0 .502.207.78.208.278.584.278.378 0 .586-.278.207-.278.207-.78 0-.505-.207-.783-.208-.278-.586-.278zm0-.596q.77 0 1.206.44.436.44.436 1.217 0 .774-.436 1.214-.436.44-1.206.44-.768 0-1.206-.44-.436-.44-.436-1.214 0-.776.436-1.217.438-.44 1.206-.44z" font-weight="700" font-size="12.757" font-family="Roboto" letter-spacing="0" word-spacing="0" fill="#ff2650"/><path d="M50.804 77.089a1.825 1.864 0 0 1 1.826 1.864 1.825 1.864 0 0 1-1.826 1.864 1.825 1.864 0 0 1-1.824-1.864 1.825 1.864 0 0 1 1.824-1.864zm11.698 0a1.825 1.864 0 0 1 1.825 1.864 1.825 1.864 0 0 1-1.825 1.864 1.825 1.864 0 0 1-1.824-1.864 1.825 1.864 0 0 1 1.824-1.864zm-10.714 7.237a4.866 4.855 0 0 1 4.866 4.855 4.866 4.855 0 0 1 4.865-4.855h-4.865z" fill="#1a1a1a"/><path d="M96.27 45.999h48.578a2.25 2.25 0 0 1 2.254 2.254V71.33a2.25 2.25 0 0 1-2.254 2.254H96.27a2.25 2.25 0 0 1-2.254-2.254V48.253a2.25 2.25 0 0 1 2.254-2.254z" fill="#ff6433"/><path style="line-height:125%;-inkscape-font-specification:'Roboto, Medium';text-align:center" d="M106.479 36.433q-.83 0-1.32.619-.487.618-.487 1.686 0 1.063.487 1.682.49.618 1.32.618.83 0 1.312-.618.487-.619.487-1.682 0-1.068-.487-1.686-.482-.619-1.312-.619zm0-.618q1.184 0 1.893.796.71.792.71 2.127 0 1.331-.71 2.127-.709.792-1.893.792-1.188 0-1.9-.792-.71-.792-.71-2.127 0-1.335.71-2.127.712-.796 1.9-.796zm6.796 3.625q0-.766-.317-1.2-.313-.438-.863-.438-.551 0-.868.438-.313.434-.313 1.2 0 .765.313 1.202.317.434.868.434.55 0 .863-.434.317-.437.317-1.203zm-2.36-1.475q.218-.378.55-.559.335-.184.8-.184.769 0 1.248.61.482.612.482 1.607 0 .996-.482 1.607-.48.61-1.249.61-.464 0-.8-.18-.331-.185-.55-.562v.633h-.698V35.68h.698v2.286zm4.231-.642h.694v4.3q0 .807-.31 1.169-.305.362-.988.362h-.264v-.588h.185q.396 0 .54-.185.143-.181.143-.758v-4.3zm0-1.644h.694v.879h-.694v-.879zm5.754 3.583v.34h-3.19q.046.716.43 1.093.389.373 1.079.373.4 0 .773-.098.377-.098.747-.294v.656q-.374.159-.766.242-.392.083-.796.083-1.01 0-1.603-.589-.588-.588-.588-1.591 0-1.037.558-1.644.562-.611 1.513-.611.852 0 1.346.55.498.547.498 1.49zm-.693-.204q-.008-.57-.32-.909-.31-.34-.823-.34-.58 0-.931.329-.347.328-.4.924l2.474-.004zm2.519-2.934v1.2h1.43v.539h-1.43v2.293q0 .516.14.663.143.148.577.148h.713v.58h-.713q-.804 0-1.109-.298-.305-.301-.305-1.093v-2.293h-.51v-.54h.51v-1.199h.697zm3.983 1.686q-.558 0-.883.437-.324.434-.324 1.192t.32 1.196q.325.433.887.433.554 0 .879-.437.324-.438.324-1.192 0-.75-.324-1.188-.325-.441-.88-.441zm0-.588q.905 0 1.422.588.516.588.516 1.63 0 1.036-.516 1.628-.517.589-1.422.589-.91 0-1.426-.589-.513-.592-.513-1.629 0-1.04.513-1.63.517-.587 1.426-.587zm6.336 1.636v2.063h1.222q.615 0 .909-.252.298-.257.298-.781 0-.528-.298-.777-.294-.253-.91-.253h-1.221zm0-2.315v1.697h1.127q.559 0 .83-.208.276-.21.276-.64 0-.427-.276-.638-.271-.211-.83-.211h-1.127zm-.762-.626h1.946q.871 0 1.343.362.471.362.471 1.03 0 .516-.241.821-.242.306-.71.381.563.121.872.506.313.38.313.954 0 .754-.513 1.165-.513.411-1.46.411h-2.021v-5.63z" font-weight="500" font-family="Roboto" letter-spacing="0" word-spacing="0" text-anchor="middle" fill="#ff6433"/><path d="M147.102 59.791h38.1v1.474h-38.1z" fill="#ff6433"/><path d="M185.202 53.931v7.334h-1.474v-7.334z" fill="#ff6433"/><path d="M186.512 54.585h-4.094l2.047-3.545z" fill="#ff6433"/><path style="line-height:125%;-inkscape-font-specification:'Roboto Bold';text-align:start" d="M154.674 64.082h1.367q.61 0 .934.271.327.27.327.77 0 .503-.327.774-.325.27-.934.27h-.543v1.107h-.824v-3.192zm.824.596v.892h.455q.24 0 .37-.115.13-.118.13-.332 0-.214-.13-.329-.13-.116-.37-.116h-.455zm3.554.819q.258 0 .37-.096.113-.096.113-.316 0-.218-.113-.312-.112-.094-.37-.094h-.347v.819h.347zm-.347.57v1.207h-.823v-3.192h1.257q.631 0 .924.212.295.211.295.669 0 .316-.154.52-.152.203-.46.299.17.038.302.175.135.135.272.41l.447.907h-.877l-.39-.793q-.117-.24-.239-.327-.12-.088-.32-.088h-.234zm4.005-1.447q-.376 0-.583.279-.208.278-.208.782 0 .503.208.78.207.279.583.279.379 0 .586-.278.208-.278.208-.78 0-.505-.208-.783-.207-.278-.586-.278zm0-.596q.77 0 1.206.44.437.441.437 1.217 0 .774-.437 1.215-.436.44-1.206.44-.767 0-1.206-.44-.436-.44-.436-1.215 0-.776.436-1.216.439-.44 1.206-.44zm1.882.058h2.943v.622h-1.059v2.57h-.823v-2.57h-1.06v-.622zm4.824.538q-.376 0-.583.279-.208.278-.208.782 0 .503.208.78.207.279.583.279.379 0 .586-.278.208-.278.208-.78 0-.505-.208-.783-.207-.278-.586-.278zm0-.596q.77 0 1.206.44.437.441.437 1.217 0 .774-.437 1.215-.436.44-1.206.44-.767 0-1.206-.44-.436-.44-.436-1.215 0-.776.436-1.216.439-.44 1.206-.44zm.058-.81h.605l-.61.564h-.418l.423-.564zm1.824.868h2.942v.622h-1.058v2.57h-.823v-2.57h-1.06v-.622zm3.366 0h.823v3.192h-.823v-3.192zm1.634 0h1.366q.61 0 .935.271.327.27.327.77 0 .503-.327.774-.326.27-.935.27h-.543v1.107h-.823v-3.192zm.823.596v.892h.455q.24 0 .37-.115.13-.118.13-.332 0-.214-.13-.329-.13-.116-.37-.116h-.455zm3.843-.058q-.377 0-.584.279-.208.278-.208.782 0 .503.208.78.207.279.584.279.378 0 .585-.278.208-.278.208-.78 0-.505-.208-.783-.207-.278-.585-.278zm0-.596q.77 0 1.206.44.436.441.436 1.217 0 .774-.436 1.215-.437.44-1.206.44-.768 0-1.207-.44-.436-.44-.436-1.215 0-.776.437-1.216.438-.44 1.206-.44z" font-weight="700" font-size="12.757" font-family="Roboto" letter-spacing="0" word-spacing="0" fill="#ff6433"/><path d="M115.694 60.032a4.866 4.855 0 0 1 4.865 4.855 4.866 4.855 0 0 1 4.866-4.855h-4.866zm-2.8-5.336h3.642c.6 0 1.083.483 1.083 1.083s-.483 1.084-1.083 1.084h-3.642a1.08 1.08 0 0 1-1.083-1.084c0-.6.483-1.083 1.083-1.083zm12.359 0h3.64c.601 0 1.084.483 1.084 1.083s-.483 1.084-1.083 1.084h-3.641c-.6 0-1.084-.483-1.084-1.084 0-.6.483-1.083 1.084-1.083z" fill="#1a1a1a"/><path d="M160.176 23.392h48.578a2.25 2.25 0 0 1 2.254 2.254v23.078a2.25 2.25 0 0 1-2.254 2.254h-48.578a2.25 2.25 0 0 1-2.254-2.254V25.646a2.25 2.25 0 0 1 2.254-2.254z" fill="#ffb934"/><path style="line-height:125%;-inkscape-font-specification:'Roboto, Medium';text-align:center" d="M170.332 13.827q-.83 0-1.32.618-.487.619-.487 1.686 0 1.064.487 1.682.49.619 1.32.619.83 0 1.312-.619.487-.618.487-1.682 0-1.067-.487-1.686-.483-.618-1.312-.618zm0-.619q1.184 0 1.893.796.709.792.709 2.127 0 1.332-.71 2.127-.708.792-1.892.792-1.188 0-1.901-.792-.71-.792-.71-2.127 0-1.335.71-2.127.713-.796 1.9-.796zm6.796 3.625q0-.766-.317-1.2-.313-.437-.864-.437-.55 0-.867.437-.313.434-.313 1.2 0 .765.313 1.203.317.434.867.434.551 0 .864-.434.317-.438.317-1.203zm-2.361-1.475q.219-.377.55-.558.336-.185.8-.185.77 0 1.248.611.483.611.483 1.607 0 .995-.483 1.606-.479.611-1.248.611-.464 0-.8-.18-.331-.185-.55-.563v.634h-.698v-5.868h.698v2.285zm4.231-.641h.694v4.3q0 .807-.309 1.169-.305.362-.988.362h-.264v-.589h.185q.396 0 .54-.185.142-.18.142-.758v-4.299zm0-1.644h.694v.878h-.694v-.878zm5.756 3.583v.339h-3.191q.045.717.43 1.094.388.373 1.079.373.4 0 .773-.098.377-.098.746-.294v.656q-.373.158-.765.241-.392.083-.796.083-1.01 0-1.603-.588-.588-.588-.588-1.592 0-1.037.558-1.644.562-.61 1.512-.61.853 0 1.347.55.498.547.498 1.49zm-.694-.204q-.008-.57-.32-.909-.31-.34-.823-.34-.58 0-.932.329-.347.328-.4.924l2.475-.004zm2.519-2.934v1.199h1.43v.54h-1.43v2.292q0 .517.14.664.143.147.577.147h.712v.581h-.712q-.804 0-1.11-.298-.305-.302-.305-1.094v-2.293h-.509v-.539h.51v-1.2h.697zm3.983 1.686q-.559 0-.883.437-.324.434-.324 1.192t.32 1.195q.325.434.887.434.554 0 .878-.437.325-.438.325-1.192 0-.75-.325-1.188-.324-.441-.878-.441zm0-.589q.905 0 1.421.589.517.588.517 1.629 0 1.037-.517 1.629-.516.588-1.421.588-.91 0-1.426-.588-.513-.592-.513-1.63 0-1.04.513-1.628.517-.589 1.426-.589zm9.79-.871v.803q-.384-.358-.822-.535-.434-.177-.924-.177-.965 0-1.478.592-.513.588-.513 1.704 0 1.113.513 1.705.513.588 1.478.588.49 0 .924-.177.438-.177.822-.535v.795q-.4.272-.848.408-.445.135-.943.135-1.279 0-2.014-.78-.736-.785-.736-2.139 0-1.357.736-2.138.735-.785 2.014-.785.505 0 .95.136.449.132.841.4z" font-weight="500" font-family="Roboto" letter-spacing="0" word-spacing="0" text-anchor="middle" fill="#ffb934"/><path d="M211.008 36.448h6.342v1.474h-6.342zm6.949 0h3.437v1.474h-3.437zm4.045 0h1.443v1.474h-1.443zm2.051 0h.836v1.474h-.836z" fill="#ffb934"/><path d="M179.6 38.381a4.866 4.855 0 0 0 4.865 4.855 4.866 4.855 0 0 0 4.866-4.855h-1.537a3.33 3.322 0 0 1-3.33 3.322 3.33 3.322 0 0 1-3.33-3.322H179.6zm.389-7.247a1.825 1.864 0 0 1 1.825 1.864 1.825 1.864 0 0 1-1.825 1.864 1.825 1.864 0 0 1-1.825-1.864 1.825 1.864 0 0 1 1.825-1.864zm8.951 0a1.825 1.864 0 0 1 1.825 1.864 1.825 1.864 0 0 1-1.825 1.864 1.825 1.864 0 0 1-1.824-1.864 1.825 1.864 0 0 1 1.824-1.864z" fill="#1a1a1a"/><path d="M0 0h255v110H0z" fill="none"/><path d="M32.191 69.342h48.925c1.153 0 2.08.928 2.08 2.08v23.425c0 1.152-.927 2.08-2.08 2.08H32.191a2.076 2.076 0 0 1-2.08-2.08V71.423c0-1.153.928-2.08 2.08-2.08z" fill="#ff2650"/><path d="M42.58 59.777q-.829 0-1.32.618-.486.619-.486 1.686 0 1.063.487 1.682.49.619 1.32.619.83 0 1.312-.619.487-.619.487-1.682 0-1.067-.487-1.686-.482-.618-1.312-.618zm0-.619q1.185 0 1.894.796.71.792.71 2.127 0 1.331-.71 2.127-.709.792-1.893.792-1.188 0-1.9-.792-.71-.792-.71-2.127 0-1.335.71-2.127.712-.796 1.9-.796zm6.797 3.624q0-.765-.317-1.199-.313-.437-.863-.437-.551 0-.868.437-.313.434-.313 1.2 0 .765.313 1.203.317.433.868.433.55 0 .863-.433.317-.438.317-1.204zm-2.36-1.474q.218-.377.55-.558.335-.185.8-.185.769 0 1.248.61.482.612.482 1.607 0 .996-.482 1.607-.48.611-1.249.611-.464 0-.8-.181-.331-.185-.55-.562v.634h-.698v-5.869h.698v2.286zm4.231-.641h.694v4.3q0 .806-.31 1.168-.305.362-.988.362h-.264v-.588h.185q.396 0 .54-.185.143-.18.143-.758v-4.3zm0-1.645h.694v.88h-.694v-.88zm5.755 3.583v.34h-3.19q.044.716.43 1.093.388.374 1.078.374.4 0 .773-.098.377-.099.747-.295v.657q-.374.158-.766.241-.392.083-.796.083-1.01 0-1.603-.588-.588-.589-.588-1.592 0-1.037.558-1.644.562-.611 1.513-.611.852 0 1.346.55.498.547.498 1.49zm-.694-.203q-.008-.57-.32-.91-.31-.339-.823-.339-.58 0-.931.328-.347.328-.4.924l2.474-.004zm2.519-2.935v1.2h1.43v.539h-1.43v2.293q0 .517.14.664.143.147.577.147h.713v.58h-.713q-.804 0-1.11-.297-.305-.302-.305-1.094v-2.293h-.509v-.54h.51v-1.199h.697zm3.982 1.686q-.557 0-.882.438-.324.433-.324 1.191t.32 1.196q.325.434.887.434.554 0 .879-.438.324-.437.324-1.192 0-.75-.324-1.188-.325-.44-.88-.44zm0-.588q.906 0 1.423.588.516.589.516 1.63 0 1.037-.516 1.629-.517.588-1.422.588-.91 0-1.426-.588-.513-.592-.513-1.63 0-1.04.513-1.629.517-.588 1.426-.588zm7.457-.555l-1.033 2.803h2.07l-1.037-2.803zm-.43-.75h.864l2.146 5.63h-.792l-.513-1.444h-2.539l-.512 1.445h-.804l2.15-5.631z" style="line-height:125%;-inkscape-font-specification:'Roboto, Medium';text-align:center" font-weight="500" font-family="Roboto" letter-spacing="0" word-spacing="0" text-anchor="middle" fill="#ff2650"/><path d="M83.197 82.398h38.1v1.474h-38.1z" fill="#ff2650"/><path d="M121.296 76.538v7.334h-1.474v-7.334z" fill="#ff2650"/><path d="M122.606 77.192h-4.093l2.046-3.545z" fill="#ff2650"/><path d="M90.769 86.688h1.366q.61 0 .935.272.327.27.327.77 0 .502-.327.774-.325.27-.935.27h-.543v1.107h-.823v-3.193zm.823.597v.892h.456q.24 0 .37-.116.13-.117.13-.331 0-.214-.13-.33-.13-.115-.37-.115h-.456zm3.554.819q.259 0 .37-.096.113-.097.113-.317 0-.218-.113-.312-.111-.094-.37-.094H94.8v.819h.346zm-.346.569v1.208h-.824v-3.193h1.258q.63 0 .924.212.295.212.295.67 0 .316-.154.519-.152.203-.46.3.169.038.301.175.135.134.272.41l.447.907h-.877l-.389-.793q-.118-.24-.24-.328-.12-.087-.32-.087H94.8zm4.005-1.446q-.377 0-.584.278-.207.278-.207.783 0 .502.207.78t.584.278q.378 0 .586-.278.207-.278.207-.78 0-.505-.207-.783-.208-.278-.586-.278zm0-.596q.77 0 1.206.44.436.44.436 1.217 0 .774-.436 1.214-.436.44-1.206.44-.768 0-1.206-.44-.436-.44-.436-1.214 0-.776.436-1.217.438-.44 1.206-.44zm1.882.057h2.942v.623h-1.058v2.57h-.824v-2.57h-1.06v-.623zm4.823.539q-.376 0-.583.278-.207.278-.207.783 0 .502.207.78t.584.278q.378 0 .586-.278.207-.278.207-.78 0-.505-.207-.783-.208-.278-.586-.278zm0-.596q.77 0 1.207.44.436.44.436 1.217 0 .774-.436 1.214-.436.44-1.206.44-.768 0-1.206-.44-.436-.44-.436-1.214 0-.776.436-1.217.438-.44 1.206-.44zm.058-.81h.606l-.61.564h-.419l.423-.565zm1.825.867h2.942v.623h-1.059v2.57h-.823v-2.57h-1.06v-.623zm3.365 0h.824v3.193h-.824v-3.193zm1.634 0h1.366q.61 0 .935.272.327.27.327.77 0 .502-.327.774-.325.27-.935.27h-.543v1.107h-.823v-3.193zm.823.597v.892h.456q.24 0 .37-.116.13-.117.13-.331 0-.214-.13-.33-.13-.115-.37-.115h-.456zm3.843-.058q-.376 0-.584.278-.207.278-.207.783 0 .502.207.78.208.278.584.278.378 0 .586-.278.207-.278.207-.78 0-.505-.207-.783-.208-.278-.586-.278zm0-.596q.77 0 1.206.44.436.44.436 1.217 0 .774-.436 1.214-.436.44-1.206.44-.768 0-1.206-.44-.436-.44-.436-1.214 0-.776.436-1.217.438-.44 1.206-.44z" style="line-height:125%;-inkscape-font-specification:'Roboto Bold';text-align:start" font-weight="700" font-size="12.757" font-family="Roboto" letter-spacing="0" word-spacing="0" fill="#ff2650"/><path d="M50.804 77.089a1.825 1.864 0 0 1 1.826 1.864 1.825 1.864 0 0 1-1.826 1.864 1.825 1.864 0 0 1-1.824-1.864 1.825 1.864 0 0 1 1.824-1.864zm11.698 0a1.825 1.864 0 0 1 1.825 1.864 1.825 1.864 0 0 1-1.825 1.864 1.825 1.864 0 0 1-1.824-1.864 1.825 1.864 0 0 1 1.824-1.864zm-10.714 7.237a4.86 4.86 0 0 0 4.866 4.855 4.86 4.86 0 0 0 4.865-4.855h-4.865z" fill="#1a1a1a"/><path d="M96.27 45.999h48.578a2.25 2.25 0 0 1 2.254 2.254V71.33a2.25 2.25 0 0 1-2.254 2.254H96.27a2.25 2.25 0 0 1-2.254-2.254V48.253a2.25 2.25 0 0 1 2.254-2.254z" fill="#ff6433"/><path d="M106.479 36.433q-.83 0-1.32.619-.487.618-.487 1.686 0 1.063.487 1.682.49.618 1.32.618.83 0 1.312-.618.487-.619.487-1.682 0-1.068-.487-1.686-.482-.619-1.312-.619zm0-.618q1.184 0 1.893.796.71.792.71 2.127 0 1.331-.71 2.127-.709.792-1.893.792-1.188 0-1.9-.792-.71-.792-.71-2.127 0-1.335.71-2.127.712-.796 1.9-.796zm6.796 3.625q0-.766-.317-1.2-.313-.438-.863-.438-.551 0-.868.438-.313.434-.313 1.2 0 .765.313 1.202.317.434.868.434.55 0 .863-.434.317-.437.317-1.203zm-2.36-1.475q.218-.378.55-.559.335-.184.8-.184.769 0 1.248.61.482.612.482 1.607 0 .996-.482 1.607-.48.61-1.249.61-.464 0-.8-.18-.331-.185-.55-.562v.633h-.698V35.68h.698v2.286zm4.231-.642h.694v4.3q0 .807-.31 1.169-.305.362-.988.362h-.264v-.588h.185q.396 0 .54-.185.143-.181.143-.758v-4.3zm0-1.644h.694v.879h-.694v-.879zm5.754 3.583v.34h-3.19q.046.716.43 1.093.389.373 1.079.373.4 0 .773-.098.377-.098.747-.294v.656q-.374.159-.766.242-.392.083-.796.083-1.01 0-1.603-.589-.588-.588-.588-1.591 0-1.037.558-1.644.562-.611 1.513-.611.852 0 1.346.55.498.547.498 1.49zm-.693-.204q-.008-.57-.32-.909-.31-.34-.823-.34-.58 0-.931.329-.347.328-.4.924l2.474-.004zm2.519-2.934v1.2h1.43v.539h-1.43v2.293q0 .516.14.663.143.148.577.148h.713v.58h-.713q-.804 0-1.109-.298-.305-.301-.305-1.093v-2.293h-.51v-.54h.51v-1.199h.697zm3.983 1.686q-.558 0-.883.437-.324.434-.324 1.192t.32 1.196q.325.433.887.433.554 0 .879-.437.324-.438.324-1.192 0-.75-.324-1.188-.325-.441-.88-.441zm0-.588q.905 0 1.422.588.516.588.516 1.63 0 1.036-.516 1.628-.517.589-1.422.589-.91 0-1.426-.589-.513-.592-.513-1.629 0-1.04.513-1.63.517-.587 1.426-.587zm6.336 1.636v2.063h1.222q.615 0 .909-.252.298-.257.298-.781 0-.528-.298-.777-.294-.253-.91-.253h-1.221zm0-2.315v1.697h1.127q.559 0 .83-.208.276-.21.276-.64 0-.427-.276-.638-.271-.211-.83-.211h-1.127zm-.762-.626h1.946q.871 0 1.343.362.471.362.471 1.03 0 .516-.241.821-.242.306-.71.381.563.121.872.506.313.38.313.954 0 .754-.513 1.165-.513.411-1.46.411h-2.021v-5.63z" style="line-height:125%;-inkscape-font-specification:'Roboto, Medium';text-align:center" font-weight="500" font-family="Roboto" letter-spacing="0" word-spacing="0" text-anchor="middle" fill="#ff6433"/><path d="M147.102 59.791h38.1v1.474h-38.1z" fill="#ff6433"/><path d="M185.202 53.931v7.334h-1.474v-7.334z" fill="#ff6433"/><path d="M186.512 54.585h-4.094l2.047-3.545z" fill="#ff6433"/><path d="M154.674 64.082h1.367q.61 0 .934.271.327.27.327.77 0 .503-.327.774-.325.27-.934.27h-.543v1.107h-.824v-3.192zm.824.596v.892h.455q.24 0 .37-.115.13-.118.13-.332 0-.214-.13-.329-.13-.116-.37-.116h-.455zm3.554.819q.258 0 .37-.096.113-.096.113-.316 0-.218-.113-.312-.112-.094-.37-.094h-.347v.819h.347zm-.347.57v1.207h-.823v-3.192h1.257q.631 0 .924.212.295.211.295.669 0 .316-.154.52-.152.203-.46.299.17.038.302.175.135.135.272.41l.447.907h-.877l-.39-.793q-.117-.24-.239-.327-.12-.088-.32-.088h-.234zm4.005-1.447q-.376 0-.583.279-.208.278-.208.782 0 .503.208.78.207.279.583.279.379 0 .586-.278.208-.278.208-.78 0-.505-.208-.783-.207-.278-.586-.278zm0-.596q.77 0 1.206.44.437.441.437 1.217 0 .774-.437 1.215-.436.44-1.206.44-.767 0-1.206-.44-.436-.44-.436-1.215 0-.776.436-1.216.439-.44 1.206-.44zm1.882.058h2.943v.622h-1.059v2.57h-.823v-2.57h-1.06v-.622zm4.824.538q-.376 0-.583.279-.208.278-.208.782 0 .503.208.78.207.279.583.279.379 0 .586-.278.208-.278.208-.78 0-.505-.208-.783-.207-.278-.586-.278zm0-.596q.77 0 1.206.44.437.441.437 1.217 0 .774-.437 1.215-.436.44-1.206.44-.767 0-1.206-.44-.436-.44-.436-1.215 0-.776.436-1.216.439-.44 1.206-.44zm.058-.81h.605l-.61.564h-.418l.423-.564zm1.824.868h2.942v.622h-1.058v2.57h-.823v-2.57h-1.06v-.622zm3.366 0h.823v3.192h-.823v-3.192zm1.634 0h1.366q.61 0 .935.271.327.27.327.77 0 .503-.327.774-.326.27-.935.27h-.543v1.107h-.823v-3.192zm.823.596v.892h.455q.24 0 .37-.115.13-.118.13-.332 0-.214-.13-.329-.13-.116-.37-.116h-.455zm3.843-.058q-.377 0-.584.279-.208.278-.208.782 0 .503.208.78.207.279.584.279.378 0 .585-.278.208-.278.208-.78 0-.505-.208-.783-.207-.278-.585-.278zm0-.596q.77 0 1.206.44.436.441.436 1.217 0 .774-.436 1.215-.437.44-1.206.44-.768 0-1.207-.44-.436-.44-.436-1.215 0-.776.437-1.216.438-.44 1.206-.44z" style="line-height:125%;-inkscape-font-specification:'Roboto Bold';text-align:start" font-weight="700" font-size="12.757" font-family="Roboto" letter-spacing="0" word-spacing="0" fill="#ff6433"/><path d="M115.694 60.032a4.86 4.86 0 0 0 4.865 4.855 4.86 4.86 0 0 0 4.866-4.855h-4.866zm-2.8-5.336h3.642c.6 0 1.083.483 1.083 1.083s-.483 1.084-1.083 1.084h-3.642a1.08 1.08 0 0 1-1.083-1.084c0-.6.483-1.083 1.083-1.083zm12.359 0h3.64c.601 0 1.084.483 1.084 1.083s-.483 1.084-1.083 1.084h-3.641c-.6 0-1.084-.483-1.084-1.084 0-.6.483-1.083 1.084-1.083z" fill="#1a1a1a"/><path d="M160.176 23.392h48.578a2.25 2.25 0 0 1 2.254 2.254v23.078a2.25 2.25 0 0 1-2.254 2.254h-48.578a2.25 2.25 0 0 1-2.254-2.254V25.646a2.25 2.25 0 0 1 2.254-2.254z" fill="#ffb934"/><path d="M170.332 13.827q-.83 0-1.32.618-.487.619-.487 1.686 0 1.064.487 1.682.49.619 1.32.619.83 0 1.312-.619.487-.618.487-1.682 0-1.067-.487-1.686-.483-.618-1.312-.618zm0-.619q1.184 0 1.893.796.709.792.709 2.127 0 1.332-.71 2.127-.708.792-1.892.792-1.188 0-1.901-.792-.71-.792-.71-2.127 0-1.335.71-2.127.713-.796 1.9-.796zm6.796 3.625q0-.766-.317-1.2-.313-.437-.864-.437-.55 0-.867.437-.313.434-.313 1.2 0 .765.313 1.203.317.434.867.434.551 0 .864-.434.317-.438.317-1.203zm-2.361-1.475q.219-.377.55-.558.336-.185.8-.185.77 0 1.248.611.483.611.483 1.607 0 .995-.483 1.606-.479.611-1.248.611-.464 0-.8-.18-.331-.185-.55-.563v.634h-.698v-5.868h.698v2.285zm4.231-.641h.694v4.3q0 .807-.309 1.169-.305.362-.988.362h-.264v-.589h.185q.396 0 .54-.185.142-.18.142-.758v-4.299zm0-1.644h.694v.878h-.694v-.878zm5.756 3.583v.339h-3.191q.045.717.43 1.094.388.373 1.079.373.4 0 .773-.098.377-.098.746-.294v.656q-.373.158-.765.241-.392.083-.796.083-1.01 0-1.603-.588-.588-.588-.588-1.592 0-1.037.558-1.644.562-.61 1.512-.61.853 0 1.347.55.498.547.498 1.49zm-.694-.204q-.008-.57-.32-.909-.31-.34-.823-.34-.58 0-.932.329-.347.328-.4.924l2.475-.004zm2.519-2.934v1.199h1.43v.54h-1.43v2.292q0 .517.14.664.143.147.577.147h.712v.581h-.712q-.804 0-1.11-.298-.305-.302-.305-1.094v-2.293h-.509v-.539h.51v-1.2h.697zm3.983 1.686q-.559 0-.883.437-.324.434-.324 1.192t.32 1.195q.325.434.887.434.554 0 .878-.437.325-.438.325-1.192 0-.75-.325-1.188-.324-.441-.878-.441zm0-.589q.905 0 1.421.589.517.588.517 1.629 0 1.037-.517 1.629-.516.588-1.421.588-.91 0-1.426-.588-.513-.592-.513-1.63 0-1.04.513-1.628.517-.589 1.426-.589zm9.79-.871v.803q-.384-.358-.822-.535-.434-.177-.924-.177-.965 0-1.478.592-.513.588-.513 1.704 0 1.113.513 1.705.513.588 1.478.588.49 0 .924-.177.438-.177.822-.535v.795q-.4.272-.848.408-.445.135-.943.135-1.279 0-2.014-.78-.736-.785-.736-2.139 0-1.357.736-2.138.735-.785 2.014-.785.505 0 .95.136.449.132.841.4z" style="line-height:125%;-inkscape-font-specification:'Roboto, Medium';text-align:center" font-weight="500" font-family="Roboto" letter-spacing="0" word-spacing="0" text-anchor="middle" fill="#ffb934"/><path d="M211.008 36.448h6.342v1.474h-6.342zm6.949 0h3.437v1.474h-3.437zm4.045 0h1.443v1.474h-1.443zm2.051 0h.836v1.474h-.836z" fill="#ffb934"/><path d="M179.6 38.381a4.866 4.855 0 0 0 4.865 4.855 4.866 4.855 0 0 0 4.866-4.855h-1.537a3.33 3.322 0 0 1-3.33 3.322 3.33 3.322 0 0 1-3.33-3.322H179.6zm.389-7.247a1.825 1.864 0 0 1 1.825 1.864 1.825 1.864 0 0 1-1.825 1.864 1.825 1.864 0 0 1-1.825-1.864 1.825 1.864 0 0 1 1.825-1.864zm8.951 0a1.825 1.864 0 0 1 1.825 1.864 1.825 1.864 0 0 1-1.825 1.864 1.825 1.864 0 0 1-1.824-1.864 1.825 1.864 0 0 1 1.824-1.864z" fill="#1a1a1a"/></svg>