<svg xmlns="http://www.w3.org/2000/svg"><defs><font id="cmunbi" horiz-adv-x="510"><font-face font-family="CMU Serif" panose-1="2 0 8 3 0 0 0 0 0 0" ascent="921" descent="-308" alphabetic="0"/><glyph glyph-name="space" horiz-adv-x="414"/><glyph unicode="!" glyph-name="exclam" horiz-adv-x="386" d="M135 61q0 34 27 60t62 27q27 0 44-17t18-44q0-34-27-60T197 0q-27 0-44 17t-18 44zm88 176q0 1 3 22l52 377q7 43 35 61t54 19q27 0 44-15t18-41q0-16-7-33L285 249q-5-15-10-21t-9-7-17-2q-26 0-26 18z"/><glyph unicode="&quot;" glyph-name="quotedbl" horiz-adv-x="591" d="M278 362q0 8 15 147t18 149q6 20 25 34t41 14q21 0 36-13t15-34q0-13-13-46-24-61-57-146-37-94-44-109t-19-16q-17 0-17 20zm177 0q0 8 15 147t18 149q6 20 25 34t41 14q21 0 36-13t15-34q0-13-13-46-24-61-57-146-37-94-44-109t-19-16q-17 0-17 20z"/><glyph unicode="#" glyph-name="numbersign" horiz-adv-x="944" d="M124 139q0 18 29 18h187l99 186H209q-29 0-29 18t28 18h252q3 5 8 17t9 17l134 248q8 14 11 19t7 9 11 4q17 0 17-17 0-8-13-31L501 379h205q6 12 18 34l134 248q8 14 11 19t7 9 11 4q16 0 16-17 0-9-12-31L747 379h169q26 0 26-18t-28-18H727L627 157h231q29 0 29-18 0-19-29-19H607L456-160q-16-29-23-32-3-1-6-1-17 0-17 18 0 7 12 29l144 266H361L210-160q-8-14-11-19t-8-10-11-4q-17 0-17 18 0 6 13 29l143 266H151q-27 0-27 19zm257 18h205l100 186H480l-99-186z"/><glyph unicode="$" glyph-name="dollar" horiz-adv-x="591" d="M128 133q0 62 23 87t53 25q24 0 36-13t13-33q0-11-3-23t-20-28-45-20q2-28 13-46t29-28 27-11 25-6l66 260q-137 34-137 158 0 35 14 74t41 78 75 65 108 33q1 3 2 10t3 9 2 8 3 7 3 4 5 4 5 2 8 1q23 0 23-20 0-6-5-26 66-7 104-41t38-94q0-58-23-82t-53-24q-21 0-35 12t-14 34q0 23 17 45t50 26q-10 67-96 77l-58-233q91-23 120-91 14-32 14-73 0-38-14-80t-42-83-77-70-110-37q-9-36-16-41-5-4-15-4-22 0-22 19 0 4 5 26-43 5-73 21t-43 40-19 42-5 40zm173 386q0-64 78-83l55 220q-63-9-98-51t-35-86zm28-480q65 11 101 60t36 97q0 13-3 27t-21 35-52 28L329 39z"/><glyph unicode="%" glyph-name="percent" horiz-adv-x="944" d="M171-25q0 14 25 39l588 613q-55-17-102-17-77 0-153 41 2-16 2-25 0-39-13-86t-36-91-62-73-85-29q-45 0-82 30t-37 102q0 99 61 185t151 86q12 0 23-2t18-6 15-8 12-9 9-8 7-7q72-64 170-64 55 0 107 21t87 56l7 7 8 8q2 2 6 5t9 5 8 1q12 0 21-8t9-21-24-39L233-35q-20-20-33-20-12 0-20 9t-9 21zm132 461q0-52 36-52 37 0 73 48 29 40 46 99t18 102q0 38-13 59t-35 21q-11 0-21-4t-18-12-16-16-13-22-10-22-9-24-6-20-5-19l-3-11q-24-92-24-127zM586 77q0 97 61 183t151 87q40 0 71-28t32-96q0-57-21-119T811-6 706-55q-46 0-83 30T586 77zm87-44q0-51 37-51t72 47q32 42 48 103t16 99q0 44-14 61t-34 18q-11 0-23-5t-29-27-30-56q-13-38-28-100t-15-89z"/><glyph unicode="&amp;" glyph-name="ampersand" horiz-adv-x="885" d="M139 133v45l25 108 69 107q-9 28-9 58 0 96 66 180t170 85q56 0 92-32t36-85q0-45-23-66t-50-22q-21 0-35 12t-14 34q0 23 16 43t47 27q-18 53-69 53-33 0-62-29-21-21-36-60t-37-136q51 16 82 16 41 0 58-19t18-45q0-39-30-70t-80-31q-47 0-79 17-39-113-39-173 0-136 192-136 254 0 317 208 12 41 12 72 0 28-9 55t-17 40-25 40q-39-19-64-35t-34-30-12-22-5-21q23 35 62 35 23 0 36-13t14-35q0-25-20-48t-55-24q-37 0-65 23t-28 61q0 33 22 63t47 47 63 38 50 30q47 33 76 78-39 8-39 46 0 29 22 50t50 22q22 0 36-13t15-34q0-33-31-88t-90-99q58-79 58-160 0-70-37-143T695 42q-96-64-259-64h-7q-19 0-40 2t-58 8-67 20-60 34-47 56zm184 249q15-39 54-39 21 0 33 17t15 31 3 23q0 21-24 21-41 0-81-53z"/><glyph unicode="'" glyph-name="quotesingle" horiz-adv-x="355" d="M249 362q0 8 15 147t18 149q6 20 25 34t41 14q21 0 36-13t15-34q0-13-13-46-24-61-57-146-37-94-44-109t-19-16q-17 0-17 20z"/><glyph unicode="(" glyph-name="parenleft" horiz-adv-x="473" d="M168 72q0 81 21 170t62 179 111 174 159 143q15 11 27 11 17 0 17-13 0-4-3-8t-6-7-9-8-7-6q-96-85-164-218t-96-253-28-222q0-56 10-104t21-71 23-45 14-24q3-7-1-13t-14-7h-1q-9 0-24 13t-35 41-37 65-28 91-12 112z"/><glyph unicode=")" glyph-name="parenright" horiz-adv-x="473" d="M32-237q0 9 21 27 80 70 140 169t91 198 45 182 15 147q0 57-10 105t-21 71-23 45-14 23q-3 7 1 13t14 6 24-13 35-41 37-64 29-91 12-112q0-81-21-170T345 78 233-96 73-240q-13-10-24-10-17 0-17 13z"/><glyph unicode="*" glyph-name="asterisk" horiz-adv-x="591" d="M206 429q0 22 21 38 10 7 161 61-121 53-130 60-7 6-7 19 0 20 17 36t36 17q11 0 23-11t89-88q3 26 5 54t4 44 3 29 3 23 5 12q15 27 45 27 13 0 23-8t11-21q0-8-61-159 140 93 149 97 4 1 11 1 14 0 23-10t10-24q0-22-21-38-7-5-161-60 121-53 130-60 7-6 7-19 0-20-18-37t-36-17q-11 0-23 11t-88 88q-3-27-5-51t-4-39-3-26-1-19-1-10-2-7-1-4-3-5q-15-27-45-27-13 0-23 8t-11 20q0 9 61 160-141-94-150-97-4-2-11-2-14 0-23 10t-9 24z"/><glyph unicode="+" glyph-name="plus" horiz-adv-x="885" d="M152 232v18l32 18h306l74 298q0 2 1 6t2 6 2 6 2 6 3 4 4 4 4 3 6 1q8 0 13-6t4-16q0-6-15-66t-35-136-27-110h296q32 0 32-18t-31-18H518q-6-26-9-38L444-66q0-2-1-6t-2-6-2-6-2-6-3-4-4-4-4-3-6-1q-16 0-16 19 0 9 4 25l73 290H182q-30 0-30 18z"/><glyph unicode="," glyph-name="comma" horiz-adv-x="355" d="M89-175q0 7 14 19t35 29 47 54 44 87Q203 0 181 0q-28 0-44 16t-17 42q0 35 26 62t64 28q32 0 48-23t17-57q0-51-35-120T136-176q-22-17-30-17-7 0-12 6t-5 12z"/><glyph unicode="-" glyph-name="hyphen" horiz-adv-x="414" d="M91 195q0 6 11 50 3 13 9 18t23 6h226q26 0 26-20 0-9-13-54-5-19-28-19H118q-27 0-27 19z"/><glyph unicode="." glyph-name="period" horiz-adv-x="355" d="M120 60q0 33 27 60t63 28q27 0 44-17t17-43q0-33-27-60T181 0q-27 0-44 17t-17 43z"/><glyph unicode="/" glyph-name="slash" horiz-adv-x="591" d="M32-238v7l7 18 584 913q3 5 8 13t7 11 5 8 6 8 5 4 5 4 6 1q7 0 12-5t5-13-13-28L78-220l-3-6q-2-4-4-5t-4-5-3-5-3-3-4-3-4-1-4-1q-7 0-12 5z"/><glyph unicode="0" glyph-name="zero" horiz-adv-x="591" d="M112 156q0 66 31 187t82 195q89 128 236 128 76 0 126-40t50-140q0-66-30-185t-79-191Q441-22 289-22q-177 0-177 178zm104-53q0-41 23-64t60-24q39 0 75 26t55 72q21 48 63 212t43 220q0 41-23 63t-61 22q-33 0-62-17t-48-43q-33-45-79-230t-46-237z"/><glyph unicode="1" glyph-name="one" horiz-adv-x="591" d="M124 20q0 28 30 28h16q67 0 77 3t16 27l108 431q-68-29-114-29-25 0-25 20 0 12 7 19t15 8 23 3 23 4q96 20 170 106 14 16 26 16 19 0 19-19 0-9-6-33L385 108l-15-58q23-2 69-2h25q28 0 28-21 0-27-28-27-4 0-23 1t-55 1-75 1h-91q-37 0-52-2t-18-1q-26 0-26 20z"/><glyph unicode="2" glyph-name="two" horiz-adv-x="591" d="M89-6q0 9 9 32t27 58 58 75 89 73q1 1 41 24t66 40 59 54 47 76q23 63 23 117 0 47-24 67t-58 20q-54 0-102-40t-74-90-26-88q0-28 20-28 34 0 65 42t31 73q0 12-7 24t-7 17q0 7 6 13t13 6q12 0 22-19t10-39q0-46-41-100t-97-54q-31 0-50 20t-20 53q0 44 31 100t95 101 136 45q83 0 135-43t52-123q0-88-55-145T376 229q-36-19-50-27t-39-24-44-34-42-45q39 0 115-7t108-8q46 0 76 25t41 54q5 12 10 16t19 4h5q24 0 24-15t-13-45-35-63-61-57-81-25q-37 0-74 21t-70 42-63 21q-19 0-31-14T146-3q-6-19-26-19h-7Q89-22 89-6z"/><glyph unicode="3" glyph-name="three" horiz-adv-x="591" d="M106 114q0 49 23 70t51 22q22 0 35-13t14-33q0-24-17-45t-48-25q19-75 102-75 84 0 125 68 15 25 30 81t15 86q0 61-73 61h-31q-28 0-28 17 0 9 3 15t5 10 8 4 6 2 4 0h41q73 0 104 40t49 125q5 22 5 39 0 36-22 51t-53 16q-70 0-128-47t-59-105q0-29 22-29 17 0 33 16t17 35q0 10-6 23t-7 18q0 7 6 13t13 6q10 0 21-18t11-40q0-36-29-63t-66-27q-31 0-50 20t-20 51q0 67 72 125t174 58q75 0 122-34t48-100q0-55-33-107t-86-82q-11-6-35-16 72-37 72-121 0-90-76-159T266-22q-70 0-115 37t-45 99z"/><glyph unicode="4" glyph-name="four" horiz-adv-x="591" d="M54 28q0 10 7 16t21 14 42 30 62 58q63 66 113 153t73 150 40 120 18 60q18 37 57 37 19 0 32-12t13-30q0-10-8-41t-32-91-61-124-101-144T185 76h12q28 0 52-4t39-8 53-18q32 127 36 141t13 25q21 24 48 24 19 0 32-12t13-30q0-6-41-170 31 1 55 6t25 6q7 0 15-9t8-17q0-14-37-24t-78-10q-7-32-13-56t-10-39-7-25-6-15-4-8-3-4-3-3q-20-20-46-20-18 0-31 12t-13 30q0 11 35 151-3 1-28 9t-35 11-31 5-44 4q-37 0-59-4t-29-9-12-9-13-4q-9 0-16 9t-8 17z"/><glyph unicode="5" glyph-name="five" horiz-adv-x="591" d="M118 120q0 56 25 80t56 25q23 0 38-14t15-36q0-25-18-49t-58-28q18-76 89-76 20 0 38 5t32 15 25 22 20 27 15 29 11 31 8 28 6 25 5 19q18 74 18 105 0 21-12 38t-40 18q-71 0-129-58-3-3-7-8t-7-7-8-4-12-2q-24 0-24 20 0 4 2 13l2 9 74 296q5 22 19 22 3 0 22-7t52-16 74-8 77 8 61 15 26 8q14 0 14-14 0-15-27-39-102-95-226-95-29 0-59 6l-33-134q55 31 116 31 75 0 120-41t46-115q0-113-85-199T263-22q-66 0-105 40t-40 102z"/><glyph unicode="6" glyph-name="six" horiz-adv-x="591" d="M130 165q0 49 14 116t35 121q49 125 140 194t196 70q62 0 88-28t26-65q0-41-22-64t-52-24q-21 0-35 13t-14 34 16 42 45 27q-18 26-55 26-30 0-71-19t-78-71q-36-52-69-173 50 65 120 65 46 0 80-15t51-41 24-49 8-49q0-32-13-82t-38-88q-33-51-91-89T297-22q-73 0-120 43t-47 144zm106-72q0-27 15-49t48-22q17 0 31 3t25 12 21 16 17 22 13 24 11 29 8 29 8 31 8 30q22 92 22 115 0 24-13 41t-47 18q-38 0-68-28t-48-69-30-85-17-75-4-42z"/><glyph unicode="7" glyph-name="seven" horiz-adv-x="591" d="M144 445q0 6 37 78 34 66 62 119 8 16 13 20t18 4h6q24 0 24-14 0-2-12-30 67 44 132 44 27 0 42-16t18-35 13-36 28-16q11 0 24 5t24 12 22 17 20 19 16 17 11 14l5 6q12 14 28 14h4q2 0 4-1 22 0 22-14 0-5-13-23-70-93-125-203t-81-187-44-144-20-71q-20-46-70-46-22 0-37 13t-15 36q0 23 19 81t81 178 155 245q-20-5-36-5-24 0-59 17t-59 18q-46 0-100-26t-90-75q-18-26-23-28-3-1-14-1h-9q-21 0-21 14z"/><glyph unicode="8" glyph-name="eight" horiz-adv-x="591" d="M107 114q0 66 43 122t127 94q-58 42-58 116 0 79 64 149t175 71q68 0 114-29t46-90q0-51-33-98t-104-80v-1q85-57 85-142 0-40-17-82t-50-80-87-62-122-24q-78 0-130 33t-53 103zm87-1q0-40 24-66t80-26q74 0 120 42t46 93q0 8-1 15t-4 14-7 12-11 12-14 13-19 15-24 17-31 22-36 26q-56-29-89-82t-34-107zm118 408v-12q0-5 4-10t5-10 10-10 12-11 18-13 21-16 28-19 33-24h1q98 62 98 154 0 38-24 57t-65 20q-64 0-102-32t-39-74z"/><glyph unicode="9" glyph-name="nine" horiz-adv-x="591" d="M122 72q0 39 21 63t52 24q21 0 35-12t14-34q0-20-13-41t-42-28q25-22 62-22 40 0 77 24t62 61q37 55 66 173-50-65-120-65-46 0-79 15t-51 41-24 50-8 49q0 32 12 80t36 86q31 49 90 90t146 41q71 0 117-43t46-142q0-42-14-112t-38-133Q521 116 434 47T249-22q-54 0-90 22t-37 72zm166 237q0-23 13-40t46-17q47 0 83 44t54 103 25 101 8 57q0 35-17 52t-45 18q-17 0-32-4t-26-13-21-17-18-25-14-26-11-29-8-28-8-29-6-25q-23-92-23-122z"/><glyph unicode=":" glyph-name="colon" horiz-adv-x="355" d="M120 60q0 33 27 60t63 28q27 0 44-17t17-43q0-33-27-60T181 0q-27 0-44 17t-17 43zm75 296q0 34 28 61t62 27q27 0 43-17t17-43q0-34-26-60t-63-27q-27 0-44 17t-17 42z"/><glyph unicode=";" glyph-name="semicolon" horiz-adv-x="355" d="M89-175q0 7 14 19t35 29 47 54 44 87Q203 0 181 0q-28 0-44 16t-17 42q0 35 26 62t64 28q32 0 48-23t17-57q0-51-35-120T136-176q-22-17-30-17-7 0-12 6t-5 12zm105 531q0 34 28 61t62 27q27 0 44-17t17-43q0-33-27-60t-63-27q-27 0-44 17t-17 42z"/><glyph unicode="&lt;" glyph-name="less" horiz-adv-x="885" d="M182 250q0 4 1 7t5 6 6 4 7 4 6 2l655 292q16 7 23 7 18 0 18-17 0-4-1-7t-5-6-6-4-7-4-6-2L240 248 728-32q22-12 22-24 0-7-5-12t-12-5q-4 0-26 11L204 226q-22 12-22 24z"/><glyph unicode="=" glyph-name="equal" horiz-adv-x="885" d="M124 139q0 18 29 18h633q27 0 34-4 8-5 8-14 0-7-7-13t-19-6H152q-28 0-28 19zm56 204v18l29 18h637q37 0 37-18t-25-18H208q-28 0-28 18z"/><glyph unicode="&gt;" glyph-name="greater" horiz-adv-x="885" d="M105-56q0 12 25 24l574 255q10 5 32 14t32 15L280 531q-22 12-22 24 0 7 5 12t12 5q4 0 26-11l506-289q19-12 19-22 0-12-24-24L146-65q-19-8-23-8-18 0-18 17z"/><glyph unicode="?" glyph-name="question" horiz-adv-x="591" d="M214 490q0 26 19 63t50 75 82 62 106 26q65 0 104-32t39-92q0-98-88-164-37-28-90-60t-74-50-20-42q0-19 18-19 17 0 39 14t32 39q7 17 25 18h9q24 0 24-15 0-27-39-60t-94-34q-33 0-52 19t-20 54q0 57 39 99 16 17 97 68t96 67q40 38 40 85 0 34-24 51t-63 18q-16 0-33-4t-42-16-51-37-48-63q38-10 38-45 0-29-21-50t-49-21q-20 0-34 12t-15 34zm24-429q0 34 27 60t62 27q27 0 44-17t18-44q0-34-27-60T300 0q-27 0-44 17t-18 44z"/><glyph unicode="@" glyph-name="at" horiz-adv-x="885" d="M162 244q0 82 35 172t102 159q64 65 146 98t170 33q128 0 204-67t76-189q0-36-10-86t-30-106-60-94-90-39q-74 0-100 43-65-43-130-43-22 0-43 4t-45 15-40 28-28 46-11 65q0 106 75 196t196 91q51 0 85-23t50-64h11q7 0 11 1h6q27 0 27-14 0-11-61-253-5-22-5-34 0-21 16-21 37 0 66 62t42 127 12 102q0 62-21 106t-56 67-72 33-78 10q-92 0-169-41T318 523t-74-138-27-144q0-104 61-160t172-56q54 0 110 9t91 21 64 21 32 11q10 2 31 2h14q19 0 19-13 0-10-9-15-35-19-144-45T449-11q-79 0-137 22t-89 59-46 81-15 93zm248 15q0-55 21-76t49-21q41 0 76 24t47 46q5 9 32 119t27 117q0 22-24 43t-58 22q-49 0-89-47t-60-110-21-117z"/><glyph unicode="A" glyph-name="A" horiz-adv-x="865" d="M72 20q0 15 10 21t24 7 34 2 33 10q14 8 27 30l358 587q11 18 21 23t31 5q12 0 18-1t10-9 3-10 3-18l60-548q1-12 3-29 3-31 6-36t17-6h43q29 0 29-21 0-27-27-27-3 0-18 1t-43 1-58 1h-94q-29 0-47-2t-21-1q-24 0-24 21 0 27 31 27h8q33 0 63 5l-14 136H326L247 58q20-6 44-8t32-5 8-18q0-27-27-27-3 0-18 1t-41 1-57 1h-45q-21 0-33-1T96 1Q72 1 72 20zm284 217h196l-30 273-166-273z"/><glyph unicode="B" glyph-name="B" horiz-adv-x="816" d="M65 20q0 28 29 28h20q49 0 66 4l146 584q-18 2-55 2h-20q-26 0-26 21 0 27 30 27h363q73 0 116-14 96-31 96-121 0-55-40-105t-111-74q-17-6-53-14 69-6 110-40t42-93q0-75-66-144T529 2q-17-2-52-2H92Q65 0 65 20zm240 29q11-1 35-1h122q63 0 102 29 37 27 57 74t21 95q0 32-10 53t-28 28-28 10-27 2H378L305 49zm82 326h132q50 0 87 20t56 52 26 59 9 51q0 81-86 81H497q-37 0-45-1l-65-262z"/><glyph unicode="C" glyph-name="C" horiz-adv-x="826" d="M161 243q0 63 19 128t59 125 95 108 132 75 165 29q99 0 163-68 20 15 39 30t26 22 16 11 15 5q18 0 18-16 0-5-59-242-4-15-9-19t-20-5h-7q-17 0-22 3t-6 15q0 4 1 18t2 27q0 28-6 55t-22 55-45 44-71 17q-20 0-42-3t-60-15-75-39-69-70q-46-64-74-170t-28-165q0-49 17-84t46-54 58-26 63-8q110 0 194 94 26 30 41 57t17 41 9 22 21 8h6q25 0 25-16 0-5-4-19-34-104-130-169T455-22q-40 0-78 7t-79 25-69 48-49 76-19 109z"/><glyph unicode="D" glyph-name="D" horiz-adv-x="875" d="M65 20q0 28 29 28h20q49 0 66 4l146 584q-19 2-59 2h-17q-25 0-25 21 0 27 29 27h366q75 0 129-21t83-57 40-75 12-86q0-57-15-117t-50-119-84-106-122-76T453 0H93Q65 0 65 20zm246 29q13-1 38-1h78q153 0 231 106 42 57 69 168t28 162q0 154-183 154h-68q-38 0-46-1L311 49z"/><glyph unicode="E" glyph-name="E" horiz-adv-x="756" d="M65 20q0 28 29 28h20q49 0 66 4l144 578q-27 3-54 3h-20q-27 0-27 20 0 27 29 27h523q28 0 28-22l-21-189q-2-17-7-24t-23-7q-27 0-27 24 0 6 2 27t3 38q0 65-34 85t-116 21h-70q-32 0-48-2l-63-254h34q64 0 88 23 14 13 21 31t10 31 10 22 23 10q27 0 27-22 0-4-8-36-20-76-42-166-1-6-3-16t-4-13-3-10-4-9-5-5-8-3-11-1q-27 0-27 19 0 6 4 25t5 32q0 27-19 33t-61 7h-39L317 49q13-1 38-1h65q106 0 159 31 22 13 39 30t34 47 24 44 24 53q6 13 12 17t21 5q25 0 25-19 0-4-97-234-6-14-12-18t-21-4H94Q65 0 65 20z"/><glyph unicode="F" glyph-name="F" horiz-adv-x="727" d="M64 20q0 27 28 28h17q51 0 70 4l144 578q-27 3-54 3h-20q-27 0-27 20 0 28 31 28h5q4 0 5-1h497q28 0 28-22 0-3-4-35t-9-80-9-74q-2-17-7-24t-23-7q-15 0-20 5t-6 19q0 6 2 28t2 40q0 64-33 83t-111 20h-61q-32 0-48-2l-66-267h31q63 0 87 24 14 14 21 32t9 30 9 22 23 9q27 0 27-21 0-7-49-202l-3-15q-2-10-4-14t-3-10-4-8-6-6-7-4-11-1q-27 0-27 19 0 6 4 25t4 33q0 26-18 33t-58 7h-37L316 50q25-2 74-2h25q30 0 30-20 0-28-28-28-2 0-62 1t-97 2h-91q-38 0-55-2T91 0Q64 0 64 20z"/><glyph unicode="G" glyph-name="G" horiz-adv-x="895" d="M161 241q0 81 32 163t89 150 149 111 200 43q101 0 163-68 20 15 39 30t26 22 16 11 15 5q18 0 18-16 0-5-59-242-4-15-9-19t-20-5h-11q-24 0-24 18 0 3 1 17t2 27q0 29-6 56t-22 55-45 44-71 17q-62 0-122-26t-105-78q-59-68-89-181t-31-175q0-52 18-88t49-54 60-25 61-7q56 0 91 26t48 55q3 6 31 118-24 2-79 2h-19q-28 0-28 21 0 27 29 27h19q15 0 54-1t101-1h28q30 0 74 1h8q5 0 8 1 22 0 22-20 0-28-30-28h-13q-23 0-37-3-40-170-51-205-5-17-16-17-9 0-34 15t-40 30h-1q-72-69-195-69-39 0-77 7t-78 25-71 47-49 75-19 109z"/><glyph unicode="H" glyph-name="H" horiz-adv-x="896" d="M64 20q0 28 29 28h17q53 0 70 4l145 584q-18 2-55 2h-19q-27 0-27 21 0 27 28 27 4 0 23-1t51-1 72-1h81q34 0 51 2t20 1q27 0 27-21 0-26-28-27h-18q-48 0-58-2t-14-17l-60-238h286l63 255q-18 2-55 2h-20q-26 0-26 21 0 27 29 27 4 0 23-1t52-1 74-1h82q34 0 49 2t18 1q27 0 27-20 0-27-28-28h-25q-46 0-55-4t-14-25q-1-5-2-8L740 50q19-2 58-2h19q24 0 24-21 0-27-29-27h-1q-97 3-150 3-29 0-73-1t-73-2q-28 0-28 20 0 27 29 28h17q53 0 70 4l70 281H387L316 50q19-2 59-2h19q24 0 24-21 0-27-29-27h-1q-98 3-150 3-59 0-146-3-28 0-28 20z"/><glyph unicode="I" glyph-name="I" horiz-adv-x="472" d="M59 20q0 27 29 28h17q56 0 75 4l145 584q-40 2-61 2h-19q-26 0-26 21 0 27 28 27h9q6 0 9-1 104-2 130-2h81q37 0 58 2t25 1q24 0 24-20 0-28-31-28h-19q-48 0-71-5L317 50q40-2 61-2h19q27 0 27-20 0-4-1-9t-8-12-19-7q-4 0-24 1t-56 1-77 1h-81q-34 0-51-2T86 0Q59 0 59 20z"/><glyph unicode="J" glyph-name="J" horiz-adv-x="610" d="M70 91q0 42 26 69t64 28q27 0 44-16t18-42q0-27-18-53t-54-34q31-28 71-28 97 0 136 171l112 450q-26 2-100 2h-4q-29 0-29 20 0 28 29 28l26-1q26-1 60-1t55-1h105q23 0 37 2t17 1q24 0 24-20 0-27-27-28h-14q-31 0-47-3L486 174q-9-33-12-45t-16-36-33-42q-73-73-197-73-72 0-115 31T70 91z"/><glyph unicode="K" glyph-name="K" horiz-adv-x="895" d="M65 20q0 27 28 28h17q51 0 70 4l146 584q-18 2-55 2h-19q-27 0-27 21 0 27 28 27 4 0 22-1t51-1 71-1h86q35 0 50 2t18 1q27 0 27-20 0-27-29-28h-14q-52 0-62-3t-14-19l-72-285 395 299q-16 5-37 6t-28 6-7 17q0 27 28 27 4 0 20-1t45-1 63-1q17 0 41 1t31 1q18 0 25-4t7-15q0-28-29-28-33-1-57-8t-38-16-35-25Q598 428 585 419q18-38 83-187t73-165q9-19 48-19h19q6 0 11-6t6-14q0-28-27-28-3 0-18 1t-42 1-57 1q-2 0-140-3-28 0-28 19 0 18 11 24t36 7 41 5L477 336l-93-69q-1-1-4-3-9-7-14-22t-23-85q-15-62-26-107 19-2 58-2h19q25 0 25-21 0-27-27-27-4 0-23 1t-55 1-75 1Q225 3 93 0 65 0 65 20z"/><glyph unicode="L" glyph-name="L" horiz-adv-x="698" d="M64 20q0 28 29 28h20q49 0 66 4l146 584q-19 2-58 2h-18q-25 0-25 21 0 27 27 27h8q5 0 7-1 64-2 161-2h74q34 0 54 2t24 1q25 0 25-20 0-28-30-28h-20q-70 0-92-5L316 49q12-1 36-1h37q52 0 92 16t67 48 45 64 34 77q8 22 29 22 28 0 28-20 0-6-83-233-5-14-11-18t-20-4H88Q64 1 64 20z"/><glyph unicode="M" glyph-name="M" horiz-adv-x="1073" d="M64 20q0 24 19 27 3 1 26 1t44 5 27 12q3 4 30 110l91 365 24 96q-18 2-55 2h-19q-27 0-27 21 0 27 29 27h200q17 0 25-5t11-26l73-464q1-6 3-23t5-28l34 51 305 464q12 20 22 25t28 6h191q27 0 27-20 0-18-9-23t-29-5h-12q-45 0-54-2t-14-16l-15-58L916 50q19-2 58-2h19q25 0 25-21 0-27-29-27h-2q-48 3-158 3-28 0-66-1t-56-1q-27 0-27 19 0 27 29 28h17q53 0 70 4l142 570h-1l-18-29L545 25Q528 0 503 0h-8q-3 0-7 3t-5 3-4 4-3 5-2 6-1 6-1 7-1 6l-80 511q-9 55-9 58h-1L244 58q25-10 70-10h1q29 0 29-20 0-4-1-9t-9-12-19-7q-3 0-17 1t-40 1-56 1h-55q-26 0-40-2T89 0Q64 0 64 20z"/><glyph unicode="N" glyph-name="N" horiz-adv-x="896" d="M64 20q0 24 19 27 3 1 26 1t44 5 27 12q5 6 6 13l140 559h-27q-18 0-28 1h-20q-27 0-27 21 0 27 29 27h193q14 0 20-4t14-18l236-457 105 421q-24 10-70 10-29 0-29 20 0 13 6 19t12 8 18 1q6 0 41-1t68-2q25 0 57 1t40 1q21 0 29-3t8-16q0-28-30-28h-2q-53-1-69-7t-20-21q-2-9-7-27t-7-28L733 24q-4-15-10-19t-23-5h-1q-15 0-20 3t-14 18L404 527l-12 24q-10 20-17 32L244 58q25-10 70-10h1q28 0 28-21 0-5-1-10t-9-11-18-6q-4 0-18 1t-40 1-59 1h-53q-24 0-39-1T89 1Q64 1 64 20z"/><glyph unicode="O" glyph-name="O" horiz-adv-x="855" d="M159 226q0 78 29 161t84 155 141 119 192 47q46 0 88-11t82-38 65-79 25-123q0-65-18-131t-56-129-90-111T577 8 421-22q-46 0-88 11t-84 38-65 77-25 122zm137-40q0-48 13-82t35-52 43-24 45-7q84 0 154 72 52 53 88 148t47 162 12 103q0 48-14 82t-37 50-44 22-45 7q-20 0-43-4t-62-28-71-62q-58-72-89-195t-32-192z"/><glyph unicode="P" glyph-name="P" horiz-adv-x="787" d="M64 20q0 27 28 28h17q51 0 70 4l146 584q-18 2-55 2h-20q-26 0-26 21 0 27 31 27h360q38 0 72-7t67-22 51-47 19-74q0-49-25-96t-82-86-137-49q-27-4-81-4H379L316 50q19-2 58-2h19q25 0 25-21 0-5-1-10t-9-11-18-6q-4 0-23 1t-54 1-75 1q-35 0-87-1T91 1h-3Q64 1 64 20zm320 323h100q92 0 129 29t59 112q15 60 15 81 0 26-12 42t-35 22-40 7-43 2h-50q-41 0-50-1l-73-294z"/><glyph unicode="Q" glyph-name="Q" horiz-adv-x="855" d="M159 226q0 63 18 130t57 130 89 112 125 80 156 30q46 0 88-11t83-38 65-78 25-124q0-108-51-219T670 59q-45-33-94-52 11-30 24-43t39-14q63 0 89 40 2 2 6 11t8 12q7 5 14 4t12-10q1-1 1-6 0-16-11-46t-31-65-54-59-74-25q-90 0-90 116 0 13 2 36t2 30q-54-10-92-10-123 0-192 66t-70 182zm130-40q0-102 62-144v4q0 2-1 4 0 44 35 74t77 31q69 0 97-91 45 30 81 91t56 129 29 123 10 91q0 49-13 84t-37 53-45 24-46 8q-43 0-96-25t-101-93q-49-71-78-185t-30-178zm98-134q0-33 43-33t86 19q0 24-2 39t-16 28-36 14q-32 0-53-22t-22-45z"/><glyph unicode="R" glyph-name="R" horiz-adv-x="859" d="M65 20q0 28 28 28h18q52 0 69 4l146 584q-18 2-55 2h-20q-26 0-26 20 0 28 30 28h310q222 0 255-116 5-18 5-35 0-55-39-103t-111-76q-17-7-53-17 80-33 80-108 0-16-10-77t-10-84q0-55 38-55 46 0 71 80 5 13 10 17t20 5h3q24 0 24-19 0-27-36-73t-96-47q-33 0-61 5T599 1t-44 36-16 57q0 21 15 77t15 75q0 33-19 56t-65 23H380L311 50q19-2 59-2h18q25 0 25-21 0-27-32-27-5 0-23 1t-50 1-72 1h-79q-33 0-48-2T91 0Q65 0 65 20zm324 341h86q57 0 95 10t59 33 29 42 18 55q10 40 10 61 0 27-13 43t-39 23-43 8-48 2h-39q-38 0-46-1l-69-276z"/><glyph unicode="S" glyph-name="S" horiz-adv-x="650" d="M87-6q0 8 52 210 5 17 10 20t24 4q24 0 24-16 0-4-3-23t-4-32q0-49 27-80t62-41 73-10q73 0 114 53t42 109q0 39-21 60t-56 30-70 15-73 26-57 53q-23 40-23 85 0 40 17 83t48 81 83 62 113 25q92 0 142-56 6 6 14 13t12 11 10 9 8 7 7 6 6 4 6 3 5 2 5 1q18 0 18-16 0-7-52-212-3-11-7-15t-7-6-13-1h-2q-17 0-22 3t-6 14q0 3 1 19t2 31q0 76-37 108t-93 32q-71 0-110-47t-40-98q0-35 20-55t52-28 68-14 71-24 57-46q31-43 31-102 0-42-17-88t-48-88-84-69-118-28q-104 0-169 56-56-51-65-54-4-2-9-2-18 0-18 16z"/><glyph unicode="T" glyph-name="T" horiz-adv-x="796" d="M181 20q0 28 30 28h32q74 0 87 3t17 23q1 5 2 8l123 493q8 34 13 51-12 1-38 1h-10q-85 0-122-31t-74-136q-5-16-11-21t-22-6q-26 0-26 19 0 6 67 201 5 14 11 18t21 4h560q28 0 28-22 0-7-29-190-2-12-3-17t-8-9-19-4q-27 0-27 21 0 2 4 35t5 58q0 27-8 44t-27 24-34 10-44 2h-9q-32 0-48-2L479 51q1 0 84-3h33q29 0 29-21 0-27-29-27-5 0-29 1t-67 1-92 1H298q-36 0-64-2l-27-1q-26 0-26 20z"/><glyph unicode="U" glyph-name="U" horiz-adv-x="881" d="M216 170q0 28 14 86l67 269 28 111q-19 2-59 2h-17q-26 0-26 21 0 5 1 10t9 11 19 6h8q5 0 9-1 70-2 117-2h88q35 0 55 1t24 1q24 0 24-19 0-28-31-28h-51q-7 0-12-1t-9-1-6-2-4-3-3-4-1-4-2-6-2-8l-78-313q-2-10-10-41t-12-47-8-40-4-39q0-56 34-79t83-24q44 0 85 14t85 55 66 106q9 25 15 51l94 376q-25 10-71 10-29 0-29 20 0 28 28 28 3 0 18-1t43-1 58-1q38 0 70 1t39 1q23 0 23-19 0-28-29-28-20 0-35-1t-25-4-15-4-10-7-5-7-2-9-3-9l-87-350Q741 115 657 47q-83-69-204-69-103 0-170 48t-67 144z"/><glyph unicode="V" glyph-name="V" horiz-adv-x="865" d="M218 658q0 28 29 28 3 0 15-1t45-1 81-1h66q30 0 47 2t21 1q24 0 24-21 0-27-32-27h-6q-32 0-63-5l66-465 295 460q-15 5-32 7t-28 4-16 5-7 15q0 27 27 27 3 0 17-1t40-1 56-1h44q20 0 31 1t15 1q23 0 23-19t-13-24-38-6-42-8q-17-8-32-33L479 15q-17-28-46-28h-9q-8 0-14 2t-9 3-5 8-3 8-2 11-2 11l-76 543-9 63q-32 2-49 2h-9q-28 0-28 20z"/><glyph unicode="W" glyph-name="W" horiz-adv-x="1160" d="M217 658q0 28 29 28 3 0 14-1t42-1 78-1h65q30 0 48 2t21 1q24 0 24-21 0-27-31-27h-8q-58 0-63-5l41-444h1l20 35 175 295q8 13 8 24 0 3-8 93-15 2-44 2h-7q-28 0-28 21 0 27 29 27 3 0 14-1t42-1 77-1 87 1 48 2q24 0 24-20t-14-25q-4-2-16-2t-33-1-40-5l42-444 261 438q-26 8-53 10t-35 5-8 19q0 25 27 25 3 0 19-1t43-1 61-1h39q18 0 28 1t13 1q23 0 23-19 0-18-12-23t-35-6-37-8q-16-7-34-35L811 16Q800-2 791-7t-28-6q-19 0-24 7t-8 27l-36 380q-1 8-2 23t-2 24L434 15Q423-2 414-7t-26-6h-2q-11 0-17 2T359-1t-3 11-2 17l-52 552-6 57q-15 2-44 2h-7q-28 0-28 20z"/><glyph unicode="X" glyph-name="X" horiz-adv-x="865" d="M66 20q0 28 29 28h3q63 2 84 11t51 41l192 207 27 30-112 278q-3 7-4 10t-5 6-5 4-8 2-12 1-18-1-24 1q-24 0-24 22 0 26 27 26 4 0 20-1t46-1 65-1h73q33 0 53 2t23 1q25 0 25-20 0-10-4-16t-13-9-18-4-25-2-28-3l72-182 164 177q-20 7-44 9t-32 6-8 17q0 27 29 27 4 0 20-1t44-1 62-1h53q24 0 39 1t17 1q24 0 24-19 0-28-29-28h-2q-42-1-68-7t-36-14-26-24Q590 406 585 397q-2-3-2-7t3-12L711 66q4-9 7-11t15-5 40-2h7q30 0 30-21 0-5-1-10t-9-11-18-6q-1 0-42 1t-67 2h-39q-20 0-61-1t-70-2q-26 0-26 21 0 16 9 21t38 8 42 4l-91 226L270 59q20-7 44-9t32-6 9-17q0-27-29-27-4 0-20 1t-44 1-62 1q-31 0-64-1T97 1Q66 1 66 20z"/><glyph unicode="Y" glyph-name="Y" horiz-adv-x="865" d="M212 659q0 27 28 27 4 0 38-1t97-2h27q40 0 78 1t41 2q28 0 28-20 0-27-27-28h-14q-16 0-50-4l102-282 240 278q-16 5-37 6t-29 6-8 19q0 25 28 25 3 0 30-1t78-2h16q29 0 53 1t29 1q22 0 22-19 0-28-30-28-49-1-69-10t-44-36L578 289q-11-13-16-30-3-10-53-209 19-2 59-2h19q24 0 24-21 0-5-1-10t-9-11-18-6h-7q-5 0-9 1-100 2-125 2h-75q-35 0-56-2t-24-1q-24 0-24 21 0 26 28 27h55q9 0 13 1t10 2 6 2 4 4 2 5 2 7 2 8q48 188 48 198 0 3-4 15L312 613q-1 2-2 5-6 15-13 17t-49 3h-7q-29 0-29 21z"/><glyph unicode="Z" glyph-name="Z" horiz-adv-x="709" d="M94 16q0 20 21 43l507 579h-92q-45 0-76-5t-67-21-62-52-46-89q-6-17-11-22t-20-5h-4q-23 0-23 20 0 5 59 199 5 13 10 18t18 5h458q19 0 19-16 0-17-15-34L259 52h101q111 0 170 40t99 161q7 21 12 27t22 6q27 0 27-20 0-10-5-22-17-52-39-126Q615 16 605 6q-5-6-21-6H118Q94 0 94 16z"/><glyph unicode="[" glyph-name="bracketleft" horiz-adv-x="356" d="M69-230q0 7 10 47l226 902q3 10 4 13t4 9 10 7 15 2h117q27 0 27-18t-24-19h-53L174-213h44q23-1 23-18 0-19-26-19H96q-27 0-27 20z"/><glyph unicode="\" glyph-name="backslash" horiz-adv-x="591" d="M273 728q0 21 17 21 15 0 20-30l130-930q2-10 2-17 0-21-17-21-16 0-21 30L275 711q-2 10-2 17z"/><glyph unicode="]" glyph-name="bracketright" horiz-adv-x="356" d="M-2-232q0 19 25 19h52l232 926h-44q-24 1-24 18 0 19 27 19h119q26 0 26-20 0-7-10-47L176-219q-3-11-4-14t-4-8-9-7-16-2H25q-27 0-27 18z"/><glyph unicode="^" glyph-name="asciicircum" horiz-adv-x="709" d="M263 489q0 3 1 6t3 5 4 5 6 4 6 4 6 3 7 4q61 33 133 72 71 39 78 39 8 0 46-28 12-9 49-37 40-30 67-50 20-15 20-26 0-9-11-21t-20-13q-10 0-83 46t-80 46q-6 0-103-46t-105-46q-12 0-18 12t-6 21z"/><glyph unicode="_" glyph-name="underscore" horiz-adv-x="885" d="M50-278q0 6 2 12t11 12 26 7h568q38 0 38-31 0-30-39-30H91q-41 0-41 30z"/><glyph unicode="`" glyph-name="grave" horiz-adv-x="591" d="M294 611q0 24 19 44t44 20q23 0 48-29 58-65 68-77t10-20q0-9-11-21t-21-13h-1q-2 0-110 47-15 7-23 11t-15 14-8 24z"/><glyph unicode="a" glyph-name="a" horiz-adv-x="591" d="M104 150q0 73 33 142t96 117 141 47q57 0 98-40 22 19 45 19 18 0 31-11t14-31q0-12-38-162T485 57q0-31 19-31 33 0 61 112 3 14 8 19t20 5h4q26 0 26-17-1-6-3-16t-12-38-23-47-36-38-51-17q-67 0-102 52-62-52-132-52-68 0-114 40t-46 121zm108-53q0-38 17-54t40-17q37 0 70 25t43 46q2 4 33 127t31 130q0 18-18 41t-54 24q-54 0-92-62-23-40-46-130T212 97z"/><glyph unicode="b" glyph-name="b" horiz-adv-x="532" d="M111 147q0 44 15 100l69 273q22 87 29 116-9 1-21 1t-20 0-14 3-11 6-3 13q0 20 16 24t80 8q35 2 57 3h8q23 0 23-19 0-10-3-19l-57-229q52 29 99 29 21 0 41-4t42-15 39-29 27-47 11-66q0-70-31-138T412 39 266-11q-70 0-112 41t-43 117zm96-44q0-42 18-59t43-18q27 0 52 18t39 42q25 40 48 131t23 131q0 38-17 54t-40 17q-37 0-70-25t-43-46q-3-8-14-51t-25-106-14-88z"/><glyph unicode="c" glyph-name="c" horiz-adv-x="532" d="M106 159q0 113 83 205t214 92q56 0 91-26t36-70q0-33-21-55t-51-23q-21 0-35 12t-14 34q0 19 12 39t40 29q-23 23-58 23-55 0-99-44-31-31-53-96t-28-108-7-58q0-43 22-65t64-23q104 0 176 71 20 20 27 20 9 0 19-11t10-19q0-6-8-17t-28-25-45-26-66-20-88-9q-90 0-141 44t-52 126z"/><glyph unicode="d" glyph-name="d" horiz-adv-x="591" d="M104 150q0 73 33 142t96 117 141 47q48 0 90-33l53 213q-9 1-21 1t-19 0-14 3-10 6-3 13q0 20 15 24t69 7q38 2 62 3h6q4 0 7 1 24 0 24-20 0-6-2-14L497 123q-12-44-12-68 0-29 19-29 31 0 61 112 3 16 9 20t17 4h6q26 0 26-15 0-3-3-18t-13-39-22-47-36-38-50-16q-68 0-103 52-64-52-132-52-26 0-51 7t-51 24-42 50-16 80zm108-53q0-38 17-54t40-17q37 0 70 25t43 46q2 5 33 128t31 129q0 20-20 42t-52 23q-54 0-92-62-23-40-46-130T212 97z"/><glyph unicode="e" glyph-name="e" horiz-adv-x="532" d="M108 164q0 119 83 205t211 87q58 0 94-27t36-71q0-57-51-95-61-45-226-45h-22q-16-70-16-101 0-45 22-68t63-24q99 0 172 68l8 8 7 7q3 3 5 4t5 3 5 1q9 0 19-11t11-19q0-6-8-17t-27-25-45-26-67-20-88-9q-89 0-140 46t-51 129zm135 90q223 0 223 105 0 27-18 43t-46 17q-12 0-25-2t-34-13-38-26-35-49-27-75z"/><glyph unicode="f" glyph-name="f" horiz-adv-x="400" d="M-19-123q0 31 21 52t51 22q21 0 35-12t14-34q0-45-44-65 22-9 31-9 31 0 47 53t52 252l48 261h-85l-1-1h-3q-28 0-28 21 0 27 30 27h95l1 1q23 153 57 200 21 29 54 45t69 16q48 0 80-23t32-60q0-34-22-54t-49-20q-21 0-35 12t-14 34q0 43 43 64-18 9-31 9-25 0-38-26-4-8-14-57t-18-94-8-47h108q28 0 28-20 0-28-30-28h-1l-1 1H342Q288 84 265-3q-16-59-36-99t-58-72q-40-32-82-32-41 0-74 21t-34 62z"/><glyph unicode="g" glyph-name="g" horiz-adv-x="532" d="M58-131q0 30 21 51t51 22q22 0 35-13t13-33q0-32-29-58 37-7 63-7 49 0 80 28t45 60q4 10 29 109-49-28-97-28-73 0-118 41t-45 118q0 112 76 204t191 93q60 0 99-39 22 18 45 18 19 0 32-12t13-30q0-9-4-25L454-46q-4-18-5-23t-10-25-18-31-29-26-46-28q-62-27-133-27-155 0-155 75zm156 238q0-38 18-54t40-16q34 0 67 23t45 45q5 9 34 128t29 124q0 19-20 40t-53 22q-54 0-92-61-23-37-45-124t-23-127z"/><glyph unicode="h" glyph-name="h" horiz-adv-x="591" d="M74 32q0 9 7 35l126 504q3 11 8 32t8 33q-9 1-21 1t-20 1-14 2-10 6-3 13q0 19 15 24t72 7q35 2 58 3h7q5 0 8 1 24 0 24-20 0-4-2-12t-2-9l-62-249q61 52 135 52 57 0 96-26t40-88q0-52-41-165T462 45q0-19 15-19 12 0 24 7t32 34 32 73q3 11 8 15t9 6 16 1q24 0 24-16t-15-51-53-70-84-36q-44 0-74 25t-30 65q0 17 38 123t39 162-45 55q-77 0-134-85-12-19-18-42T186 57q-17-68-66-68-19 0-32 12T74 32z"/><glyph unicode="i" glyph-name="i" horiz-adv-x="355" d="M77 299q0 15 15 50t54 71 84 36q43 0 73-25t31-66q0-24-53-159T227 45q0-19 16-19 20 0 38 19t28 42 18 45 9 23q6 7 21 7h6q24 0 24-16 0-7-5-24t-19-40-30-43-43-35-55-15q-41 0-72 24t-32 66q0 24 53 159t54 161q0 19-17 19-25 0-51-35-15-21-23-42t-11-32-8-19-20-8h-5q-26 0-26 17zm174 326q0 27 21 47t49 21q21 0 35-14t14-34q0-25-21-46t-49-22q-21 0-35 13t-14 35z"/><glyph unicode="j" glyph-name="j" horiz-adv-x="355" d="M-30-132q0 30 21 52t50 22q21 0 35-12t15-34q0-38-40-63 3-1 12-1 78 0 114 144l86 345q12 48 12 68 0 29-22 29-24 0-55-25t-59-86q-7-17-12-21t-19-4h-9q-20 0-20 15 0 10 13 34t34 53 58 49 76 22q49 0 82-27t34-72q0-10-2-21t-5-22-5-16L282-34q-12-45-24-65-30-50-85-78T64-206q-41 0-67 20t-27 54zm323 757q0 26 21 47t49 21q21 0 35-13t14-35q0-26-21-47t-49-21q-22 0-35 13t-14 35z"/><glyph unicode="k" glyph-name="k" horiz-adv-x="532" d="M74 32q0 9 4 25l131 523q11 42 14 56-22 2-33 2h-4q-31 0-31 21 0 19 16 24t71 7q38 2 63 3h4q3 0 6 1 24 0 24-20l-3-15-96-385q28 19 63 53t59 61 59 46 70 21q38 0 54-24t16-55q0-45-23-66t-50-21q-21 0-35 12t-14 34q0 23 17 45t50 26q-8 13-19 13-35 0-72-29t-80-74-69-65v-1q158-17 158-106 0-12-6-39t-6-47q0-32 22-32 24 0 41 29t26 63 12 37q6 7 28 7 23 0 23-16 0-7-8-30t-23-52-43-52-62-23q-45 0-80 27t-36 76q0 8 2 24t3 25q0 54-92 73-41-179-55-199-21-26-50-26-19 0-32 12T74 32z"/><glyph unicode="l" glyph-name="l" horiz-adv-x="297" d="M90 88q0 18 8 45l111 443q3 10 7 30t7 30q-9 1-22 1t-19 0-13 3-10 6-3 13q0 17 11 24 4 3 41 5t72 4l35 2q24 0 24-20 0-5-2-13L203 123q-12-48-12-67 0-30 18-30 19 0 33 28t23 63 11 37q6 8 23 8 29 0 29-16 0-7-6-29t-20-52-39-53-58-23q-45 0-80 27T90 88z"/><glyph unicode="m" glyph-name="m" horiz-adv-x="944" d="M77 299q0 3 3 17t13 39 22 46 37 38 50 16q31 0 64-16t46-54q69 71 154 71 111 0 133-78 74 78 162 78 57 0 97-26t40-88q0-50-41-164T816 44q0-18 16-18 21 0 39 19t27 42 18 45 9 23q5 7 21 7h10q20 0 20-17 0-9-9-32t-27-52-49-50-67-22q-43 0-73 25t-31 65q0 16 38 124t38 161q0 55-45 55-72 0-127-75-21-29-28-58-64-254-66-259-17-38-58-38-19 0-31 11t-13 31q0 14 37 157t37 175q0 56-44 56-80 0-138-89-10-15-19-49-61-244-65-253-16-39-58-39-19 0-32 11t-13 31q0 8 7 36l63 253q0 2 4 15t6 27 3 25q0 31-20 31-18 0-32-28t-24-63-11-36q-6-9-20-9h-7q-25 0-25 17z"/><glyph unicode="n" glyph-name="n" horiz-adv-x="650" d="M77 299q0 3 3 17t13 39 22 46 37 38 50 16q31 0 64-16t46-54q69 71 153 71 64 0 101-27t38-87q0-50-41-164T521 45q0-19 16-19 24 0 47 28 21 26 33 63t17 41q8 5 23 5 25 0 25-17 0-15-15-50t-54-71-84-36q-41 0-72 24t-32 66q0 18 38 123t39 161q0 56-46 56-75 0-132-83-15-22-23-55-50-197-57-226t-15-39q-19-27-51-27-18 0-31 11t-14 31q0 7 5 29l63 252q14 58 14 76 0 30-19 30t-33-28-23-63-11-37q-6-8-27-8-25 0-25 17z"/><glyph unicode="o" glyph-name="o" horiz-adv-x="591" d="M106 159q0 113 83 205t217 92q87 0 138-44t51-126q0-49-19-100t-54-95-95-73-131-29q-87 0-138 44t-52 126zm110-46q0-47 24-67t58-21q22 0 41 6t35 18 27 25 22 31 17 33 12 32 8 28 6 22l2 10q17 68 17 102 0 47-24 67t-58 20q-126 0-170-204-17-68-17-102z"/><glyph unicode="p" glyph-name="p" horiz-adv-x="591" d="M24-174q0 27 30 27h3q9 0 29 2 2 9 7 27t7 28l104 416q11 45 11 62 0 30-19 30-18 0-32-28t-24-62-10-36q-6-10-24-10-29 0-29 16 0 3 3 18t13 39 22 46 37 38 50 16q68 0 101-52 67 53 132 53 27 0 52-7t52-25 41-50 16-79q0-50-18-103t-52-98-85-75-115-30q-52 0-91 32l-41-166q24-2 37-2 31 0 31-19 0-28-27-28h-16q-13 0-37 1t-51 1H83q-18 0-26-1t-9-1q-24 0-24 20zM254 89q0-20 20-41t52-22q54 0 91 60 25 42 48 133t23 129q0 38-17 54t-40 17q-35 0-68-24t-45-47q-2-5-33-129T254 89z"/><glyph unicode="q" glyph-name="q" horiz-adv-x="532" d="M104 150q0 49 18 102t50 99 85 75 116 30q56 0 98-39 19 17 46 27t38 10q19 0 19-18 0-5-36-148L430-145q24-2 37-2h4q27 0 27-23 0-24-28-24-3 0-30 1t-80 1h-18q-18 0-42-1t-31-1q-28 0-28 20 0 21 17 26 4 1 24 1 22 0 41 4l40 160q-51-28-99-28-27 0-52 7t-51 24-41 50-16 80zm108-53q0-38 17-54t40-17q37 0 69 24t43 45q5 10 35 132t30 127q0 20-20 42t-52 23q-54 0-92-62-23-40-46-130T212 97z"/><glyph unicode="r" glyph-name="r" horiz-adv-x="502" d="M77 299q1 6 3 16t12 38 23 47 36 38 51 17q70 0 104-55 59 56 129 56 49 0 87-23t38-68q0-31-21-53t-51-23q-23 0-36 13t-13 34q0 44 48 65-27 18-54 18-25 0-47-11t-37-28-23-29-12-20q-4-8-8-30L243 51q-14-62-65-62-19 0-32 11t-13 31q0 9 4 25l67 265q11 49 11 66 0 31-19 31-18 0-32-28t-23-63-11-36q-6-9-21-9h-7q-25 0-25 17z"/><glyph unicode="s" glyph-name="s" horiz-adv-x="487" d="M84 90q0 34 21 56t51 23q22 0 35-13t14-33q0-18-12-38t-38-29q34-31 93-31 76 0 107 33t32 65q0 22-17 36t-37 20-49 11-42 10q-29 10-52 35t-24 64q0 18 7 41t26 51 57 46 95 19q61 0 97-25t37-66q0-33-20-51t-42-18q-19 0-31 12t-12 29q0 37 39 56-29 26-71 26-58 0-81-27t-24-52q0-17 10-28 11-12 29-17t45-10 47-11q33-11 61-38t28-72q0-23-9-49t-32-57-68-49-109-20q-74 0-117 27T84 90z"/><glyph unicode="t" glyph-name="t" horiz-adv-x="385" d="M91 417q0 26 28 27h87q8 35 34 141 16 61 66 61 18 0 31-12t13-30q0-8-6-36t-17-67-14-57h75q27 0 27-19 0-27-28-28h-87l-67-271q-12-45-12-71 0-29 21-29 24 0 56 25t59 87l7 14q2 4 8 7t13 3h6q26 0 26-15 0-9-13-33t-34-53-58-50-76-22q-50 0-83 27t-33 72q0 12 12 62l61 247h-76q-26 0-26 20z"/><glyph unicode="u" glyph-name="u" horiz-adv-x="620" d="M77 299q0 10 10 33t27 52 48 50 68 22q40 0 72-25t32-66q0-19-36-116T261 93q0-67 53-67 43 0 78 39 7 8 11 13t7 11 3 8 2 9 3 12l66 267q16 59 65 59 19 0 31-11t13-31q0-13-39-166T514 57q0-31 19-31 33 0 62 113 3 11 7 16t10 6 16 1q24 0 24-16 0-4-3-19t-13-39-23-45-36-38-49-16q-68 0-102 51-56-51-120-51-61 0-103 28t-43 99q0 56 39 160t39 123-16 19q-25 0-48-29-20-26-31-62t-17-40q-8-5-23-5-26 0-26 17z"/><glyph unicode="v" glyph-name="v" horiz-adv-x="532" d="M78 299q0 10 9 34t27 52 49 49 67 21q42 0 73-24t31-66q0-18-35-114T263 99q0-73 63-73 37 0 69 36t49 84 26 84 10 46q0 31-30 59t-31 49q0 26 22 49t50 23q24 0 43-21t20-66q0-23-7-65t-26-97-44-103-67-81-89-34q-31 0-57 6t-51 19-38 40-14 65q0 53 38 157t39 123-16 19q-20 0-44-25t-43-88q-4-15-9-19t-18-4h-8q-22 0-22 17z"/><glyph unicode="w" glyph-name="w" horiz-adv-x="768" d="M77 299q0 11 10 34t27 52 49 49 66 21q44 0 74-25t31-65q0-19-35-113t-36-148q0-43 21-60t50-18q31 0 54 28t23 51v16q0 31 30 154t38 136q19 33 55 33 18 0 31-11t14-31q0-11-33-139t-33-163q0-74 64-74 26 0 47 16t37 51 26 68 24 84q5 17 5 31 0 31-31 59t-31 49q0 25 21 48t51 24q24 0 43-21t20-66q0-48-27-148T697 65q-50-76-127-76-94 0-136 51h-1q-44-51-106-51-70 0-118 30t-48 103q0 50 38 154t39 124-16 19q-20 0-43-25-22-25-36-64t-15-41q-6-7-22-7-29 0-29 17z"/><glyph unicode="x" glyph-name="x" horiz-adv-x="560" d="M66 78q0 36 22 56t50 21q20 0 34-12t15-34q0-48-51-67 19-16 41-16 37 0 60 46 14 25 44 150t31 148q0 26-15 37t-35 12q-37 0-72-31t-53-78q-6-18-10-22t-19-6h-5q-26 0-26 16 0 12 12 36t34 53 61 48 84 21q82 0 123-54 52 54 103 54 43 0 76-24t33-66q0-36-22-56t-50-21q-21 0-35 13t-14 34q0 48 51 67-19 16-41 16-14 0-26-6t-22-22-17-30-15-44-14-49-14-60-16-63q-12-48-12-70 0-26 15-37t36-12q37 0 72 31t53 77q1 2 2 6t2 5 2 5 1 4 2 3 4 2 4 2 4 1 7 0h6q26 0 26-15 0-37-55-97T402-11q-87 0-125 54h-1q-44-54-102-54-42 0-75 23T66 78z"/><glyph unicode="y" glyph-name="y" horiz-adv-x="562" d="M77 299q0 15 15 50t53 71 85 36q43 0 73-26t31-65q0-16-36-116T261 96q0-71 52-71 25 0 52 16t42 42q2 3 10 33l65 260q17 68 67 68 19 0 31-11t13-31q0-12-3-24L500 20q-19-75-56-121-30-37-74-64-68-41-138-41-55 0-90 25t-35 66q0 37 23 56t48 20q21 0 35-12t14-34q0-47-47-66v-1q26-17 53-17 49 0 93 49t65 133q-41-24-85-24-38 0-68 9t-54 40-24 77q0 53 39 159t39 126q0 18-17 18-27 0-47-30t-33-65-14-36q-7-5-24-5-26 0-26 17z"/><glyph unicode="z" glyph-name="z" horiz-adv-x="490" d="M63 3q0 9 13 27 36 54 84 100t120 107 125 111h-77q-30 0-42 1t-15 1q-28 0-44-3t-20-8-7-9-8-8-22-4q-25 0-25 17 0 30 42 75t99 45q29 0 55-17t47-35 39-17q11 0 21 11t17 24 17 24 23 11h9q24 0 24-15 0-7-14-27-38-57-97-112T299 190 195 96h81q57 0 70-1h6q29 0 51 6t34 15 20 17 11 17l4 9q6 7 29 7 22 0 22-17 0-38-54-99T343-11q-30 0-55 17t-48 35-44 18q-37 0-74-54-11-16-28-16h-7Q63-11 63 3z"/><glyph unicode="{" glyph-name="braceleft" horiz-adv-x="591" d="M162 248q0 11 6 15t23 6 20 3q39 9 71 33t48 58q5 11 36 137t39 144q25 52 91 79t152 27q23 0 23-16 0-12-7-16t-26-6-34-6q-69-21-95-73-8-16-38-141t-37-141q-30-72-140-102 88-33 88-100 0-20-33-145t-33-143q0-32 26-51t66-23q23-2 23-17 0-20-26-20-31 0-61 4t-63 16-51 35-20 56q0 18 33 146t33 145q0 35-25 55t-60 24h-4q-3 0-5 1t-5 0-5 1-4 2-3 3-2 4-1 6z"/><glyph unicode="|" glyph-name="bar" horiz-adv-x="355" d="M93-219q0 11 6 33l223 890q0 1 1 6t2 6 1 6 3 6 2 6 3 5 4 3 5 4 6 2 8 1q12 0 20-8t9-22q0-10-4-26L154-216q-7-33-32-33-12 0-20 8t-9 22z"/><glyph unicode="}" glyph-name="braceright" horiz-adv-x="591" d="M42-234q0 12 7 16t27 6 34 6q15 5 28 11t23 13 18 14 13 16 10 14 7 15 4 12 3 9l1 6q59 234 63 243 17 42 52 64t89 40q-35 11-61 35t-27 64q0 20 32 146t33 143q0 35-28 53t-63 21q-24 2-24 17 0 20 26 20 32 0 62-4t63-16 51-34 20-57q0-19-33-146t-33-145q0-35 25-55t59-24h5q4 0 7-1t6-1 5-2 3-5 2-8q0-8-5-13t-10-6-17-2-16-3q-39-9-71-33t-48-58q-5-11-62-241-4-17-8-27t-17-33-39-39-66-29q-59-18-125-18-25 0-25 16z"/><glyph unicode="~" glyph-name="asciitilde" horiz-adv-x="709" d="M267 593q0 9 29 35 73 66 136 66 40 0 96-30t86-31q28 0 55 15t45 30 25 15 12-5 5-12q0-10-13-21-83-80-151-80-42 0-97 30t-85 31q-28 0-55-15t-45-30-26-15-12 5-5 12z"/></font>
</defs>
</svg>
