<svg xmlns="http://www.w3.org/2000/svg" width="1024" height="256"><path d="M0 0h1024v256H0z" fill="#fff"/><path d="M556.984 176.864v4.856H529.09v6.394h27.894v4.855l6.954-4.037 6.973-4.016-6.972-4.016-6.954-4.036z" fill="#e91e6f"/><path d="M533.1 72.377c0 14.02-11.366 25.387-25.387 25.387-14.02 0-25.387-11.366-25.387-25.387 0-14.02 11.366-25.387 25.387-25.387 14.02 0 25.387 11.366 25.387 25.387z" fill="#fff"/><path d="M527.09 72.377c0 10.7-8.675 19.377-19.377 19.377-10.7 0-19.377-8.676-19.377-19.377 0-10.7 8.676-19.377 19.377-19.377 10.702 0 19.377 8.676 19.377 19.377z" fill="#303f9f"/><path style="text-indent:0;text-align:start;line-height:normal;text-transform:none;block-progression:tb;-inkscape-font-specification:Sans" d="M480.12 78.83l1.906 4.688c-19.87 7.106-32.937 23.39-32.937 41.5 0 24.95 24.528 45.157 54.624 45.157v-5.938c-26.324 0-47.532-17.54-47.532-39.22 0-15.56 11.1-29.564 28.157-35.842l2.092 5.093 5.094-6.593 5.094-6.563-8.25-1.125-8.25-1.156z" color="#000" fill="#e91e6f" overflow="visible" font-family="Sans"/><path d="M533.1 183.623c0 14.02-11.366 25.387-25.387 25.387-14.02 0-25.387-11.366-25.387-25.387 0-14.02 11.366-25.387 25.387-25.387 14.02 0 25.387 11.366 25.387 25.387z" fill="#fff"/><path d="M527.09 183.623c0 10.7-8.675 19.377-19.377 19.377-10.7 0-19.376-8.676-19.376-19.377 0-10.7 8.675-19.377 19.376-19.377 10.702 0 19.377 8.676 19.377 19.377z" fill="#303f9f"/><path style="text-indent:0;text-align:start;line-height:normal;text-transform:none;block-progression:tb;-inkscape-font-specification:Sans" d="M529.93 84.677c-1.018 1.838-2.26 3.54-3.687 5.062 14.552 6.7 24.375 19.508 24.375 34.25 0 15.56-11.1 29.565-28.156 35.843l-2.094-5.094-5.094 6.593-5.093 6.562 8.25 1.125 8.25 1.157-1.906-4.688c19.872-7.107 32.938-23.39 32.938-41.5 0-16.865-11.224-31.56-27.78-39.313z" color="#000" fill="#e91e6f" overflow="visible" font-family="Sans"/><path d="M480.984 176.864v4.856H453.09v6.394h27.894v4.855l6.954-4.037 6.973-4.016-6.972-4.016-6.954-4.036z" fill="#e91e6f"/><g style="line-height:125%;-inkscape-font-specification:Droid Sans" font-size="32" letter-spacing="0" word-spacing="0" fill="#999" font-family="Droid Sans"><path style="-inkscape-font-specification:Droid Sans Bold" d="M502.396 127.446v-1.157c0-.532.052-1.01.156-1.438.115-.438.28-.85.5-1.234.23-.396.52-.776.875-1.14.354-.376.78-.76 1.28-1.157.44-.343.81-.65 1.11-.92.303-.272.548-.538.735-.798.188-.27.323-.552.406-.844.084-.29.125-.63.125-1.015 0-.594-.203-1.084-.61-1.47-.395-.385-1.004-.577-1.827-.577-.72 0-1.495.15-2.328.453-.823.3-1.677.67-2.563 1.108l-1.593-3.453c.448-.26.932-.505 1.453-.734.53-.24 1.078-.447 1.64-.624.573-.188 1.15-.334 1.735-.438.583-.104 1.156-.156 1.718-.156 1.063 0 2.02.13 2.875.39.855.25 1.58.62 2.172 1.11.594.49 1.047 1.083 1.36 1.78.323.7.484 1.496.484 2.392 0 .656-.074 1.245-.22 1.765-.145.51-.364.99-.656 1.437-.28.437-.64.865-1.078 1.28-.427.407-.927.84-1.5 1.298-.438.344-.797.646-1.078.906-.27.25-.485.49-.64.72-.157.23-.266.47-.33.72-.05.238-.077.525-.077.858v.938h-4.124m-.516 5.343c0-.49.068-.902.204-1.235.145-.344.343-.62.593-.828.25-.208.542-.36.875-.453.344-.094.71-.14 1.094-.14.365 0 .708.046 1.03.14.335.094.626.245.876.453.25.208.448.484.594.828.146.333.22.745.22 1.234 0 .468-.074.87-.22 1.203-.146.333-.344.61-.594.828-.25.22-.54.376-.875.47-.323.104-.666.156-1.03.156-.386 0-.75-.052-1.095-.157-.333-.094-.625-.25-.875-.47-.25-.218-.448-.494-.593-.827-.136-.334-.204-.735-.204-1.204" font-weight="bold"/></g></svg>