<svg xmlns="http://www.w3.org/2000/svg" width="1024" height="256"><path fill="#fff" d="M0 0h1024v256H0z"/><path d="M898.993 120.057v4.8h-27.565v6.317h27.565v4.798l6.87-3.988 6.892-3.97-6.89-3.968-6.872-3.99z" fill="#e91e6f"/><path d="M873.813 128c0 13.856-11.233 25.088-25.088 25.088-13.856 0-25.088-11.232-25.088-25.088 0-13.856 11.232-25.088 25.088-25.088 13.855 0 25.088 11.232 25.088 25.088z" fill="#fff"/><path d="M867.873 128c0 10.575-8.573 19.148-19.148 19.148s-19.148-8.573-19.148-19.148 8.573-19.148 19.148-19.148 19.148 8.573 19.148 19.148z" fill="#303f9f"/><path d="M756.43 69.588l-.868 5.45c35.073 3.213 64.258 15.39 78.073 31.632l-4.028 3.12 7.345 3.02 7.365 3.022-1.066-7.88-1.065-7.877-3.377 2.606c-15.645-17.573-46.334-29.79-82.377-33.092z" style="text-indent:0;text-align:start;line-height:normal;text-transform:none;block-progression:tb;-inkscape-font-specification:Sans" color="#000" fill="#b3b3b3" overflow="visible" font-family="Sans"/><path d="M844.278 141.6l-7.464 2.744-7.464 2.745 3.594 3c-14.074 15.852-42.867 27.68-77.382 30.843l.87 5.49c35.41-3.245 65.66-15.087 81.547-32.167l3.593 3.002 1.362-7.84 1.343-7.818z" style="text-indent:0;text-align:start;line-height:normal;text-transform:none;block-progression:tb;-inkscape-font-specification:Sans" color="#000" fill="#e91e6f" overflow="visible" font-family="Sans"/><path d="M760.993 70.676c0 13.856-11.233 25.088-25.088 25.088-13.856 0-25.088-11.232-25.088-25.088 0-13.855 11.232-25.087 25.088-25.087 13.855 0 25.088 11.23 25.088 25.086z" fill="#fff"/><path d="M755.053 70.676c0 10.576-8.573 19.15-19.148 19.15-10.576 0-19.148-8.574-19.148-19.15 0-10.575 8.572-19.148 19.148-19.148 10.575 0 19.148 8.573 19.148 19.148z" fill="#666"/><path d="M760.993 185.324c0 13.855-11.233 25.087-25.088 25.087-13.856 0-25.088-11.23-25.088-25.086 0-13.856 11.232-25.088 25.088-25.088 13.855 0 25.088 11.232 25.088 25.088z" fill="#fff"/><path d="M755.053 185.324c0 10.575-8.573 19.148-19.148 19.148-10.576 0-19.148-8.573-19.148-19.148 0-10.576 8.572-19.15 19.148-19.15 10.575 0 19.148 8.574 19.148 19.15z" fill="#303f9f"/><path d="M638.037 146.042l-6.397 2.587c13.056 18.635 42.286 32.102 77.717 36.824l-1.184 4.542 7.66-2.113 7.662-2.093-4.857-4.818v-.04c-.02 0-.04.003-.06 0l-.73-.73-5.667-5.588-1.42 5.43c-33.79-4.5-61.096-17.407-72.723-34.002z" style="text-indent:0;text-align:start;line-height:normal;text-transform:none;block-progression:tb;-inkscape-font-specification:Sans" color="#000" fill="#e91e6f" overflow="visible" font-family="Sans"/><path d="M708.745 65.422l.573 5.114c-35.414 4.726-64.627 18.216-77.678 36.845l6.397 2.568c11.534-16.463 38.497-29.304 71.913-33.903l.572 5.173 6.398-4.72 6.398-4.718-7.287-3.18-7.285-3.178z" style="text-indent:0;text-align:start;line-height:normal;text-transform:none;block-progression:tb;-inkscape-font-specification:Sans" color="#000" fill="#b3b3b3" overflow="visible" font-family="Sans"/><path d="M646.345 128c0 13.856-11.232 25.088-25.087 25.088-13.856 0-25.088-11.232-25.088-25.088 0-13.856 11.232-25.088 25.088-25.088 13.855 0 25.087 11.232 25.087 25.088z" fill="#fff"/><path d="M640.406 128c0 10.575-8.573 19.148-19.148 19.148-10.576 0-19.15-8.573-19.15-19.148s8.574-19.148 19.15-19.148c10.575 0 19.148 8.573 19.148 19.148z" fill="#303f9f"/><g><path d="M648.41 128c0 13.856-11.233 25.088-25.088 25.088-13.856 0-25.088-11.232-25.088-25.088 0-13.856 11.232-25.088 25.088-25.088 13.855 0 25.088 11.232 25.088 25.088z" fill="#fff"/><path d="M642.47 128c0 10.575-8.573 19.148-19.148 19.148s-19.148-8.573-19.148-19.148 8.573-19.148 19.148-19.148S642.47 117.425 642.47 128z" fill="#303f9f"/><path style="text-indent:0;text-align:start;line-height:normal;text-transform:none;block-progression:tb;-inkscape-font-specification:Sans" d="M531.028 69.588l-.87 5.45c35.074 3.213 64.26 15.39 78.074 31.632l-4.028 3.12 7.345 3.02 7.364 3.022-1.066-7.88-1.066-7.877-3.377 2.606C597.76 85.108 567.07 72.89 531.028 69.59z" color="#000" fill="#e91e6f" overflow="visible" font-family="Sans"/><path style="text-indent:0;text-align:start;line-height:normal;text-transform:none;block-progression:tb;-inkscape-font-specification:Sans" d="M618.875 141.6l-7.464 2.744-7.463 2.745 3.594 3c-14.073 15.852-42.866 27.68-77.38 30.843l.868 5.49c35.41-3.245 65.66-15.087 81.548-32.167l3.594 3.002 1.362-7.84 1.343-7.818z" color="#000" fill="#b3b3b3" overflow="visible" font-family="Sans"/><path d="M535.59 70.676c0 13.856-11.233 25.088-25.088 25.088-13.856 0-25.088-11.232-25.088-25.088 0-13.855 11.232-25.087 25.088-25.087 13.855 0 25.088 11.23 25.088 25.086z" fill="#fff"/><path d="M529.65 70.676c0 10.576-8.573 19.15-19.148 19.15-10.576 0-19.148-8.574-19.148-19.15 0-10.575 8.572-19.148 19.148-19.148 10.575 0 19.148 8.573 19.148 19.148z" fill="#303f9f"/><path d="M535.59 185.324c0 13.855-11.233 25.087-25.088 25.087-13.856 0-25.088-11.23-25.088-25.086 0-13.856 11.232-25.088 25.088-25.088 13.855 0 25.088 11.232 25.088 25.088z" fill="#fff"/><path d="M529.65 185.324c0 10.575-8.573 19.148-19.148 19.148-10.576 0-19.148-8.573-19.148-19.148 0-10.576 8.572-19.15 19.148-19.15 10.575 0 19.148 8.574 19.148 19.15z" fill="#666"/><path style="text-indent:0;text-align:start;line-height:normal;text-transform:none;block-progression:tb;-inkscape-font-specification:Sans" d="M412.634 146.042l-6.398 2.587c13.057 18.635 42.287 32.102 77.718 36.824l-1.184 4.542 7.66-2.113 7.662-2.093-4.857-4.818v-.04c-.02 0-.04.003-.06 0l-.73-.73-5.667-5.588-1.422 5.43c-33.79-4.5-61.095-17.407-72.722-34.002z" color="#000" fill="#b3b3b3" overflow="visible" font-family="Sans"/><path style="text-indent:0;text-align:start;line-height:normal;text-transform:none;block-progression:tb;-inkscape-font-specification:Sans" d="M483.342 65.422l.573 5.114c-35.414 4.726-64.627 18.216-77.68 36.845l6.4 2.568c11.532-16.463 38.496-29.304 71.912-33.903l.572 5.173 6.397-4.72 6.397-4.718-7.286-3.18-7.286-3.178z" color="#000" fill="#e91e6f" overflow="visible" font-family="Sans"/><path d="M420.942 128c0 13.856-11.232 25.088-25.087 25.088-13.856 0-25.088-11.232-25.088-25.088 0-13.856 11.232-25.088 25.088-25.088 13.855 0 25.087 11.232 25.087 25.088z" fill="#fff"/><path d="M415.003 128c0 10.575-8.573 19.148-19.148 19.148-10.576 0-19.15-8.573-19.15-19.148s8.574-19.148 19.15-19.148c10.575 0 19.148 8.573 19.148 19.148z" fill="#303f9f"/></g><g><path d="M418.183 128c0 13.856-11.232 25.088-25.088 25.088-13.855 0-25.088-11.232-25.088-25.088 0-13.856 11.233-25.088 25.088-25.088 13.856 0 25.088 11.232 25.088 25.088z" fill="#fff"/><path d="M412.243 128c0 10.575-8.573 19.148-19.148 19.148s-19.148-8.573-19.148-19.148 8.573-19.148 19.148-19.148 19.148 8.573 19.148 19.148z" fill="#303f9f"/><path d="M300.8 69.588l-.868 5.45c35.073 3.213 64.258 15.39 78.074 31.632l-4.03 3.12 7.347 3.02 7.365 3.022-1.066-7.88-1.067-7.877-3.376 2.606c-15.647-17.573-46.336-29.79-82.38-33.092z" style="text-indent:0;text-align:start;line-height:normal;text-transform:none;block-progression:tb;-inkscape-font-specification:Sans" color="#000" fill="#b3b3b3" overflow="visible" font-family="Sans"/><path d="M388.648 141.6l-7.463 2.744-7.464 2.745 3.594 3c-14.074 15.852-42.867 27.68-77.382 30.843l.87 5.49c35.41-3.245 65.66-15.087 81.548-32.167l3.593 3.002 1.363-7.84 1.342-7.818z" style="text-indent:0;text-align:start;line-height:normal;text-transform:none;block-progression:tb;-inkscape-font-specification:Sans" color="#000" fill="#e91e6f" overflow="visible" font-family="Sans"/><path d="M305.363 70.676c0 13.856-11.232 25.088-25.088 25.088-13.856 0-25.088-11.232-25.088-25.088 0-13.855 11.232-25.087 25.088-25.087 13.856 0 25.088 11.23 25.088 25.086z" fill="#fff"/><path d="M299.423 70.676c0 10.576-8.573 19.15-19.148 19.15s-19.148-8.574-19.148-19.15c0-10.575 8.573-19.148 19.148-19.148s19.148 8.573 19.148 19.148z" fill="#666"/><path d="M305.363 185.324c0 13.855-11.232 25.087-25.088 25.087-13.856 0-25.088-11.23-25.088-25.086 0-13.856 11.232-25.088 25.088-25.088 13.856 0 25.088 11.232 25.088 25.088z" fill="#fff"/><path d="M299.423 185.324c0 10.575-8.573 19.148-19.148 19.148s-19.148-8.573-19.148-19.148c0-10.576 8.573-19.15 19.148-19.15s19.148 8.574 19.148 19.15z" fill="#303f9f"/><path d="M182.407 146.042l-6.397 2.587c13.056 18.635 42.287 32.102 77.718 36.824l-1.185 4.542 7.66-2.113 7.663-2.093-4.858-4.818v-.04c-.02 0-.04.003-.06 0l-.73-.73-5.667-5.588-1.42 5.43c-33.79-4.5-61.096-17.407-72.723-34.002z" style="text-indent:0;text-align:start;line-height:normal;text-transform:none;block-progression:tb;-inkscape-font-specification:Sans" color="#000" fill="#e91e6f" overflow="visible" font-family="Sans"/><path d="M253.116 65.422l.572 5.114c-35.414 4.726-64.627 18.216-77.678 36.845l6.397 2.568c11.534-16.463 38.497-29.304 71.913-33.903l.573 5.173 6.397-4.72 6.398-4.718-7.286-3.18-7.286-3.178z" style="text-indent:0;text-align:start;line-height:normal;text-transform:none;block-progression:tb;-inkscape-font-specification:Sans" color="#000" fill="#b3b3b3" overflow="visible" font-family="Sans"/><path d="M190.716 128c0 13.856-11.232 25.088-25.088 25.088-13.856 0-25.088-11.232-25.088-25.088 0-13.856 11.232-25.088 25.088-25.088 13.856 0 25.088 11.232 25.088 25.088z" fill="#fff"/><path d="M184.776 128c0 10.575-8.573 19.148-19.148 19.148S146.48 138.575 146.48 128s8.573-19.148 19.148-19.148 19.148 8.573 19.148 19.148z" fill="#303f9f"/><path d="M138.81 121.32v4.8h-27.565v6.318h27.565v4.798l6.87-3.99 6.892-3.967-6.89-3.97-6.872-3.99z" fill="#e91e6f"/></g></svg>