<?xml version="1.0" encoding="UTF-8" standalone="no"?>
<!-- Created with Inkscape (http://www.inkscape.org/) -->

<svg
   xmlns:dc="http://purl.org/dc/elements/1.1/"
   xmlns:cc="http://creativecommons.org/ns#"
   xmlns:rdf="http://www.w3.org/1999/02/22-rdf-syntax-ns#"
   xmlns:svg="http://www.w3.org/2000/svg"
   xmlns="http://www.w3.org/2000/svg"
   xmlns:sodipodi="http://sodipodi.sourceforge.net/DTD/sodipodi-0.dtd"
   xmlns:inkscape="http://www.inkscape.org/namespaces/inkscape"
   width="255"
   height="110"
   viewBox="0 0 255 110"
   id="svg5796"
   version="1.1"
   inkscape:version="0.91 r"
   sodipodi:docname="object.svg">
  <defs
     id="defs5798" />
  <sodipodi:namedview
     id="base"
     pagecolor="#ffffff"
     bordercolor="#666666"
     borderopacity="1.0"
     inkscape:pageopacity="0.0"
     inkscape:pageshadow="2"
     inkscape:zoom="11.2"
     inkscape:cx="131.14405"
     inkscape:cy="84.544978"
     inkscape:document-units="px"
     inkscape:current-layer="layer1"
     showgrid="false"
     fit-margin-top="0"
     fit-margin-left="0"
     fit-margin-right="0"
     fit-margin-bottom="0"
     units="px"
     inkscape:window-width="1366"
     inkscape:window-height="713"
     inkscape:window-x="0"
     inkscape:window-y="30"
     inkscape:window-maximized="1" />
  <metadata
     id="metadata5801">
    <rdf:RDF>
      <cc:Work
         rdf:about="">
        <dc:format>image/svg+xml</dc:format>
        <dc:type
           rdf:resource="http://purl.org/dc/dcmitype/StillImage" />
        <dc:title />
      </cc:Work>
    </rdf:RDF>
  </metadata>
  <g
     inkscape:label="Layer 1"
     inkscape:groupmode="layer"
     id="layer1"
     transform="translate(-45.714291,-390.21936)">
    <rect
       style="opacity:1;fill:none;fill-opacity:1;stroke:none;stroke-width:5;stroke-linecap:butt;stroke-linejoin:round;stroke-miterlimit:4;stroke-dasharray:none;stroke-dashoffset:0;stroke-opacity:1"
       id="rect4279"
       width="255"
       height="110"
       x="45.714291"
       y="390.21936" />
    <path
       style="opacity:1;fill:#bd1939;fill-opacity:1;stroke:none;stroke-width:5;stroke-linecap:butt;stroke-linejoin:round;stroke-miterlimit:4;stroke-dasharray:none;stroke-dashoffset:0;stroke-opacity:1"
       d="m 147.06454,415.75946 52.29937,0 c 1.83379,0 3.31009,1.4763 3.31009,3.31009 l 0,52.29936 c 0,1.83379 -1.4763,3.31009 -3.31009,3.31009 l -52.29937,0 c -1.83379,0 -3.31008,-1.4763 -3.31008,-3.31009 l 0,-52.29936 c 0,-1.83379 1.47629,-3.31009 3.31008,-3.31009 z"
       id="rect5723" />
    <path
       style="opacity:1;fill:#999999;fill-opacity:1;stroke:none;stroke-width:5;stroke-linecap:butt;stroke-linejoin:round;stroke-miterlimit:4;stroke-dasharray:none;stroke-dashoffset:0;stroke-opacity:1"
       d="m 148.9762,417.91309 48.47604,0 c 1.69973,0 3.0681,1.36837 3.0681,3.0681 l 0,48.47604 c 0,1.69973 -1.36837,3.0681 -3.0681,3.0681 l -48.47604,0 c -1.69973,0 -3.0681,-1.36837 -3.0681,-3.0681 l 0,-48.47604 c 0,-1.69973 1.36837,-3.0681 3.0681,-3.0681 z"
       id="rect5725" />
    <path
       style="opacity:1;fill:#666666;fill-opacity:1;stroke:none;stroke-width:5;stroke-linecap:butt;stroke-linejoin:round;stroke-miterlimit:4;stroke-dasharray:none;stroke-dashoffset:0;stroke-opacity:1"
       d="m 172.07758,417.8374 2.27329,0 0,54.68793 -2.27329,0 z"
       id="rect5727" />
    <path
       transform="scale(1,-1)"
       style="opacity:1;fill:#4d4d4d;fill-opacity:1;stroke:none;stroke-width:5;stroke-linecap:butt;stroke-linejoin:round;stroke-miterlimit:4;stroke-dasharray:none;stroke-dashoffset:0;stroke-opacity:1"
       d="m 163.85188,-444.09531 c 0,-5.17067 4.19167,-9.36233 9.36234,-9.36233 5.17067,0 9.36234,4.19166 9.36234,9.36233 l -9.36234,0 z"
       id="path5729"
       inkscape:connector-curvature="0"
       sodipodi:nodetypes="czccc" />
    <path
       style="opacity:1;fill:#666666;fill-opacity:1;stroke:none;stroke-width:5;stroke-linecap:butt;stroke-linejoin:round;stroke-miterlimit:4;stroke-dasharray:none;stroke-dashoffset:0;stroke-opacity:1"
       d="m 177.38134,420.43222 a 0.83752906,0.83752906 0 0 1 -0.83753,0.83753 0.83752906,0.83752906 0 0 1 -0.83753,-0.83753 0.83752906,0.83752906 0 0 1 0.83753,-0.83753 0.83752906,0.83752906 0 0 1 0.83753,0.83753 z"
       id="circle5733" />
    <path
       style="opacity:1;fill:#666666;fill-opacity:1;stroke:none;stroke-width:5;stroke-linecap:butt;stroke-linejoin:round;stroke-miterlimit:4;stroke-dasharray:none;stroke-dashoffset:0;stroke-opacity:1"
       d="m 177.38134,425.79239 a 0.83752906,0.83752906 0 0 1 -0.83753,0.83753 0.83752906,0.83752906 0 0 1 -0.83753,-0.83753 0.83752906,0.83752906 0 0 1 0.83753,-0.83753 0.83752906,0.83752906 0 0 1 0.83753,0.83753 z"
       id="circle5735" />
    <path
       style="opacity:1;fill:#666666;fill-opacity:1;stroke:none;stroke-width:5;stroke-linecap:butt;stroke-linejoin:round;stroke-miterlimit:4;stroke-dasharray:none;stroke-dashoffset:0;stroke-opacity:1"
       d="m 177.38134,431.15259 a 0.83752906,0.83752906 0 0 1 -0.83753,0.83753 0.83752906,0.83752906 0 0 1 -0.83753,-0.83753 0.83752906,0.83752906 0 0 1 0.83753,-0.83753 0.83752906,0.83752906 0 0 1 0.83753,0.83753 z"
       id="circle5737" />
    <path
       style="opacity:1;fill:#666666;fill-opacity:1;stroke:none;stroke-width:5;stroke-linecap:butt;stroke-linejoin:round;stroke-miterlimit:4;stroke-dasharray:none;stroke-dashoffset:0;stroke-opacity:1"
       d="m 177.38134,436.51276 a 0.83752906,0.83752906 0 0 1 -0.83753,0.83753 0.83752906,0.83752906 0 0 1 -0.83753,-0.83753 0.83752906,0.83752906 0 0 1 0.83753,-0.83753 0.83752906,0.83752906 0 0 1 0.83753,0.83753 z"
       id="circle5739" />
    <path
       style="opacity:1;fill:#666666;fill-opacity:1;stroke:none;stroke-width:5;stroke-linecap:butt;stroke-linejoin:round;stroke-miterlimit:4;stroke-dasharray:none;stroke-dashoffset:0;stroke-opacity:1"
       d="m 177.38134,441.87296 a 0.83752906,0.83752906 0 0 1 -0.83753,0.83752 0.83752906,0.83752906 0 0 1 -0.83753,-0.83752 0.83752906,0.83752906 0 0 1 0.83753,-0.83753 0.83752906,0.83752906 0 0 1 0.83753,0.83753 z"
       id="circle5741" />
    <path
       id="path5743"
       style="opacity:1;fill:#cccccc;fill-opacity:1;stroke:none;stroke-width:5;stroke-linecap:butt;stroke-linejoin:round;stroke-miterlimit:4;stroke-dasharray:none;stroke-dashoffset:0;stroke-opacity:1"
       d="m 171.32715,425.14201 c -1.60803,0 -2.83763,1.22982 -2.83763,2.83785 0,1.60802 1.2296,2.83763 2.83763,2.83763 1.60802,0 2.83784,-1.22961 2.83784,-2.83763 0,-1.60803 -1.22982,-2.83785 -2.83784,-2.83785 z m -1.32418,-4.72945 2.7432,0 0.18908,1.70253 c 0.37836,0.0946 0.85122,0.28389 1.32416,0.56766 l 1.41903,-1.04045 1.98626,1.98626 -1.04044,1.41881 c 0.28376,0.56754 0.47306,0.94602 0.56764,1.32438 l 1.70254,0.28372 0,2.7432 -1.41881,0.28372 c -0.0946,0.37835 -0.28389,0.85122 -0.56766,1.32417 l 1.04066,1.41882 -1.98647,1.98646 -1.41881,-1.04045 c -0.47295,0.28377 -0.85143,0.47284 -1.32438,0.56744 l -0.28372,1.70275 -2.83763,0 -0.28393,-1.70275 c -0.47295,-0.18918 -0.94582,-0.37825 -1.32417,-0.56744 l -1.41882,0.94581 -1.98647,-1.98626 0.94602,-1.41881 c -0.28377,-0.47294 -0.47306,-0.85143 -0.56765,-1.32438 l -1.70253,-0.28373 0,-2.74319 1.60809,-0.18908 c 0.18918,-0.47295 0.28367,-0.85144 0.56745,-1.32438 l -0.9458,-1.41881 1.98625,-1.98626 1.41882,1.04045 c 0.47294,-0.28377 0.85142,-0.47307 1.32438,-0.56766 l 0.28371,-1.70253 z"
       inkscape:connector-curvature="0" />
    <path
       inkscape:connector-curvature="0"
       id="path5745"
       d="m 147.06481,415.75975 c -1.83378,0 -3.3102,1.47576 -3.3102,3.30955 l 0,52.29976 c 0,1.83379 1.47642,3.3102 3.3102,3.3102 l 52.29911,0 c 1.83379,0 3.31021,-1.47641 3.31021,-3.3102 l 0,-7.34016 a 32.233825,32.233825 0 0 1 -3.3475,0.21004 32.233825,32.233825 0 0 1 -32.23375,-32.23375 32.233825,32.233825 0 0 1 4.43105,-16.24544 l -24.45912,0 z"
       style="opacity:1;fill:#ff2650;fill-opacity:1;stroke:none;stroke-width:5;stroke-linecap:butt;stroke-linejoin:round;stroke-miterlimit:4;stroke-dasharray:none;stroke-dashoffset:0;stroke-opacity:1" />
    <path
       inkscape:connector-curvature="0"
       style="opacity:1;fill:#1a1a1a;fill-opacity:1;stroke:none;stroke-width:5;stroke-linecap:butt;stroke-linejoin:round;stroke-miterlimit:4;stroke-dasharray:none;stroke-dashoffset:0;stroke-opacity:1"
       d="m 161.9593,430.13902 a 3.5108767,3.5944691 0 0 1 3.51179,3.59454 3.5108767,3.5944691 0 0 1 -3.51179,3.59455 3.5108767,3.5944691 0 0 1 -3.5105,-3.59455 3.5108767,3.5944691 0 0 1 3.5105,-3.59454 z"
       id="path5747" />
    <path
       transform="scale(1,-1)"
       style="opacity:1;fill:#cccccc;fill-opacity:1;stroke:none;stroke-width:5;stroke-linecap:butt;stroke-linejoin:round;stroke-miterlimit:4;stroke-dasharray:none;stroke-dashoffset:0;stroke-opacity:1"
       d="m 165.43383,-444.09531 c 0,-4.29699 3.4834,-7.78038 7.78039,-7.78038 4.29699,0 7.78038,3.4834 7.78038,7.78038 l -7.78038,0 z"
       id="path5749"
       inkscape:connector-curvature="0"
       sodipodi:nodetypes="czccc" />
    <path
       inkscape:connector-curvature="0"
       id="path5751"
       d="m 163.85204,444.09506 a 9.3623382,9.3623382 0 0 0 9.362,9.36266 9.3623382,9.3623382 0 0 0 1.92763,-0.2035 32.233825,32.233825 0 0 1 -5.67492,-9.15916 l -5.61471,0 z"
       style="opacity:1;fill:#1a1a1a;fill-opacity:1;stroke:none;stroke-width:5;stroke-linecap:butt;stroke-linejoin:round;stroke-miterlimit:4;stroke-dasharray:none;stroke-dashoffset:0;stroke-opacity:1" />
    <path
       inkscape:connector-curvature="0"
       id="path5753"
       d="m 195.53419,423.77647 -0.41418,2.48314 c -0.68975,0.13795 -1.24182,0.41387 -1.93155,0.82772 l -2.06896,-1.51737 -2.89668,2.89667 1.37931,2.06896 c -0.41385,0.68974 -0.55181,1.2418 -0.82771,1.93156 l -2.34508,0.27612 0,4.00051 2.48314,0.41353 c 0.13796,0.68975 0.41387,1.24182 0.82771,1.93155 l -1.3793,2.06896 2.89667,2.89732 2.06896,-1.37996 c 0.55178,0.27591 1.2418,0.55182 1.93155,0.82772 l 0.41418,2.48314 4.13792,0 0.41418,-2.48314 c 0.10299,-0.0206 0.198,-0.0505 0.29576,-0.0772 l 0,-5.78157 c -0.74744,0.80918 -1.82359,1.30668 -3.05502,1.30668 -2.34514,0 -4.13857,-1.79345 -4.13857,-4.13857 0,-2.34514 1.79343,-4.13858 4.13857,-4.13858 1.23151,0 2.30758,0.49799 3.05502,1.30734 l 0,-5.48909 c -0.25095,-0.0968 -0.49318,-0.1781 -0.70994,-0.23229 l -0.27547,-2.48314 -4.00051,0 z"
       style="opacity:1;fill:#4d4d4d;fill-opacity:1;stroke:none;stroke-width:5;stroke-linecap:butt;stroke-linejoin:round;stroke-miterlimit:4;stroke-dasharray:none;stroke-dashoffset:0;stroke-opacity:1" />
    <path
       inkscape:connector-curvature="0"
       d="m 192.55824,450.03847 c -1.60803,0 -2.83763,1.22982 -2.83763,2.83785 0,1.60802 1.2296,2.83763 2.83763,2.83763 1.60803,0 2.83784,-1.22961 2.83784,-2.83763 0,-1.60803 -1.22981,-2.83785 -2.83784,-2.83785 z m -1.32418,-4.72945 2.7432,0 0.18909,1.70253 c 0.37835,0.0946 0.85122,0.28389 1.32416,0.56766 l 1.41903,-1.04045 1.98626,1.98626 -1.04045,1.41881 c 0.28377,0.56754 0.47306,0.94601 0.56765,1.32438 l 1.70254,0.28372 0,2.7432 -1.41882,0.28372 c -0.0946,0.37835 -0.28389,0.85122 -0.56766,1.32417 l 1.04067,1.41882 -1.98647,1.98646 -1.41882,-1.04045 c -0.47294,0.28377 -0.85143,0.47284 -1.32438,0.56744 l -0.28371,1.70275 -2.83763,0 -0.28394,-1.70275 c -0.47295,-0.18918 -0.94581,-0.37826 -1.32417,-0.56744 l -1.41881,0.94581 -1.98648,-1.98626 0.94603,-1.41881 c -0.28377,-0.47294 -0.47306,-0.85143 -0.56766,-1.32438 l -1.70253,-0.28373 0,-2.74319 1.6081,-0.18908 c 0.18918,-0.47295 0.28367,-0.85144 0.56744,-1.32438 l -0.9458,-1.41881 1.98626,-1.98626 1.41881,1.04045 c 0.47294,-0.28377 0.85143,-0.47308 1.32438,-0.56766 l 0.28371,-1.70253 z"
       style="opacity:1;fill:#666666;fill-opacity:1;stroke:none;stroke-width:5;stroke-linecap:butt;stroke-linejoin:round;stroke-miterlimit:4;stroke-dasharray:none;stroke-dashoffset:0;stroke-opacity:1"
       id="path5755" />
    <path
       id="path5757"
       d="m 184.46751,428.02707 a 5.5736612,5.7063677 0 0 1 5.57512,5.7065 5.5736612,5.7063677 0 0 1 -5.57512,5.70648 5.5736612,5.7063677 0 0 1 -5.57307,-5.70648 5.5736612,5.7063677 0 0 1 5.57307,-5.7065 z"
       style="opacity:1;fill:#666666;fill-opacity:1;stroke:none;stroke-width:5;stroke-linecap:butt;stroke-linejoin:round;stroke-miterlimit:4;stroke-dasharray:none;stroke-dashoffset:0;stroke-opacity:1"
       inkscape:connector-curvature="0" />
    <path
       inkscape:connector-curvature="0"
       style="opacity:1;fill:#ffee5a;fill-opacity:1;stroke:none;stroke-width:5;stroke-linecap:butt;stroke-linejoin:round;stroke-miterlimit:4;stroke-dasharray:none;stroke-dashoffset:0;stroke-opacity:1"
       d="m 184.46789,430.13902 a 3.5108767,3.5944691 0 0 1 3.51179,3.59454 3.5108767,3.5944691 0 0 1 -3.51179,3.59455 3.5108767,3.5944691 0 0 1 -3.5105,-3.59455 3.5108767,3.5944691 0 0 1 3.5105,-3.59454 z"
       id="path5759" />
    <path
       style="opacity:1;fill:#cccccc;fill-opacity:1;stroke:none;stroke-width:5;stroke-linecap:butt;stroke-linejoin:round;stroke-miterlimit:4;stroke-dasharray:none;stroke-dashoffset:0;stroke-opacity:1"
       d="m 200.34062,434.82144 a 2.8416164,2.8416164 0 0 1 -2.84161,2.84162 2.8416164,2.8416164 0 0 1 -2.84162,-2.84162 2.8416164,2.8416164 0 0 1 2.84162,-2.84161 2.8416164,2.8416164 0 0 1 2.84161,2.84161 z"
       id="circle5761" />
    <path
       style="opacity:1;fill:#4d4d4d;fill-opacity:1;stroke:none;stroke-width:5;stroke-linecap:butt;stroke-linejoin:round;stroke-miterlimit:4;stroke-dasharray:none;stroke-dashoffset:0;stroke-opacity:1"
       d="m 172.91357,428.02707 a 1.5863103,1.5863103 0 0 1 -1.58631,1.58631 1.5863103,1.5863103 0 0 1 -1.58632,-1.58631 1.5863103,1.5863103 0 0 1 1.58632,-1.58631 1.5863103,1.5863103 0 0 1 1.58631,1.58631 z"
       id="circle5763" />
  </g>
</svg>
