<svg xmlns="http://www.w3.org/2000/svg" width="255" height="150" viewBox="0 0 255 150"><path fill="none" d="M0 0h255v150H0z"/><g transform="matrix(.93696 0 0 .94299 -33.558 -61.898)"><path fill="#ffee5a" d="M207.283 187.979l-23.645 13.651-1.365-2.364 23.645-13.651zm0-9.812l-23.645-13.651-1.365 2.364 23.645 13.652zm-70.255-36.213l23.645 13.652 1.365-2.364-23.645-13.652z"/><circle r="12.687" cy="160.183" cx="172.649" fill="#ff6433"/><g style="line-height:125%"><path style="-inkscape-font-specification:'Roboto Medium';text-align:center" d="M158.378 141.18h-.911v1.812h-.818v-4.705h1.655q.814 0 1.257.365.442.365.442 1.057 0 .472-.229.792-.226.316-.633.488l1.056 1.96v.043h-.875l-.944-1.813zm-.911-.657h.84q.414 0 .646-.207.233-.21.233-.572 0-.378-.217-.584-.213-.207-.64-.214h-.862v1.577zm4.783 2.534q-.747 0-1.213-.469-.462-.472-.462-1.254v-.097q0-.523.2-.933.204-.414.57-.644.365-.229.814-.229.714 0 1.102.456.39.455.39 1.289v.317h-2.284q.036.433.288.685.255.252.64.252.539 0 .878-.437l.424.404q-.21.314-.563.488-.349.172-.785.172zm-.095-2.996q-.323 0-.523.226-.197.227-.252.63h1.496v-.058q-.026-.394-.21-.594-.184-.204-.51-.204zm4.069 1.981q0-.21-.175-.32-.171-.11-.572-.194-.4-.084-.669-.213-.588-.284-.588-.824 0-.452.382-.756.38-.304.969-.304.627 0 1.011.31.388.31.388.805h-.785q0-.226-.168-.375-.168-.152-.446-.152-.259 0-.423.12-.162.12-.162.32 0 .18.152.28.152.1.614.204.462.1.724.243.265.139.39.336.13.197.13.478 0 .472-.391.766-.391.29-1.024.29-.43 0-.766-.155t-.524-.426q-.187-.272-.187-.585h.762q.017.278.21.43.194.148.514.148.31 0 .472-.116.162-.12.162-.31zm2.287.95h-.785v-3.496h.785v3.496zm-.833-4.404q0-.181.113-.3.116-.12.33-.12.213 0 .329.12.116.119.116.3 0 .177-.116.297-.116.116-.33.116-.213 0-.33-.116-.112-.12-.112-.297zm1.544 2.63q0-.808.375-1.296.375-.49 1.005-.49.556 0 .898.387v-1.79h.785v4.963h-.71l-.04-.362q-.351.427-.94.427-.613 0-.995-.495-.378-.494-.378-1.344zm.785.068q0 .533.204.833.207.298.585.298.481 0 .704-.43v-1.493q-.216-.42-.698-.42-.381 0-.588.304-.207.3-.207.908zm4.637 1.771q-.746 0-1.211-.469-.463-.472-.463-1.254v-.097q0-.523.2-.933.204-.414.57-.644.365-.229.814-.229.714 0 1.102.456.39.455.39 1.289v.317h-2.284q.036.433.288.685.255.252.64.252.54 0 .878-.437l.424.404q-.21.314-.563.488-.349.172-.785.172zm-.093-2.996q-.324 0-.524.226-.197.227-.252.63h1.496v-.058q-.026-.394-.21-.594-.184-.204-.51-.204zm2.837-.565l.022.404q.388-.469 1.018-.469 1.092 0 1.112 1.25v2.31h-.786v-2.264q0-.333-.145-.491-.142-.162-.469-.162-.475 0-.707.43v2.488h-.785v-3.496h.74zm3.939-.85v.85h.617v.581h-.617v1.952q0 .2.077.29.08.088.284.088.136 0 .275-.032v.607q-.268.075-.517.075-.905 0-.905-.999v-1.98h-.575v-.582h.575v-.85h.786zm2.048 4.346h-.785v-3.496h.785v3.496zm-.834-4.404q0-.181.114-.3.116-.12.33-.12.212 0 .329.12.116.119.116.3 0 .177-.116.297-.117.116-.33.116-.213 0-.33-.116-.113-.12-.113-.297zm3.781 4.404q-.052-.1-.09-.326-.375.39-.918.39-.527 0-.86-.3-.332-.3-.332-.743 0-.56.413-.856.417-.3 1.19-.3h.48v-.23q0-.272-.151-.433-.152-.165-.462-.165-.268 0-.44.136-.17.132-.17.339h-.786q0-.288.19-.537.191-.252.518-.394.33-.142.733-.142.614 0 .98.31.364.307.374.866v1.577q0 .472.132.753v.055h-.801zm-.863-.566q.233 0 .437-.113.206-.113.31-.303v-.66h-.424q-.436 0-.656.152-.22.152-.22.43 0 .226.15.362.151.132.403.132zm3.19.566h-.786v-4.963h.786v4.963z" font-weight="500" font-size="16.967" font-family="Roboto" letter-spacing="0" word-spacing="0" fill="#ff6433" text-anchor="middle"/></g><path fill="#ffee5a" d="M138.05 133.097l23.646-13.651 1.365 2.364-23.645 13.651zm45.783-14.545l23.645 13.652 1.365-2.364-23.645-13.652zm0-9.812l23.645-13.652 1.365 2.365-23.645 13.651z"/><g style="line-height:125%"><path style="-inkscape-font-specification:'Roboto Medium';text-align:center" d="M116.01 121.824v-4.705h1.613q.798 0 1.215.32.417.32.417.953 0 .323-.175.582-.174.258-.51.4.381.104.588.391.21.285.21.685 0 .663-.426 1.018-.424.356-1.215.356h-1.716zm.818-2.123v1.47h.908q.385 0 .601-.19.217-.191.217-.53 0-.734-.75-.75h-.976zm0-.601h.802q.38 0 .594-.172.217-.174.217-.49 0-.35-.2-.505-.198-.155-.618-.155h-.795v1.322zm5.4 2.381q-.346.407-.983.407-.568 0-.862-.333-.291-.332-.291-.962v-2.266h.785v2.256q0 .665.553.665.572 0 .772-.41v-2.51h.785v3.496h-.74l-.02-.343zm2.401.343h-.786v-3.497h.786v3.497zm-.834-4.405q0-.18.113-.3.116-.12.33-.12.213 0 .33.12.115.12.115.3 0 .178-.116.298-.116.116-.33.116-.213 0-.329-.116-.113-.12-.113-.298zm2.527 4.405h-.785v-4.964h.785v4.964zm.711-1.774q0-.808.374-1.296.375-.491 1.005-.491.556 0 .899.388v-1.79h.785v4.963h-.711l-.039-.362q-.352.426-.94.426-.614 0-.995-.494-.378-.495-.378-1.344zm.785.068q0 .533.203.833.207.297.585.297.482 0 .705-.43v-1.492q-.217-.42-.698-.42-.382 0-.588.304-.207.3-.207.908zm3.932 1.706h-.785v-3.497h.785v3.497zm-.833-4.405q0-.18.113-.3.116-.12.33-.12.213 0 .329.12.116.12.116.3 0 .178-.116.298-.116.116-.33.116-.213 0-.33-.116-.112-.12-.112-.298zm2.42.908l.022.404q.388-.468 1.018-.468 1.092 0 1.112 1.25v2.31h-.785v-2.264q0-.333-.146-.492-.142-.161-.468-.161-.475 0-.708.43v2.488h-.785v-3.497h.74zm2.817 1.723q0-.815.382-1.3.384-.487 1.018-.487.597 0 .94.417l.035-.353h.708v3.39q0 .688-.43 1.086-.426.397-1.153.397-.385 0-.753-.161-.365-.159-.556-.417l.372-.472q.362.43.892.43.39 0 .617-.214.226-.21.226-.62v-.236q-.34.378-.905.378-.614 0-1.005-.488-.388-.488-.388-1.35zm.782.068q0 .526.214.83.216.3.597.3.475 0 .705-.407v-1.538q-.223-.397-.698-.397-.388 0-.604.307-.214.307-.214.905z" font-weight="500" font-size="16.967" font-family="Roboto" letter-spacing="0" word-spacing="0" fill="#ff2650" text-anchor="middle"/></g><circle cx="127.643" cy="136.318" r="12.687" fill="#ff2650"/><circle cx="172.649" cy="113.646" r="12.687" fill="#ff6433"/><g style="line-height:125%"><path style="-inkscape-font-specification:'Roboto Medium';text-align:center" d="M164.739 88.42l.724-3.541h.81l-1.085 4.705h-.782l-.895-3.435-.915 3.435h-.785l-1.085-4.705h.81l.73 3.535.9-3.535h.684l.889 3.541zm1.813-.617q0-.513.203-.924.204-.413.572-.633.368-.223.847-.223.707 0 1.147.455.442.456.478 1.209l.003.184q0 .517-.2.924-.197.407-.569.63-.368.223-.853.223-.74 0-1.186-.49-.443-.495-.443-1.316v-.039zm.785.068q0 .54.223.847.223.303.62.303.398 0 .617-.31.223-.31.223-.908 0-.53-.23-.84-.225-.31-.616-.31-.385 0-.611.307-.226.304-.226.911zm4.966-1.066q-.155-.026-.32-.026-.54 0-.727.414v2.39h-.785v-3.496h.75l.02.391q.283-.455.788-.455.168 0 .277.045l-.003.737zm1.632 1.279l-.349.36v1.14h-.785V84.62h.785v2.862l.246-.307.966-1.089h.943l-1.299 1.458 1.438 2.039h-.908l-1.037-1.5zm3.15 1.5h-.785v-3.497h.785v3.497zm-.833-4.404q0-.181.113-.301.116-.12.33-.12.213 0 .33.12.115.12.115.3 0 .178-.116.298-.116.116-.33.116-.213 0-.33-.116-.112-.12-.112-.297zm2.42.907l.023.404q.387-.468 1.017-.468 1.093 0 1.112 1.25v2.31h-.785V87.32q0-.333-.146-.492-.142-.161-.468-.161-.475 0-.708.43v2.488h-.785v-3.497h.74zm2.818 1.723q0-.815.38-1.3.385-.487 1.019-.487.598 0 .94.417l.036-.353h.707v3.39q0 .688-.43 1.086-.426.397-1.153.397-.385 0-.753-.161-.365-.159-.556-.417l.372-.472q.362.43.892.43.39 0 .617-.213.226-.21.226-.62v-.237q-.34.378-.905.378-.614 0-1.005-.488-.387-.487-.387-1.35zm.782.068q0 .526.213.83.216.3.598.3.475 0 .704-.407v-1.538q-.223-.397-.698-.397-.388 0-.604.307-.213.307-.213.905zm-21.075 9.978V93.15h1.613q.798 0 1.215.32.417.32.417.953 0 .323-.175.582-.174.258-.51.4.38.104.588.391.21.285.21.685 0 .663-.427 1.018-.423.356-1.215.356h-1.716zm.818-2.123v1.47h.908q.384 0 .6-.19.217-.191.217-.53 0-.734-.75-.75h-.975zm0-.601h.801q.382 0 .595-.171.216-.175.216-.492 0-.349-.2-.504-.197-.155-.617-.155h-.795v1.322zm5.399 2.381q-.345.407-.982.407-.569 0-.863-.332-.29-.333-.29-.963V94.36h.785v2.255q0 .666.552.666.572 0 .772-.41V94.36h.786v3.496h-.74l-.02-.343zm2.401.343h-.785V94.36h.785v3.496zm-.834-4.404q0-.181.114-.301.116-.12.33-.12.212 0 .329.12.116.12.116.3 0 .178-.116.298-.117.116-.33.116-.213 0-.33-.116-.113-.12-.113-.297zm2.527 4.404h-.785v-4.963h.785v4.963zm.712-1.774q0-.808.374-1.296.375-.491 1.005-.491.556 0 .898.388v-1.79h.785v4.963h-.71l-.04-.362q-.351.426-.94.426-.613 0-.995-.494-.378-.494-.378-1.344zm.784.068q0 .533.204.833.207.298.585.298.481 0 .704-.43v-1.493q-.216-.42-.698-.42-.381 0-.588.304-.207.3-.207.908zm3.933 1.706h-.785V94.36h.785v3.496zm-.834-4.404q0-.181.113-.301.117-.12.33-.12.213 0 .33.12.116.12.116.3 0 .178-.117.298-.116.116-.33.116-.212 0-.329-.116-.113-.12-.113-.297zm2.42.908l.023.403q.388-.468 1.018-.468 1.092 0 1.111 1.25v2.31h-.785v-2.264q0-.333-.145-.492-.142-.161-.469-.161-.475 0-.707.43v2.488h-.786V94.36h.74zm2.818 1.722q0-.814.381-1.3.385-.487 1.018-.487.598 0 .94.417l.036-.352h.708v3.39q0 .687-.43 1.085-.427.397-1.154.397-.384 0-.753-.161-.365-.159-.555-.417l.371-.472q.362.43.892.43.391 0 .617-.213.226-.21.226-.62v-.237q-.339.378-.904.378-.614 0-1.005-.488-.388-.487-.388-1.35zm.782.068q0 .526.213.83.217.3.598.3.475 0 .704-.407v-1.538q-.223-.397-.698-.397-.387 0-.604.307-.213.307-.213.905z" font-weight="500" font-size="16.967" font-family="Roboto" letter-spacing="0" word-spacing="0" fill="#ff6433" text-anchor="middle"/></g><circle cx="217.893" cy="137.439" r="12.687" fill="#ffb934"/><circle r="12.687" cy="91.706" cx="217.893" fill="#ffb934"/><g style="line-height:125%;text-align:center"><path style="-inkscape-font-specification:'Roboto Medium';text-align:center" d="M205.651 74.374q-.07.753-.555 1.176-.485.42-1.29.42-.562 0-.992-.265-.426-.268-.659-.76-.233-.49-.242-1.14v-.44q0-.665.236-1.172.235-.508.675-.782.443-.275 1.021-.275.779 0 1.254.423.475.424.552 1.196h-.814q-.058-.508-.297-.73-.236-.227-.695-.227-.533 0-.82.391-.285.388-.292 1.141v.417q0 .762.272 1.163.275.4.801.4.482 0 .724-.216t.307-.72h.814zm.504-.249q0-.514.204-.924.203-.414.572-.634.368-.223.846-.223.708 0 1.148.456.442.456.478 1.209l.003.184q0 .517-.2.924-.198.407-.57.63-.368.223-.852.223-.74 0-1.186-.491-.443-.495-.443-1.315v-.04zm.786.068q0 .54.223.846.222.304.62.304.397 0 .617-.31.223-.31.223-.908 0-.53-.23-.84-.226-.31-.617-.31-.384 0-.61.307-.226.303-.226.91zm3.874-1.783l.022.364q.369-.43 1.009-.43.7 0 .96.537.38-.537 1.072-.537.578 0 .86.32.284.32.29.944v2.297h-.785V73.63q0-.332-.145-.487-.146-.156-.482-.156-.268 0-.44.146-.167.142-.235.375l.003 2.397h-.785v-2.3q-.016-.618-.63-.618-.472 0-.669.385v2.533h-.785V72.41h.74zm5.765 0l.022.364q.368-.43 1.008-.43.701 0 .96.537.381-.537 1.073-.537.578 0 .86.32.284.32.29.944v2.297h-.785V73.63q0-.332-.146-.487-.145-.156-.481-.156-.268 0-.44.146-.168.142-.235.375l.003 2.397h-.785v-2.3q-.017-.618-.63-.618-.472 0-.67.385v2.533h-.785V72.41h.74zm6.565 3.56q-.746 0-1.211-.469-.462-.471-.462-1.253v-.097q0-.524.2-.934.203-.414.569-.643.365-.23.814-.23.714 0 1.102.456.39.456.39 1.29v.316h-2.284q.036.433.288.685.255.252.64.252.54 0 .878-.436l.424.404q-.21.313-.562.488-.35.17-.786.17zm-.093-2.995q-.324 0-.524.226-.197.226-.252.63h1.496v-.058q-.026-.395-.21-.595-.184-.203-.51-.203zm3.938.151q-.155-.025-.32-.025-.539 0-.726.413v2.391h-.786V72.41h.75l.02.391q.284-.456.788-.456.168 0 .278.046l-.003.736zm1.868 2.217q.294 0 .488-.171t.207-.424h.74q-.013.327-.204.611-.19.281-.517.446-.326.165-.704.165-.734 0-1.163-.475-.43-.475-.43-1.312v-.08q0-.799.426-1.277.427-.482 1.164-.482.623 0 1.014.366.394.361.414.953h-.74q-.013-.3-.207-.495-.19-.193-.488-.193-.381 0-.588.277-.207.275-.21.837v.126q0 .569.204.85.206.278.594.278zm2.863.562h-.785V72.41h.785v3.496zm-.834-4.404q0-.18.114-.3.116-.12.33-.12.212 0 .329.12.116.12.116.3 0 .178-.116.297-.117.117-.33.117-.213 0-.33-.117-.113-.12-.113-.297zm3.781 4.404q-.052-.1-.09-.326-.375.39-.918.39-.527 0-.86-.3-.332-.3-.332-.743 0-.559.413-.856.417-.3 1.19-.3h.48v-.23q0-.271-.151-.433-.152-.165-.462-.165-.268 0-.44.136-.171.132-.171.34h-.785q0-.288.19-.537.191-.252.517-.394.33-.143.734-.143.614 0 .979.31.365.308.375.867v1.576q0 .472.132.753v.055h-.801zm-.863-.565q.233 0 .436-.113.207-.113.31-.304v-.66h-.423q-.436 0-.656.153-.22.152-.22.43 0 .226.15.361.151.133.403.133zm3.189.565h-.785v-4.963h.785v4.963z" font-weight="500" font-size="16.967" font-family="Roboto" letter-spacing="0" word-spacing="0" text-anchor="middle" fill="#ffb934"/></g><g style="line-height:125%"><path style="-inkscape-font-specification:'Roboto Medium';text-align:center" d="M205.26 122.71h-.815v-4.705h.814v4.705zm1.663-3.496l.023.404q.388-.469 1.018-.469 1.092 0 1.111 1.25v2.31h-.785v-2.264q0-.333-.145-.491-.142-.162-.469-.162-.475 0-.707.43v2.488h-.786v-3.496h.74zm2.808 1.722q0-.808.375-1.296.375-.49 1.005-.49.556 0 .898.387v-1.79h.786v4.963h-.711l-.04-.362q-.351.427-.94.427-.613 0-.995-.495-.378-.494-.378-1.344zm.785.068q0 .533.204.833.207.298.585.298.481 0 .704-.43v-1.493q-.216-.42-.698-.42-.38 0-.588.304-.207.3-.207.908zm5.216 1.363q-.346.408-.983.408-.568 0-.862-.333-.291-.333-.291-.963v-2.265h.785v2.255q0 .666.553.666.572 0 .772-.41v-2.511h.785v3.496h-.74l-.02-.343zm3.525-.607q0-.21-.174-.32-.172-.11-.572-.194-.401-.084-.67-.213-.587-.284-.587-.824 0-.452.38-.756.382-.304.97-.304.627 0 1.012.31.387.31.387.805h-.785q0-.226-.168-.375-.168-.152-.446-.152-.258 0-.423.12-.162.12-.162.32 0 .18.152.28.152.1.614.204.462.1.724.243.265.139.391.336.13.197.13.478 0 .472-.392.766-.39.29-1.024.29-.43 0-.766-.155t-.523-.426q-.188-.272-.188-.585h.763q.016.278.21.43.194.148.514.148.31 0 .471-.116.162-.12.162-.31zm2.436-3.396v.85h.618v.581h-.618v1.952q0 .2.078.29.08.088.284.088.136 0 .275-.032v.607q-.268.075-.517.075-.905 0-.905-.999v-1.98h-.575v-.582h.575v-.85h.785zm3.044 1.567q-.155-.026-.32-.026-.54 0-.727.414v2.39h-.785v-3.495h.75l.02.39q.284-.455.788-.455.168 0 .277.045l-.003.737zm1.332 2.779h-.786v-3.496h.786v3.496zm-.834-4.404q0-.181.113-.3.116-.12.33-.12.213 0 .33.12.115.119.115.3 0 .177-.116.297-.116.116-.33.116-.213 0-.329-.116-.113-.12-.113-.297zm3.78 4.404q-.051-.1-.09-.326-.375.39-.918.39-.526 0-.86-.3-.332-.3-.332-.743 0-.56.414-.856.416-.3 1.189-.3h.481v-.23q0-.272-.152-.433-.152-.165-.462-.165-.268 0-.44.136-.17.132-.17.339h-.786q0-.288.19-.537.192-.252.518-.394.33-.142.733-.142.614 0 .98.31.365.307.374.866v1.577q0 .472.133.753v.055h-.802zm-.862-.566q.232 0 .436-.113.207-.113.31-.303v-.66h-.423q-.436 0-.656.152-.22.152-.22.43 0 .226.149.362.152.132.404.132zm3.189.566h-.785v-4.963h.785v4.963z" font-weight="500" font-size="16.967" font-family="Roboto" letter-spacing="0" word-spacing="0" fill="#ffb934" text-anchor="middle"/></g><path d="M127.643 134.972h5.382v2.691h-5.382v-2.69zm-6.054 0h5.382v2.691h-5.382v-2.69zm9.418 3.364h5.381v2.69h-5.381v-2.69zm-6.054 0h5.38v2.69h-5.38v-2.69zm-6.055 0h5.382v2.69h-5.382v-2.69zm6.055-6.727h5.38v2.69h-5.38v-2.69zm47.709-21.711a3.748 3.748 0 1 0 0 7.496 3.748 3.748 0 0 0 0-7.496zm.294 6.115v.21c0 .17-.117.306-.314.306-.183 0-.3-.136-.3-.306v-.217c-.614-.157-1.049-.673-1.049-1.189 0-.176.151-.312.341-.312.19 0 .354.136.354.312 0 .272.047.482.354.537v-1.65l-.064-.034c-.102-.055-.182-.096-.236-.136-.421-.292-.692-.639-.692-1.128 0-.61.379-1.012.992-1.147v-.13c0-.17.117-.305.3-.305.197 0 .314.136.314.306v.129c.614.135 1.062.516 1.062 1.107 0 .17-.142.305-.332.305-.197 0-.375-.135-.375-.305 0-.21-.048-.374-.355-.442v1.467l.254.13c.536.305.82.74.82 1.317 0 .652-.46 1.066-1.074 1.175zm-.98-3.627c0 .312.213.468.366.631v-1.188c-.307.129-.367.32-.367.557zm.98 1.732v1.27c.307-.089.373-.292.373-.55 0-.286-.066-.544-.373-.72zm3.016 2.617c-.167-.045-.266.055-.221.22l.635 2.373c.045.166.18.203.302.081l.319-.319a.313.313 0 0 1 .441 0l1.753 1.753c.122.122.32.122.442 0l.19-.19a.313.313 0 0 0 0-.442l-1.753-1.752a.313.313 0 0 1 0-.442l.345-.345c.121-.121.085-.257-.081-.301l-2.372-.636zm-6.412.234c.045-.166-.054-.266-.22-.221l-2.373.636c-.166.044-.202.18-.08.301l.318.319a.313.313 0 0 1 0 .442l-1.753 1.752a.313.313 0 0 0 0 .442l.19.19c.121.122.32.122.441 0l1.754-1.752a.313.313 0 0 1 .441 0l.345.344c.121.122.257.085.301-.08l.637-2.373zm6.178-6.645c-.045.166.054.265.22.22l2.373-.635c.166-.045.202-.18.08-.302l-.318-.318a.313.313 0 0 1 0-.442l1.753-1.753a.313.313 0 0 0 0-.442l-.19-.19a.313.313 0 0 0-.442 0l-1.753 1.753a.313.313 0 0 1-.441 0l-.345-.345c-.121-.121-.257-.085-.302.081l-.636 2.373zm-6.412.234c.166.044.266-.055.221-.22l-.635-2.374c-.045-.166-.18-.202-.302-.08l-.319.318a.313.313 0 0 1-.441 0l-1.753-1.753a.313.313 0 0 0-.442 0l-.19.19a.313.313 0 0 0 0 .442l1.753 1.753a.313.313 0 0 1 0 .442l-.345.344c-.121.122-.085.257.081.302l2.372.636zm48.925 26.46h-2.147v-1.431h2.147v1.431zm3.58 0h-2.148v-1.431h2.147v1.431zm-3.58 2.864h-2.147v-1.432h2.147v1.432zm3.58 0h-2.148v-1.432h2.147v1.432zm-7.159-2.864h-2.147v-1.431h2.147v1.431zm0 2.864h-2.147v-1.432h2.147v1.432zm8.411-10.738l-1.045 4.973-5.934-1.43v1.432l-5.01-1.431v9.341h13.6v-12.885h-1.61zm-7.234-33.508h.67v2.3h-.67v-2.3zm0-3.42h.67v2.301h-.67v-2.3zm0-3.45h.67v2.3h-.67v-2.3zm0-3.418h.67v2.3h-.67v-2.3zm-1.534 2.3h-.67v-2.3h.67v2.3zm0 3.45h-.67v-2.3h.67v2.3zm0 3.42h-.67v-2.301h.67v2.3zm-2.3-6.87h-.703v-2.3h.67v2.3zm0 3.45h-.703v-2.3h.67v2.3zm0 3.42h-.703v-2.301h.67v2.3zm0 3.45h-.703v-2.3h.67v2.3zm5.527 1.246V84.197h-7.157v15.017h2.269v-3.898h2.651v3.898h2.237zm-4.217-3.227h1.278v3.227h-1.278zm10.415-.959v-1.341h.671v1.341h-.67zm-1.533-2.332h-.671v-1.31h.67v1.31zm0 2.332h-.671v-1.341h.67v1.341zm-2.3-2.332h-.672v-1.31h.671v1.31zm0 2.332h-.672v-1.341h.671v1.341zm3.833-3.642h.671v1.342h-.67v-1.342zm1.662 7.828v-8.946h-7.157v8.946h1.15v-3.61h4.857v3.61h1.15zm-5.336-2.94h3.515v2.94h-3.515zm-41.615 63.568v5.802h-3.072v1.024h-5.46v-1.024h-3.072v-5.802h2.935l2.867-2.294 2.867 2.294h2.935zm-7.167 1.023v4.437h2.73v-4.437h-2.73zm-4.096-7.167h10.922l2.048 4.778h-4.164l-3.345-2.676-3.346 2.676h-4.163l2.048-4.778z" fill="#fff"/><g style="line-height:125%"><path style="-inkscape-font-specification:'Roboto Medium';text-align:center" d="M163.598 189.134q-.07.753-.556 1.176-.484.42-1.289.42-.562 0-.992-.265-.426-.268-.659-.76-.233-.49-.242-1.14v-.44q0-.665.236-1.172.235-.508.675-.782.443-.275 1.021-.275.779 0 1.254.423.475.424.552 1.196h-.814q-.058-.507-.297-.73-.236-.227-.695-.227-.533 0-.82.391-.285.388-.292 1.141v.417q0 .763.272 1.163.274.4.801.4.482 0 .724-.216t.307-.72h.814zm.504-.249q0-.514.204-.924.203-.414.572-.633.368-.223.846-.223.708 0 1.148.455.442.456.478 1.209l.003.184q0 .517-.2.924-.198.407-.57.63-.368.223-.852.223-.74 0-1.186-.491-.443-.495-.443-1.315v-.039zm.786.068q0 .54.222.846.223.304.62.304.398 0 .618-.31.223-.31.223-.908 0-.53-.23-.84-.226-.31-.617-.31-.384 0-.61.307-.226.303-.226.91zm3.874-1.783l.022.364q.369-.43 1.009-.43.7 0 .96.537.38-.536 1.072-.536.578 0 .86.32.284.32.29.943v2.297h-.785v-2.274q0-.333-.145-.488-.146-.155-.482-.155-.268 0-.44.145-.167.142-.235.375l.003 2.397h-.785v-2.3q-.016-.617-.63-.617-.472 0-.67.384v2.533h-.784v-3.496h.74zm8.088 1.783q0 .81-.369 1.296-.368.481-.988.481-.576 0-.921-.378v1.658h-.786v-4.84h.724l.033.355q.345-.42.94-.42.64 0 1.001.478.366.475.366 1.321v.049zm-.782-.068q0-.523-.21-.83-.207-.307-.595-.307-.481 0-.691.397v1.551q.213.407.698.407.374 0 .584-.3.214-.304.214-.918zm2.278 1.78h-.785v-4.963h.785v4.963zm2.397.065q-.746 0-1.211-.469-.462-.471-.462-1.253v-.097q0-.524.2-.934.203-.414.569-.643.365-.23.814-.23.714 0 1.102.456.39.456.39 1.29v.316h-2.284q.036.433.288.685.255.252.64.252.54 0 .878-.436l.424.404q-.21.313-.563.488-.348.171-.785.171zm-.093-2.995q-.324 0-.524.226-.197.226-.252.63h1.496v-.058q-.026-.394-.21-.595-.184-.203-.51-.203zm3.363.585l.666-1.15h.872l-1.07 1.721 1.106 1.774h-.866l-.698-1.195-.695 1.195h-.872l1.105-1.774-1.066-1.722h.866l.652 1.15z" font-weight="500" font-size="16.967" font-family="Roboto" letter-spacing="0" word-spacing="0" fill="#ff2650" text-anchor="middle"/></g><circle r="12.687" cy="206.72" cx="172.649" fill="#ff2650"/><circle cx="217.893" cy="183.171" r="12.687" fill="#ffb934"/><g style="line-height:125%"><path style="-inkscape-font-specification:'Roboto Medium';text-align:center" d="M201.167 165.643q-.071.753-.556 1.176-.485.42-1.29.42-.561 0-.991-.265-.427-.268-.66-.76-.232-.49-.242-1.14v-.44q0-.665.236-1.172.236-.508.675-.782.443-.275 1.022-.275.778 0 1.253.423.475.424.553 1.196h-.814q-.059-.507-.298-.73-.236-.227-.694-.227-.534 0-.821.391-.285.388-.291 1.141v.417q0 .762.271 1.163.275.4.802.4.481 0 .724-.216.242-.216.307-.72h.814zm.503-.249q0-.514.204-.924.204-.414.572-.634.369-.223.847-.223.708 0 1.147.456.443.456.478 1.209l.003.184q0 .517-.2.924-.197.407-.569.63-.368.223-.853.223-.74 0-1.186-.491-.442-.495-.442-1.315v-.04zm.786.068q0 .54.223.846.223.304.62.304.398 0 .618-.31.223-.31.223-.908 0-.53-.23-.84-.226-.31-.617-.31-.385 0-.61.307-.227.303-.227.91zm3.864-1.784l.023.404q.388-.469 1.018-.469 1.092 0 1.112 1.25v2.311h-.786v-2.265q0-.333-.145-.491-.142-.162-.468-.162-.475 0-.708.43v2.488h-.785v-3.496h.74zm2.809 1.722q0-.807.374-1.295.375-.492 1.005-.492.556 0 .899.388v-1.79h.785v4.963h-.711l-.039-.362q-.352.427-.94.427-.614 0-.995-.494-.378-.495-.378-1.345zm.785.068q0 .533.203.834.207.297.585.297.482 0 .705-.43v-1.492q-.217-.42-.698-.42-.382 0-.588.303-.207.3-.207.908zm2.95-.074q0-.514.204-.924.203-.414.571-.634.369-.223.847-.223.708 0 1.147.456.443.456.478 1.209l.003.184q0 .517-.2.924-.197.407-.569.63-.368.223-.853.223-.74 0-1.185-.491-.443-.495-.443-1.315v-.04zm.785.068q0 .54.223.846.223.304.62.304.398 0 .618-.31.223-.31.223-.908 0-.53-.23-.84-.226-.31-.617-.31-.384 0-.61.307-.227.303-.227.91zm3.874-1.784l.023.365q.368-.43 1.008-.43.701 0 .96.537.381-.537 1.073-.537.578 0 .86.32.284.32.29.944v2.297h-.785V164.9q0-.332-.146-.487-.145-.156-.481-.156-.268 0-.44.146-.168.142-.235.375l.003 2.397h-.785v-2.3q-.017-.618-.63-.618-.472 0-.67.385v2.533h-.785v-3.496h.74zm5.862 3.496h-.785v-3.496h.785v3.496zm-.834-4.404q0-.18.113-.3.117-.12.33-.12.213 0 .33.12.116.12.116.3 0 .178-.116.297-.117.117-.33.117-.213 0-.33-.117-.113-.12-.113-.297zm2.42.908l.023.404q.388-.469 1.018-.469 1.092 0 1.111 1.25v2.311h-.785v-2.265q0-.333-.145-.491-.142-.162-.469-.162-.475 0-.707.43v2.488h-.785v-3.496h.74zm3.791 3.496h-.785v-3.496h.785v3.496zm-.834-4.404q0-.18.113-.3.116-.12.33-.12.213 0 .33.12.116.12.116.3 0 .178-.117.297-.116.117-.33.117-.213 0-.329-.117-.113-.12-.113-.297zm3.81 4.062q-.346.407-.983.407-.568 0-.862-.333-.291-.333-.291-.963v-2.265h.785v2.255q0 .666.553.666.572 0 .772-.41v-2.51h.785v3.495h-.74l-.02-.342zm2.304-3.154l.022.365q.369-.43 1.008-.43.702 0 .96.537.381-.537 1.073-.537.578 0 .86.32.284.32.29.944v2.297h-.785V164.9q0-.332-.145-.487-.146-.156-.482-.156-.268 0-.44.146-.167.142-.235.375l.003 2.397h-.785v-2.3q-.016-.618-.63-.618-.472 0-.67.385v2.533h-.784v-3.496h.74z" font-weight="500" font-size="16.967" font-family="Roboto" letter-spacing="0" word-spacing="0" fill="#ffb934" text-anchor="middle"/></g><path d="M224.3 190.59h-2.36v-.674a.674.674 0 0 0-.674-.675h-1.349a.674.674 0 0 0-.675.675v.674a.674.674 0 0 0-.674-.674h-1.349a.674.674 0 0 0-.674.674v-.674a.674.674 0 0 0-.675-.675h-1.349a.674.674 0 0 0-.674.675v.674h-2.36a.337.337 0 0 0 0 .675H224.3a.337.337 0 0 0 0-.675zm-5.732-1.349a.674.674 0 0 1-.675.675.674.674 0 0 1-.674-.675.674.674 0 0 1 .674-.674.674.674 0 0 1 .675.674zm2.698-.674a.674.674 0 0 1-.675.674.674.674 0 0 1-.674-.674.674.674 0 0 1 .674-.675.674.674 0 0 1 .675.675zm-5.396 0a.674.674 0 0 1-.674.674.674.674 0 0 1-.675-.674.674.674 0 0 1 .675-.675.674.674 0 0 1 .674.675zm8.43-2.023h-2.36v-.675a.674.674 0 0 0-.674-.674h-1.349a.674.674 0 0 0-.675.674v.675a.674.674 0 0 0-.674-.675h-1.349a.674.674 0 0 0-.674.675v-.675a.674.674 0 0 0-.675-.674h-1.349a.674.674 0 0 0-.674.674v.675h-2.36a.337.337 0 0 0 0 .674H224.3a.337.337 0 0 0 0-.674zm-5.732-1.35a.674.674 0 0 1-.675.675.674.674 0 0 1-.674-.674.674.674 0 0 1 .674-.675.674.674 0 0 1 .675.675zm2.698-.674a.674.674 0 0 1-.675.675.674.674 0 0 1-.674-.675.674.674 0 0 1 .674-.674.674.674 0 0 1 .675.674zm-5.396 0a.674.674 0 0 1-.674.675.674.674 0 0 1-.675-.675.674.674 0 0 1 .675-.674.674.674 0 0 1 .674.674zm8.43-2.023h-2.36v-.674a.674.674 0 0 0-.674-.675h-1.349a.674.674 0 0 0-.675.675v.674a.674.674 0 0 0-.674-.674h-1.349a.674.674 0 0 0-.674.674v-.674a.674.674 0 0 0-.675-.675h-1.349a.674.674 0 0 0-.674.675v.674h-2.36a.337.337 0 0 0 0 .674H224.3a.337.337 0 0 0 0-.674zm-6.407-7.419l-8.093 3.372v.675l8.093-2.698 8.094 2.698v-.675zm.675 6.07a.674.674 0 0 1-.675.675.674.674 0 0 1-.674-.675.674.674 0 0 1 .674-.674.674.674 0 0 1 .675.674zm2.698-.674a.674.674 0 0 1-.675.674.674.674 0 0 1-.674-.674.674.674 0 0 1 .674-.675.674.674 0 0 1 .675.675zm-5.396 0a.674.674 0 0 1-.674.674.674.674 0 0 1-.675-.674.674.674 0 0 1 .675-.675.674.674 0 0 1 .674.675zm-41.446 23.358h-3.129c-.625 0-.625 0-.625.626v1.251c0 .626 0 .626.625.626h3.13c.625 0 .625 0 .625-.626v-1.251c0-.626 0-.626-.626-.626zm-5.632 0h-2.879c-.626 0-.626 0-.626.626v1.251c0 .626 0 .626.626.626h2.88c.625 0 .625 0 .625-.626v-1.251c0-.626 0-.626-.626-.626zm10.89 0h-2.754c-.626 0-.626 0-.626.626v1.251c0 .626 0 .626.626.626h2.753c.626 0 .626 0 .626-.626v-1.251c0-.626 0-.626-.626-.626zm-5.258-3.755h-3.129c-.625 0-.625 0-.625.626v1.251c0 .626 0 .626.625.626h3.13c.625 0 .625 0 .625-.626v-1.251c0-.626 0-.626-.626-.626zm-5.632 0h-2.879c-.626 0-.626 0-.626.626v1.251c0 .626 0 .626.626.626h2.88c.625 0 .625 0 .625-.626v-1.251c0-.626 0-.626-.626-.626zm10.89 0h-2.754c-.626 0-.626 0-.626.626v1.251c0 .626 0 .626.626.626h2.753c.626 0 .626 0 .626-.626v-1.251c0-.626 0-.626-.626-.626zm-5.258 11.265h-3.129c-.625 0-.625 0-.625.626v1.251c0 .626 0 .626.625.626h3.13c.625 0 .625 0 .625-.626v-1.251c0-.626 0-.626-.626-.626zm-5.632 0h-2.879c-.626 0-.626 0-.626.626v1.251c0 .626 0 .626.626.626h2.88c.625 0 .625 0 .625-.626v-1.251c0-.626 0-.626-.626-.626zm10.89 0h-2.754c-.626 0-.626 0-.626.626v1.251c0 .626 0 .626.626.626h2.753c.626 0 .626 0 .626-.626v-1.251c0-.626 0-.626-.626-.626zm-5.258-3.755h-3.129c-.625 0-.625 0-.625.626v1.251c0 .626 0 .626.625.626h3.13c.625 0 .625 0 .625-.626v-1.251c0-.626 0-.626-.626-.626zm-5.632 0h-2.879c-.626 0-.626 0-.626.626v1.251c0 .626 0 .626.626.626h2.88c.625 0 .625 0 .625-.626v-1.251c0-.626 0-.626-.626-.626zm10.89 0h-2.754c-.626 0-.626 0-.626.626v1.251c0 .626 0 .626.626.626h2.753c.626 0 .626 0 .626-.626v-1.251c0-.626 0-.626-.626-.626z" fill="#fff"/></g></svg>