<svg xmlns="http://www.w3.org/2000/svg" width="255" height="110" viewBox="0 0 255 110"><g transform="translate(-106.01 -183.597)"><path fill="none" d="M106.01 183.597h255v110h-255z"/><path d="M235.816 244.444v15.466H200.65a8.11 8.11 0 0 1-8.156-8.157v-6.855h-2.56v6.855c0 5.915 4.802 10.716 10.716 10.716h72.89c5.915 0 10.717-4.801 10.717-10.716v-6.855h-2.56v6.855a8.111 8.111 0 0 1-8.157 8.157h-35.164v-15.466z" fill="#ffee5a"/><rect width="20.477" height="20.477" x="226.857" y="210.771" ry="1.15" fill="#ff2650"/><path d="M233.184 215.769a1.22 1.25 0 0 1 1.22 1.25 1.22 1.25 0 0 1-1.22 1.248 1.22 1.25 0 0 1-1.22-1.249 1.22 1.25 0 0 1 1.22-1.25zm7.823 0a1.22 1.25 0 0 1 1.22 1.25 1.22 1.25 0 0 1-1.22 1.248 1.22 1.25 0 0 1-1.22-1.249 1.22 1.25 0 0 1 1.22-1.25zm-7.165 4.851c0 1.796 1.72 3.253 3.254 3.253 1.533 0 3.253-1.457 3.253-3.254h-3.253z" fill="#1a1a1a"/><circle r="10.238" cy="221.01" cx="192.1" fill="#ffb934"/><path d="M188.472 222.414a3.628 3.62 0 0 0 3.628 3.62 3.628 3.62 0 0 0 3.628-3.62h-1.145a2.483 2.477 0 0 1-2.483 2.477 2.483 2.477 0 0 1-2.483-2.477h-1.145zm.291-5.404a1.36 1.39 0 0 1 1.36 1.39 1.36 1.39 0 0 1-1.36 1.39 1.36 1.39 0 0 1-1.36-1.39 1.36 1.39 0 0 1 1.36-1.39zm6.674 0a1.36 1.39 0 0 1 1.36 1.39 1.36 1.39 0 0 1-1.36 1.39 1.36 1.39 0 0 1-1.36-1.39 1.36 1.39 0 0 1 1.36-1.39z" fill="#1a1a1a"/><path d="M188.472 222.414a3.628 3.62 0 0 0 3.628 3.62 3.628 3.62 0 0 0 3.628-3.62h-1.145a2.483 2.477 0 0 1-2.483 2.477 2.483 2.477 0 0 1-2.483-2.477h-1.145zm.291-5.404a1.36 1.39 0 0 1 1.36 1.39 1.36 1.39 0 0 1-1.36 1.39 1.36 1.39 0 0 1-1.36-1.39 1.36 1.39 0 0 1 1.36-1.39zm6.674 0a1.36 1.39 0 0 1 1.36 1.39 1.36 1.39 0 0 1-1.36 1.39 1.36 1.39 0 0 1-1.36-1.39 1.36 1.39 0 0 1 1.36-1.39z" fill="#1a1a1a"/><path d="M290.096 231.248l-13.268-.12-3.985-12.656 10.804-7.7 10.663 7.895z" fill="#ff6433"/><circle cx="237.096" cy="260.698" r="5.123" fill="#bd1939"/><path d="M280.361 222.013a3.215 3.208 0 0 0 3.215 3.207 3.215 3.208 0 0 0 3.215-3.207h-1.015a2.2 2.195 0 0 1-2.2 2.195 2.2 2.195 0 0 1-2.2-2.195h-1.015z" fill="#1a1a1a"/><rect ry=".716" y="219.247" x="277.575" height="1.432" width="3.838" fill="#1a1a1a"/><rect width="3.838" height="1.432" x="285.74" y="219.247" ry=".716" fill="#1a1a1a"/><circle cx="191.21" cy="242.638" r="2.715" fill="#bd1939"/><circle r="2.715" cy="242.638" cx="237.095" fill="#bd1939"/><circle cx="282.845" cy="242.638" r="2.715" fill="#bd1939"/><path d="M237.498 267.146l7.037 6.094h8.373a3.831 3.831 0 0 1 3.84 3.84v7.678a3.831 3.831 0 0 1-3.84 3.84h-21.885a3.831 3.831 0 0 1-3.84-3.84v-7.679a3.831 3.831 0 0 1 3.84-3.84h6.475v-6.093z" fill="#f2f2f2"/><path style="line-height:125%;-inkscape-font-specification:'Roboto Medium'" d="M238.649 279.359h-1.39v3.833h-.768v-3.833h-1.378v-.625h3.536v.625zm1.981 3.833q-.05-.095-.086-.31-.355.371-.87.371-.498 0-.814-.285-.315-.284-.315-.704 0-.53.392-.811.395-.285 1.126-.285h.457v-.217q0-.257-.144-.41-.144-.157-.438-.157-.254 0-.416.129-.163.126-.163.321h-.744q0-.272.181-.508.18-.238.49-.373.312-.135.695-.135.581 0 .927.294.346.29.355.82v1.494q0 .447.126.714v.052h-.76zm-.818-.536q.22 0 .414-.107.196-.107.293-.288v-.624h-.4q-.414 0-.622.143-.208.144-.208.408 0 .214.14.342.145.126.383.126zm3.022.536h-.744v-4.703h.744v4.703zm1.889-1.421l-.33.34v1.08h-.745v-4.702h.744v2.713l.233-.291.915-1.032h.894l-1.23 1.381 1.362 1.932h-.86l-.983-1.42zm2.982.107h-.64l-.07-3.144h.783l-.073 3.144zm-.732.962q0-.175.113-.288.113-.116.31-.116.195 0 .309.116.113.113.113.288 0 .168-.11.281-.11.114-.313.114-.202 0-.312-.114-.11-.113-.11-.281z" font-weight="500" font-family="Roboto" letter-spacing="0" word-spacing="0" fill="gray"/><path d="M191.96 210.049l-7.036-6.094h-8.374a3.831 3.831 0 0 1-3.839-3.84v-7.678a3.831 3.831 0 0 1 3.84-3.84h21.884a3.831 3.831 0 0 1 3.84 3.84v7.679a3.831 3.831 0 0 1-3.84 3.839h-6.475v6.094z" fill="#f2f2f2"/><path style="line-height:125%;-inkscape-font-specification:'Roboto Medium'" d="M183.312 198.628h-.771v-1.98h-1.993v1.98h-.774v-4.457h.774v1.855h1.993v-1.855h.771v4.457zm2.306.062q-.707 0-1.148-.445-.438-.447-.438-1.188v-.091q0-.496.19-.885.193-.392.539-.61.345-.217.771-.217.677 0 1.044.432.37.432.37 1.221v.3h-2.164q.034.41.272.65.242.238.607.238.51 0 .832-.413l.401.383q-.199.297-.532.462-.331.162-.744.162zm-.09-2.839q-.305 0-.495.215-.187.214-.239.597h1.418v-.056q-.025-.373-.2-.563-.174-.193-.483-.193zm2.79 2.777h-.744v-4.702h.744v4.702zm1.604 0h-.744v-4.702h.744v4.702zm.673-1.687q0-.487.193-.875.193-.392.542-.6.35-.212.802-.212.67 0 1.087.432.42.432.453 1.145l.003.174q0 .49-.19.876-.186.386-.538.597-.35.211-.809.211-.7 0-1.123-.465-.42-.469-.42-1.246v-.037zm.744.064q0 .512.212.802.21.288.587.288t.585-.294q.211-.294.211-.86 0-.502-.217-.796-.214-.294-.585-.294-.364 0-.578.291-.215.288-.215.863z" font-weight="500" font-family="Roboto" letter-spacing="0" word-spacing="0" fill="gray"/><path d="M237.01 210.049l-7.037-6.094H221.6a3.831 3.831 0 0 1-3.84-3.84v-7.678a3.831 3.831 0 0 1 3.84-3.84h21.884a3.831 3.831 0 0 1 3.84 3.84v7.679a3.831 3.831 0 0 1-3.84 3.839h-6.475v6.094z" fill="#f2f2f2"/><path style="line-height:125%;-inkscape-font-specification:'Roboto Mono Medium'" d="M222.317 197.736v-3.578h1.143q.258.003.482.059.226.056.393.174.17.118.265.303.096.181.094.432-.003.265-.148.455-.145.186-.39.29.15.041.265.12.118.076.196.184.079.108.12.241.043.13.043.278 0 .255-.094.45-.093.194-.26.324-.165.13-.393.199-.227.066-.49.069h-1.226zm.593-1.622v1.14h.643q.14-.003.256-.042.115-.042.199-.113.083-.071.13-.174.05-.103.05-.231 0-.135-.043-.241-.041-.108-.12-.182-.079-.074-.192-.113-.113-.042-.253-.044h-.67zm0-.45h.565q.132-.003.245-.034.116-.035.2-.099.083-.066.132-.16.05-.095.05-.218 0-.135-.047-.23-.047-.097-.133-.158-.084-.062-.2-.089-.115-.03-.252-.032h-.56v1.02zm2.57-.587h1.418v2.172h.788v.487h-2.206v-.487h.825v-1.683h-.825v-.49zm.776-.688q0-.138.089-.226.088-.091.248-.091.162 0 .25.09.092.09.092.227t-.091.228q-.089.089-.251.089-.16 0-.248-.089-.089-.09-.089-.228zm4.441 2.044q0 .29-.07.538-.068.249-.2.43-.133.18-.328.283-.191.1-.442.1-.226 0-.4-.073-.172-.074-.298-.211v1.258h-.587v-3.681h.54l.025.268q.128-.153.302-.234.177-.083.41-.083.254 0 .448.098.197.098.33.278.132.177.2.427.07.248.07.55v.052zm-.588-.051q0-.18-.037-.337-.036-.16-.113-.278-.076-.12-.194-.189-.118-.069-.28-.069-.196 0-.324.084t-.202.224v1.189q.074.138.2.224.127.086.331.086.162 0 .28-.072.118-.071.192-.191.076-.12.11-.28.037-.16.037-.34v-.051zm4.278 1.354v-3.578h1.143q.258.003.482.059.226.056.393.174.17.118.265.303.096.181.094.432-.003.265-.148.455-.145.186-.39.29.15.041.265.12.118.076.196.184.079.108.12.241.043.13.043.278 0 .255-.094.45-.093.194-.26.324-.165.13-.393.199-.226.066-.49.069h-1.226zm.593-1.622v1.14h.643q.14-.003.256-.042.115-.042.199-.113.083-.071.13-.174.05-.103.05-.231 0-.135-.042-.241-.042-.108-.12-.182-.08-.074-.193-.113-.113-.042-.253-.044h-.67zm0-.45h.565q.132-.003.245-.034.116-.035.2-.099.083-.066.132-.16.05-.095.05-.218 0-.135-.047-.23-.047-.097-.133-.158-.084-.062-.2-.089-.115-.03-.252-.032h-.56v1.02zm2.57-.587h1.418v2.172h.789v.487h-2.207v-.487h.826v-1.683h-.826v-.49zm.776-.688q0-.138.089-.226.088-.091.248-.091.162 0 .25.09.092.09.092.227t-.091.228q-.089.089-.25.089-.16 0-.25-.089-.088-.09-.088-.228zm4.441 2.044q0 .29-.07.538-.068.249-.2.43-.133.18-.327.283-.192.1-.443.1-.226 0-.4-.073-.172-.074-.298-.211v1.258h-.587v-3.681h.54l.025.268q.128-.153.303-.234.176-.083.41-.083.253 0 .447.098.197.098.33.278.132.177.2.427.07.248.07.55v.052zm-.588-.051q0-.18-.037-.337-.036-.16-.113-.278-.076-.12-.194-.189-.118-.069-.28-.069-.196 0-.324.084t-.202.224v1.189q.074.138.2.224.127.086.331.086.162 0 .28-.072.118-.071.192-.191.076-.12.11-.28.037-.16.037-.34v-.051z" font-weight="500" font-family="Roboto Mono" letter-spacing="0" word-spacing="0" fill="gray"/><path d="M283.594 210.049l-7.036-6.094h-8.373a3.831 3.831 0 0 1-3.84-3.84v-7.678a3.831 3.831 0 0 1 3.84-3.84h21.884a3.831 3.831 0 0 1 3.84 3.84v7.679a3.831 3.831 0 0 1-3.84 3.839h-6.475v6.094z" fill="#f2f2f2"/><path style="line-height:125%;-inkscape-font-specification:'Roboto Medium'" d="M274.62 193.558l.49.147q-.269.71-.636 1.396v4.09h-.49v-3.306q-.294.392-.612.735l-.245-.49q1.053-1.225 1.494-2.572zm1.25 0l.465.147q-.098.417-.245.784h2.67v.465q-.22.49-.515.93l-.392-.268q.22-.343.368-.662h-2.302q-.22.613-.613 1.2l-.416-.318q.686-1.053.98-2.278zm.857 1.837h.49v3.208q0 .343-.123.466-.122.147-.465.147-.441 0-.784-.05l-.098-.49q.441.074.882.074.098 0 .098-.22v-3.135zm1.42.808q.441 1.004.588 2.058l-.514.146q-.147-1.126-.539-2.081l.465-.123zm-2.424 0l.465.123q-.147 1.15-.784 2.13l-.44-.244q.612-1.005.759-2.009zm4.677-2.645l.441.098-.171 1.004h.955q-.073 1.862-.563 2.988.343.392.661.809l-.416.318q-.22-.367-.49-.686-.539.76-1.053 1.127l-.294-.417q.563-.391 1.004-1.126-.367-.441-.808-.833.245-.833.416-1.714h-.612v-.466h.735l.196-1.102zm.294 3.674q.343-.808.417-2.106h-.54q-.195.857-.39 1.567.268.27.513.539zm1.274-3.453h2.816v.514q-.538.637-1.175 1.176v.563h1.518v.465h-1.518v2.253q0 .22-.147.319-.123.122-.416.122-.27 0-.515-.049l-.073-.44q.196.048.465.048.245 0 .245-.073v-2.18h-1.592v-.465h1.592v-.808q.588-.49 1.029-.98h-2.23v-.465z" font-weight="500" font-family="Roboto" letter-spacing="0" word-spacing="0" fill="gray"/></g></svg>