<svg xmlns="http://www.w3.org/2000/svg" height="255" width="240" viewBox="0 0 224.99973 239.0625"><path d="M0 0h55.698v97.952z" fill="#ff6433" fill-rule="evenodd"/><path d="M0 187.5h55.698V93.75z" fill="#bd1939" fill-rule="evenodd"/><path d="M55.698 0v80.02l56.8 58.182 56.804-58.183V0L112.5 57.703z" fill="#fff"/><path d="M225 0h-55.7v187.5H225z" fill="#fff"/><path d="M0 187.5l55.698-93.75L0 0z" fill="#ff2650" fill-rule="evenodd"/><path d="M225 187.5l-55.698-93.75v93.75z" fill="#ff6433" fill-rule="evenodd"/><path d="M225 0h-55.698v93.75z" fill="#ffee5a" fill-rule="evenodd"/><path d="M225 187.5V0l-55.698 93.75zM112.5 57.702L55.698 0v80.02z" fill="#ffb934" fill-rule="evenodd"/><path d="M112.5 57.702v80.5L55.697 80.02z" fill="#ffee5a" fill-rule="evenodd"/><path d="M112.5 57.702l56.802 22.317L112.5 138.2z" fill="#bd1939" fill-rule="evenodd"/><path d="M112.5 57.702l56.8-57.7.002 80.017z" fill="#ff2650" fill-rule="evenodd"/><path d="M22.848 238.867v-23.08h-3.05l-8.374 14.986-8.34-14.985H0v23.08h2.92V221.02l7.693 13.687h1.655l7.66-13.686v17.85h2.92zm6.202 0l2.693-6.76h9.67l2.728 6.76h3.12l-9.44-23.08h-2.41l-9.47 23.08h3.12zm11.715-9.036h-8.438l4.284-10.66 4.16 10.67zm6.872-14.04l8.666 11.7-8.406 11.38h3.245l6.75-9.29 6.752 9.3h3.213L59.45 227.5l8.666-11.7h-3.213l-7.01 9.62-7.01-9.62h-3.246zm34.14 23.08v-8.29h6.102l5.25 8.29h3.31l-5.58-8.84c2.92-.75 4.83-3.64 4.83-6.86 0-3.64-2.92-7.38-6.98-7.38h-9.86v23.08h2.92zm0-20.48h6.783c2.24 0 4.187 2.18 4.187 4.78 0 2.54-1.59 4.81-3.992 4.81h-6.978v-9.59zm27.853 20.64c6.232 0 10.873-5.52 10.873-11.67 0-5.78-4.35-11.73-10.808-11.73-6.23 0-10.905 5.56-10.905 11.7 0 5.92 4.382 11.71 10.84 11.71zm-7.886-11.7c0-4.48 3.018-9.03 7.92-9.03 4.672 0 7.885 4.33 7.885 9.04 0 4.46-2.99 9.07-7.89 9.07-4.77 0-7.92-4.35-7.92-9.07zm25.8 8.94v-7.96h10.807v-2.44h-10.8v-7.47h12.43v-2.6h-15.35v23.08h15.65v-2.6h-12.73zm15.396-9.1c0 5.85 4.48 11.9 10.807 11.9 3.57 0 7.692-1.91 9.153-5.36l-2.434-1.33c-1.33 2.86-4.187 4.07-6.59 4.07-4.575 0-7.983-4.324-7.983-9.135 0-4.355 2.76-9.003 7.887-9.003 2.337 0 5.03.976 6.394 3.9l2.304-1.494c-1.428-2.96-4.48-5.04-8.568-5.04-6.946 0-10.97 5.92-10.97 11.51zm26.568 11.7v-7.05l3.99-4.16 8.375 11.22h3.18l-9.768-12.9 9.25-10.172h-3.15l-11.877 12.77v-12.75h-2.92v23.05h2.92zm21.045-2.6v-7.96h10.807v-2.44h-10.807v-7.47h12.43v-2.6h-15.35v23.08h15.642v-2.6h-12.722zm19.777 2.6v-8.29h6.102l5.257 8.29H225l-5.582-8.84c2.92-.75 4.835-3.64 4.835-6.86 0-3.64-2.92-7.38-6.977-7.38h-9.867v23.08h2.92zm0-20.48h6.783c2.24 0 4.187 2.18 4.187 4.78 0 2.54-1.59 4.81-3.992 4.81h-6.978v-9.59z" style="line-height:125%;-inkscape-font-specification:'Raleway Medium';text-align:start" font-weight="500" font-family="Raleway" letter-spacing="0" word-spacing="0" fill="gray"/></svg>