<svg xmlns="http://www.w3.org/2000/svg" width="512" height="302.08"><g transform="translate(-102.857 -393.14)"><rect width="512" height="302.08" x="102.857" y="393.139" rx="0" ry="0" fill="#fff"/><path d="M130.154 478.9H587.56c3.422 0 6.177 2.604 6.177 5.84V659.3c0 3.235-2.755 5.84-6.176 5.84H130.155c-3.422 0-6.177-2.605-6.177-5.84V484.74c0-3.236 2.755-5.84 6.177-5.84z" fill="#dcedc8"/><path d="M552.075 597.94c0 5.478-17.848 9.92-39.865 9.92-22.017 0-39.865-4.442-39.865-9.92 0-5.48 17.848-9.92 39.865-9.92 22.017 0 39.865 4.44 39.865 9.92zM290.377 643.38c0 8.482-33.668 15.36-75.2 15.36-41.532 0-75.2-6.878-75.2-15.36 0-8.484 33.668-15.36 75.2-15.36 41.532 0 75.2 6.876 75.2 15.36z" fill="#c5e1a5"/><path d="M180.995 423.22h67.68c3.236 0 5.84 2.604 5.84 5.84V601.7c0 3.235-2.604 5.84-5.84 5.84h-67.68c-3.235 0-5.84-2.605-5.84-5.84V429.06c0-3.236 2.605-5.84 5.84-5.84z" fill="#3f51b5"/><path d="M483.695 512.113h57.03c2.837 0 5.12 2.284 5.12 5.12v57.03c0 2.838-2.283 5.12-5.12 5.12h-57.03c-2.837 0-5.12-2.282-5.12-5.12v-57.03c0-2.836 2.283-5.12 5.12-5.12z" fill="#e91e63"/><g fill="#1a1a1a"><path d="M212.553 507.22c0 3.667-2.973 6.64-6.64 6.64s-6.64-2.973-6.64-6.64c0-3.668 2.973-6.64 6.64-6.64s6.64 2.972 6.64 6.64zM249.353 507.22c0 3.667-2.973 6.64-6.64 6.64s-6.64-2.973-6.64-6.64c0-3.668 2.973-6.64 6.64-6.64s6.64 2.972 6.64 6.64z"/></g><path d="M243.546 536.9c0 10.624-8.61 19.235-19.233 19.235-10.622 0-19.233-8.61-19.233-19.234h19.233z" fill="#1a1a1a"/><path d="M181.84 532.663c-9.338 0-16.695 3.383-21.783 8.4-5.088 5.017-8.006 11.416-9.744 17.584-3.475 12.335-2.38 24.304-2.38 24.304a4.482 4.482 0 1 0 8.932-.755s-.853-10.728 2.072-21.112c1.463-5.192 3.84-10.16 7.392-13.664 3.55-3.504 8.21-5.797 15.51-5.797a4.48 4.48 0 1 0 0-8.96zM199.425 595.327a4.48 4.48 0 0 0-4.396 4.536v39.032h-.645a4.48 4.48 0 1 0 0 8.96h5.124a4.48 4.48 0 0 0 4.48-4.48v-43.512a4.48 4.48 0 0 0-4.565-4.536zM230.246 595.327a4.48 4.48 0 0 1 4.396 4.536v39.032h.644a4.48 4.48 0 1 1 0 8.96h-5.124a4.48 4.48 0 0 1-4.48-4.48v-43.512a4.48 4.48 0 0 1 4.564-4.536zM253.666 538.632c9.34 0 16.696-3.383 21.784-8.4 5.088-5.017 8.007-11.416 9.744-17.584 3.475-12.335 2.38-24.304 2.38-24.304a4.482 4.482 0 1 0-8.932.756s.853 10.727-2.072 21.112c-1.463 5.192-3.84 10.16-7.392 13.664-3.552 3.503-8.21 5.796-15.512 5.796a4.48 4.48 0 1 0 0 8.96z" style="text-indent:0;text-align:start;line-height:normal;text-transform:none;block-progression:tb;-inkscape-font-specification:Sans" color="#000" fill="#3f51b5" overflow="visible" font-family="Sans"/><path style="text-indent:0;text-align:start;line-height:normal;text-transform:none;block-progression:tb;-inkscape-font-specification:Sans" d="M546.25 544.524c7.165 0 12.81 2.595 16.713 6.445 3.903 3.848 6.143 8.758 7.476 13.49 2.665 9.464 1.825 18.646 1.825 18.646a3.44 3.44 0 1 1-6.853-.58s.654-8.23-1.59-16.197c-1.122-3.985-2.946-7.797-5.67-10.485-2.727-2.687-6.302-4.447-11.903-4.447a3.438 3.438 0 1 1 0-6.874zM525.638 560.59a3.438 3.438 0 0 1 3.373 3.48v29.946h.495a3.438 3.438 0 1 1 0 6.874h-3.93a3.438 3.438 0 0 1-3.438-3.437V564.07a3.438 3.438 0 0 1 3.5-3.48zM501.992 560.59a3.438 3.438 0 0 0-3.373 3.48v29.946h-.495a3.438 3.438 0 1 0 0 6.874h3.93a3.438 3.438 0 0 0 3.438-3.437V564.07a3.438 3.438 0 0 0-3.5-3.48zM481.813 552.54c-7.165 0-12.81-2.595-16.713-6.444-3.904-3.85-6.143-8.76-7.476-13.49-2.666-9.465-1.826-18.648-1.826-18.648a3.44 3.44 0 1 1 6.853.58s-.654 8.23 1.59 16.198c1.123 3.984 2.946 7.796 5.672 10.483 2.725 2.687 6.3 4.446 11.9 4.446a3.438 3.438 0 1 1 0 6.875z" color="#000" fill="#e91e63" overflow="visible" font-family="Sans"/><g fill="#1a1a1a"><path d="M499.13 548.33c0 2.815-2.282 5.096-5.096 5.096-2.813 0-5.094-2.28-5.094-5.095 0-2.812 2.28-5.093 5.094-5.093 2.814 0 5.095 2.28 5.095 5.094zM527.363 548.33c0 2.815-2.28 5.096-5.094 5.096-2.815 0-5.096-2.28-5.096-5.095 0-2.812 2.28-5.093 5.095-5.093 2.812 0 5.093 2.28 5.093 5.094zM518.394 558.605c0 5.657-4.586 10.242-10.242 10.242-5.657 0-10.243-4.585-10.243-10.242h10.242z"/></g><path d="M284.433 488.423a1.344 1.344 0 0 0-.728 2.324c35.126 32.88 63.617 50.925 86.688 59.444 23.07 8.52 40.767 7.475 54.012 2.185 26.49-10.58 34.944-37.884 34.944-37.884a1.346 1.346 0 1 0-2.577-.783s-8.186 26.115-33.376 36.176c-12.595 5.03-29.49 6.13-52.08-2.212-22.59-8.34-50.838-26.164-85.792-58.883a1.344 1.344 0 0 0-1.092-.364z" style="text-indent:0;text-align:start;line-height:normal;text-transform:none;block-progression:tb;-inkscape-font-specification:Sans" color="#000" fill="#6c6753" overflow="visible" font-family="Sans"/><g style="line-height:125%;-inkscape-font-specification:Droid Sans" font-size="20" letter-spacing="0" word-spacing="0" fill="#fff" font-family="Droid Sans" font-weight="bold"><path d="M207.385 450.64H205.4v7.78h-2.67v-7.78h-1.47v-1.286l1.47-.717v-.718c0-.625.076-1.14.227-1.55.152-.414.368-.743.648-.988s.618-.417 1.015-.516c.396-.105.843-.158 1.34-.158.535 0 .987.044 1.355.13.367.083.68.176.936.28l-.63 1.96c-.18-.063-.37-.12-.568-.174-.198-.052-.43-.078-.7-.078-.35 0-.598.113-.743.34-.14.223-.21.508-.21.858v.613h1.985v2.004M211.454 453.51c0 .975.137 1.71.41 2.206.275.49.72.735 1.34.735.612 0 1.055-.247 1.33-.743.274-.496.41-1.228.41-2.196 0-.974-.136-1.7-.41-2.178-.275-.484-.724-.726-1.348-.726-.612 0-1.056.242-1.33.726-.268.478-.402 1.204-.402 2.18m6.212 0c0 .815-.105 1.54-.315 2.17-.203.63-.5 1.16-.89 1.59-.386.433-.86.762-1.42.99-.553.222-1.177.332-1.87.332-.65 0-1.244-.11-1.786-.332-.543-.228-1.013-.557-1.41-.99-.39-.43-.696-.96-.918-1.59-.222-.63-.332-1.355-.332-2.17 0-.812.102-1.533.306-2.163.21-.63.507-1.16.892-1.584.39-.432.864-.76 1.418-.98.554-.222 1.18-.333 1.88-.333.65 0 1.244.11 1.786.333.543.22 1.01.548 1.4.98.397.425.706.953.928 1.583.22.63.332 1.35.332 2.16M222.2 453.51c0 .975.136 1.71.41 2.206.274.49.72.735 1.34.735.61 0 1.054-.247 1.33-.743.273-.496.41-1.228.41-2.196 0-.974-.137-1.7-.41-2.178-.276-.484-.725-.726-1.35-.726-.61 0-1.055.242-1.33.726-.267.478-.4 1.204-.4 2.18m6.21 0c0 .815-.104 1.54-.314 2.17-.204.63-.502 1.16-.892 1.59-.385.433-.858.762-1.418.99-.554.222-1.178.332-1.872.332-.648 0-1.243-.11-1.785-.332-.544-.228-1.014-.557-1.41-.99-.39-.43-.697-.96-.92-1.59-.22-.63-.33-1.355-.33-2.17 0-.812.1-1.533.305-2.163.21-.63.507-1.16.892-1.584.39-.432.864-.76 1.418-.98.554-.222 1.18-.333 1.88-.333.65 0 1.244.11 1.786.333.544.22 1.01.548 1.4.98.398.425.707.953.93 1.583.22.63.33 1.35.33 2.16" style="-inkscape-font-specification:Droid Sans Bold"/></g><g style="line-height:125%;-inkscape-font-specification:Droid Sans" font-size="20" letter-spacing="0" word-spacing="0" fill="#fff" font-family="Droid Sans" font-weight="bold"><path d="M493.74 520.507l-.36 4.62h-1.723l-.36-4.62h2.442m3.692 0l-.36 4.62h-1.723l-.36-4.62h2.442M505.22 523.333c.5 0 .96.108 1.373.324.414.216.77.537 1.068.962.298.425.53.953.692 1.583.17.63.254 1.36.254 2.188 0 .84-.085 1.578-.254 2.214-.163.63-.397 1.158-.7 1.584-.303.426-.668.747-1.094.963-.426.216-.895.324-1.41.324-.325 0-.617-.035-.874-.105-.25-.07-.475-.164-.673-.28-.198-.117-.373-.25-.524-.394-.146-.152-.28-.31-.403-.473h-.184l-.447 1.076h-2.04v-13.616h2.67v3.168c0 .192-.006.402-.017.63l-.035.62-.052.684h.105c.123-.205.263-.394.42-.57.158-.174.338-.326.543-.454.21-.134.446-.24.708-.315.263-.076.555-.114.875-.114m-.902 2.135c-.297 0-.55.056-.76.166-.205.105-.372.266-.5.482-.128.215-.222.49-.28.822-.058.327-.093.71-.105 1.146v.29c0 .472.026.892.08 1.26.057.367.15.676.28.927.127.246.296.432.506.56.215.13.48.193.796.193.53 0 .918-.25 1.163-.752.25-.507.376-1.242.376-2.204 0-.963-.126-1.683-.377-2.162-.246-.484-.64-.726-1.182-.726M516.568 533.3l-.516-1.33h-.08c-.19.262-.384.49-.576.682-.193.186-.403.34-.63.464-.228.122-.485.212-.77.27-.28.06-.607.088-.98.088-.397 0-.765-.06-1.103-.183-.338-.128-.633-.317-.884-.568-.246-.257-.438-.578-.578-.963-.14-.39-.21-.852-.21-1.383 0-1.038.332-1.803.997-2.293.664-.495 1.66-.77 2.983-.822l1.558-.053v-.736c0-.402-.116-.7-.35-.892-.233-.193-.56-.29-.98-.29-.42 0-.83.062-1.233.185-.397.122-.796.286-1.2.49l-.865-1.768c.49-.275 1.032-.49 1.627-.648.594-.158 1.22-.236 1.872-.236 1.22 0 2.152.285 2.8.857.653.572.98 1.44.98 2.608v6.52h-1.864m-.787-4.533l-.883.035c-.356.012-.656.058-.9.14-.246.082-.445.192-.596.332-.145.135-.253.298-.323.49-.064.187-.096.397-.096.63 0 .41.1.7.298.875.198.17.458.253.78.253.244 0 .47-.04.68-.122.21-.087.392-.212.544-.376.157-.17.28-.373.367-.612.087-.245.13-.525.13-.84v-.805M526.28 523.333c.07 0 .146.003.228.01.088 0 .17.005.245.017.082.006.155.014.22.026.07.006.12.014.156.026v2.503c-.047-.012-.11-.024-.193-.036-.082-.012-.17-.02-.263-.027-.087-.01-.175-.017-.262-.017-.088-.007-.16-.01-.22-.01-.343 0-.66.045-.953.132-.286.088-.534.23-.744.43-.205.19-.365.448-.482.77-.11.314-.166.702-.166 1.163v4.98h-2.67v-9.783h2.023l.394 1.47h.132c.14-.25.29-.48.455-.683.164-.204.345-.376.543-.516.204-.146.432-.257.683-.332.256-.082.548-.123.875-.123M532.064 520.507l-.358 4.62h-1.724l-.36-4.62h2.442m3.693 0l-.36 4.62h-1.723l-.358-4.62h2.44" style="-inkscape-font-specification:Droid Sans Bold"/></g></g></svg>