<svg xmlns="http://www.w3.org/2000/svg" width="2154.992" height="642.188" viewBox="0 0 2020.3051 602.05089"><path fill="#fff" d="M0 0h2020.305v602.05H0z"/><path d="M69.58 99.6h137.144v400.565H69.58z" fill="#e6e6e6"/><path d="M90.675 400.51h94.955v74.75H90.675z" fill="#999"/><g style="line-height:125%;-inkscape-font-specification:'Open Sans'" font-weight="400" font-size="24" font-family="Open Sans" letter-spacing="0" word-spacing="0" fill="#999"><path d="M80.444 75.12q0 2.6-1.78 4.007-1.77 1.395-5.075 1.395h-2.017v6.738H69.58V70.127h4.442q6.422 0 6.422 4.992zm-8.87 3.69h1.792q2.65 0 3.832-.855 1.184-.855 1.184-2.742 0-1.7-1.113-2.53-1.115-.833-3.47-.833h-2.227v6.96zM85.67 87.26h-1.944V74.416h1.945V87.26zm-2.108-16.324q0-.668.328-.973.328-.316.82-.316.47 0 .81.316.338.316.338.973 0 .656-.34.984-.34.316-.808.316-.492 0-.82-.316-.328-.328-.328-.984zM91.765 87.26H89.82V69.025h1.945V87.26zM104.702 87.26v-8.31q0-1.57-.715-2.343-.715-.773-2.238-.773-2.028 0-2.966 1.102-.926 1.1-.926 3.61v6.714h-1.945V69.025h1.945v5.52q0 .996-.094 1.652h.118q.574-.925 1.63-1.453 1.065-.54 2.424-.54 2.356 0 3.528 1.126 1.183 1.113 1.183 3.55v8.38h-1.945zM118.53 87.26l-.386-1.828h-.094q-.96 1.207-1.922 1.64-.95.422-2.38.422-1.91 0-3-.984-1.077-.985-1.077-2.8 0-3.892 6.224-4.08l2.18-.07v-.796q0-1.512-.657-2.227-.644-.726-2.074-.726-1.606 0-3.633.985l-.598-1.488q.95-.516 2.075-.81 1.136-.292 2.273-.292 2.297 0 3.398 1.02 1.114 1.02 1.114 3.27v8.765h-1.442zm-4.394-1.37q1.816 0 2.847-.997 1.043-.996 1.043-2.79v-1.16l-1.945.082q-2.32.082-3.35.727-1.02.633-1.02 1.98 0 1.055.633 1.606.644.55 1.793.55z"/></g><g style="line-height:125%;-inkscape-font-specification:'Open Sans'" font-weight="700" font-size="24" font-family="Open Sans" letter-spacing="0" word-spacing="0" fill="#fff"><path d="M115.975 431.017v1.817l-2.05.527q.562.88.562 1.97 0 2.11-1.477 3.293-1.465 1.17-4.078 1.17l-.645-.034-.527-.06q-.55.423-.55.938 0 .774 1.968.774h2.227q2.156 0 3.28.925 1.138.926 1.138 2.72 0 2.296-1.922 3.562-1.91 1.264-5.495 1.264-2.743 0-4.196-.96-1.442-.95-1.442-2.672 0-1.184.738-1.98.738-.798 2.168-1.138-.55-.234-.96-.76-.41-.54-.41-1.138 0-.75.433-1.242.433-.504 1.254-.985-1.03-.446-1.64-1.43-.598-.985-.598-2.32 0-2.145 1.395-3.317 1.394-1.172 3.984-1.172.552 0 1.302.107.762.093.973.14h4.57zm-10.113 14.953q0 .74.703 1.16.715.422 1.992.422 1.922 0 3.012-.527 1.088-.527 1.088-1.44 0-.74-.644-1.02-.645-.282-1.992-.282h-1.852q-.984 0-1.652.457-.656.47-.656 1.23zm1.3-10.664q0 1.067.48 1.688.493.62 1.49.62 1.007 0 1.476-.62.468-.62.468-1.688 0-2.367-1.945-2.367-1.968 0-1.968 2.366zM121.694 444.12h-3.575v-18.236h3.574v18.235zM128.28 437.544q0 1.946.632 2.942.645.996 2.086.996 1.43 0 2.05-.984.634-.997.634-2.954 0-1.945-.633-2.918-.634-.972-2.075-.972-1.43 0-2.063.972-.632.96-.632 2.918zm9.058 0q0 3.2-1.687 5.004-1.687 1.805-4.7 1.805-1.885 0-3.327-.82-1.44-.832-2.215-2.38-.773-1.546-.773-3.61 0-3.21 1.676-4.99 1.677-1.782 4.712-1.782 1.886 0 3.328.82 1.44.822 2.215 2.357.773 1.535.773 3.597zM147.58 430.77q2.32 0 3.633 1.817 1.313 1.805 1.313 4.957 0 3.247-1.36 5.028-1.347 1.78-3.68 1.78-2.308 0-3.62-1.675h-.247l-.598 1.442h-2.73v-18.236h3.574v4.242q0 .81-.14 2.59h.14q1.253-1.945 3.714-1.945zm-1.148 2.86q-1.324 0-1.934.82-.61.81-.632 2.684v.387q0 2.11.62 3.024.633.915 1.993.915 1.1 0 1.745-1.01.656-1.02.656-2.952 0-1.934-.655-2.895-.656-.973-1.793-.973zM163.8 444.12l-.692-1.783h-.094q-.902 1.137-1.863 1.582-.95.433-2.484.433-1.886 0-2.976-1.078-1.078-1.078-1.078-3.07 0-2.086 1.453-3.07 1.465-.997 4.406-1.102l2.274-.07v-.575q0-1.992-2.04-1.992-1.57 0-3.69.95l-1.184-2.415q2.262-1.182 5.016-1.182 2.637 0 4.043 1.148 1.405 1.148 1.405 3.492v8.73H163.8zm-1.056-6.072l-1.382.047q-1.56.047-2.32.563-.762.515-.762 1.57 0 1.512 1.734 1.512 1.242 0 1.98-.715.75-.715.75-1.898v-1.08zM173.537 444.12h-3.574v-18.236h3.574v18.235z"/></g><path d="M213.58 99.6h137.144v400.565H213.58z" fill="#e6e6e6"/><g style="line-height:125%;-inkscape-font-specification:'Open Sans'" font-weight="400" font-size="24" font-family="Open Sans" letter-spacing="0" word-spacing="0" fill="#999"><path d="M215.573 87.26h-1.992V70.127h9.552v1.77h-7.56v6.27h7.103v1.77h-7.102v7.323zM227.608 87.26h-1.945V74.416h1.945V87.26zm-2.11-16.324q0-.668.33-.973.327-.316.82-.316.468 0 .808.316t.34.973q0 .656-.34.984-.34.316-.808.316-.493 0-.82-.316-.33-.328-.33-.984zM233.702 87.26h-1.945V69.025h1.945V87.26zM245.75 87.26l-.388-1.828h-.093q-.962 1.207-1.923 1.64-.95.422-2.38.422-1.91 0-3-.984-1.077-.985-1.077-2.8 0-3.892 6.222-4.08l2.18-.07v-.796q0-1.512-.656-2.227-.645-.726-2.074-.726-1.606 0-3.633.985l-.6-1.488q.95-.516 2.075-.81 1.137-.292 2.274-.292 2.296 0 3.397 1.02 1.114 1.02 1.114 3.27v8.765h-1.44zm-4.395-1.37q1.816 0 2.847-.997 1.043-.996 1.043-2.79v-1.16l-1.945.082q-2.32.082-3.352.727-1.02.633-1.02 1.98 0 1.055.634 1.606.644.55 1.793.55z"/></g><path d="M234.675 400.51h94.955v74.75h-94.955z" fill="#d81b60"/><g style="line-height:125%;-inkscape-font-specification:'Open Sans';text-align:center" font-weight="700" font-size="24" font-family="Open Sans" letter-spacing="0" word-spacing="0" text-anchor="middle" fill="#fff"><path style="text-align:center" d="M277.043 446.468h-3.633v-14.11h-4.652v-3.023h12.938v3.024h-4.653v14.108zM295.043 437.902q0 4.488-1.476 6.644-1.465 2.157-4.524 2.157-2.965 0-4.476-2.227-1.5-2.226-1.5-6.574 0-4.535 1.464-6.68 1.466-2.156 4.513-2.156 2.965 0 4.477 2.25 1.523 2.25 1.523 6.586zm-8.38 0q0 3.152.54 4.523.55 1.36 1.84 1.36 1.266 0 1.828-1.383.564-1.383.564-4.5 0-3.152-.574-4.524-.563-1.382-1.817-1.382-1.277 0-1.828 1.382-.55 1.372-.55 4.524z"/></g><path d="M389.58 99.6h137.144v400.565H389.58z" fill="#e6e6e6"/><path d="M410.675 400.51h94.955v74.75h-94.955z" fill="#999"/><g style="line-height:125%;-inkscape-font-specification:'Open Sans'" font-weight="400" font-size="24" font-family="Open Sans" letter-spacing="0" word-spacing="0" fill="#999"><path d="M400.444 75.12q0 2.6-1.78 4.007-1.77 1.395-5.075 1.395h-2.017v6.738h-1.992V70.127h4.443q6.42 0 6.42 4.992zm-8.87 3.69h1.792q2.65 0 3.832-.855 1.184-.855 1.184-2.742 0-1.7-1.113-2.53-1.115-.833-3.47-.833h-2.227v6.96zM405.67 87.26h-1.944V74.416h1.945V87.26zm-2.108-16.324q0-.668.328-.973.328-.316.82-.316.47 0 .81.316.338.316.338.973 0 .656-.34.984-.34.316-.808.316-.492 0-.82-.316-.328-.328-.328-.984zM411.765 87.26h-1.946V69.025h1.945V87.26zM424.702 87.26v-8.31q0-1.57-.715-2.343-.714-.773-2.238-.773-2.028 0-2.966 1.102-.926 1.1-.926 3.61v6.714h-1.945V69.025h1.945v5.52q0 .996-.093 1.652h.117q.574-.925 1.63-1.453 1.065-.54 2.425-.54 2.355 0 3.527 1.126 1.184 1.113 1.184 3.55v8.38h-1.946zM438.53 87.26l-.386-1.828h-.094q-.96 1.207-1.922 1.64-.95.422-2.38.422-1.91 0-3-.984-1.077-.985-1.077-2.8 0-3.892 6.224-4.08l2.18-.07v-.796q0-1.512-.657-2.227-.644-.726-2.074-.726-1.606 0-3.633.985l-.598-1.488q.95-.516 2.075-.81 1.136-.292 2.273-.292 2.297 0 3.4 1.02 1.112 1.02 1.112 3.27v8.765h-1.442zm-4.394-1.37q1.816 0 2.847-.997 1.043-.996 1.043-2.79v-1.16l-1.945.082q-2.32.082-3.35.727-1.02.633-1.02 1.98 0 1.055.633 1.606.644.55 1.793.55z"/></g><g style="line-height:125%;-inkscape-font-specification:'Open Sans'" font-weight="700" font-size="24" font-family="Open Sans" letter-spacing="0" word-spacing="0" fill="#fff"><path d="M435.975 431.017v1.817l-2.05.527q.562.88.562 1.97 0 2.11-1.477 3.293-1.465 1.17-4.078 1.17l-.645-.034-.527-.06q-.55.423-.55.938 0 .774 1.968.774h2.227q2.156 0 3.28.925 1.138.926 1.138 2.72 0 2.296-1.922 3.562-1.91 1.264-5.495 1.264-2.743 0-4.196-.96-1.442-.95-1.442-2.672 0-1.184.738-1.98.738-.798 2.168-1.138-.55-.234-.96-.76-.41-.54-.41-1.138 0-.75.433-1.242.433-.504 1.254-.985-1.03-.446-1.64-1.43-.598-.985-.598-2.32 0-2.145 1.395-3.317 1.394-1.172 3.984-1.172.552 0 1.302.107.762.093.973.14h4.57zm-10.113 14.953q0 .74.703 1.16.715.422 1.992.422 1.922 0 3.012-.527t1.09-1.44q0-.74-.646-1.02-.645-.282-1.992-.282h-1.852q-.984 0-1.652.457-.656.47-.656 1.23zm1.3-10.664q0 1.067.48 1.688.493.62 1.49.62 1.007 0 1.476-.62.47-.62.47-1.688 0-2.367-1.947-2.367-1.968 0-1.968 2.366zM441.694 444.12h-3.575v-18.236h3.574v18.235zM448.28 437.544q0 1.946.632 2.942.645.996 2.086.996 1.43 0 2.05-.984.634-.997.634-2.954 0-1.945-.633-2.918-.634-.972-2.075-.972-1.43 0-2.063.972-.632.96-.632 2.918zm9.058 0q0 3.2-1.687 5.004-1.687 1.805-4.698 1.805-1.887 0-3.33-.82-1.44-.832-2.213-2.38-.775-1.546-.775-3.61 0-3.21 1.676-4.99 1.677-1.782 4.712-1.782 1.887 0 3.328.82 1.44.822 2.215 2.357.773 1.535.773 3.597zM467.58 430.77q2.32 0 3.633 1.817 1.313 1.805 1.313 4.957 0 3.247-1.36 5.028-1.347 1.78-3.68 1.78-2.308 0-3.62-1.675h-.247l-.598 1.442h-2.73v-18.236h3.574v4.242q0 .81-.14 2.59h.14q1.253-1.945 3.714-1.945zm-1.148 2.86q-1.324 0-1.934.82-.61.81-.632 2.684v.387q0 2.11.62 3.024.633.915 1.993.915 1.1 0 1.745-1.01.656-1.02.656-2.952 0-1.934-.655-2.895-.656-.973-1.793-.973zM483.8 444.12l-.692-1.783h-.094q-.902 1.137-1.863 1.582-.948.433-2.484.433-1.886 0-2.976-1.078-1.078-1.078-1.078-3.07 0-2.086 1.453-3.07 1.465-.997 4.406-1.102l2.275-.07v-.575q0-1.992-2.04-1.992-1.57 0-3.69.95l-1.185-2.415q2.262-1.182 5.016-1.182 2.637 0 4.043 1.148 1.405 1.148 1.405 3.492v8.73H483.8zm-1.056-6.072l-1.382.047q-1.56.047-2.32.563-.762.515-.762 1.57 0 1.512 1.734 1.512 1.242 0 1.98-.715.75-.715.75-1.898v-1.08zM493.537 444.12h-3.574v-18.236h3.574v18.235z"/></g><path d="M533.58 99.6h137.144v400.565H533.58z" fill="#e6e6e6"/><g style="line-height:125%;-inkscape-font-specification:'Open Sans'" font-weight="400" font-size="24" font-family="Open Sans" letter-spacing="0" word-spacing="0" fill="#999"><path d="M535.573 87.26h-1.992V70.127h9.552v1.77h-7.56v6.27h7.103v1.77h-7.102v7.323zM547.608 87.26h-1.945V74.416h1.945V87.26zm-2.11-16.324q0-.668.33-.973.327-.316.82-.316.468 0 .808.316t.34.973q0 .656-.34.984-.34.316-.808.316-.493 0-.82-.316-.33-.328-.33-.984zM553.702 87.26h-1.945V69.025h1.945V87.26zM565.75 87.26l-.388-1.828h-.093q-.962 1.207-1.923 1.64-.95.422-2.38.422-1.91 0-3-.984-1.077-.985-1.077-2.8 0-3.892 6.222-4.08l2.18-.07v-.796q0-1.512-.656-2.227-.645-.726-2.074-.726-1.606 0-3.633.985l-.6-1.488q.95-.516 2.075-.81 1.137-.292 2.274-.292 2.296 0 3.397 1.02 1.114 1.02 1.114 3.27v8.765h-1.44zm-4.395-1.37q1.816 0 2.847-.997 1.043-.996 1.043-2.79v-1.16l-1.945.082q-2.32.082-3.352.727-1.02.633-1.02 1.98 0 1.055.634 1.606.644.55 1.793.55z"/></g><path d="M554.675 400.51h94.955v74.75h-94.955z" fill="#d81b60"/><g style="line-height:125%;-inkscape-font-specification:'Open Sans';text-align:center" font-weight="700" font-size="24" font-family="Open Sans" letter-spacing="0" word-spacing="0" text-anchor="middle" fill="#fff"><path style="text-align:center" d="M597.043 446.468h-3.633v-14.11h-4.652v-3.023h12.938v3.024h-4.653v14.108zM615.043 437.902q0 4.488-1.476 6.644-1.465 2.157-4.524 2.157-2.965 0-4.476-2.227-1.5-2.226-1.5-6.574 0-4.535 1.464-6.68 1.466-2.156 4.513-2.156 2.965 0 4.477 2.25 1.523 2.25 1.523 6.586zm-8.38 0q0 3.152.54 4.523.55 1.36 1.84 1.36 1.266 0 1.828-1.383.564-1.383.564-4.5 0-3.152-.574-4.524-.563-1.382-1.817-1.382-1.277 0-1.828 1.382-.55 1.372-.55 4.524z"/></g><path d="M554.675 320.51h94.955v74.75h-94.955z" fill="#303f9f"/><g style="line-height:125%;-inkscape-font-specification:'Open Sans';text-align:center" font-weight="700" font-size="24" font-family="Open Sans" letter-spacing="0" word-spacing="0" text-anchor="middle" fill="#fff"><path style="text-align:center" d="M597.043 366.45h-3.633v-14.11h-4.652v-3.022h12.938v3.023h-4.653v14.11zM612.113 366.45h-3.62v-9.913l.035-1.63.058-1.78q-.902.902-1.254 1.183l-1.968 1.582-1.747-2.18 5.52-4.394h2.977v17.133z"/></g><path d="M709.58 99.6h137.144v400.565H709.58z" fill="#e6e6e6"/><g style="line-height:125%;-inkscape-font-specification:'Open Sans'" font-weight="400" font-size="24" font-family="Open Sans" letter-spacing="0" word-spacing="0" fill="#999"><path d="M720.444 75.12q0 2.6-1.78 4.007-1.77 1.395-5.075 1.395h-2.017v6.738h-1.992V70.127h4.443q6.42 0 6.42 4.992zm-8.87 3.69h1.792q2.65 0 3.832-.855 1.184-.855 1.184-2.742 0-1.7-1.113-2.53-1.115-.833-3.47-.833h-2.227v6.96zM725.67 87.26h-1.944V74.416h1.945V87.26zm-2.108-16.324q0-.668.328-.973.328-.316.82-.316.47 0 .81.316.338.316.338.973 0 .656-.34.984-.34.316-.808.316-.492 0-.82-.316-.328-.328-.328-.984zM731.765 87.26h-1.946V69.025h1.945V87.26zM744.702 87.26v-8.31q0-1.57-.715-2.343-.714-.773-2.238-.773-2.028 0-2.966 1.102-.926 1.1-.926 3.61v6.714h-1.945V69.025h1.945v5.52q0 .996-.093 1.652h.117q.574-.925 1.63-1.453 1.065-.54 2.425-.54 2.355 0 3.527 1.126 1.184 1.113 1.184 3.55v8.38h-1.946zM758.53 87.26l-.386-1.828h-.094q-.96 1.207-1.922 1.64-.95.422-2.38.422-1.91 0-3-.984-1.077-.985-1.077-2.8 0-3.892 6.224-4.08l2.18-.07v-.796q0-1.512-.657-2.227-.644-.726-2.074-.726-1.606 0-3.633.985l-.598-1.488q.95-.516 2.075-.81 1.136-.292 2.273-.292 2.297 0 3.4 1.02 1.112 1.02 1.112 3.27v8.765h-1.442zm-4.394-1.37q1.816 0 2.847-.997 1.043-.996 1.043-2.79v-1.16l-1.945.082q-2.32.082-3.35.727-1.02.633-1.02 1.98 0 1.055.633 1.606.644.55 1.793.55z"/></g><path d="M853.58 99.6h137.144v400.565H853.58z" fill="#e6e6e6"/><g style="line-height:125%;-inkscape-font-specification:'Open Sans'" font-weight="400" font-size="24" font-family="Open Sans" letter-spacing="0" word-spacing="0" fill="#999"><path d="M855.573 87.26h-1.992V70.127h9.552v1.77h-7.56v6.27h7.103v1.77h-7.102v7.323zM867.608 87.26h-1.945V74.416h1.945V87.26zm-2.11-16.324q0-.668.33-.973.327-.316.82-.316.468 0 .808.316t.34.973q0 .656-.34.984-.34.316-.808.316-.493 0-.82-.316-.33-.328-.33-.984zM873.702 87.26h-1.945V69.025h1.945V87.26zM885.75 87.26l-.388-1.828h-.093q-.962 1.207-1.923 1.64-.95.422-2.38.422-1.91 0-3-.984-1.077-.985-1.077-2.8 0-3.892 6.222-4.08l2.18-.07v-.796q0-1.512-.656-2.227-.645-.726-2.074-.726-1.606 0-3.633.985l-.6-1.488q.95-.516 2.075-.81 1.137-.292 2.274-.292 2.296 0 3.397 1.02 1.114 1.02 1.114 3.27v8.765h-1.44zm-4.395-1.37q1.816 0 2.847-.997 1.043-.996 1.043-2.79v-1.16l-1.945.082q-2.32.082-3.352.727-1.02.633-1.02 1.98 0 1.055.634 1.606.644.55 1.793.55z"/></g><path d="M730.675 400.51h94.955v74.75h-94.955z" fill="#d81b60"/><g style="line-height:125%;-inkscape-font-specification:'Open Sans';text-align:center" font-weight="700" font-size="24" font-family="Open Sans" letter-spacing="0" word-spacing="0" text-anchor="middle" fill="#fff"><path style="text-align:center" d="M773.295 446.468h-3.633v-14.11h-4.652v-3.023h12.937v3.024h-4.652v14.108zM791.295 437.902q0 4.488-1.476 6.644-1.466 2.157-4.525 2.157-2.965 0-4.476-2.227-1.5-2.226-1.5-6.574 0-4.535 1.463-6.68 1.465-2.156 4.512-2.156 2.965 0 4.477 2.25 1.523 2.25 1.523 6.586zm-8.38 0q0 3.152.54 4.523.55 1.36 1.84 1.36 1.266 0 1.828-1.383.563-1.383.563-4.5 0-3.152-.574-4.524-.563-1.382-1.817-1.382-1.277 0-1.828 1.382-.55 1.372-.55 4.524z"/></g><path d="M874.675 400.51h94.955v74.75h-94.955z" fill="#303f9f"/><g style="line-height:125%;-inkscape-font-specification:'Open Sans';text-align:center" font-weight="700" font-size="24" font-family="Open Sans" letter-spacing="0" word-spacing="0" text-anchor="middle" fill="#fff"><path style="text-align:center" d="M917.043 446.45h-3.633v-14.11h-4.652v-3.022h12.937v3.023h-4.652v14.11zM932.113 446.45h-3.62v-9.913l.035-1.63.058-1.78q-.902.902-1.254 1.183l-1.968 1.582-1.747-2.18 5.52-4.394h2.977v17.133z"/></g><path d="M1029.58 99.6h137.144v400.565H1029.58z" fill="#e6e6e6"/><g style="line-height:125%;-inkscape-font-specification:'Open Sans'" font-weight="400" font-size="24" font-family="Open Sans" letter-spacing="0" word-spacing="0" fill="#999"><path d="M1040.444 75.12q0 2.6-1.78 4.007-1.77 1.395-5.075 1.395h-2.017v6.738h-1.992V70.127h4.443q6.42 0 6.42 4.992zm-8.87 3.69h1.792q2.65 0 3.832-.855 1.184-.855 1.184-2.742 0-1.7-1.113-2.53-1.115-.833-3.47-.833h-2.227v6.96zM1045.67 87.26h-1.944V74.416h1.945V87.26zm-2.108-16.324q0-.668.328-.973.328-.316.82-.316.47 0 .81.316.338.316.338.973 0 .656-.34.984-.34.316-.808.316-.492 0-.82-.316-.328-.328-.328-.984zM1051.765 87.26h-1.946V69.025h1.945V87.26zM1064.702 87.26v-8.31q0-1.57-.715-2.343-.714-.773-2.238-.773-2.028 0-2.966 1.102-.926 1.1-.926 3.61v6.714h-1.945V69.025h1.945v5.52q0 .996-.093 1.652h.117q.574-.925 1.63-1.453 1.065-.54 2.425-.54 2.355 0 3.527 1.126 1.184 1.113 1.184 3.55v8.38h-1.946zM1078.53 87.26l-.386-1.828h-.094q-.96 1.207-1.922 1.64-.95.422-2.38.422-1.91 0-3-.984-1.077-.985-1.077-2.8 0-3.892 6.224-4.08l2.18-.07v-.796q0-1.512-.657-2.227-.644-.726-2.074-.726-1.606 0-3.633.985l-.598-1.488q.95-.516 2.075-.81 1.136-.292 2.273-.292 2.297 0 3.398 1.02 1.114 1.02 1.114 3.27v8.765h-1.442zm-4.394-1.37q1.816 0 2.847-.997 1.043-.996 1.043-2.79v-1.16l-1.945.082q-2.32.082-3.35.727-1.02.633-1.02 1.98 0 1.055.633 1.606.644.55 1.793.55z"/></g><path d="M1173.58 99.6h137.144v400.565H1173.58z" fill="#e6e6e6"/><g style="line-height:125%;-inkscape-font-specification:'Open Sans'" font-weight="400" font-size="24" font-family="Open Sans" letter-spacing="0" word-spacing="0" fill="#999"><path d="M1175.573 87.26h-1.992V70.127h9.552v1.77h-7.56v6.27h7.103v1.77h-7.102v7.323zM1187.608 87.26h-1.945V74.416h1.945V87.26zm-2.11-16.324q0-.668.33-.973.327-.316.82-.316.468 0 .808.316t.34.973q0 .656-.34.984-.34.316-.808.316-.493 0-.82-.316-.33-.328-.33-.984zM1193.702 87.26h-1.945V69.025h1.945V87.26zM1205.75 87.26l-.388-1.828h-.093q-.962 1.207-1.923 1.64-.95.422-2.38.422-1.91 0-3-.984-1.077-.985-1.077-2.8 0-3.892 6.222-4.08l2.18-.07v-.796q0-1.512-.656-2.227-.645-.726-2.074-.726-1.606 0-3.633.985l-.6-1.488q.95-.516 2.075-.81 1.137-.292 2.274-.292 2.296 0 3.397 1.02 1.114 1.02 1.114 3.27v8.765h-1.44zm-4.395-1.37q1.816 0 2.847-.997 1.043-.996 1.043-2.79v-1.16l-1.945.082q-2.32.082-3.352.727-1.02.633-1.02 1.98 0 1.055.634 1.606.644.55 1.793.55z"/></g><path d="M1050.675 400.51h94.955v74.75h-94.955z" fill="#d81b60"/><g style="line-height:125%;-inkscape-font-specification:'Open Sans';text-align:center" font-weight="700" font-size="24" font-family="Open Sans" letter-spacing="0" word-spacing="0" text-anchor="middle" fill="#fff"><path style="text-align:center" d="M1093.295 446.468h-3.633v-14.11h-4.652v-3.023h12.937v3.024h-4.652v14.108zM1111.295 437.902q0 4.488-1.476 6.644-1.466 2.157-4.525 2.157-2.965 0-4.476-2.227-1.5-2.226-1.5-6.574 0-4.535 1.463-6.68 1.465-2.156 4.512-2.156 2.965 0 4.477 2.25 1.523 2.25 1.523 6.586zm-8.38 0q0 3.152.54 4.523.55 1.36 1.84 1.36 1.266 0 1.828-1.383.563-1.383.563-4.5 0-3.152-.574-4.524-.563-1.382-1.817-1.382-1.277 0-1.828 1.382-.55 1.372-.55 4.524z"/></g><path d="M1194.675 400.51h94.955v74.75h-94.955z" fill="#303f9f"/><g style="line-height:125%;-inkscape-font-specification:'Open Sans';text-align:center" font-weight="700" font-size="24" font-family="Open Sans" letter-spacing="0" word-spacing="0" text-anchor="middle" fill="#fff"><path style="text-align:center" d="M1237.043 446.45h-3.633v-14.11h-4.652v-3.022h12.938v3.023h-4.653v14.11zM1252.113 446.45h-3.62v-9.913l.035-1.63.058-1.78q-.902.902-1.254 1.183l-1.97 1.582-1.745-2.18 5.52-4.394h2.976v17.133z"/></g><path d="M1194.675 320.51h94.955v74.75h-94.955z" fill="#f5a816"/><g style="line-height:125%;-inkscape-font-specification:'Open Sans';text-align:center" font-weight="700" font-size="24" font-family="Open Sans" letter-spacing="0" word-spacing="0" text-anchor="middle" fill="#fff"><path style="text-align:center" d="M1237.043 366.574h-3.633v-14.11h-4.652v-3.023h12.938v3.024h-4.653v14.11zM1255.137 366.574h-11.977v-2.52l4.3-4.347q1.91-1.957 2.497-2.707.586-.762.844-1.407.26-.644.26-1.336 0-1.03-.575-1.535-.563-.504-1.512-.504-.996 0-1.934.457t-1.958 1.3l-1.97-2.33q1.267-1.08 2.1-1.524.83-.445 1.816-.68.984-.245 2.203-.245 1.606 0 2.837.586 1.23.587 1.91 1.64.68 1.056.68 2.416 0 1.183-.422 2.226-.41 1.03-1.29 2.12-.867 1.09-3.07 3.107l-2.203 2.073v.164h7.465v3.047z"/></g><path d="M1349.58 99.6h137.144v400.565H1349.58z" fill="#e6e6e6"/><g style="line-height:125%;-inkscape-font-specification:'Open Sans'" font-weight="400" font-size="24" font-family="Open Sans" letter-spacing="0" word-spacing="0" fill="#999"><path d="M1360.444 75.12q0 2.6-1.78 4.007-1.77 1.395-5.075 1.395h-2.017v6.738h-1.992V70.127h4.443q6.42 0 6.42 4.992zm-8.87 3.69h1.792q2.65 0 3.832-.855 1.184-.855 1.184-2.742 0-1.7-1.113-2.53-1.115-.833-3.47-.833h-2.227v6.96zM1365.67 87.26h-1.944V74.416h1.945V87.26zm-2.108-16.324q0-.668.328-.973.328-.316.82-.316.47 0 .81.316.338.316.338.973 0 .656-.34.984-.34.316-.808.316-.492 0-.82-.316-.328-.328-.328-.984zM1371.765 87.26h-1.946V69.025h1.945V87.26zM1384.702 87.26v-8.31q0-1.57-.715-2.343-.714-.773-2.238-.773-2.028 0-2.966 1.102-.926 1.1-.926 3.61v6.714h-1.945V69.025h1.945v5.52q0 .996-.093 1.652h.117q.574-.925 1.63-1.453 1.065-.54 2.425-.54 2.355 0 3.527 1.126 1.184 1.113 1.184 3.55v8.38h-1.946zM1398.53 87.26l-.386-1.828h-.094q-.96 1.207-1.922 1.64-.95.422-2.38.422-1.91 0-3-.984-1.077-.985-1.077-2.8 0-3.892 6.224-4.08l2.18-.07v-.796q0-1.512-.657-2.227-.644-.726-2.074-.726-1.606 0-3.633.985l-.598-1.488q.95-.516 2.075-.81 1.136-.292 2.273-.292 2.297 0 3.4 1.02 1.112 1.02 1.112 3.27v8.765h-1.442zm-4.394-1.37q1.816 0 2.847-.997 1.043-.996 1.043-2.79v-1.16l-1.945.082q-2.32.082-3.35.727-1.02.633-1.02 1.98 0 1.055.633 1.606.644.55 1.793.55z"/></g><path d="M1493.58 99.6h137.144v400.565H1493.58z" fill="#e6e6e6"/><g style="line-height:125%;-inkscape-font-specification:'Open Sans'" font-weight="400" font-size="24" font-family="Open Sans" letter-spacing="0" word-spacing="0" fill="#999"><path d="M1495.573 87.26h-1.992V70.127h9.552v1.77h-7.56v6.27h7.103v1.77h-7.102v7.323zM1507.608 87.26h-1.945V74.416h1.945V87.26zm-2.11-16.324q0-.668.33-.973.327-.316.82-.316.468 0 .808.316t.34.973q0 .656-.34.984-.34.316-.808.316-.493 0-.82-.316-.33-.328-.33-.984zM1513.702 87.26h-1.945V69.025h1.945V87.26zM1525.75 87.26l-.388-1.828h-.093q-.962 1.207-1.923 1.64-.95.422-2.38.422-1.91 0-3-.984-1.077-.985-1.077-2.8 0-3.892 6.222-4.08l2.18-.07v-.796q0-1.512-.656-2.227-.645-.726-2.074-.726-1.606 0-3.633.985l-.6-1.488q.95-.516 2.075-.81 1.137-.292 2.274-.292 2.296 0 3.397 1.02 1.114 1.02 1.114 3.27v8.765h-1.44zm-4.395-1.37q1.816 0 2.847-.997 1.043-.996 1.043-2.79v-1.16l-1.945.082q-2.32.082-3.352.727-1.02.633-1.02 1.98 0 1.055.634 1.606.644.55 1.793.55z"/></g><path d="M1370.675 400.51h94.955v74.75h-94.955z" fill="#303f9f"/><g style="line-height:125%;-inkscape-font-specification:'Open Sans';text-align:center" font-weight="700" font-size="24" font-family="Open Sans" letter-spacing="0" word-spacing="0" text-anchor="middle" fill="#fff"><path style="text-align:center" d="M1414.76 446.45h-3.633v-14.11h-4.652v-3.022h12.937v3.023h-4.652v14.11zM1429.83 446.45h-3.62v-9.913l.034-1.63.06-1.78q-.903.902-1.255 1.183l-1.97 1.582-1.746-2.18 5.52-4.394h2.976v17.133z"/></g><path d="M1514.675 400.51h94.955v74.75h-94.955z" fill="#f5a816"/><g style="line-height:125%;-inkscape-font-specification:'Open Sans';text-align:center" font-weight="700" font-size="24" font-family="Open Sans" letter-spacing="0" word-spacing="0" text-anchor="middle" fill="#fff"><path style="text-align:center" d="M1557.043 446.574h-3.633v-14.11h-4.652v-3.023h12.938v3.024h-4.653v14.11zM1575.137 446.574h-11.977v-2.52l4.3-4.347q1.91-1.957 2.497-2.707.586-.762.844-1.407.26-.644.26-1.336 0-1.03-.575-1.535-.563-.504-1.512-.504-.996 0-1.934.457t-1.958 1.3l-1.97-2.33q1.267-1.08 2.1-1.524.83-.445 1.816-.68.984-.245 2.203-.245 1.606 0 2.837.586 1.23.587 1.91 1.64.68 1.056.68 2.415 0 1.184-.422 2.227-.41 1.03-1.29 2.12-.867 1.09-3.07 3.107l-2.203 2.073v.164h7.465v3.047z"/></g><path d="M1669.58 99.6h137.144v400.565H1669.58z" fill="#e6e6e6"/><g style="line-height:125%;-inkscape-font-specification:'Open Sans'" font-weight="400" font-size="24" font-family="Open Sans" letter-spacing="0" word-spacing="0" fill="#999"><path d="M1680.444 75.12q0 2.6-1.78 4.007-1.77 1.395-5.075 1.395h-2.017v6.738h-1.992V70.127h4.443q6.42 0 6.42 4.992zm-8.87 3.69h1.792q2.65 0 3.832-.855 1.184-.855 1.184-2.742 0-1.7-1.113-2.53-1.115-.833-3.47-.833h-2.227v6.96zM1685.67 87.26h-1.944V74.416h1.945V87.26zm-2.108-16.324q0-.668.328-.973.328-.316.82-.316.47 0 .81.316.338.316.338.973 0 .656-.34.984-.34.316-.808.316-.492 0-.82-.316-.328-.328-.328-.984zM1691.765 87.26h-1.946V69.025h1.945V87.26zM1704.702 87.26v-8.31q0-1.57-.715-2.343-.714-.773-2.238-.773-2.028 0-2.966 1.102-.926 1.1-.926 3.61v6.714h-1.945V69.025h1.945v5.52q0 .996-.093 1.652h.117q.574-.925 1.63-1.453 1.065-.54 2.425-.54 2.355 0 3.527 1.126 1.184 1.113 1.184 3.55v8.38h-1.946zM1718.53 87.26l-.386-1.828h-.094q-.96 1.207-1.922 1.64-.95.422-2.38.422-1.91 0-3-.984-1.077-.985-1.077-2.8 0-3.892 6.224-4.08l2.18-.07v-.796q0-1.512-.657-2.227-.644-.726-2.074-.726-1.606 0-3.633.985l-.598-1.488q.95-.516 2.075-.81 1.136-.292 2.273-.292 2.297 0 3.4 1.02 1.112 1.02 1.112 3.27v8.765h-1.442zm-4.394-1.37q1.816 0 2.847-.997 1.043-.996 1.043-2.79v-1.16l-1.945.082q-2.32.082-3.35.727-1.02.633-1.02 1.98 0 1.055.633 1.606.644.55 1.793.55z"/></g><path d="M1813.58 99.6h137.144v400.565H1813.58z" fill="#e6e6e6"/><g style="line-height:125%;-inkscape-font-specification:'Open Sans'" font-weight="400" font-size="24" font-family="Open Sans" letter-spacing="0" word-spacing="0" fill="#999"><path d="M1815.573 87.26h-1.992V70.127h9.552v1.77h-7.56v6.27h7.103v1.77h-7.102v7.323zM1827.608 87.26h-1.945V74.416h1.945V87.26zm-2.11-16.324q0-.668.33-.973.327-.316.82-.316.468 0 .808.316t.34.973q0 .656-.34.984-.34.316-.808.316-.493 0-.82-.316-.33-.328-.33-.984zM1833.702 87.26h-1.945V69.025h1.945V87.26zM1845.75 87.26l-.388-1.828h-.093q-.962 1.207-1.923 1.64-.95.422-2.38.422-1.91 0-3-.984-1.077-.985-1.077-2.8 0-3.892 6.222-4.08l2.18-.07v-.796q0-1.512-.656-2.227-.645-.726-2.074-.726-1.606 0-3.633.985l-.6-1.488q.95-.516 2.075-.81 1.137-.292 2.274-.292 2.296 0 3.397 1.02 1.114 1.02 1.114 3.27v8.765h-1.44zm-4.395-1.37q1.816 0 2.847-.997 1.043-.996 1.043-2.79v-1.16l-1.945.082q-2.32.082-3.352.727-1.02.633-1.02 1.98 0 1.055.634 1.606.644.55 1.793.55z"/></g><path d="M1690.675 400.51h94.955v74.75h-94.955z" fill="#f5a816"/><g style="line-height:125%;-inkscape-font-specification:'Open Sans';text-align:center" font-weight="700" font-size="24" font-family="Open Sans" letter-spacing="0" word-spacing="0" text-anchor="middle" fill="#fff"><path style="text-align:center" d="M1733.248 446.574h-3.633v-14.11h-4.652v-3.023h12.938v3.024h-4.652v14.11zM1751.342 446.574h-11.977v-2.52l4.3-4.347q1.91-1.957 2.497-2.707.586-.762.844-1.407.258-.644.258-1.336 0-1.03-.574-1.535-.563-.504-1.512-.504-.996 0-1.934.457-.937.457-1.957 1.3l-1.968-2.33q1.264-1.08 2.096-1.524.832-.445 1.817-.68.984-.245 2.203-.245 1.605 0 2.836.586 1.23.587 1.91 1.64.68 1.056.68 2.415 0 1.184-.422 2.227-.41 1.03-1.29 2.12-.867 1.09-3.07 3.107l-2.203 2.073v.164h7.465v3.047z"/></g><g style="line-height:125%;-inkscape-font-specification:'Open Sans'" font-weight="400" font-size="24" font-family="Open Sans" letter-spacing="0" word-spacing="0" fill="#999"><path d="M79.132 527.26h-9.55v-17.133h9.55v1.77h-7.56v5.52h7.103v1.757h-7.102v6.305h7.56v1.78zM90.933 523.756q0 1.793-1.336 2.766-1.336.972-3.75.972-2.555 0-3.985-.808v-1.805q.926.47 1.98.74 1.067.27 2.052.27 1.523 0 2.343-.482.82-.492.82-1.488 0-.75-.656-1.277-.643-.54-2.53-1.266-1.793-.668-2.555-1.16-.75-.504-1.125-1.137-.363-.633-.363-1.512 0-1.57 1.278-2.472 1.277-.914 3.503-.914 2.075 0 4.055.843l-.69 1.582q-1.935-.796-3.505-.796-1.383 0-2.086.434-.703.434-.703 1.195 0 .515.257.878.27.364.855.692.586.328 2.25.95 2.285.83 3.082 1.675.81.844.81 2.12zM98.233 525.89q.516 0 .997-.072.48-.082.76-.164v1.49q-.315.15-.936.245-.61.104-1.102.104-3.726 0-3.726-3.926v-7.64h-1.84v-.938l1.84-.808.82-2.743h1.125v2.976h3.727v1.512H96.17v7.558q0 1.16.552 1.782.55.62 1.51.62zM110.468 527.26l-.387-1.828h-.093q-.96 1.207-1.922 1.64-.95.422-2.38.422-1.91 0-3-.984-1.077-.985-1.077-2.8 0-3.892 6.223-4.08l2.18-.07v-.796q0-1.512-.656-2.227-.644-.726-2.074-.726-1.605 0-3.633.985l-.597-1.488q.95-.516 2.074-.81 1.136-.292 2.273-.292 2.297 0 3.4 1.02 1.112 1.02 1.112 3.27v8.765h-1.442zm-4.395-1.37q1.817 0 2.848-.997 1.044-.996 1.044-2.79v-1.16l-1.945.082q-2.322.082-3.353.727-1.02.633-1.02 1.98 0 1.055.633 1.606.645.55 1.793.55zm-.457-13.466q.563-.727 1.207-1.758.657-1.03 1.032-1.793h2.367v.246q-.516.76-1.535 1.874-1.02 1.113-1.77 1.723h-1.3v-.293zM126.44 514.416v1.23l-2.378.282q.328.41.585 1.078.258.656.258 1.488 0 1.887-1.29 3.012-1.288 1.125-3.538 1.125-.574 0-1.078-.093-1.243.656-1.243 1.653 0 .527.433.785.434.246 1.49.246h2.272q2.086 0 3.2.88 1.124.88 1.124 2.554 0 2.133-1.71 3.246-1.71 1.125-4.993 1.125-2.52 0-3.89-.937-1.36-.938-1.36-2.648 0-1.172.75-2.028.75-.855 2.11-1.16-.493-.223-.832-.69-.328-.47-.328-1.09 0-.704.375-1.232.375-.527 1.184-1.02-.995-.41-1.628-1.394-.62-.984-.62-2.25 0-2.11 1.265-3.246 1.265-1.148 3.586-1.148 1.007 0 1.816.234h4.44zm-10.242 15q0 1.043.88 1.582.878.54 2.52.54 2.448 0 3.62-.74 1.183-.726 1.183-1.98 0-1.043-.643-1.453-.645-.398-2.426-.398H119q-1.325 0-2.063.633-.74.632-.74 1.816zm1.055-10.887q0 1.347.762 2.038.76.692 2.12.692 2.848 0 2.848-2.766 0-2.894-2.882-2.894-1.37 0-2.11.738-.737.738-.737 2.19zM131.046 527.26H129.1v-12.844h1.946v12.844zm-2.11-16.324q0-.668.33-.973.327-.316.82-.316.468 0 .808.316t.34.973q0 .656-.34.984-.34.316-.81.316-.49 0-.82-.316-.327-.328-.327-.984zM146.28 520.826q0 3.14-1.582 4.91-1.582 1.758-4.37 1.758-1.723 0-3.06-.808-1.335-.81-2.062-2.32-.726-1.512-.726-3.54 0-3.14 1.57-4.887 1.57-1.758 4.36-1.758 2.695 0 4.277 1.793 1.593 1.793 1.593 4.85zm-9.785 0q0 2.46.985 3.75.984 1.29 2.894 1.29 1.91 0 2.895-1.278.995-1.29.995-3.762 0-2.45-.996-3.715-.986-1.276-2.92-1.276-1.91 0-2.882 1.254-.973 1.254-.973 3.738zM166.378 518.67q0 4.44-1.406 6.633-1.395 2.19-4.278 2.19-2.765 0-4.207-2.237-1.44-2.25-1.44-6.586 0-4.477 1.393-6.645 1.395-2.168 4.254-2.168 2.79 0 4.23 2.262 1.454 2.26 1.454 6.55zm-9.363 0q0 3.738.88 5.45.877 1.698 2.8 1.698 1.945 0 2.812-1.722.88-1.735.88-5.426 0-3.69-.88-5.402-.867-1.723-2.813-1.723-1.922 0-2.8 1.7-.88 1.687-.88 5.425z"/></g><g style="line-height:125%;-inkscape-font-specification:'Open Sans'" font-weight="400" font-size="24" font-family="Open Sans" letter-spacing="0" word-spacing="0" fill="#999"><path d="M399.132 527.26h-9.55v-17.133h9.55v1.77h-7.56v5.52h7.103v1.757h-7.102v6.305h7.56v1.78zM410.933 523.756q0 1.793-1.336 2.766-1.336.972-3.75.972-2.555 0-3.985-.808v-1.805q.926.47 1.98.74 1.067.27 2.052.27 1.523 0 2.343-.482.82-.492.82-1.488 0-.75-.656-1.277-.643-.54-2.53-1.266-1.793-.668-2.554-1.16-.75-.504-1.125-1.137-.363-.633-.363-1.512 0-1.57 1.278-2.472 1.277-.914 3.503-.914 2.075 0 4.055.843l-.69 1.582q-1.935-.796-3.505-.796-1.383 0-2.086.434-.703.434-.703 1.195 0 .515.257.878.27.364.855.692.586.328 2.25.95 2.285.83 3.082 1.675.81.844.81 2.12zM418.233 525.89q.516 0 .997-.072.48-.082.76-.164v1.49q-.315.15-.936.245-.61.104-1.102.104-3.726 0-3.726-3.926v-7.64h-1.84v-.938l1.84-.808.82-2.743h1.125v2.976h3.728v1.512h-3.727v7.558q0 1.16.552 1.782.55.62 1.51.62zM430.468 527.26l-.387-1.828h-.093q-.96 1.207-1.92 1.64-.95.422-2.38.422-1.91 0-3-.984-1.078-.985-1.078-2.8 0-3.892 6.22-4.08l2.18-.07v-.796q0-1.512-.655-2.227-.645-.726-2.075-.726-1.605 0-3.632.985l-.598-1.488q.95-.516 2.074-.81 1.137-.292 2.274-.292 2.296 0 3.398 1.02 1.113 1.02 1.113 3.27v8.765h-1.442zm-4.395-1.37q1.817 0 2.848-.997 1.044-.996 1.044-2.79v-1.16l-1.945.082q-2.322.082-3.353.727-1.02.633-1.02 1.98 0 1.055.633 1.606.645.55 1.793.55zm-.457-13.466q.563-.727 1.207-1.758.657-1.03 1.032-1.793h2.367v.246q-.516.76-1.535 1.874-1.02 1.113-1.77 1.723h-1.3v-.293zM446.44 514.416v1.23l-2.378.282q.328.41.586 1.078.257.656.257 1.488 0 1.887-1.29 3.012-1.288 1.125-3.538 1.125-.574 0-1.078-.093-1.243.656-1.243 1.653 0 .527.434.785.434.246 1.49.246h2.272q2.086 0 3.2.88 1.124.88 1.124 2.554 0 2.133-1.71 3.246-1.71 1.125-4.993 1.125-2.52 0-3.89-.937-1.36-.938-1.36-2.648 0-1.172.75-2.028.75-.855 2.11-1.16-.492-.223-.832-.69-.327-.47-.327-1.09 0-.704.375-1.232.375-.527 1.183-1.02-.995-.41-1.628-1.394-.62-.984-.62-2.25 0-2.11 1.265-3.246 1.265-1.148 3.586-1.148 1.008 0 1.816.234h4.44zm-10.242 15q0 1.043.88 1.582.878.54 2.52.54 2.448 0 3.62-.74 1.183-.726 1.183-1.98 0-1.043-.643-1.453-.645-.398-2.426-.398H439q-1.325 0-2.063.633-.74.632-.74 1.816zm1.055-10.887q0 1.347.762 2.038.76.692 2.12.692 2.848 0 2.848-2.766 0-2.894-2.882-2.894-1.37 0-2.11.738-.737.738-.737 2.19zM451.046 527.26H449.1v-12.844h1.946v12.844zm-2.11-16.324q0-.668.33-.973.327-.316.82-.316.468 0 .808.316t.34.973q0 .656-.34.984-.34.316-.81.316-.49 0-.82-.316-.327-.328-.327-.984zM466.28 520.826q0 3.14-1.582 4.91-1.582 1.758-4.37 1.758-1.723 0-3.06-.808-1.335-.81-2.062-2.32-.726-1.512-.726-3.54 0-3.14 1.57-4.887 1.57-1.758 4.36-1.758 2.695 0 4.277 1.793 1.593 1.793 1.593 4.85zm-9.785 0q0 2.46.985 3.75.984 1.29 2.894 1.29 1.91 0 2.895-1.278.995-1.29.995-3.762 0-2.45-.996-3.715-.986-1.276-2.92-1.276-1.91 0-2.882 1.254-.973 1.254-.973 3.738zM482.23 527.26h-1.9v-12.21q0-1.525.095-2.884-.246.246-.55.516-.306.27-2.79 2.285l-1.03-1.336 4.534-3.503h1.64v17.133z"/></g><g style="line-height:125%;-inkscape-font-specification:'Open Sans'" font-weight="400" font-size="24" font-family="Open Sans" letter-spacing="0" word-spacing="0" fill="#999"><path d="M719.132 527.26h-9.55v-17.133h9.55v1.77h-7.56v5.52h7.103v1.757h-7.102v6.305h7.56v1.78zM730.933 523.756q0 1.793-1.336 2.766-1.336.972-3.75.972-2.555 0-3.985-.808v-1.805q.926.47 1.98.74 1.067.27 2.052.27 1.523 0 2.343-.482.82-.492.82-1.488 0-.75-.656-1.277-.643-.54-2.53-1.266-1.793-.668-2.555-1.16-.75-.504-1.125-1.137-.363-.633-.363-1.512 0-1.57 1.278-2.472 1.277-.914 3.503-.914 2.075 0 4.055.843l-.69 1.582q-1.935-.796-3.505-.796-1.383 0-2.086.434-.703.434-.703 1.195 0 .515.257.878.27.364.855.692.586.328 2.25.95 2.285.83 3.082 1.675.81.844.81 2.12zM738.233 525.89q.516 0 .997-.072.48-.082.76-.164v1.49q-.315.15-.936.245-.61.104-1.102.104-3.726 0-3.726-3.926v-7.64h-1.84v-.938l1.84-.808.82-2.743h1.125v2.976h3.728v1.512h-3.727v7.558q0 1.16.552 1.782.55.62 1.51.62zM750.468 527.26l-.387-1.828h-.093q-.96 1.207-1.92 1.64-.95.422-2.38.422-1.91 0-3-.984-1.078-.985-1.078-2.8 0-3.892 6.22-4.08l2.18-.07v-.796q0-1.512-.655-2.227-.645-.726-2.075-.726-1.605 0-3.632.985l-.598-1.488q.95-.516 2.074-.81 1.137-.292 2.274-.292 2.296 0 3.398 1.02 1.113 1.02 1.113 3.27v8.765h-1.442zm-4.395-1.37q1.817 0 2.848-.997 1.044-.996 1.044-2.79v-1.16l-1.945.082q-2.322.082-3.353.727-1.02.633-1.02 1.98 0 1.055.633 1.606.645.55 1.793.55zm-.457-13.466q.563-.727 1.207-1.758.657-1.03 1.032-1.793h2.367v.246q-.516.76-1.535 1.874-1.02 1.113-1.77 1.723h-1.3v-.293zM766.44 514.416v1.23l-2.378.282q.328.41.586 1.078.257.656.257 1.488 0 1.887-1.29 3.012-1.288 1.125-3.538 1.125-.574 0-1.078-.093-1.243.656-1.243 1.653 0 .527.433.785.434.246 1.49.246h2.272q2.086 0 3.2.88 1.124.88 1.124 2.554 0 2.133-1.71 3.246-1.71 1.125-4.993 1.125-2.52 0-3.89-.937-1.36-.938-1.36-2.648 0-1.172.75-2.028.75-.855 2.11-1.16-.493-.223-.832-.69-.327-.47-.327-1.09 0-.704.375-1.232.375-.527 1.183-1.02-.995-.41-1.628-1.394-.62-.984-.62-2.25 0-2.11 1.265-3.246 1.265-1.148 3.586-1.148 1.007 0 1.816.234h4.44zm-10.242 15q0 1.043.88 1.582.878.54 2.52.54 2.448 0 3.62-.74 1.183-.726 1.183-1.98 0-1.043-.643-1.453-.645-.398-2.426-.398H759q-1.325 0-2.063.633-.74.632-.74 1.816zm1.055-10.887q0 1.347.762 2.038.76.692 2.12.692 2.848 0 2.848-2.766 0-2.894-2.882-2.894-1.37 0-2.11.738-.737.738-.737 2.19zM771.046 527.26H769.1v-12.844h1.946v12.844zm-2.11-16.324q0-.668.33-.973.327-.316.82-.316.468 0 .808.316t.34.973q0 .656-.34.984-.34.316-.81.316-.49 0-.82-.316-.327-.328-.327-.984zM786.28 520.826q0 3.14-1.582 4.91-1.582 1.758-4.37 1.758-1.723 0-3.06-.808-1.335-.81-2.062-2.32-.726-1.512-.726-3.54 0-3.14 1.57-4.887 1.57-1.758 4.36-1.758 2.695 0 4.277 1.793 1.593 1.793 1.593 4.85zm-9.785 0q0 2.46.985 3.75.984 1.29 2.894 1.29 1.91 0 2.895-1.278.995-1.29.995-3.762 0-2.45-.996-3.715-.986-1.276-2.92-1.276-1.91 0-2.882 1.254-.973 1.254-.973 3.738zM806.284 527.26h-11.26v-1.676l4.51-4.535q2.063-2.087 2.72-2.978.655-.89.983-1.734.328-.844.328-1.816 0-1.372-.832-2.168-.832-.81-2.308-.81-1.067 0-2.027.353-.95.35-2.122 1.277l-1.03-1.324q2.366-1.97 5.155-1.97 2.415 0 3.787 1.243 1.37 1.23 1.37 3.316 0 1.628-.913 3.222-.914 1.594-3.422 4.03l-3.75 3.67v.093h8.812v1.805z"/></g><g style="line-height:125%;-inkscape-font-specification:'Open Sans'" font-weight="400" font-size="24" font-family="Open Sans" letter-spacing="0" word-spacing="0" fill="#999"><path d="M1039.132 527.26h-9.55v-17.133h9.55v1.77h-7.56v5.52h7.103v1.757h-7.102v6.305h7.56v1.78zM1050.933 523.756q0 1.793-1.336 2.766-1.336.972-3.75.972-2.555 0-3.985-.808v-1.805q.926.47 1.98.74 1.067.27 2.052.27 1.523 0 2.343-.482.82-.492.82-1.488 0-.75-.656-1.277-.643-.54-2.53-1.266-1.793-.668-2.555-1.16-.75-.504-1.125-1.137-.363-.633-.363-1.512 0-1.57 1.278-2.472 1.277-.914 3.503-.914 2.075 0 4.055.843l-.69 1.582q-1.935-.796-3.505-.796-1.383 0-2.086.434-.703.434-.703 1.195 0 .515.257.878.27.364.855.692.586.328 2.25.95 2.285.83 3.082 1.675.81.844.81 2.12zM1058.233 525.89q.516 0 .997-.072.48-.082.76-.164v1.49q-.315.15-.936.245-.61.104-1.102.104-3.726 0-3.726-3.926v-7.64h-1.84v-.938l1.84-.808.82-2.743h1.125v2.976h3.728v1.512h-3.727v7.558q0 1.16.552 1.782.55.62 1.51.62zM1070.468 527.26l-.387-1.828h-.093q-.96 1.207-1.922 1.64-.95.422-2.378.422-1.91 0-3-.984-1.08-.985-1.08-2.8 0-3.892 6.224-4.08l2.18-.07v-.796q0-1.512-.655-2.227-.645-.726-2.075-.726-1.605 0-3.632.985l-.598-1.488q.95-.516 2.074-.81 1.137-.292 2.274-.292 2.296 0 3.398 1.02 1.113 1.02 1.113 3.27v8.765h-1.442zm-4.395-1.37q1.817 0 2.848-.997 1.044-.996 1.044-2.79v-1.16l-1.945.082q-2.322.082-3.353.727-1.02.633-1.02 1.98 0 1.055.633 1.606.645.55 1.793.55zm-.457-13.466q.563-.727 1.207-1.758.657-1.03 1.032-1.793h2.367v.246q-.516.76-1.535 1.874-1.02 1.113-1.77 1.723h-1.3v-.293zM1086.44 514.416v1.23l-2.378.282q.328.41.586 1.078.257.656.257 1.488 0 1.887-1.29 3.012-1.288 1.125-3.538 1.125-.574 0-1.078-.093-1.243.656-1.243 1.653 0 .527.433.785.434.246 1.49.246h2.272q2.086 0 3.2.88 1.124.88 1.124 2.554 0 2.133-1.71 3.246-1.71 1.125-4.993 1.125-2.52 0-3.89-.937-1.36-.938-1.36-2.648 0-1.172.75-2.028.75-.855 2.11-1.16-.493-.223-.832-.69-.327-.47-.327-1.09 0-.704.375-1.232.375-.527 1.183-1.02-.995-.41-1.628-1.394-.62-.984-.62-2.25 0-2.11 1.265-3.246 1.265-1.148 3.586-1.148 1.007 0 1.816.234h4.44zm-10.242 15q0 1.043.88 1.582.878.54 2.52.54 2.448 0 3.62-.74 1.183-.726 1.183-1.98 0-1.043-.643-1.453-.645-.398-2.426-.398H1079q-1.325 0-2.063.633-.74.632-.74 1.816zm1.055-10.887q0 1.347.762 2.038.76.692 2.12.692 2.848 0 2.848-2.766 0-2.894-2.882-2.894-1.37 0-2.11.738-.737.738-.737 2.19zM1091.046 527.26h-1.945v-12.844h1.946v12.844zm-2.11-16.324q0-.668.33-.973.327-.316.82-.316.468 0 .808.316t.34.973q0 .656-.34.984-.34.316-.81.316-.49 0-.82-.316-.327-.328-.327-.984zM1106.28 520.826q0 3.14-1.582 4.91-1.582 1.758-4.37 1.758-1.723 0-3.06-.808-1.335-.81-2.062-2.32-.726-1.512-.726-3.54 0-3.14 1.57-4.887 1.57-1.758 4.36-1.758 2.695 0 4.277 1.793 1.593 1.793 1.593 4.85zm-9.785 0q0 2.46.985 3.75.984 1.29 2.894 1.29 1.91 0 2.895-1.278.995-1.29.995-3.762 0-2.45-.996-3.715-.986-1.276-2.92-1.276-1.91 0-2.882 1.254-.973 1.254-.973 3.738zM1125.64 514.158q0 1.64-.926 2.684-.914 1.043-2.602 1.394v.094q2.063.258 3.06 1.313.995 1.054.995 2.765 0 2.45-1.7 3.774-1.698 1.312-4.827 1.312-1.36 0-2.496-.21-1.125-.2-2.192-.716v-1.85q1.113.55 2.367.843 1.265.282 2.39.282 4.44 0 4.44-3.48 0-3.118-4.897-3.118h-1.688v-1.676h1.71q2.005 0 3.177-.88 1.172-.89 1.172-2.46 0-1.253-.867-1.968-.856-.715-2.332-.715-1.125 0-2.12.305-.997.304-2.275 1.125l-.984-1.313q1.055-.832 2.426-1.3 1.383-.48 2.906-.48 2.496 0 3.88 1.147 1.382 1.136 1.382 3.128z"/></g><g style="line-height:125%;-inkscape-font-specification:'Open Sans'" font-weight="400" font-size="24" font-family="Open Sans" letter-spacing="0" word-spacing="0" fill="#999"><path d="M1359.132 527.26h-9.55v-17.133h9.55v1.77h-7.56v5.52h7.103v1.757h-7.102v6.305h7.56v1.78zM1370.933 523.756q0 1.793-1.336 2.766-1.336.972-3.75.972-2.555 0-3.985-.808v-1.805q.926.47 1.98.74 1.067.27 2.052.27 1.523 0 2.343-.482.82-.492.82-1.488 0-.75-.656-1.277-.643-.54-2.53-1.266-1.793-.668-2.554-1.16-.75-.504-1.125-1.137-.363-.633-.363-1.512 0-1.57 1.278-2.472 1.277-.914 3.503-.914 2.075 0 4.055.843l-.69 1.582q-1.935-.796-3.505-.796-1.383 0-2.086.434-.703.434-.703 1.195 0 .515.257.878.27.364.855.692.586.328 2.25.95 2.285.83 3.082 1.675.81.844.81 2.12zM1378.233 525.89q.516 0 .997-.072.48-.082.76-.164v1.49q-.315.15-.936.245-.61.104-1.102.104-3.726 0-3.726-3.926v-7.64h-1.84v-.938l1.84-.808.82-2.743h1.125v2.976h3.728v1.512h-3.727v7.558q0 1.16.552 1.782.55.62 1.51.62zM1390.468 527.26l-.387-1.828h-.093q-.96 1.207-1.92 1.64-.95.422-2.38.422-1.91 0-3-.984-1.078-.985-1.078-2.8 0-3.892 6.22-4.08l2.18-.07v-.796q0-1.512-.655-2.227-.645-.726-2.075-.726-1.605 0-3.632.985l-.598-1.488q.95-.516 2.074-.81 1.137-.292 2.274-.292 2.296 0 3.398 1.02 1.113 1.02 1.113 3.27v8.765h-1.442zm-4.395-1.37q1.817 0 2.848-.997 1.044-.996 1.044-2.79v-1.16l-1.945.082q-2.322.082-3.353.727-1.02.633-1.02 1.98 0 1.055.633 1.606.645.55 1.793.55zm-.457-13.466q.563-.727 1.207-1.758.657-1.03 1.032-1.793h2.367v.246q-.516.76-1.535 1.874-1.02 1.113-1.77 1.723h-1.3v-.293zM1406.44 514.416v1.23l-2.378.282q.328.41.586 1.078.257.656.257 1.488 0 1.887-1.29 3.012-1.288 1.125-3.538 1.125-.574 0-1.078-.093-1.243.656-1.243 1.653 0 .527.434.785.434.246 1.49.246h2.272q2.086 0 3.2.88 1.124.88 1.124 2.554 0 2.133-1.71 3.246-1.71 1.125-4.993 1.125-2.52 0-3.89-.937-1.36-.938-1.36-2.648 0-1.172.75-2.028.75-.855 2.11-1.16-.492-.223-.832-.69-.327-.47-.327-1.09 0-.704.375-1.232.375-.527 1.183-1.02-.995-.41-1.628-1.394-.62-.984-.62-2.25 0-2.11 1.265-3.246 1.265-1.148 3.586-1.148 1.008 0 1.816.234h4.44zm-10.242 15q0 1.043.88 1.582.878.54 2.52.54 2.448 0 3.62-.74 1.183-.726 1.183-1.98 0-1.043-.643-1.453-.645-.398-2.426-.398H1399q-1.325 0-2.063.633-.74.632-.74 1.816zm1.055-10.887q0 1.347.762 2.038.76.692 2.12.692 2.848 0 2.848-2.766 0-2.894-2.882-2.894-1.37 0-2.11.738-.737.738-.737 2.19zM1411.046 527.26h-1.945v-12.844h1.946v12.844zm-2.11-16.324q0-.668.33-.973.327-.316.82-.316.468 0 .808.316t.34.973q0 .656-.34.984-.34.316-.81.316-.49 0-.82-.316-.327-.328-.327-.984zM1426.28 520.826q0 3.14-1.582 4.91-1.582 1.758-4.37 1.758-1.723 0-3.06-.808-1.335-.81-2.062-2.32-.726-1.512-.726-3.54 0-3.14 1.57-4.887 1.57-1.758 4.36-1.758 2.695 0 4.277 1.793 1.593 1.793 1.593 4.85zm-9.785 0q0 2.46.985 3.75.984 1.29 2.894 1.29 1.91 0 2.895-1.278.995-1.29.995-3.762 0-2.45-.996-3.715-.986-1.276-2.92-1.276-1.91 0-2.882 1.254-.973 1.254-.973 3.738zM1447.093 523.322h-2.543v3.938h-1.863v-3.938h-8.332v-1.7l8.132-11.59h2.063v11.52h2.543v1.77zm-4.406-1.77v-5.695q0-1.675.117-3.785h-.094q-.562 1.125-1.055 1.864l-5.355 7.617h6.387z"/></g><g style="line-height:125%;-inkscape-font-specification:'Open Sans'" font-weight="400" font-size="24" font-family="Open Sans" letter-spacing="0" word-spacing="0" fill="#999"><path d="M1679.132 527.26h-9.55v-17.133h9.55v1.77h-7.56v5.52h7.103v1.757h-7.102v6.305h7.56v1.78zM1690.933 523.756q0 1.793-1.336 2.766-1.336.972-3.75.972-2.555 0-3.985-.808v-1.805q.926.47 1.98.74 1.067.27 2.052.27 1.523 0 2.343-.482.82-.492.82-1.488 0-.75-.656-1.277-.643-.54-2.53-1.266-1.793-.668-2.554-1.16-.75-.504-1.125-1.137-.363-.633-.363-1.512 0-1.57 1.278-2.472 1.277-.914 3.503-.914 2.075 0 4.055.843l-.69 1.582q-1.935-.796-3.505-.796-1.383 0-2.086.434-.703.434-.703 1.195 0 .515.257.878.27.364.855.692.586.328 2.25.95 2.285.83 3.082 1.675.81.844.81 2.12zM1698.233 525.89q.516 0 .997-.072.48-.082.76-.164v1.49q-.315.15-.936.245-.61.104-1.102.104-3.726 0-3.726-3.926v-7.64h-1.84v-.938l1.84-.808.82-2.743h1.125v2.976h3.728v1.512h-3.727v7.558q0 1.16.552 1.782.55.62 1.51.62zM1710.468 527.26l-.387-1.828h-.093q-.96 1.207-1.92 1.64-.95.422-2.38.422-1.91 0-3-.984-1.078-.985-1.078-2.8 0-3.892 6.22-4.08l2.18-.07v-.796q0-1.512-.655-2.227-.645-.726-2.075-.726-1.605 0-3.632.985l-.598-1.488q.95-.516 2.074-.81 1.137-.292 2.274-.292 2.296 0 3.398 1.02 1.113 1.02 1.113 3.27v8.765h-1.442zm-4.395-1.37q1.817 0 2.848-.997 1.044-.996 1.044-2.79v-1.16l-1.945.082q-2.322.082-3.353.727-1.02.633-1.02 1.98 0 1.055.633 1.606.645.55 1.793.55zm-.457-13.466q.563-.727 1.207-1.758.657-1.03 1.032-1.793h2.367v.246q-.516.76-1.535 1.874-1.02 1.113-1.77 1.723h-1.3v-.293zM1726.44 514.416v1.23l-2.378.282q.328.41.586 1.078.257.656.257 1.488 0 1.887-1.29 3.012-1.288 1.125-3.538 1.125-.574 0-1.078-.093-1.243.656-1.243 1.653 0 .527.434.785.434.246 1.49.246h2.272q2.086 0 3.2.88 1.124.88 1.124 2.554 0 2.133-1.71 3.246-1.71 1.125-4.993 1.125-2.52 0-3.89-.937-1.36-.938-1.36-2.648 0-1.172.75-2.028.75-.855 2.11-1.16-.492-.223-.832-.69-.327-.47-.327-1.09 0-.704.375-1.232.375-.527 1.183-1.02-.995-.41-1.628-1.394-.62-.984-.62-2.25 0-2.11 1.265-3.246 1.265-1.148 3.586-1.148 1.008 0 1.816.234h4.44zm-10.242 15q0 1.043.88 1.582.878.54 2.52.54 2.448 0 3.62-.74 1.183-.726 1.183-1.98 0-1.043-.643-1.453-.645-.398-2.426-.398H1719q-1.325 0-2.063.633-.74.632-.74 1.816zm1.055-10.887q0 1.347.762 2.038.76.692 2.12.692 2.848 0 2.848-2.766 0-2.894-2.882-2.894-1.37 0-2.11.738-.737.738-.737 2.19zM1731.046 527.26h-1.945v-12.844h1.946v12.844zm-2.11-16.324q0-.668.33-.973.327-.316.82-.316.468 0 .808.316t.34.973q0 .656-.34.984-.34.316-.81.316-.49 0-.82-.316-.327-.328-.327-.984zM1746.28 520.826q0 3.14-1.582 4.91-1.582 1.758-4.37 1.758-1.723 0-3.06-.808-1.335-.81-2.062-2.32-.726-1.512-.726-3.54 0-3.14 1.57-4.887 1.57-1.758 4.36-1.758 2.695 0 4.277 1.793 1.593 1.793 1.593 4.85zm-9.785 0q0 2.46.985 3.75.984 1.29 2.894 1.29 1.91 0 2.895-1.278.995-1.29.995-3.762 0-2.45-.996-3.715-.986-1.276-2.92-1.276-1.91 0-2.882 1.254-.973 1.254-.973 3.738zM1760.378 516.795q2.707 0 4.254 1.348 1.56 1.336 1.56 3.668 0 2.66-1.7 4.172-1.688 1.512-4.665 1.512-2.894 0-4.418-.926v-1.875q.82.528 2.038.832 1.22.293 2.403.293 2.063 0 3.2-.972 1.148-.973 1.148-2.813 0-3.586-4.394-3.586-1.113 0-2.977.34l-1.008-.644.644-8.016h8.52v1.793h-6.856l-.434 5.144q1.348-.27 2.684-.27z"/></g></svg>