<svg xmlns="http://www.w3.org/2000/svg" width="1547.284" height="564.608" viewBox="0 0 1450.5791 529.3199"><path fill="#fff" d="M0 0h1450.58v529.32H0z"/><path d="M60.405 79.742h287.532v400.564H60.405z" fill="#e6e6e6"/><path d="M79.922 239.742H328.42v135.14H79.922z" fill="#f8bbd0"/><path d="M79.922 99.742H328.42v135.14H79.922z" fill="#c5cae9"/><path d="M453.03 79.742h137.144v400.564H453.03z" fill="#e6e6e6"/><g style="line-height:125%;-inkscape-font-specification:'Open Sans'" font-weight="400" font-size="24" font-family="Open Sans" letter-spacing="0" word-spacing="0" fill="#3949ab"><path d="M99.197 119.178h-3.094v10.418H92.53v-10.418h-1.97v-1.723l1.97-.96v-.962q0-2.238 1.1-3.27 1.102-1.03 3.528-1.03 1.852 0 3.293.55l-.913 2.625q-1.078-.34-1.992-.34-.762 0-1.102.457-.34.446-.34 1.15v.82h3.094v2.683zM110.517 129.596l-.48-1.676h-.187q-.575.914-1.63 1.418-1.054.492-2.402.492-2.308 0-3.48-1.23-1.172-1.243-1.172-3.563v-8.543h3.574v7.652q0 1.418.504 2.133.504.702 1.606.702 1.5 0 2.167-.996.668-1.008.668-3.328v-6.164h3.575v13.102h-2.743zM129.127 129.596h-3.574v-7.653q0-1.418-.504-2.12-.505-.716-1.607-.716-1.5 0-2.168 1.008-.668.996-.668 3.317v6.164h-3.574v-13.102h2.73l.48 1.676h.2q.598-.95 1.64-1.43 1.056-.492 2.392-.492 2.285 0 3.468 1.242 1.184 1.23 1.184 3.563v8.543zM138.15 129.83q-6.117 0-6.117-6.715 0-3.34 1.664-5.097 1.664-1.77 4.77-1.77 2.273 0 4.078.89l-1.055 2.766q-.844-.34-1.57-.55-.727-.223-1.453-.223-2.79 0-2.79 3.962 0 3.843 2.79 3.843 1.03 0 1.91-.27.88-.28 1.758-.866v3.057q-.868.55-1.758.762-.88.21-2.227.21zM150.678 126.982q.937 0 2.25-.41v2.66q-1.336.598-3.282.598-2.144 0-3.13-1.078-.97-1.09-.97-3.258v-6.316h-1.712v-1.512l1.97-1.195 1.03-2.765h2.285v2.79h3.667v2.683h-3.668v6.316q0 .762.42 1.125.435.362 1.138.362zM155.412 113.107q0-1.746 1.945-1.746 1.946 0 1.946 1.747 0 .832-.493 1.3-.48.458-1.453.458-1.945 0-1.945-1.758zm3.727 16.49h-3.576v-13.103h3.575v13.102zM165.725 123.02q0 1.947.632 2.943.645.996 2.086.996 1.43 0 2.05-.985.634-.997.634-2.954 0-1.944-.633-2.917-.633-.972-2.074-.972-1.43 0-2.063.973-.632.96-.632 2.918zm9.058 0q0 3.2-1.687 5.005-1.688 1.805-4.7 1.805-1.886 0-3.328-.82-1.44-.832-2.215-2.38-.773-1.546-.773-3.61 0-3.21 1.676-4.99 1.676-1.782 4.71-1.782 1.887 0 3.33.82 1.44.82 2.214 2.356.773 1.535.773 3.597zM189.83 129.596h-3.574v-7.653q0-1.418-.504-2.12-.504-.716-1.606-.716-1.5 0-2.168 1.008-.668.996-.668 3.317v6.164h-3.574v-13.102h2.73l.48 1.676h.2q.598-.95 1.64-1.43 1.056-.492 2.392-.492 2.285 0 3.468 1.242 1.184 1.23 1.184 3.563v8.543z" font-weight="700"/><path d="M205.744 118.264h-3.27v11.332h-1.945v-11.332h-2.298v-.88l2.297-.702v-.715q0-4.735 4.136-4.735 1.02 0 2.39.41l-.503 1.56q-1.125-.364-1.922-.364-1.1 0-1.628.738-.527.727-.527 2.344v.832h3.27v1.512zM219.197 123.162q0 3.14-1.582 4.91-1.582 1.758-4.37 1.758-1.724 0-3.06-.81-1.335-.807-2.062-2.32-.727-1.51-.727-3.538 0-3.14 1.57-4.887 1.57-1.757 4.36-1.757 2.695 0 4.277 1.792 1.594 1.793 1.594 4.852zm-9.785 0q0 2.46.984 3.75.985 1.29 2.895 1.29 1.91 0 2.895-1.278.997-1.29.997-3.762 0-2.45-.997-3.715-.984-1.277-2.918-1.277-1.91 0-2.882 1.254-.973 1.254-.973 3.738zM233.682 123.162q0 3.14-1.582 4.91-1.583 1.758-4.372 1.758-1.722 0-3.058-.81-1.336-.807-2.063-2.32-.726-1.51-.726-3.538 0-3.14 1.57-4.887 1.57-1.757 4.36-1.757 2.696 0 4.278 1.792 1.594 1.793 1.594 4.852zm-9.786 0q0 2.46.985 3.75t2.895 1.29q1.91 0 2.895-1.278.996-1.29.996-3.762 0-2.45-.996-3.715-.985-1.277-2.918-1.277-1.91 0-2.883 1.254-.974 1.254-.974 3.738zM242.213 123.02q0-3.104.902-5.81.914-2.708 2.625-4.747h1.9q-1.69 2.262-2.544 4.97-.844 2.706-.844 5.565 0 2.812.867 5.496.866 2.684 2.495 4.9h-1.875q-1.723-1.994-2.625-4.654-.902-2.66-.902-5.72zM262.65 116.54q2.532 0 3.926 1.735 1.406 1.723 1.406 4.887 0 3.164-1.418 4.922-1.406 1.746-3.914 1.746-1.254 0-2.297-.457-1.03-.47-1.734-1.43h-.142l-.41 1.653h-1.394V111.36h1.945v4.43q0 1.49-.095 2.673h.094q1.358-1.922 4.03-1.922zm-.28 1.63q-1.993 0-2.872 1.148-.88 1.137-.88 3.844t.903 3.88q.904 1.16 2.896 1.16 1.793 0 2.672-1.302.88-1.312.88-3.76 0-2.51-.88-3.74-.88-1.23-2.72-1.23zM281.705 123.02q0 3.083-.914 5.744-.9 2.66-2.612 4.63h-1.875q1.63-2.205 2.496-4.888.866-2.696.866-5.508 0-2.86-.856-5.566-.843-2.707-2.53-4.97h1.898q1.722 2.052 2.625 4.77.902 2.707.902 5.79zM294.49 129.455q0 1.195.68 1.734.69.538 2.015.562v1.64q-2.226-.023-3.445-1.02-1.22-.995-1.22-2.8v-3.55q0-1.22-.737-1.735-.738-.527-2.144-.527v-1.653q1.522-.023 2.202-.562.68-.54.68-1.664v-3.585q0-1.817 1.265-2.824 1.266-1.007 3.398-1.007v1.63q-2.695.07-2.695 2.33v3.458q0 2.52-2.613 2.977v.14q2.613.458 2.613 2.978v3.48z"/><path d="M107.54 159.596l-4.99-13.102h3.737l2.53 7.465q.423 1.417.53 2.683h.07q.058-1.125.526-2.684l2.52-7.466h3.738l-4.99 13.102h-3.67zM126.385 159.596l-.692-1.782h-.094q-.903 1.137-1.864 1.582-.95.434-2.484.434-1.887 0-2.977-1.078-1.078-1.078-1.078-3.07 0-2.086 1.453-3.07 1.465-.997 4.406-1.102l2.274-.07v-.575q0-1.992-2.04-1.992-1.57 0-3.69.95l-1.184-2.415q2.26-1.183 5.015-1.183 2.638 0 4.044 1.148 1.406 1.148 1.406 3.492v8.73h-2.496zm-1.055-6.07l-1.383.046q-1.558.047-2.32.563-.762.515-.762 1.57 0 1.512 1.735 1.512 1.242 0 1.98-.715.75-.715.75-1.9v-1.077zM139.86 146.248q.728 0 1.208.105l-.27 3.352q-.433-.117-1.054-.117-1.71 0-2.672.88-.95.878-.95 2.46v6.668h-3.573v-13.102h2.706l.527 2.203h.176q.608-1.1 1.64-1.77 1.042-.68 2.26-.68z" font-weight="700"/><path d="M157.79 159.596l-.386-1.828h-.094q-.96 1.207-1.922 1.64-.95.422-2.38.422-1.91 0-3-.984-1.077-.985-1.077-2.8 0-3.892 6.224-4.08l2.18-.07v-.796q0-1.512-.657-2.227-.644-.727-2.074-.727-1.605 0-3.633.985l-.597-1.487q.95-.516 2.074-.81 1.137-.292 2.273-.292 2.297 0 3.4 1.02 1.112 1.02 1.112 3.27v8.766h-1.44zm-4.394-1.37q1.817 0 2.848-.998 1.043-.996 1.043-2.79v-1.16l-1.945.083q-2.32.083-3.352.728-1.02.633-1.02 1.98 0 1.055.633 1.606.645.55 1.793.55zM168.818 149.54v-1.605h10.9v1.606h-10.9zm0 4.794v-1.606h10.9v1.606h-10.9zM195.77 159.596h-1.897v-12.21q0-1.525.094-2.884-.246.246-.55.516-.306.27-2.79 2.285l-1.03-1.336 4.534-3.504h1.642v17.133zM213.56 159.596H202.3v-1.676l4.51-4.535q2.063-2.086 2.72-2.977.655-.89.984-1.734.328-.844.328-1.817 0-1.37-.832-2.168-.832-.81-2.31-.81-1.065 0-2.026.352-.95.352-2.12 1.278l-1.033-1.325q2.37-1.968 5.158-1.968 2.414 0 3.785 1.242 1.37 1.23 1.37 3.315 0 1.63-.913 3.223-.914 1.594-3.422 4.03l-3.75 3.67v.093h8.812v1.806zM218.963 156.807l.176.27q-.306 1.17-.88 2.718-.575 1.558-1.196 2.894H215.6q.316-1.22.69-3.012.388-1.793.54-2.87h2.133zm-2.38-8.8q0-1.583 1.395-1.583 1.442 0 1.442 1.582 0 .762-.387 1.172-.387.41-1.055.41-.68 0-1.043-.41-.35-.41-.35-1.172z"/><path d="M111.736 176.248q.727 0 1.207.105l-.27 3.352q-.433-.117-1.054-.117-1.712 0-2.673.88-.95.878-.95 2.46v6.668h-3.573v-13.102h2.707l.528 2.203h.176q.61-1.1 1.64-1.77 1.043-.68 2.262-.68zM120.303 178.79q-1.137 0-1.782.728-.643.714-.737 2.04h5.016q-.024-1.326-.693-2.04-.668-.727-1.804-.727zm.504 11.04q-3.165 0-4.946-1.746-1.78-1.746-1.78-4.945 0-3.294 1.64-5.087 1.653-1.805 4.56-1.805 2.777 0 4.323 1.582 1.547 1.582 1.547 4.37v1.735h-8.45q.06 1.524.903 2.38.844.855 2.368.855 1.184 0 2.24-.246 1.054-.246 2.202-.785v2.764q-.937.47-2.004.692-1.066.234-2.6.234zM134.6 186.982q.937 0 2.25-.41v2.66q-1.336.598-3.282.598-2.144 0-3.13-1.078-.97-1.09-.97-3.258v-6.316h-1.712v-1.512l1.97-1.195 1.03-2.765h2.285v2.79h3.67v2.683h-3.67v6.316q0 .762.423 1.125.433.362 1.137.362zM148.767 189.596l-.48-1.676h-.187q-.575.914-1.63 1.418-1.054.492-2.402.492-2.308 0-3.48-1.23-1.172-1.243-1.172-3.563v-8.543h3.574v7.652q0 1.418.504 2.133.504.702 1.606.702 1.5 0 2.167-.996.668-1.008.668-3.328v-6.164h3.575v13.102h-2.743zM162.596 176.248q.726 0 1.207.105l-.27 3.352q-.433-.117-1.055-.117-1.71 0-2.67.88-.95.878-.95 2.46v6.668h-3.575v-13.102h2.707l.527 2.203h.176q.61-1.1 1.64-1.77 1.044-.68 2.263-.68zM178.3 189.596h-3.575v-7.653q0-1.418-.504-2.12-.503-.716-1.605-.716-1.5 0-2.168 1.008-.668.996-.668 3.317v6.164h-3.575v-13.102h2.73l.48 1.676h.2q.598-.95 1.64-1.43 1.055-.492 2.39-.492 2.287 0 3.47 1.242 1.184 1.23 1.184 3.563v8.543z" font-weight="700"/><path d="M196.322 189.596l-.387-1.828h-.094q-.96 1.207-1.92 1.64-.95.422-2.38.422-1.91 0-3-.984-1.077-.985-1.077-2.8 0-3.892 6.222-4.08l2.18-.07v-.796q0-1.512-.656-2.227-.646-.727-2.076-.727-1.605 0-3.632.985l-.598-1.487q.95-.516 2.074-.81 1.137-.292 2.274-.292 2.296 0 3.398 1.02 1.113 1.02 1.113 3.27v8.766h-1.44zm-4.394-1.37q1.816 0 2.847-.998 1.043-.996 1.043-2.79v-1.16l-1.945.083q-2.32.083-3.352.728-1.018.633-1.018 1.98 0 1.055.633 1.606.644.55 1.793.55zM213.607 180.326h4.828v1.617h-4.828v4.992h-1.63v-4.992h-4.803v-1.617h4.804v-5.016h1.63v5.016zM233.963 176.54q2.53 0 3.926 1.735 1.405 1.723 1.405 4.887 0 3.164-1.418 4.922-1.406 1.746-3.914 1.746-1.254 0-2.297-.457-1.03-.47-1.734-1.43h-.14l-.41 1.653h-1.396V171.36h1.946v4.43q0 1.49-.094 2.673h.094q1.36-1.922 4.03-1.922zm-.28 1.63q-1.994 0-2.873 1.148-.878 1.137-.878 3.844t.902 3.88q.902 1.16 2.894 1.16 1.793 0 2.672-1.302.88-1.312.88-3.76 0-2.51-.88-3.74-.88-1.23-2.718-1.23zM254.53 180.326h4.827v1.617h-4.828v4.992h-1.63v-4.992h-4.804v-1.617h4.804v-5.016h1.63v5.016zM278.635 176.494q0 1.64-.926 2.684-.915 1.043-2.603 1.394v.094q2.063.258 3.06 1.312.995 1.055.995 2.766 0 2.45-1.7 3.773-1.698 1.313-4.827 1.313-1.36 0-2.496-.21-1.126-.2-2.193-.716v-1.85q1.113.55 2.367.842 1.266.282 2.39.282 4.442 0 4.442-3.48 0-3.118-4.898-3.118h-1.688v-1.676h1.71q2.005 0 3.177-.88 1.172-.89 1.172-2.46 0-1.254-.868-1.968-.856-.715-2.332-.715-1.125 0-2.12.305-.997.305-2.275 1.125l-.984-1.312q1.056-.832 2.427-1.3 1.383-.48 2.906-.48 2.496 0 3.88 1.147 1.382 1.137 1.382 3.13zM287.107 179.13q2.707 0 4.254 1.348 1.56 1.336 1.56 3.668 0 2.66-1.7 4.172-1.687 1.512-4.663 1.512-2.895 0-4.418-.926v-1.875q.82.527 2.038.83 1.218.294 2.402.294 2.062 0 3.2-.972 1.148-.973 1.148-2.813 0-3.587-4.395-3.587-1.113 0-2.976.34l-1.008-.645.643-8.015h8.52v1.793h-6.856l-.433 5.144q1.347-.27 2.683-.27zM298.416 186.807l.176.27q-.305 1.17-.88 2.718-.573 1.558-1.195 2.894h-1.464q.316-1.22.69-3.012.388-1.793.54-2.87h2.133zm-2.38-8.8q0-1.583 1.396-1.583 1.44 0 1.44 1.582 0 .762-.386 1.172-.386.41-1.054.41-.68 0-1.043-.41-.353-.41-.353-1.172zM96.197 212.857q-2.613-.457-2.613-2.976v-3.456q0-2.262-2.66-2.332v-1.63q2.156 0 3.386 1.02 1.243 1.02 1.243 2.813v3.586q0 1.138.69 1.677.692.527 2.216.55v1.653q-1.43 0-2.17.527-.737.516-.737 1.734v3.552q0 1.793-1.207 2.79-1.196 1.007-3.422 1.03v-1.64q1.3-.024 1.98-.563.68-.54.68-1.735v-3.48q0-1.336.644-2.04.645-.703 1.97-.937v-.14z"/></g><g style="line-height:125%;-inkscape-font-specification:'Open Sans'" font-weight="400" font-size="24" font-family="Open Sans" letter-spacing="0" word-spacing="0" fill="#d81b60"><path d="M99.197 259.178h-3.094v10.418H92.53v-10.418h-1.97v-1.723l1.97-.96v-.962q0-2.238 1.1-3.27 1.102-1.03 3.528-1.03 1.852 0 3.293.55l-.913 2.625q-1.078-.34-1.992-.34-.762 0-1.102.457-.34.446-.34 1.15v.82h3.094v2.683zM110.517 269.596l-.48-1.676h-.187q-.575.914-1.63 1.418-1.054.492-2.402.492-2.308 0-3.48-1.23-1.172-1.243-1.172-3.563v-8.543h3.574v7.652q0 1.418.504 2.133.504.702 1.606.702 1.5 0 2.167-.996.668-1.008.668-3.328v-6.164h3.575v13.102h-2.743zM129.127 269.596h-3.574v-7.653q0-1.418-.504-2.12-.505-.716-1.607-.716-1.5 0-2.168 1.008-.668.996-.668 3.317v6.164h-3.574v-13.102h2.73l.48 1.676h.2q.598-.95 1.64-1.43 1.056-.492 2.392-.492 2.285 0 3.468 1.242 1.184 1.23 1.184 3.563v8.543zM138.15 269.83q-6.117 0-6.117-6.715 0-3.34 1.664-5.097 1.664-1.77 4.77-1.77 2.273 0 4.078.89l-1.055 2.766q-.844-.34-1.57-.55-.727-.223-1.453-.223-2.79 0-2.79 3.962 0 3.843 2.79 3.843 1.03 0 1.91-.27.88-.28 1.758-.866v3.057q-.868.55-1.758.762-.88.21-2.227.21zM150.678 266.982q.937 0 2.25-.41v2.66q-1.336.598-3.282.598-2.144 0-3.13-1.078-.97-1.09-.97-3.258v-6.316h-1.712v-1.512l1.97-1.195 1.03-2.765h2.285v2.79h3.667v2.683h-3.668v6.316q0 .762.42 1.125.435.362 1.138.362zM155.412 253.107q0-1.746 1.945-1.746 1.946 0 1.946 1.747 0 .832-.493 1.3-.48.458-1.453.458-1.945 0-1.945-1.758zm3.727 16.49h-3.576v-13.103h3.575v13.102zM165.725 263.02q0 1.947.632 2.943.645.996 2.086.996 1.43 0 2.05-.985.634-.997.634-2.954 0-1.944-.633-2.917-.633-.972-2.074-.972-1.43 0-2.063.973-.632.96-.632 2.918zm9.058 0q0 3.2-1.687 5.005-1.688 1.805-4.7 1.805-1.886 0-3.328-.82-1.44-.832-2.215-2.38-.773-1.546-.773-3.61 0-3.21 1.676-4.99 1.676-1.782 4.71-1.782 1.887 0 3.33.82 1.44.82 2.214 2.356.773 1.535.773 3.597zM189.83 269.596h-3.574v-7.653q0-1.418-.504-2.12-.504-.716-1.606-.716-1.5 0-2.168 1.008-.668.996-.668 3.317v6.164h-3.574v-13.102h2.73l.48 1.676h.2q.598-.95 1.64-1.43 1.056-.492 2.392-.492 2.285 0 3.468 1.242 1.184 1.23 1.184 3.563v8.543z" font-weight="700"/><path d="M205.932 256.54q2.53 0 3.925 1.735 1.407 1.723 1.407 4.887 0 3.164-1.418 4.922-1.407 1.746-3.914 1.746-1.254 0-2.297-.457-1.032-.47-1.735-1.43h-.14l-.41 1.653h-1.395V251.36h1.945v4.43q0 1.49-.094 2.673h.094q1.36-1.922 4.032-1.922zm-.282 1.63q-1.992 0-2.87 1.148-.88 1.137-.88 3.844t.903 3.88q.902 1.16 2.894 1.16 1.793 0 2.672-1.302.878-1.312.878-3.76 0-2.51-.88-3.74-.878-1.23-2.718-1.23zM222.572 269.596l-.387-1.828h-.094q-.96 1.207-1.92 1.64-.95.422-2.38.422-1.91 0-3-.984-1.077-.985-1.077-2.8 0-3.892 6.222-4.08l2.18-.07v-.796q0-1.512-.656-2.227-.646-.727-2.076-.727-1.605 0-3.632.985l-.598-1.487q.95-.516 2.074-.81 1.137-.292 2.274-.292 2.296 0 3.398 1.02 1.113 1.02 1.113 3.27v8.766h-1.44zm-4.394-1.37q1.816 0 2.847-.998 1.043-.996 1.043-2.79v-1.16l-1.945.083q-2.32.083-3.352.728-1.018.633-1.018 1.98 0 1.055.633 1.606.644.55 1.793.55zM233.892 256.518q.856 0 1.536.14l-.27 1.805q-.797-.176-1.406-.176-1.56 0-2.672 1.266-1.102 1.265-1.102 3.152v6.89h-1.945v-12.843h1.606l.22 2.38h.095q.715-1.255 1.723-1.935 1.008-.68 2.215-.68zM242.963 263.02q0-3.104.902-5.81.914-2.708 2.625-4.747h1.9q-1.69 2.262-2.544 4.97-.844 2.706-.844 5.565 0 2.812.867 5.496.866 2.684 2.495 4.9h-1.875q-1.723-1.994-2.625-4.654-.902-2.66-.902-5.72zM260.517 263.02l-4.464-6.268h2.214l3.387 4.922 3.375-4.922h2.19l-4.464 6.27 4.7 6.574h-2.204l-3.598-5.203-3.633 5.203h-2.202l4.7-6.575zM280.3 263.02q0 3.083-.915 5.744-.903 2.66-2.614 4.63h-1.874q1.63-2.205 2.496-4.888.868-2.696.868-5.508 0-2.86-.856-5.566-.844-2.707-2.53-4.97h1.897q1.724 2.052 2.626 4.77.903 2.707.903 5.79zM293.084 269.455q0 1.195.68 1.734.69.538 2.015.562v1.64q-2.227-.023-3.446-1.02-1.22-.995-1.22-2.8v-3.55q0-1.22-.737-1.735-.738-.527-2.145-.527v-1.653q1.524-.023 2.203-.562.68-.54.68-1.664v-3.585q0-1.817 1.266-2.824t3.4-1.007v1.63q-2.696.07-2.696 2.33v3.458q0 2.52-2.613 2.977v.14q2.614.458 2.614 2.978v3.48z"/><path d="M107.54 299.596l-4.99-13.102h3.737l2.53 7.465q.423 1.417.53 2.683h.07q.058-1.125.526-2.684l2.52-7.466h3.738l-4.99 13.102h-3.67zM126.385 299.596l-.692-1.782h-.094q-.903 1.137-1.864 1.582-.95.434-2.484.434-1.887 0-2.977-1.078-1.078-1.078-1.078-3.07 0-2.086 1.453-3.07 1.465-.997 4.406-1.102l2.274-.07v-.575q0-1.992-2.04-1.992-1.57 0-3.69.95l-1.184-2.415q2.26-1.183 5.015-1.183 2.638 0 4.044 1.148 1.406 1.148 1.406 3.492v8.73h-2.496zm-1.055-6.07l-1.383.046q-1.558.047-2.32.563-.762.515-.762 1.57 0 1.512 1.735 1.512 1.242 0 1.98-.715.75-.715.75-1.9v-1.077zM139.86 286.248q.728 0 1.208.105l-.27 3.352q-.433-.117-1.054-.117-1.71 0-2.672.88-.95.878-.95 2.46v6.668h-3.573v-13.102h2.706l.527 2.203h.176q.608-1.1 1.64-1.77 1.042-.68 2.26-.68z" font-weight="700"/><path d="M166.264 299.596v-8.356q0-1.535-.657-2.297-.656-.773-2.04-.773-1.815 0-2.682 1.043-.868 1.043-.868 3.21v7.173h-1.945v-8.356q0-1.535-.656-2.297-.656-.773-2.05-.773-1.83 0-2.684 1.1-.844 1.09-.844 3.587v6.74h-1.946V286.75h1.583l.316 1.758h.095q.55-.938 1.547-1.465 1.008-.527 2.25-.527 3.012 0 3.937 2.18h.093q.575-1.01 1.664-1.595 1.09-.585 2.485-.585 2.18 0 3.258 1.125 1.09 1.113 1.09 3.574v8.38h-1.946zM177.77 289.54v-1.605h10.9v1.606h-10.9zm0 4.794v-1.606h10.9v1.606h-10.9zM209.588 295.658h-2.543v3.938h-1.863v-3.938h-8.332v-1.7l8.132-11.59h2.063v11.52h2.543v1.77zm-4.406-1.77v-5.695q0-1.675.117-3.785h-.095q-.563 1.125-1.055 1.863l-5.355 7.62h6.386zM214.182 296.807l.175.27q-.304 1.17-.88 2.718-.573 1.558-1.194 2.894h-1.465q.317-1.22.692-3.012.386-1.793.54-2.87h2.132zm-2.38-8.8q0-1.583 1.395-1.583 1.442 0 1.442 1.582 0 .762-.388 1.172-.387.41-1.055.41-.68 0-1.043-.41-.35-.41-.35-1.172z"/><path d="M111.736 316.248q.727 0 1.207.105l-.27 3.352q-.433-.117-1.054-.117-1.712 0-2.673.88-.95.878-.95 2.46v6.668h-3.573v-13.102h2.707l.528 2.203h.176q.61-1.1 1.64-1.77 1.043-.68 2.262-.68zM120.303 318.79q-1.137 0-1.782.728-.643.714-.737 2.04h5.016q-.024-1.326-.693-2.04-.668-.727-1.804-.727zm.504 11.04q-3.165 0-4.946-1.746-1.78-1.746-1.78-4.945 0-3.294 1.64-5.087 1.653-1.805 4.56-1.805 2.777 0 4.323 1.582 1.547 1.582 1.547 4.37v1.735h-8.45q.06 1.524.903 2.38.844.855 2.368.855 1.184 0 2.24-.246 1.054-.246 2.202-.785v2.764q-.937.47-2.004.692-1.066.234-2.6.234zM134.6 326.982q.937 0 2.25-.41v2.66q-1.336.598-3.282.598-2.144 0-3.13-1.078-.97-1.09-.97-3.258v-6.316h-1.712v-1.512l1.97-1.195 1.03-2.765h2.285v2.79h3.67v2.683h-3.67v6.316q0 .762.423 1.125.433.362 1.137.362zM148.767 329.596l-.48-1.676h-.187q-.575.914-1.63 1.418-1.054.492-2.402.492-2.308 0-3.48-1.23-1.172-1.243-1.172-3.563v-8.543h3.574v7.652q0 1.418.504 2.133.504.702 1.606.702 1.5 0 2.167-.996.668-1.008.668-3.328v-6.164h3.575v13.102h-2.743zM162.596 316.248q.726 0 1.207.105l-.27 3.352q-.433-.117-1.055-.117-1.71 0-2.67.88-.95.878-.95 2.46v6.668h-3.575v-13.102h2.707l.527 2.203h.176q.61-1.1 1.64-1.77 1.044-.68 2.263-.68zM178.3 329.596h-3.575v-7.653q0-1.418-.504-2.12-.503-.716-1.605-.716-1.5 0-2.168 1.008-.668.996-.668 3.317v6.164h-3.575v-13.102h2.73l.48 1.676h.2q.598-.95 1.64-1.43 1.055-.492 2.39-.492 2.287 0 3.47 1.242 1.184 1.23 1.184 3.563v8.543z" font-weight="700"/><path d="M194.213 318.264h-3.27v11.332h-1.945v-11.332H186.7v-.88l2.298-.702v-.715q0-4.735 4.137-4.735 1.02 0 2.39.41l-.504 1.56q-1.124-.364-1.92-.364-1.102 0-1.63.738-.527.727-.527 2.344v.832h3.27v1.512zM207.666 323.162q0 3.14-1.582 4.91-1.582 1.758-4.37 1.758-1.724 0-3.06-.81-1.336-.807-2.062-2.32-.727-1.51-.727-3.538 0-3.14 1.57-4.887 1.57-1.757 4.36-1.757 2.695 0 4.277 1.792 1.594 1.793 1.594 4.852zm-9.785 0q0 2.46.985 3.75t2.895 1.29q1.91 0 2.894-1.278.996-1.29.996-3.762 0-2.45-.996-3.715-.984-1.277-2.918-1.277-1.91 0-2.883 1.254-.972 1.254-.972 3.738zM222.15 323.162q0 3.14-1.582 4.91-1.582 1.758-4.37 1.758-1.723 0-3.06-.81-1.335-.807-2.062-2.32-.726-1.51-.726-3.538 0-3.14 1.57-4.887 1.57-1.757 4.36-1.757 2.695 0 4.277 1.792 1.593 1.793 1.593 4.852zm-9.785 0q0 2.46.985 3.75.984 1.29 2.894 1.29 1.91 0 2.895-1.278.995-1.29.995-3.762 0-2.45-.996-3.715-.986-1.277-2.92-1.277-1.91 0-2.882 1.254-.973 1.254-.973 3.738zM224.447 323.02q0-3.104.903-5.81.914-2.708 2.625-4.747h1.898q-1.688 2.262-2.543 4.97-.844 2.706-.844 5.565 0 2.812.867 5.496.868 2.684 2.497 4.9h-1.875q-1.723-1.994-2.625-4.654-.903-2.66-.903-5.72zM255.28 329.596v-8.356q0-1.535-.657-2.297-.656-.773-2.04-.773-1.816 0-2.683 1.043-.867 1.043-.867 3.21v7.173h-1.945v-8.356q0-1.535-.656-2.297-.657-.773-2.05-.773-1.83 0-2.685 1.1-.844 1.09-.844 3.587v6.74h-1.945V316.75h1.582l.317 1.758h.094q.55-.938 1.547-1.465 1.008-.527 2.25-.527 3.012 0 3.938 2.18h.094q.573-1.01 1.663-1.595t2.484-.585q2.18 0 3.258 1.125 1.09 1.113 1.09 3.574v8.38h-1.945zM273.092 311.36l-.504 4.63 4.664-1.3.305 2.132-4.465.363 2.906 3.82-2.016 1.102-2.062-4.242-1.875 4.242-2.063-1.1 2.836-3.822-4.418-.363.34-2.133 4.582 1.3-.504-4.63h2.274zM290.05 323.02l-4.466-6.268h2.215l3.385 4.922 3.375-4.922h2.192l-4.465 6.27 4.7 6.574h-2.204l-3.598-5.203-3.632 5.203h-2.203l4.7-6.575zM309.83 323.02q0 3.083-.914 5.744-.902 2.66-2.613 4.63h-1.875q1.63-2.205 2.496-4.888.867-2.696.867-5.508 0-2.86-.855-5.566-.843-2.707-2.53-4.97h1.898q1.722 2.052 2.625 4.77.902 2.707.902 5.79z" fill="#3949ab"/><path d="M314.916 326.807l.176.27q-.305 1.17-.88 2.718-.573 1.558-1.195 2.894h-1.464q.316-1.22.69-3.012.388-1.793.54-2.87h2.133zm-2.38-8.8q0-1.583 1.396-1.583 1.44 0 1.44 1.582 0 .762-.386 1.172-.386.41-1.054.41-.68 0-1.043-.41-.353-.41-.353-1.172zM96.197 352.857q-2.613-.457-2.613-2.976v-3.456q0-2.262-2.66-2.332v-1.63q2.156 0 3.386 1.02 1.243 1.02 1.243 2.813v3.586q0 1.138.69 1.677.692.527 2.216.55v1.653q-1.43 0-2.17.527-.737.516-.737 1.734v3.552q0 1.793-1.207 2.79-1.196 1.007-3.422 1.03v-1.64q1.3-.024 1.98-.563.68-.54.68-1.735v-3.48q0-1.336.644-2.04.645-.703 1.97-.937v-.14z"/></g><g style="line-height:125%;-inkscape-font-specification:'Open Sans'" font-weight="400" font-size="24" font-family="Open Sans" letter-spacing="0" word-spacing="0" fill="gray"><path d="M95.072 411.404l-4.992-13.102h3.738l2.532 7.465q.42 1.418.527 2.684h.07q.06-1.124.527-2.683l2.52-7.465h3.738l-4.992 13.102h-3.668zM113.916 411.404l-.69-1.78h-.095q-.902 1.135-1.863 1.58-.95.434-2.484.434-1.887 0-2.977-1.078-1.078-1.078-1.078-3.07 0-2.086 1.453-3.07 1.466-.997 4.408-1.102l2.273-.07v-.575q0-1.992-2.038-1.992-1.57 0-3.69.95l-1.185-2.414q2.262-1.183 5.016-1.183 2.636 0 4.043 1.148 1.406 1.15 1.406 3.493v8.73h-2.496zm-1.055-6.07l-1.382.046q-1.558.047-2.32.563-.762.516-.762 1.57 0 1.512 1.735 1.512 1.243 0 1.98-.715.75-.715.75-1.898v-1.078zM127.392 398.056q.727 0 1.208.106l-.27 3.35q-.434-.116-1.055-.116-1.71 0-2.672.88-.95.878-.95 2.46v6.668h-3.573v-13.102h2.707l.527 2.203h.176q.61-1.1 1.64-1.77 1.044-.68 2.262-.68z" font-weight="700"/><path d="M145.64 411.404h-9.318v-1.324l7.008-10.008h-6.574v-1.512h8.707v1.512l-6.914 9.82h7.09v1.512zM154.24 401.35v-1.606h10.9v1.605h-10.9zm0 4.792v-1.605h10.9v1.605h-10.9z"/><path d="M180.853 398.35q2.532 0 3.926 1.733 1.405 1.723 1.405 4.887 0 3.164-1.418 4.922-1.406 1.746-3.914 1.746-1.253 0-2.296-.457-1.032-.468-1.735-1.43h-.14l-.41 1.654h-1.395V393.17h1.945v4.43q0 1.487-.094 2.67h.094q1.36-1.92 4.03-1.92zm-.28 1.628q-1.993 0-2.872 1.148-.878 1.137-.878 3.844t.903 3.88q.902 1.16 2.894 1.16 1.792 0 2.67-1.302.88-1.312.88-3.76 0-2.51-.88-3.74-.878-1.23-2.718-1.23zM197.494 411.404l-.387-1.828h-.094q-.96 1.207-1.92 1.64-.95.422-2.38.422-1.91 0-3-.984-1.08-.985-1.08-2.8 0-3.892 6.224-4.08l2.18-.07v-.796q0-1.512-.656-2.227-.644-.725-2.074-.725-1.605 0-3.632.984l-.598-1.49q.95-.515 2.074-.808 1.137-.293 2.274-.293 2.296 0 3.398 1.02 1.113 1.018 1.113 3.268v8.766h-1.44zm-4.394-1.37q1.816 0 2.847-.997 1.043-.996 1.043-2.79v-1.16l-1.945.082q-2.32.08-3.352.726-1.02.633-1.02 1.98 0 1.055.634 1.606.644.55 1.793.55zM208.814 398.326q.856 0 1.536.14l-.27 1.805q-.797-.175-1.406-.175-1.56 0-2.672 1.266-1.102 1.266-1.102 3.153v6.89h-1.945V398.56h1.605l.223 2.38h.094q.715-1.255 1.723-1.935 1.008-.68 2.215-.68zM211.65 404.83q0-3.106.903-5.813.914-2.707 2.625-4.746h1.898q-1.687 2.263-2.543 4.97-.844 2.707-.844 5.566 0 2.813.867 5.496.867 2.684 2.496 4.9h-1.875q-1.723-1.994-2.625-4.654-.903-2.66-.903-5.718zM236.482 411.404h-11.26v-1.676l4.51-4.535q2.063-2.086 2.72-2.977.655-.89.983-1.734.33-.844.33-1.816 0-1.372-.833-2.168-.832-.81-2.31-.81-1.065 0-2.026.353-.95.352-2.12 1.278l-1.033-1.324q2.367-1.97 5.157-1.97 2.414 0 3.785 1.243 1.37 1.23 1.37 3.316 0 1.63-.913 3.223-.914 1.594-3.422 4.03l-3.75 3.67v.093h8.812v1.804zM246.162 411.404h-1.898v-12.21q0-1.525.094-2.884-.247.246-.55.516-.306.27-2.79 2.285l-1.032-1.335 4.536-3.504h1.64v17.134zM263.892 404.83q0 3.082-.914 5.742-.902 2.66-2.613 4.63h-1.875q1.63-2.204 2.496-4.888.867-2.695.867-5.508 0-2.86-.855-5.566-.844-2.707-2.53-4.97h1.897q1.723 2.052 2.625 4.77.902 2.708.902 5.79z" fill="#d81b60"/><path d="M268.978 408.615l.176.27q-.304 1.17-.88 2.718-.573 1.56-1.194 2.895h-1.465q.317-1.22.692-3.012.386-1.793.54-2.87h2.13zm-2.378-8.8q0-1.583 1.394-1.583 1.44 0 1.44 1.582 0 .762-.385 1.172-.388.41-1.056.41-.68 0-1.043-.41-.35-.41-.35-1.172zM97.275 441.638q-2.79 0-4.324-1.71-1.522-1.723-1.522-4.864 0-3.223 1.547-4.98 1.558-1.758 4.43-1.758.925 0 1.85.2.927.198 1.454.468l-.6 1.652q-.643-.258-1.405-.422-.762-.176-1.348-.176-3.914 0-3.914 4.993 0 2.368.95 3.633.96 1.266 2.835 1.266 1.606 0 3.293-.692v1.722q-1.288.668-3.245.668zM114.666 434.97q0 3.14-1.582 4.91-1.582 1.758-4.37 1.758-1.724 0-3.06-.808-1.336-.81-2.062-2.32-.727-1.512-.727-3.54 0-3.14 1.57-4.887 1.57-1.757 4.36-1.757 2.695 0 4.277 1.793 1.594 1.792 1.594 4.85zm-9.785 0q0 2.46.985 3.75t2.895 1.29q1.91 0 2.894-1.278.996-1.29.996-3.762 0-2.45-.996-3.715-.984-1.277-2.918-1.277-1.91 0-2.883 1.254-.972 1.254-.972 3.738zM126.853 441.404v-8.31q0-1.57-.714-2.343-.716-.772-2.24-.772-2.015 0-2.953 1.09-.937 1.09-.937 3.598v6.738h-1.946V428.56h1.582l.317 1.758h.094q.598-.95 1.676-1.465 1.078-.527 2.402-.527 2.32 0 3.492 1.125 1.172 1.114 1.172 3.575v8.38h-1.946zM141.068 437.9q0 1.793-1.336 2.766-1.336.972-3.75.972-2.554 0-3.984-.808v-1.805q.926.47 1.98.738 1.067.27 2.05.27 1.525 0 2.345-.48.82-.493.82-1.49 0-.75-.656-1.276-.645-.54-2.53-1.266-1.794-.667-2.556-1.16-.75-.503-1.124-1.136-.363-.633-.363-1.512 0-1.57 1.277-2.472 1.277-.914 3.504-.914 2.074 0 4.055.843l-.693 1.58q-1.933-.795-3.504-.795-1.382 0-2.086.433-.703.434-.703 1.195 0 .516.258.88.27.363.856.69.586.33 2.25.95 2.285.832 3.082 1.676.808.843.808 2.12zM155.307 434.97q0 3.14-1.582 4.91-1.583 1.758-4.372 1.758-1.722 0-3.058-.808-1.336-.81-2.063-2.32-.726-1.512-.726-3.54 0-3.14 1.57-4.887 1.57-1.757 4.36-1.757 2.695 0 4.277 1.793 1.594 1.792 1.594 4.85zm-9.786 0q0 2.46.986 3.75.984 1.29 2.894 1.29 1.91 0 2.895-1.278.996-1.29.996-3.762 0-2.45-.995-3.715-.985-1.277-2.918-1.277-1.91 0-2.883 1.254-.973 1.254-.973 3.738zM160.65 441.404h-1.945V423.17h1.945v18.234zM170.225 441.638q-2.848 0-4.5-1.734-1.64-1.735-1.64-4.817 0-3.105 1.522-4.933 1.535-1.828 4.114-1.828 2.415 0 3.82 1.593 1.407 1.58 1.407 4.183v1.23H166.1q.06 2.262 1.136 3.434 1.09 1.172 3.06 1.172 2.073 0 4.1-.868v1.734q-1.03.445-1.957.633-.915.198-2.215.198zm-.528-11.683q-1.547 0-2.472 1.007-.915 1.008-1.08 2.79h6.716q0-1.84-.82-2.813-.82-.985-2.343-.985zM177.97 440.162q0-.786.352-1.184.363-.41 1.03-.41.68 0 1.056.41.387.398.387 1.184 0 .76-.387 1.17-.387.412-1.055.412-.597 0-.996-.364-.386-.375-.386-1.218zM186.572 441.404h-1.945V423.17h1.945v18.234zM201.807 434.97q0 3.14-1.582 4.91-1.583 1.758-4.372 1.758-1.722 0-3.058-.808-1.336-.81-2.063-2.32-.726-1.512-.726-3.54 0-3.14 1.57-4.887 1.57-1.757 4.36-1.757 2.695 0 4.277 1.793 1.594 1.792 1.594 4.85zm-9.786 0q0 2.46.986 3.75.984 1.29 2.894 1.29 1.91 0 2.895-1.278.996-1.29.996-3.762 0-2.45-.995-3.715-.985-1.277-2.918-1.277-1.91 0-2.883 1.254-.973 1.254-.973 3.738zM215.717 428.56v1.23l-2.38.282q.33.41.587 1.078.258.656.258 1.488 0 1.887-1.29 3.012t-3.54 1.125q-.573 0-1.077-.094-1.242.657-1.242 1.654 0 .527.434.785.433.245 1.488.245h2.273q2.086 0 3.2.88 1.125.878 1.125 2.553 0 2.133-1.71 3.246-1.712 1.125-4.993 1.125-2.52 0-3.89-.938-1.36-.938-1.36-2.648 0-1.172.75-2.028.75-.855 2.11-1.16-.493-.223-.833-.69-.328-.47-.328-1.09 0-.704.374-1.232.375-.527 1.183-1.02-.996-.41-1.63-1.394-.62-.984-.62-2.25 0-2.11 1.266-3.246 1.266-1.148 3.586-1.148 1.007 0 1.815.234h4.442zm-10.242 15q0 1.043.878 1.582.88.54 2.52.54 2.45 0 3.62-.74 1.185-.726 1.185-1.98 0-1.043-.645-1.453-.644-.4-2.426-.4h-2.332q-1.324 0-2.062.634-.738.632-.738 1.816zm1.054-10.887q0 1.348.76 2.04.763.69 2.122.69 2.848 0 2.848-2.765 0-2.894-2.883-2.894-1.37 0-2.11.738-.738.738-.738 2.19zM217.275 434.83q0-3.106.903-5.813.914-2.707 2.625-4.746h1.898q-1.686 2.263-2.542 4.97-.844 2.707-.844 5.566 0 2.813.868 5.496.867 2.684 2.496 4.9h-1.875q-1.723-1.994-2.625-4.654-.903-2.66-.903-5.718zM239.95 441.404h-9.315v-1.324l7.007-10.008h-6.574v-1.512h8.707v1.512l-6.914 9.82h7.09v1.512zM253.3 434.83q0 3.082-.915 5.742-.903 2.66-2.614 4.63h-1.874q1.63-2.204 2.496-4.888.868-2.695.868-5.508 0-2.86-.856-5.566-.844-2.707-2.53-4.97h1.897q1.724 2.052 2.626 4.77.903 2.708.903 5.79zM258.385 438.615l.175.27q-.304 1.17-.878 2.718-.575 1.56-1.196 2.895h-1.465q.318-1.22.693-3.012.387-1.793.54-2.87h2.132zm-2.38-8.8q0-1.583 1.395-1.583 1.442 0 1.442 1.582 0 .762-.387 1.172-.387.41-1.055.41-.68 0-1.043-.41-.35-.41-.35-1.172z"/></g><path d="M474.126 380.65h94.954v74.75h-94.954z" fill="#999"/><g style="line-height:125%;-inkscape-font-specification:'Open Sans'" font-weight="400" font-size="24" font-family="Open Sans" letter-spacing="0" word-spacing="0" fill="#999"><path d="M69.956 67.4h-9.55V50.27h9.55v1.77h-7.56v5.52H69.5v1.757h-7.103v6.304h7.56v1.78zM81.757 63.897q0 1.793-1.336 2.765-1.335.973-3.75.973-2.554 0-3.984-.808v-1.805q.926.47 1.98.738 1.067.27 2.05.27 1.525 0 2.345-.48.822-.493.822-1.49 0-.75-.657-1.276-.644-.54-2.53-1.266-1.794-.668-2.556-1.16-.75-.504-1.126-1.137-.363-.632-.363-1.51 0-1.57 1.278-2.473 1.278-.914 3.504-.914 2.075 0 4.055.843l-.69 1.582q-1.935-.796-3.505-.796-1.383 0-2.086.433-.703.434-.703 1.195 0 .516.257.88.27.363.856.69.586.33 2.25.95 2.285.832 3.082 1.676.81.843.81 2.12zM90.042 67.635q-2.79 0-4.325-1.71-1.523-1.723-1.523-4.864 0-3.222 1.547-4.98 1.56-1.757 4.43-1.757.926 0 1.852.2.926.198 1.453.468l-.597 1.653q-.645-.258-1.407-.422-.76-.175-1.346-.175-3.914 0-3.914 4.992 0 2.368.95 3.633.96 1.266 2.835 1.266 1.605 0 3.293-.692v1.723q-1.29.668-3.246.668zM107.432 60.967q0 3.14-1.582 4.91-1.582 1.758-4.37 1.758-1.723 0-3.06-.808-1.335-.81-2.062-2.32-.726-1.513-.726-3.54 0-3.14 1.57-4.887 1.57-1.757 4.36-1.757 2.695 0 4.277 1.793 1.592 1.793 1.592 4.85zm-9.785 0q0 2.46.985 3.75.984 1.29 2.894 1.29 1.91 0 2.895-1.278.997-1.29.997-3.763 0-2.45-.996-3.715-.984-1.277-2.917-1.277-1.91 0-2.883 1.254-.973 1.253-.973 3.737zM116.807 67.635q-1.254 0-2.297-.457-1.03-.47-1.734-1.43h-.14q.14 1.125.14 2.133v5.286h-1.945v-18.61h1.583l.27 1.76h.093q.75-1.056 1.746-1.525.996-.467 2.285-.467 2.555 0 3.938 1.746 1.395 1.745 1.395 4.897 0 3.164-1.418 4.922-1.407 1.745-3.915 1.745zm-.28-11.66q-1.97 0-2.85 1.09-.878 1.09-.9 3.47v.432q0 2.707.9 3.88.904 1.16 2.896 1.16 1.664 0 2.6-1.348.95-1.35.95-3.716 0-2.403-.95-3.68-.936-1.29-2.647-1.29zM136.635 60.967q0 3.14-1.582 4.91-1.582 1.758-4.37 1.758-1.723 0-3.06-.808-1.335-.81-2.062-2.32-.725-1.513-.725-3.54 0-3.14 1.57-4.887 1.57-1.757 4.36-1.757 2.695 0 4.277 1.793 1.593 1.793 1.593 4.85zm-9.785 0q0 2.46.985 3.75.984 1.29 2.894 1.29 1.91 0 2.894-1.278.996-1.29.996-3.763 0-2.45-.996-3.715-.985-1.277-2.918-1.277-1.91 0-2.883 1.254-.973 1.253-.973 3.737zM148.32 63.897q0 1.793-1.337 2.765-1.336.973-3.75.973-2.555 0-3.984-.808v-1.805q.924.47 1.98.738 1.066.27 2.05.27 1.523 0 2.344-.48.82-.493.82-1.49 0-.75-.656-1.276-.645-.54-2.53-1.266-1.794-.668-2.556-1.16-.75-.504-1.125-1.137-.363-.632-.363-1.51 0-1.57 1.277-2.473 1.278-.914 3.505-.914 2.074 0 4.054.843l-.692 1.582q-1.934-.796-3.504-.796-1.383 0-2.086.433-.703.434-.703 1.195 0 .516.258.88.27.363.855.69.586.33 2.25.95 2.286.832 3.082 1.676.81.843.81 2.12z"/></g><g style="line-height:125%;-inkscape-font-specification:'Open Sans'" font-weight="400" font-size="24" font-family="Open Sans" letter-spacing="0" word-spacing="0" fill="#999"><path d="M462.582 67.4h-9.55V50.27h9.55v1.77h-7.558v5.52h7.1v1.757h-7.1v6.304h7.558v1.78zM474.383 63.897q0 1.793-1.336 2.765-1.336.973-3.75.973-2.555 0-3.984-.808v-1.805q.925.47 1.98.738 1.066.27 2.05.27 1.524 0 2.345-.48.82-.493.82-1.49 0-.75-.656-1.276-.645-.54-2.532-1.266-1.793-.668-2.554-1.16-.75-.504-1.125-1.137-.363-.632-.363-1.51 0-1.57 1.278-2.473 1.277-.914 3.504-.914 2.073 0 4.053.843l-.69 1.582q-1.935-.796-3.505-.796-1.383 0-2.086.433-.703.434-.703 1.195 0 .516.257.88.27.363.855.69.586.33 2.25.95 2.285.832 3.082 1.676.81.843.81 2.12zM481.684 66.03q.515 0 .996-.07.48-.083.762-.165v1.49q-.317.15-.938.245-.61.105-1.102.105-3.726 0-3.726-3.926v-7.64h-1.84v-.94l1.84-.807.82-2.743h1.125v2.977h3.728v1.512h-3.727v7.557q0 1.16.552 1.782.55.62 1.512.62zM493.918 67.4l-.387-1.827h-.092q-.96 1.207-1.922 1.64-.95.422-2.38.422-1.91 0-3-.984-1.077-.984-1.077-2.8 0-3.89 6.22-4.078l2.18-.07v-.797q0-1.512-.655-2.227-.645-.726-2.074-.726-1.605 0-3.632.984l-.598-1.488q.95-.516 2.074-.81 1.137-.292 2.274-.292 2.297 0 3.398 1.02 1.114 1.02 1.114 3.27V67.4h-1.442zm-4.394-1.37q1.816 0 2.847-.996 1.044-.997 1.044-2.79v-1.16l-1.945.082q-2.32.082-3.353.727-1.02.633-1.02 1.98 0 1.055.634 1.606.645.55 1.794.55zm-.457-13.465q.562-.727 1.207-1.758.656-1.03 1.03-1.793h2.368v.246q-.516.762-1.535 1.875-1.02 1.113-1.77 1.723h-1.3v-.293zM509.89 54.557v1.23l-2.378.282q.328.41.586 1.077.258.656.258 1.488 0 1.887-1.29 3.012t-3.54 1.125q-.573 0-1.077-.094-1.243.656-1.243 1.652 0 .528.434.786.434.246 1.49.246h2.272q2.086 0 3.2.88 1.125.878 1.125 2.553 0 2.133-1.71 3.246-1.712 1.126-4.993 1.126-2.52 0-3.89-.937-1.36-.94-1.36-2.65 0-1.17.75-2.027.75-.855 2.11-1.16-.493-.223-.833-.69-.327-.47-.327-1.09 0-.704.375-1.232.375-.526 1.183-1.018-.995-.41-1.628-1.395-.62-.984-.62-2.25 0-2.11 1.265-3.246 1.266-1.147 3.586-1.147 1.008 0 1.816.234h4.44zm-10.24 15q0 1.043.877 1.582.88.538 2.52.538 2.45 0 3.62-.738 1.185-.727 1.185-1.98 0-1.044-.645-1.454-.644-.398-2.426-.398h-2.33q-1.325 0-2.063.633-.738.633-.738 1.817zm1.053-10.887q0 1.348.762 2.04.762.69 2.12.69 2.85 0 2.85-2.765 0-2.894-2.884-2.894-1.37 0-2.108.74-.74.737-.74 2.19zM514.496 67.4h-1.945V54.558h1.946V67.4zm-2.11-16.323q0-.668.33-.973.327-.317.82-.317.468 0 .808.317.34.316.34.973 0 .656-.34.984-.34.317-.81.317-.49 0-.82-.316-.327-.327-.327-.983zM529.73 60.967q0 3.14-1.58 4.91-1.583 1.758-4.373 1.758-1.722 0-3.058-.808-1.337-.81-2.064-2.32-.726-1.513-.726-3.54 0-3.14 1.57-4.887 1.57-1.757 4.36-1.757 2.695 0 4.277 1.793 1.594 1.793 1.594 4.85zm-9.785 0q0 2.46.985 3.75.984 1.29 2.894 1.29 1.91 0 2.895-1.278.995-1.29.995-3.763 0-2.45-.996-3.715-.986-1.277-2.92-1.277-1.91 0-2.882 1.254-.973 1.253-.973 3.737zM541.414 63.897q0 1.793-1.336 2.765-1.336.973-3.75.973-2.554 0-3.984-.808v-1.805q.926.47 1.98.738 1.067.27 2.05.27 1.525 0 2.345-.48.82-.493.82-1.49 0-.75-.657-1.276-.645-.54-2.53-1.266-1.794-.668-2.556-1.16-.75-.504-1.125-1.137-.363-.632-.363-1.51 0-1.57 1.276-2.473 1.277-.914 3.504-.914 2.074 0 4.055.843l-.692 1.582q-1.933-.796-3.504-.796-1.383 0-2.087.433-.703.434-.703 1.195 0 .516.258.88.27.363.856.69.585.33 2.25.95 2.285.832 3.082 1.676.808.843.808 2.12zM559.543 65.678h-.105q-1.348 1.957-4.032 1.957-2.52 0-3.925-1.723-1.394-1.722-1.394-4.898 0-3.176 1.406-4.934 1.407-1.757 3.914-1.757 2.614 0 4.008 1.898h.153l-.082-.925-.047-.902v-5.227h1.945V67.4H559.8l-.257-1.722zm-3.89.328q1.992 0 2.882-1.078.903-1.09.903-3.504v-.41q0-2.73-.914-3.89-.903-1.172-2.895-1.172-1.712 0-2.626 1.335-.902 1.325-.902 3.75 0 2.46.902 3.715.902 1.254 2.648 1.254zM573.418 67.4l-.387-1.827h-.092q-.96 1.207-1.922 1.64-.95.422-2.38.422-1.91 0-3-.984-1.077-.984-1.077-2.8 0-3.89 6.22-4.078l2.18-.07v-.797q0-1.512-.655-2.227-.645-.726-2.074-.726-1.605 0-3.632.984L566 55.448q.95-.516 2.074-.81 1.137-.292 2.274-.292 2.297 0 3.398 1.02 1.114 1.02 1.114 3.27V67.4h-1.442zm-4.394-1.37q1.816 0 2.847-.996 1.044-.997 1.044-2.79v-1.16l-1.945.082q-2.32.082-3.353.727-1.02.633-1.02 1.98 0 1.055.634 1.606.645.55 1.794.55zM596.27 55.26q0 2.602-1.782 4.008-1.77 1.394-5.074 1.394H587.4v6.74h-1.994V50.267h4.442q6.422 0 6.422 4.992zm-8.87 3.692h1.792q2.648 0 3.832-.856 1.183-.855 1.183-2.742 0-1.7-1.113-2.53-1.113-.833-3.47-.833H587.4v6.962zM601.496 67.4h-1.945V54.558h1.946V67.4zm-2.11-16.323q0-.668.33-.973.327-.317.82-.317.468 0 .808.317.34.316.34.973 0 .656-.34.984-.34.317-.81.317-.49 0-.82-.316-.327-.327-.327-.983zM607.59 67.4h-1.945V49.167h1.945V67.4zM620.527 67.4v-8.308q0-1.57-.714-2.344-.715-.773-2.24-.773-2.026 0-2.964 1.102-.926 1.1-.926 3.61V67.4h-1.946V49.167h1.946v5.52q0 .996-.094 1.652h.117q.574-.926 1.63-1.453 1.065-.54 2.425-.54 2.355 0 3.527 1.126 1.183 1.114 1.183 3.552v8.38h-1.946zM634.356 67.4l-.387-1.827h-.095q-.96 1.207-1.922 1.64-.95.422-2.38.422-1.91 0-3-.984-1.077-.984-1.077-2.8 0-3.89 6.223-4.078l2.18-.07v-.797q0-1.512-.658-2.227-.644-.726-2.074-.726-1.605 0-3.633.984l-.597-1.488q.95-.516 2.074-.81 1.137-.292 2.273-.292 2.297 0 3.4 1.02 1.112 1.02 1.112 3.27V67.4h-1.44zm-4.395-1.37q1.817 0 2.85-.996 1.042-.997 1.042-2.79v-1.16l-1.946.082q-2.32.082-3.35.727-1.02.633-1.02 1.98 0 1.055.632 1.606.645.55 1.793.55z"/></g><g style="line-height:125%;-inkscape-font-specification:'Open Sans'" font-weight="700" font-size="24" font-family="Open Sans" letter-spacing="0" word-spacing="0" fill="#fff"><path d="M499.425 411.158v1.816l-2.05.528q.562.88.562 1.97 0 2.108-1.477 3.292-1.465 1.17-4.078 1.17l-.644-.034-.528-.058q-.55.42-.55.937 0 .773 1.968.773h2.227q2.156 0 3.28.925 1.138.926 1.138 2.72 0 2.296-1.922 3.562-1.91 1.265-5.495 1.265-2.742 0-4.196-.96-1.442-.95-1.442-2.673 0-1.183.738-1.98.74-.797 2.168-1.137-.55-.234-.96-.762-.41-.54-.41-1.136 0-.75.433-1.242.433-.504 1.254-.985-1.03-.445-1.64-1.43-.598-.984-.598-2.32 0-2.144 1.395-3.316 1.394-1.172 3.984-1.172.552 0 1.302.105.762.094.973.14h4.57zm-10.113 14.953q0 .74.703 1.16.715.423 1.992.423 1.922 0 3.012-.527t1.09-1.442q0-.738-.646-1.02-.644-.28-1.992-.28h-1.852q-.984 0-1.652.457-.656.47-.656 1.23zm1.3-10.663q0 1.067.48 1.688.493.62 1.49.62 1.007 0 1.476-.62.47-.62.47-1.688 0-2.367-1.947-2.367-1.967 0-1.967 2.367zM505.144 424.26h-3.574v-18.235h3.574v18.235zM511.73 417.685q0 1.946.633 2.942.644.996 2.086.996 1.428 0 2.05-.984.632-.998.632-2.955 0-1.945-.633-2.918-.634-.972-2.075-.972-1.43 0-2.062.972-.633.96-.633 2.918zm9.058 0q0 3.2-1.687 5.004-1.687 1.804-4.698 1.804-1.887 0-3.328-.82-1.442-.832-2.215-2.38-.775-1.546-.775-3.61 0-3.21 1.676-4.99 1.677-1.782 4.712-1.782 1.887 0 3.328.82 1.44.82 2.215 2.356.773 1.535.773 3.597zM531.03 410.912q2.32 0 3.633 1.816 1.313 1.805 1.313 4.957 0 3.247-1.36 5.028-1.347 1.78-3.68 1.78-2.308 0-3.62-1.675h-.246l-.598 1.442h-2.73v-18.235h3.574v4.242q0 .81-.14 2.59h.14q1.254-1.945 3.715-1.945zm-1.148 2.86q-1.324 0-1.933.82-.61.808-.634 2.683v.387q0 2.11.62 3.023.634.914 1.993.914 1.1 0 1.745-1.008.656-1.02.656-2.953 0-1.935-.655-2.896-.656-.973-1.793-.973zM547.25 424.26l-.692-1.782h-.094q-.902 1.137-1.863 1.582-.948.434-2.483.434-1.887 0-2.977-1.078-1.078-1.078-1.078-3.07 0-2.086 1.453-3.07 1.465-.997 4.406-1.102l2.275-.07v-.575q0-1.993-2.04-1.993-1.57 0-3.69.95l-1.184-2.415q2.262-1.183 5.016-1.183 2.637 0 4.043 1.147 1.405 1.148 1.405 3.492v8.73h-2.496zm-1.055-6.07l-1.383.046q-1.56.047-2.32.563-.762.514-.762 1.57 0 1.51 1.734 1.51 1.242 0 1.98-.714.75-.715.75-1.9v-1.077zM556.988 424.26h-3.575v-18.235h3.575v18.235z"/></g><path d="M613.03 79.742h137.144v400.564H613.03z" fill="#e6e6e6"/><path d="M634.126 380.65h94.954v74.75h-94.954z" fill="#999"/><path d="M634.126 300.65h94.954v74.75h-94.954z" fill="#d81b60"/><g style="line-height:125%;-inkscape-font-specification:'Open Sans'" font-weight="700" font-size="24" font-family="Open Sans" letter-spacing="0" word-spacing="0" fill="#fff"><path d="M659.425 411.158v1.816l-2.05.528q.562.88.562 1.97 0 2.108-1.477 3.292-1.465 1.17-4.078 1.17l-.644-.034-.528-.058q-.55.42-.55.937 0 .773 1.968.773h2.227q2.156 0 3.28.925 1.138.926 1.138 2.72 0 2.296-1.922 3.562-1.91 1.265-5.495 1.265-2.742 0-4.196-.96-1.442-.95-1.442-2.673 0-1.183.738-1.98.74-.797 2.168-1.137-.55-.234-.96-.762-.41-.54-.41-1.136 0-.75.433-1.242.433-.504 1.254-.985-1.03-.445-1.64-1.43-.598-.984-.598-2.32 0-2.144 1.395-3.316 1.394-1.172 3.984-1.172.552 0 1.302.105.762.094.973.14h4.57zm-10.113 14.953q0 .74.703 1.16.715.423 1.992.423 1.922 0 3.012-.527t1.09-1.442q0-.738-.646-1.02-.644-.28-1.992-.28h-1.852q-.984 0-1.652.457-.656.47-.656 1.23zm1.3-10.663q0 1.067.48 1.688.493.62 1.49.62 1.007 0 1.476-.62.47-.62.47-1.688 0-2.367-1.947-2.367-1.967 0-1.967 2.367zM665.144 424.26h-3.574v-18.235h3.574v18.235zM671.73 417.685q0 1.946.633 2.942.644.996 2.086.996 1.428 0 2.05-.984.632-.998.632-2.955 0-1.945-.633-2.918-.634-.972-2.075-.972-1.43 0-2.062.972-.633.96-.633 2.918zm9.058 0q0 3.2-1.687 5.004-1.687 1.804-4.698 1.804-1.887 0-3.328-.82-1.442-.832-2.215-2.38-.775-1.546-.775-3.61 0-3.21 1.676-4.99 1.677-1.782 4.712-1.782 1.887 0 3.328.82 1.44.82 2.215 2.356.773 1.535.773 3.597zM691.03 410.912q2.32 0 3.633 1.816 1.313 1.805 1.313 4.957 0 3.247-1.36 5.028-1.347 1.78-3.68 1.78-2.308 0-3.62-1.675h-.246l-.598 1.442h-2.73v-18.235h3.574v4.242q0 .81-.14 2.59h.14q1.254-1.945 3.715-1.945zm-1.148 2.86q-1.324 0-1.933.82-.61.808-.634 2.683v.387q0 2.11.62 3.023.634.914 1.993.914 1.1 0 1.745-1.008.656-1.02.656-2.953 0-1.935-.655-2.896-.656-.973-1.793-.973zM707.25 424.26l-.692-1.782h-.094q-.902 1.137-1.863 1.582-.948.434-2.483.434-1.887 0-2.977-1.078-1.078-1.078-1.078-3.07 0-2.086 1.453-3.07 1.465-.997 4.406-1.102l2.275-.07v-.575q0-1.993-2.04-1.993-1.57 0-3.69.95l-1.184-2.415q2.262-1.183 5.016-1.183 2.637 0 4.043 1.147 1.405 1.148 1.405 3.492v8.73h-2.496zm-1.055-6.07l-1.383.046q-1.56.047-2.32.563-.762.514-.762 1.57 0 1.51 1.734 1.51 1.242 0 1.98-.714.75-.715.75-1.9v-1.077zM716.988 424.26h-3.575v-18.235h3.575v18.235z"/></g><g style="line-height:125%;-inkscape-font-specification:'Open Sans'" font-weight="700" font-size="24" font-family="Open Sans" letter-spacing="0" word-spacing="0" fill="#fff"><path d="M669.796 333.678q2.32 0 3.633 1.816 1.31 1.805 1.31 4.957 0 3.247-1.358 5.028-1.348 1.782-3.68 1.782-2.308 0-3.62-1.676h-.247l-.597 1.44h-2.73v-18.233h3.573v4.243q0 .81-.14 2.59h.14q1.255-1.945 3.716-1.945zm-1.148 2.86q-1.324 0-1.934.82-.61.808-.633 2.683v.388q0 2.11.622 3.023.633.915 1.993.915 1.1 0 1.746-1.008.657-1.02.657-2.953 0-1.933-.656-2.894-.656-.973-1.792-.973zM686.015 347.025l-.69-1.78h-.095q-.903 1.136-1.863 1.58-.95.435-2.485.435-1.887 0-2.976-1.078-1.08-1.08-1.08-3.07 0-2.087 1.455-3.07 1.465-.997 4.407-1.103l2.273-.07v-.575q0-1.992-2.04-1.992-1.57 0-3.69.95l-1.184-2.415q2.262-1.184 5.016-1.184 2.637 0 4.043 1.15 1.406 1.147 1.406 3.49v8.73h-2.495zm-1.055-6.07l-1.383.047q-1.558.047-2.32.562-.762.516-.762 1.57 0 1.512 1.735 1.512 1.242 0 1.98-.714.75-.715.75-1.9v-1.077zM699.49 333.678q.728 0 1.21.105l-.27 3.352q-.435-.118-1.056-.118-1.71 0-2.672.88-.95.878-.95 2.46v6.668h-3.573v-13.1h2.706l.527 2.202h.176q.61-1.102 1.64-1.77 1.043-.68 2.26-.68z"/></g><path d="M773.03 79.742h137.144v400.564H773.03z" fill="#e6e6e6"/><path d="M794.126 380.65h94.954v74.75h-94.954z" fill="#999"/><path d="M794.126 300.65h94.954v74.75h-94.954z" fill="#d81b60"/><path d="M794.126 220.65h94.954v74.75h-94.954z" fill="#3949ab"/><g style="line-height:125%;-inkscape-font-specification:'Open Sans'" font-weight="700" font-size="24" font-family="Open Sans" letter-spacing="0" word-spacing="0" fill="#fff"><path d="M819.425 411.158v1.816l-2.05.528q.562.88.562 1.97 0 2.108-1.477 3.292-1.465 1.17-4.078 1.17l-.644-.034-.528-.058q-.55.42-.55.937 0 .773 1.968.773h2.227q2.156 0 3.28.925 1.138.926 1.138 2.72 0 2.296-1.922 3.562-1.91 1.265-5.495 1.265-2.742 0-4.196-.96-1.442-.95-1.442-2.673 0-1.183.738-1.98.74-.797 2.168-1.137-.55-.234-.96-.762-.41-.54-.41-1.136 0-.75.433-1.242.433-.504 1.254-.985-1.03-.445-1.64-1.43-.598-.984-.598-2.32 0-2.144 1.395-3.316 1.394-1.172 3.984-1.172.552 0 1.302.105.762.094.973.14h4.57zm-10.113 14.953q0 .74.703 1.16.715.423 1.992.423 1.922 0 3.012-.527t1.09-1.442q0-.738-.646-1.02-.644-.28-1.992-.28h-1.852q-.984 0-1.652.457-.656.47-.656 1.23zm1.3-10.663q0 1.067.48 1.688.493.62 1.49.62 1.007 0 1.476-.62.47-.62.47-1.688 0-2.367-1.947-2.367-1.967 0-1.967 2.367zM825.144 424.26h-3.574v-18.235h3.574v18.235zM831.73 417.685q0 1.946.633 2.942.644.996 2.086.996 1.428 0 2.05-.984.632-.998.632-2.955 0-1.945-.633-2.918-.634-.972-2.075-.972-1.43 0-2.062.972-.633.96-.633 2.918zm9.058 0q0 3.2-1.687 5.004-1.687 1.804-4.698 1.804-1.887 0-3.328-.82-1.442-.832-2.215-2.38-.775-1.546-.775-3.61 0-3.21 1.676-4.99 1.677-1.782 4.712-1.782 1.887 0 3.328.82 1.44.82 2.215 2.356.773 1.535.773 3.597zM851.03 410.912q2.32 0 3.633 1.816 1.313 1.805 1.313 4.957 0 3.247-1.36 5.028-1.347 1.78-3.68 1.78-2.308 0-3.62-1.675h-.246l-.598 1.442h-2.73v-18.235h3.574v4.242q0 .81-.14 2.59h.14q1.254-1.945 3.715-1.945zm-1.148 2.86q-1.324 0-1.933.82-.61.808-.634 2.683v.387q0 2.11.62 3.023.634.914 1.993.914 1.1 0 1.745-1.008.656-1.02.656-2.953 0-1.935-.655-2.896-.656-.973-1.793-.973zM867.25 424.26l-.692-1.782h-.094q-.902 1.137-1.863 1.582-.948.434-2.483.434-1.887 0-2.977-1.078-1.078-1.078-1.078-3.07 0-2.086 1.453-3.07 1.465-.997 4.406-1.102l2.275-.07v-.575q0-1.993-2.04-1.993-1.57 0-3.69.95l-1.184-2.415q2.262-1.183 5.016-1.183 2.637 0 4.043 1.147 1.405 1.148 1.405 3.492v8.73h-2.496zm-1.055-6.07l-1.383.046q-1.56.047-2.32.563-.762.514-.762 1.57 0 1.51 1.734 1.51 1.242 0 1.98-.714.75-.715.75-1.9v-1.077zM876.988 424.26h-3.575v-18.235h3.575v18.235z"/></g><g style="line-height:125%;-inkscape-font-specification:'Open Sans'" font-weight="700" font-size="24" font-family="Open Sans" letter-spacing="0" word-spacing="0" fill="#fff"><path d="M829.796 333.678q2.32 0 3.633 1.816 1.31 1.805 1.31 4.957 0 3.247-1.358 5.028-1.348 1.782-3.68 1.782-2.308 0-3.62-1.676h-.247l-.597 1.44h-2.73v-18.233h3.573v4.243q0 .81-.14 2.59h.14q1.255-1.945 3.716-1.945zm-1.148 2.86q-1.325 0-1.934.82-.61.808-.633 2.683v.388q0 2.11.622 3.023.633.915 1.993.915 1.1 0 1.746-1.008.657-1.02.657-2.953 0-1.933-.656-2.894-.656-.973-1.792-.973zM846.015 347.025l-.692-1.78h-.093q-.903 1.136-1.863 1.58-.95.435-2.485.435-1.887 0-2.976-1.078-1.08-1.08-1.08-3.07 0-2.087 1.455-3.07 1.465-.997 4.407-1.103l2.273-.07v-.575q0-1.992-2.04-1.992-1.57 0-3.69.95l-1.184-2.415q2.262-1.184 5.016-1.184 2.637 0 4.043 1.15 1.406 1.147 1.406 3.49v8.73h-2.495zm-1.055-6.07l-1.383.047q-1.558.047-2.32.562-.762.516-.762 1.57 0 1.512 1.735 1.512 1.242 0 1.98-.714.75-.715.75-1.9v-1.077zM859.49 333.678q.728 0 1.208.105l-.27 3.352q-.433-.118-1.054-.118-1.71 0-2.672.88-.95.878-.95 2.46v6.668h-3.573v-13.1h2.706l.527 2.202h.176q.608-1.102 1.64-1.77 1.043-.68 2.26-.68z"/></g><g style="line-height:125%;-inkscape-font-specification:'Open Sans'" font-weight="700" font-size="24" font-family="Open Sans" letter-spacing="0" word-spacing="0" fill="#fff"><path d="M831.52 256.672h-3.095v10.418h-3.574v-10.418h-1.968v-1.723l1.97-.962v-.96q0-2.24 1.1-3.27 1.102-1.032 3.528-1.032 1.85 0 3.293.55l-.914 2.626q-1.08-.34-1.994-.34-.76 0-1.1.457-.34.445-.34 1.148v.82h3.093v2.684zM836.406 260.515q0 1.946.632 2.942.645.996 2.086.996 1.43 0 2.05-.984.634-.998.634-2.955 0-1.945-.633-2.918-.633-.972-2.074-.972-1.43 0-2.062.972-.632.96-.632 2.918zm9.058 0q0 3.2-1.687 5.004-1.688 1.804-4.7 1.804-1.886 0-3.328-.82-1.442-.832-2.216-2.38-.773-1.546-.773-3.61 0-3.21 1.677-4.99 1.676-1.782 4.71-1.782 1.887 0 3.33.82 1.44.82 2.214 2.356.774 1.535.774 3.597zM851.265 260.515q0 1.946.633 2.942.644.996 2.086.996 1.43 0 2.05-.984.633-.998.633-2.955 0-1.945-.633-2.918-.632-.972-2.074-.972-1.43 0-2.062.972-.633.96-.633 2.918zm9.058 0q0 3.2-1.687 5.004-1.688 1.804-4.7 1.804-1.886 0-3.327-.82-1.443-.832-2.216-2.38-.774-1.546-.774-3.61 0-3.21 1.676-4.99 1.676-1.782 4.71-1.782 1.888 0 3.33.82 1.44.82 2.214 2.356.773 1.535.773 3.597z"/></g><path d="M933.03 79.742h137.144v400.564H933.03z" fill="#e6e6e6"/><path d="M954.126 380.65h94.954v74.75h-94.954z" fill="#999"/><path d="M954.126 300.65h94.954v74.75h-94.954z" fill="#d81b60"/><g style="line-height:125%;-inkscape-font-specification:'Open Sans'" font-weight="700" font-size="24" font-family="Open Sans" letter-spacing="0" word-spacing="0" fill="#fff"><path d="M979.425 411.158v1.816l-2.05.528q.562.88.562 1.97 0 2.108-1.477 3.292-1.465 1.17-4.078 1.17l-.644-.034-.528-.058q-.55.42-.55.937 0 .773 1.968.773h2.227q2.156 0 3.28.925 1.138.926 1.138 2.72 0 2.296-1.922 3.562-1.91 1.265-5.495 1.265-2.742 0-4.196-.96-1.442-.95-1.442-2.673 0-1.183.738-1.98.74-.797 2.168-1.137-.55-.234-.96-.762-.41-.54-.41-1.136 0-.75.433-1.242.433-.504 1.254-.985-1.03-.445-1.64-1.43-.598-.984-.598-2.32 0-2.144 1.395-3.316 1.394-1.172 3.984-1.172.552 0 1.302.105.762.094.973.14h4.57zm-10.113 14.953q0 .74.703 1.16.715.423 1.992.423 1.922 0 3.012-.527t1.09-1.442q0-.738-.646-1.02-.644-.28-1.992-.28h-1.852q-.984 0-1.652.457-.656.47-.656 1.23zm1.3-10.663q0 1.067.48 1.688.493.62 1.49.62 1.007 0 1.476-.62.47-.62.47-1.688 0-2.367-1.947-2.367-1.967 0-1.967 2.367zM985.144 424.26h-3.574v-18.235h3.574v18.235zM991.73 417.685q0 1.946.633 2.942.644.996 2.085.996 1.43 0 2.05-.984.634-.998.634-2.955 0-1.945-.633-2.918-.634-.972-2.075-.972-1.43 0-2.062.972-.633.96-.633 2.918zm9.058 0q0 3.2-1.687 5.004-1.687 1.804-4.698 1.804-1.887 0-3.33-.82-1.44-.832-2.213-2.38-.775-1.546-.775-3.61 0-3.21 1.676-4.99 1.677-1.782 4.712-1.782 1.887 0 3.328.82 1.44.82 2.215 2.356.773 1.535.773 3.597zM1011.03 410.912q2.32 0 3.633 1.816 1.313 1.805 1.313 4.957 0 3.247-1.36 5.028-1.347 1.78-3.68 1.78-2.308 0-3.62-1.675h-.246l-.598 1.442h-2.73v-18.235h3.574v4.242q0 .81-.14 2.59h.14q1.254-1.945 3.715-1.945zm-1.148 2.86q-1.324 0-1.934.82-.61.808-.632 2.683v.387q0 2.11.62 3.023.634.914 1.993.914 1.1 0 1.745-1.008.656-1.02.656-2.953 0-1.935-.655-2.896-.656-.973-1.793-.973zM1027.25 424.26l-.692-1.782h-.094q-.902 1.137-1.863 1.582-.948.434-2.483.434-1.887 0-2.977-1.078-1.078-1.078-1.078-3.07 0-2.086 1.453-3.07 1.465-.997 4.406-1.102l2.275-.07v-.575q0-1.993-2.04-1.993-1.57 0-3.69.95l-1.184-2.415q2.262-1.183 5.016-1.183 2.637 0 4.043 1.147 1.405 1.148 1.405 3.492v8.73h-2.496zm-1.055-6.07l-1.383.046q-1.56.047-2.32.563-.762.514-.762 1.57 0 1.51 1.734 1.51 1.242 0 1.98-.714.75-.715.75-1.9v-1.077zM1036.988 424.26h-3.575v-18.235h3.575v18.235z"/></g><g style="line-height:125%;-inkscape-font-specification:'Open Sans'" font-weight="700" font-size="24" font-family="Open Sans" letter-spacing="0" word-spacing="0" fill="#fff"><path d="M989.796 333.678q2.32 0 3.633 1.816 1.31 1.805 1.31 4.957 0 3.247-1.358 5.028-1.348 1.782-3.68 1.782-2.308 0-3.62-1.676h-.247l-.597 1.44h-2.73v-18.233h3.573v4.243q0 .81-.14 2.59h.14q1.255-1.945 3.716-1.945zm-1.148 2.86q-1.325 0-1.934.82-.61.808-.633 2.683v.388q0 2.11.622 3.023.633.915 1.993.915 1.1 0 1.746-1.008.657-1.02.657-2.953 0-1.933-.656-2.894-.656-.973-1.792-.973zM1006.015 347.025l-.692-1.78h-.093q-.903 1.136-1.863 1.58-.95.435-2.485.435-1.887 0-2.976-1.078-1.08-1.08-1.08-3.07 0-2.087 1.455-3.07 1.465-.997 4.407-1.103l2.273-.07v-.575q0-1.992-2.04-1.992-1.57 0-3.69.95l-1.184-2.415q2.262-1.184 5.016-1.184 2.637 0 4.043 1.15 1.406 1.147 1.406 3.49v8.73h-2.495zm-1.055-6.07l-1.383.047q-1.558.047-2.32.562-.762.516-.762 1.57 0 1.512 1.735 1.512 1.242 0 1.98-.714.75-.715.75-1.9v-1.077zM1019.49 333.678q.728 0 1.208.105l-.27 3.352q-.433-.118-1.054-.118-1.71 0-2.672.88-.95.878-.95 2.46v6.668h-3.573v-13.1h2.706l.527 2.202h.176q.608-1.102 1.64-1.77 1.043-.68 2.26-.68z"/></g><path d="M1093.03 79.742h137.144v400.564H1093.03z" fill="#e6e6e6"/><path d="M1114.126 380.65h94.954v74.75h-94.954z" fill="#999"/><g style="line-height:125%;-inkscape-font-specification:'Open Sans'" font-weight="700" font-size="24" font-family="Open Sans" letter-spacing="0" word-spacing="0" fill="#fff"><path d="M1139.425 411.158v1.816l-2.05.528q.562.88.562 1.97 0 2.108-1.477 3.292-1.465 1.17-4.078 1.17l-.644-.034-.528-.058q-.55.42-.55.937 0 .773 1.968.773h2.227q2.156 0 3.28.925 1.138.926 1.138 2.72 0 2.296-1.922 3.562-1.91 1.265-5.495 1.265-2.742 0-4.196-.96-1.442-.95-1.442-2.673 0-1.183.738-1.98.74-.797 2.168-1.137-.55-.234-.96-.762-.41-.54-.41-1.136 0-.75.433-1.242.433-.504 1.254-.985-1.03-.445-1.64-1.43-.598-.984-.598-2.32 0-2.144 1.395-3.316 1.394-1.172 3.984-1.172.552 0 1.302.105.762.094.973.14h4.57zm-10.113 14.953q0 .74.703 1.16.715.423 1.992.423 1.922 0 3.012-.527t1.09-1.442q0-.738-.646-1.02-.644-.28-1.992-.28h-1.852q-.984 0-1.652.457-.656.47-.656 1.23zm1.3-10.663q0 1.067.48 1.688.493.62 1.49.62 1.007 0 1.476-.62.47-.62.47-1.688 0-2.367-1.947-2.367-1.967 0-1.967 2.367zM1145.144 424.26h-3.574v-18.235h3.574v18.235zM1151.73 417.685q0 1.946.633 2.942.644.996 2.086.996 1.428 0 2.05-.984.632-.998.632-2.955 0-1.945-.633-2.918-.634-.972-2.075-.972-1.43 0-2.062.972-.633.96-.633 2.918zm9.058 0q0 3.2-1.687 5.004-1.687 1.804-4.698 1.804-1.887 0-3.328-.82-1.442-.832-2.215-2.38-.775-1.546-.775-3.61 0-3.21 1.676-4.99 1.677-1.782 4.712-1.782 1.887 0 3.328.82 1.44.82 2.215 2.356.773 1.535.773 3.597zM1171.03 410.912q2.32 0 3.633 1.816 1.313 1.805 1.313 4.957 0 3.247-1.36 5.028-1.347 1.78-3.68 1.78-2.308 0-3.62-1.675h-.246l-.598 1.442h-2.73v-18.235h3.574v4.242q0 .81-.14 2.59h.14q1.254-1.945 3.715-1.945zm-1.148 2.86q-1.324 0-1.933.82-.61.808-.634 2.683v.387q0 2.11.62 3.023.634.914 1.993.914 1.1 0 1.745-1.008.656-1.02.656-2.953 0-1.935-.655-2.896-.656-.973-1.793-.973zM1187.25 424.26l-.692-1.782h-.094q-.902 1.137-1.863 1.582-.948.434-2.483.434-1.887 0-2.977-1.078-1.078-1.078-1.078-3.07 0-2.086 1.453-3.07 1.465-.997 4.406-1.102l2.275-.07v-.575q0-1.993-2.04-1.993-1.57 0-3.69.95l-1.184-2.415q2.262-1.183 5.016-1.183 2.637 0 4.043 1.147 1.405 1.148 1.405 3.492v8.73h-2.496zm-1.055-6.07l-1.383.046q-1.56.047-2.32.563-.762.514-.762 1.57 0 1.51 1.734 1.51 1.242 0 1.98-.714.75-.715.75-1.9v-1.077zM1196.988 424.26h-3.575v-18.235h3.575v18.235z"/></g><path d="M1253.03 79.742h137.144v400.564H1253.03z" fill="#e6e6e6"/><path d="M475.203 102.81q0 4.442-1.406 6.634-1.395 2.19-4.277 2.19-2.766 0-4.207-2.237-1.442-2.25-1.442-6.586 0-4.476 1.396-6.644 1.394-2.168 4.254-2.168 2.79 0 4.23 2.262 1.453 2.262 1.453 6.55zm-9.363 0q0 3.74.88 5.45.878 1.7 2.8 1.7 1.945 0 2.812-1.723.88-1.735.88-5.426 0-3.69-.88-5.4-.867-1.724-2.812-1.724-1.922 0-2.8 1.7-.88 1.687-.88 5.425zM631.055 111.4h-1.9V99.19q0-1.524.095-2.883-.246.246-.55.516-.305.27-2.79 2.285l-1.03-1.336 4.534-3.504h1.64V111.4zM795.11 111.4h-11.262v-1.675l4.51-4.535q2.064-2.086 2.72-2.977.656-.89.985-1.734.328-.845.328-1.818 0-1.37-.83-2.168-.833-.808-2.31-.808-1.066 0-2.027.35-.95.353-2.12 1.28l-1.033-1.325q2.368-1.968 5.157-1.968 2.414 0 3.785 1.242 1.37 1.23 1.37 3.316 0 1.63-.913 3.223-.915 1.594-3.423 4.03l-3.75 3.67v.093h8.812v1.805zM954.465 98.3q0 1.64-.926 2.683-.915 1.043-2.602 1.394v.094q2.062.26 3.058 1.314t.996 2.765q0 2.448-1.7 3.773-1.698 1.312-4.827 1.312-1.36 0-2.496-.21-1.126-.2-2.193-.716v-1.852q1.114.55 2.368.843 1.265.283 2.39.283 4.442 0 4.442-3.48 0-3.118-4.9-3.118h-1.686v-1.676h1.712q2.004 0 3.175-.88 1.172-.89 1.172-2.46 0-1.254-.868-1.97-.855-.714-2.332-.714-1.125 0-2.12.305-.997.305-2.274 1.126l-.985-1.313q1.056-.832 2.427-1.3 1.383-.48 2.906-.48 2.496 0 3.88 1.147 1.382 1.137 1.382 3.13zM1115.918 107.463h-2.543v3.938h-1.863v-3.937h-8.332v-1.7l8.133-11.59h2.062v11.52h2.543v1.77zm-4.406-1.77V100q0-1.675.117-3.785h-.095q-.562 1.125-1.054 1.864l-5.355 7.617h6.387zM1269.203 100.936q2.707 0 4.254 1.348 1.56 1.335 1.56 3.668 0 2.66-1.7 4.17-1.688 1.513-4.665 1.513-2.894 0-4.418-.926v-1.876q.82.528 2.04.832 1.218.293 2.402.293 2.062 0 3.2-.973 1.148-.973 1.148-2.813 0-3.586-4.395-3.586-1.114 0-2.978.34l-1.007-.644.644-8.016h8.52v1.793h-6.857l-.433 5.145q1.347-.27 2.683-.27z" style="line-height:125%;-inkscape-font-specification:'Open Sans'" font-weight="400" font-size="24" font-family="Open Sans" letter-spacing="0" word-spacing="0" fill="#999"/></svg>