<svg xmlns="http://www.w3.org/2000/svg" width="1024" height="256"><path fill="#fff" d="M0 0h1024v256H0z"/><path d="M673.078 119.963v4.855h-27.894v6.394h27.894v4.855l6.953-4.036 6.975-4.015L680.03 124l-6.952-4.037z" fill="#e91e6f"/><path d="M647.598 128c0 14.02-11.367 25.387-25.388 25.387-14.02 0-25.387-11.366-25.387-25.387 0-14.02 11.366-25.387 25.387-25.387 14.02 0 25.388 11.366 25.388 25.387z" fill="#fff"/><path d="M641.587 128c0 10.7-8.675 19.377-19.377 19.377-10.7 0-19.376-8.676-19.376-19.377 0-10.7 8.675-19.377 19.376-19.377 10.702 0 19.377 8.676 19.377 19.377z" fill="#303f9f"/><path d="M528.814 68.89l-.88 5.516c35.493 3.25 65.026 15.574 79.006 32.01l-4.076 3.156 7.433 3.058 7.453 3.057-1.08-7.973-1.078-7.972-3.417 2.637c-15.832-17.785-46.887-30.148-83.36-33.49z" style="text-indent:0;text-align:start;line-height:normal;text-transform:none;block-progression:tb;-inkscape-font-specification:Sans" color="#000" fill="#b3b3b3" overflow="visible" font-family="Sans"/><path d="M617.71 141.762l-7.553 2.777-7.553 2.777 3.637 3.037c-14.24 16.04-43.378 28.01-78.305 31.21l.88 5.555c35.833-3.283 66.445-15.267 82.52-32.55l3.638 3.037 1.378-7.932 1.36-7.913z" style="text-indent:0;text-align:start;line-height:normal;text-transform:none;block-progression:tb;-inkscape-font-specification:Sans" color="#000" fill="#e91e6f" overflow="visible" font-family="Sans"/><path d="M533.43 69.992c0 14.02-11.366 25.387-25.387 25.387-14.02 0-25.387-11.367-25.387-25.388 0-14.02 11.366-25.387 25.387-25.387 14.02 0 25.388 11.366 25.388 25.387z" fill="#fff"/><path d="M527.42 69.992c0 10.702-8.675 19.377-19.377 19.377-10.7 0-19.376-8.676-19.376-19.378 0-10.7 8.675-19.377 19.376-19.377 10.702 0 19.377 8.676 19.377 19.377z" fill="#666"/><path d="M533.43 186.008c0 14.02-11.366 25.387-25.387 25.387-14.02 0-25.387-11.366-25.387-25.387 0-14.02 11.366-25.387 25.387-25.387 14.02 0 25.388 11.367 25.388 25.388z" fill="#fff"/><path d="M527.42 186.008c0 10.7-8.675 19.377-19.377 19.377-10.7 0-19.376-8.676-19.376-19.377 0-10.702 8.675-19.377 19.376-19.377 10.702 0 19.377 8.676 19.377 19.378z" fill="#303f9f"/><path d="M409.007 146.258l-6.474 2.617c13.212 18.858 42.792 32.487 78.646 37.265l-1.2 4.596 7.753-2.138 7.753-2.118-4.916-4.876v-.04c-.02 0-.04.002-.06 0l-.74-.74-5.734-5.654-1.438 5.495c-34.193-4.553-61.825-17.614-73.59-34.407z" style="text-indent:0;text-align:start;line-height:normal;text-transform:none;block-progression:tb;-inkscape-font-specification:Sans" color="#000" fill="#e91e6f" overflow="visible" font-family="Sans"/><path d="M480.56 64.675l.58 5.175c-35.838 4.783-65.4 18.434-78.607 37.285l6.474 2.597c11.67-16.66 38.957-29.654 72.772-34.307l.578 5.235 6.474-4.776 6.474-4.775-7.373-3.218-7.373-3.217z" style="text-indent:0;text-align:start;line-height:normal;text-transform:none;block-progression:tb;-inkscape-font-specification:Sans" color="#000" fill="#b3b3b3" overflow="visible" font-family="Sans"/><path d="M417.415 128c0 14.02-11.367 25.387-25.388 25.387-14.02 0-25.387-11.366-25.387-25.387 0-14.02 11.366-25.387 25.387-25.387 14.02 0 25.388 11.366 25.388 25.387z" fill="#fff"/><path d="M411.404 128c0 10.7-8.675 19.377-19.377 19.377-10.7 0-19.376-8.676-19.376-19.377 0-10.7 8.676-19.377 19.377-19.377 10.702 0 19.377 8.676 19.377 19.377z" fill="#303f9f"/><path d="M364.89 121.24v4.857h-27.895v6.394h27.894v4.856l6.952-4.036 6.974-4.016-6.974-4.016-6.953-4.037z" fill="#e91e6f"/></svg>