<svg xmlns="http://www.w3.org/2000/svg" width="1024" height="256"><path d="M0 0h1024v256H0z" fill="#fff"/><path d="M556.984 176.864v4.856H529.09v6.394h27.894v4.855l6.954-4.037 6.973-4.016-6.972-4.016-6.954-4.036z" fill="#e91e6f"/><path d="M533.1 72.377c0 14.02-11.366 25.387-25.387 25.387-14.02 0-25.387-11.366-25.387-25.387 0-14.02 11.366-25.387 25.387-25.387 14.02 0 25.387 11.366 25.387 25.387z" fill="#fff"/><path d="M527.09 72.377c0 10.7-8.675 19.377-19.377 19.377-10.7 0-19.377-8.676-19.377-19.377 0-10.7 8.676-19.377 19.377-19.377 10.702 0 19.377 8.676 19.377 19.377z" fill="#303f9f"/><path d="M480.12 78.83l1.906 4.688c-19.87 7.106-32.937 23.39-32.937 41.5 0 24.95 24.528 45.157 54.624 45.157v-5.938c-26.324 0-47.532-17.54-47.532-39.22 0-15.56 11.1-29.564 28.157-35.842l2.092 5.093 5.094-6.593 5.094-6.563-8.25-1.125-8.25-1.156z" style="text-indent:0;text-align:start;line-height:normal;text-transform:none;block-progression:tb;-inkscape-font-specification:Sans" color="#000" fill="#e91e6f" overflow="visible" font-family="Sans"/><path d="M533.1 183.623c0 14.02-11.366 25.387-25.387 25.387-14.02 0-25.387-11.366-25.387-25.387 0-14.02 11.366-25.387 25.387-25.387 14.02 0 25.387 11.366 25.387 25.387z" fill="#fff"/><path d="M527.09 183.623c0 10.7-8.675 19.377-19.377 19.377-10.7 0-19.376-8.676-19.376-19.377 0-10.7 8.675-19.377 19.376-19.377 10.702 0 19.377 8.676 19.377 19.377z" fill="#303f9f"/><path d="M529.93 84.677c-1.018 1.838-2.26 3.54-3.687 5.062 14.552 6.7 24.375 19.508 24.375 34.25 0 15.56-11.1 29.565-28.156 35.843l-2.094-5.094-5.094 6.593-5.093 6.562 8.25 1.125 8.25 1.157-1.906-4.688c19.872-7.107 32.938-23.39 32.938-41.5 0-16.865-11.224-31.56-27.78-39.313z" style="text-indent:0;text-align:start;line-height:normal;text-transform:none;block-progression:tb;-inkscape-font-specification:Sans" color="#000" fill="#e91e6f" overflow="visible" font-family="Sans"/><path d="M480.984 176.864v4.856H453.09v6.394h27.894v4.855l6.954-4.037 6.973-4.016-6.972-4.016-6.954-4.036z" fill="#e91e6f"/><g style="line-height:125%;-inkscape-font-specification:Droid Sans" font-size="32" letter-spacing="0" word-spacing="0" fill="#999" font-family="Droid Sans"><path style="-inkscape-font-specification:Droid Sans Bold" d="M516.334 137.024h-5.532l-4.672-8.64-4.67 8.64h-5.19l6.94-11.78-6.455-11.064h5.344l4.28 8.22 4.188-8.22h5.22l-6.533 11.328 7.08 11.516" font-weight="bold"/></g></svg>